G04 #@! TF.GenerationSoftware,KiCad,Pcbnew,(5.1.4)-1*
G04 #@! TF.CreationDate,2020-05-09T12:02:50-07:00*
G04 #@! TF.ProjectId,Kicad LED Rings_Circular_final,4b696361-6420-44c4-9544-2052696e6773,rev?*
G04 #@! TF.SameCoordinates,Original*
G04 #@! TF.FileFunction,Copper,L3,Inr*
G04 #@! TF.FilePolarity,Positive*
%FSLAX46Y46*%
G04 Gerber Fmt 4.6, Leading zero omitted, Abs format (unit mm)*
G04 Created by KiCad (PCBNEW (5.1.4)-1) date 2020-05-09 12:02:50*
%MOMM*%
%LPD*%
G04 APERTURE LIST*
%ADD10R,1.000000X1.000000*%
%ADD11O,1.000000X1.000000*%
%ADD12C,0.450000*%
%ADD13C,0.635000*%
%ADD14C,0.254000*%
G04 APERTURE END LIST*
D10*
X98680000Y-73630000D03*
D11*
X98680000Y-74900000D03*
X98680000Y-76170000D03*
D10*
X120611900Y-74899520D03*
D11*
X120611900Y-76169520D03*
D12*
X103210360Y-74673460D03*
X102859840Y-75125580D03*
X102532180Y-75585320D03*
X102235000Y-76111100D03*
X102001320Y-76631800D03*
X114581940Y-70271640D03*
X112748060Y-71963280D03*
X112087660Y-67020021D03*
X103723440Y-67843400D03*
X107119420Y-67978021D03*
X106535220Y-67499021D03*
X111785400Y-70947280D03*
X117782340Y-70335140D03*
X116850160Y-69212460D03*
X114579400Y-69557900D03*
X103098600Y-68491100D03*
X105173780Y-68493640D03*
D13*
X98680000Y-77680000D02*
X98680000Y-76170000D01*
X99882081Y-76170000D02*
X99892081Y-76160000D01*
X98680000Y-76170000D02*
X99882081Y-76170000D01*
X99892081Y-76160000D02*
X96980000Y-76160000D01*
D14*
G36*
X111268255Y-66750950D02*
G01*
X111260709Y-66769168D01*
X111227660Y-66935318D01*
X111227660Y-67104724D01*
X111260709Y-67270874D01*
X111325538Y-67427384D01*
X111419655Y-67568239D01*
X111539442Y-67688026D01*
X111680297Y-67782143D01*
X111836807Y-67846972D01*
X112002957Y-67880021D01*
X112172363Y-67880021D01*
X112338513Y-67846972D01*
X112495023Y-67782143D01*
X112635878Y-67688026D01*
X112755665Y-67568239D01*
X112849782Y-67427384D01*
X112914611Y-67270874D01*
X112947660Y-67104724D01*
X112947660Y-67069053D01*
X114150008Y-67431598D01*
X115450888Y-67980612D01*
X116377570Y-68493922D01*
X116301942Y-68544455D01*
X116182155Y-68664242D01*
X116088038Y-68805097D01*
X116023209Y-68961607D01*
X115990160Y-69127757D01*
X115990160Y-69297163D01*
X116023209Y-69463313D01*
X116088038Y-69619823D01*
X116182155Y-69760678D01*
X116301942Y-69880465D01*
X116442797Y-69974582D01*
X116599307Y-70039411D01*
X116765457Y-70072460D01*
X116934863Y-70072460D01*
X116962571Y-70066949D01*
X116955389Y-70084287D01*
X116922340Y-70250437D01*
X116922340Y-70419843D01*
X116955389Y-70585993D01*
X117020218Y-70742503D01*
X117114335Y-70883358D01*
X117234122Y-71003145D01*
X117374977Y-71097262D01*
X117531487Y-71162091D01*
X117697637Y-71195140D01*
X117867043Y-71195140D01*
X118033193Y-71162091D01*
X118189703Y-71097262D01*
X118330558Y-71003145D01*
X118450345Y-70883358D01*
X118544462Y-70742503D01*
X118609291Y-70585993D01*
X118642340Y-70419843D01*
X118642340Y-70250437D01*
X118624692Y-70161711D01*
X118904092Y-70406191D01*
X119861859Y-71443682D01*
X120703921Y-72577099D01*
X121420738Y-73793602D01*
X121451276Y-73860902D01*
X121356080Y-73810018D01*
X121236382Y-73773708D01*
X121111900Y-73761448D01*
X120111900Y-73761448D01*
X119987418Y-73773708D01*
X119867720Y-73810018D01*
X119757406Y-73868983D01*
X119660715Y-73948335D01*
X119581363Y-74045026D01*
X119522398Y-74155340D01*
X119486088Y-74275038D01*
X119473828Y-74399520D01*
X119473828Y-75399520D01*
X119486088Y-75524002D01*
X119522398Y-75643700D01*
X119564197Y-75721899D01*
X119558224Y-75733073D01*
X119493323Y-75947021D01*
X119471409Y-76169520D01*
X119493323Y-76392019D01*
X119558224Y-76605967D01*
X119663616Y-76803143D01*
X119805451Y-76975969D01*
X119978277Y-77117804D01*
X120175453Y-77223196D01*
X120389401Y-77288097D01*
X120556148Y-77304520D01*
X120667652Y-77304520D01*
X120834399Y-77288097D01*
X121048347Y-77223196D01*
X121245523Y-77117804D01*
X121418349Y-76975969D01*
X121560184Y-76803143D01*
X121665576Y-76605967D01*
X121730477Y-76392019D01*
X121752391Y-76169520D01*
X121730477Y-75947021D01*
X121665576Y-75733073D01*
X121659603Y-75721899D01*
X121701402Y-75643700D01*
X121737712Y-75524002D01*
X121749972Y-75399520D01*
X121749972Y-74519167D01*
X122004187Y-75079405D01*
X122447659Y-76419941D01*
X122746129Y-77800020D01*
X122896213Y-79204007D01*
X122896213Y-80615993D01*
X122746129Y-82019980D01*
X122447659Y-83400059D01*
X122004187Y-84740595D01*
X121420738Y-86026398D01*
X120703921Y-87242901D01*
X119861859Y-88376318D01*
X118904092Y-89413809D01*
X117841473Y-90343617D01*
X116686041Y-91155209D01*
X115450888Y-91839388D01*
X114150008Y-92388402D01*
X112798142Y-92796031D01*
X111410606Y-93057656D01*
X110003122Y-93170313D01*
X108591636Y-93132725D01*
X107192142Y-92945319D01*
X105820497Y-92610217D01*
X104492242Y-92131216D01*
X103222426Y-91513745D01*
X102025437Y-90764798D01*
X100914837Y-89892862D01*
X99903211Y-88907816D01*
X99002019Y-87820821D01*
X98221473Y-86644194D01*
X97570417Y-85391265D01*
X97056227Y-84076232D01*
X96684730Y-82713993D01*
X96460135Y-81319985D01*
X96384986Y-79910000D01*
X101276021Y-79910000D01*
X101365259Y-81129261D01*
X101631073Y-82322536D01*
X102067795Y-83464391D01*
X102666120Y-84530491D01*
X103413293Y-85498114D01*
X104293392Y-86346635D01*
X105287657Y-87057971D01*
X106374897Y-87616960D01*
X107531941Y-88011688D01*
X108734128Y-88233743D01*
X109955835Y-88278392D01*
X111171023Y-88144684D01*
X112353794Y-87835467D01*
X113478938Y-87357332D01*
X114522474Y-86720471D01*
X115462163Y-85938457D01*
X116277975Y-85027956D01*
X116952523Y-84008375D01*
X117471431Y-82901444D01*
X117823639Y-81730756D01*
X118001640Y-80521261D01*
X118001640Y-79298739D01*
X117823639Y-78089244D01*
X117471431Y-76918556D01*
X116952523Y-75811625D01*
X116277975Y-74792044D01*
X115462163Y-73881543D01*
X114522474Y-73099529D01*
X113478938Y-72462668D01*
X113455381Y-72452657D01*
X113510182Y-72370643D01*
X113575011Y-72214133D01*
X113608060Y-72047983D01*
X113608060Y-71878577D01*
X113575011Y-71712427D01*
X113510182Y-71555917D01*
X113416065Y-71415062D01*
X113296278Y-71295275D01*
X113155423Y-71201158D01*
X112998913Y-71136329D01*
X112832763Y-71103280D01*
X112663357Y-71103280D01*
X112629894Y-71109936D01*
X112645400Y-71031983D01*
X112645400Y-70862577D01*
X112612351Y-70696427D01*
X112547522Y-70539917D01*
X112453405Y-70399062D01*
X112333618Y-70279275D01*
X112192763Y-70185158D01*
X112036253Y-70120329D01*
X111870103Y-70087280D01*
X111700697Y-70087280D01*
X111534547Y-70120329D01*
X111378037Y-70185158D01*
X111237182Y-70279275D01*
X111117395Y-70399062D01*
X111023278Y-70539917D01*
X110958449Y-70696427D01*
X110925400Y-70862577D01*
X110925400Y-71031983D01*
X110958449Y-71198133D01*
X111023278Y-71354643D01*
X111117395Y-71495498D01*
X111237182Y-71615285D01*
X111378037Y-71709402D01*
X111509169Y-71763719D01*
X111171023Y-71675316D01*
X109955835Y-71541608D01*
X108734128Y-71586257D01*
X107531941Y-71808312D01*
X106374897Y-72203040D01*
X105287657Y-72762029D01*
X104293392Y-73473365D01*
X103413293Y-74321886D01*
X102666120Y-75289509D01*
X102067795Y-76355609D01*
X101631073Y-77497464D01*
X101365259Y-78690739D01*
X101276021Y-79910000D01*
X96384986Y-79910000D01*
X96460135Y-78500015D01*
X96684730Y-77106007D01*
X96857664Y-76471874D01*
X97585881Y-76471874D01*
X97602554Y-76526864D01*
X97692877Y-76730206D01*
X97821135Y-76912020D01*
X97982399Y-77065318D01*
X98170471Y-77184210D01*
X98378124Y-77264126D01*
X98553000Y-77139129D01*
X98553000Y-76297000D01*
X98807000Y-76297000D01*
X98807000Y-77139129D01*
X98981876Y-77264126D01*
X99189529Y-77184210D01*
X99377601Y-77065318D01*
X99538865Y-76912020D01*
X99667123Y-76730206D01*
X99757446Y-76526864D01*
X99774119Y-76471874D01*
X99647954Y-76297000D01*
X98807000Y-76297000D01*
X98553000Y-76297000D01*
X97712046Y-76297000D01*
X97585881Y-76471874D01*
X96857664Y-76471874D01*
X97056227Y-75743768D01*
X97570417Y-74428735D01*
X97594690Y-74382023D01*
X97632297Y-74452379D01*
X97626324Y-74463553D01*
X97561423Y-74677501D01*
X97539509Y-74900000D01*
X97561423Y-75122499D01*
X97626324Y-75336447D01*
X97731716Y-75533623D01*
X97739726Y-75543383D01*
X97692877Y-75609794D01*
X97602554Y-75813136D01*
X97585881Y-75868126D01*
X97712046Y-76043000D01*
X98553000Y-76043000D01*
X98553000Y-76027983D01*
X98624248Y-76035000D01*
X98735752Y-76035000D01*
X98807000Y-76027983D01*
X98807000Y-76043000D01*
X99647954Y-76043000D01*
X99774119Y-75868126D01*
X99757446Y-75813136D01*
X99667123Y-75609794D01*
X99620274Y-75543383D01*
X99628284Y-75533623D01*
X99733676Y-75336447D01*
X99798577Y-75122499D01*
X99820491Y-74900000D01*
X99798577Y-74677501D01*
X99733676Y-74463553D01*
X99727703Y-74452379D01*
X99769502Y-74374180D01*
X99805812Y-74254482D01*
X99818072Y-74130000D01*
X99818072Y-73130000D01*
X99805812Y-73005518D01*
X99769502Y-72885820D01*
X99710537Y-72775506D01*
X99631185Y-72678815D01*
X99534494Y-72599463D01*
X99424180Y-72540498D01*
X99304482Y-72504188D01*
X99180000Y-72491928D01*
X98675141Y-72491928D01*
X99002019Y-71999179D01*
X99903211Y-70912184D01*
X100914837Y-69927138D01*
X101493029Y-69473197D01*
X113719400Y-69473197D01*
X113719400Y-69642603D01*
X113752449Y-69808753D01*
X113817278Y-69965263D01*
X113911395Y-70106118D01*
X114031182Y-70225905D01*
X114172037Y-70320022D01*
X114328547Y-70384851D01*
X114494697Y-70417900D01*
X114664103Y-70417900D01*
X114830253Y-70384851D01*
X114986763Y-70320022D01*
X115127618Y-70225905D01*
X115247405Y-70106118D01*
X115341522Y-69965263D01*
X115406351Y-69808753D01*
X115439400Y-69642603D01*
X115439400Y-69473197D01*
X115406351Y-69307047D01*
X115341522Y-69150537D01*
X115247405Y-69009682D01*
X115127618Y-68889895D01*
X114986763Y-68795778D01*
X114830253Y-68730949D01*
X114664103Y-68697900D01*
X114494697Y-68697900D01*
X114328547Y-68730949D01*
X114172037Y-68795778D01*
X114031182Y-68889895D01*
X113911395Y-69009682D01*
X113817278Y-69150537D01*
X113752449Y-69307047D01*
X113719400Y-69473197D01*
X101493029Y-69473197D01*
X102025437Y-69055202D01*
X102324018Y-68868382D01*
X102336478Y-68898463D01*
X102430595Y-69039318D01*
X102550382Y-69159105D01*
X102691237Y-69253222D01*
X102847747Y-69318051D01*
X103013897Y-69351100D01*
X103183303Y-69351100D01*
X103349453Y-69318051D01*
X103505963Y-69253222D01*
X103646818Y-69159105D01*
X103766605Y-69039318D01*
X103860722Y-68898463D01*
X103925551Y-68741953D01*
X103938372Y-68677496D01*
X103974293Y-68670351D01*
X104130803Y-68605522D01*
X104271658Y-68511405D01*
X104313780Y-68469283D01*
X104313780Y-68578343D01*
X104346829Y-68744493D01*
X104411658Y-68901003D01*
X104505775Y-69041858D01*
X104625562Y-69161645D01*
X104766417Y-69255762D01*
X104922927Y-69320591D01*
X105089077Y-69353640D01*
X105258483Y-69353640D01*
X105424633Y-69320591D01*
X105581143Y-69255762D01*
X105721998Y-69161645D01*
X105841785Y-69041858D01*
X105935902Y-68901003D01*
X106000731Y-68744493D01*
X106033780Y-68578343D01*
X106033780Y-68408937D01*
X106000731Y-68242787D01*
X105956867Y-68136891D01*
X105987002Y-68167026D01*
X106127857Y-68261143D01*
X106284367Y-68325972D01*
X106337027Y-68336447D01*
X106357298Y-68385384D01*
X106451415Y-68526239D01*
X106571202Y-68646026D01*
X106712057Y-68740143D01*
X106868567Y-68804972D01*
X107034717Y-68838021D01*
X107204123Y-68838021D01*
X107370273Y-68804972D01*
X107526783Y-68740143D01*
X107667638Y-68646026D01*
X107787425Y-68526239D01*
X107881542Y-68385384D01*
X107946371Y-68228874D01*
X107979420Y-68062724D01*
X107979420Y-67893318D01*
X107946371Y-67727168D01*
X107881542Y-67570658D01*
X107787425Y-67429803D01*
X107667638Y-67310016D01*
X107526783Y-67215899D01*
X107370273Y-67151070D01*
X107317613Y-67140595D01*
X107297342Y-67091658D01*
X107203225Y-66950803D01*
X107139873Y-66887451D01*
X107192142Y-66874681D01*
X108591636Y-66687275D01*
X110003122Y-66649687D01*
X111268255Y-66750950D01*
X111268255Y-66750950D01*
G37*
X111268255Y-66750950D02*
X111260709Y-66769168D01*
X111227660Y-66935318D01*
X111227660Y-67104724D01*
X111260709Y-67270874D01*
X111325538Y-67427384D01*
X111419655Y-67568239D01*
X111539442Y-67688026D01*
X111680297Y-67782143D01*
X111836807Y-67846972D01*
X112002957Y-67880021D01*
X112172363Y-67880021D01*
X112338513Y-67846972D01*
X112495023Y-67782143D01*
X112635878Y-67688026D01*
X112755665Y-67568239D01*
X112849782Y-67427384D01*
X112914611Y-67270874D01*
X112947660Y-67104724D01*
X112947660Y-67069053D01*
X114150008Y-67431598D01*
X115450888Y-67980612D01*
X116377570Y-68493922D01*
X116301942Y-68544455D01*
X116182155Y-68664242D01*
X116088038Y-68805097D01*
X116023209Y-68961607D01*
X115990160Y-69127757D01*
X115990160Y-69297163D01*
X116023209Y-69463313D01*
X116088038Y-69619823D01*
X116182155Y-69760678D01*
X116301942Y-69880465D01*
X116442797Y-69974582D01*
X116599307Y-70039411D01*
X116765457Y-70072460D01*
X116934863Y-70072460D01*
X116962571Y-70066949D01*
X116955389Y-70084287D01*
X116922340Y-70250437D01*
X116922340Y-70419843D01*
X116955389Y-70585993D01*
X117020218Y-70742503D01*
X117114335Y-70883358D01*
X117234122Y-71003145D01*
X117374977Y-71097262D01*
X117531487Y-71162091D01*
X117697637Y-71195140D01*
X117867043Y-71195140D01*
X118033193Y-71162091D01*
X118189703Y-71097262D01*
X118330558Y-71003145D01*
X118450345Y-70883358D01*
X118544462Y-70742503D01*
X118609291Y-70585993D01*
X118642340Y-70419843D01*
X118642340Y-70250437D01*
X118624692Y-70161711D01*
X118904092Y-70406191D01*
X119861859Y-71443682D01*
X120703921Y-72577099D01*
X121420738Y-73793602D01*
X121451276Y-73860902D01*
X121356080Y-73810018D01*
X121236382Y-73773708D01*
X121111900Y-73761448D01*
X120111900Y-73761448D01*
X119987418Y-73773708D01*
X119867720Y-73810018D01*
X119757406Y-73868983D01*
X119660715Y-73948335D01*
X119581363Y-74045026D01*
X119522398Y-74155340D01*
X119486088Y-74275038D01*
X119473828Y-74399520D01*
X119473828Y-75399520D01*
X119486088Y-75524002D01*
X119522398Y-75643700D01*
X119564197Y-75721899D01*
X119558224Y-75733073D01*
X119493323Y-75947021D01*
X119471409Y-76169520D01*
X119493323Y-76392019D01*
X119558224Y-76605967D01*
X119663616Y-76803143D01*
X119805451Y-76975969D01*
X119978277Y-77117804D01*
X120175453Y-77223196D01*
X120389401Y-77288097D01*
X120556148Y-77304520D01*
X120667652Y-77304520D01*
X120834399Y-77288097D01*
X121048347Y-77223196D01*
X121245523Y-77117804D01*
X121418349Y-76975969D01*
X121560184Y-76803143D01*
X121665576Y-76605967D01*
X121730477Y-76392019D01*
X121752391Y-76169520D01*
X121730477Y-75947021D01*
X121665576Y-75733073D01*
X121659603Y-75721899D01*
X121701402Y-75643700D01*
X121737712Y-75524002D01*
X121749972Y-75399520D01*
X121749972Y-74519167D01*
X122004187Y-75079405D01*
X122447659Y-76419941D01*
X122746129Y-77800020D01*
X122896213Y-79204007D01*
X122896213Y-80615993D01*
X122746129Y-82019980D01*
X122447659Y-83400059D01*
X122004187Y-84740595D01*
X121420738Y-86026398D01*
X120703921Y-87242901D01*
X119861859Y-88376318D01*
X118904092Y-89413809D01*
X117841473Y-90343617D01*
X116686041Y-91155209D01*
X115450888Y-91839388D01*
X114150008Y-92388402D01*
X112798142Y-92796031D01*
X111410606Y-93057656D01*
X110003122Y-93170313D01*
X108591636Y-93132725D01*
X107192142Y-92945319D01*
X105820497Y-92610217D01*
X104492242Y-92131216D01*
X103222426Y-91513745D01*
X102025437Y-90764798D01*
X100914837Y-89892862D01*
X99903211Y-88907816D01*
X99002019Y-87820821D01*
X98221473Y-86644194D01*
X97570417Y-85391265D01*
X97056227Y-84076232D01*
X96684730Y-82713993D01*
X96460135Y-81319985D01*
X96384986Y-79910000D01*
X101276021Y-79910000D01*
X101365259Y-81129261D01*
X101631073Y-82322536D01*
X102067795Y-83464391D01*
X102666120Y-84530491D01*
X103413293Y-85498114D01*
X104293392Y-86346635D01*
X105287657Y-87057971D01*
X106374897Y-87616960D01*
X107531941Y-88011688D01*
X108734128Y-88233743D01*
X109955835Y-88278392D01*
X111171023Y-88144684D01*
X112353794Y-87835467D01*
X113478938Y-87357332D01*
X114522474Y-86720471D01*
X115462163Y-85938457D01*
X116277975Y-85027956D01*
X116952523Y-84008375D01*
X117471431Y-82901444D01*
X117823639Y-81730756D01*
X118001640Y-80521261D01*
X118001640Y-79298739D01*
X117823639Y-78089244D01*
X117471431Y-76918556D01*
X116952523Y-75811625D01*
X116277975Y-74792044D01*
X115462163Y-73881543D01*
X114522474Y-73099529D01*
X113478938Y-72462668D01*
X113455381Y-72452657D01*
X113510182Y-72370643D01*
X113575011Y-72214133D01*
X113608060Y-72047983D01*
X113608060Y-71878577D01*
X113575011Y-71712427D01*
X113510182Y-71555917D01*
X113416065Y-71415062D01*
X113296278Y-71295275D01*
X113155423Y-71201158D01*
X112998913Y-71136329D01*
X112832763Y-71103280D01*
X112663357Y-71103280D01*
X112629894Y-71109936D01*
X112645400Y-71031983D01*
X112645400Y-70862577D01*
X112612351Y-70696427D01*
X112547522Y-70539917D01*
X112453405Y-70399062D01*
X112333618Y-70279275D01*
X112192763Y-70185158D01*
X112036253Y-70120329D01*
X111870103Y-70087280D01*
X111700697Y-70087280D01*
X111534547Y-70120329D01*
X111378037Y-70185158D01*
X111237182Y-70279275D01*
X111117395Y-70399062D01*
X111023278Y-70539917D01*
X110958449Y-70696427D01*
X110925400Y-70862577D01*
X110925400Y-71031983D01*
X110958449Y-71198133D01*
X111023278Y-71354643D01*
X111117395Y-71495498D01*
X111237182Y-71615285D01*
X111378037Y-71709402D01*
X111509169Y-71763719D01*
X111171023Y-71675316D01*
X109955835Y-71541608D01*
X108734128Y-71586257D01*
X107531941Y-71808312D01*
X106374897Y-72203040D01*
X105287657Y-72762029D01*
X104293392Y-73473365D01*
X103413293Y-74321886D01*
X102666120Y-75289509D01*
X102067795Y-76355609D01*
X101631073Y-77497464D01*
X101365259Y-78690739D01*
X101276021Y-79910000D01*
X96384986Y-79910000D01*
X96460135Y-78500015D01*
X96684730Y-77106007D01*
X96857664Y-76471874D01*
X97585881Y-76471874D01*
X97602554Y-76526864D01*
X97692877Y-76730206D01*
X97821135Y-76912020D01*
X97982399Y-77065318D01*
X98170471Y-77184210D01*
X98378124Y-77264126D01*
X98553000Y-77139129D01*
X98553000Y-76297000D01*
X98807000Y-76297000D01*
X98807000Y-77139129D01*
X98981876Y-77264126D01*
X99189529Y-77184210D01*
X99377601Y-77065318D01*
X99538865Y-76912020D01*
X99667123Y-76730206D01*
X99757446Y-76526864D01*
X99774119Y-76471874D01*
X99647954Y-76297000D01*
X98807000Y-76297000D01*
X98553000Y-76297000D01*
X97712046Y-76297000D01*
X97585881Y-76471874D01*
X96857664Y-76471874D01*
X97056227Y-75743768D01*
X97570417Y-74428735D01*
X97594690Y-74382023D01*
X97632297Y-74452379D01*
X97626324Y-74463553D01*
X97561423Y-74677501D01*
X97539509Y-74900000D01*
X97561423Y-75122499D01*
X97626324Y-75336447D01*
X97731716Y-75533623D01*
X97739726Y-75543383D01*
X97692877Y-75609794D01*
X97602554Y-75813136D01*
X97585881Y-75868126D01*
X97712046Y-76043000D01*
X98553000Y-76043000D01*
X98553000Y-76027983D01*
X98624248Y-76035000D01*
X98735752Y-76035000D01*
X98807000Y-76027983D01*
X98807000Y-76043000D01*
X99647954Y-76043000D01*
X99774119Y-75868126D01*
X99757446Y-75813136D01*
X99667123Y-75609794D01*
X99620274Y-75543383D01*
X99628284Y-75533623D01*
X99733676Y-75336447D01*
X99798577Y-75122499D01*
X99820491Y-74900000D01*
X99798577Y-74677501D01*
X99733676Y-74463553D01*
X99727703Y-74452379D01*
X99769502Y-74374180D01*
X99805812Y-74254482D01*
X99818072Y-74130000D01*
X99818072Y-73130000D01*
X99805812Y-73005518D01*
X99769502Y-72885820D01*
X99710537Y-72775506D01*
X99631185Y-72678815D01*
X99534494Y-72599463D01*
X99424180Y-72540498D01*
X99304482Y-72504188D01*
X99180000Y-72491928D01*
X98675141Y-72491928D01*
X99002019Y-71999179D01*
X99903211Y-70912184D01*
X100914837Y-69927138D01*
X101493029Y-69473197D01*
X113719400Y-69473197D01*
X113719400Y-69642603D01*
X113752449Y-69808753D01*
X113817278Y-69965263D01*
X113911395Y-70106118D01*
X114031182Y-70225905D01*
X114172037Y-70320022D01*
X114328547Y-70384851D01*
X114494697Y-70417900D01*
X114664103Y-70417900D01*
X114830253Y-70384851D01*
X114986763Y-70320022D01*
X115127618Y-70225905D01*
X115247405Y-70106118D01*
X115341522Y-69965263D01*
X115406351Y-69808753D01*
X115439400Y-69642603D01*
X115439400Y-69473197D01*
X115406351Y-69307047D01*
X115341522Y-69150537D01*
X115247405Y-69009682D01*
X115127618Y-68889895D01*
X114986763Y-68795778D01*
X114830253Y-68730949D01*
X114664103Y-68697900D01*
X114494697Y-68697900D01*
X114328547Y-68730949D01*
X114172037Y-68795778D01*
X114031182Y-68889895D01*
X113911395Y-69009682D01*
X113817278Y-69150537D01*
X113752449Y-69307047D01*
X113719400Y-69473197D01*
X101493029Y-69473197D01*
X102025437Y-69055202D01*
X102324018Y-68868382D01*
X102336478Y-68898463D01*
X102430595Y-69039318D01*
X102550382Y-69159105D01*
X102691237Y-69253222D01*
X102847747Y-69318051D01*
X103013897Y-69351100D01*
X103183303Y-69351100D01*
X103349453Y-69318051D01*
X103505963Y-69253222D01*
X103646818Y-69159105D01*
X103766605Y-69039318D01*
X103860722Y-68898463D01*
X103925551Y-68741953D01*
X103938372Y-68677496D01*
X103974293Y-68670351D01*
X104130803Y-68605522D01*
X104271658Y-68511405D01*
X104313780Y-68469283D01*
X104313780Y-68578343D01*
X104346829Y-68744493D01*
X104411658Y-68901003D01*
X104505775Y-69041858D01*
X104625562Y-69161645D01*
X104766417Y-69255762D01*
X104922927Y-69320591D01*
X105089077Y-69353640D01*
X105258483Y-69353640D01*
X105424633Y-69320591D01*
X105581143Y-69255762D01*
X105721998Y-69161645D01*
X105841785Y-69041858D01*
X105935902Y-68901003D01*
X106000731Y-68744493D01*
X106033780Y-68578343D01*
X106033780Y-68408937D01*
X106000731Y-68242787D01*
X105956867Y-68136891D01*
X105987002Y-68167026D01*
X106127857Y-68261143D01*
X106284367Y-68325972D01*
X106337027Y-68336447D01*
X106357298Y-68385384D01*
X106451415Y-68526239D01*
X106571202Y-68646026D01*
X106712057Y-68740143D01*
X106868567Y-68804972D01*
X107034717Y-68838021D01*
X107204123Y-68838021D01*
X107370273Y-68804972D01*
X107526783Y-68740143D01*
X107667638Y-68646026D01*
X107787425Y-68526239D01*
X107881542Y-68385384D01*
X107946371Y-68228874D01*
X107979420Y-68062724D01*
X107979420Y-67893318D01*
X107946371Y-67727168D01*
X107881542Y-67570658D01*
X107787425Y-67429803D01*
X107667638Y-67310016D01*
X107526783Y-67215899D01*
X107370273Y-67151070D01*
X107317613Y-67140595D01*
X107297342Y-67091658D01*
X107203225Y-66950803D01*
X107139873Y-66887451D01*
X107192142Y-66874681D01*
X108591636Y-66687275D01*
X110003122Y-66649687D01*
X111268255Y-66750950D01*
M02*
