M48
; DRILL file {KiCad (5.1.4)-1} date 2020/5/9 12:02:45
; FORMAT={-:-/ absolute / inch / decimal}
; #@! TF.CreationDate,2020-05-09T12:02:45-07:00
; #@! TF.GenerationSoftware,Kicad,Pcbnew,(5.1.4)-1
FMAT,2
INCH
T1C0.0079
T2C0.0256
%
G90
G05
T1
X4.0158Y-3.017
X4.025Y-2.9965
X4.0367Y-2.9758
X4.0496Y-2.9577
X4.059Y-2.6965
X4.0634Y-2.9399
X4.0836Y-2.671
X4.1407Y-2.6966
X4.1943Y-2.6574
X4.2173Y-2.6763
X4.401Y-2.7932
X4.4129Y-2.6386
X4.4389Y-2.8332
X4.511Y-2.7385
X4.5111Y-2.7666
X4.6004Y-2.7249
X4.6371Y-2.7691
T2
X4.7485Y-2.9488
X4.7485Y-2.9988
X3.885Y-2.8988
X3.885Y-2.9488
X3.885Y-2.9988
T0
M30
