G04 #@! TF.GenerationSoftware,KiCad,Pcbnew,(5.1.4)-1*
G04 #@! TF.CreationDate,2020-07-29T22:37:46-07:00*
G04 #@! TF.ProjectId,Kicad LED Rings_Circular_final_V2,4b696361-6420-44c4-9544-2052696e6773,rev?*
G04 #@! TF.SameCoordinates,Original*
G04 #@! TF.FileFunction,Legend,Bot*
G04 #@! TF.FilePolarity,Positive*
%FSLAX46Y46*%
G04 Gerber Fmt 4.6, Leading zero omitted, Abs format (unit mm)*
G04 Created by KiCad (PCBNEW (5.1.4)-1) date 2020-07-29 22:37:46*
%MOMM*%
%LPD*%
G04 APERTURE LIST*
%ADD10C,0.010000*%
%ADD11C,0.100000*%
G04 APERTURE END LIST*
D10*
G36*
X100435511Y-81966232D02*
G01*
X100421904Y-81892284D01*
X100390016Y-81837667D01*
X100332314Y-81797093D01*
X100241263Y-81765276D01*
X100109329Y-81736930D01*
X99928977Y-81706767D01*
X99927865Y-81706591D01*
X99780136Y-81683409D01*
X99650314Y-81663477D01*
X99549564Y-81648476D01*
X99489055Y-81640087D01*
X99478817Y-81638974D01*
X99489037Y-81629318D01*
X99544793Y-81604705D01*
X99638161Y-81568280D01*
X99761214Y-81523189D01*
X99845706Y-81493384D01*
X99992122Y-81440631D01*
X100122524Y-81390314D01*
X100226112Y-81346852D01*
X100292086Y-81314665D01*
X100307163Y-81304571D01*
X100336704Y-81267131D01*
X100350129Y-81212392D01*
X100350529Y-81123843D01*
X100348346Y-81084657D01*
X100334350Y-80959653D01*
X100305859Y-80880905D01*
X100254198Y-80838527D01*
X100170690Y-80822629D01*
X100117417Y-80821496D01*
X100009399Y-80825019D01*
X99870342Y-80833708D01*
X99710030Y-80846508D01*
X99538247Y-80862365D01*
X99364777Y-80880225D01*
X99199404Y-80899031D01*
X99051911Y-80917730D01*
X98932084Y-80935266D01*
X98849705Y-80950585D01*
X98815336Y-80961868D01*
X98778453Y-81024772D01*
X98774017Y-81107889D01*
X98799921Y-81186803D01*
X98838372Y-81228791D01*
X98868900Y-81244725D01*
X98908417Y-81254268D01*
X98966431Y-81257439D01*
X99052455Y-81254257D01*
X99175999Y-81244742D01*
X99337323Y-81229801D01*
X99487084Y-81216015D01*
X99615630Y-81205307D01*
X99713137Y-81198407D01*
X99769779Y-81196042D01*
X99779977Y-81196960D01*
X99757600Y-81207628D01*
X99690092Y-81231264D01*
X99586469Y-81264904D01*
X99455749Y-81305584D01*
X99375652Y-81329860D01*
X99188269Y-81387816D01*
X99048770Y-81436167D01*
X98950309Y-81479115D01*
X98886039Y-81520861D01*
X98849116Y-81565606D01*
X98832691Y-81617551D01*
X98829706Y-81664883D01*
X98833514Y-81729224D01*
X98849561Y-81779274D01*
X98884789Y-81818142D01*
X98946134Y-81848941D01*
X99040535Y-81874780D01*
X99174933Y-81898771D01*
X99356265Y-81924025D01*
X99428292Y-81933256D01*
X99916262Y-81995056D01*
X99492928Y-82030918D01*
X99302392Y-82047814D01*
X99160134Y-82063025D01*
X99058110Y-82078578D01*
X98988276Y-82096498D01*
X98942589Y-82118812D01*
X98913004Y-82147544D01*
X98892766Y-82182054D01*
X98875580Y-82267515D01*
X98898650Y-82347535D01*
X98954597Y-82402210D01*
X98977634Y-82410946D01*
X99030475Y-82414567D01*
X99128091Y-82411915D01*
X99260487Y-82403995D01*
X99417668Y-82391814D01*
X99589641Y-82376377D01*
X99766410Y-82358689D01*
X99937981Y-82339757D01*
X100094359Y-82320587D01*
X100225551Y-82302183D01*
X100321561Y-82285553D01*
X100372394Y-82271700D01*
X100374873Y-82270343D01*
X100411628Y-82238686D01*
X100430879Y-82191954D01*
X100437850Y-82113238D01*
X100438373Y-82064796D01*
X100435511Y-81966232D01*
X100435511Y-81966232D01*
G37*
X100435511Y-81966232D02*
X100421904Y-81892284D01*
X100390016Y-81837667D01*
X100332314Y-81797093D01*
X100241263Y-81765276D01*
X100109329Y-81736930D01*
X99928977Y-81706767D01*
X99927865Y-81706591D01*
X99780136Y-81683409D01*
X99650314Y-81663477D01*
X99549564Y-81648476D01*
X99489055Y-81640087D01*
X99478817Y-81638974D01*
X99489037Y-81629318D01*
X99544793Y-81604705D01*
X99638161Y-81568280D01*
X99761214Y-81523189D01*
X99845706Y-81493384D01*
X99992122Y-81440631D01*
X100122524Y-81390314D01*
X100226112Y-81346852D01*
X100292086Y-81314665D01*
X100307163Y-81304571D01*
X100336704Y-81267131D01*
X100350129Y-81212392D01*
X100350529Y-81123843D01*
X100348346Y-81084657D01*
X100334350Y-80959653D01*
X100305859Y-80880905D01*
X100254198Y-80838527D01*
X100170690Y-80822629D01*
X100117417Y-80821496D01*
X100009399Y-80825019D01*
X99870342Y-80833708D01*
X99710030Y-80846508D01*
X99538247Y-80862365D01*
X99364777Y-80880225D01*
X99199404Y-80899031D01*
X99051911Y-80917730D01*
X98932084Y-80935266D01*
X98849705Y-80950585D01*
X98815336Y-80961868D01*
X98778453Y-81024772D01*
X98774017Y-81107889D01*
X98799921Y-81186803D01*
X98838372Y-81228791D01*
X98868900Y-81244725D01*
X98908417Y-81254268D01*
X98966431Y-81257439D01*
X99052455Y-81254257D01*
X99175999Y-81244742D01*
X99337323Y-81229801D01*
X99487084Y-81216015D01*
X99615630Y-81205307D01*
X99713137Y-81198407D01*
X99769779Y-81196042D01*
X99779977Y-81196960D01*
X99757600Y-81207628D01*
X99690092Y-81231264D01*
X99586469Y-81264904D01*
X99455749Y-81305584D01*
X99375652Y-81329860D01*
X99188269Y-81387816D01*
X99048770Y-81436167D01*
X98950309Y-81479115D01*
X98886039Y-81520861D01*
X98849116Y-81565606D01*
X98832691Y-81617551D01*
X98829706Y-81664883D01*
X98833514Y-81729224D01*
X98849561Y-81779274D01*
X98884789Y-81818142D01*
X98946134Y-81848941D01*
X99040535Y-81874780D01*
X99174933Y-81898771D01*
X99356265Y-81924025D01*
X99428292Y-81933256D01*
X99916262Y-81995056D01*
X99492928Y-82030918D01*
X99302392Y-82047814D01*
X99160134Y-82063025D01*
X99058110Y-82078578D01*
X98988276Y-82096498D01*
X98942589Y-82118812D01*
X98913004Y-82147544D01*
X98892766Y-82182054D01*
X98875580Y-82267515D01*
X98898650Y-82347535D01*
X98954597Y-82402210D01*
X98977634Y-82410946D01*
X99030475Y-82414567D01*
X99128091Y-82411915D01*
X99260487Y-82403995D01*
X99417668Y-82391814D01*
X99589641Y-82376377D01*
X99766410Y-82358689D01*
X99937981Y-82339757D01*
X100094359Y-82320587D01*
X100225551Y-82302183D01*
X100321561Y-82285553D01*
X100372394Y-82271700D01*
X100374873Y-82270343D01*
X100411628Y-82238686D01*
X100430879Y-82191954D01*
X100437850Y-82113238D01*
X100438373Y-82064796D01*
X100435511Y-81966232D01*
G36*
X100348240Y-79866910D02*
G01*
X100322768Y-79824267D01*
X100263678Y-79792876D01*
X100261984Y-79792178D01*
X100194589Y-79776109D01*
X100076218Y-79761199D01*
X99912337Y-79747958D01*
X99708412Y-79736896D01*
X99638161Y-79733998D01*
X99106059Y-79713524D01*
X99112852Y-79413311D01*
X99116134Y-79258019D01*
X99116691Y-79149261D01*
X99112928Y-79077138D01*
X99103251Y-79031749D01*
X99086066Y-79003195D01*
X99059779Y-78981578D01*
X99041373Y-78969391D01*
X98985927Y-78939567D01*
X98942305Y-78944545D01*
X98901581Y-78968527D01*
X98869280Y-78994076D01*
X98845014Y-79028046D01*
X98827186Y-79078861D01*
X98814197Y-79154941D01*
X98804450Y-79264710D01*
X98796348Y-79416590D01*
X98790795Y-79552611D01*
X98786678Y-79738687D01*
X98790783Y-79871708D01*
X98803241Y-79954480D01*
X98810507Y-79973977D01*
X98862123Y-80030878D01*
X98922631Y-80061511D01*
X98973589Y-80068636D01*
X99071435Y-80076654D01*
X99206629Y-80085001D01*
X99369635Y-80093110D01*
X99550912Y-80100415D01*
X99615732Y-80102639D01*
X99838619Y-80109401D01*
X100011464Y-80112399D01*
X100140615Y-80110263D01*
X100232423Y-80101620D01*
X100293238Y-80085098D01*
X100329411Y-80059325D01*
X100347291Y-80022930D01*
X100353230Y-79974541D01*
X100353706Y-79943220D01*
X100348240Y-79866910D01*
X100348240Y-79866910D01*
G37*
X100348240Y-79866910D02*
X100322768Y-79824267D01*
X100263678Y-79792876D01*
X100261984Y-79792178D01*
X100194589Y-79776109D01*
X100076218Y-79761199D01*
X99912337Y-79747958D01*
X99708412Y-79736896D01*
X99638161Y-79733998D01*
X99106059Y-79713524D01*
X99112852Y-79413311D01*
X99116134Y-79258019D01*
X99116691Y-79149261D01*
X99112928Y-79077138D01*
X99103251Y-79031749D01*
X99086066Y-79003195D01*
X99059779Y-78981578D01*
X99041373Y-78969391D01*
X98985927Y-78939567D01*
X98942305Y-78944545D01*
X98901581Y-78968527D01*
X98869280Y-78994076D01*
X98845014Y-79028046D01*
X98827186Y-79078861D01*
X98814197Y-79154941D01*
X98804450Y-79264710D01*
X98796348Y-79416590D01*
X98790795Y-79552611D01*
X98786678Y-79738687D01*
X98790783Y-79871708D01*
X98803241Y-79954480D01*
X98810507Y-79973977D01*
X98862123Y-80030878D01*
X98922631Y-80061511D01*
X98973589Y-80068636D01*
X99071435Y-80076654D01*
X99206629Y-80085001D01*
X99369635Y-80093110D01*
X99550912Y-80100415D01*
X99615732Y-80102639D01*
X99838619Y-80109401D01*
X100011464Y-80112399D01*
X100140615Y-80110263D01*
X100232423Y-80101620D01*
X100293238Y-80085098D01*
X100329411Y-80059325D01*
X100347291Y-80022930D01*
X100353230Y-79974541D01*
X100353706Y-79943220D01*
X100348240Y-79866910D01*
G36*
X100516551Y-77848724D02*
G01*
X100509064Y-77810395D01*
X100497472Y-77789851D01*
X100436854Y-77753703D01*
X100357597Y-77746764D01*
X100287705Y-77769601D01*
X100270201Y-77785254D01*
X100253449Y-77827956D01*
X100232711Y-77914311D01*
X100210583Y-78031914D01*
X100189660Y-78168360D01*
X100188983Y-78173310D01*
X100141738Y-78520431D01*
X100000778Y-78510500D01*
X99918564Y-78503519D01*
X99864043Y-78496640D01*
X99852223Y-78493498D01*
X99852830Y-78464473D01*
X99860310Y-78391257D01*
X99873350Y-78285504D01*
X99887501Y-78181017D01*
X99908278Y-78031928D01*
X99921355Y-77928620D01*
X99926694Y-77860952D01*
X99924262Y-77818781D01*
X99914021Y-77791969D01*
X99895938Y-77770372D01*
X99886024Y-77760447D01*
X99812846Y-77720636D01*
X99733474Y-77725700D01*
X99669529Y-77773760D01*
X99665606Y-77779598D01*
X99645740Y-77833346D01*
X99623867Y-77928424D01*
X99603042Y-78049947D01*
X99590321Y-78146254D01*
X99555327Y-78449410D01*
X99397128Y-78431928D01*
X99307167Y-78419433D01*
X99241613Y-78405603D01*
X99219927Y-78396883D01*
X99216193Y-78363811D01*
X99219552Y-78285941D01*
X99229208Y-78174365D01*
X99244363Y-78040173D01*
X99247145Y-78018124D01*
X99266841Y-77848577D01*
X99275889Y-77728040D01*
X99274541Y-77650140D01*
X99263300Y-77608901D01*
X99210425Y-77568395D01*
X99134479Y-77552423D01*
X99062002Y-77563584D01*
X99029806Y-77586033D01*
X99011312Y-77631625D01*
X98989366Y-77721519D01*
X98965784Y-77843815D01*
X98942378Y-77986618D01*
X98920963Y-78138030D01*
X98903351Y-78286152D01*
X98891358Y-78419089D01*
X98886799Y-78524063D01*
X98888307Y-78620441D01*
X98897690Y-78676102D01*
X98920872Y-78706736D01*
X98963762Y-78728034D01*
X99016451Y-78741552D01*
X99114332Y-78759953D01*
X99246514Y-78781725D01*
X99402109Y-78805352D01*
X99570227Y-78829323D01*
X99739978Y-78852124D01*
X99900474Y-78872241D01*
X100040823Y-78888161D01*
X100150138Y-78898371D01*
X100211483Y-78901431D01*
X100274736Y-78897609D01*
X100323829Y-78881469D01*
X100361902Y-78846000D01*
X100392094Y-78784189D01*
X100417547Y-78689025D01*
X100441400Y-78553497D01*
X100466793Y-78370592D01*
X100473899Y-78315477D01*
X100496183Y-78135454D01*
X100510476Y-78003093D01*
X100517143Y-77910237D01*
X100516551Y-77848724D01*
X100516551Y-77848724D01*
G37*
X100516551Y-77848724D02*
X100509064Y-77810395D01*
X100497472Y-77789851D01*
X100436854Y-77753703D01*
X100357597Y-77746764D01*
X100287705Y-77769601D01*
X100270201Y-77785254D01*
X100253449Y-77827956D01*
X100232711Y-77914311D01*
X100210583Y-78031914D01*
X100189660Y-78168360D01*
X100188983Y-78173310D01*
X100141738Y-78520431D01*
X100000778Y-78510500D01*
X99918564Y-78503519D01*
X99864043Y-78496640D01*
X99852223Y-78493498D01*
X99852830Y-78464473D01*
X99860310Y-78391257D01*
X99873350Y-78285504D01*
X99887501Y-78181017D01*
X99908278Y-78031928D01*
X99921355Y-77928620D01*
X99926694Y-77860952D01*
X99924262Y-77818781D01*
X99914021Y-77791969D01*
X99895938Y-77770372D01*
X99886024Y-77760447D01*
X99812846Y-77720636D01*
X99733474Y-77725700D01*
X99669529Y-77773760D01*
X99665606Y-77779598D01*
X99645740Y-77833346D01*
X99623867Y-77928424D01*
X99603042Y-78049947D01*
X99590321Y-78146254D01*
X99555327Y-78449410D01*
X99397128Y-78431928D01*
X99307167Y-78419433D01*
X99241613Y-78405603D01*
X99219927Y-78396883D01*
X99216193Y-78363811D01*
X99219552Y-78285941D01*
X99229208Y-78174365D01*
X99244363Y-78040173D01*
X99247145Y-78018124D01*
X99266841Y-77848577D01*
X99275889Y-77728040D01*
X99274541Y-77650140D01*
X99263300Y-77608901D01*
X99210425Y-77568395D01*
X99134479Y-77552423D01*
X99062002Y-77563584D01*
X99029806Y-77586033D01*
X99011312Y-77631625D01*
X98989366Y-77721519D01*
X98965784Y-77843815D01*
X98942378Y-77986618D01*
X98920963Y-78138030D01*
X98903351Y-78286152D01*
X98891358Y-78419089D01*
X98886799Y-78524063D01*
X98888307Y-78620441D01*
X98897690Y-78676102D01*
X98920872Y-78706736D01*
X98963762Y-78728034D01*
X99016451Y-78741552D01*
X99114332Y-78759953D01*
X99246514Y-78781725D01*
X99402109Y-78805352D01*
X99570227Y-78829323D01*
X99739978Y-78852124D01*
X99900474Y-78872241D01*
X100040823Y-78888161D01*
X100150138Y-78898371D01*
X100211483Y-78901431D01*
X100274736Y-78897609D01*
X100323829Y-78881469D01*
X100361902Y-78846000D01*
X100392094Y-78784189D01*
X100417547Y-78689025D01*
X100441400Y-78553497D01*
X100466793Y-78370592D01*
X100473899Y-78315477D01*
X100496183Y-78135454D01*
X100510476Y-78003093D01*
X100517143Y-77910237D01*
X100516551Y-77848724D01*
G36*
X100631094Y-83096215D02*
G01*
X100630169Y-83082078D01*
X100623061Y-83020237D01*
X100606702Y-82970133D01*
X100574789Y-82928911D01*
X100521015Y-82893721D01*
X100439078Y-82861710D01*
X100322673Y-82830024D01*
X100165494Y-82795812D01*
X99961238Y-82756221D01*
X99873928Y-82739909D01*
X99635815Y-82696441D01*
X99446674Y-82664186D01*
X99300231Y-82642789D01*
X99190212Y-82631893D01*
X99110343Y-82631141D01*
X99054350Y-82640177D01*
X99015959Y-82658645D01*
X98988897Y-82686187D01*
X98986529Y-82689488D01*
X98946431Y-82779435D01*
X98961184Y-82860198D01*
X98997919Y-82907866D01*
X99063241Y-82947245D01*
X99159478Y-82976200D01*
X99191861Y-82981578D01*
X99278118Y-82995750D01*
X99341296Y-83011071D01*
X99357928Y-83017976D01*
X99374796Y-83051924D01*
X99397604Y-83128364D01*
X99422718Y-83234161D01*
X99436673Y-83302572D01*
X99459994Y-83433587D01*
X99469882Y-83518181D01*
X99466839Y-83564630D01*
X99453591Y-83580618D01*
X99412664Y-83603367D01*
X99345739Y-83648960D01*
X99300848Y-83682121D01*
X99210364Y-83771783D01*
X99171706Y-83861255D01*
X99186231Y-83945876D01*
X99212965Y-83983927D01*
X99248919Y-84015880D01*
X99290234Y-84032224D01*
X99342864Y-84030566D01*
X99412766Y-84008514D01*
X99505895Y-83963677D01*
X99628207Y-83893661D01*
X99769868Y-83805864D01*
X99769868Y-83378769D01*
X99769719Y-83378629D01*
X99751573Y-83338799D01*
X99731671Y-83265274D01*
X99715196Y-83180373D01*
X99707484Y-83110578D01*
X99716832Y-83061490D01*
X99742010Y-83058416D01*
X99787974Y-83068639D01*
X99871526Y-83081319D01*
X99968181Y-83092988D01*
X100065515Y-83106228D01*
X100138278Y-83121399D01*
X100170418Y-83135018D01*
X100154502Y-83157754D01*
X100102138Y-83198307D01*
X100026935Y-83248403D01*
X99942500Y-83299769D01*
X99862439Y-83344134D01*
X99800360Y-83373225D01*
X99769868Y-83378769D01*
X99769868Y-83805864D01*
X99785658Y-83796077D01*
X99961308Y-83683362D01*
X100158234Y-83555668D01*
X100312805Y-83454132D01*
X100430048Y-83374234D01*
X100514989Y-83311456D01*
X100572655Y-83261280D01*
X100608072Y-83219186D01*
X100626266Y-83180656D01*
X100632265Y-83141172D01*
X100631094Y-83096215D01*
X100631094Y-83096215D01*
G37*
X100631094Y-83096215D02*
X100630169Y-83082078D01*
X100623061Y-83020237D01*
X100606702Y-82970133D01*
X100574789Y-82928911D01*
X100521015Y-82893721D01*
X100439078Y-82861710D01*
X100322673Y-82830024D01*
X100165494Y-82795812D01*
X99961238Y-82756221D01*
X99873928Y-82739909D01*
X99635815Y-82696441D01*
X99446674Y-82664186D01*
X99300231Y-82642789D01*
X99190212Y-82631893D01*
X99110343Y-82631141D01*
X99054350Y-82640177D01*
X99015959Y-82658645D01*
X98988897Y-82686187D01*
X98986529Y-82689488D01*
X98946431Y-82779435D01*
X98961184Y-82860198D01*
X98997919Y-82907866D01*
X99063241Y-82947245D01*
X99159478Y-82976200D01*
X99191861Y-82981578D01*
X99278118Y-82995750D01*
X99341296Y-83011071D01*
X99357928Y-83017976D01*
X99374796Y-83051924D01*
X99397604Y-83128364D01*
X99422718Y-83234161D01*
X99436673Y-83302572D01*
X99459994Y-83433587D01*
X99469882Y-83518181D01*
X99466839Y-83564630D01*
X99453591Y-83580618D01*
X99412664Y-83603367D01*
X99345739Y-83648960D01*
X99300848Y-83682121D01*
X99210364Y-83771783D01*
X99171706Y-83861255D01*
X99186231Y-83945876D01*
X99212965Y-83983927D01*
X99248919Y-84015880D01*
X99290234Y-84032224D01*
X99342864Y-84030566D01*
X99412766Y-84008514D01*
X99505895Y-83963677D01*
X99628207Y-83893661D01*
X99769868Y-83805864D01*
X99769868Y-83378769D01*
X99769719Y-83378629D01*
X99751573Y-83338799D01*
X99731671Y-83265274D01*
X99715196Y-83180373D01*
X99707484Y-83110578D01*
X99716832Y-83061490D01*
X99742010Y-83058416D01*
X99787974Y-83068639D01*
X99871526Y-83081319D01*
X99968181Y-83092988D01*
X100065515Y-83106228D01*
X100138278Y-83121399D01*
X100170418Y-83135018D01*
X100154502Y-83157754D01*
X100102138Y-83198307D01*
X100026935Y-83248403D01*
X99942500Y-83299769D01*
X99862439Y-83344134D01*
X99800360Y-83373225D01*
X99769868Y-83378769D01*
X99769868Y-83805864D01*
X99785658Y-83796077D01*
X99961308Y-83683362D01*
X100158234Y-83555668D01*
X100312805Y-83454132D01*
X100430048Y-83374234D01*
X100514989Y-83311456D01*
X100572655Y-83261280D01*
X100608072Y-83219186D01*
X100626266Y-83180656D01*
X100632265Y-83141172D01*
X100631094Y-83096215D01*
G36*
X100707962Y-76603126D02*
G01*
X100644467Y-76469713D01*
X100542136Y-76357671D01*
X100468307Y-76302638D01*
X100306551Y-76218327D01*
X100123826Y-76160463D01*
X99935024Y-76130920D01*
X99755039Y-76131571D01*
X99598767Y-76164293D01*
X99546531Y-76186628D01*
X99444198Y-76248785D01*
X99362550Y-76324070D01*
X99296012Y-76421868D01*
X99239009Y-76551562D01*
X99185966Y-76722539D01*
X99154118Y-76847212D01*
X99119732Y-76990551D01*
X99098161Y-77089627D01*
X99088947Y-77155038D01*
X99091633Y-77197381D01*
X99105761Y-77227256D01*
X99130876Y-77255260D01*
X99136288Y-77260680D01*
X99187748Y-77288992D01*
X99294863Y-77326665D01*
X99457625Y-77373699D01*
X99676025Y-77430090D01*
X99792455Y-77458517D01*
X99972156Y-77501122D01*
X100136024Y-77538764D01*
X100275186Y-77569502D01*
X100302615Y-77575189D01*
X100302615Y-77197149D01*
X100258630Y-77185875D01*
X100171290Y-77164497D01*
X100052190Y-77135821D01*
X99912924Y-77102652D01*
X99873928Y-77093423D01*
X99734001Y-77059832D01*
X99613894Y-77030027D01*
X99524272Y-77006726D01*
X99475798Y-76992649D01*
X99470896Y-76990643D01*
X99460686Y-76955741D01*
X99466584Y-76884302D01*
X99485814Y-76792983D01*
X99515604Y-76698438D01*
X99522504Y-76680805D01*
X99576600Y-76601392D01*
X99651182Y-76543308D01*
X99765755Y-76510204D01*
X99905688Y-76507851D01*
X100054011Y-76532385D01*
X100193755Y-76579944D01*
X100307949Y-76646665D01*
X100365952Y-76705999D01*
X100394723Y-76775449D01*
X100407412Y-76867827D01*
X100405792Y-76969379D01*
X100391637Y-77066353D01*
X100366720Y-77144993D01*
X100332816Y-77191547D01*
X100302615Y-77197149D01*
X100302615Y-77575189D01*
X100380770Y-77591395D01*
X100443906Y-77602502D01*
X100455166Y-77603491D01*
X100509410Y-77591472D01*
X100555197Y-77551331D01*
X100596343Y-77476089D01*
X100636667Y-77358767D01*
X100679939Y-77192588D01*
X100724248Y-76958465D01*
X100734072Y-76764010D01*
X100707962Y-76603126D01*
X100707962Y-76603126D01*
G37*
X100707962Y-76603126D02*
X100644467Y-76469713D01*
X100542136Y-76357671D01*
X100468307Y-76302638D01*
X100306551Y-76218327D01*
X100123826Y-76160463D01*
X99935024Y-76130920D01*
X99755039Y-76131571D01*
X99598767Y-76164293D01*
X99546531Y-76186628D01*
X99444198Y-76248785D01*
X99362550Y-76324070D01*
X99296012Y-76421868D01*
X99239009Y-76551562D01*
X99185966Y-76722539D01*
X99154118Y-76847212D01*
X99119732Y-76990551D01*
X99098161Y-77089627D01*
X99088947Y-77155038D01*
X99091633Y-77197381D01*
X99105761Y-77227256D01*
X99130876Y-77255260D01*
X99136288Y-77260680D01*
X99187748Y-77288992D01*
X99294863Y-77326665D01*
X99457625Y-77373699D01*
X99676025Y-77430090D01*
X99792455Y-77458517D01*
X99972156Y-77501122D01*
X100136024Y-77538764D01*
X100275186Y-77569502D01*
X100302615Y-77575189D01*
X100302615Y-77197149D01*
X100258630Y-77185875D01*
X100171290Y-77164497D01*
X100052190Y-77135821D01*
X99912924Y-77102652D01*
X99873928Y-77093423D01*
X99734001Y-77059832D01*
X99613894Y-77030027D01*
X99524272Y-77006726D01*
X99475798Y-76992649D01*
X99470896Y-76990643D01*
X99460686Y-76955741D01*
X99466584Y-76884302D01*
X99485814Y-76792983D01*
X99515604Y-76698438D01*
X99522504Y-76680805D01*
X99576600Y-76601392D01*
X99651182Y-76543308D01*
X99765755Y-76510204D01*
X99905688Y-76507851D01*
X100054011Y-76532385D01*
X100193755Y-76579944D01*
X100307949Y-76646665D01*
X100365952Y-76705999D01*
X100394723Y-76775449D01*
X100407412Y-76867827D01*
X100405792Y-76969379D01*
X100391637Y-77066353D01*
X100366720Y-77144993D01*
X100332816Y-77191547D01*
X100302615Y-77197149D01*
X100302615Y-77575189D01*
X100380770Y-77591395D01*
X100443906Y-77602502D01*
X100455166Y-77603491D01*
X100509410Y-77591472D01*
X100555197Y-77551331D01*
X100596343Y-77476089D01*
X100636667Y-77358767D01*
X100679939Y-77192588D01*
X100724248Y-76958465D01*
X100734072Y-76764010D01*
X100707962Y-76603126D01*
G36*
X100988639Y-84408311D02*
G01*
X100924259Y-84235379D01*
X100825535Y-84090811D01*
X100698445Y-83981640D01*
X100548963Y-83914899D01*
X100413073Y-83896764D01*
X100303438Y-83915242D01*
X100236304Y-83970141D01*
X100212625Y-84060663D01*
X100212595Y-84064658D01*
X100222384Y-84129782D01*
X100258647Y-84177530D01*
X100331726Y-84216701D01*
X100430115Y-84249704D01*
X100556018Y-84300869D01*
X100637731Y-84371054D01*
X100686834Y-84470581D01*
X100690091Y-84481476D01*
X100702008Y-84613240D01*
X100660494Y-84732427D01*
X100567682Y-84836409D01*
X100425701Y-84922557D01*
X100291776Y-84972811D01*
X100183203Y-85003910D01*
X100109105Y-85017831D01*
X100050624Y-85015881D01*
X99988903Y-84999366D01*
X99975381Y-84994734D01*
X99868559Y-84933324D01*
X99785227Y-84839964D01*
X99738455Y-84731538D01*
X99732817Y-84681411D01*
X99759488Y-84555315D01*
X99835190Y-84431751D01*
X99885358Y-84378678D01*
X99941608Y-84298031D01*
X99953884Y-84214532D01*
X99928057Y-84141087D01*
X99869994Y-84090604D01*
X99785567Y-84075992D01*
X99750391Y-84081862D01*
X99668316Y-84123324D01*
X99580171Y-84199741D01*
X99502746Y-84294460D01*
X99461342Y-84368580D01*
X99435833Y-84469683D01*
X99425880Y-84602557D01*
X99431262Y-84744776D01*
X99451761Y-84873916D01*
X99466774Y-84924315D01*
X99557487Y-85096600D01*
X99686834Y-85229302D01*
X99850802Y-85319808D01*
X100045374Y-85365508D01*
X100153113Y-85370737D01*
X100377238Y-85346265D01*
X100575761Y-85279493D01*
X100743456Y-85175089D01*
X100875101Y-85037723D01*
X100965469Y-84872063D01*
X101009336Y-84682778D01*
X101012703Y-84602573D01*
X100988639Y-84408311D01*
X100988639Y-84408311D01*
G37*
X100988639Y-84408311D02*
X100924259Y-84235379D01*
X100825535Y-84090811D01*
X100698445Y-83981640D01*
X100548963Y-83914899D01*
X100413073Y-83896764D01*
X100303438Y-83915242D01*
X100236304Y-83970141D01*
X100212625Y-84060663D01*
X100212595Y-84064658D01*
X100222384Y-84129782D01*
X100258647Y-84177530D01*
X100331726Y-84216701D01*
X100430115Y-84249704D01*
X100556018Y-84300869D01*
X100637731Y-84371054D01*
X100686834Y-84470581D01*
X100690091Y-84481476D01*
X100702008Y-84613240D01*
X100660494Y-84732427D01*
X100567682Y-84836409D01*
X100425701Y-84922557D01*
X100291776Y-84972811D01*
X100183203Y-85003910D01*
X100109105Y-85017831D01*
X100050624Y-85015881D01*
X99988903Y-84999366D01*
X99975381Y-84994734D01*
X99868559Y-84933324D01*
X99785227Y-84839964D01*
X99738455Y-84731538D01*
X99732817Y-84681411D01*
X99759488Y-84555315D01*
X99835190Y-84431751D01*
X99885358Y-84378678D01*
X99941608Y-84298031D01*
X99953884Y-84214532D01*
X99928057Y-84141087D01*
X99869994Y-84090604D01*
X99785567Y-84075992D01*
X99750391Y-84081862D01*
X99668316Y-84123324D01*
X99580171Y-84199741D01*
X99502746Y-84294460D01*
X99461342Y-84368580D01*
X99435833Y-84469683D01*
X99425880Y-84602557D01*
X99431262Y-84744776D01*
X99451761Y-84873916D01*
X99466774Y-84924315D01*
X99557487Y-85096600D01*
X99686834Y-85229302D01*
X99850802Y-85319808D01*
X100045374Y-85365508D01*
X100153113Y-85370737D01*
X100377238Y-85346265D01*
X100575761Y-85279493D01*
X100743456Y-85175089D01*
X100875101Y-85037723D01*
X100965469Y-84872063D01*
X101009336Y-84682778D01*
X101012703Y-84602573D01*
X100988639Y-84408311D01*
G36*
X101400719Y-74692764D02*
G01*
X101334422Y-74570384D01*
X101230439Y-74478348D01*
X101094371Y-74424692D01*
X100992037Y-74414203D01*
X100892205Y-74425861D01*
X100794741Y-74456214D01*
X100715250Y-74498115D01*
X100669339Y-74544415D01*
X100663793Y-74564566D01*
X100652365Y-74559088D01*
X100622778Y-74512870D01*
X100582273Y-74437524D01*
X100501863Y-74295969D01*
X100416709Y-74175057D01*
X100334778Y-74084560D01*
X100264037Y-74034250D01*
X100249347Y-74029175D01*
X100171371Y-74033042D01*
X100113612Y-74058859D01*
X100054236Y-74127200D01*
X100043734Y-74220151D01*
X100081860Y-74334508D01*
X100142065Y-74432183D01*
X100257045Y-74596798D01*
X100337899Y-74726216D01*
X100387613Y-74827768D01*
X100409175Y-74908785D01*
X100405572Y-74976597D01*
X100385210Y-75028854D01*
X100368485Y-75055613D01*
X100346710Y-75067486D01*
X100308455Y-75062832D01*
X100242292Y-75040009D01*
X100136790Y-74997374D01*
X100121090Y-74990908D01*
X100009346Y-74947467D01*
X99911658Y-74914138D01*
X99843809Y-74896133D01*
X99828914Y-74894392D01*
X99754248Y-74918714D01*
X99697074Y-74980876D01*
X99668961Y-75062583D01*
X99676924Y-75134744D01*
X99690293Y-75165365D01*
X99709888Y-75192687D01*
X99742276Y-75220277D01*
X99794022Y-75251701D01*
X99871692Y-75290528D01*
X99981852Y-75340323D01*
X100131069Y-75404655D01*
X100324020Y-75486294D01*
X100533990Y-75574254D01*
X100698627Y-75641167D01*
X100824355Y-75688506D01*
X100917599Y-75717747D01*
X100919043Y-75718018D01*
X100919043Y-75325569D01*
X100894601Y-75319994D01*
X100838357Y-75293151D01*
X100759177Y-75258462D01*
X100741762Y-75251161D01*
X100675618Y-75221028D01*
X100638705Y-75199050D01*
X100635928Y-75195161D01*
X100646535Y-75164989D01*
X100674022Y-75099132D01*
X100703734Y-75031443D01*
X100752720Y-74935948D01*
X100808144Y-74848759D01*
X100860298Y-74783397D01*
X100899476Y-74753383D01*
X100903811Y-74752764D01*
X100935208Y-74763197D01*
X100988055Y-74785825D01*
X101049777Y-74830774D01*
X101076265Y-74898084D01*
X101068133Y-74995170D01*
X101025994Y-75129450D01*
X101018151Y-75149768D01*
X100976325Y-75250337D01*
X100945422Y-75305999D01*
X100919043Y-75325569D01*
X100919043Y-75718018D01*
X100984781Y-75730363D01*
X101032325Y-75727829D01*
X101066654Y-75711620D01*
X101094194Y-75683211D01*
X101106689Y-75665962D01*
X101144670Y-75599359D01*
X101195586Y-75494655D01*
X101252955Y-75366750D01*
X101310299Y-75230545D01*
X101361138Y-75100940D01*
X101397853Y-74996418D01*
X101423729Y-74837454D01*
X101400719Y-74692764D01*
X101400719Y-74692764D01*
G37*
X101400719Y-74692764D02*
X101334422Y-74570384D01*
X101230439Y-74478348D01*
X101094371Y-74424692D01*
X100992037Y-74414203D01*
X100892205Y-74425861D01*
X100794741Y-74456214D01*
X100715250Y-74498115D01*
X100669339Y-74544415D01*
X100663793Y-74564566D01*
X100652365Y-74559088D01*
X100622778Y-74512870D01*
X100582273Y-74437524D01*
X100501863Y-74295969D01*
X100416709Y-74175057D01*
X100334778Y-74084560D01*
X100264037Y-74034250D01*
X100249347Y-74029175D01*
X100171371Y-74033042D01*
X100113612Y-74058859D01*
X100054236Y-74127200D01*
X100043734Y-74220151D01*
X100081860Y-74334508D01*
X100142065Y-74432183D01*
X100257045Y-74596798D01*
X100337899Y-74726216D01*
X100387613Y-74827768D01*
X100409175Y-74908785D01*
X100405572Y-74976597D01*
X100385210Y-75028854D01*
X100368485Y-75055613D01*
X100346710Y-75067486D01*
X100308455Y-75062832D01*
X100242292Y-75040009D01*
X100136790Y-74997374D01*
X100121090Y-74990908D01*
X100009346Y-74947467D01*
X99911658Y-74914138D01*
X99843809Y-74896133D01*
X99828914Y-74894392D01*
X99754248Y-74918714D01*
X99697074Y-74980876D01*
X99668961Y-75062583D01*
X99676924Y-75134744D01*
X99690293Y-75165365D01*
X99709888Y-75192687D01*
X99742276Y-75220277D01*
X99794022Y-75251701D01*
X99871692Y-75290528D01*
X99981852Y-75340323D01*
X100131069Y-75404655D01*
X100324020Y-75486294D01*
X100533990Y-75574254D01*
X100698627Y-75641167D01*
X100824355Y-75688506D01*
X100917599Y-75717747D01*
X100919043Y-75718018D01*
X100919043Y-75325569D01*
X100894601Y-75319994D01*
X100838357Y-75293151D01*
X100759177Y-75258462D01*
X100741762Y-75251161D01*
X100675618Y-75221028D01*
X100638705Y-75199050D01*
X100635928Y-75195161D01*
X100646535Y-75164989D01*
X100674022Y-75099132D01*
X100703734Y-75031443D01*
X100752720Y-74935948D01*
X100808144Y-74848759D01*
X100860298Y-74783397D01*
X100899476Y-74753383D01*
X100903811Y-74752764D01*
X100935208Y-74763197D01*
X100988055Y-74785825D01*
X101049777Y-74830774D01*
X101076265Y-74898084D01*
X101068133Y-74995170D01*
X101025994Y-75129450D01*
X101018151Y-75149768D01*
X100976325Y-75250337D01*
X100945422Y-75305999D01*
X100919043Y-75325569D01*
X100919043Y-75718018D01*
X100984781Y-75730363D01*
X101032325Y-75727829D01*
X101066654Y-75711620D01*
X101094194Y-75683211D01*
X101106689Y-75665962D01*
X101144670Y-75599359D01*
X101195586Y-75494655D01*
X101252955Y-75366750D01*
X101310299Y-75230545D01*
X101361138Y-75100940D01*
X101397853Y-74996418D01*
X101423729Y-74837454D01*
X101400719Y-74692764D01*
G36*
X100963266Y-85512001D02*
G01*
X100930662Y-85455266D01*
X100861019Y-85402061D01*
X100801965Y-85392542D01*
X100749338Y-85403397D01*
X100657043Y-85432835D01*
X100536837Y-85476168D01*
X100400473Y-85528706D01*
X100259709Y-85585761D01*
X100126300Y-85642644D01*
X100012001Y-85694665D01*
X99928569Y-85737135D01*
X99909206Y-85748639D01*
X99863087Y-85806883D01*
X99844348Y-85889487D01*
X99855983Y-85970277D01*
X99879573Y-86007786D01*
X99928181Y-86034417D01*
X100002206Y-86037960D01*
X100107277Y-86017217D01*
X100249022Y-85970991D01*
X100433070Y-85898086D01*
X100471544Y-85881859D01*
X100660461Y-85799022D01*
X100800535Y-85730291D01*
X100896310Y-85671445D01*
X100952328Y-85618262D01*
X100973132Y-85566521D01*
X100963266Y-85512001D01*
X100963266Y-85512001D01*
G37*
X100963266Y-85512001D02*
X100930662Y-85455266D01*
X100861019Y-85402061D01*
X100801965Y-85392542D01*
X100749338Y-85403397D01*
X100657043Y-85432835D01*
X100536837Y-85476168D01*
X100400473Y-85528706D01*
X100259709Y-85585761D01*
X100126300Y-85642644D01*
X100012001Y-85694665D01*
X99928569Y-85737135D01*
X99909206Y-85748639D01*
X99863087Y-85806883D01*
X99844348Y-85889487D01*
X99855983Y-85970277D01*
X99879573Y-86007786D01*
X99928181Y-86034417D01*
X100002206Y-86037960D01*
X100107277Y-86017217D01*
X100249022Y-85970991D01*
X100433070Y-85898086D01*
X100471544Y-85881859D01*
X100660461Y-85799022D01*
X100800535Y-85730291D01*
X100896310Y-85671445D01*
X100952328Y-85618262D01*
X100973132Y-85566521D01*
X100963266Y-85512001D01*
G36*
X101518695Y-86625616D02*
G01*
X101500059Y-86593143D01*
X101433550Y-86533200D01*
X101380107Y-86521431D01*
X101328493Y-86514286D01*
X101318659Y-86481188D01*
X101325117Y-86449818D01*
X101328126Y-86344531D01*
X101296755Y-86223393D01*
X101238079Y-86108864D01*
X101203728Y-86064430D01*
X101145529Y-86009945D01*
X101080819Y-85980154D01*
X100986408Y-85965112D01*
X100968388Y-85963525D01*
X100899100Y-85959666D01*
X100839832Y-85963880D01*
X100777781Y-85980303D01*
X100700147Y-86013074D01*
X100594131Y-86066331D01*
X100505036Y-86113310D01*
X100381848Y-86180005D01*
X100273594Y-86240975D01*
X100192031Y-86289441D01*
X100149095Y-86318472D01*
X100112939Y-86379546D01*
X100100614Y-86462827D01*
X100113810Y-86540690D01*
X100133573Y-86572231D01*
X100199320Y-86602779D01*
X100298596Y-86594677D01*
X100433601Y-86547448D01*
X100579484Y-86475428D01*
X100726572Y-86397794D01*
X100834076Y-86346968D01*
X100910739Y-86320599D01*
X100965306Y-86316337D01*
X101006523Y-86331831D01*
X101032571Y-86353629D01*
X101080302Y-86437240D01*
X101078443Y-86531605D01*
X101048526Y-86592143D01*
X101008878Y-86627179D01*
X100931418Y-86681128D01*
X100828015Y-86746116D01*
X100731026Y-86802778D01*
X100610274Y-86871899D01*
X100530236Y-86921838D01*
X100482141Y-86960561D01*
X100457216Y-86996036D01*
X100446690Y-87036231D01*
X100443826Y-87063638D01*
X100445826Y-87141382D01*
X100475575Y-87190565D01*
X100505944Y-87213515D01*
X100540699Y-87233622D01*
X100575836Y-87243512D01*
X100619036Y-87240515D01*
X100677977Y-87221959D01*
X100760340Y-87185175D01*
X100873805Y-87127491D01*
X101026052Y-87046236D01*
X101096662Y-87008088D01*
X101266563Y-86913860D01*
X101390163Y-86838486D01*
X101472320Y-86776970D01*
X101517889Y-86724318D01*
X101531728Y-86675532D01*
X101518695Y-86625616D01*
X101518695Y-86625616D01*
G37*
X101518695Y-86625616D02*
X101500059Y-86593143D01*
X101433550Y-86533200D01*
X101380107Y-86521431D01*
X101328493Y-86514286D01*
X101318659Y-86481188D01*
X101325117Y-86449818D01*
X101328126Y-86344531D01*
X101296755Y-86223393D01*
X101238079Y-86108864D01*
X101203728Y-86064430D01*
X101145529Y-86009945D01*
X101080819Y-85980154D01*
X100986408Y-85965112D01*
X100968388Y-85963525D01*
X100899100Y-85959666D01*
X100839832Y-85963880D01*
X100777781Y-85980303D01*
X100700147Y-86013074D01*
X100594131Y-86066331D01*
X100505036Y-86113310D01*
X100381848Y-86180005D01*
X100273594Y-86240975D01*
X100192031Y-86289441D01*
X100149095Y-86318472D01*
X100112939Y-86379546D01*
X100100614Y-86462827D01*
X100113810Y-86540690D01*
X100133573Y-86572231D01*
X100199320Y-86602779D01*
X100298596Y-86594677D01*
X100433601Y-86547448D01*
X100579484Y-86475428D01*
X100726572Y-86397794D01*
X100834076Y-86346968D01*
X100910739Y-86320599D01*
X100965306Y-86316337D01*
X101006523Y-86331831D01*
X101032571Y-86353629D01*
X101080302Y-86437240D01*
X101078443Y-86531605D01*
X101048526Y-86592143D01*
X101008878Y-86627179D01*
X100931418Y-86681128D01*
X100828015Y-86746116D01*
X100731026Y-86802778D01*
X100610274Y-86871899D01*
X100530236Y-86921838D01*
X100482141Y-86960561D01*
X100457216Y-86996036D01*
X100446690Y-87036231D01*
X100443826Y-87063638D01*
X100445826Y-87141382D01*
X100475575Y-87190565D01*
X100505944Y-87213515D01*
X100540699Y-87233622D01*
X100575836Y-87243512D01*
X100619036Y-87240515D01*
X100677977Y-87221959D01*
X100760340Y-87185175D01*
X100873805Y-87127491D01*
X101026052Y-87046236D01*
X101096662Y-87008088D01*
X101266563Y-86913860D01*
X101390163Y-86838486D01*
X101472320Y-86776970D01*
X101517889Y-86724318D01*
X101531728Y-86675532D01*
X101518695Y-86625616D01*
G36*
X101384239Y-74032790D02*
G01*
X101348540Y-73984393D01*
X101306866Y-73955871D01*
X101225670Y-73906752D01*
X101115218Y-73843028D01*
X100985779Y-73770689D01*
X100929968Y-73740130D01*
X100754085Y-73647572D01*
X100618487Y-73584656D01*
X100516435Y-73549800D01*
X100441192Y-73541422D01*
X100386018Y-73557941D01*
X100344176Y-73597775D01*
X100341195Y-73601933D01*
X100303376Y-73671110D01*
X100307049Y-73728889D01*
X100339405Y-73784372D01*
X100381000Y-73821317D01*
X100462249Y-73876358D01*
X100572332Y-73943595D01*
X100700428Y-74017131D01*
X100835718Y-74091067D01*
X100967382Y-74159504D01*
X101084601Y-74216543D01*
X101176555Y-74256286D01*
X101232423Y-74272834D01*
X101235654Y-74272986D01*
X101315326Y-74249380D01*
X101371129Y-74190021D01*
X101396341Y-74112095D01*
X101384239Y-74032790D01*
X101384239Y-74032790D01*
G37*
X101384239Y-74032790D02*
X101348540Y-73984393D01*
X101306866Y-73955871D01*
X101225670Y-73906752D01*
X101115218Y-73843028D01*
X100985779Y-73770689D01*
X100929968Y-73740130D01*
X100754085Y-73647572D01*
X100618487Y-73584656D01*
X100516435Y-73549800D01*
X100441192Y-73541422D01*
X100386018Y-73557941D01*
X100344176Y-73597775D01*
X100341195Y-73601933D01*
X100303376Y-73671110D01*
X100307049Y-73728889D01*
X100339405Y-73784372D01*
X100381000Y-73821317D01*
X100462249Y-73876358D01*
X100572332Y-73943595D01*
X100700428Y-74017131D01*
X100835718Y-74091067D01*
X100967382Y-74159504D01*
X101084601Y-74216543D01*
X101176555Y-74256286D01*
X101232423Y-74272834D01*
X101235654Y-74272986D01*
X101315326Y-74249380D01*
X101371129Y-74190021D01*
X101396341Y-74112095D01*
X101384239Y-74032790D01*
G36*
X101937924Y-72968386D02*
G01*
X101916985Y-72920748D01*
X101874196Y-72872094D01*
X101796161Y-72804138D01*
X101693699Y-72724395D01*
X101577631Y-72640383D01*
X101458775Y-72559616D01*
X101347950Y-72489610D01*
X101255977Y-72437882D01*
X101193673Y-72411948D01*
X101182209Y-72410320D01*
X101112739Y-72430623D01*
X101047433Y-72479645D01*
X101007205Y-72539559D01*
X101002817Y-72563234D01*
X101009534Y-72613146D01*
X101034562Y-72661285D01*
X101085223Y-72715367D01*
X101168837Y-72783108D01*
X101292724Y-72872223D01*
X101302304Y-72878911D01*
X101412325Y-72958080D01*
X101507526Y-73031128D01*
X101576626Y-73089120D01*
X101606230Y-73119635D01*
X101633503Y-73198046D01*
X101608267Y-73270030D01*
X101534329Y-73325421D01*
X101528082Y-73328141D01*
X101467337Y-73345712D01*
X101404089Y-73343266D01*
X101328792Y-73317122D01*
X101231901Y-73263598D01*
X101103871Y-73179012D01*
X101057314Y-73146573D01*
X100921177Y-73059690D01*
X100815637Y-73013808D01*
X100734144Y-73007432D01*
X100670148Y-73039067D01*
X100654414Y-73054598D01*
X100612099Y-73136863D01*
X100624452Y-73225430D01*
X100671206Y-73294419D01*
X100717206Y-73334788D01*
X100799937Y-73398417D01*
X100908942Y-73477592D01*
X101033768Y-73564596D01*
X101077759Y-73594458D01*
X101236978Y-73698597D01*
X101358879Y-73769274D01*
X101450294Y-73808189D01*
X101518060Y-73817044D01*
X101569011Y-73797538D01*
X101609982Y-73751372D01*
X101622767Y-73730057D01*
X101649722Y-73664651D01*
X101640530Y-73613516D01*
X101631734Y-73598020D01*
X101614159Y-73557692D01*
X101636670Y-73536514D01*
X101677206Y-73525744D01*
X101762473Y-73484925D01*
X101849988Y-73407700D01*
X101921876Y-73310399D01*
X101930702Y-73294120D01*
X101957101Y-73197916D01*
X101959159Y-73079828D01*
X101937924Y-72968386D01*
X101937924Y-72968386D01*
G37*
X101937924Y-72968386D02*
X101916985Y-72920748D01*
X101874196Y-72872094D01*
X101796161Y-72804138D01*
X101693699Y-72724395D01*
X101577631Y-72640383D01*
X101458775Y-72559616D01*
X101347950Y-72489610D01*
X101255977Y-72437882D01*
X101193673Y-72411948D01*
X101182209Y-72410320D01*
X101112739Y-72430623D01*
X101047433Y-72479645D01*
X101007205Y-72539559D01*
X101002817Y-72563234D01*
X101009534Y-72613146D01*
X101034562Y-72661285D01*
X101085223Y-72715367D01*
X101168837Y-72783108D01*
X101292724Y-72872223D01*
X101302304Y-72878911D01*
X101412325Y-72958080D01*
X101507526Y-73031128D01*
X101576626Y-73089120D01*
X101606230Y-73119635D01*
X101633503Y-73198046D01*
X101608267Y-73270030D01*
X101534329Y-73325421D01*
X101528082Y-73328141D01*
X101467337Y-73345712D01*
X101404089Y-73343266D01*
X101328792Y-73317122D01*
X101231901Y-73263598D01*
X101103871Y-73179012D01*
X101057314Y-73146573D01*
X100921177Y-73059690D01*
X100815637Y-73013808D01*
X100734144Y-73007432D01*
X100670148Y-73039067D01*
X100654414Y-73054598D01*
X100612099Y-73136863D01*
X100624452Y-73225430D01*
X100671206Y-73294419D01*
X100717206Y-73334788D01*
X100799937Y-73398417D01*
X100908942Y-73477592D01*
X101033768Y-73564596D01*
X101077759Y-73594458D01*
X101236978Y-73698597D01*
X101358879Y-73769274D01*
X101450294Y-73808189D01*
X101518060Y-73817044D01*
X101569011Y-73797538D01*
X101609982Y-73751372D01*
X101622767Y-73730057D01*
X101649722Y-73664651D01*
X101640530Y-73613516D01*
X101631734Y-73598020D01*
X101614159Y-73557692D01*
X101636670Y-73536514D01*
X101677206Y-73525744D01*
X101762473Y-73484925D01*
X101849988Y-73407700D01*
X101921876Y-73310399D01*
X101930702Y-73294120D01*
X101957101Y-73197916D01*
X101959159Y-73079828D01*
X101937924Y-72968386D01*
G36*
X101779630Y-87009318D02*
G01*
X101759173Y-86978631D01*
X101712868Y-86947958D01*
X101653927Y-86941640D01*
X101576129Y-86962048D01*
X101473251Y-87011554D01*
X101339073Y-87092529D01*
X101177767Y-87200197D01*
X101009284Y-87318524D01*
X100885568Y-87413113D01*
X100802865Y-87489068D01*
X100757421Y-87551491D01*
X100745485Y-87605487D01*
X100763302Y-87656160D01*
X100805262Y-87706764D01*
X100865742Y-87748977D01*
X100915764Y-87763209D01*
X100955862Y-87748204D01*
X101032306Y-87707444D01*
X101135037Y-87647306D01*
X101253995Y-87574169D01*
X101379123Y-87494411D01*
X101500362Y-87414412D01*
X101607654Y-87340551D01*
X101690939Y-87279205D01*
X101729540Y-87247152D01*
X101775670Y-87176339D01*
X101793249Y-87089062D01*
X101779630Y-87009318D01*
X101779630Y-87009318D01*
G37*
X101779630Y-87009318D02*
X101759173Y-86978631D01*
X101712868Y-86947958D01*
X101653927Y-86941640D01*
X101576129Y-86962048D01*
X101473251Y-87011554D01*
X101339073Y-87092529D01*
X101177767Y-87200197D01*
X101009284Y-87318524D01*
X100885568Y-87413113D01*
X100802865Y-87489068D01*
X100757421Y-87551491D01*
X100745485Y-87605487D01*
X100763302Y-87656160D01*
X100805262Y-87706764D01*
X100865742Y-87748977D01*
X100915764Y-87763209D01*
X100955862Y-87748204D01*
X101032306Y-87707444D01*
X101135037Y-87647306D01*
X101253995Y-87574169D01*
X101379123Y-87494411D01*
X101500362Y-87414412D01*
X101607654Y-87340551D01*
X101690939Y-87279205D01*
X101729540Y-87247152D01*
X101775670Y-87176339D01*
X101793249Y-87089062D01*
X101779630Y-87009318D01*
G36*
X101334039Y-85358354D02*
G01*
X101312381Y-85314931D01*
X101251070Y-85252705D01*
X101168922Y-85226287D01*
X101086936Y-85239571D01*
X101048691Y-85266034D01*
X101009575Y-85340614D01*
X101009198Y-85429600D01*
X101046729Y-85507146D01*
X101056766Y-85517283D01*
X101136479Y-85556279D01*
X101222073Y-85548169D01*
X101294467Y-85496473D01*
X101312372Y-85470153D01*
X101339705Y-85408596D01*
X101334039Y-85358354D01*
X101334039Y-85358354D01*
G37*
X101334039Y-85358354D02*
X101312381Y-85314931D01*
X101251070Y-85252705D01*
X101168922Y-85226287D01*
X101086936Y-85239571D01*
X101048691Y-85266034D01*
X101009575Y-85340614D01*
X101009198Y-85429600D01*
X101046729Y-85507146D01*
X101056766Y-85517283D01*
X101136479Y-85556279D01*
X101222073Y-85548169D01*
X101294467Y-85496473D01*
X101312372Y-85470153D01*
X101339705Y-85408596D01*
X101334039Y-85358354D01*
G36*
X103161888Y-88126085D02*
G01*
X103119316Y-88037769D01*
X103050493Y-87946356D01*
X102972191Y-87871313D01*
X102911222Y-87835118D01*
X102874215Y-87827327D01*
X102829005Y-87830936D01*
X102768822Y-87848838D01*
X102686895Y-87883920D01*
X102576454Y-87939072D01*
X102430728Y-88017185D01*
X102249016Y-88117760D01*
X102013547Y-88249190D01*
X102242844Y-87906934D01*
X102326744Y-87779815D01*
X102400474Y-87664577D01*
X102457583Y-87571568D01*
X102491619Y-87511133D01*
X102496953Y-87499416D01*
X102500552Y-87418134D01*
X102464781Y-87325525D01*
X102400719Y-87235575D01*
X102319445Y-87162270D01*
X102232041Y-87119596D01*
X102191697Y-87114098D01*
X102143595Y-87134069D01*
X102060798Y-87191890D01*
X101947418Y-87284420D01*
X101813361Y-87403218D01*
X101616192Y-87583770D01*
X101457567Y-87731021D01*
X101334028Y-87849379D01*
X101242119Y-87943250D01*
X101178383Y-88017042D01*
X101139363Y-88075163D01*
X101121603Y-88122020D01*
X101121645Y-88162021D01*
X101136033Y-88199572D01*
X101159640Y-88236707D01*
X101212205Y-88284023D01*
X101259819Y-88299431D01*
X101341593Y-88281226D01*
X101432961Y-88236304D01*
X101504998Y-88179204D01*
X101509619Y-88173875D01*
X101544321Y-88137970D01*
X101611197Y-88073466D01*
X101700528Y-87989596D01*
X101799721Y-87898220D01*
X102052799Y-87667176D01*
X101782364Y-88046804D01*
X101677260Y-88196534D01*
X101602202Y-88309574D01*
X101552706Y-88393884D01*
X101524290Y-88457422D01*
X101512470Y-88508150D01*
X101511373Y-88527890D01*
X101533839Y-88632058D01*
X101597234Y-88702844D01*
X101693611Y-88731885D01*
X101705481Y-88732172D01*
X101759644Y-88717809D01*
X101853176Y-88677633D01*
X101977748Y-88616010D01*
X102125031Y-88537309D01*
X102286696Y-88445898D01*
X102454415Y-88346143D01*
X102526817Y-88301461D01*
X102538146Y-88299806D01*
X102512807Y-88330252D01*
X102456040Y-88387085D01*
X102399817Y-88440052D01*
X102240603Y-88588175D01*
X102118857Y-88704065D01*
X102029829Y-88792959D01*
X101968771Y-88860092D01*
X101930936Y-88910699D01*
X101911573Y-88950015D01*
X101905936Y-88983275D01*
X101905928Y-88984565D01*
X101930164Y-89073257D01*
X101996221Y-89130026D01*
X102075649Y-89146098D01*
X102117275Y-89137672D01*
X102171615Y-89109149D01*
X102245320Y-89055664D01*
X102345042Y-88972349D01*
X102477432Y-88854338D01*
X102489911Y-88842999D01*
X102680431Y-88669179D01*
X102832725Y-88528645D01*
X102950750Y-88417177D01*
X103038460Y-88330556D01*
X103099811Y-88264561D01*
X103138758Y-88214973D01*
X103159258Y-88177571D01*
X103165265Y-88148135D01*
X103161888Y-88126085D01*
X103161888Y-88126085D01*
G37*
X103161888Y-88126085D02*
X103119316Y-88037769D01*
X103050493Y-87946356D01*
X102972191Y-87871313D01*
X102911222Y-87835118D01*
X102874215Y-87827327D01*
X102829005Y-87830936D01*
X102768822Y-87848838D01*
X102686895Y-87883920D01*
X102576454Y-87939072D01*
X102430728Y-88017185D01*
X102249016Y-88117760D01*
X102013547Y-88249190D01*
X102242844Y-87906934D01*
X102326744Y-87779815D01*
X102400474Y-87664577D01*
X102457583Y-87571568D01*
X102491619Y-87511133D01*
X102496953Y-87499416D01*
X102500552Y-87418134D01*
X102464781Y-87325525D01*
X102400719Y-87235575D01*
X102319445Y-87162270D01*
X102232041Y-87119596D01*
X102191697Y-87114098D01*
X102143595Y-87134069D01*
X102060798Y-87191890D01*
X101947418Y-87284420D01*
X101813361Y-87403218D01*
X101616192Y-87583770D01*
X101457567Y-87731021D01*
X101334028Y-87849379D01*
X101242119Y-87943250D01*
X101178383Y-88017042D01*
X101139363Y-88075163D01*
X101121603Y-88122020D01*
X101121645Y-88162021D01*
X101136033Y-88199572D01*
X101159640Y-88236707D01*
X101212205Y-88284023D01*
X101259819Y-88299431D01*
X101341593Y-88281226D01*
X101432961Y-88236304D01*
X101504998Y-88179204D01*
X101509619Y-88173875D01*
X101544321Y-88137970D01*
X101611197Y-88073466D01*
X101700528Y-87989596D01*
X101799721Y-87898220D01*
X102052799Y-87667176D01*
X101782364Y-88046804D01*
X101677260Y-88196534D01*
X101602202Y-88309574D01*
X101552706Y-88393884D01*
X101524290Y-88457422D01*
X101512470Y-88508150D01*
X101511373Y-88527890D01*
X101533839Y-88632058D01*
X101597234Y-88702844D01*
X101693611Y-88731885D01*
X101705481Y-88732172D01*
X101759644Y-88717809D01*
X101853176Y-88677633D01*
X101977748Y-88616010D01*
X102125031Y-88537309D01*
X102286696Y-88445898D01*
X102454415Y-88346143D01*
X102526817Y-88301461D01*
X102538146Y-88299806D01*
X102512807Y-88330252D01*
X102456040Y-88387085D01*
X102399817Y-88440052D01*
X102240603Y-88588175D01*
X102118857Y-88704065D01*
X102029829Y-88792959D01*
X101968771Y-88860092D01*
X101930936Y-88910699D01*
X101911573Y-88950015D01*
X101905936Y-88983275D01*
X101905928Y-88984565D01*
X101930164Y-89073257D01*
X101996221Y-89130026D01*
X102075649Y-89146098D01*
X102117275Y-89137672D01*
X102171615Y-89109149D01*
X102245320Y-89055664D01*
X102345042Y-88972349D01*
X102477432Y-88854338D01*
X102489911Y-88842999D01*
X102680431Y-88669179D01*
X102832725Y-88528645D01*
X102950750Y-88417177D01*
X103038460Y-88330556D01*
X103099811Y-88264561D01*
X103138758Y-88214973D01*
X103159258Y-88177571D01*
X103165265Y-88148135D01*
X103161888Y-88126085D01*
G36*
X102874235Y-72099289D02*
G01*
X102820793Y-72032456D01*
X102740843Y-71942437D01*
X102641844Y-71836806D01*
X102531257Y-71723137D01*
X102416544Y-71609004D01*
X102305165Y-71501980D01*
X102204580Y-71409640D01*
X102122250Y-71339559D01*
X102076792Y-71306045D01*
X101930035Y-71240853D01*
X101774945Y-71224021D01*
X101642790Y-71251318D01*
X101549883Y-71304702D01*
X101445582Y-71392672D01*
X101345759Y-71500391D01*
X101280091Y-71590345D01*
X101227159Y-71702773D01*
X101200793Y-71821918D01*
X101202343Y-71931102D01*
X101233160Y-72013647D01*
X101244722Y-72027304D01*
X101319374Y-72072764D01*
X101392508Y-72068803D01*
X101454899Y-72021917D01*
X101497325Y-71938599D01*
X101510817Y-71839946D01*
X101518669Y-71747025D01*
X101550623Y-71679066D01*
X101600842Y-71623446D01*
X101688706Y-71556102D01*
X101768986Y-71540801D01*
X101854000Y-71576767D01*
X101891817Y-71605112D01*
X101944068Y-71649806D01*
X101955046Y-71669706D01*
X101927653Y-71675153D01*
X101911583Y-71675527D01*
X101791978Y-71703721D01*
X101685293Y-71776832D01*
X101601401Y-71883416D01*
X101550176Y-72012027D01*
X101539040Y-72107333D01*
X101561362Y-72272221D01*
X101623060Y-72419357D01*
X101716228Y-72544859D01*
X101832961Y-72644845D01*
X101965354Y-72715431D01*
X102105502Y-72752735D01*
X102183140Y-72752812D01*
X102183140Y-72428710D01*
X102157620Y-72423698D01*
X102088907Y-72386816D01*
X102007322Y-72323084D01*
X101932023Y-72249662D01*
X101882169Y-72183708D01*
X101876547Y-72171974D01*
X101855733Y-72110657D01*
X101857842Y-72062828D01*
X101885322Y-71999638D01*
X101892331Y-71985994D01*
X101959075Y-71908148D01*
X102048517Y-71876622D01*
X102151202Y-71891342D01*
X102257679Y-71952234D01*
X102298869Y-71989157D01*
X102382780Y-72101081D01*
X102410551Y-72213319D01*
X102396160Y-72294273D01*
X102346554Y-72365516D01*
X102267966Y-72414442D01*
X102183140Y-72428710D01*
X102183140Y-72752812D01*
X102245499Y-72752874D01*
X102377441Y-72711965D01*
X102493423Y-72626127D01*
X102523901Y-72591062D01*
X102569077Y-72517082D01*
X102604926Y-72429654D01*
X102625036Y-72348617D01*
X102622997Y-72293808D01*
X102621131Y-72290208D01*
X102628413Y-72280780D01*
X102662675Y-72294619D01*
X102746147Y-72312450D01*
X102821767Y-72283816D01*
X102875545Y-72218360D01*
X102893706Y-72135362D01*
X102874235Y-72099289D01*
X102874235Y-72099289D01*
G37*
X102874235Y-72099289D02*
X102820793Y-72032456D01*
X102740843Y-71942437D01*
X102641844Y-71836806D01*
X102531257Y-71723137D01*
X102416544Y-71609004D01*
X102305165Y-71501980D01*
X102204580Y-71409640D01*
X102122250Y-71339559D01*
X102076792Y-71306045D01*
X101930035Y-71240853D01*
X101774945Y-71224021D01*
X101642790Y-71251318D01*
X101549883Y-71304702D01*
X101445582Y-71392672D01*
X101345759Y-71500391D01*
X101280091Y-71590345D01*
X101227159Y-71702773D01*
X101200793Y-71821918D01*
X101202343Y-71931102D01*
X101233160Y-72013647D01*
X101244722Y-72027304D01*
X101319374Y-72072764D01*
X101392508Y-72068803D01*
X101454899Y-72021917D01*
X101497325Y-71938599D01*
X101510817Y-71839946D01*
X101518669Y-71747025D01*
X101550623Y-71679066D01*
X101600842Y-71623446D01*
X101688706Y-71556102D01*
X101768986Y-71540801D01*
X101854000Y-71576767D01*
X101891817Y-71605112D01*
X101944068Y-71649806D01*
X101955046Y-71669706D01*
X101927653Y-71675153D01*
X101911583Y-71675527D01*
X101791978Y-71703721D01*
X101685293Y-71776832D01*
X101601401Y-71883416D01*
X101550176Y-72012027D01*
X101539040Y-72107333D01*
X101561362Y-72272221D01*
X101623060Y-72419357D01*
X101716228Y-72544859D01*
X101832961Y-72644845D01*
X101965354Y-72715431D01*
X102105502Y-72752735D01*
X102183140Y-72752812D01*
X102183140Y-72428710D01*
X102157620Y-72423698D01*
X102088907Y-72386816D01*
X102007322Y-72323084D01*
X101932023Y-72249662D01*
X101882169Y-72183708D01*
X101876547Y-72171974D01*
X101855733Y-72110657D01*
X101857842Y-72062828D01*
X101885322Y-71999638D01*
X101892331Y-71985994D01*
X101959075Y-71908148D01*
X102048517Y-71876622D01*
X102151202Y-71891342D01*
X102257679Y-71952234D01*
X102298869Y-71989157D01*
X102382780Y-72101081D01*
X102410551Y-72213319D01*
X102396160Y-72294273D01*
X102346554Y-72365516D01*
X102267966Y-72414442D01*
X102183140Y-72428710D01*
X102183140Y-72752812D01*
X102245499Y-72752874D01*
X102377441Y-72711965D01*
X102493423Y-72626127D01*
X102523901Y-72591062D01*
X102569077Y-72517082D01*
X102604926Y-72429654D01*
X102625036Y-72348617D01*
X102622997Y-72293808D01*
X102621131Y-72290208D01*
X102628413Y-72280780D01*
X102662675Y-72294619D01*
X102746147Y-72312450D01*
X102821767Y-72283816D01*
X102875545Y-72218360D01*
X102893706Y-72135362D01*
X102874235Y-72099289D01*
G36*
X101721581Y-74191854D02*
G01*
X101658282Y-74144616D01*
X101572366Y-74132623D01*
X101480740Y-74161091D01*
X101441278Y-74202425D01*
X101426622Y-74278880D01*
X101426151Y-74302807D01*
X101433163Y-74382106D01*
X101460713Y-74426496D01*
X101494625Y-74446507D01*
X101592895Y-74465932D01*
X101677522Y-74435377D01*
X101735838Y-74359469D01*
X101736377Y-74358179D01*
X101751276Y-74265865D01*
X101721581Y-74191854D01*
X101721581Y-74191854D01*
G37*
X101721581Y-74191854D02*
X101658282Y-74144616D01*
X101572366Y-74132623D01*
X101480740Y-74161091D01*
X101441278Y-74202425D01*
X101426622Y-74278880D01*
X101426151Y-74302807D01*
X101433163Y-74382106D01*
X101460713Y-74426496D01*
X101494625Y-74446507D01*
X101592895Y-74465932D01*
X101677522Y-74435377D01*
X101735838Y-74359469D01*
X101736377Y-74358179D01*
X101751276Y-74265865D01*
X101721581Y-74191854D01*
G36*
X102107973Y-86801537D02*
G01*
X102048120Y-86745079D01*
X101969169Y-86720619D01*
X101888142Y-86734735D01*
X101839747Y-86770598D01*
X101797546Y-86853553D01*
X101808080Y-86941290D01*
X101849484Y-87001209D01*
X101929203Y-87048729D01*
X102011852Y-87049122D01*
X102082254Y-87008722D01*
X102125233Y-86933865D01*
X102131706Y-86883416D01*
X102107973Y-86801537D01*
X102107973Y-86801537D01*
G37*
X102107973Y-86801537D02*
X102048120Y-86745079D01*
X101969169Y-86720619D01*
X101888142Y-86734735D01*
X101839747Y-86770598D01*
X101797546Y-86853553D01*
X101808080Y-86941290D01*
X101849484Y-87001209D01*
X101929203Y-87048729D01*
X102011852Y-87049122D01*
X102082254Y-87008722D01*
X102125233Y-86933865D01*
X102131706Y-86883416D01*
X102107973Y-86801537D01*
D11*
X106684165Y-93897765D02*
X104511001Y-93191661D01*
X107138420Y-92499712D02*
X106684165Y-93897765D01*
X104965256Y-91793608D02*
X107138420Y-92499712D01*
X111565839Y-94023147D02*
X109287883Y-94202426D01*
X109287883Y-94202426D02*
X109172548Y-92736958D01*
X109172548Y-92736958D02*
X111450504Y-92557678D01*
X97911517Y-84975692D02*
X98948886Y-87011642D01*
X98948886Y-87011642D02*
X97639106Y-87679008D01*
X97639106Y-87679008D02*
X96601738Y-85643058D01*
X118374831Y-89300399D02*
X119858820Y-87562871D01*
X119492628Y-90255087D02*
X118374831Y-89300399D01*
X120976617Y-88517560D02*
X119492628Y-90255087D01*
X95580499Y-82474834D02*
X95421105Y-80195400D01*
X97046918Y-82372292D02*
X95580499Y-82474834D01*
X96887524Y-80092858D02*
X97046918Y-82372292D01*
X123419960Y-83532662D02*
X122713856Y-85705826D01*
X122713856Y-85705826D02*
X121315803Y-85251571D01*
X121315803Y-85251571D02*
X122021907Y-83078407D01*
X100379970Y-70780270D02*
X99108835Y-72679069D01*
X99108835Y-72679069D02*
X97887287Y-71861315D01*
X97887287Y-71861315D02*
X99158423Y-69962515D01*
X121723446Y-75395412D02*
X120686078Y-73359462D01*
X123033226Y-74728046D02*
X121723446Y-75395412D01*
X121995857Y-72692096D02*
X123033226Y-74728046D01*
X101891508Y-67911006D02*
X103927458Y-66873638D01*
X102558874Y-69220786D02*
X101891508Y-67911006D01*
X104594824Y-68183417D02*
X102558874Y-69220786D01*
X118324460Y-68603903D02*
X120061987Y-70087892D01*
X120061987Y-70087892D02*
X119107299Y-71205689D01*
X119107299Y-71205689D02*
X117369771Y-69721700D01*
X101510179Y-91698409D02*
X99772651Y-90214420D01*
X102464867Y-90580612D02*
X101510179Y-91698409D01*
X100727340Y-89096623D02*
X102464867Y-90580612D01*
X116880648Y-92318437D02*
X114844698Y-93355806D01*
X114844698Y-93355806D02*
X114177332Y-92046026D01*
X114177332Y-92046026D02*
X116213282Y-91008658D01*
X97697380Y-75099862D02*
X96991276Y-77273026D01*
X96991276Y-77273026D02*
X95593223Y-76818771D01*
X95593223Y-76818771D02*
X96299327Y-74645607D01*
X122484878Y-80382230D02*
X122305598Y-78104274D01*
X123950346Y-80266895D02*
X122484878Y-80382230D01*
X123771067Y-77988939D02*
X123950346Y-80266895D01*
X107051990Y-65858118D02*
X109329946Y-65678838D01*
X107167325Y-67323586D02*
X107051990Y-65858118D01*
X109445281Y-67144307D02*
X107167325Y-67323586D01*
X113339562Y-66125000D02*
X115512726Y-66831104D01*
X115512726Y-66831104D02*
X115058471Y-68229157D01*
X115058471Y-68229157D02*
X112885307Y-67523053D01*
X106130508Y-92056181D02*
X106285016Y-91580653D01*
X106171795Y-91543865D01*
X106096505Y-91544437D01*
X106036502Y-91575010D01*
X105999142Y-91612941D01*
X105947068Y-91696160D01*
X105924995Y-91764093D01*
X105918209Y-91862027D01*
X105926139Y-91914673D01*
X105956712Y-91974677D01*
X106017287Y-92019394D01*
X106130508Y-92056181D01*
X105405893Y-91820740D02*
X105677624Y-91909030D01*
X105541759Y-91864885D02*
X105696267Y-91389357D01*
X105719483Y-91472005D01*
X105750056Y-91532008D01*
X105787987Y-91569367D01*
X110977256Y-92459498D02*
X110938027Y-91961039D01*
X110819346Y-91970379D01*
X110750006Y-91999720D01*
X110706270Y-92050928D01*
X110686270Y-92100268D01*
X110670006Y-92197081D01*
X110675610Y-92268289D01*
X110706818Y-92361366D01*
X110734291Y-92406970D01*
X110785499Y-92450706D01*
X110858576Y-92468838D01*
X110977256Y-92459498D01*
X110467040Y-92045873D02*
X110441436Y-92024005D01*
X110392096Y-92004005D01*
X110273415Y-92013345D01*
X110227811Y-92040817D01*
X110205943Y-92066421D01*
X110185943Y-92115762D01*
X110189679Y-92163234D01*
X110219019Y-92232574D01*
X110526270Y-92494991D01*
X110217700Y-92519276D01*
X98545946Y-85953312D02*
X98991450Y-85726316D01*
X98937403Y-85620244D01*
X98883761Y-85567410D01*
X98819713Y-85546600D01*
X98766475Y-85547004D01*
X98670808Y-85569027D01*
X98607165Y-85601455D01*
X98533116Y-85665906D01*
X98501497Y-85708739D01*
X98480686Y-85772787D01*
X98491900Y-85847239D01*
X98545946Y-85953312D01*
X98786073Y-85323242D02*
X98645552Y-85047454D01*
X98551502Y-85282430D01*
X98519074Y-85218786D01*
X98476241Y-85187167D01*
X98444217Y-85176762D01*
X98390979Y-85177166D01*
X98284907Y-85231212D01*
X98253287Y-85274045D01*
X98242882Y-85306069D01*
X98243286Y-85359307D01*
X98308142Y-85486594D01*
X98350975Y-85518214D01*
X98382999Y-85528619D01*
X119512273Y-87773132D02*
X119132070Y-87448408D01*
X119054755Y-87538933D01*
X119026471Y-87608711D01*
X119031755Y-87675847D01*
X119052501Y-87724878D01*
X119109458Y-87804835D01*
X119163773Y-87851224D01*
X119251655Y-87894971D01*
X119303328Y-87907792D01*
X119370464Y-87902509D01*
X119434958Y-87863657D01*
X119512273Y-87773132D01*
X118794913Y-88099797D02*
X119048382Y-88316280D01*
X118727389Y-87885568D02*
X119076278Y-88026989D01*
X118875258Y-88262353D01*
X97102423Y-81254986D02*
X97601205Y-81220108D01*
X97592901Y-81101351D01*
X97564167Y-81031757D01*
X97513342Y-80987576D01*
X97464178Y-80967146D01*
X97367511Y-80950038D01*
X97296257Y-80955020D01*
X97202912Y-80985415D01*
X97157069Y-81012489D01*
X97112888Y-81063313D01*
X97094119Y-81136229D01*
X97102423Y-81254986D01*
X97549719Y-80483811D02*
X97566327Y-80721326D01*
X97330473Y-80761686D01*
X97352564Y-80736274D01*
X97372993Y-80687110D01*
X97364689Y-80568352D01*
X97337616Y-80522510D01*
X97312203Y-80500420D01*
X97263039Y-80479990D01*
X97144282Y-80488294D01*
X97098440Y-80515367D01*
X97076349Y-80540780D01*
X97055919Y-80589944D01*
X97064223Y-80708701D01*
X97091297Y-80754543D01*
X97116709Y-80776634D01*
X121748781Y-83401751D02*
X121273253Y-83247243D01*
X121236465Y-83360464D01*
X121237037Y-83435754D01*
X121267610Y-83495757D01*
X121305541Y-83533117D01*
X121388760Y-83585191D01*
X121456693Y-83607264D01*
X121554627Y-83614050D01*
X121607273Y-83606120D01*
X121667277Y-83575547D01*
X121711994Y-83514972D01*
X121748781Y-83401751D01*
X121052527Y-83926569D02*
X121081957Y-83835992D01*
X121119316Y-83798061D01*
X121149318Y-83782774D01*
X121231966Y-83759559D01*
X121329900Y-83766345D01*
X121511054Y-83825205D01*
X121548985Y-83862564D01*
X121564271Y-83892566D01*
X121572200Y-83945212D01*
X121542770Y-84035789D01*
X121505411Y-84073720D01*
X121475409Y-84089006D01*
X121422763Y-84096935D01*
X121309542Y-84060148D01*
X121271611Y-84022788D01*
X121256325Y-83992787D01*
X121248395Y-83940141D01*
X121277826Y-83849564D01*
X121315185Y-83811633D01*
X121345187Y-83796346D01*
X121397833Y-83788417D01*
X100662300Y-71515735D02*
X100246808Y-71237588D01*
X100180582Y-71336514D01*
X100160632Y-71409116D01*
X100173712Y-71475176D01*
X100200038Y-71521452D01*
X100265934Y-71594218D01*
X100325290Y-71633953D01*
X100417677Y-71667149D01*
X100470492Y-71673853D01*
X100536553Y-71660773D01*
X100596074Y-71614662D01*
X100662300Y-71515735D01*
X99995150Y-71613509D02*
X99809718Y-71890504D01*
X100344417Y-71990584D01*
X120595686Y-74706192D02*
X121041190Y-74479196D01*
X120987143Y-74373124D01*
X120933501Y-74320290D01*
X120869453Y-74299480D01*
X120816215Y-74299884D01*
X120720548Y-74321907D01*
X120656905Y-74354335D01*
X120582856Y-74418786D01*
X120551237Y-74461619D01*
X120530426Y-74525667D01*
X120541640Y-74600119D01*
X120595686Y-74706192D01*
X120590837Y-74067334D02*
X120633670Y-74098953D01*
X120665693Y-74109358D01*
X120718932Y-74108954D01*
X120740146Y-74098145D01*
X120771766Y-74055312D01*
X120782171Y-74023288D01*
X120781767Y-73970050D01*
X120738529Y-73885192D01*
X120695696Y-73853572D01*
X120663673Y-73843167D01*
X120610434Y-73843571D01*
X120589220Y-73854381D01*
X120557600Y-73897214D01*
X120547195Y-73929238D01*
X120547599Y-73982476D01*
X120590837Y-74067334D01*
X120591241Y-74120572D01*
X120580836Y-74152595D01*
X120549216Y-74195428D01*
X120464358Y-74238666D01*
X120411120Y-74239070D01*
X120379096Y-74228665D01*
X120336263Y-74197045D01*
X120293026Y-74112187D01*
X120292622Y-74058949D01*
X120303027Y-74026925D01*
X120334647Y-73984092D01*
X120419504Y-73940855D01*
X120472743Y-73940451D01*
X120504766Y-73950856D01*
X120547599Y-73982476D01*
X104482612Y-68997533D02*
X104255616Y-68552029D01*
X104149544Y-68606076D01*
X104096710Y-68659718D01*
X104075900Y-68723766D01*
X104076304Y-68777004D01*
X104098327Y-68872671D01*
X104130755Y-68936314D01*
X104195206Y-69010363D01*
X104238039Y-69041982D01*
X104302087Y-69062793D01*
X104376539Y-69051579D01*
X104482612Y-68997533D01*
X104015894Y-69235337D02*
X103931036Y-69278574D01*
X103877798Y-69278978D01*
X103845774Y-69268573D01*
X103770918Y-69226549D01*
X103706466Y-69152500D01*
X103619991Y-68982785D01*
X103619587Y-68929546D01*
X103629992Y-68897523D01*
X103661612Y-68854690D01*
X103746470Y-68811452D01*
X103799708Y-68811048D01*
X103831732Y-68821453D01*
X103874565Y-68853073D01*
X103928611Y-68959145D01*
X103929015Y-69012383D01*
X103918610Y-69044407D01*
X103886991Y-69087240D01*
X103802133Y-69130477D01*
X103748895Y-69130882D01*
X103716871Y-69120476D01*
X103674038Y-69088857D01*
X117982816Y-71117344D02*
X118307540Y-70737141D01*
X118217015Y-70659826D01*
X118147237Y-70631541D01*
X118080101Y-70636825D01*
X118031070Y-70657572D01*
X117951113Y-70714528D01*
X117904724Y-70768843D01*
X117860977Y-70856726D01*
X117848156Y-70908399D01*
X117853439Y-70975535D01*
X117892291Y-71040029D01*
X117982816Y-71117344D01*
X117403459Y-70622526D02*
X117620718Y-70808083D01*
X117512088Y-70715305D02*
X117836812Y-70335102D01*
X117826633Y-70420342D01*
X117831916Y-70487478D01*
X117852663Y-70536509D01*
X117492819Y-70041304D02*
X117456609Y-70010378D01*
X117404936Y-69997556D01*
X117371368Y-70000198D01*
X117322337Y-70020945D01*
X117242380Y-70077902D01*
X117165065Y-70168426D01*
X117121318Y-70256309D01*
X117108496Y-70307982D01*
X117111138Y-70341550D01*
X117131885Y-70390581D01*
X117168095Y-70421507D01*
X117219768Y-70434328D01*
X117253336Y-70431686D01*
X117302367Y-70410939D01*
X117382324Y-70353983D01*
X117459639Y-70263458D01*
X117503386Y-70175575D01*
X117516208Y-70123903D01*
X117513566Y-70090335D01*
X117492819Y-70041304D01*
X101894456Y-89872704D02*
X102219180Y-89492501D01*
X102128655Y-89415186D01*
X102058877Y-89386901D01*
X101991741Y-89392185D01*
X101942710Y-89412932D01*
X101862753Y-89469888D01*
X101816364Y-89524203D01*
X101772617Y-89612086D01*
X101759796Y-89663759D01*
X101765079Y-89730895D01*
X101803931Y-89795389D01*
X101894456Y-89872704D01*
X101315099Y-89377886D02*
X101532358Y-89563443D01*
X101423728Y-89470665D02*
X101748452Y-89090462D01*
X101738273Y-89175702D01*
X101743556Y-89242838D01*
X101764303Y-89291869D01*
X101464057Y-88910189D02*
X101461416Y-88876621D01*
X101440669Y-88827590D01*
X101350144Y-88750275D01*
X101298471Y-88737453D01*
X101264903Y-88740095D01*
X101215872Y-88760842D01*
X101184946Y-88797052D01*
X101156662Y-88866829D01*
X101188364Y-89269645D01*
X100953001Y-89068625D01*
X115979976Y-90979820D02*
X115752981Y-90534316D01*
X115646909Y-90588363D01*
X115594075Y-90642005D01*
X115573264Y-90706053D01*
X115573668Y-90759291D01*
X115595691Y-90854958D01*
X115628119Y-90918601D01*
X115692571Y-90992650D01*
X115735404Y-91024269D01*
X115799451Y-91045080D01*
X115873904Y-91033866D01*
X115979976Y-90979820D01*
X115301114Y-91325717D02*
X115555687Y-91196006D01*
X115428401Y-91260861D02*
X115201405Y-90815358D01*
X115276262Y-90857383D01*
X115340310Y-90878193D01*
X115393548Y-90877789D01*
X114925618Y-90955879D02*
X114649830Y-91096400D01*
X114884805Y-91190450D01*
X114821162Y-91222878D01*
X114789542Y-91265711D01*
X114779137Y-91297735D01*
X114779541Y-91350973D01*
X114833588Y-91457045D01*
X114876421Y-91488665D01*
X114908445Y-91499070D01*
X114961683Y-91498666D01*
X115088970Y-91433810D01*
X115120589Y-91390977D01*
X115130994Y-91358953D01*
X98246077Y-75517209D02*
X97770549Y-75362701D01*
X97733761Y-75475922D01*
X97734332Y-75551212D01*
X97764906Y-75611215D01*
X97802837Y-75648575D01*
X97886056Y-75700649D01*
X97953988Y-75722722D01*
X98051923Y-75729508D01*
X98104569Y-75721578D01*
X98164572Y-75691005D01*
X98209289Y-75630430D01*
X98246077Y-75517209D01*
X98010635Y-76241824D02*
X98098926Y-75970093D01*
X98054781Y-76105958D02*
X97579252Y-75951450D01*
X97661900Y-75928234D01*
X97721904Y-75897661D01*
X97759263Y-75859730D01*
X97561181Y-76546414D02*
X97878200Y-76649419D01*
X97416815Y-76374332D02*
X97793266Y-76371474D01*
X97697617Y-76665849D01*
X121765002Y-79571297D02*
X122263461Y-79532068D01*
X122254120Y-79413387D01*
X122224780Y-79344047D01*
X122173572Y-79300311D01*
X122124231Y-79280311D01*
X122027419Y-79264047D01*
X121956210Y-79269651D01*
X121863134Y-79300860D01*
X121817530Y-79328332D01*
X121773794Y-79379540D01*
X121755662Y-79452617D01*
X121765002Y-79571297D01*
X121705224Y-78811741D02*
X121727641Y-79096575D01*
X121716432Y-78954158D02*
X122214891Y-78914929D01*
X122147419Y-78968005D01*
X122103683Y-79019213D01*
X122083683Y-79068554D01*
X122168189Y-78321525D02*
X122186870Y-78558887D01*
X121951377Y-78601304D01*
X121973245Y-78575699D01*
X121993245Y-78526359D01*
X121983904Y-78407678D01*
X121956432Y-78362074D01*
X121930828Y-78340206D01*
X121881487Y-78320206D01*
X121762807Y-78329547D01*
X121717203Y-78357019D01*
X121695335Y-78382623D01*
X121675335Y-78431963D01*
X121684675Y-78550644D01*
X121712147Y-78596248D01*
X121737751Y-78618116D01*
X109235957Y-67818057D02*
X109196728Y-67319598D01*
X109078047Y-67328939D01*
X109008707Y-67358279D01*
X108964971Y-67409487D01*
X108944971Y-67458828D01*
X108928707Y-67555640D01*
X108934311Y-67626849D01*
X108965520Y-67719925D01*
X108992992Y-67765529D01*
X109044200Y-67809265D01*
X109117277Y-67827397D01*
X109235957Y-67818057D01*
X108476401Y-67877835D02*
X108761235Y-67855418D01*
X108618818Y-67866627D02*
X108579589Y-67368168D01*
X108632665Y-67435640D01*
X108683873Y-67479376D01*
X108733214Y-67499376D01*
X108009922Y-67413002D02*
X108104866Y-67405530D01*
X108154206Y-67425530D01*
X108179811Y-67447398D01*
X108232887Y-67514870D01*
X108264095Y-67607946D01*
X108279040Y-67797835D01*
X108259040Y-67847176D01*
X108237172Y-67872780D01*
X108191568Y-67900252D01*
X108096623Y-67907724D01*
X108047283Y-67887724D01*
X108021679Y-67865856D01*
X107994207Y-67820252D01*
X107984866Y-67701572D01*
X108004866Y-67652231D01*
X108026734Y-67626627D01*
X108072338Y-67599155D01*
X108167283Y-67591682D01*
X108216623Y-67611682D01*
X108242227Y-67633550D01*
X108269700Y-67679155D01*
X114009970Y-68566177D02*
X114164478Y-68090649D01*
X114051257Y-68053861D01*
X113975967Y-68054432D01*
X113915964Y-68085006D01*
X113878604Y-68122937D01*
X113826530Y-68206156D01*
X113804457Y-68274088D01*
X113797671Y-68372023D01*
X113805601Y-68424669D01*
X113836174Y-68484672D01*
X113896749Y-68529389D01*
X114009970Y-68566177D01*
X113285355Y-68330735D02*
X113557086Y-68419026D01*
X113421221Y-68374881D02*
X113575729Y-67899352D01*
X113598945Y-67982000D01*
X113629518Y-68042004D01*
X113667449Y-68079363D01*
X113281355Y-67803704D02*
X112964336Y-67700699D01*
X113013625Y-68242445D01*
M02*
