G04 #@! TF.GenerationSoftware,KiCad,Pcbnew,(5.1.4)-1*
G04 #@! TF.CreationDate,2020-07-30T17:41:20-07:00*
G04 #@! TF.ProjectId,Kicad LED Rings,4b696361-6420-44c4-9544-2052696e6773,rev?*
G04 #@! TF.SameCoordinates,Original*
G04 #@! TF.FileFunction,Paste,Top*
G04 #@! TF.FilePolarity,Positive*
%FSLAX46Y46*%
G04 Gerber Fmt 4.6, Leading zero omitted, Abs format (unit mm)*
G04 Created by KiCad (PCBNEW (5.1.4)-1) date 2020-07-30 17:41:20*
%MOMM*%
%LPD*%
G04 APERTURE LIST*
%ADD10C,0.152400*%
%ADD11R,1.193800X3.708400*%
%ADD12C,0.100000*%
%ADD13C,0.590000*%
%ADD14R,1.600200X2.006600*%
%ADD15R,0.812800X0.304800*%
%ADD16R,0.500000X0.500000*%
%ADD17C,0.875000*%
%ADD18R,0.930000X1.320000*%
G04 APERTURE END LIST*
D10*
X110426500Y-66149220D02*
X108826300Y-66149220D01*
X110426500Y-68155820D02*
X110426500Y-66149220D01*
X108826300Y-68155820D02*
X110426500Y-68155820D01*
X108826300Y-66149220D02*
X108826300Y-68155820D01*
D11*
X104526080Y-69834760D03*
X101732080Y-69834760D03*
D12*
G36*
X117374938Y-70025470D02*
G01*
X117389256Y-70027594D01*
X117403297Y-70031111D01*
X117416926Y-70035988D01*
X117430011Y-70042177D01*
X117442427Y-70049618D01*
X117454053Y-70058241D01*
X117464778Y-70067962D01*
X117474499Y-70078687D01*
X117483122Y-70090313D01*
X117490563Y-70102729D01*
X117496752Y-70115814D01*
X117501629Y-70129443D01*
X117505146Y-70143484D01*
X117507270Y-70157802D01*
X117507980Y-70172260D01*
X117507980Y-70467260D01*
X117507270Y-70481718D01*
X117505146Y-70496036D01*
X117501629Y-70510077D01*
X117496752Y-70523706D01*
X117490563Y-70536791D01*
X117483122Y-70549207D01*
X117474499Y-70560833D01*
X117464778Y-70571558D01*
X117454053Y-70581279D01*
X117442427Y-70589902D01*
X117430011Y-70597343D01*
X117416926Y-70603532D01*
X117403297Y-70608409D01*
X117389256Y-70611926D01*
X117374938Y-70614050D01*
X117360480Y-70614760D01*
X117015480Y-70614760D01*
X117001022Y-70614050D01*
X116986704Y-70611926D01*
X116972663Y-70608409D01*
X116959034Y-70603532D01*
X116945949Y-70597343D01*
X116933533Y-70589902D01*
X116921907Y-70581279D01*
X116911182Y-70571558D01*
X116901461Y-70560833D01*
X116892838Y-70549207D01*
X116885397Y-70536791D01*
X116879208Y-70523706D01*
X116874331Y-70510077D01*
X116870814Y-70496036D01*
X116868690Y-70481718D01*
X116867980Y-70467260D01*
X116867980Y-70172260D01*
X116868690Y-70157802D01*
X116870814Y-70143484D01*
X116874331Y-70129443D01*
X116879208Y-70115814D01*
X116885397Y-70102729D01*
X116892838Y-70090313D01*
X116901461Y-70078687D01*
X116911182Y-70067962D01*
X116921907Y-70058241D01*
X116933533Y-70049618D01*
X116945949Y-70042177D01*
X116959034Y-70035988D01*
X116972663Y-70031111D01*
X116986704Y-70027594D01*
X117001022Y-70025470D01*
X117015480Y-70024760D01*
X117360480Y-70024760D01*
X117374938Y-70025470D01*
X117374938Y-70025470D01*
G37*
D13*
X117187980Y-70319760D03*
D12*
G36*
X117374938Y-69055470D02*
G01*
X117389256Y-69057594D01*
X117403297Y-69061111D01*
X117416926Y-69065988D01*
X117430011Y-69072177D01*
X117442427Y-69079618D01*
X117454053Y-69088241D01*
X117464778Y-69097962D01*
X117474499Y-69108687D01*
X117483122Y-69120313D01*
X117490563Y-69132729D01*
X117496752Y-69145814D01*
X117501629Y-69159443D01*
X117505146Y-69173484D01*
X117507270Y-69187802D01*
X117507980Y-69202260D01*
X117507980Y-69497260D01*
X117507270Y-69511718D01*
X117505146Y-69526036D01*
X117501629Y-69540077D01*
X117496752Y-69553706D01*
X117490563Y-69566791D01*
X117483122Y-69579207D01*
X117474499Y-69590833D01*
X117464778Y-69601558D01*
X117454053Y-69611279D01*
X117442427Y-69619902D01*
X117430011Y-69627343D01*
X117416926Y-69633532D01*
X117403297Y-69638409D01*
X117389256Y-69641926D01*
X117374938Y-69644050D01*
X117360480Y-69644760D01*
X117015480Y-69644760D01*
X117001022Y-69644050D01*
X116986704Y-69641926D01*
X116972663Y-69638409D01*
X116959034Y-69633532D01*
X116945949Y-69627343D01*
X116933533Y-69619902D01*
X116921907Y-69611279D01*
X116911182Y-69601558D01*
X116901461Y-69590833D01*
X116892838Y-69579207D01*
X116885397Y-69566791D01*
X116879208Y-69553706D01*
X116874331Y-69540077D01*
X116870814Y-69526036D01*
X116868690Y-69511718D01*
X116867980Y-69497260D01*
X116867980Y-69202260D01*
X116868690Y-69187802D01*
X116870814Y-69173484D01*
X116874331Y-69159443D01*
X116879208Y-69145814D01*
X116885397Y-69132729D01*
X116892838Y-69120313D01*
X116901461Y-69108687D01*
X116911182Y-69097962D01*
X116921907Y-69088241D01*
X116933533Y-69079618D01*
X116945949Y-69072177D01*
X116959034Y-69065988D01*
X116972663Y-69061111D01*
X116986704Y-69057594D01*
X117001022Y-69055470D01*
X117015480Y-69054760D01*
X117360480Y-69054760D01*
X117374938Y-69055470D01*
X117374938Y-69055470D01*
G37*
D13*
X117187980Y-69349760D03*
D12*
G36*
X107341938Y-68732610D02*
G01*
X107356256Y-68734734D01*
X107370297Y-68738251D01*
X107383926Y-68743128D01*
X107397011Y-68749317D01*
X107409427Y-68756758D01*
X107421053Y-68765381D01*
X107431778Y-68775102D01*
X107441499Y-68785827D01*
X107450122Y-68797453D01*
X107457563Y-68809869D01*
X107463752Y-68822954D01*
X107468629Y-68836583D01*
X107472146Y-68850624D01*
X107474270Y-68864942D01*
X107474980Y-68879400D01*
X107474980Y-69174400D01*
X107474270Y-69188858D01*
X107472146Y-69203176D01*
X107468629Y-69217217D01*
X107463752Y-69230846D01*
X107457563Y-69243931D01*
X107450122Y-69256347D01*
X107441499Y-69267973D01*
X107431778Y-69278698D01*
X107421053Y-69288419D01*
X107409427Y-69297042D01*
X107397011Y-69304483D01*
X107383926Y-69310672D01*
X107370297Y-69315549D01*
X107356256Y-69319066D01*
X107341938Y-69321190D01*
X107327480Y-69321900D01*
X106982480Y-69321900D01*
X106968022Y-69321190D01*
X106953704Y-69319066D01*
X106939663Y-69315549D01*
X106926034Y-69310672D01*
X106912949Y-69304483D01*
X106900533Y-69297042D01*
X106888907Y-69288419D01*
X106878182Y-69278698D01*
X106868461Y-69267973D01*
X106859838Y-69256347D01*
X106852397Y-69243931D01*
X106846208Y-69230846D01*
X106841331Y-69217217D01*
X106837814Y-69203176D01*
X106835690Y-69188858D01*
X106834980Y-69174400D01*
X106834980Y-68879400D01*
X106835690Y-68864942D01*
X106837814Y-68850624D01*
X106841331Y-68836583D01*
X106846208Y-68822954D01*
X106852397Y-68809869D01*
X106859838Y-68797453D01*
X106868461Y-68785827D01*
X106878182Y-68775102D01*
X106888907Y-68765381D01*
X106900533Y-68756758D01*
X106912949Y-68749317D01*
X106926034Y-68743128D01*
X106939663Y-68738251D01*
X106953704Y-68734734D01*
X106968022Y-68732610D01*
X106982480Y-68731900D01*
X107327480Y-68731900D01*
X107341938Y-68732610D01*
X107341938Y-68732610D01*
G37*
D13*
X107154980Y-69026900D03*
D12*
G36*
X107341938Y-67762610D02*
G01*
X107356256Y-67764734D01*
X107370297Y-67768251D01*
X107383926Y-67773128D01*
X107397011Y-67779317D01*
X107409427Y-67786758D01*
X107421053Y-67795381D01*
X107431778Y-67805102D01*
X107441499Y-67815827D01*
X107450122Y-67827453D01*
X107457563Y-67839869D01*
X107463752Y-67852954D01*
X107468629Y-67866583D01*
X107472146Y-67880624D01*
X107474270Y-67894942D01*
X107474980Y-67909400D01*
X107474980Y-68204400D01*
X107474270Y-68218858D01*
X107472146Y-68233176D01*
X107468629Y-68247217D01*
X107463752Y-68260846D01*
X107457563Y-68273931D01*
X107450122Y-68286347D01*
X107441499Y-68297973D01*
X107431778Y-68308698D01*
X107421053Y-68318419D01*
X107409427Y-68327042D01*
X107397011Y-68334483D01*
X107383926Y-68340672D01*
X107370297Y-68345549D01*
X107356256Y-68349066D01*
X107341938Y-68351190D01*
X107327480Y-68351900D01*
X106982480Y-68351900D01*
X106968022Y-68351190D01*
X106953704Y-68349066D01*
X106939663Y-68345549D01*
X106926034Y-68340672D01*
X106912949Y-68334483D01*
X106900533Y-68327042D01*
X106888907Y-68318419D01*
X106878182Y-68308698D01*
X106868461Y-68297973D01*
X106859838Y-68286347D01*
X106852397Y-68273931D01*
X106846208Y-68260846D01*
X106841331Y-68247217D01*
X106837814Y-68233176D01*
X106835690Y-68218858D01*
X106834980Y-68204400D01*
X106834980Y-67909400D01*
X106835690Y-67894942D01*
X106837814Y-67880624D01*
X106841331Y-67866583D01*
X106846208Y-67852954D01*
X106852397Y-67839869D01*
X106859838Y-67827453D01*
X106868461Y-67815827D01*
X106878182Y-67805102D01*
X106888907Y-67795381D01*
X106900533Y-67786758D01*
X106912949Y-67779317D01*
X106926034Y-67773128D01*
X106939663Y-67768251D01*
X106953704Y-67764734D01*
X106968022Y-67762610D01*
X106982480Y-67761900D01*
X107327480Y-67761900D01*
X107341938Y-67762610D01*
X107341938Y-67762610D01*
G37*
D13*
X107154980Y-68056900D03*
D12*
G36*
X106473258Y-68732610D02*
G01*
X106487576Y-68734734D01*
X106501617Y-68738251D01*
X106515246Y-68743128D01*
X106528331Y-68749317D01*
X106540747Y-68756758D01*
X106552373Y-68765381D01*
X106563098Y-68775102D01*
X106572819Y-68785827D01*
X106581442Y-68797453D01*
X106588883Y-68809869D01*
X106595072Y-68822954D01*
X106599949Y-68836583D01*
X106603466Y-68850624D01*
X106605590Y-68864942D01*
X106606300Y-68879400D01*
X106606300Y-69174400D01*
X106605590Y-69188858D01*
X106603466Y-69203176D01*
X106599949Y-69217217D01*
X106595072Y-69230846D01*
X106588883Y-69243931D01*
X106581442Y-69256347D01*
X106572819Y-69267973D01*
X106563098Y-69278698D01*
X106552373Y-69288419D01*
X106540747Y-69297042D01*
X106528331Y-69304483D01*
X106515246Y-69310672D01*
X106501617Y-69315549D01*
X106487576Y-69319066D01*
X106473258Y-69321190D01*
X106458800Y-69321900D01*
X106113800Y-69321900D01*
X106099342Y-69321190D01*
X106085024Y-69319066D01*
X106070983Y-69315549D01*
X106057354Y-69310672D01*
X106044269Y-69304483D01*
X106031853Y-69297042D01*
X106020227Y-69288419D01*
X106009502Y-69278698D01*
X105999781Y-69267973D01*
X105991158Y-69256347D01*
X105983717Y-69243931D01*
X105977528Y-69230846D01*
X105972651Y-69217217D01*
X105969134Y-69203176D01*
X105967010Y-69188858D01*
X105966300Y-69174400D01*
X105966300Y-68879400D01*
X105967010Y-68864942D01*
X105969134Y-68850624D01*
X105972651Y-68836583D01*
X105977528Y-68822954D01*
X105983717Y-68809869D01*
X105991158Y-68797453D01*
X105999781Y-68785827D01*
X106009502Y-68775102D01*
X106020227Y-68765381D01*
X106031853Y-68756758D01*
X106044269Y-68749317D01*
X106057354Y-68743128D01*
X106070983Y-68738251D01*
X106085024Y-68734734D01*
X106099342Y-68732610D01*
X106113800Y-68731900D01*
X106458800Y-68731900D01*
X106473258Y-68732610D01*
X106473258Y-68732610D01*
G37*
D13*
X106286300Y-69026900D03*
D12*
G36*
X106473258Y-67762610D02*
G01*
X106487576Y-67764734D01*
X106501617Y-67768251D01*
X106515246Y-67773128D01*
X106528331Y-67779317D01*
X106540747Y-67786758D01*
X106552373Y-67795381D01*
X106563098Y-67805102D01*
X106572819Y-67815827D01*
X106581442Y-67827453D01*
X106588883Y-67839869D01*
X106595072Y-67852954D01*
X106599949Y-67866583D01*
X106603466Y-67880624D01*
X106605590Y-67894942D01*
X106606300Y-67909400D01*
X106606300Y-68204400D01*
X106605590Y-68218858D01*
X106603466Y-68233176D01*
X106599949Y-68247217D01*
X106595072Y-68260846D01*
X106588883Y-68273931D01*
X106581442Y-68286347D01*
X106572819Y-68297973D01*
X106563098Y-68308698D01*
X106552373Y-68318419D01*
X106540747Y-68327042D01*
X106528331Y-68334483D01*
X106515246Y-68340672D01*
X106501617Y-68345549D01*
X106487576Y-68349066D01*
X106473258Y-68351190D01*
X106458800Y-68351900D01*
X106113800Y-68351900D01*
X106099342Y-68351190D01*
X106085024Y-68349066D01*
X106070983Y-68345549D01*
X106057354Y-68340672D01*
X106044269Y-68334483D01*
X106031853Y-68327042D01*
X106020227Y-68318419D01*
X106009502Y-68308698D01*
X105999781Y-68297973D01*
X105991158Y-68286347D01*
X105983717Y-68273931D01*
X105977528Y-68260846D01*
X105972651Y-68247217D01*
X105969134Y-68233176D01*
X105967010Y-68218858D01*
X105966300Y-68204400D01*
X105966300Y-67909400D01*
X105967010Y-67894942D01*
X105969134Y-67880624D01*
X105972651Y-67866583D01*
X105977528Y-67852954D01*
X105983717Y-67839869D01*
X105991158Y-67827453D01*
X105999781Y-67815827D01*
X106009502Y-67805102D01*
X106020227Y-67795381D01*
X106031853Y-67786758D01*
X106044269Y-67779317D01*
X106057354Y-67773128D01*
X106070983Y-67768251D01*
X106085024Y-67764734D01*
X106099342Y-67762610D01*
X106113800Y-67761900D01*
X106458800Y-67761900D01*
X106473258Y-67762610D01*
X106473258Y-67762610D01*
G37*
D13*
X106286300Y-68056900D03*
D14*
X109626400Y-67152520D03*
D15*
X111074200Y-66152519D03*
X111074200Y-66652521D03*
X111074200Y-67152520D03*
X111074200Y-67652519D03*
X111074200Y-68152521D03*
X108178600Y-68152521D03*
X108178600Y-67652519D03*
X108178600Y-67152520D03*
X108178600Y-66652521D03*
X108178600Y-66152519D03*
D16*
X108033640Y-69857620D03*
X110233640Y-69857620D03*
D12*
G36*
X118299498Y-69055470D02*
G01*
X118313816Y-69057594D01*
X118327857Y-69061111D01*
X118341486Y-69065988D01*
X118354571Y-69072177D01*
X118366987Y-69079618D01*
X118378613Y-69088241D01*
X118389338Y-69097962D01*
X118399059Y-69108687D01*
X118407682Y-69120313D01*
X118415123Y-69132729D01*
X118421312Y-69145814D01*
X118426189Y-69159443D01*
X118429706Y-69173484D01*
X118431830Y-69187802D01*
X118432540Y-69202260D01*
X118432540Y-69497260D01*
X118431830Y-69511718D01*
X118429706Y-69526036D01*
X118426189Y-69540077D01*
X118421312Y-69553706D01*
X118415123Y-69566791D01*
X118407682Y-69579207D01*
X118399059Y-69590833D01*
X118389338Y-69601558D01*
X118378613Y-69611279D01*
X118366987Y-69619902D01*
X118354571Y-69627343D01*
X118341486Y-69633532D01*
X118327857Y-69638409D01*
X118313816Y-69641926D01*
X118299498Y-69644050D01*
X118285040Y-69644760D01*
X117940040Y-69644760D01*
X117925582Y-69644050D01*
X117911264Y-69641926D01*
X117897223Y-69638409D01*
X117883594Y-69633532D01*
X117870509Y-69627343D01*
X117858093Y-69619902D01*
X117846467Y-69611279D01*
X117835742Y-69601558D01*
X117826021Y-69590833D01*
X117817398Y-69579207D01*
X117809957Y-69566791D01*
X117803768Y-69553706D01*
X117798891Y-69540077D01*
X117795374Y-69526036D01*
X117793250Y-69511718D01*
X117792540Y-69497260D01*
X117792540Y-69202260D01*
X117793250Y-69187802D01*
X117795374Y-69173484D01*
X117798891Y-69159443D01*
X117803768Y-69145814D01*
X117809957Y-69132729D01*
X117817398Y-69120313D01*
X117826021Y-69108687D01*
X117835742Y-69097962D01*
X117846467Y-69088241D01*
X117858093Y-69079618D01*
X117870509Y-69072177D01*
X117883594Y-69065988D01*
X117897223Y-69061111D01*
X117911264Y-69057594D01*
X117925582Y-69055470D01*
X117940040Y-69054760D01*
X118285040Y-69054760D01*
X118299498Y-69055470D01*
X118299498Y-69055470D01*
G37*
D13*
X118112540Y-69349760D03*
D12*
G36*
X118299498Y-70025470D02*
G01*
X118313816Y-70027594D01*
X118327857Y-70031111D01*
X118341486Y-70035988D01*
X118354571Y-70042177D01*
X118366987Y-70049618D01*
X118378613Y-70058241D01*
X118389338Y-70067962D01*
X118399059Y-70078687D01*
X118407682Y-70090313D01*
X118415123Y-70102729D01*
X118421312Y-70115814D01*
X118426189Y-70129443D01*
X118429706Y-70143484D01*
X118431830Y-70157802D01*
X118432540Y-70172260D01*
X118432540Y-70467260D01*
X118431830Y-70481718D01*
X118429706Y-70496036D01*
X118426189Y-70510077D01*
X118421312Y-70523706D01*
X118415123Y-70536791D01*
X118407682Y-70549207D01*
X118399059Y-70560833D01*
X118389338Y-70571558D01*
X118378613Y-70581279D01*
X118366987Y-70589902D01*
X118354571Y-70597343D01*
X118341486Y-70603532D01*
X118327857Y-70608409D01*
X118313816Y-70611926D01*
X118299498Y-70614050D01*
X118285040Y-70614760D01*
X117940040Y-70614760D01*
X117925582Y-70614050D01*
X117911264Y-70611926D01*
X117897223Y-70608409D01*
X117883594Y-70603532D01*
X117870509Y-70597343D01*
X117858093Y-70589902D01*
X117846467Y-70581279D01*
X117835742Y-70571558D01*
X117826021Y-70560833D01*
X117817398Y-70549207D01*
X117809957Y-70536791D01*
X117803768Y-70523706D01*
X117798891Y-70510077D01*
X117795374Y-70496036D01*
X117793250Y-70481718D01*
X117792540Y-70467260D01*
X117792540Y-70172260D01*
X117793250Y-70157802D01*
X117795374Y-70143484D01*
X117798891Y-70129443D01*
X117803768Y-70115814D01*
X117809957Y-70102729D01*
X117817398Y-70090313D01*
X117826021Y-70078687D01*
X117835742Y-70067962D01*
X117846467Y-70058241D01*
X117858093Y-70049618D01*
X117870509Y-70042177D01*
X117883594Y-70035988D01*
X117897223Y-70031111D01*
X117911264Y-70027594D01*
X117925582Y-70025470D01*
X117940040Y-70024760D01*
X118285040Y-70024760D01*
X118299498Y-70025470D01*
X118299498Y-70025470D01*
G37*
D13*
X118112540Y-70319760D03*
D12*
G36*
X114410851Y-67603133D02*
G01*
X114432086Y-67606283D01*
X114452910Y-67611499D01*
X114473122Y-67618731D01*
X114492528Y-67627910D01*
X114510941Y-67638946D01*
X114528184Y-67651734D01*
X114544090Y-67666150D01*
X114558506Y-67682056D01*
X114571294Y-67699299D01*
X114582330Y-67717712D01*
X114591509Y-67737118D01*
X114598741Y-67757330D01*
X114603957Y-67778154D01*
X114607107Y-67799389D01*
X114608160Y-67820830D01*
X114608160Y-68333330D01*
X114607107Y-68354771D01*
X114603957Y-68376006D01*
X114598741Y-68396830D01*
X114591509Y-68417042D01*
X114582330Y-68436448D01*
X114571294Y-68454861D01*
X114558506Y-68472104D01*
X114544090Y-68488010D01*
X114528184Y-68502426D01*
X114510941Y-68515214D01*
X114492528Y-68526250D01*
X114473122Y-68535429D01*
X114452910Y-68542661D01*
X114432086Y-68547877D01*
X114410851Y-68551027D01*
X114389410Y-68552080D01*
X113951910Y-68552080D01*
X113930469Y-68551027D01*
X113909234Y-68547877D01*
X113888410Y-68542661D01*
X113868198Y-68535429D01*
X113848792Y-68526250D01*
X113830379Y-68515214D01*
X113813136Y-68502426D01*
X113797230Y-68488010D01*
X113782814Y-68472104D01*
X113770026Y-68454861D01*
X113758990Y-68436448D01*
X113749811Y-68417042D01*
X113742579Y-68396830D01*
X113737363Y-68376006D01*
X113734213Y-68354771D01*
X113733160Y-68333330D01*
X113733160Y-67820830D01*
X113734213Y-67799389D01*
X113737363Y-67778154D01*
X113742579Y-67757330D01*
X113749811Y-67737118D01*
X113758990Y-67717712D01*
X113770026Y-67699299D01*
X113782814Y-67682056D01*
X113797230Y-67666150D01*
X113813136Y-67651734D01*
X113830379Y-67638946D01*
X113848792Y-67627910D01*
X113868198Y-67618731D01*
X113888410Y-67611499D01*
X113909234Y-67606283D01*
X113930469Y-67603133D01*
X113951910Y-67602080D01*
X114389410Y-67602080D01*
X114410851Y-67603133D01*
X114410851Y-67603133D01*
G37*
D17*
X114170660Y-68077080D03*
D12*
G36*
X112835851Y-67603133D02*
G01*
X112857086Y-67606283D01*
X112877910Y-67611499D01*
X112898122Y-67618731D01*
X112917528Y-67627910D01*
X112935941Y-67638946D01*
X112953184Y-67651734D01*
X112969090Y-67666150D01*
X112983506Y-67682056D01*
X112996294Y-67699299D01*
X113007330Y-67717712D01*
X113016509Y-67737118D01*
X113023741Y-67757330D01*
X113028957Y-67778154D01*
X113032107Y-67799389D01*
X113033160Y-67820830D01*
X113033160Y-68333330D01*
X113032107Y-68354771D01*
X113028957Y-68376006D01*
X113023741Y-68396830D01*
X113016509Y-68417042D01*
X113007330Y-68436448D01*
X112996294Y-68454861D01*
X112983506Y-68472104D01*
X112969090Y-68488010D01*
X112953184Y-68502426D01*
X112935941Y-68515214D01*
X112917528Y-68526250D01*
X112898122Y-68535429D01*
X112877910Y-68542661D01*
X112857086Y-68547877D01*
X112835851Y-68551027D01*
X112814410Y-68552080D01*
X112376910Y-68552080D01*
X112355469Y-68551027D01*
X112334234Y-68547877D01*
X112313410Y-68542661D01*
X112293198Y-68535429D01*
X112273792Y-68526250D01*
X112255379Y-68515214D01*
X112238136Y-68502426D01*
X112222230Y-68488010D01*
X112207814Y-68472104D01*
X112195026Y-68454861D01*
X112183990Y-68436448D01*
X112174811Y-68417042D01*
X112167579Y-68396830D01*
X112162363Y-68376006D01*
X112159213Y-68354771D01*
X112158160Y-68333330D01*
X112158160Y-67820830D01*
X112159213Y-67799389D01*
X112162363Y-67778154D01*
X112167579Y-67757330D01*
X112174811Y-67737118D01*
X112183990Y-67717712D01*
X112195026Y-67699299D01*
X112207814Y-67682056D01*
X112222230Y-67666150D01*
X112238136Y-67651734D01*
X112255379Y-67638946D01*
X112273792Y-67627910D01*
X112293198Y-67618731D01*
X112313410Y-67611499D01*
X112334234Y-67606283D01*
X112355469Y-67603133D01*
X112376910Y-67602080D01*
X112814410Y-67602080D01*
X112835851Y-67603133D01*
X112835851Y-67603133D01*
G37*
D17*
X112595660Y-68077080D03*
D18*
X114208140Y-69519800D03*
X112568140Y-69519800D03*
M02*
