G04 #@! TF.GenerationSoftware,KiCad,Pcbnew,(5.1.4)-1*
G04 #@! TF.CreationDate,2020-05-09T12:02:51-07:00*
G04 #@! TF.ProjectId,Kicad LED Rings_Circular_final,4b696361-6420-44c4-9544-2052696e6773,rev?*
G04 #@! TF.SameCoordinates,Original*
G04 #@! TF.FileFunction,Legend,Bot*
G04 #@! TF.FilePolarity,Positive*
%FSLAX46Y46*%
G04 Gerber Fmt 4.6, Leading zero omitted, Abs format (unit mm)*
G04 Created by KiCad (PCBNEW (5.1.4)-1) date 2020-05-09 12:02:51*
%MOMM*%
%LPD*%
G04 APERTURE LIST*
%ADD10C,0.120000*%
%ADD11C,0.150000*%
G04 APERTURE END LIST*
D10*
X107692814Y-90741666D02*
X105519650Y-90035562D01*
X108147069Y-89343613D02*
X107692814Y-90741666D01*
X105973905Y-88637509D02*
X108147069Y-89343613D01*
X113794796Y-90039664D02*
X111621632Y-90745768D01*
X111621632Y-90745768D02*
X111167377Y-89347715D01*
X111167377Y-89347715D02*
X113340541Y-88641611D01*
X101561238Y-84798603D02*
X102904328Y-86647207D01*
X102904328Y-86647207D02*
X101715073Y-87511251D01*
X101715073Y-87511251D02*
X100371983Y-85662648D01*
X116414512Y-86664987D02*
X117757602Y-84816383D01*
X117603767Y-87529031D02*
X116414512Y-86664987D01*
X118946857Y-85680428D02*
X117603767Y-87529031D01*
X98754260Y-81395840D02*
X98754260Y-79110840D01*
X100224260Y-81395840D02*
X98754260Y-81395840D01*
X100224260Y-79110840D02*
X100224260Y-81395840D01*
X120549340Y-79095700D02*
X120549340Y-81380700D01*
X120549340Y-81380700D02*
X119079340Y-81380700D01*
X119079340Y-81380700D02*
X119079340Y-79095700D01*
X102488995Y-73708530D02*
X101145905Y-75557133D01*
X101145905Y-75557133D02*
X99956650Y-74693089D01*
X99956650Y-74693089D02*
X101299740Y-72844485D01*
X118151413Y-75583411D02*
X116808323Y-73734808D01*
X119340668Y-74719367D02*
X118151413Y-75583411D01*
X117997578Y-72870763D02*
X119340668Y-74719367D01*
X104880877Y-70013235D02*
X107054041Y-69307131D01*
X105335132Y-71411288D02*
X104880877Y-70013235D01*
X107508296Y-70705184D02*
X105335132Y-71411288D01*
X112252785Y-69290329D02*
X114425949Y-69996433D01*
X114425949Y-69996433D02*
X113971694Y-71394486D01*
X113971694Y-71394486D02*
X111798530Y-70688382D01*
D11*
X107511693Y-88882061D02*
X107820710Y-87931005D01*
X107594268Y-87857429D01*
X107443688Y-87858572D01*
X107323681Y-87919719D01*
X107248962Y-87995581D01*
X107144814Y-88162019D01*
X107100668Y-88297885D01*
X107087096Y-88493753D01*
X107102955Y-88599045D01*
X107164101Y-88719052D01*
X107285251Y-88808486D01*
X107511693Y-88882061D01*
X106062464Y-88411178D02*
X106605925Y-88587759D01*
X106334195Y-88499469D02*
X106643212Y-87548412D01*
X106689643Y-87713708D01*
X106750790Y-87833715D01*
X106826652Y-87908433D01*
X114090480Y-91150017D02*
X113781463Y-90198961D01*
X113555021Y-90272536D01*
X113433871Y-90361970D01*
X113372724Y-90481977D01*
X113356866Y-90587269D01*
X113370438Y-90783138D01*
X113414583Y-90919003D01*
X113518732Y-91085441D01*
X113593451Y-91161303D01*
X113713458Y-91222450D01*
X113864038Y-91223593D01*
X114090480Y-91150017D01*
X112905125Y-90583840D02*
X112845122Y-90553266D01*
X112739830Y-90537408D01*
X112513388Y-90610984D01*
X112437526Y-90685702D01*
X112406953Y-90745706D01*
X112391095Y-90850998D01*
X112420525Y-90941574D01*
X112509958Y-91062724D01*
X113230000Y-91429604D01*
X112641251Y-91620900D01*
X102661590Y-85900340D02*
X103470607Y-85312555D01*
X103330658Y-85119932D01*
X103208164Y-85032348D01*
X103075136Y-85011278D01*
X102970097Y-85028733D01*
X102788008Y-85102167D01*
X102672434Y-85186137D01*
X102546326Y-85336620D01*
X102497266Y-85431124D01*
X102476197Y-85564153D01*
X102521641Y-85707717D01*
X102661590Y-85900340D01*
X102938801Y-84580587D02*
X102574934Y-84079767D01*
X102462666Y-84573357D01*
X102378696Y-84457784D01*
X102284192Y-84408724D01*
X102217678Y-84398189D01*
X102112639Y-84415644D01*
X101920016Y-84555593D01*
X101870956Y-84650097D01*
X101860422Y-84716612D01*
X101877876Y-84821651D01*
X102045815Y-85052798D01*
X102140319Y-85101858D01*
X102206834Y-85112393D01*
X119838720Y-86404923D02*
X119029703Y-85817138D01*
X118889754Y-86009761D01*
X118844309Y-86153324D01*
X118865379Y-86286353D01*
X118914438Y-86380857D01*
X119040547Y-86531341D01*
X119156121Y-86615310D01*
X119338209Y-86688745D01*
X119443248Y-86706200D01*
X119576277Y-86685130D01*
X119698771Y-86597546D01*
X119838720Y-86404923D01*
X118459682Y-87168804D02*
X118999027Y-87560661D01*
X118291434Y-86752263D02*
X119009252Y-86979487D01*
X118645385Y-87480307D01*
X101371640Y-79172744D02*
X100371640Y-79172744D01*
X100371640Y-79410840D01*
X100419260Y-79553697D01*
X100514498Y-79648935D01*
X100609736Y-79696554D01*
X100800212Y-79744173D01*
X100943069Y-79744173D01*
X101133545Y-79696554D01*
X101228783Y-79648935D01*
X101324021Y-79553697D01*
X101371640Y-79410840D01*
X101371640Y-79172744D01*
X100371640Y-80648935D02*
X100371640Y-80172744D01*
X100847831Y-80125125D01*
X100800212Y-80172744D01*
X100752593Y-80267982D01*
X100752593Y-80506078D01*
X100800212Y-80601316D01*
X100847831Y-80648935D01*
X100943069Y-80696554D01*
X101181164Y-80696554D01*
X101276402Y-80648935D01*
X101324021Y-80601316D01*
X101371640Y-80506078D01*
X101371640Y-80267982D01*
X101324021Y-80172744D01*
X101276402Y-80125125D01*
X121696720Y-79157604D02*
X120696720Y-79157604D01*
X120696720Y-79395700D01*
X120744340Y-79538557D01*
X120839578Y-79633795D01*
X120934816Y-79681414D01*
X121125292Y-79729033D01*
X121268149Y-79729033D01*
X121458625Y-79681414D01*
X121553863Y-79633795D01*
X121649101Y-79538557D01*
X121696720Y-79395700D01*
X121696720Y-79157604D01*
X120696720Y-80586176D02*
X120696720Y-80395700D01*
X120744340Y-80300461D01*
X120791959Y-80252842D01*
X120934816Y-80157604D01*
X121125292Y-80109985D01*
X121506244Y-80109985D01*
X121601482Y-80157604D01*
X121649101Y-80205223D01*
X121696720Y-80300461D01*
X121696720Y-80490938D01*
X121649101Y-80586176D01*
X121601482Y-80633795D01*
X121506244Y-80681414D01*
X121268149Y-80681414D01*
X121172911Y-80633795D01*
X121125292Y-80586176D01*
X121077673Y-80490938D01*
X121077673Y-80300461D01*
X121125292Y-80205223D01*
X121172911Y-80157604D01*
X121268149Y-80109985D01*
X103380858Y-74433025D02*
X102571841Y-73845240D01*
X102431892Y-74037863D01*
X102386447Y-74181426D01*
X102407517Y-74314455D01*
X102456576Y-74408959D01*
X102582685Y-74559443D01*
X102698259Y-74643412D01*
X102880347Y-74716847D01*
X102985386Y-74734302D01*
X103118415Y-74713232D01*
X103240909Y-74625648D01*
X103380858Y-74433025D01*
X102040035Y-74577207D02*
X101648178Y-75116552D01*
X102709103Y-75357616D01*
X119097930Y-73972500D02*
X119906947Y-73384715D01*
X119766998Y-73192092D01*
X119644504Y-73104508D01*
X119511476Y-73083438D01*
X119406437Y-73100893D01*
X119224348Y-73174327D01*
X119108774Y-73258297D01*
X118982666Y-73408780D01*
X118933606Y-73503284D01*
X118912537Y-73636313D01*
X118957981Y-73779877D01*
X119097930Y-73972500D01*
X118888471Y-72712032D02*
X118982975Y-72761091D01*
X119049490Y-72771626D01*
X119154529Y-72754171D01*
X119193053Y-72726181D01*
X119242113Y-72631677D01*
X119252647Y-72565163D01*
X119235193Y-72460124D01*
X119123233Y-72306025D01*
X119028729Y-72256966D01*
X118962215Y-72246431D01*
X118857176Y-72263886D01*
X118818651Y-72291876D01*
X118769592Y-72386380D01*
X118759057Y-72452894D01*
X118776512Y-72557933D01*
X118888471Y-72712032D01*
X118905926Y-72817071D01*
X118895391Y-72883585D01*
X118846332Y-72978089D01*
X118692233Y-73090048D01*
X118587194Y-73107503D01*
X118520680Y-73096969D01*
X118426176Y-73047909D01*
X118314216Y-72893811D01*
X118296762Y-72788772D01*
X118307296Y-72722257D01*
X118356356Y-72627753D01*
X118510454Y-72515794D01*
X118615493Y-72498339D01*
X118682008Y-72508874D01*
X118776512Y-72557933D01*
X107803980Y-71815537D02*
X107494963Y-70864481D01*
X107268521Y-70938056D01*
X107147371Y-71027490D01*
X107086224Y-71147497D01*
X107070366Y-71252789D01*
X107083938Y-71448658D01*
X107128083Y-71584523D01*
X107232232Y-71750961D01*
X107306951Y-71826823D01*
X107426958Y-71887970D01*
X107577538Y-71889113D01*
X107803980Y-71815537D01*
X106807635Y-72139269D02*
X106626482Y-72198130D01*
X106521190Y-72182272D01*
X106461186Y-72151698D01*
X106326464Y-72045263D01*
X106222315Y-71878825D01*
X106104595Y-71516518D01*
X106120453Y-71411226D01*
X106151026Y-71351222D01*
X106226888Y-71276504D01*
X106408041Y-71217643D01*
X106513333Y-71233501D01*
X106573337Y-71264075D01*
X106648055Y-71339936D01*
X106721631Y-71566378D01*
X106705773Y-71671670D01*
X106675199Y-71731674D01*
X106599338Y-71806392D01*
X106418184Y-71865253D01*
X106312892Y-71849395D01*
X106252889Y-71818821D01*
X106178170Y-71742960D01*
X114243457Y-69682032D02*
X114552474Y-68730976D01*
X114326032Y-68657400D01*
X114175452Y-68658543D01*
X114055445Y-68719690D01*
X113980726Y-68795552D01*
X113876578Y-68961990D01*
X113832432Y-69097855D01*
X113818860Y-69293724D01*
X113834719Y-69399016D01*
X113895865Y-69519023D01*
X114017015Y-69608457D01*
X114243457Y-69682032D01*
X112794228Y-69211149D02*
X113337689Y-69387730D01*
X113065959Y-69299440D02*
X113374976Y-68348383D01*
X113421407Y-68513679D01*
X113482554Y-68633686D01*
X113558416Y-68708404D01*
X112514496Y-68068796D02*
X112423919Y-68039366D01*
X112318627Y-68055225D01*
X112258624Y-68085798D01*
X112183905Y-68161660D01*
X112079757Y-68328098D01*
X112006181Y-68554540D01*
X111992609Y-68750409D01*
X112008467Y-68855701D01*
X112039041Y-68915704D01*
X112114902Y-68990423D01*
X112205479Y-69019853D01*
X112310771Y-69003995D01*
X112370775Y-68973421D01*
X112445493Y-68897560D01*
X112549642Y-68731121D01*
X112623217Y-68504679D01*
X112636789Y-68308810D01*
X112620931Y-68203519D01*
X112590358Y-68143515D01*
X112514496Y-68068796D01*
M02*
