G04 #@! TF.GenerationSoftware,KiCad,Pcbnew,(5.1.4)-1*
G04 #@! TF.CreationDate,2020-07-30T12:24:00-07:00*
G04 #@! TF.ProjectId,Kicad LED Rings,4b696361-6420-44c4-9544-2052696e6773,rev?*
G04 #@! TF.SameCoordinates,Original*
G04 #@! TF.FileFunction,Copper,L3,Inr*
G04 #@! TF.FilePolarity,Positive*
%FSLAX46Y46*%
G04 Gerber Fmt 4.6, Leading zero omitted, Abs format (unit mm)*
G04 Created by KiCad (PCBNEW (5.1.4)-1) date 2020-07-30 12:24:00*
%MOMM*%
%LPD*%
G04 APERTURE LIST*
%ADD10R,1.000000X1.000000*%
%ADD11O,1.000000X1.000000*%
%ADD12C,0.450000*%
%ADD13C,0.254000*%
G04 APERTURE END LIST*
D10*
X98659680Y-73283900D03*
D11*
X98659680Y-74553900D03*
X98659680Y-75823900D03*
D10*
X120591580Y-74553420D03*
D11*
X120591580Y-75823420D03*
D12*
X112412780Y-67665600D03*
X115846860Y-69682360D03*
X105369160Y-67236140D03*
X109595920Y-68486020D03*
X102946200Y-71594980D03*
X117436900Y-73416160D03*
X102176580Y-70868540D03*
X111691370Y-69230190D03*
X118239540Y-72130920D03*
X114409220Y-69148960D03*
X106029760Y-69128640D03*
X116499640Y-72204580D03*
D13*
G36*
X110770511Y-65434303D02*
G01*
X112252977Y-65626238D01*
X113707852Y-65969584D01*
X115119712Y-66460702D01*
X116473592Y-67094387D01*
X117755141Y-67863919D01*
X118950772Y-68761144D01*
X120047814Y-69776549D01*
X121034635Y-70899371D01*
X121900777Y-72117708D01*
X122637058Y-73418645D01*
X123235672Y-74788392D01*
X123690276Y-76212430D01*
X123996048Y-77675663D01*
X124149749Y-79162580D01*
X124149749Y-80657420D01*
X123996048Y-82144337D01*
X123690276Y-83607570D01*
X123235672Y-85031608D01*
X122637058Y-86401355D01*
X121900777Y-87702292D01*
X121034635Y-88920629D01*
X120047814Y-90043451D01*
X118950772Y-91058856D01*
X117755141Y-91956081D01*
X116473592Y-92725613D01*
X115119712Y-93359298D01*
X113707852Y-93850416D01*
X112252977Y-94193762D01*
X110770511Y-94385697D01*
X109276166Y-94424186D01*
X107785784Y-94308822D01*
X106315164Y-94040825D01*
X104879893Y-93623039D01*
X103495187Y-93059891D01*
X102175723Y-92357351D01*
X100935489Y-91522866D01*
X99787630Y-90565282D01*
X98744315Y-89494749D01*
X97816604Y-88322615D01*
X97014329Y-87061305D01*
X96345995Y-85724190D01*
X95818687Y-84325443D01*
X95437994Y-82879891D01*
X95207953Y-81402858D01*
X95131000Y-79910000D01*
X100149000Y-79910000D01*
X100233773Y-81176359D01*
X100486578Y-82420121D01*
X100902905Y-83619089D01*
X101475325Y-84751868D01*
X102193621Y-85798244D01*
X103044977Y-86739544D01*
X104014199Y-87558971D01*
X105083993Y-88241901D01*
X106235267Y-88776149D01*
X107447477Y-89152180D01*
X108698991Y-89363284D01*
X109967476Y-89405694D01*
X111230295Y-89278653D01*
X112464914Y-88984429D01*
X113649301Y-88528271D01*
X114762320Y-87918319D01*
X115784110Y-87165460D01*
X116696437Y-86283126D01*
X117483019Y-85287063D01*
X118129821Y-84195047D01*
X118625301Y-83026564D01*
X118960616Y-81802466D01*
X119129783Y-80544597D01*
X119129783Y-79275403D01*
X118960616Y-78017534D01*
X118625301Y-76793436D01*
X118213979Y-75823420D01*
X119706318Y-75823420D01*
X119723328Y-75996126D01*
X119773705Y-76162195D01*
X119855512Y-76315245D01*
X119965605Y-76449395D01*
X120099755Y-76559488D01*
X120252805Y-76641295D01*
X120418874Y-76691672D01*
X120548307Y-76704420D01*
X120634853Y-76704420D01*
X120764286Y-76691672D01*
X120930355Y-76641295D01*
X121083405Y-76559488D01*
X121217555Y-76449395D01*
X121327648Y-76315245D01*
X121409455Y-76162195D01*
X121459832Y-75996126D01*
X121476842Y-75823420D01*
X121459832Y-75650714D01*
X121409455Y-75484645D01*
X121335438Y-75346169D01*
X121362291Y-75324131D01*
X121409902Y-75266116D01*
X121445281Y-75199928D01*
X121467067Y-75128109D01*
X121474423Y-75053420D01*
X121474423Y-74053420D01*
X121467067Y-73978731D01*
X121445281Y-73906912D01*
X121409902Y-73840724D01*
X121362291Y-73782709D01*
X121304276Y-73735098D01*
X121238088Y-73699719D01*
X121166269Y-73677933D01*
X121091580Y-73670577D01*
X120091580Y-73670577D01*
X120016891Y-73677933D01*
X119945072Y-73699719D01*
X119878884Y-73735098D01*
X119820869Y-73782709D01*
X119773258Y-73840724D01*
X119737879Y-73906912D01*
X119716093Y-73978731D01*
X119708737Y-74053420D01*
X119708737Y-75053420D01*
X119716093Y-75128109D01*
X119737879Y-75199928D01*
X119773258Y-75266116D01*
X119820869Y-75324131D01*
X119847722Y-75346169D01*
X119773705Y-75484645D01*
X119723328Y-75650714D01*
X119706318Y-75823420D01*
X118213979Y-75823420D01*
X118129821Y-75624953D01*
X117483019Y-74532937D01*
X116696437Y-73536874D01*
X116509905Y-73356474D01*
X116830900Y-73356474D01*
X116830900Y-73475846D01*
X116854188Y-73592924D01*
X116899870Y-73703209D01*
X116966189Y-73802462D01*
X117050598Y-73886871D01*
X117149851Y-73953190D01*
X117260136Y-73998872D01*
X117377214Y-74022160D01*
X117496586Y-74022160D01*
X117613664Y-73998872D01*
X117723949Y-73953190D01*
X117823202Y-73886871D01*
X117907611Y-73802462D01*
X117973930Y-73703209D01*
X118019612Y-73592924D01*
X118042900Y-73475846D01*
X118042900Y-73356474D01*
X118019612Y-73239396D01*
X117973930Y-73129111D01*
X117907611Y-73029858D01*
X117823202Y-72945449D01*
X117723949Y-72879130D01*
X117613664Y-72833448D01*
X117496586Y-72810160D01*
X117377214Y-72810160D01*
X117260136Y-72833448D01*
X117149851Y-72879130D01*
X117050598Y-72945449D01*
X116966189Y-73029858D01*
X116899870Y-73129111D01*
X116854188Y-73239396D01*
X116830900Y-73356474D01*
X116509905Y-73356474D01*
X115784110Y-72654540D01*
X115092412Y-72144894D01*
X115893640Y-72144894D01*
X115893640Y-72264266D01*
X115916928Y-72381344D01*
X115962610Y-72491629D01*
X116028929Y-72590882D01*
X116113338Y-72675291D01*
X116212591Y-72741610D01*
X116322876Y-72787292D01*
X116439954Y-72810580D01*
X116559326Y-72810580D01*
X116676404Y-72787292D01*
X116786689Y-72741610D01*
X116885942Y-72675291D01*
X116970351Y-72590882D01*
X117036670Y-72491629D01*
X117082352Y-72381344D01*
X117105640Y-72264266D01*
X117105640Y-72144894D01*
X117090989Y-72071234D01*
X117633540Y-72071234D01*
X117633540Y-72190606D01*
X117656828Y-72307684D01*
X117702510Y-72417969D01*
X117768829Y-72517222D01*
X117853238Y-72601631D01*
X117952491Y-72667950D01*
X118062776Y-72713632D01*
X118179854Y-72736920D01*
X118299226Y-72736920D01*
X118416304Y-72713632D01*
X118526589Y-72667950D01*
X118625842Y-72601631D01*
X118710251Y-72517222D01*
X118776570Y-72417969D01*
X118822252Y-72307684D01*
X118845540Y-72190606D01*
X118845540Y-72071234D01*
X118822252Y-71954156D01*
X118776570Y-71843871D01*
X118710251Y-71744618D01*
X118625842Y-71660209D01*
X118526589Y-71593890D01*
X118416304Y-71548208D01*
X118299226Y-71524920D01*
X118179854Y-71524920D01*
X118062776Y-71548208D01*
X117952491Y-71593890D01*
X117853238Y-71660209D01*
X117768829Y-71744618D01*
X117702510Y-71843871D01*
X117656828Y-71954156D01*
X117633540Y-72071234D01*
X117090989Y-72071234D01*
X117082352Y-72027816D01*
X117036670Y-71917531D01*
X116970351Y-71818278D01*
X116885942Y-71733869D01*
X116786689Y-71667550D01*
X116676404Y-71621868D01*
X116559326Y-71598580D01*
X116439954Y-71598580D01*
X116322876Y-71621868D01*
X116212591Y-71667550D01*
X116113338Y-71733869D01*
X116028929Y-71818278D01*
X115962610Y-71917531D01*
X115916928Y-72027816D01*
X115893640Y-72144894D01*
X115092412Y-72144894D01*
X114762320Y-71901681D01*
X113649301Y-71291729D01*
X112464914Y-70835571D01*
X111230295Y-70541347D01*
X109967476Y-70414306D01*
X108698991Y-70456716D01*
X107447477Y-70667820D01*
X106235267Y-71043851D01*
X105083993Y-71578099D01*
X104014199Y-72261029D01*
X103044977Y-73080456D01*
X102193621Y-74021756D01*
X101475325Y-75068132D01*
X100902905Y-76200911D01*
X100486578Y-77399879D01*
X100233773Y-78643641D01*
X100149000Y-79910000D01*
X95131000Y-79910000D01*
X95207953Y-78417142D01*
X95437994Y-76940109D01*
X95818687Y-75494557D01*
X96059499Y-74855774D01*
X97565561Y-74855774D01*
X97582234Y-74910764D01*
X97672557Y-75114106D01*
X97800815Y-75295920D01*
X97895054Y-75385504D01*
X97841805Y-75485125D01*
X97791428Y-75651194D01*
X97774418Y-75823900D01*
X97791428Y-75996606D01*
X97841805Y-76162675D01*
X97923612Y-76315725D01*
X98033705Y-76449875D01*
X98167855Y-76559968D01*
X98320905Y-76641775D01*
X98486974Y-76692152D01*
X98616407Y-76704900D01*
X98702953Y-76704900D01*
X98832386Y-76692152D01*
X98998455Y-76641775D01*
X99151505Y-76559968D01*
X99285655Y-76449875D01*
X99395748Y-76315725D01*
X99477555Y-76162675D01*
X99527932Y-75996606D01*
X99544942Y-75823900D01*
X99527932Y-75651194D01*
X99477555Y-75485125D01*
X99424306Y-75385504D01*
X99518545Y-75295920D01*
X99646803Y-75114106D01*
X99737126Y-74910764D01*
X99753799Y-74855774D01*
X99627634Y-74680900D01*
X98786680Y-74680900D01*
X98786680Y-74700900D01*
X98532680Y-74700900D01*
X98532680Y-74680900D01*
X97691726Y-74680900D01*
X97565561Y-74855774D01*
X96059499Y-74855774D01*
X96287103Y-74252026D01*
X97565561Y-74252026D01*
X97691726Y-74426900D01*
X98532680Y-74426900D01*
X98532680Y-74406900D01*
X98786680Y-74406900D01*
X98786680Y-74426900D01*
X99627634Y-74426900D01*
X99753799Y-74252026D01*
X99737126Y-74197036D01*
X99646803Y-73993694D01*
X99537167Y-73838278D01*
X99542523Y-73783900D01*
X99542523Y-72783900D01*
X99535167Y-72709211D01*
X99513381Y-72637392D01*
X99478002Y-72571204D01*
X99430391Y-72513189D01*
X99372376Y-72465578D01*
X99306188Y-72430199D01*
X99234369Y-72408413D01*
X99159680Y-72401057D01*
X98159680Y-72401057D01*
X98084991Y-72408413D01*
X98013172Y-72430199D01*
X97946984Y-72465578D01*
X97888969Y-72513189D01*
X97841358Y-72571204D01*
X97805979Y-72637392D01*
X97784193Y-72709211D01*
X97776837Y-72783900D01*
X97776837Y-73783900D01*
X97782193Y-73838278D01*
X97672557Y-73993694D01*
X97582234Y-74197036D01*
X97565561Y-74252026D01*
X96287103Y-74252026D01*
X96345995Y-74095810D01*
X97014329Y-72758695D01*
X97816604Y-71497385D01*
X98361556Y-70808854D01*
X101570580Y-70808854D01*
X101570580Y-70928226D01*
X101593868Y-71045304D01*
X101639550Y-71155589D01*
X101705869Y-71254842D01*
X101790278Y-71339251D01*
X101889531Y-71405570D01*
X101999816Y-71451252D01*
X102116894Y-71474540D01*
X102236266Y-71474540D01*
X102353344Y-71451252D01*
X102357238Y-71449639D01*
X102340200Y-71535294D01*
X102340200Y-71654666D01*
X102363488Y-71771744D01*
X102409170Y-71882029D01*
X102475489Y-71981282D01*
X102559898Y-72065691D01*
X102659151Y-72132010D01*
X102769436Y-72177692D01*
X102886514Y-72200980D01*
X103005886Y-72200980D01*
X103122964Y-72177692D01*
X103233249Y-72132010D01*
X103332502Y-72065691D01*
X103416911Y-71981282D01*
X103483230Y-71882029D01*
X103528912Y-71771744D01*
X103552200Y-71654666D01*
X103552200Y-71535294D01*
X103528912Y-71418216D01*
X103483230Y-71307931D01*
X103416911Y-71208678D01*
X103332502Y-71124269D01*
X103233249Y-71057950D01*
X103122964Y-71012268D01*
X103005886Y-70988980D01*
X102886514Y-70988980D01*
X102769436Y-71012268D01*
X102765542Y-71013881D01*
X102782580Y-70928226D01*
X102782580Y-70808854D01*
X102759292Y-70691776D01*
X102713610Y-70581491D01*
X102647291Y-70482238D01*
X102562882Y-70397829D01*
X102463629Y-70331510D01*
X102353344Y-70285828D01*
X102236266Y-70262540D01*
X102116894Y-70262540D01*
X101999816Y-70285828D01*
X101889531Y-70331510D01*
X101790278Y-70397829D01*
X101705869Y-70482238D01*
X101639550Y-70581491D01*
X101593868Y-70691776D01*
X101570580Y-70808854D01*
X98361556Y-70808854D01*
X98744315Y-70325251D01*
X99787630Y-69254718D01*
X100010305Y-69068954D01*
X105423760Y-69068954D01*
X105423760Y-69188326D01*
X105447048Y-69305404D01*
X105492730Y-69415689D01*
X105559049Y-69514942D01*
X105643458Y-69599351D01*
X105742711Y-69665670D01*
X105852996Y-69711352D01*
X105970074Y-69734640D01*
X106089446Y-69734640D01*
X106206524Y-69711352D01*
X106316809Y-69665670D01*
X106416062Y-69599351D01*
X106500471Y-69514942D01*
X106566790Y-69415689D01*
X106612472Y-69305404D01*
X106635760Y-69188326D01*
X106635760Y-69170504D01*
X111085370Y-69170504D01*
X111085370Y-69289876D01*
X111108658Y-69406954D01*
X111154340Y-69517239D01*
X111220659Y-69616492D01*
X111305068Y-69700901D01*
X111404321Y-69767220D01*
X111514606Y-69812902D01*
X111631684Y-69836190D01*
X111751056Y-69836190D01*
X111868134Y-69812902D01*
X111978419Y-69767220D01*
X112077672Y-69700901D01*
X112162081Y-69616492D01*
X112228400Y-69517239D01*
X112274082Y-69406954D01*
X112297370Y-69289876D01*
X112297370Y-69170504D01*
X112281213Y-69089274D01*
X113803220Y-69089274D01*
X113803220Y-69208646D01*
X113826508Y-69325724D01*
X113872190Y-69436009D01*
X113938509Y-69535262D01*
X114022918Y-69619671D01*
X114122171Y-69685990D01*
X114232456Y-69731672D01*
X114349534Y-69754960D01*
X114468906Y-69754960D01*
X114585984Y-69731672D01*
X114696269Y-69685990D01*
X114791027Y-69622674D01*
X115240860Y-69622674D01*
X115240860Y-69742046D01*
X115264148Y-69859124D01*
X115309830Y-69969409D01*
X115376149Y-70068662D01*
X115460558Y-70153071D01*
X115559811Y-70219390D01*
X115670096Y-70265072D01*
X115787174Y-70288360D01*
X115906546Y-70288360D01*
X116023624Y-70265072D01*
X116133909Y-70219390D01*
X116233162Y-70153071D01*
X116317571Y-70068662D01*
X116383890Y-69969409D01*
X116429572Y-69859124D01*
X116452860Y-69742046D01*
X116452860Y-69622674D01*
X116429572Y-69505596D01*
X116383890Y-69395311D01*
X116317571Y-69296058D01*
X116233162Y-69211649D01*
X116133909Y-69145330D01*
X116023624Y-69099648D01*
X115906546Y-69076360D01*
X115787174Y-69076360D01*
X115670096Y-69099648D01*
X115559811Y-69145330D01*
X115460558Y-69211649D01*
X115376149Y-69296058D01*
X115309830Y-69395311D01*
X115264148Y-69505596D01*
X115240860Y-69622674D01*
X114791027Y-69622674D01*
X114795522Y-69619671D01*
X114879931Y-69535262D01*
X114946250Y-69436009D01*
X114991932Y-69325724D01*
X115015220Y-69208646D01*
X115015220Y-69089274D01*
X114991932Y-68972196D01*
X114946250Y-68861911D01*
X114879931Y-68762658D01*
X114795522Y-68678249D01*
X114696269Y-68611930D01*
X114585984Y-68566248D01*
X114468906Y-68542960D01*
X114349534Y-68542960D01*
X114232456Y-68566248D01*
X114122171Y-68611930D01*
X114022918Y-68678249D01*
X113938509Y-68762658D01*
X113872190Y-68861911D01*
X113826508Y-68972196D01*
X113803220Y-69089274D01*
X112281213Y-69089274D01*
X112274082Y-69053426D01*
X112228400Y-68943141D01*
X112162081Y-68843888D01*
X112077672Y-68759479D01*
X111978419Y-68693160D01*
X111868134Y-68647478D01*
X111751056Y-68624190D01*
X111631684Y-68624190D01*
X111514606Y-68647478D01*
X111404321Y-68693160D01*
X111305068Y-68759479D01*
X111220659Y-68843888D01*
X111154340Y-68943141D01*
X111108658Y-69053426D01*
X111085370Y-69170504D01*
X106635760Y-69170504D01*
X106635760Y-69068954D01*
X106612472Y-68951876D01*
X106566790Y-68841591D01*
X106500471Y-68742338D01*
X106416062Y-68657929D01*
X106316809Y-68591610D01*
X106206524Y-68545928D01*
X106089446Y-68522640D01*
X105970074Y-68522640D01*
X105852996Y-68545928D01*
X105742711Y-68591610D01*
X105643458Y-68657929D01*
X105559049Y-68742338D01*
X105492730Y-68841591D01*
X105447048Y-68951876D01*
X105423760Y-69068954D01*
X100010305Y-69068954D01*
X100780616Y-68426334D01*
X108989920Y-68426334D01*
X108989920Y-68545706D01*
X109013208Y-68662784D01*
X109058890Y-68773069D01*
X109125209Y-68872322D01*
X109209618Y-68956731D01*
X109308871Y-69023050D01*
X109419156Y-69068732D01*
X109536234Y-69092020D01*
X109655606Y-69092020D01*
X109772684Y-69068732D01*
X109882969Y-69023050D01*
X109982222Y-68956731D01*
X110066631Y-68872322D01*
X110132950Y-68773069D01*
X110178632Y-68662784D01*
X110201920Y-68545706D01*
X110201920Y-68426334D01*
X110178632Y-68309256D01*
X110132950Y-68198971D01*
X110066631Y-68099718D01*
X109982222Y-68015309D01*
X109882969Y-67948990D01*
X109772684Y-67903308D01*
X109655606Y-67880020D01*
X109536234Y-67880020D01*
X109419156Y-67903308D01*
X109308871Y-67948990D01*
X109209618Y-68015309D01*
X109125209Y-68099718D01*
X109058890Y-68198971D01*
X109013208Y-68309256D01*
X108989920Y-68426334D01*
X100780616Y-68426334D01*
X100935489Y-68297134D01*
X102175723Y-67462649D01*
X102713235Y-67176454D01*
X104763160Y-67176454D01*
X104763160Y-67295826D01*
X104786448Y-67412904D01*
X104832130Y-67523189D01*
X104898449Y-67622442D01*
X104982858Y-67706851D01*
X105082111Y-67773170D01*
X105192396Y-67818852D01*
X105309474Y-67842140D01*
X105428846Y-67842140D01*
X105545924Y-67818852D01*
X105656209Y-67773170D01*
X105755462Y-67706851D01*
X105839871Y-67622442D01*
X105906190Y-67523189D01*
X105951872Y-67412904D01*
X105975160Y-67295826D01*
X105975160Y-67176454D01*
X105951872Y-67059376D01*
X105906190Y-66949091D01*
X105839871Y-66849838D01*
X105755462Y-66765429D01*
X105656209Y-66699110D01*
X105545924Y-66653428D01*
X105428846Y-66630140D01*
X105309474Y-66630140D01*
X105192396Y-66653428D01*
X105082111Y-66699110D01*
X104982858Y-66765429D01*
X104898449Y-66849838D01*
X104832130Y-66949091D01*
X104786448Y-67059376D01*
X104763160Y-67176454D01*
X102713235Y-67176454D01*
X103495187Y-66760109D01*
X104879893Y-66196961D01*
X106315164Y-65779175D01*
X107785784Y-65511178D01*
X109276166Y-65395814D01*
X110770511Y-65434303D01*
X110770511Y-65434303D01*
G37*
X110770511Y-65434303D02*
X112252977Y-65626238D01*
X113707852Y-65969584D01*
X115119712Y-66460702D01*
X116473592Y-67094387D01*
X117755141Y-67863919D01*
X118950772Y-68761144D01*
X120047814Y-69776549D01*
X121034635Y-70899371D01*
X121900777Y-72117708D01*
X122637058Y-73418645D01*
X123235672Y-74788392D01*
X123690276Y-76212430D01*
X123996048Y-77675663D01*
X124149749Y-79162580D01*
X124149749Y-80657420D01*
X123996048Y-82144337D01*
X123690276Y-83607570D01*
X123235672Y-85031608D01*
X122637058Y-86401355D01*
X121900777Y-87702292D01*
X121034635Y-88920629D01*
X120047814Y-90043451D01*
X118950772Y-91058856D01*
X117755141Y-91956081D01*
X116473592Y-92725613D01*
X115119712Y-93359298D01*
X113707852Y-93850416D01*
X112252977Y-94193762D01*
X110770511Y-94385697D01*
X109276166Y-94424186D01*
X107785784Y-94308822D01*
X106315164Y-94040825D01*
X104879893Y-93623039D01*
X103495187Y-93059891D01*
X102175723Y-92357351D01*
X100935489Y-91522866D01*
X99787630Y-90565282D01*
X98744315Y-89494749D01*
X97816604Y-88322615D01*
X97014329Y-87061305D01*
X96345995Y-85724190D01*
X95818687Y-84325443D01*
X95437994Y-82879891D01*
X95207953Y-81402858D01*
X95131000Y-79910000D01*
X100149000Y-79910000D01*
X100233773Y-81176359D01*
X100486578Y-82420121D01*
X100902905Y-83619089D01*
X101475325Y-84751868D01*
X102193621Y-85798244D01*
X103044977Y-86739544D01*
X104014199Y-87558971D01*
X105083993Y-88241901D01*
X106235267Y-88776149D01*
X107447477Y-89152180D01*
X108698991Y-89363284D01*
X109967476Y-89405694D01*
X111230295Y-89278653D01*
X112464914Y-88984429D01*
X113649301Y-88528271D01*
X114762320Y-87918319D01*
X115784110Y-87165460D01*
X116696437Y-86283126D01*
X117483019Y-85287063D01*
X118129821Y-84195047D01*
X118625301Y-83026564D01*
X118960616Y-81802466D01*
X119129783Y-80544597D01*
X119129783Y-79275403D01*
X118960616Y-78017534D01*
X118625301Y-76793436D01*
X118213979Y-75823420D01*
X119706318Y-75823420D01*
X119723328Y-75996126D01*
X119773705Y-76162195D01*
X119855512Y-76315245D01*
X119965605Y-76449395D01*
X120099755Y-76559488D01*
X120252805Y-76641295D01*
X120418874Y-76691672D01*
X120548307Y-76704420D01*
X120634853Y-76704420D01*
X120764286Y-76691672D01*
X120930355Y-76641295D01*
X121083405Y-76559488D01*
X121217555Y-76449395D01*
X121327648Y-76315245D01*
X121409455Y-76162195D01*
X121459832Y-75996126D01*
X121476842Y-75823420D01*
X121459832Y-75650714D01*
X121409455Y-75484645D01*
X121335438Y-75346169D01*
X121362291Y-75324131D01*
X121409902Y-75266116D01*
X121445281Y-75199928D01*
X121467067Y-75128109D01*
X121474423Y-75053420D01*
X121474423Y-74053420D01*
X121467067Y-73978731D01*
X121445281Y-73906912D01*
X121409902Y-73840724D01*
X121362291Y-73782709D01*
X121304276Y-73735098D01*
X121238088Y-73699719D01*
X121166269Y-73677933D01*
X121091580Y-73670577D01*
X120091580Y-73670577D01*
X120016891Y-73677933D01*
X119945072Y-73699719D01*
X119878884Y-73735098D01*
X119820869Y-73782709D01*
X119773258Y-73840724D01*
X119737879Y-73906912D01*
X119716093Y-73978731D01*
X119708737Y-74053420D01*
X119708737Y-75053420D01*
X119716093Y-75128109D01*
X119737879Y-75199928D01*
X119773258Y-75266116D01*
X119820869Y-75324131D01*
X119847722Y-75346169D01*
X119773705Y-75484645D01*
X119723328Y-75650714D01*
X119706318Y-75823420D01*
X118213979Y-75823420D01*
X118129821Y-75624953D01*
X117483019Y-74532937D01*
X116696437Y-73536874D01*
X116509905Y-73356474D01*
X116830900Y-73356474D01*
X116830900Y-73475846D01*
X116854188Y-73592924D01*
X116899870Y-73703209D01*
X116966189Y-73802462D01*
X117050598Y-73886871D01*
X117149851Y-73953190D01*
X117260136Y-73998872D01*
X117377214Y-74022160D01*
X117496586Y-74022160D01*
X117613664Y-73998872D01*
X117723949Y-73953190D01*
X117823202Y-73886871D01*
X117907611Y-73802462D01*
X117973930Y-73703209D01*
X118019612Y-73592924D01*
X118042900Y-73475846D01*
X118042900Y-73356474D01*
X118019612Y-73239396D01*
X117973930Y-73129111D01*
X117907611Y-73029858D01*
X117823202Y-72945449D01*
X117723949Y-72879130D01*
X117613664Y-72833448D01*
X117496586Y-72810160D01*
X117377214Y-72810160D01*
X117260136Y-72833448D01*
X117149851Y-72879130D01*
X117050598Y-72945449D01*
X116966189Y-73029858D01*
X116899870Y-73129111D01*
X116854188Y-73239396D01*
X116830900Y-73356474D01*
X116509905Y-73356474D01*
X115784110Y-72654540D01*
X115092412Y-72144894D01*
X115893640Y-72144894D01*
X115893640Y-72264266D01*
X115916928Y-72381344D01*
X115962610Y-72491629D01*
X116028929Y-72590882D01*
X116113338Y-72675291D01*
X116212591Y-72741610D01*
X116322876Y-72787292D01*
X116439954Y-72810580D01*
X116559326Y-72810580D01*
X116676404Y-72787292D01*
X116786689Y-72741610D01*
X116885942Y-72675291D01*
X116970351Y-72590882D01*
X117036670Y-72491629D01*
X117082352Y-72381344D01*
X117105640Y-72264266D01*
X117105640Y-72144894D01*
X117090989Y-72071234D01*
X117633540Y-72071234D01*
X117633540Y-72190606D01*
X117656828Y-72307684D01*
X117702510Y-72417969D01*
X117768829Y-72517222D01*
X117853238Y-72601631D01*
X117952491Y-72667950D01*
X118062776Y-72713632D01*
X118179854Y-72736920D01*
X118299226Y-72736920D01*
X118416304Y-72713632D01*
X118526589Y-72667950D01*
X118625842Y-72601631D01*
X118710251Y-72517222D01*
X118776570Y-72417969D01*
X118822252Y-72307684D01*
X118845540Y-72190606D01*
X118845540Y-72071234D01*
X118822252Y-71954156D01*
X118776570Y-71843871D01*
X118710251Y-71744618D01*
X118625842Y-71660209D01*
X118526589Y-71593890D01*
X118416304Y-71548208D01*
X118299226Y-71524920D01*
X118179854Y-71524920D01*
X118062776Y-71548208D01*
X117952491Y-71593890D01*
X117853238Y-71660209D01*
X117768829Y-71744618D01*
X117702510Y-71843871D01*
X117656828Y-71954156D01*
X117633540Y-72071234D01*
X117090989Y-72071234D01*
X117082352Y-72027816D01*
X117036670Y-71917531D01*
X116970351Y-71818278D01*
X116885942Y-71733869D01*
X116786689Y-71667550D01*
X116676404Y-71621868D01*
X116559326Y-71598580D01*
X116439954Y-71598580D01*
X116322876Y-71621868D01*
X116212591Y-71667550D01*
X116113338Y-71733869D01*
X116028929Y-71818278D01*
X115962610Y-71917531D01*
X115916928Y-72027816D01*
X115893640Y-72144894D01*
X115092412Y-72144894D01*
X114762320Y-71901681D01*
X113649301Y-71291729D01*
X112464914Y-70835571D01*
X111230295Y-70541347D01*
X109967476Y-70414306D01*
X108698991Y-70456716D01*
X107447477Y-70667820D01*
X106235267Y-71043851D01*
X105083993Y-71578099D01*
X104014199Y-72261029D01*
X103044977Y-73080456D01*
X102193621Y-74021756D01*
X101475325Y-75068132D01*
X100902905Y-76200911D01*
X100486578Y-77399879D01*
X100233773Y-78643641D01*
X100149000Y-79910000D01*
X95131000Y-79910000D01*
X95207953Y-78417142D01*
X95437994Y-76940109D01*
X95818687Y-75494557D01*
X96059499Y-74855774D01*
X97565561Y-74855774D01*
X97582234Y-74910764D01*
X97672557Y-75114106D01*
X97800815Y-75295920D01*
X97895054Y-75385504D01*
X97841805Y-75485125D01*
X97791428Y-75651194D01*
X97774418Y-75823900D01*
X97791428Y-75996606D01*
X97841805Y-76162675D01*
X97923612Y-76315725D01*
X98033705Y-76449875D01*
X98167855Y-76559968D01*
X98320905Y-76641775D01*
X98486974Y-76692152D01*
X98616407Y-76704900D01*
X98702953Y-76704900D01*
X98832386Y-76692152D01*
X98998455Y-76641775D01*
X99151505Y-76559968D01*
X99285655Y-76449875D01*
X99395748Y-76315725D01*
X99477555Y-76162675D01*
X99527932Y-75996606D01*
X99544942Y-75823900D01*
X99527932Y-75651194D01*
X99477555Y-75485125D01*
X99424306Y-75385504D01*
X99518545Y-75295920D01*
X99646803Y-75114106D01*
X99737126Y-74910764D01*
X99753799Y-74855774D01*
X99627634Y-74680900D01*
X98786680Y-74680900D01*
X98786680Y-74700900D01*
X98532680Y-74700900D01*
X98532680Y-74680900D01*
X97691726Y-74680900D01*
X97565561Y-74855774D01*
X96059499Y-74855774D01*
X96287103Y-74252026D01*
X97565561Y-74252026D01*
X97691726Y-74426900D01*
X98532680Y-74426900D01*
X98532680Y-74406900D01*
X98786680Y-74406900D01*
X98786680Y-74426900D01*
X99627634Y-74426900D01*
X99753799Y-74252026D01*
X99737126Y-74197036D01*
X99646803Y-73993694D01*
X99537167Y-73838278D01*
X99542523Y-73783900D01*
X99542523Y-72783900D01*
X99535167Y-72709211D01*
X99513381Y-72637392D01*
X99478002Y-72571204D01*
X99430391Y-72513189D01*
X99372376Y-72465578D01*
X99306188Y-72430199D01*
X99234369Y-72408413D01*
X99159680Y-72401057D01*
X98159680Y-72401057D01*
X98084991Y-72408413D01*
X98013172Y-72430199D01*
X97946984Y-72465578D01*
X97888969Y-72513189D01*
X97841358Y-72571204D01*
X97805979Y-72637392D01*
X97784193Y-72709211D01*
X97776837Y-72783900D01*
X97776837Y-73783900D01*
X97782193Y-73838278D01*
X97672557Y-73993694D01*
X97582234Y-74197036D01*
X97565561Y-74252026D01*
X96287103Y-74252026D01*
X96345995Y-74095810D01*
X97014329Y-72758695D01*
X97816604Y-71497385D01*
X98361556Y-70808854D01*
X101570580Y-70808854D01*
X101570580Y-70928226D01*
X101593868Y-71045304D01*
X101639550Y-71155589D01*
X101705869Y-71254842D01*
X101790278Y-71339251D01*
X101889531Y-71405570D01*
X101999816Y-71451252D01*
X102116894Y-71474540D01*
X102236266Y-71474540D01*
X102353344Y-71451252D01*
X102357238Y-71449639D01*
X102340200Y-71535294D01*
X102340200Y-71654666D01*
X102363488Y-71771744D01*
X102409170Y-71882029D01*
X102475489Y-71981282D01*
X102559898Y-72065691D01*
X102659151Y-72132010D01*
X102769436Y-72177692D01*
X102886514Y-72200980D01*
X103005886Y-72200980D01*
X103122964Y-72177692D01*
X103233249Y-72132010D01*
X103332502Y-72065691D01*
X103416911Y-71981282D01*
X103483230Y-71882029D01*
X103528912Y-71771744D01*
X103552200Y-71654666D01*
X103552200Y-71535294D01*
X103528912Y-71418216D01*
X103483230Y-71307931D01*
X103416911Y-71208678D01*
X103332502Y-71124269D01*
X103233249Y-71057950D01*
X103122964Y-71012268D01*
X103005886Y-70988980D01*
X102886514Y-70988980D01*
X102769436Y-71012268D01*
X102765542Y-71013881D01*
X102782580Y-70928226D01*
X102782580Y-70808854D01*
X102759292Y-70691776D01*
X102713610Y-70581491D01*
X102647291Y-70482238D01*
X102562882Y-70397829D01*
X102463629Y-70331510D01*
X102353344Y-70285828D01*
X102236266Y-70262540D01*
X102116894Y-70262540D01*
X101999816Y-70285828D01*
X101889531Y-70331510D01*
X101790278Y-70397829D01*
X101705869Y-70482238D01*
X101639550Y-70581491D01*
X101593868Y-70691776D01*
X101570580Y-70808854D01*
X98361556Y-70808854D01*
X98744315Y-70325251D01*
X99787630Y-69254718D01*
X100010305Y-69068954D01*
X105423760Y-69068954D01*
X105423760Y-69188326D01*
X105447048Y-69305404D01*
X105492730Y-69415689D01*
X105559049Y-69514942D01*
X105643458Y-69599351D01*
X105742711Y-69665670D01*
X105852996Y-69711352D01*
X105970074Y-69734640D01*
X106089446Y-69734640D01*
X106206524Y-69711352D01*
X106316809Y-69665670D01*
X106416062Y-69599351D01*
X106500471Y-69514942D01*
X106566790Y-69415689D01*
X106612472Y-69305404D01*
X106635760Y-69188326D01*
X106635760Y-69170504D01*
X111085370Y-69170504D01*
X111085370Y-69289876D01*
X111108658Y-69406954D01*
X111154340Y-69517239D01*
X111220659Y-69616492D01*
X111305068Y-69700901D01*
X111404321Y-69767220D01*
X111514606Y-69812902D01*
X111631684Y-69836190D01*
X111751056Y-69836190D01*
X111868134Y-69812902D01*
X111978419Y-69767220D01*
X112077672Y-69700901D01*
X112162081Y-69616492D01*
X112228400Y-69517239D01*
X112274082Y-69406954D01*
X112297370Y-69289876D01*
X112297370Y-69170504D01*
X112281213Y-69089274D01*
X113803220Y-69089274D01*
X113803220Y-69208646D01*
X113826508Y-69325724D01*
X113872190Y-69436009D01*
X113938509Y-69535262D01*
X114022918Y-69619671D01*
X114122171Y-69685990D01*
X114232456Y-69731672D01*
X114349534Y-69754960D01*
X114468906Y-69754960D01*
X114585984Y-69731672D01*
X114696269Y-69685990D01*
X114791027Y-69622674D01*
X115240860Y-69622674D01*
X115240860Y-69742046D01*
X115264148Y-69859124D01*
X115309830Y-69969409D01*
X115376149Y-70068662D01*
X115460558Y-70153071D01*
X115559811Y-70219390D01*
X115670096Y-70265072D01*
X115787174Y-70288360D01*
X115906546Y-70288360D01*
X116023624Y-70265072D01*
X116133909Y-70219390D01*
X116233162Y-70153071D01*
X116317571Y-70068662D01*
X116383890Y-69969409D01*
X116429572Y-69859124D01*
X116452860Y-69742046D01*
X116452860Y-69622674D01*
X116429572Y-69505596D01*
X116383890Y-69395311D01*
X116317571Y-69296058D01*
X116233162Y-69211649D01*
X116133909Y-69145330D01*
X116023624Y-69099648D01*
X115906546Y-69076360D01*
X115787174Y-69076360D01*
X115670096Y-69099648D01*
X115559811Y-69145330D01*
X115460558Y-69211649D01*
X115376149Y-69296058D01*
X115309830Y-69395311D01*
X115264148Y-69505596D01*
X115240860Y-69622674D01*
X114791027Y-69622674D01*
X114795522Y-69619671D01*
X114879931Y-69535262D01*
X114946250Y-69436009D01*
X114991932Y-69325724D01*
X115015220Y-69208646D01*
X115015220Y-69089274D01*
X114991932Y-68972196D01*
X114946250Y-68861911D01*
X114879931Y-68762658D01*
X114795522Y-68678249D01*
X114696269Y-68611930D01*
X114585984Y-68566248D01*
X114468906Y-68542960D01*
X114349534Y-68542960D01*
X114232456Y-68566248D01*
X114122171Y-68611930D01*
X114022918Y-68678249D01*
X113938509Y-68762658D01*
X113872190Y-68861911D01*
X113826508Y-68972196D01*
X113803220Y-69089274D01*
X112281213Y-69089274D01*
X112274082Y-69053426D01*
X112228400Y-68943141D01*
X112162081Y-68843888D01*
X112077672Y-68759479D01*
X111978419Y-68693160D01*
X111868134Y-68647478D01*
X111751056Y-68624190D01*
X111631684Y-68624190D01*
X111514606Y-68647478D01*
X111404321Y-68693160D01*
X111305068Y-68759479D01*
X111220659Y-68843888D01*
X111154340Y-68943141D01*
X111108658Y-69053426D01*
X111085370Y-69170504D01*
X106635760Y-69170504D01*
X106635760Y-69068954D01*
X106612472Y-68951876D01*
X106566790Y-68841591D01*
X106500471Y-68742338D01*
X106416062Y-68657929D01*
X106316809Y-68591610D01*
X106206524Y-68545928D01*
X106089446Y-68522640D01*
X105970074Y-68522640D01*
X105852996Y-68545928D01*
X105742711Y-68591610D01*
X105643458Y-68657929D01*
X105559049Y-68742338D01*
X105492730Y-68841591D01*
X105447048Y-68951876D01*
X105423760Y-69068954D01*
X100010305Y-69068954D01*
X100780616Y-68426334D01*
X108989920Y-68426334D01*
X108989920Y-68545706D01*
X109013208Y-68662784D01*
X109058890Y-68773069D01*
X109125209Y-68872322D01*
X109209618Y-68956731D01*
X109308871Y-69023050D01*
X109419156Y-69068732D01*
X109536234Y-69092020D01*
X109655606Y-69092020D01*
X109772684Y-69068732D01*
X109882969Y-69023050D01*
X109982222Y-68956731D01*
X110066631Y-68872322D01*
X110132950Y-68773069D01*
X110178632Y-68662784D01*
X110201920Y-68545706D01*
X110201920Y-68426334D01*
X110178632Y-68309256D01*
X110132950Y-68198971D01*
X110066631Y-68099718D01*
X109982222Y-68015309D01*
X109882969Y-67948990D01*
X109772684Y-67903308D01*
X109655606Y-67880020D01*
X109536234Y-67880020D01*
X109419156Y-67903308D01*
X109308871Y-67948990D01*
X109209618Y-68015309D01*
X109125209Y-68099718D01*
X109058890Y-68198971D01*
X109013208Y-68309256D01*
X108989920Y-68426334D01*
X100780616Y-68426334D01*
X100935489Y-68297134D01*
X102175723Y-67462649D01*
X102713235Y-67176454D01*
X104763160Y-67176454D01*
X104763160Y-67295826D01*
X104786448Y-67412904D01*
X104832130Y-67523189D01*
X104898449Y-67622442D01*
X104982858Y-67706851D01*
X105082111Y-67773170D01*
X105192396Y-67818852D01*
X105309474Y-67842140D01*
X105428846Y-67842140D01*
X105545924Y-67818852D01*
X105656209Y-67773170D01*
X105755462Y-67706851D01*
X105839871Y-67622442D01*
X105906190Y-67523189D01*
X105951872Y-67412904D01*
X105975160Y-67295826D01*
X105975160Y-67176454D01*
X105951872Y-67059376D01*
X105906190Y-66949091D01*
X105839871Y-66849838D01*
X105755462Y-66765429D01*
X105656209Y-66699110D01*
X105545924Y-66653428D01*
X105428846Y-66630140D01*
X105309474Y-66630140D01*
X105192396Y-66653428D01*
X105082111Y-66699110D01*
X104982858Y-66765429D01*
X104898449Y-66849838D01*
X104832130Y-66949091D01*
X104786448Y-67059376D01*
X104763160Y-67176454D01*
X102713235Y-67176454D01*
X103495187Y-66760109D01*
X104879893Y-66196961D01*
X106315164Y-65779175D01*
X107785784Y-65511178D01*
X109276166Y-65395814D01*
X110770511Y-65434303D01*
M02*
