G04 #@! TF.GenerationSoftware,KiCad,Pcbnew,(5.1.4)-1*
G04 #@! TF.CreationDate,2020-07-29T22:37:45-07:00*
G04 #@! TF.ProjectId,Kicad LED Rings_Circular_final_V2,4b696361-6420-44c4-9544-2052696e6773,rev?*
G04 #@! TF.SameCoordinates,Original*
G04 #@! TF.FileFunction,Paste,Top*
G04 #@! TF.FilePolarity,Positive*
%FSLAX46Y46*%
G04 Gerber Fmt 4.6, Leading zero omitted, Abs format (unit mm)*
G04 Created by KiCad (PCBNEW (5.1.4)-1) date 2020-07-29 22:37:45*
%MOMM*%
%LPD*%
G04 APERTURE LIST*
%ADD10C,0.152400*%
%ADD11R,0.900000X1.300000*%
%ADD12C,0.100000*%
%ADD13C,0.590000*%
%ADD14R,1.600200X2.006600*%
%ADD15R,0.812800X0.304800*%
%ADD16R,0.500000X0.500000*%
%ADD17C,0.875000*%
G04 APERTURE END LIST*
D10*
X110426500Y-66149220D02*
X108826300Y-66149220D01*
X110426500Y-68155820D02*
X110426500Y-66149220D01*
X108826300Y-68155820D02*
X110426500Y-68155820D01*
X108826300Y-66149220D02*
X108826300Y-68155820D01*
D11*
X101033500Y-69936360D03*
X104833500Y-69936360D03*
D12*
G36*
X115335858Y-68969370D02*
G01*
X115350176Y-68971494D01*
X115364217Y-68975011D01*
X115377846Y-68979888D01*
X115390931Y-68986077D01*
X115403347Y-68993518D01*
X115414973Y-69002141D01*
X115425698Y-69011862D01*
X115435419Y-69022587D01*
X115444042Y-69034213D01*
X115451483Y-69046629D01*
X115457672Y-69059714D01*
X115462549Y-69073343D01*
X115466066Y-69087384D01*
X115468190Y-69101702D01*
X115468900Y-69116160D01*
X115468900Y-69461160D01*
X115468190Y-69475618D01*
X115466066Y-69489936D01*
X115462549Y-69503977D01*
X115457672Y-69517606D01*
X115451483Y-69530691D01*
X115444042Y-69543107D01*
X115435419Y-69554733D01*
X115425698Y-69565458D01*
X115414973Y-69575179D01*
X115403347Y-69583802D01*
X115390931Y-69591243D01*
X115377846Y-69597432D01*
X115364217Y-69602309D01*
X115350176Y-69605826D01*
X115335858Y-69607950D01*
X115321400Y-69608660D01*
X115026400Y-69608660D01*
X115011942Y-69607950D01*
X114997624Y-69605826D01*
X114983583Y-69602309D01*
X114969954Y-69597432D01*
X114956869Y-69591243D01*
X114944453Y-69583802D01*
X114932827Y-69575179D01*
X114922102Y-69565458D01*
X114912381Y-69554733D01*
X114903758Y-69543107D01*
X114896317Y-69530691D01*
X114890128Y-69517606D01*
X114885251Y-69503977D01*
X114881734Y-69489936D01*
X114879610Y-69475618D01*
X114878900Y-69461160D01*
X114878900Y-69116160D01*
X114879610Y-69101702D01*
X114881734Y-69087384D01*
X114885251Y-69073343D01*
X114890128Y-69059714D01*
X114896317Y-69046629D01*
X114903758Y-69034213D01*
X114912381Y-69022587D01*
X114922102Y-69011862D01*
X114932827Y-69002141D01*
X114944453Y-68993518D01*
X114956869Y-68986077D01*
X114969954Y-68979888D01*
X114983583Y-68975011D01*
X114997624Y-68971494D01*
X115011942Y-68969370D01*
X115026400Y-68968660D01*
X115321400Y-68968660D01*
X115335858Y-68969370D01*
X115335858Y-68969370D01*
G37*
D13*
X115173900Y-69288660D03*
D12*
G36*
X116305858Y-68969370D02*
G01*
X116320176Y-68971494D01*
X116334217Y-68975011D01*
X116347846Y-68979888D01*
X116360931Y-68986077D01*
X116373347Y-68993518D01*
X116384973Y-69002141D01*
X116395698Y-69011862D01*
X116405419Y-69022587D01*
X116414042Y-69034213D01*
X116421483Y-69046629D01*
X116427672Y-69059714D01*
X116432549Y-69073343D01*
X116436066Y-69087384D01*
X116438190Y-69101702D01*
X116438900Y-69116160D01*
X116438900Y-69461160D01*
X116438190Y-69475618D01*
X116436066Y-69489936D01*
X116432549Y-69503977D01*
X116427672Y-69517606D01*
X116421483Y-69530691D01*
X116414042Y-69543107D01*
X116405419Y-69554733D01*
X116395698Y-69565458D01*
X116384973Y-69575179D01*
X116373347Y-69583802D01*
X116360931Y-69591243D01*
X116347846Y-69597432D01*
X116334217Y-69602309D01*
X116320176Y-69605826D01*
X116305858Y-69607950D01*
X116291400Y-69608660D01*
X115996400Y-69608660D01*
X115981942Y-69607950D01*
X115967624Y-69605826D01*
X115953583Y-69602309D01*
X115939954Y-69597432D01*
X115926869Y-69591243D01*
X115914453Y-69583802D01*
X115902827Y-69575179D01*
X115892102Y-69565458D01*
X115882381Y-69554733D01*
X115873758Y-69543107D01*
X115866317Y-69530691D01*
X115860128Y-69517606D01*
X115855251Y-69503977D01*
X115851734Y-69489936D01*
X115849610Y-69475618D01*
X115848900Y-69461160D01*
X115848900Y-69116160D01*
X115849610Y-69101702D01*
X115851734Y-69087384D01*
X115855251Y-69073343D01*
X115860128Y-69059714D01*
X115866317Y-69046629D01*
X115873758Y-69034213D01*
X115882381Y-69022587D01*
X115892102Y-69011862D01*
X115902827Y-69002141D01*
X115914453Y-68993518D01*
X115926869Y-68986077D01*
X115939954Y-68979888D01*
X115953583Y-68975011D01*
X115967624Y-68971494D01*
X115981942Y-68969370D01*
X115996400Y-68968660D01*
X116291400Y-68968660D01*
X116305858Y-68969370D01*
X116305858Y-68969370D01*
G37*
D13*
X116143900Y-69288660D03*
D12*
G36*
X107214938Y-68785950D02*
G01*
X107229256Y-68788074D01*
X107243297Y-68791591D01*
X107256926Y-68796468D01*
X107270011Y-68802657D01*
X107282427Y-68810098D01*
X107294053Y-68818721D01*
X107304778Y-68828442D01*
X107314499Y-68839167D01*
X107323122Y-68850793D01*
X107330563Y-68863209D01*
X107336752Y-68876294D01*
X107341629Y-68889923D01*
X107345146Y-68903964D01*
X107347270Y-68918282D01*
X107347980Y-68932740D01*
X107347980Y-69227740D01*
X107347270Y-69242198D01*
X107345146Y-69256516D01*
X107341629Y-69270557D01*
X107336752Y-69284186D01*
X107330563Y-69297271D01*
X107323122Y-69309687D01*
X107314499Y-69321313D01*
X107304778Y-69332038D01*
X107294053Y-69341759D01*
X107282427Y-69350382D01*
X107270011Y-69357823D01*
X107256926Y-69364012D01*
X107243297Y-69368889D01*
X107229256Y-69372406D01*
X107214938Y-69374530D01*
X107200480Y-69375240D01*
X106855480Y-69375240D01*
X106841022Y-69374530D01*
X106826704Y-69372406D01*
X106812663Y-69368889D01*
X106799034Y-69364012D01*
X106785949Y-69357823D01*
X106773533Y-69350382D01*
X106761907Y-69341759D01*
X106751182Y-69332038D01*
X106741461Y-69321313D01*
X106732838Y-69309687D01*
X106725397Y-69297271D01*
X106719208Y-69284186D01*
X106714331Y-69270557D01*
X106710814Y-69256516D01*
X106708690Y-69242198D01*
X106707980Y-69227740D01*
X106707980Y-68932740D01*
X106708690Y-68918282D01*
X106710814Y-68903964D01*
X106714331Y-68889923D01*
X106719208Y-68876294D01*
X106725397Y-68863209D01*
X106732838Y-68850793D01*
X106741461Y-68839167D01*
X106751182Y-68828442D01*
X106761907Y-68818721D01*
X106773533Y-68810098D01*
X106785949Y-68802657D01*
X106799034Y-68796468D01*
X106812663Y-68791591D01*
X106826704Y-68788074D01*
X106841022Y-68785950D01*
X106855480Y-68785240D01*
X107200480Y-68785240D01*
X107214938Y-68785950D01*
X107214938Y-68785950D01*
G37*
D13*
X107027980Y-69080240D03*
D12*
G36*
X107214938Y-67815950D02*
G01*
X107229256Y-67818074D01*
X107243297Y-67821591D01*
X107256926Y-67826468D01*
X107270011Y-67832657D01*
X107282427Y-67840098D01*
X107294053Y-67848721D01*
X107304778Y-67858442D01*
X107314499Y-67869167D01*
X107323122Y-67880793D01*
X107330563Y-67893209D01*
X107336752Y-67906294D01*
X107341629Y-67919923D01*
X107345146Y-67933964D01*
X107347270Y-67948282D01*
X107347980Y-67962740D01*
X107347980Y-68257740D01*
X107347270Y-68272198D01*
X107345146Y-68286516D01*
X107341629Y-68300557D01*
X107336752Y-68314186D01*
X107330563Y-68327271D01*
X107323122Y-68339687D01*
X107314499Y-68351313D01*
X107304778Y-68362038D01*
X107294053Y-68371759D01*
X107282427Y-68380382D01*
X107270011Y-68387823D01*
X107256926Y-68394012D01*
X107243297Y-68398889D01*
X107229256Y-68402406D01*
X107214938Y-68404530D01*
X107200480Y-68405240D01*
X106855480Y-68405240D01*
X106841022Y-68404530D01*
X106826704Y-68402406D01*
X106812663Y-68398889D01*
X106799034Y-68394012D01*
X106785949Y-68387823D01*
X106773533Y-68380382D01*
X106761907Y-68371759D01*
X106751182Y-68362038D01*
X106741461Y-68351313D01*
X106732838Y-68339687D01*
X106725397Y-68327271D01*
X106719208Y-68314186D01*
X106714331Y-68300557D01*
X106710814Y-68286516D01*
X106708690Y-68272198D01*
X106707980Y-68257740D01*
X106707980Y-67962740D01*
X106708690Y-67948282D01*
X106710814Y-67933964D01*
X106714331Y-67919923D01*
X106719208Y-67906294D01*
X106725397Y-67893209D01*
X106732838Y-67880793D01*
X106741461Y-67869167D01*
X106751182Y-67858442D01*
X106761907Y-67848721D01*
X106773533Y-67840098D01*
X106785949Y-67832657D01*
X106799034Y-67826468D01*
X106812663Y-67821591D01*
X106826704Y-67818074D01*
X106841022Y-67815950D01*
X106855480Y-67815240D01*
X107200480Y-67815240D01*
X107214938Y-67815950D01*
X107214938Y-67815950D01*
G37*
D13*
X107027980Y-68110240D03*
D12*
G36*
X106255358Y-66881490D02*
G01*
X106269676Y-66883614D01*
X106283717Y-66887131D01*
X106297346Y-66892008D01*
X106310431Y-66898197D01*
X106322847Y-66905638D01*
X106334473Y-66914261D01*
X106345198Y-66923982D01*
X106354919Y-66934707D01*
X106363542Y-66946333D01*
X106370983Y-66958749D01*
X106377172Y-66971834D01*
X106382049Y-66985463D01*
X106385566Y-66999504D01*
X106387690Y-67013822D01*
X106388400Y-67028280D01*
X106388400Y-67373280D01*
X106387690Y-67387738D01*
X106385566Y-67402056D01*
X106382049Y-67416097D01*
X106377172Y-67429726D01*
X106370983Y-67442811D01*
X106363542Y-67455227D01*
X106354919Y-67466853D01*
X106345198Y-67477578D01*
X106334473Y-67487299D01*
X106322847Y-67495922D01*
X106310431Y-67503363D01*
X106297346Y-67509552D01*
X106283717Y-67514429D01*
X106269676Y-67517946D01*
X106255358Y-67520070D01*
X106240900Y-67520780D01*
X105945900Y-67520780D01*
X105931442Y-67520070D01*
X105917124Y-67517946D01*
X105903083Y-67514429D01*
X105889454Y-67509552D01*
X105876369Y-67503363D01*
X105863953Y-67495922D01*
X105852327Y-67487299D01*
X105841602Y-67477578D01*
X105831881Y-67466853D01*
X105823258Y-67455227D01*
X105815817Y-67442811D01*
X105809628Y-67429726D01*
X105804751Y-67416097D01*
X105801234Y-67402056D01*
X105799110Y-67387738D01*
X105798400Y-67373280D01*
X105798400Y-67028280D01*
X105799110Y-67013822D01*
X105801234Y-66999504D01*
X105804751Y-66985463D01*
X105809628Y-66971834D01*
X105815817Y-66958749D01*
X105823258Y-66946333D01*
X105831881Y-66934707D01*
X105841602Y-66923982D01*
X105852327Y-66914261D01*
X105863953Y-66905638D01*
X105876369Y-66898197D01*
X105889454Y-66892008D01*
X105903083Y-66887131D01*
X105917124Y-66883614D01*
X105931442Y-66881490D01*
X105945900Y-66880780D01*
X106240900Y-66880780D01*
X106255358Y-66881490D01*
X106255358Y-66881490D01*
G37*
D13*
X106093400Y-67200780D03*
D12*
G36*
X107225358Y-66881490D02*
G01*
X107239676Y-66883614D01*
X107253717Y-66887131D01*
X107267346Y-66892008D01*
X107280431Y-66898197D01*
X107292847Y-66905638D01*
X107304473Y-66914261D01*
X107315198Y-66923982D01*
X107324919Y-66934707D01*
X107333542Y-66946333D01*
X107340983Y-66958749D01*
X107347172Y-66971834D01*
X107352049Y-66985463D01*
X107355566Y-66999504D01*
X107357690Y-67013822D01*
X107358400Y-67028280D01*
X107358400Y-67373280D01*
X107357690Y-67387738D01*
X107355566Y-67402056D01*
X107352049Y-67416097D01*
X107347172Y-67429726D01*
X107340983Y-67442811D01*
X107333542Y-67455227D01*
X107324919Y-67466853D01*
X107315198Y-67477578D01*
X107304473Y-67487299D01*
X107292847Y-67495922D01*
X107280431Y-67503363D01*
X107267346Y-67509552D01*
X107253717Y-67514429D01*
X107239676Y-67517946D01*
X107225358Y-67520070D01*
X107210900Y-67520780D01*
X106915900Y-67520780D01*
X106901442Y-67520070D01*
X106887124Y-67517946D01*
X106873083Y-67514429D01*
X106859454Y-67509552D01*
X106846369Y-67503363D01*
X106833953Y-67495922D01*
X106822327Y-67487299D01*
X106811602Y-67477578D01*
X106801881Y-67466853D01*
X106793258Y-67455227D01*
X106785817Y-67442811D01*
X106779628Y-67429726D01*
X106774751Y-67416097D01*
X106771234Y-67402056D01*
X106769110Y-67387738D01*
X106768400Y-67373280D01*
X106768400Y-67028280D01*
X106769110Y-67013822D01*
X106771234Y-66999504D01*
X106774751Y-66985463D01*
X106779628Y-66971834D01*
X106785817Y-66958749D01*
X106793258Y-66946333D01*
X106801881Y-66934707D01*
X106811602Y-66923982D01*
X106822327Y-66914261D01*
X106833953Y-66905638D01*
X106846369Y-66898197D01*
X106859454Y-66892008D01*
X106873083Y-66887131D01*
X106887124Y-66883614D01*
X106901442Y-66881490D01*
X106915900Y-66880780D01*
X107210900Y-66880780D01*
X107225358Y-66881490D01*
X107225358Y-66881490D01*
G37*
D13*
X107063400Y-67200780D03*
D14*
X109626400Y-67152520D03*
D15*
X111074200Y-66152519D03*
X111074200Y-66652521D03*
X111074200Y-67152520D03*
X111074200Y-67652519D03*
X111074200Y-68152521D03*
X108178600Y-68152521D03*
X108178600Y-67652519D03*
X108178600Y-67152520D03*
X108178600Y-66652521D03*
X108178600Y-66152519D03*
D16*
X108033640Y-69857620D03*
X110233640Y-69857620D03*
D12*
G36*
X116305858Y-69914250D02*
G01*
X116320176Y-69916374D01*
X116334217Y-69919891D01*
X116347846Y-69924768D01*
X116360931Y-69930957D01*
X116373347Y-69938398D01*
X116384973Y-69947021D01*
X116395698Y-69956742D01*
X116405419Y-69967467D01*
X116414042Y-69979093D01*
X116421483Y-69991509D01*
X116427672Y-70004594D01*
X116432549Y-70018223D01*
X116436066Y-70032264D01*
X116438190Y-70046582D01*
X116438900Y-70061040D01*
X116438900Y-70406040D01*
X116438190Y-70420498D01*
X116436066Y-70434816D01*
X116432549Y-70448857D01*
X116427672Y-70462486D01*
X116421483Y-70475571D01*
X116414042Y-70487987D01*
X116405419Y-70499613D01*
X116395698Y-70510338D01*
X116384973Y-70520059D01*
X116373347Y-70528682D01*
X116360931Y-70536123D01*
X116347846Y-70542312D01*
X116334217Y-70547189D01*
X116320176Y-70550706D01*
X116305858Y-70552830D01*
X116291400Y-70553540D01*
X115996400Y-70553540D01*
X115981942Y-70552830D01*
X115967624Y-70550706D01*
X115953583Y-70547189D01*
X115939954Y-70542312D01*
X115926869Y-70536123D01*
X115914453Y-70528682D01*
X115902827Y-70520059D01*
X115892102Y-70510338D01*
X115882381Y-70499613D01*
X115873758Y-70487987D01*
X115866317Y-70475571D01*
X115860128Y-70462486D01*
X115855251Y-70448857D01*
X115851734Y-70434816D01*
X115849610Y-70420498D01*
X115848900Y-70406040D01*
X115848900Y-70061040D01*
X115849610Y-70046582D01*
X115851734Y-70032264D01*
X115855251Y-70018223D01*
X115860128Y-70004594D01*
X115866317Y-69991509D01*
X115873758Y-69979093D01*
X115882381Y-69967467D01*
X115892102Y-69956742D01*
X115902827Y-69947021D01*
X115914453Y-69938398D01*
X115926869Y-69930957D01*
X115939954Y-69924768D01*
X115953583Y-69919891D01*
X115967624Y-69916374D01*
X115981942Y-69914250D01*
X115996400Y-69913540D01*
X116291400Y-69913540D01*
X116305858Y-69914250D01*
X116305858Y-69914250D01*
G37*
D13*
X116143900Y-70233540D03*
D12*
G36*
X115335858Y-69914250D02*
G01*
X115350176Y-69916374D01*
X115364217Y-69919891D01*
X115377846Y-69924768D01*
X115390931Y-69930957D01*
X115403347Y-69938398D01*
X115414973Y-69947021D01*
X115425698Y-69956742D01*
X115435419Y-69967467D01*
X115444042Y-69979093D01*
X115451483Y-69991509D01*
X115457672Y-70004594D01*
X115462549Y-70018223D01*
X115466066Y-70032264D01*
X115468190Y-70046582D01*
X115468900Y-70061040D01*
X115468900Y-70406040D01*
X115468190Y-70420498D01*
X115466066Y-70434816D01*
X115462549Y-70448857D01*
X115457672Y-70462486D01*
X115451483Y-70475571D01*
X115444042Y-70487987D01*
X115435419Y-70499613D01*
X115425698Y-70510338D01*
X115414973Y-70520059D01*
X115403347Y-70528682D01*
X115390931Y-70536123D01*
X115377846Y-70542312D01*
X115364217Y-70547189D01*
X115350176Y-70550706D01*
X115335858Y-70552830D01*
X115321400Y-70553540D01*
X115026400Y-70553540D01*
X115011942Y-70552830D01*
X114997624Y-70550706D01*
X114983583Y-70547189D01*
X114969954Y-70542312D01*
X114956869Y-70536123D01*
X114944453Y-70528682D01*
X114932827Y-70520059D01*
X114922102Y-70510338D01*
X114912381Y-70499613D01*
X114903758Y-70487987D01*
X114896317Y-70475571D01*
X114890128Y-70462486D01*
X114885251Y-70448857D01*
X114881734Y-70434816D01*
X114879610Y-70420498D01*
X114878900Y-70406040D01*
X114878900Y-70061040D01*
X114879610Y-70046582D01*
X114881734Y-70032264D01*
X114885251Y-70018223D01*
X114890128Y-70004594D01*
X114896317Y-69991509D01*
X114903758Y-69979093D01*
X114912381Y-69967467D01*
X114922102Y-69956742D01*
X114932827Y-69947021D01*
X114944453Y-69938398D01*
X114956869Y-69930957D01*
X114969954Y-69924768D01*
X114983583Y-69919891D01*
X114997624Y-69916374D01*
X115011942Y-69914250D01*
X115026400Y-69913540D01*
X115321400Y-69913540D01*
X115335858Y-69914250D01*
X115335858Y-69914250D01*
G37*
D13*
X115173900Y-70233540D03*
D12*
G36*
X112675231Y-69662573D02*
G01*
X112696466Y-69665723D01*
X112717290Y-69670939D01*
X112737502Y-69678171D01*
X112756908Y-69687350D01*
X112775321Y-69698386D01*
X112792564Y-69711174D01*
X112808470Y-69725590D01*
X112822886Y-69741496D01*
X112835674Y-69758739D01*
X112846710Y-69777152D01*
X112855889Y-69796558D01*
X112863121Y-69816770D01*
X112868337Y-69837594D01*
X112871487Y-69858829D01*
X112872540Y-69880270D01*
X112872540Y-70317770D01*
X112871487Y-70339211D01*
X112868337Y-70360446D01*
X112863121Y-70381270D01*
X112855889Y-70401482D01*
X112846710Y-70420888D01*
X112835674Y-70439301D01*
X112822886Y-70456544D01*
X112808470Y-70472450D01*
X112792564Y-70486866D01*
X112775321Y-70499654D01*
X112756908Y-70510690D01*
X112737502Y-70519869D01*
X112717290Y-70527101D01*
X112696466Y-70532317D01*
X112675231Y-70535467D01*
X112653790Y-70536520D01*
X112141290Y-70536520D01*
X112119849Y-70535467D01*
X112098614Y-70532317D01*
X112077790Y-70527101D01*
X112057578Y-70519869D01*
X112038172Y-70510690D01*
X112019759Y-70499654D01*
X112002516Y-70486866D01*
X111986610Y-70472450D01*
X111972194Y-70456544D01*
X111959406Y-70439301D01*
X111948370Y-70420888D01*
X111939191Y-70401482D01*
X111931959Y-70381270D01*
X111926743Y-70360446D01*
X111923593Y-70339211D01*
X111922540Y-70317770D01*
X111922540Y-69880270D01*
X111923593Y-69858829D01*
X111926743Y-69837594D01*
X111931959Y-69816770D01*
X111939191Y-69796558D01*
X111948370Y-69777152D01*
X111959406Y-69758739D01*
X111972194Y-69741496D01*
X111986610Y-69725590D01*
X112002516Y-69711174D01*
X112019759Y-69698386D01*
X112038172Y-69687350D01*
X112057578Y-69678171D01*
X112077790Y-69670939D01*
X112098614Y-69665723D01*
X112119849Y-69662573D01*
X112141290Y-69661520D01*
X112653790Y-69661520D01*
X112675231Y-69662573D01*
X112675231Y-69662573D01*
G37*
D17*
X112397540Y-70099020D03*
D12*
G36*
X112675231Y-68087573D02*
G01*
X112696466Y-68090723D01*
X112717290Y-68095939D01*
X112737502Y-68103171D01*
X112756908Y-68112350D01*
X112775321Y-68123386D01*
X112792564Y-68136174D01*
X112808470Y-68150590D01*
X112822886Y-68166496D01*
X112835674Y-68183739D01*
X112846710Y-68202152D01*
X112855889Y-68221558D01*
X112863121Y-68241770D01*
X112868337Y-68262594D01*
X112871487Y-68283829D01*
X112872540Y-68305270D01*
X112872540Y-68742770D01*
X112871487Y-68764211D01*
X112868337Y-68785446D01*
X112863121Y-68806270D01*
X112855889Y-68826482D01*
X112846710Y-68845888D01*
X112835674Y-68864301D01*
X112822886Y-68881544D01*
X112808470Y-68897450D01*
X112792564Y-68911866D01*
X112775321Y-68924654D01*
X112756908Y-68935690D01*
X112737502Y-68944869D01*
X112717290Y-68952101D01*
X112696466Y-68957317D01*
X112675231Y-68960467D01*
X112653790Y-68961520D01*
X112141290Y-68961520D01*
X112119849Y-68960467D01*
X112098614Y-68957317D01*
X112077790Y-68952101D01*
X112057578Y-68944869D01*
X112038172Y-68935690D01*
X112019759Y-68924654D01*
X112002516Y-68911866D01*
X111986610Y-68897450D01*
X111972194Y-68881544D01*
X111959406Y-68864301D01*
X111948370Y-68845888D01*
X111939191Y-68826482D01*
X111931959Y-68806270D01*
X111926743Y-68785446D01*
X111923593Y-68764211D01*
X111922540Y-68742770D01*
X111922540Y-68305270D01*
X111923593Y-68283829D01*
X111926743Y-68262594D01*
X111931959Y-68241770D01*
X111939191Y-68221558D01*
X111948370Y-68202152D01*
X111959406Y-68183739D01*
X111972194Y-68166496D01*
X111986610Y-68150590D01*
X112002516Y-68136174D01*
X112019759Y-68123386D01*
X112038172Y-68112350D01*
X112057578Y-68103171D01*
X112077790Y-68095939D01*
X112098614Y-68090723D01*
X112119849Y-68087573D01*
X112141290Y-68086520D01*
X112653790Y-68086520D01*
X112675231Y-68087573D01*
X112675231Y-68087573D01*
G37*
D17*
X112397540Y-68524020D03*
D12*
G36*
X113894431Y-69662473D02*
G01*
X113915666Y-69665623D01*
X113936490Y-69670839D01*
X113956702Y-69678071D01*
X113976108Y-69687250D01*
X113994521Y-69698286D01*
X114011764Y-69711074D01*
X114027670Y-69725490D01*
X114042086Y-69741396D01*
X114054874Y-69758639D01*
X114065910Y-69777052D01*
X114075089Y-69796458D01*
X114082321Y-69816670D01*
X114087537Y-69837494D01*
X114090687Y-69858729D01*
X114091740Y-69880170D01*
X114091740Y-70317670D01*
X114090687Y-70339111D01*
X114087537Y-70360346D01*
X114082321Y-70381170D01*
X114075089Y-70401382D01*
X114065910Y-70420788D01*
X114054874Y-70439201D01*
X114042086Y-70456444D01*
X114027670Y-70472350D01*
X114011764Y-70486766D01*
X113994521Y-70499554D01*
X113976108Y-70510590D01*
X113956702Y-70519769D01*
X113936490Y-70527001D01*
X113915666Y-70532217D01*
X113894431Y-70535367D01*
X113872990Y-70536420D01*
X113360490Y-70536420D01*
X113339049Y-70535367D01*
X113317814Y-70532217D01*
X113296990Y-70527001D01*
X113276778Y-70519769D01*
X113257372Y-70510590D01*
X113238959Y-70499554D01*
X113221716Y-70486766D01*
X113205810Y-70472350D01*
X113191394Y-70456444D01*
X113178606Y-70439201D01*
X113167570Y-70420788D01*
X113158391Y-70401382D01*
X113151159Y-70381170D01*
X113145943Y-70360346D01*
X113142793Y-70339111D01*
X113141740Y-70317670D01*
X113141740Y-69880170D01*
X113142793Y-69858729D01*
X113145943Y-69837494D01*
X113151159Y-69816670D01*
X113158391Y-69796458D01*
X113167570Y-69777052D01*
X113178606Y-69758639D01*
X113191394Y-69741396D01*
X113205810Y-69725490D01*
X113221716Y-69711074D01*
X113238959Y-69698286D01*
X113257372Y-69687250D01*
X113276778Y-69678071D01*
X113296990Y-69670839D01*
X113317814Y-69665623D01*
X113339049Y-69662473D01*
X113360490Y-69661420D01*
X113872990Y-69661420D01*
X113894431Y-69662473D01*
X113894431Y-69662473D01*
G37*
D17*
X113616740Y-70098920D03*
D12*
G36*
X113894431Y-68087473D02*
G01*
X113915666Y-68090623D01*
X113936490Y-68095839D01*
X113956702Y-68103071D01*
X113976108Y-68112250D01*
X113994521Y-68123286D01*
X114011764Y-68136074D01*
X114027670Y-68150490D01*
X114042086Y-68166396D01*
X114054874Y-68183639D01*
X114065910Y-68202052D01*
X114075089Y-68221458D01*
X114082321Y-68241670D01*
X114087537Y-68262494D01*
X114090687Y-68283729D01*
X114091740Y-68305170D01*
X114091740Y-68742670D01*
X114090687Y-68764111D01*
X114087537Y-68785346D01*
X114082321Y-68806170D01*
X114075089Y-68826382D01*
X114065910Y-68845788D01*
X114054874Y-68864201D01*
X114042086Y-68881444D01*
X114027670Y-68897350D01*
X114011764Y-68911766D01*
X113994521Y-68924554D01*
X113976108Y-68935590D01*
X113956702Y-68944769D01*
X113936490Y-68952001D01*
X113915666Y-68957217D01*
X113894431Y-68960367D01*
X113872990Y-68961420D01*
X113360490Y-68961420D01*
X113339049Y-68960367D01*
X113317814Y-68957217D01*
X113296990Y-68952001D01*
X113276778Y-68944769D01*
X113257372Y-68935590D01*
X113238959Y-68924554D01*
X113221716Y-68911766D01*
X113205810Y-68897350D01*
X113191394Y-68881444D01*
X113178606Y-68864201D01*
X113167570Y-68845788D01*
X113158391Y-68826382D01*
X113151159Y-68806170D01*
X113145943Y-68785346D01*
X113142793Y-68764111D01*
X113141740Y-68742670D01*
X113141740Y-68305170D01*
X113142793Y-68283729D01*
X113145943Y-68262494D01*
X113151159Y-68241670D01*
X113158391Y-68221458D01*
X113167570Y-68202052D01*
X113178606Y-68183639D01*
X113191394Y-68166396D01*
X113205810Y-68150490D01*
X113221716Y-68136074D01*
X113238959Y-68123286D01*
X113257372Y-68112250D01*
X113276778Y-68103071D01*
X113296990Y-68095839D01*
X113317814Y-68090623D01*
X113339049Y-68087473D01*
X113360490Y-68086420D01*
X113872990Y-68086420D01*
X113894431Y-68087473D01*
X113894431Y-68087473D01*
G37*
D17*
X113616740Y-68523920D03*
M02*
