G04 #@! TF.GenerationSoftware,KiCad,Pcbnew,(5.1.4)-1*
G04 #@! TF.CreationDate,2020-07-30T17:41:21-07:00*
G04 #@! TF.ProjectId,Kicad LED Rings,4b696361-6420-44c4-9544-2052696e6773,rev?*
G04 #@! TF.SameCoordinates,Original*
G04 #@! TF.FileFunction,Soldermask,Top*
G04 #@! TF.FilePolarity,Negative*
%FSLAX46Y46*%
G04 Gerber Fmt 4.6, Leading zero omitted, Abs format (unit mm)*
G04 Created by KiCad (PCBNEW (5.1.4)-1) date 2020-07-30 17:41:21*
%MOMM*%
%LPD*%
G04 APERTURE LIST*
%ADD10C,0.100000*%
G04 APERTURE END LIST*
D10*
G36*
X98762676Y-75306102D02*
G01*
X98861715Y-75336145D01*
X98952989Y-75384932D01*
X99032991Y-75450589D01*
X99098648Y-75530591D01*
X99147435Y-75621865D01*
X99177478Y-75720904D01*
X99187622Y-75823900D01*
X99177478Y-75926896D01*
X99147435Y-76025935D01*
X99098648Y-76117209D01*
X99032991Y-76197211D01*
X98952989Y-76262868D01*
X98861715Y-76311655D01*
X98762676Y-76341698D01*
X98685490Y-76349300D01*
X98633870Y-76349300D01*
X98556684Y-76341698D01*
X98457645Y-76311655D01*
X98366371Y-76262868D01*
X98286369Y-76197211D01*
X98220712Y-76117209D01*
X98171925Y-76025935D01*
X98141882Y-75926896D01*
X98131738Y-75823900D01*
X98141882Y-75720904D01*
X98171925Y-75621865D01*
X98220712Y-75530591D01*
X98286369Y-75450589D01*
X98366371Y-75384932D01*
X98457645Y-75336145D01*
X98556684Y-75306102D01*
X98633870Y-75298500D01*
X98685490Y-75298500D01*
X98762676Y-75306102D01*
X98762676Y-75306102D01*
G37*
G36*
X120694576Y-75305622D02*
G01*
X120793615Y-75335665D01*
X120884889Y-75384452D01*
X120964891Y-75450109D01*
X121030548Y-75530111D01*
X121079335Y-75621385D01*
X121109378Y-75720424D01*
X121119522Y-75823420D01*
X121109378Y-75926416D01*
X121079335Y-76025455D01*
X121030548Y-76116729D01*
X120964891Y-76196731D01*
X120884889Y-76262388D01*
X120793615Y-76311175D01*
X120694576Y-76341218D01*
X120617390Y-76348820D01*
X120565770Y-76348820D01*
X120488584Y-76341218D01*
X120389545Y-76311175D01*
X120298271Y-76262388D01*
X120218269Y-76196731D01*
X120152612Y-76116729D01*
X120103825Y-76025455D01*
X120073782Y-75926416D01*
X120063638Y-75823420D01*
X120073782Y-75720424D01*
X120103825Y-75621385D01*
X120152612Y-75530111D01*
X120218269Y-75450109D01*
X120298271Y-75384452D01*
X120389545Y-75335665D01*
X120488584Y-75305622D01*
X120565770Y-75298020D01*
X120617390Y-75298020D01*
X120694576Y-75305622D01*
X120694576Y-75305622D01*
G37*
G36*
X98762676Y-74036102D02*
G01*
X98861715Y-74066145D01*
X98952989Y-74114932D01*
X99032991Y-74180589D01*
X99098648Y-74260591D01*
X99147435Y-74351865D01*
X99177478Y-74450904D01*
X99187622Y-74553900D01*
X99177478Y-74656896D01*
X99147435Y-74755935D01*
X99098648Y-74847209D01*
X99032991Y-74927211D01*
X98952989Y-74992868D01*
X98861715Y-75041655D01*
X98762676Y-75071698D01*
X98685490Y-75079300D01*
X98633870Y-75079300D01*
X98556684Y-75071698D01*
X98457645Y-75041655D01*
X98366371Y-74992868D01*
X98286369Y-74927211D01*
X98220712Y-74847209D01*
X98171925Y-74755935D01*
X98141882Y-74656896D01*
X98131738Y-74553900D01*
X98141882Y-74450904D01*
X98171925Y-74351865D01*
X98220712Y-74260591D01*
X98286369Y-74180589D01*
X98366371Y-74114932D01*
X98457645Y-74066145D01*
X98556684Y-74036102D01*
X98633870Y-74028500D01*
X98685490Y-74028500D01*
X98762676Y-74036102D01*
X98762676Y-74036102D01*
G37*
G36*
X121116980Y-75078820D02*
G01*
X120066180Y-75078820D01*
X120066180Y-74028020D01*
X121116980Y-74028020D01*
X121116980Y-75078820D01*
X121116980Y-75078820D01*
G37*
G36*
X99185080Y-73809300D02*
G01*
X98134280Y-73809300D01*
X98134280Y-72758500D01*
X99185080Y-72758500D01*
X99185080Y-73809300D01*
X99185080Y-73809300D01*
G37*
G36*
X105148380Y-71714360D02*
G01*
X103903780Y-71714360D01*
X103903780Y-67955160D01*
X105148380Y-67955160D01*
X105148380Y-71714360D01*
X105148380Y-71714360D01*
G37*
G36*
X102354380Y-71714360D02*
G01*
X101109780Y-71714360D01*
X101109780Y-67955160D01*
X102354380Y-67955160D01*
X102354380Y-71714360D01*
X102354380Y-71714360D01*
G37*
G36*
X118349390Y-70002191D02*
G01*
X118374628Y-70009847D01*
X118397895Y-70022283D01*
X118418284Y-70039016D01*
X118435017Y-70059405D01*
X118447453Y-70082672D01*
X118455109Y-70107910D01*
X118457940Y-70136651D01*
X118457940Y-70502869D01*
X118455109Y-70531610D01*
X118447453Y-70556848D01*
X118435017Y-70580115D01*
X118418284Y-70600504D01*
X118397895Y-70617237D01*
X118374628Y-70629673D01*
X118349390Y-70637329D01*
X118320649Y-70640160D01*
X117904431Y-70640160D01*
X117875690Y-70637329D01*
X117850452Y-70629673D01*
X117827185Y-70617237D01*
X117806796Y-70600504D01*
X117790063Y-70580115D01*
X117777627Y-70556848D01*
X117769971Y-70531610D01*
X117767140Y-70502869D01*
X117767140Y-70136651D01*
X117769971Y-70107910D01*
X117777627Y-70082672D01*
X117790063Y-70059405D01*
X117806796Y-70039016D01*
X117827185Y-70022283D01*
X117850452Y-70009847D01*
X117875690Y-70002191D01*
X117904431Y-69999360D01*
X118320649Y-69999360D01*
X118349390Y-70002191D01*
X118349390Y-70002191D01*
G37*
G36*
X117424830Y-70002191D02*
G01*
X117450068Y-70009847D01*
X117473335Y-70022283D01*
X117493724Y-70039016D01*
X117510457Y-70059405D01*
X117522893Y-70082672D01*
X117530549Y-70107910D01*
X117533380Y-70136651D01*
X117533380Y-70502869D01*
X117530549Y-70531610D01*
X117522893Y-70556848D01*
X117510457Y-70580115D01*
X117493724Y-70600504D01*
X117473335Y-70617237D01*
X117450068Y-70629673D01*
X117424830Y-70637329D01*
X117396089Y-70640160D01*
X116979871Y-70640160D01*
X116951130Y-70637329D01*
X116925892Y-70629673D01*
X116902625Y-70617237D01*
X116882236Y-70600504D01*
X116865503Y-70580115D01*
X116853067Y-70556848D01*
X116845411Y-70531610D01*
X116842580Y-70502869D01*
X116842580Y-70136651D01*
X116845411Y-70107910D01*
X116853067Y-70082672D01*
X116865503Y-70059405D01*
X116882236Y-70039016D01*
X116902625Y-70022283D01*
X116925892Y-70009847D01*
X116951130Y-70002191D01*
X116979871Y-69999360D01*
X117396089Y-69999360D01*
X117424830Y-70002191D01*
X117424830Y-70002191D01*
G37*
G36*
X113058540Y-70205200D02*
G01*
X112077740Y-70205200D01*
X112077740Y-68834400D01*
X113058540Y-68834400D01*
X113058540Y-70205200D01*
X113058540Y-70205200D01*
G37*
G36*
X114698540Y-70205200D02*
G01*
X113717740Y-70205200D01*
X113717740Y-68834400D01*
X114698540Y-68834400D01*
X114698540Y-70205200D01*
X114698540Y-70205200D01*
G37*
G36*
X110509040Y-70133020D02*
G01*
X109958240Y-70133020D01*
X109958240Y-69582220D01*
X110509040Y-69582220D01*
X110509040Y-70133020D01*
X110509040Y-70133020D01*
G37*
G36*
X108309040Y-70133020D02*
G01*
X107758240Y-70133020D01*
X107758240Y-69582220D01*
X108309040Y-69582220D01*
X108309040Y-70133020D01*
X108309040Y-70133020D01*
G37*
G36*
X117424830Y-69032191D02*
G01*
X117450068Y-69039847D01*
X117473335Y-69052283D01*
X117493724Y-69069016D01*
X117510457Y-69089405D01*
X117522893Y-69112672D01*
X117530549Y-69137910D01*
X117533380Y-69166651D01*
X117533380Y-69532869D01*
X117530549Y-69561610D01*
X117522893Y-69586848D01*
X117510457Y-69610115D01*
X117493724Y-69630504D01*
X117473335Y-69647237D01*
X117450068Y-69659673D01*
X117424830Y-69667329D01*
X117396089Y-69670160D01*
X116979871Y-69670160D01*
X116951130Y-69667329D01*
X116925892Y-69659673D01*
X116902625Y-69647237D01*
X116882236Y-69630504D01*
X116865503Y-69610115D01*
X116853067Y-69586848D01*
X116845411Y-69561610D01*
X116842580Y-69532869D01*
X116842580Y-69166651D01*
X116845411Y-69137910D01*
X116853067Y-69112672D01*
X116865503Y-69089405D01*
X116882236Y-69069016D01*
X116902625Y-69052283D01*
X116925892Y-69039847D01*
X116951130Y-69032191D01*
X116979871Y-69029360D01*
X117396089Y-69029360D01*
X117424830Y-69032191D01*
X117424830Y-69032191D01*
G37*
G36*
X118349390Y-69032191D02*
G01*
X118374628Y-69039847D01*
X118397895Y-69052283D01*
X118418284Y-69069016D01*
X118435017Y-69089405D01*
X118447453Y-69112672D01*
X118455109Y-69137910D01*
X118457940Y-69166651D01*
X118457940Y-69532869D01*
X118455109Y-69561610D01*
X118447453Y-69586848D01*
X118435017Y-69610115D01*
X118418284Y-69630504D01*
X118397895Y-69647237D01*
X118374628Y-69659673D01*
X118349390Y-69667329D01*
X118320649Y-69670160D01*
X117904431Y-69670160D01*
X117875690Y-69667329D01*
X117850452Y-69659673D01*
X117827185Y-69647237D01*
X117806796Y-69630504D01*
X117790063Y-69610115D01*
X117777627Y-69586848D01*
X117769971Y-69561610D01*
X117767140Y-69532869D01*
X117767140Y-69166651D01*
X117769971Y-69137910D01*
X117777627Y-69112672D01*
X117790063Y-69089405D01*
X117806796Y-69069016D01*
X117827185Y-69052283D01*
X117850452Y-69039847D01*
X117875690Y-69032191D01*
X117904431Y-69029360D01*
X118320649Y-69029360D01*
X118349390Y-69032191D01*
X118349390Y-69032191D01*
G37*
G36*
X106523150Y-68709331D02*
G01*
X106548388Y-68716987D01*
X106571655Y-68729423D01*
X106592044Y-68746156D01*
X106608777Y-68766545D01*
X106621213Y-68789812D01*
X106628869Y-68815050D01*
X106631700Y-68843791D01*
X106631700Y-69210009D01*
X106628869Y-69238750D01*
X106621213Y-69263988D01*
X106608777Y-69287255D01*
X106592044Y-69307644D01*
X106571655Y-69324377D01*
X106548388Y-69336813D01*
X106523150Y-69344469D01*
X106494409Y-69347300D01*
X106078191Y-69347300D01*
X106049450Y-69344469D01*
X106024212Y-69336813D01*
X106000945Y-69324377D01*
X105980556Y-69307644D01*
X105963823Y-69287255D01*
X105951387Y-69263988D01*
X105943731Y-69238750D01*
X105940900Y-69210009D01*
X105940900Y-68843791D01*
X105943731Y-68815050D01*
X105951387Y-68789812D01*
X105963823Y-68766545D01*
X105980556Y-68746156D01*
X106000945Y-68729423D01*
X106024212Y-68716987D01*
X106049450Y-68709331D01*
X106078191Y-68706500D01*
X106494409Y-68706500D01*
X106523150Y-68709331D01*
X106523150Y-68709331D01*
G37*
G36*
X107391830Y-68709331D02*
G01*
X107417068Y-68716987D01*
X107440335Y-68729423D01*
X107460724Y-68746156D01*
X107477457Y-68766545D01*
X107489893Y-68789812D01*
X107497549Y-68815050D01*
X107500380Y-68843791D01*
X107500380Y-69210009D01*
X107497549Y-69238750D01*
X107489893Y-69263988D01*
X107477457Y-69287255D01*
X107460724Y-69307644D01*
X107440335Y-69324377D01*
X107417068Y-69336813D01*
X107391830Y-69344469D01*
X107363089Y-69347300D01*
X106946871Y-69347300D01*
X106918130Y-69344469D01*
X106892892Y-69336813D01*
X106869625Y-69324377D01*
X106849236Y-69307644D01*
X106832503Y-69287255D01*
X106820067Y-69263988D01*
X106812411Y-69238750D01*
X106809580Y-69210009D01*
X106809580Y-68843791D01*
X106812411Y-68815050D01*
X106820067Y-68789812D01*
X106832503Y-68766545D01*
X106849236Y-68746156D01*
X106869625Y-68729423D01*
X106892892Y-68716987D01*
X106918130Y-68709331D01*
X106946871Y-68706500D01*
X107363089Y-68706500D01*
X107391830Y-68709331D01*
X107391830Y-68709331D01*
G37*
G36*
X112892657Y-67580879D02*
G01*
X112931267Y-67592591D01*
X112966853Y-67611613D01*
X112998036Y-67637204D01*
X113023627Y-67668387D01*
X113042649Y-67703973D01*
X113054361Y-67742583D01*
X113058560Y-67785221D01*
X113058560Y-68368939D01*
X113054361Y-68411577D01*
X113042649Y-68450187D01*
X113023627Y-68485773D01*
X112998036Y-68516956D01*
X112966853Y-68542547D01*
X112931267Y-68561569D01*
X112892657Y-68573281D01*
X112850019Y-68577480D01*
X112341301Y-68577480D01*
X112298663Y-68573281D01*
X112260053Y-68561569D01*
X112224467Y-68542547D01*
X112193284Y-68516956D01*
X112167693Y-68485773D01*
X112148671Y-68450187D01*
X112136959Y-68411577D01*
X112132760Y-68368939D01*
X112132760Y-67785221D01*
X112136959Y-67742583D01*
X112148671Y-67703973D01*
X112167693Y-67668387D01*
X112193284Y-67637204D01*
X112224467Y-67611613D01*
X112260053Y-67592591D01*
X112298663Y-67580879D01*
X112341301Y-67576680D01*
X112850019Y-67576680D01*
X112892657Y-67580879D01*
X112892657Y-67580879D01*
G37*
G36*
X114467657Y-67580879D02*
G01*
X114506267Y-67592591D01*
X114541853Y-67611613D01*
X114573036Y-67637204D01*
X114598627Y-67668387D01*
X114617649Y-67703973D01*
X114629361Y-67742583D01*
X114633560Y-67785221D01*
X114633560Y-68368939D01*
X114629361Y-68411577D01*
X114617649Y-68450187D01*
X114598627Y-68485773D01*
X114573036Y-68516956D01*
X114541853Y-68542547D01*
X114506267Y-68561569D01*
X114467657Y-68573281D01*
X114425019Y-68577480D01*
X113916301Y-68577480D01*
X113873663Y-68573281D01*
X113835053Y-68561569D01*
X113799467Y-68542547D01*
X113768284Y-68516956D01*
X113742693Y-68485773D01*
X113723671Y-68450187D01*
X113711959Y-68411577D01*
X113707760Y-68368939D01*
X113707760Y-67785221D01*
X113711959Y-67742583D01*
X113723671Y-67703973D01*
X113742693Y-67668387D01*
X113768284Y-67637204D01*
X113799467Y-67611613D01*
X113835053Y-67592591D01*
X113873663Y-67580879D01*
X113916301Y-67576680D01*
X114425019Y-67576680D01*
X114467657Y-67580879D01*
X114467657Y-67580879D01*
G37*
G36*
X107391830Y-67739331D02*
G01*
X107417068Y-67746987D01*
X107440335Y-67759423D01*
X107460724Y-67776156D01*
X107477457Y-67796545D01*
X107489893Y-67819812D01*
X107497549Y-67845050D01*
X107500380Y-67873791D01*
X107500380Y-68240009D01*
X107497549Y-68268750D01*
X107489893Y-68293988D01*
X107477457Y-68317255D01*
X107460724Y-68337644D01*
X107440335Y-68354377D01*
X107417068Y-68366813D01*
X107391830Y-68374469D01*
X107363089Y-68377300D01*
X106946871Y-68377300D01*
X106918130Y-68374469D01*
X106892892Y-68366813D01*
X106869625Y-68354377D01*
X106849236Y-68337644D01*
X106832503Y-68317255D01*
X106820067Y-68293988D01*
X106812411Y-68268750D01*
X106809580Y-68240009D01*
X106809580Y-67873791D01*
X106812411Y-67845050D01*
X106820067Y-67819812D01*
X106832503Y-67796545D01*
X106849236Y-67776156D01*
X106869625Y-67759423D01*
X106892892Y-67746987D01*
X106918130Y-67739331D01*
X106946871Y-67736500D01*
X107363089Y-67736500D01*
X107391830Y-67739331D01*
X107391830Y-67739331D01*
G37*
G36*
X106523150Y-67739331D02*
G01*
X106548388Y-67746987D01*
X106571655Y-67759423D01*
X106592044Y-67776156D01*
X106608777Y-67796545D01*
X106621213Y-67819812D01*
X106628869Y-67845050D01*
X106631700Y-67873791D01*
X106631700Y-68240009D01*
X106628869Y-68268750D01*
X106621213Y-68293988D01*
X106608777Y-68317255D01*
X106592044Y-68337644D01*
X106571655Y-68354377D01*
X106548388Y-68366813D01*
X106523150Y-68374469D01*
X106494409Y-68377300D01*
X106078191Y-68377300D01*
X106049450Y-68374469D01*
X106024212Y-68366813D01*
X106000945Y-68354377D01*
X105980556Y-68337644D01*
X105963823Y-68317255D01*
X105951387Y-68293988D01*
X105943731Y-68268750D01*
X105940900Y-68240009D01*
X105940900Y-67873791D01*
X105943731Y-67845050D01*
X105951387Y-67819812D01*
X105963823Y-67796545D01*
X105980556Y-67776156D01*
X106000945Y-67759423D01*
X106024212Y-67746987D01*
X106049450Y-67739331D01*
X106078191Y-67736500D01*
X106494409Y-67736500D01*
X106523150Y-67739331D01*
X106523150Y-67739331D01*
G37*
G36*
X108610400Y-68330321D02*
G01*
X107746800Y-68330321D01*
X107746800Y-67974721D01*
X108610400Y-67974721D01*
X108610400Y-68330321D01*
X108610400Y-68330321D01*
G37*
G36*
X111506000Y-68330321D02*
G01*
X110642400Y-68330321D01*
X110642400Y-67974721D01*
X111506000Y-67974721D01*
X111506000Y-68330321D01*
X111506000Y-68330321D01*
G37*
G36*
X110451900Y-68181220D02*
G01*
X108800900Y-68181220D01*
X108800900Y-66123820D01*
X110451900Y-66123820D01*
X110451900Y-68181220D01*
X110451900Y-68181220D01*
G37*
G36*
X108610400Y-67830319D02*
G01*
X107746800Y-67830319D01*
X107746800Y-67474719D01*
X108610400Y-67474719D01*
X108610400Y-67830319D01*
X108610400Y-67830319D01*
G37*
G36*
X111506000Y-67830319D02*
G01*
X110642400Y-67830319D01*
X110642400Y-67474719D01*
X111506000Y-67474719D01*
X111506000Y-67830319D01*
X111506000Y-67830319D01*
G37*
G36*
X108610400Y-67330320D02*
G01*
X107746800Y-67330320D01*
X107746800Y-66974720D01*
X108610400Y-66974720D01*
X108610400Y-67330320D01*
X108610400Y-67330320D01*
G37*
G36*
X111506000Y-67330320D02*
G01*
X110642400Y-67330320D01*
X110642400Y-66974720D01*
X111506000Y-66974720D01*
X111506000Y-67330320D01*
X111506000Y-67330320D01*
G37*
G36*
X108610400Y-66830321D02*
G01*
X107746800Y-66830321D01*
X107746800Y-66474721D01*
X108610400Y-66474721D01*
X108610400Y-66830321D01*
X108610400Y-66830321D01*
G37*
G36*
X111506000Y-66830321D02*
G01*
X110642400Y-66830321D01*
X110642400Y-66474721D01*
X111506000Y-66474721D01*
X111506000Y-66830321D01*
X111506000Y-66830321D01*
G37*
G36*
X111506000Y-66330319D02*
G01*
X110642400Y-66330319D01*
X110642400Y-65974719D01*
X111506000Y-65974719D01*
X111506000Y-66330319D01*
X111506000Y-66330319D01*
G37*
G36*
X108610400Y-66330319D02*
G01*
X107746800Y-66330319D01*
X107746800Y-65974719D01*
X108610400Y-65974719D01*
X108610400Y-66330319D01*
X108610400Y-66330319D01*
G37*
M02*
