G04 #@! TF.GenerationSoftware,KiCad,Pcbnew,(5.1.4)-1*
G04 #@! TF.CreationDate,2020-07-30T11:36:47-07:00*
G04 #@! TF.ProjectId,Kicad LED Rings,4b696361-6420-44c4-9544-2052696e6773,rev?*
G04 #@! TF.SameCoordinates,Original*
G04 #@! TF.FileFunction,Legend,Bot*
G04 #@! TF.FilePolarity,Positive*
%FSLAX46Y46*%
G04 Gerber Fmt 4.6, Leading zero omitted, Abs format (unit mm)*
G04 Created by KiCad (PCBNEW (5.1.4)-1) date 2020-07-30 11:36:47*
%MOMM*%
%LPD*%
G04 APERTURE LIST*
%ADD10C,0.100000*%
G04 APERTURE END LIST*
D10*
X106684165Y-93897765D02*
X104511001Y-93191661D01*
X107138420Y-92499712D02*
X106684165Y-93897765D01*
X104965256Y-91793608D02*
X107138420Y-92499712D01*
X111565839Y-94023147D02*
X109287883Y-94202426D01*
X109287883Y-94202426D02*
X109172548Y-92736958D01*
X109172548Y-92736958D02*
X111450504Y-92557678D01*
X97911517Y-84975692D02*
X98948886Y-87011642D01*
X98948886Y-87011642D02*
X97639106Y-87679008D01*
X97639106Y-87679008D02*
X96601738Y-85643058D01*
X118374831Y-89300399D02*
X119858820Y-87562871D01*
X119492628Y-90255087D02*
X118374831Y-89300399D01*
X120976617Y-88517560D02*
X119492628Y-90255087D01*
X95580499Y-82474834D02*
X95421105Y-80195400D01*
X97046918Y-82372292D02*
X95580499Y-82474834D01*
X96887524Y-80092858D02*
X97046918Y-82372292D01*
X123419960Y-83532662D02*
X122713856Y-85705826D01*
X122713856Y-85705826D02*
X121315803Y-85251571D01*
X121315803Y-85251571D02*
X122021907Y-83078407D01*
X100379970Y-70780270D02*
X99108835Y-72679069D01*
X99108835Y-72679069D02*
X97887287Y-71861315D01*
X97887287Y-71861315D02*
X99158423Y-69962515D01*
X121723446Y-75395412D02*
X120686078Y-73359462D01*
X123033226Y-74728046D02*
X121723446Y-75395412D01*
X121995857Y-72692096D02*
X123033226Y-74728046D01*
X101891508Y-67911006D02*
X103927458Y-66873638D01*
X102558874Y-69220786D02*
X101891508Y-67911006D01*
X104594824Y-68183417D02*
X102558874Y-69220786D01*
X118324460Y-68603903D02*
X120061987Y-70087892D01*
X120061987Y-70087892D02*
X119107299Y-71205689D01*
X119107299Y-71205689D02*
X117369771Y-69721700D01*
X101510179Y-91698409D02*
X99772651Y-90214420D01*
X102464867Y-90580612D02*
X101510179Y-91698409D01*
X100727340Y-89096623D02*
X102464867Y-90580612D01*
X116880648Y-92318437D02*
X114844698Y-93355806D01*
X114844698Y-93355806D02*
X114177332Y-92046026D01*
X114177332Y-92046026D02*
X116213282Y-91008658D01*
X97697380Y-75099862D02*
X96991276Y-77273026D01*
X96991276Y-77273026D02*
X95593223Y-76818771D01*
X95593223Y-76818771D02*
X96299327Y-74645607D01*
X122484878Y-80382230D02*
X122305598Y-78104274D01*
X123950346Y-80266895D02*
X122484878Y-80382230D01*
X123771067Y-77988939D02*
X123950346Y-80266895D01*
X107051990Y-65858118D02*
X109329946Y-65678838D01*
X107167325Y-67323586D02*
X107051990Y-65858118D01*
X109445281Y-67144307D02*
X107167325Y-67323586D01*
X113339562Y-66125000D02*
X115512726Y-66831104D01*
X115512726Y-66831104D02*
X115058471Y-68229157D01*
X115058471Y-68229157D02*
X112885307Y-67523053D01*
X106130508Y-92056181D02*
X106285016Y-91580653D01*
X106171795Y-91543865D01*
X106096505Y-91544437D01*
X106036502Y-91575010D01*
X105999142Y-91612941D01*
X105947068Y-91696160D01*
X105924995Y-91764093D01*
X105918209Y-91862027D01*
X105926139Y-91914673D01*
X105956712Y-91974677D01*
X106017287Y-92019394D01*
X106130508Y-92056181D01*
X105405893Y-91820740D02*
X105677624Y-91909030D01*
X105541759Y-91864885D02*
X105696267Y-91389357D01*
X105719483Y-91472005D01*
X105750056Y-91532008D01*
X105787987Y-91569367D01*
X110977256Y-92459498D02*
X110938027Y-91961039D01*
X110819346Y-91970379D01*
X110750006Y-91999720D01*
X110706270Y-92050928D01*
X110686270Y-92100268D01*
X110670006Y-92197081D01*
X110675610Y-92268289D01*
X110706818Y-92361366D01*
X110734291Y-92406970D01*
X110785499Y-92450706D01*
X110858576Y-92468838D01*
X110977256Y-92459498D01*
X110467040Y-92045873D02*
X110441436Y-92024005D01*
X110392096Y-92004005D01*
X110273415Y-92013345D01*
X110227811Y-92040817D01*
X110205943Y-92066421D01*
X110185943Y-92115762D01*
X110189679Y-92163234D01*
X110219019Y-92232574D01*
X110526270Y-92494991D01*
X110217700Y-92519276D01*
X98545946Y-85953312D02*
X98991450Y-85726316D01*
X98937403Y-85620244D01*
X98883761Y-85567410D01*
X98819713Y-85546600D01*
X98766475Y-85547004D01*
X98670808Y-85569027D01*
X98607165Y-85601455D01*
X98533116Y-85665906D01*
X98501497Y-85708739D01*
X98480686Y-85772787D01*
X98491900Y-85847239D01*
X98545946Y-85953312D01*
X98786073Y-85323242D02*
X98645552Y-85047454D01*
X98551502Y-85282430D01*
X98519074Y-85218786D01*
X98476241Y-85187167D01*
X98444217Y-85176762D01*
X98390979Y-85177166D01*
X98284907Y-85231212D01*
X98253287Y-85274045D01*
X98242882Y-85306069D01*
X98243286Y-85359307D01*
X98308142Y-85486594D01*
X98350975Y-85518214D01*
X98382999Y-85528619D01*
X119512273Y-87773132D02*
X119132070Y-87448408D01*
X119054755Y-87538933D01*
X119026471Y-87608711D01*
X119031755Y-87675847D01*
X119052501Y-87724878D01*
X119109458Y-87804835D01*
X119163773Y-87851224D01*
X119251655Y-87894971D01*
X119303328Y-87907792D01*
X119370464Y-87902509D01*
X119434958Y-87863657D01*
X119512273Y-87773132D01*
X118794913Y-88099797D02*
X119048382Y-88316280D01*
X118727389Y-87885568D02*
X119076278Y-88026989D01*
X118875258Y-88262353D01*
X97102423Y-81254986D02*
X97601205Y-81220108D01*
X97592901Y-81101351D01*
X97564167Y-81031757D01*
X97513342Y-80987576D01*
X97464178Y-80967146D01*
X97367511Y-80950038D01*
X97296257Y-80955020D01*
X97202912Y-80985415D01*
X97157069Y-81012489D01*
X97112888Y-81063313D01*
X97094119Y-81136229D01*
X97102423Y-81254986D01*
X97549719Y-80483811D02*
X97566327Y-80721326D01*
X97330473Y-80761686D01*
X97352564Y-80736274D01*
X97372993Y-80687110D01*
X97364689Y-80568352D01*
X97337616Y-80522510D01*
X97312203Y-80500420D01*
X97263039Y-80479990D01*
X97144282Y-80488294D01*
X97098440Y-80515367D01*
X97076349Y-80540780D01*
X97055919Y-80589944D01*
X97064223Y-80708701D01*
X97091297Y-80754543D01*
X97116709Y-80776634D01*
X121748781Y-83401751D02*
X121273253Y-83247243D01*
X121236465Y-83360464D01*
X121237037Y-83435754D01*
X121267610Y-83495757D01*
X121305541Y-83533117D01*
X121388760Y-83585191D01*
X121456693Y-83607264D01*
X121554627Y-83614050D01*
X121607273Y-83606120D01*
X121667277Y-83575547D01*
X121711994Y-83514972D01*
X121748781Y-83401751D01*
X121052527Y-83926569D02*
X121081957Y-83835992D01*
X121119316Y-83798061D01*
X121149318Y-83782774D01*
X121231966Y-83759559D01*
X121329900Y-83766345D01*
X121511054Y-83825205D01*
X121548985Y-83862564D01*
X121564271Y-83892566D01*
X121572200Y-83945212D01*
X121542770Y-84035789D01*
X121505411Y-84073720D01*
X121475409Y-84089006D01*
X121422763Y-84096935D01*
X121309542Y-84060148D01*
X121271611Y-84022788D01*
X121256325Y-83992787D01*
X121248395Y-83940141D01*
X121277826Y-83849564D01*
X121315185Y-83811633D01*
X121345187Y-83796346D01*
X121397833Y-83788417D01*
X100662300Y-71515735D02*
X100246808Y-71237588D01*
X100180582Y-71336514D01*
X100160632Y-71409116D01*
X100173712Y-71475176D01*
X100200038Y-71521452D01*
X100265934Y-71594218D01*
X100325290Y-71633953D01*
X100417677Y-71667149D01*
X100470492Y-71673853D01*
X100536553Y-71660773D01*
X100596074Y-71614662D01*
X100662300Y-71515735D01*
X99995150Y-71613509D02*
X99809718Y-71890504D01*
X100344417Y-71990584D01*
X120595686Y-74706192D02*
X121041190Y-74479196D01*
X120987143Y-74373124D01*
X120933501Y-74320290D01*
X120869453Y-74299480D01*
X120816215Y-74299884D01*
X120720548Y-74321907D01*
X120656905Y-74354335D01*
X120582856Y-74418786D01*
X120551237Y-74461619D01*
X120530426Y-74525667D01*
X120541640Y-74600119D01*
X120595686Y-74706192D01*
X120590837Y-74067334D02*
X120633670Y-74098953D01*
X120665693Y-74109358D01*
X120718932Y-74108954D01*
X120740146Y-74098145D01*
X120771766Y-74055312D01*
X120782171Y-74023288D01*
X120781767Y-73970050D01*
X120738529Y-73885192D01*
X120695696Y-73853572D01*
X120663673Y-73843167D01*
X120610434Y-73843571D01*
X120589220Y-73854381D01*
X120557600Y-73897214D01*
X120547195Y-73929238D01*
X120547599Y-73982476D01*
X120590837Y-74067334D01*
X120591241Y-74120572D01*
X120580836Y-74152595D01*
X120549216Y-74195428D01*
X120464358Y-74238666D01*
X120411120Y-74239070D01*
X120379096Y-74228665D01*
X120336263Y-74197045D01*
X120293026Y-74112187D01*
X120292622Y-74058949D01*
X120303027Y-74026925D01*
X120334647Y-73984092D01*
X120419504Y-73940855D01*
X120472743Y-73940451D01*
X120504766Y-73950856D01*
X120547599Y-73982476D01*
X104482612Y-68997533D02*
X104255616Y-68552029D01*
X104149544Y-68606076D01*
X104096710Y-68659718D01*
X104075900Y-68723766D01*
X104076304Y-68777004D01*
X104098327Y-68872671D01*
X104130755Y-68936314D01*
X104195206Y-69010363D01*
X104238039Y-69041982D01*
X104302087Y-69062793D01*
X104376539Y-69051579D01*
X104482612Y-68997533D01*
X104015894Y-69235337D02*
X103931036Y-69278574D01*
X103877798Y-69278978D01*
X103845774Y-69268573D01*
X103770918Y-69226549D01*
X103706466Y-69152500D01*
X103619991Y-68982785D01*
X103619587Y-68929546D01*
X103629992Y-68897523D01*
X103661612Y-68854690D01*
X103746470Y-68811452D01*
X103799708Y-68811048D01*
X103831732Y-68821453D01*
X103874565Y-68853073D01*
X103928611Y-68959145D01*
X103929015Y-69012383D01*
X103918610Y-69044407D01*
X103886991Y-69087240D01*
X103802133Y-69130477D01*
X103748895Y-69130882D01*
X103716871Y-69120476D01*
X103674038Y-69088857D01*
X117982816Y-71117344D02*
X118307540Y-70737141D01*
X118217015Y-70659826D01*
X118147237Y-70631541D01*
X118080101Y-70636825D01*
X118031070Y-70657572D01*
X117951113Y-70714528D01*
X117904724Y-70768843D01*
X117860977Y-70856726D01*
X117848156Y-70908399D01*
X117853439Y-70975535D01*
X117892291Y-71040029D01*
X117982816Y-71117344D01*
X117403459Y-70622526D02*
X117620718Y-70808083D01*
X117512088Y-70715305D02*
X117836812Y-70335102D01*
X117826633Y-70420342D01*
X117831916Y-70487478D01*
X117852663Y-70536509D01*
X117492819Y-70041304D02*
X117456609Y-70010378D01*
X117404936Y-69997556D01*
X117371368Y-70000198D01*
X117322337Y-70020945D01*
X117242380Y-70077902D01*
X117165065Y-70168426D01*
X117121318Y-70256309D01*
X117108496Y-70307982D01*
X117111138Y-70341550D01*
X117131885Y-70390581D01*
X117168095Y-70421507D01*
X117219768Y-70434328D01*
X117253336Y-70431686D01*
X117302367Y-70410939D01*
X117382324Y-70353983D01*
X117459639Y-70263458D01*
X117503386Y-70175575D01*
X117516208Y-70123903D01*
X117513566Y-70090335D01*
X117492819Y-70041304D01*
X101894456Y-89872704D02*
X102219180Y-89492501D01*
X102128655Y-89415186D01*
X102058877Y-89386901D01*
X101991741Y-89392185D01*
X101942710Y-89412932D01*
X101862753Y-89469888D01*
X101816364Y-89524203D01*
X101772617Y-89612086D01*
X101759796Y-89663759D01*
X101765079Y-89730895D01*
X101803931Y-89795389D01*
X101894456Y-89872704D01*
X101315099Y-89377886D02*
X101532358Y-89563443D01*
X101423728Y-89470665D02*
X101748452Y-89090462D01*
X101738273Y-89175702D01*
X101743556Y-89242838D01*
X101764303Y-89291869D01*
X101464057Y-88910189D02*
X101461416Y-88876621D01*
X101440669Y-88827590D01*
X101350144Y-88750275D01*
X101298471Y-88737453D01*
X101264903Y-88740095D01*
X101215872Y-88760842D01*
X101184946Y-88797052D01*
X101156662Y-88866829D01*
X101188364Y-89269645D01*
X100953001Y-89068625D01*
X115979976Y-90979820D02*
X115752981Y-90534316D01*
X115646909Y-90588363D01*
X115594075Y-90642005D01*
X115573264Y-90706053D01*
X115573668Y-90759291D01*
X115595691Y-90854958D01*
X115628119Y-90918601D01*
X115692571Y-90992650D01*
X115735404Y-91024269D01*
X115799451Y-91045080D01*
X115873904Y-91033866D01*
X115979976Y-90979820D01*
X115301114Y-91325717D02*
X115555687Y-91196006D01*
X115428401Y-91260861D02*
X115201405Y-90815358D01*
X115276262Y-90857383D01*
X115340310Y-90878193D01*
X115393548Y-90877789D01*
X114925618Y-90955879D02*
X114649830Y-91096400D01*
X114884805Y-91190450D01*
X114821162Y-91222878D01*
X114789542Y-91265711D01*
X114779137Y-91297735D01*
X114779541Y-91350973D01*
X114833588Y-91457045D01*
X114876421Y-91488665D01*
X114908445Y-91499070D01*
X114961683Y-91498666D01*
X115088970Y-91433810D01*
X115120589Y-91390977D01*
X115130994Y-91358953D01*
X98246077Y-75517209D02*
X97770549Y-75362701D01*
X97733761Y-75475922D01*
X97734332Y-75551212D01*
X97764906Y-75611215D01*
X97802837Y-75648575D01*
X97886056Y-75700649D01*
X97953988Y-75722722D01*
X98051923Y-75729508D01*
X98104569Y-75721578D01*
X98164572Y-75691005D01*
X98209289Y-75630430D01*
X98246077Y-75517209D01*
X98010635Y-76241824D02*
X98098926Y-75970093D01*
X98054781Y-76105958D02*
X97579252Y-75951450D01*
X97661900Y-75928234D01*
X97721904Y-75897661D01*
X97759263Y-75859730D01*
X97561181Y-76546414D02*
X97878200Y-76649419D01*
X97416815Y-76374332D02*
X97793266Y-76371474D01*
X97697617Y-76665849D01*
X121765002Y-79571297D02*
X122263461Y-79532068D01*
X122254120Y-79413387D01*
X122224780Y-79344047D01*
X122173572Y-79300311D01*
X122124231Y-79280311D01*
X122027419Y-79264047D01*
X121956210Y-79269651D01*
X121863134Y-79300860D01*
X121817530Y-79328332D01*
X121773794Y-79379540D01*
X121755662Y-79452617D01*
X121765002Y-79571297D01*
X121705224Y-78811741D02*
X121727641Y-79096575D01*
X121716432Y-78954158D02*
X122214891Y-78914929D01*
X122147419Y-78968005D01*
X122103683Y-79019213D01*
X122083683Y-79068554D01*
X122168189Y-78321525D02*
X122186870Y-78558887D01*
X121951377Y-78601304D01*
X121973245Y-78575699D01*
X121993245Y-78526359D01*
X121983904Y-78407678D01*
X121956432Y-78362074D01*
X121930828Y-78340206D01*
X121881487Y-78320206D01*
X121762807Y-78329547D01*
X121717203Y-78357019D01*
X121695335Y-78382623D01*
X121675335Y-78431963D01*
X121684675Y-78550644D01*
X121712147Y-78596248D01*
X121737751Y-78618116D01*
X109235957Y-67818057D02*
X109196728Y-67319598D01*
X109078047Y-67328939D01*
X109008707Y-67358279D01*
X108964971Y-67409487D01*
X108944971Y-67458828D01*
X108928707Y-67555640D01*
X108934311Y-67626849D01*
X108965520Y-67719925D01*
X108992992Y-67765529D01*
X109044200Y-67809265D01*
X109117277Y-67827397D01*
X109235957Y-67818057D01*
X108476401Y-67877835D02*
X108761235Y-67855418D01*
X108618818Y-67866627D02*
X108579589Y-67368168D01*
X108632665Y-67435640D01*
X108683873Y-67479376D01*
X108733214Y-67499376D01*
X108009922Y-67413002D02*
X108104866Y-67405530D01*
X108154206Y-67425530D01*
X108179811Y-67447398D01*
X108232887Y-67514870D01*
X108264095Y-67607946D01*
X108279040Y-67797835D01*
X108259040Y-67847176D01*
X108237172Y-67872780D01*
X108191568Y-67900252D01*
X108096623Y-67907724D01*
X108047283Y-67887724D01*
X108021679Y-67865856D01*
X107994207Y-67820252D01*
X107984866Y-67701572D01*
X108004866Y-67652231D01*
X108026734Y-67626627D01*
X108072338Y-67599155D01*
X108167283Y-67591682D01*
X108216623Y-67611682D01*
X108242227Y-67633550D01*
X108269700Y-67679155D01*
X114009970Y-68566177D02*
X114164478Y-68090649D01*
X114051257Y-68053861D01*
X113975967Y-68054432D01*
X113915964Y-68085006D01*
X113878604Y-68122937D01*
X113826530Y-68206156D01*
X113804457Y-68274088D01*
X113797671Y-68372023D01*
X113805601Y-68424669D01*
X113836174Y-68484672D01*
X113896749Y-68529389D01*
X114009970Y-68566177D01*
X113285355Y-68330735D02*
X113557086Y-68419026D01*
X113421221Y-68374881D02*
X113575729Y-67899352D01*
X113598945Y-67982000D01*
X113629518Y-68042004D01*
X113667449Y-68079363D01*
X113281355Y-67803704D02*
X112964336Y-67700699D01*
X113013625Y-68242445D01*
M02*
