G04 #@! TF.GenerationSoftware,KiCad,Pcbnew,(5.1.4)-1*
G04 #@! TF.CreationDate,2020-07-30T17:55:39-07:00*
G04 #@! TF.ProjectId,Kicad LED Rings,4b696361-6420-44c4-9544-2052696e6773,rev?*
G04 #@! TF.SameCoordinates,Original*
G04 #@! TF.FileFunction,Legend,Top*
G04 #@! TF.FilePolarity,Positive*
%FSLAX46Y46*%
G04 Gerber Fmt 4.6, Leading zero omitted, Abs format (unit mm)*
G04 Created by KiCad (PCBNEW (5.1.4)-1) date 2020-07-30 17:55:39*
%MOMM*%
%LPD*%
G04 APERTURE LIST*
%ADD10C,0.120000*%
%ADD11C,0.100000*%
%ADD12C,0.150000*%
%ADD13C,0.152400*%
%ADD14C,0.050000*%
%ADD15C,0.127000*%
%ADD16C,0.090000*%
G04 APERTURE END LIST*
D10*
X122148600Y-73019920D02*
X121780300Y-73019920D01*
X122214640Y-77231240D02*
X121803160Y-77231240D01*
D11*
G36*
X122001280Y-75943460D02*
G01*
X121833640Y-75798680D01*
X122001280Y-75651360D01*
X122001280Y-75943460D01*
G37*
X122001280Y-75943460D02*
X121833640Y-75798680D01*
X122001280Y-75651360D01*
X122001280Y-75943460D01*
G36*
X122001280Y-74742040D02*
G01*
X121833640Y-74597260D01*
X122001280Y-74449940D01*
X122001280Y-74742040D01*
G37*
X122001280Y-74742040D02*
X121833640Y-74597260D01*
X122001280Y-74449940D01*
X122001280Y-74742040D01*
D10*
X122608340Y-75796140D02*
X121958100Y-75796140D01*
X122608340Y-77231240D02*
X122608340Y-75796140D01*
X122214640Y-77231240D02*
X122608340Y-77231240D01*
X122600720Y-74597260D02*
X121980960Y-74597260D01*
X122600720Y-73019920D02*
X122600720Y-74597260D01*
X122148600Y-73019920D02*
X122600720Y-73019920D01*
D12*
X119588066Y-77504413D02*
X119688066Y-77537746D01*
X119854733Y-77537746D01*
X119921400Y-77504413D01*
X119954733Y-77471080D01*
X119988066Y-77404413D01*
X119988066Y-77337746D01*
X119954733Y-77271080D01*
X119921400Y-77237746D01*
X119854733Y-77204413D01*
X119721400Y-77171080D01*
X119654733Y-77137746D01*
X119621400Y-77104413D01*
X119588066Y-77037746D01*
X119588066Y-76971080D01*
X119621400Y-76904413D01*
X119654733Y-76871080D01*
X119721400Y-76837746D01*
X119888066Y-76837746D01*
X119988066Y-76871080D01*
X120688066Y-77471080D02*
X120654733Y-77504413D01*
X120554733Y-77537746D01*
X120488066Y-77537746D01*
X120388066Y-77504413D01*
X120321400Y-77437746D01*
X120288066Y-77371080D01*
X120254733Y-77237746D01*
X120254733Y-77137746D01*
X120288066Y-77004413D01*
X120321400Y-76937746D01*
X120388066Y-76871080D01*
X120488066Y-76837746D01*
X120554733Y-76837746D01*
X120654733Y-76871080D01*
X120688066Y-76904413D01*
X121321400Y-77537746D02*
X120988066Y-77537746D01*
X120988066Y-76837746D01*
X119571400Y-73422469D02*
X119671400Y-73460564D01*
X119838066Y-73460564D01*
X119904733Y-73422469D01*
X119938066Y-73384374D01*
X119971400Y-73308183D01*
X119971400Y-73231993D01*
X119938066Y-73155802D01*
X119904733Y-73117707D01*
X119838066Y-73079612D01*
X119704733Y-73041517D01*
X119638066Y-73003421D01*
X119604733Y-72965326D01*
X119571400Y-72889136D01*
X119571400Y-72812945D01*
X119604733Y-72736755D01*
X119638066Y-72698660D01*
X119704733Y-72660564D01*
X119871400Y-72660564D01*
X119971400Y-72698660D01*
X120271400Y-73460564D02*
X120271400Y-72660564D01*
X120438066Y-72660564D01*
X120538066Y-72698660D01*
X120604733Y-72774850D01*
X120638066Y-72851040D01*
X120671400Y-73003421D01*
X120671400Y-73117707D01*
X120638066Y-73270088D01*
X120604733Y-73346279D01*
X120538066Y-73422469D01*
X120438066Y-73460564D01*
X120271400Y-73460564D01*
X120938066Y-73231993D02*
X121271400Y-73231993D01*
X120871400Y-73460564D02*
X121104733Y-72660564D01*
X121338066Y-73460564D01*
X99926553Y-75534726D02*
X100159886Y-76234726D01*
X100393220Y-75534726D01*
X100626553Y-76234726D02*
X100626553Y-75534726D01*
X101093220Y-75534726D02*
X101226553Y-75534726D01*
X101293220Y-75568060D01*
X101359886Y-75634726D01*
X101393220Y-75768060D01*
X101393220Y-76001393D01*
X101359886Y-76134726D01*
X101293220Y-76201393D01*
X101226553Y-76234726D01*
X101093220Y-76234726D01*
X101026553Y-76201393D01*
X100959886Y-76134726D01*
X100926553Y-76001393D01*
X100926553Y-75768060D01*
X100959886Y-75634726D01*
X101026553Y-75568060D01*
X101093220Y-75534726D01*
X100559886Y-74246946D02*
X100226553Y-74246946D01*
X100193220Y-74580280D01*
X100226553Y-74546946D01*
X100293220Y-74513613D01*
X100459886Y-74513613D01*
X100526553Y-74546946D01*
X100559886Y-74580280D01*
X100593220Y-74646946D01*
X100593220Y-74813613D01*
X100559886Y-74880280D01*
X100526553Y-74913613D01*
X100459886Y-74946946D01*
X100293220Y-74946946D01*
X100226553Y-74913613D01*
X100193220Y-74880280D01*
X100793220Y-74246946D02*
X101026553Y-74946946D01*
X101259886Y-74246946D01*
X100159886Y-72992500D02*
X100093220Y-72959166D01*
X99993220Y-72959166D01*
X99893220Y-72992500D01*
X99826553Y-73059166D01*
X99793220Y-73125833D01*
X99759886Y-73259166D01*
X99759886Y-73359166D01*
X99793220Y-73492500D01*
X99826553Y-73559166D01*
X99893220Y-73625833D01*
X99993220Y-73659166D01*
X100059886Y-73659166D01*
X100159886Y-73625833D01*
X100193220Y-73592500D01*
X100193220Y-73359166D01*
X100059886Y-73359166D01*
X100493220Y-73659166D02*
X100493220Y-72959166D01*
X100893220Y-73659166D01*
X100893220Y-72959166D01*
X101226553Y-73659166D02*
X101226553Y-72959166D01*
X101393220Y-72959166D01*
X101493220Y-72992500D01*
X101559886Y-73059166D01*
X101593220Y-73125833D01*
X101626553Y-73259166D01*
X101626553Y-73359166D01*
X101593220Y-73492500D01*
X101559886Y-73559166D01*
X101493220Y-73625833D01*
X101393220Y-73659166D01*
X101226553Y-73659166D01*
D13*
X100449380Y-69834760D02*
G75*
G03X100449380Y-69834760I-76200J0D01*
G01*
X103829633Y-67663060D02*
X102428527Y-67663060D01*
X102428527Y-72006460D02*
X103829633Y-72006460D01*
D14*
X107384054Y-66219384D02*
G75*
G03X107420600Y-66076320I36546J66864D01*
G01*
X111302800Y-65476120D02*
X107950000Y-65476120D01*
X107950000Y-68828920D02*
X111302800Y-68828920D01*
D15*
X108283640Y-69232620D02*
X109583640Y-69232620D01*
X109583640Y-69232620D02*
X109983640Y-69232620D01*
X109983640Y-70482620D02*
X109583640Y-70482620D01*
X109583640Y-70482620D02*
X108283640Y-70482620D01*
X109583640Y-69232620D02*
X109583640Y-70482620D01*
D10*
X97549680Y-76518900D02*
X98352150Y-76518900D01*
X98967210Y-76518900D02*
X99769680Y-76518900D01*
X97549680Y-74043900D02*
X97549680Y-76518900D01*
X99769680Y-74043900D02*
X99769680Y-76518900D01*
X97549680Y-74043900D02*
X98096209Y-74043900D01*
X99223151Y-74043900D02*
X99769680Y-74043900D01*
X97549680Y-73283900D02*
X97549680Y-72523900D01*
X97549680Y-72523900D02*
X98659680Y-72523900D01*
X119481580Y-76518420D02*
X120284050Y-76518420D01*
X120899110Y-76518420D02*
X121701580Y-76518420D01*
X119481580Y-75313420D02*
X119481580Y-76518420D01*
X121701580Y-75313420D02*
X121701580Y-76518420D01*
X119481580Y-75313420D02*
X120028109Y-75313420D01*
X121155051Y-75313420D02*
X121701580Y-75313420D01*
X119481580Y-74553420D02*
X119481580Y-73793420D01*
X119481580Y-73793420D02*
X120591580Y-73793420D01*
X113545939Y-68587080D02*
X113220381Y-68587080D01*
X113545939Y-67567080D02*
X113220381Y-67567080D01*
D11*
X113593140Y-70219800D02*
X113183140Y-70219800D01*
X113593140Y-68819800D02*
X113183140Y-68819800D01*
D12*
X102962413Y-70287140D02*
X102486222Y-70287140D01*
X102486222Y-69287140D01*
X103819556Y-70287140D02*
X103248127Y-70287140D01*
X103533841Y-70287140D02*
X103533841Y-69287140D01*
X103438603Y-69429998D01*
X103343365Y-69525236D01*
X103248127Y-69572855D01*
X101962413Y-70287140D02*
X101390984Y-70287140D01*
X101676699Y-70287140D02*
X101676699Y-69287140D01*
X101581460Y-69429998D01*
X101486222Y-69525236D01*
X101390984Y-69572855D01*
X102581460Y-69287140D02*
X102676699Y-69287140D01*
X102771937Y-69334760D01*
X102819556Y-69382379D01*
X102867175Y-69477617D01*
X102914794Y-69668093D01*
X102914794Y-69906188D01*
X102867175Y-70096664D01*
X102819556Y-70191902D01*
X102771937Y-70239521D01*
X102676699Y-70287140D01*
X102581460Y-70287140D01*
X102486222Y-70239521D01*
X102438603Y-70191902D01*
X102390984Y-70096664D01*
X102343365Y-69906188D01*
X102343365Y-69668093D01*
X102390984Y-69477617D01*
X102438603Y-69382379D01*
X102486222Y-69334760D01*
X102581460Y-69287140D01*
X103771937Y-69620474D02*
X103771937Y-70287140D01*
X103343365Y-69620474D02*
X103343365Y-70144283D01*
X103390984Y-70239521D01*
X103486222Y-70287140D01*
X103629080Y-70287140D01*
X103724318Y-70239521D01*
X103771937Y-70191902D01*
X104248127Y-70287140D02*
X104248127Y-69287140D01*
X104248127Y-69763331D02*
X104819556Y-69763331D01*
X104819556Y-70287140D02*
X104819556Y-69287140D01*
X103129080Y-69287140D02*
X103129080Y-69525236D01*
X102890984Y-69429998D02*
X103129080Y-69525236D01*
X103367175Y-69429998D01*
X102986222Y-69715712D02*
X103129080Y-69525236D01*
X103271937Y-69715712D01*
D14*
X116777594Y-69869520D02*
X116634737Y-69969520D01*
X116777594Y-70040948D02*
X116477594Y-70040948D01*
X116477594Y-69926662D01*
X116491880Y-69898091D01*
X116506165Y-69883805D01*
X116534737Y-69869520D01*
X116577594Y-69869520D01*
X116606165Y-69883805D01*
X116620451Y-69898091D01*
X116634737Y-69926662D01*
X116634737Y-70040948D01*
X116777594Y-69583805D02*
X116777594Y-69755234D01*
X116777594Y-69669520D02*
X116477594Y-69669520D01*
X116520451Y-69698091D01*
X116549022Y-69726662D01*
X116563308Y-69755234D01*
X106701414Y-68596980D02*
X106558557Y-68696980D01*
X106701414Y-68768408D02*
X106401414Y-68768408D01*
X106401414Y-68654122D01*
X106415700Y-68625551D01*
X106429985Y-68611265D01*
X106458557Y-68596980D01*
X106501414Y-68596980D01*
X106529985Y-68611265D01*
X106544271Y-68625551D01*
X106558557Y-68654122D01*
X106558557Y-68768408D01*
X106429985Y-68482694D02*
X106415700Y-68468408D01*
X106401414Y-68439837D01*
X106401414Y-68368408D01*
X106415700Y-68339837D01*
X106429985Y-68325551D01*
X106458557Y-68311265D01*
X106487128Y-68311265D01*
X106529985Y-68325551D01*
X106701414Y-68496980D01*
X106701414Y-68311265D01*
X105873374Y-68591900D02*
X105730517Y-68691900D01*
X105873374Y-68763328D02*
X105573374Y-68763328D01*
X105573374Y-68649042D01*
X105587660Y-68620471D01*
X105601945Y-68606185D01*
X105630517Y-68591900D01*
X105673374Y-68591900D01*
X105701945Y-68606185D01*
X105716231Y-68620471D01*
X105730517Y-68649042D01*
X105730517Y-68763328D01*
X105573374Y-68491900D02*
X105573374Y-68306185D01*
X105687660Y-68406185D01*
X105687660Y-68363328D01*
X105701945Y-68334757D01*
X105716231Y-68320471D01*
X105744802Y-68306185D01*
X105816231Y-68306185D01*
X105844802Y-68320471D01*
X105859088Y-68334757D01*
X105873374Y-68363328D01*
X105873374Y-68449042D01*
X105859088Y-68477614D01*
X105844802Y-68491900D01*
X109240348Y-65718234D02*
X109240348Y-65961091D01*
X109254634Y-65989662D01*
X109268920Y-66003948D01*
X109297491Y-66018234D01*
X109354634Y-66018234D01*
X109383205Y-66003948D01*
X109397491Y-65989662D01*
X109411777Y-65961091D01*
X109411777Y-65718234D01*
X109711777Y-66018234D02*
X109540348Y-66018234D01*
X109626062Y-66018234D02*
X109626062Y-65718234D01*
X109597491Y-65761091D01*
X109568920Y-65789662D01*
X109540348Y-65803948D01*
X107932111Y-65418794D02*
X107789254Y-65418794D01*
X107789254Y-65118794D01*
X108032111Y-65418794D02*
X108032111Y-65118794D01*
X108132111Y-65333080D01*
X108232111Y-65118794D01*
X108232111Y-65418794D01*
X108346397Y-65118794D02*
X108532111Y-65118794D01*
X108432111Y-65233080D01*
X108474968Y-65233080D01*
X108503540Y-65247365D01*
X108517825Y-65261651D01*
X108532111Y-65290222D01*
X108532111Y-65361651D01*
X108517825Y-65390222D01*
X108503540Y-65404508D01*
X108474968Y-65418794D01*
X108389254Y-65418794D01*
X108360682Y-65404508D01*
X108346397Y-65390222D01*
X108803540Y-65118794D02*
X108660682Y-65118794D01*
X108646397Y-65261651D01*
X108660682Y-65247365D01*
X108689254Y-65233080D01*
X108760682Y-65233080D01*
X108789254Y-65247365D01*
X108803540Y-65261651D01*
X108817825Y-65290222D01*
X108817825Y-65361651D01*
X108803540Y-65390222D01*
X108789254Y-65404508D01*
X108760682Y-65418794D01*
X108689254Y-65418794D01*
X108660682Y-65404508D01*
X108646397Y-65390222D01*
X109003540Y-65118794D02*
X109032111Y-65118794D01*
X109060682Y-65133080D01*
X109074968Y-65147365D01*
X109089254Y-65175937D01*
X109103540Y-65233080D01*
X109103540Y-65304508D01*
X109089254Y-65361651D01*
X109074968Y-65390222D01*
X109060682Y-65404508D01*
X109032111Y-65418794D01*
X109003540Y-65418794D01*
X108974968Y-65404508D01*
X108960682Y-65390222D01*
X108946397Y-65361651D01*
X108932111Y-65304508D01*
X108932111Y-65233080D01*
X108946397Y-65175937D01*
X108960682Y-65147365D01*
X108974968Y-65133080D01*
X109003540Y-65118794D01*
X109246397Y-65418794D02*
X109303540Y-65418794D01*
X109332111Y-65404508D01*
X109346397Y-65390222D01*
X109374968Y-65347365D01*
X109389254Y-65290222D01*
X109389254Y-65175937D01*
X109374968Y-65147365D01*
X109360682Y-65133080D01*
X109332111Y-65118794D01*
X109274968Y-65118794D01*
X109246397Y-65133080D01*
X109232111Y-65147365D01*
X109217825Y-65175937D01*
X109217825Y-65247365D01*
X109232111Y-65275937D01*
X109246397Y-65290222D01*
X109274968Y-65304508D01*
X109332111Y-65304508D01*
X109360682Y-65290222D01*
X109374968Y-65275937D01*
X109389254Y-65247365D01*
X109503540Y-65404508D02*
X109546397Y-65418794D01*
X109617825Y-65418794D01*
X109646397Y-65404508D01*
X109660682Y-65390222D01*
X109674968Y-65361651D01*
X109674968Y-65333080D01*
X109660682Y-65304508D01*
X109646397Y-65290222D01*
X109617825Y-65275937D01*
X109560682Y-65261651D01*
X109532111Y-65247365D01*
X109517825Y-65233080D01*
X109503540Y-65204508D01*
X109503540Y-65175937D01*
X109517825Y-65147365D01*
X109532111Y-65133080D01*
X109560682Y-65118794D01*
X109632111Y-65118794D01*
X109674968Y-65133080D01*
X109803540Y-65418794D02*
X109803540Y-65118794D01*
X109874968Y-65118794D01*
X109917825Y-65133080D01*
X109946397Y-65161651D01*
X109960682Y-65190222D01*
X109974968Y-65247365D01*
X109974968Y-65290222D01*
X109960682Y-65347365D01*
X109946397Y-65375937D01*
X109917825Y-65404508D01*
X109874968Y-65418794D01*
X109803540Y-65418794D01*
X110032111Y-65447365D02*
X110260682Y-65447365D01*
X110332111Y-65418794D02*
X110332111Y-65118794D01*
X110503540Y-65418794D01*
X110503540Y-65118794D01*
X110703540Y-65118794D02*
X110760682Y-65118794D01*
X110789254Y-65133080D01*
X110817825Y-65161651D01*
X110832111Y-65218794D01*
X110832111Y-65318794D01*
X110817825Y-65375937D01*
X110789254Y-65404508D01*
X110760682Y-65418794D01*
X110703540Y-65418794D01*
X110674968Y-65404508D01*
X110646397Y-65375937D01*
X110632111Y-65318794D01*
X110632111Y-65218794D01*
X110646397Y-65161651D01*
X110674968Y-65133080D01*
X110703540Y-65118794D01*
X110960682Y-65418794D02*
X110960682Y-65118794D01*
X111074968Y-65118794D01*
X111103540Y-65133080D01*
X111117825Y-65147365D01*
X111132111Y-65175937D01*
X111132111Y-65218794D01*
X111117825Y-65247365D01*
X111103540Y-65261651D01*
X111074968Y-65275937D01*
X110960682Y-65275937D01*
X111360682Y-65261651D02*
X111403540Y-65275937D01*
X111417825Y-65290222D01*
X111432111Y-65318794D01*
X111432111Y-65361651D01*
X111417825Y-65390222D01*
X111403540Y-65404508D01*
X111374968Y-65418794D01*
X111260682Y-65418794D01*
X111260682Y-65118794D01*
X111360682Y-65118794D01*
X111389254Y-65133080D01*
X111403540Y-65147365D01*
X111417825Y-65175937D01*
X111417825Y-65204508D01*
X111403540Y-65233080D01*
X111389254Y-65247365D01*
X111360682Y-65261651D01*
X111260682Y-65261651D01*
X109837220Y-65875714D02*
X109837220Y-65947142D01*
X109765791Y-65918571D02*
X109837220Y-65947142D01*
X109908648Y-65918571D01*
X109794362Y-66004285D02*
X109837220Y-65947142D01*
X109880077Y-66004285D01*
X107473954Y-70719774D02*
X107473954Y-70419774D01*
X107545382Y-70419774D01*
X107588240Y-70434060D01*
X107616811Y-70462631D01*
X107631097Y-70491202D01*
X107645382Y-70548345D01*
X107645382Y-70591202D01*
X107631097Y-70648345D01*
X107616811Y-70676917D01*
X107588240Y-70705488D01*
X107545382Y-70719774D01*
X107473954Y-70719774D01*
X107931097Y-70719774D02*
X107759668Y-70719774D01*
X107845382Y-70719774D02*
X107845382Y-70419774D01*
X107816811Y-70462631D01*
X107788240Y-70491202D01*
X107759668Y-70505488D01*
X108216811Y-70719774D02*
X108045382Y-70719774D01*
X108131097Y-70719774D02*
X108131097Y-70419774D01*
X108102525Y-70462631D01*
X108073954Y-70491202D01*
X108045382Y-70505488D01*
X117791054Y-69874600D02*
X117648197Y-69974600D01*
X117791054Y-70046028D02*
X117491054Y-70046028D01*
X117491054Y-69931742D01*
X117505340Y-69903171D01*
X117519625Y-69888885D01*
X117548197Y-69874600D01*
X117591054Y-69874600D01*
X117619625Y-69888885D01*
X117633911Y-69903171D01*
X117648197Y-69931742D01*
X117648197Y-70046028D01*
X117591054Y-69617457D02*
X117791054Y-69617457D01*
X117476768Y-69688885D02*
X117691054Y-69760314D01*
X117691054Y-69574600D01*
X97100720Y-74968254D02*
X97100720Y-75182540D01*
X97086434Y-75225397D01*
X97057862Y-75253968D01*
X97015005Y-75268254D01*
X96986434Y-75268254D01*
X97400720Y-75268254D02*
X97229291Y-75268254D01*
X97315005Y-75268254D02*
X97315005Y-74968254D01*
X97286434Y-75011111D01*
X97257862Y-75039682D01*
X97229291Y-75053968D01*
X121962240Y-74968254D02*
X121962240Y-75182540D01*
X121947954Y-75225397D01*
X121919382Y-75253968D01*
X121876525Y-75268254D01*
X121847954Y-75268254D01*
X122090811Y-74996825D02*
X122105097Y-74982540D01*
X122133668Y-74968254D01*
X122205097Y-74968254D01*
X122233668Y-74982540D01*
X122247954Y-74996825D01*
X122262240Y-75025397D01*
X122262240Y-75053968D01*
X122247954Y-75096825D01*
X122076525Y-75268254D01*
X122262240Y-75268254D01*
X113335800Y-67358722D02*
X113321514Y-67373008D01*
X113278657Y-67387294D01*
X113250085Y-67387294D01*
X113207228Y-67373008D01*
X113178657Y-67344437D01*
X113164371Y-67315865D01*
X113150085Y-67258722D01*
X113150085Y-67215865D01*
X113164371Y-67158722D01*
X113178657Y-67130151D01*
X113207228Y-67101580D01*
X113250085Y-67087294D01*
X113278657Y-67087294D01*
X113321514Y-67101580D01*
X113335800Y-67115865D01*
X113621514Y-67387294D02*
X113450085Y-67387294D01*
X113535800Y-67387294D02*
X113535800Y-67087294D01*
X113507228Y-67130151D01*
X113478657Y-67158722D01*
X113450085Y-67173008D01*
D16*
X113234806Y-69848371D02*
X113190997Y-69892180D01*
X113059568Y-69935990D01*
X112971949Y-69935990D01*
X112840520Y-69892180D01*
X112752901Y-69804561D01*
X112709092Y-69716942D01*
X112665282Y-69541704D01*
X112665282Y-69410276D01*
X112709092Y-69235038D01*
X112752901Y-69147419D01*
X112840520Y-69059800D01*
X112971949Y-69015990D01*
X113059568Y-69015990D01*
X113190997Y-69059800D01*
X113234806Y-69103609D01*
X113585282Y-69103609D02*
X113629092Y-69059800D01*
X113716711Y-69015990D01*
X113935759Y-69015990D01*
X114023378Y-69059800D01*
X114067187Y-69103609D01*
X114110997Y-69191228D01*
X114110997Y-69278847D01*
X114067187Y-69410276D01*
X113541473Y-69935990D01*
X114110997Y-69935990D01*
M02*
