G04 #@! TF.GenerationSoftware,KiCad,Pcbnew,(5.1.4)-1*
G04 #@! TF.CreationDate,2020-07-30T17:55:40-07:00*
G04 #@! TF.ProjectId,Kicad LED Rings,4b696361-6420-44c4-9544-2052696e6773,rev?*
G04 #@! TF.SameCoordinates,Original*
G04 #@! TF.FileFunction,Soldermask,Bot*
G04 #@! TF.FilePolarity,Negative*
%FSLAX46Y46*%
G04 Gerber Fmt 4.6, Leading zero omitted, Abs format (unit mm)*
G04 Created by KiCad (PCBNEW (5.1.4)-1) date 2020-07-30 17:55:40*
%MOMM*%
%LPD*%
G04 APERTURE LIST*
%ADD10C,0.100000*%
G04 APERTURE END LIST*
D10*
G36*
X110182717Y-92896994D02*
G01*
X110222127Y-92905641D01*
X110259091Y-92921809D01*
X110292189Y-92944877D01*
X110320153Y-92973961D01*
X110341902Y-93007937D01*
X110356608Y-93045510D01*
X110364141Y-93087698D01*
X110365938Y-93110526D01*
X110365938Y-93110528D01*
X110379056Y-93277204D01*
X110409938Y-93669601D01*
X110409097Y-93712444D01*
X110400450Y-93751857D01*
X110384284Y-93788815D01*
X110361214Y-93821916D01*
X110332130Y-93849880D01*
X110298154Y-93871629D01*
X110260581Y-93886335D01*
X110218393Y-93893868D01*
X110195575Y-93895664D01*
X110195563Y-93895666D01*
X109754173Y-93930403D01*
X109711258Y-93933781D01*
X109668415Y-93932940D01*
X109629005Y-93924293D01*
X109592041Y-93908125D01*
X109558943Y-93885057D01*
X109530979Y-93855973D01*
X109509230Y-93821997D01*
X109494524Y-93784424D01*
X109486991Y-93742236D01*
X109479478Y-93646770D01*
X109457171Y-93363335D01*
X109441194Y-93160333D01*
X109442035Y-93117490D01*
X109450682Y-93078077D01*
X109466848Y-93041119D01*
X109489918Y-93008018D01*
X109519002Y-92980054D01*
X109552978Y-92958305D01*
X109590551Y-92943599D01*
X109632739Y-92936066D01*
X109655557Y-92934270D01*
X109655569Y-92934268D01*
X110096959Y-92899531D01*
X110139874Y-92896153D01*
X110182717Y-92896994D01*
X110182717Y-92896994D01*
G37*
G36*
X111752861Y-92773420D02*
G01*
X111792271Y-92782067D01*
X111829235Y-92798235D01*
X111862333Y-92821303D01*
X111890297Y-92850387D01*
X111912046Y-92884363D01*
X111926752Y-92921936D01*
X111934285Y-92964124D01*
X111936082Y-92986952D01*
X111936082Y-92986954D01*
X111952842Y-93199917D01*
X111980082Y-93546027D01*
X111979241Y-93588870D01*
X111970594Y-93628283D01*
X111954428Y-93665241D01*
X111931358Y-93698342D01*
X111902274Y-93726306D01*
X111868298Y-93748055D01*
X111830725Y-93762761D01*
X111788537Y-93770294D01*
X111765719Y-93772090D01*
X111765707Y-93772092D01*
X111330752Y-93806323D01*
X111281402Y-93810207D01*
X111238559Y-93809366D01*
X111199149Y-93800719D01*
X111162185Y-93784551D01*
X111129087Y-93761483D01*
X111101123Y-93732399D01*
X111079374Y-93698423D01*
X111064668Y-93660850D01*
X111057135Y-93618662D01*
X111051487Y-93546892D01*
X111014590Y-93078077D01*
X111011338Y-93036759D01*
X111012179Y-92993916D01*
X111020826Y-92954503D01*
X111036992Y-92917545D01*
X111060062Y-92884444D01*
X111089146Y-92856480D01*
X111123122Y-92834731D01*
X111160695Y-92820025D01*
X111202883Y-92812492D01*
X111225701Y-92810696D01*
X111225713Y-92810694D01*
X111667103Y-92775957D01*
X111710018Y-92772579D01*
X111752861Y-92773420D01*
X111752861Y-92773420D01*
G37*
G36*
X106118798Y-92419506D02*
G01*
X106160657Y-92428690D01*
X106182440Y-92435768D01*
X106182441Y-92435768D01*
X106622685Y-92578812D01*
X106622696Y-92578817D01*
X106644474Y-92585893D01*
X106683728Y-92603063D01*
X106716827Y-92626132D01*
X106744790Y-92655215D01*
X106766542Y-92689194D01*
X106781247Y-92726765D01*
X106788339Y-92766481D01*
X106787547Y-92806815D01*
X106778363Y-92848673D01*
X106733938Y-92985398D01*
X106605561Y-93380505D01*
X106597985Y-93403819D01*
X106580816Y-93443072D01*
X106557746Y-93476173D01*
X106528662Y-93504137D01*
X106494686Y-93525886D01*
X106457113Y-93540592D01*
X106417397Y-93547684D01*
X106377064Y-93546892D01*
X106335205Y-93537708D01*
X106313421Y-93530630D01*
X105873177Y-93387586D01*
X105873166Y-93387581D01*
X105851388Y-93380505D01*
X105812134Y-93363335D01*
X105779035Y-93340266D01*
X105751072Y-93311183D01*
X105729320Y-93277204D01*
X105714615Y-93239633D01*
X105707523Y-93199917D01*
X105708315Y-93159583D01*
X105717499Y-93117725D01*
X105812780Y-92824481D01*
X105890797Y-92584368D01*
X105890798Y-92584365D01*
X105897877Y-92562579D01*
X105915046Y-92523326D01*
X105938116Y-92490225D01*
X105967200Y-92462261D01*
X106001176Y-92440512D01*
X106038749Y-92425806D01*
X106078465Y-92418714D01*
X106118798Y-92419506D01*
X106118798Y-92419506D01*
G37*
G36*
X104620884Y-91932804D02*
G01*
X104662743Y-91941988D01*
X104684526Y-91949066D01*
X104684527Y-91949066D01*
X105124771Y-92092110D01*
X105124782Y-92092115D01*
X105146560Y-92099191D01*
X105185814Y-92116361D01*
X105218913Y-92139430D01*
X105246876Y-92168513D01*
X105268628Y-92202492D01*
X105283333Y-92240063D01*
X105290425Y-92279779D01*
X105289633Y-92320113D01*
X105280449Y-92361971D01*
X105221694Y-92542799D01*
X105107647Y-92893803D01*
X105100071Y-92917117D01*
X105082902Y-92956370D01*
X105059832Y-92989471D01*
X105030748Y-93017435D01*
X104996772Y-93039184D01*
X104959199Y-93053890D01*
X104919483Y-93060982D01*
X104879150Y-93060190D01*
X104837291Y-93051006D01*
X104806862Y-93041119D01*
X104375263Y-92900884D01*
X104375252Y-92900879D01*
X104353474Y-92893803D01*
X104314220Y-92876633D01*
X104281121Y-92853564D01*
X104253158Y-92824481D01*
X104231406Y-92790502D01*
X104216701Y-92752931D01*
X104209609Y-92713215D01*
X104210401Y-92672881D01*
X104219585Y-92631023D01*
X104337585Y-92267857D01*
X104392883Y-92097666D01*
X104392884Y-92097663D01*
X104399963Y-92075877D01*
X104417132Y-92036624D01*
X104440202Y-92003523D01*
X104469286Y-91975559D01*
X104503262Y-91953810D01*
X104540835Y-91939104D01*
X104580551Y-91932012D01*
X104620884Y-91932804D01*
X104620884Y-91932804D01*
G37*
G36*
X115251902Y-91801005D02*
G01*
X115291315Y-91809652D01*
X115328273Y-91825818D01*
X115361374Y-91848888D01*
X115389338Y-91877972D01*
X115412441Y-91914063D01*
X115422838Y-91934469D01*
X115422839Y-91934470D01*
X115619334Y-92320113D01*
X115677435Y-92434144D01*
X115693057Y-92474056D01*
X115700149Y-92513772D01*
X115699357Y-92554105D01*
X115690710Y-92593518D01*
X115674544Y-92630476D01*
X115651474Y-92663577D01*
X115622390Y-92691541D01*
X115586299Y-92714644D01*
X115565893Y-92725041D01*
X115565892Y-92725042D01*
X115153445Y-92935194D01*
X115153442Y-92935195D01*
X115133043Y-92945589D01*
X115093131Y-92961211D01*
X115053415Y-92968303D01*
X115013082Y-92967511D01*
X114973669Y-92958864D01*
X114936711Y-92942698D01*
X114903610Y-92919628D01*
X114875646Y-92890544D01*
X114852543Y-92854453D01*
X114838116Y-92826138D01*
X114597944Y-92354774D01*
X114597943Y-92354771D01*
X114587549Y-92334372D01*
X114571927Y-92294460D01*
X114564835Y-92254744D01*
X114565627Y-92214411D01*
X114574274Y-92174998D01*
X114590440Y-92138040D01*
X114613510Y-92104939D01*
X114642594Y-92076975D01*
X114678685Y-92053872D01*
X114712536Y-92036624D01*
X115111539Y-91833322D01*
X115111542Y-91833321D01*
X115131941Y-91822927D01*
X115171853Y-91807305D01*
X115211569Y-91800213D01*
X115251902Y-91801005D01*
X115251902Y-91801005D01*
G37*
G36*
X116655238Y-91085969D02*
G01*
X116694651Y-91094616D01*
X116731609Y-91110782D01*
X116764710Y-91133852D01*
X116792674Y-91162936D01*
X116815777Y-91199027D01*
X116826174Y-91219433D01*
X116826175Y-91219434D01*
X116989363Y-91539708D01*
X117080771Y-91719108D01*
X117096393Y-91759020D01*
X117103485Y-91798736D01*
X117102693Y-91839069D01*
X117094046Y-91878482D01*
X117077880Y-91915440D01*
X117054810Y-91948541D01*
X117025726Y-91976505D01*
X116989635Y-91999608D01*
X116969229Y-92010005D01*
X116969228Y-92010006D01*
X116556781Y-92220158D01*
X116556778Y-92220159D01*
X116536379Y-92230553D01*
X116496467Y-92246175D01*
X116456751Y-92253267D01*
X116416418Y-92252475D01*
X116377005Y-92243828D01*
X116340047Y-92227662D01*
X116306946Y-92204592D01*
X116278982Y-92175508D01*
X116255879Y-92139417D01*
X116244131Y-92116361D01*
X116001280Y-91639738D01*
X116001279Y-91639735D01*
X115990885Y-91619336D01*
X115975263Y-91579424D01*
X115968171Y-91539708D01*
X115968963Y-91499375D01*
X115977610Y-91459962D01*
X115993776Y-91423004D01*
X116016846Y-91389903D01*
X116045930Y-91361939D01*
X116082021Y-91338836D01*
X116192928Y-91282326D01*
X116514875Y-91118286D01*
X116514878Y-91118285D01*
X116535277Y-91107891D01*
X116575189Y-91092269D01*
X116614905Y-91085177D01*
X116655238Y-91085969D01*
X116655238Y-91085969D01*
G37*
G36*
X101477182Y-90091506D02*
G01*
X101516595Y-90100153D01*
X101553553Y-90116319D01*
X101588714Y-90140825D01*
X101975534Y-90471200D01*
X102005238Y-90502094D01*
X102026987Y-90536070D01*
X102041693Y-90573643D01*
X102048785Y-90613359D01*
X102047993Y-90653692D01*
X102039346Y-90693105D01*
X102023180Y-90730063D01*
X101998674Y-90765224D01*
X101983805Y-90782634D01*
X101983801Y-90782639D01*
X101671314Y-91148514D01*
X101619590Y-91209075D01*
X101588696Y-91238779D01*
X101554720Y-91260528D01*
X101517147Y-91275234D01*
X101477431Y-91282326D01*
X101437098Y-91281534D01*
X101397685Y-91272887D01*
X101360727Y-91256721D01*
X101325566Y-91232215D01*
X100938746Y-90901840D01*
X100909042Y-90870946D01*
X100887293Y-90836970D01*
X100872587Y-90799397D01*
X100865495Y-90759681D01*
X100866287Y-90719348D01*
X100874934Y-90679935D01*
X100891100Y-90642977D01*
X100915606Y-90607816D01*
X100930475Y-90590406D01*
X100930479Y-90590401D01*
X101279817Y-90181379D01*
X101294690Y-90163965D01*
X101325584Y-90134261D01*
X101359560Y-90112512D01*
X101397133Y-90097806D01*
X101436849Y-90090714D01*
X101477182Y-90091506D01*
X101477182Y-90091506D01*
G37*
G36*
X100279542Y-89068626D02*
G01*
X100318955Y-89077273D01*
X100355913Y-89093439D01*
X100391074Y-89117945D01*
X100777894Y-89448320D01*
X100807598Y-89479214D01*
X100829347Y-89513190D01*
X100844053Y-89550763D01*
X100851145Y-89590479D01*
X100850353Y-89630812D01*
X100841706Y-89670225D01*
X100825540Y-89707183D01*
X100801034Y-89742344D01*
X100786165Y-89759754D01*
X100786161Y-89759759D01*
X100447997Y-90155698D01*
X100421950Y-90186195D01*
X100391056Y-90215899D01*
X100357080Y-90237648D01*
X100319507Y-90252354D01*
X100279791Y-90259446D01*
X100239458Y-90258654D01*
X100200045Y-90250007D01*
X100163087Y-90233841D01*
X100127926Y-90209335D01*
X99741106Y-89878960D01*
X99711402Y-89848066D01*
X99689653Y-89814090D01*
X99674947Y-89776517D01*
X99667855Y-89736801D01*
X99668647Y-89696468D01*
X99677294Y-89657055D01*
X99693460Y-89620097D01*
X99717966Y-89584936D01*
X99732835Y-89567526D01*
X99732839Y-89567521D01*
X100082177Y-89158499D01*
X100097050Y-89141085D01*
X100127944Y-89111381D01*
X100161920Y-89089632D01*
X100199493Y-89074926D01*
X100239209Y-89067834D01*
X100279542Y-89068626D01*
X100279542Y-89068626D01*
G37*
G36*
X119353892Y-88656507D02*
G01*
X119393305Y-88665154D01*
X119430263Y-88681320D01*
X119465424Y-88705826D01*
X119482834Y-88720695D01*
X119482839Y-88720699D01*
X119889282Y-89067834D01*
X119909275Y-89084910D01*
X119938979Y-89115804D01*
X119960728Y-89149780D01*
X119975434Y-89187353D01*
X119982526Y-89227069D01*
X119981734Y-89267402D01*
X119973087Y-89306815D01*
X119956921Y-89343773D01*
X119932415Y-89378934D01*
X119602040Y-89765754D01*
X119571146Y-89795458D01*
X119537170Y-89817207D01*
X119499597Y-89831913D01*
X119459881Y-89839005D01*
X119419548Y-89838213D01*
X119380135Y-89829566D01*
X119343177Y-89813400D01*
X119308016Y-89788894D01*
X119290606Y-89774025D01*
X119290601Y-89774021D01*
X118881579Y-89424683D01*
X118864165Y-89409810D01*
X118834461Y-89378916D01*
X118812712Y-89344940D01*
X118798006Y-89307367D01*
X118790914Y-89267651D01*
X118791706Y-89227318D01*
X118800353Y-89187905D01*
X118816519Y-89150947D01*
X118841025Y-89115786D01*
X119171400Y-88728966D01*
X119202294Y-88699262D01*
X119236270Y-88677513D01*
X119273843Y-88662807D01*
X119313559Y-88655715D01*
X119353892Y-88656507D01*
X119353892Y-88656507D01*
G37*
G36*
X120376772Y-87458867D02*
G01*
X120416185Y-87467514D01*
X120453143Y-87483680D01*
X120488304Y-87508186D01*
X120505714Y-87523055D01*
X120505719Y-87523059D01*
X120914741Y-87872397D01*
X120932155Y-87887270D01*
X120961859Y-87918164D01*
X120983608Y-87952140D01*
X120998314Y-87989713D01*
X121005406Y-88029429D01*
X121004614Y-88069762D01*
X120995967Y-88109175D01*
X120979801Y-88146133D01*
X120955295Y-88181294D01*
X120624920Y-88568114D01*
X120594026Y-88597818D01*
X120560050Y-88619567D01*
X120522477Y-88634273D01*
X120482761Y-88641365D01*
X120442428Y-88640573D01*
X120403015Y-88631926D01*
X120366057Y-88615760D01*
X120330896Y-88591254D01*
X120313486Y-88576385D01*
X120313481Y-88576381D01*
X119904459Y-88227043D01*
X119887045Y-88212170D01*
X119857341Y-88181276D01*
X119835592Y-88147300D01*
X119820886Y-88109727D01*
X119813794Y-88070011D01*
X119814586Y-88029678D01*
X119823233Y-87990265D01*
X119839399Y-87953307D01*
X119863905Y-87918146D01*
X120194280Y-87531326D01*
X120225174Y-87501622D01*
X120259150Y-87479873D01*
X120296723Y-87465167D01*
X120336439Y-87458075D01*
X120376772Y-87458867D01*
X120376772Y-87458867D01*
G37*
G36*
X98147185Y-86156983D02*
G01*
X98186598Y-86165630D01*
X98223556Y-86181796D01*
X98256657Y-86204866D01*
X98284621Y-86233950D01*
X98307724Y-86270041D01*
X98318121Y-86290447D01*
X98318122Y-86290448D01*
X98518895Y-86684487D01*
X98538669Y-86723297D01*
X98554291Y-86763209D01*
X98561383Y-86802925D01*
X98560591Y-86843258D01*
X98551944Y-86882671D01*
X98535778Y-86919629D01*
X98512708Y-86952730D01*
X98483624Y-86980694D01*
X98447533Y-87003797D01*
X98427127Y-87014194D01*
X98427126Y-87014195D01*
X97947854Y-87258396D01*
X97947851Y-87258397D01*
X97927452Y-87268791D01*
X97887540Y-87284413D01*
X97847824Y-87291505D01*
X97807491Y-87290713D01*
X97768078Y-87282066D01*
X97731120Y-87265900D01*
X97698019Y-87242830D01*
X97670055Y-87213746D01*
X97646952Y-87177655D01*
X97551201Y-86989733D01*
X97426402Y-86744801D01*
X97426401Y-86744798D01*
X97416007Y-86724399D01*
X97400385Y-86684487D01*
X97393293Y-86644771D01*
X97394085Y-86604438D01*
X97402732Y-86565025D01*
X97418898Y-86528067D01*
X97441968Y-86494966D01*
X97471052Y-86467002D01*
X97507143Y-86443899D01*
X97883305Y-86252235D01*
X98006822Y-86189300D01*
X98006825Y-86189299D01*
X98027224Y-86178905D01*
X98067136Y-86163283D01*
X98106852Y-86156191D01*
X98147185Y-86156983D01*
X98147185Y-86156983D01*
G37*
G36*
X97432149Y-84753647D02*
G01*
X97471562Y-84762294D01*
X97508520Y-84778460D01*
X97541621Y-84801530D01*
X97569585Y-84830614D01*
X97592688Y-84866705D01*
X97603085Y-84887111D01*
X97603086Y-84887112D01*
X97803859Y-85281151D01*
X97823633Y-85319961D01*
X97839255Y-85359873D01*
X97846347Y-85399589D01*
X97845555Y-85439922D01*
X97836908Y-85479335D01*
X97820742Y-85516293D01*
X97797672Y-85549394D01*
X97768588Y-85577358D01*
X97732497Y-85600461D01*
X97712091Y-85610858D01*
X97712090Y-85610859D01*
X97232818Y-85855060D01*
X97232815Y-85855061D01*
X97212416Y-85865455D01*
X97172504Y-85881077D01*
X97132788Y-85888169D01*
X97092455Y-85887377D01*
X97053042Y-85878730D01*
X97016084Y-85862564D01*
X96982983Y-85839494D01*
X96955019Y-85810410D01*
X96931916Y-85774319D01*
X96836165Y-85586397D01*
X96711366Y-85341465D01*
X96711365Y-85341462D01*
X96700971Y-85321063D01*
X96685349Y-85281151D01*
X96678257Y-85241435D01*
X96679049Y-85201102D01*
X96687696Y-85161689D01*
X96703862Y-85124731D01*
X96726932Y-85091630D01*
X96756016Y-85063666D01*
X96792107Y-85040563D01*
X97018628Y-84925145D01*
X97291786Y-84785964D01*
X97291789Y-84785963D01*
X97312188Y-84775569D01*
X97352100Y-84759947D01*
X97391816Y-84752855D01*
X97432149Y-84753647D01*
X97432149Y-84753647D01*
G37*
G36*
X122053985Y-84275721D02*
G01*
X122095843Y-84284905D01*
X122351482Y-84367967D01*
X122629200Y-84458203D01*
X122629203Y-84458204D01*
X122650989Y-84465283D01*
X122690242Y-84482452D01*
X122723343Y-84505522D01*
X122751307Y-84534606D01*
X122773056Y-84568582D01*
X122787762Y-84606155D01*
X122794854Y-84645871D01*
X122794062Y-84686204D01*
X122784878Y-84728063D01*
X122777800Y-84749846D01*
X122777800Y-84749847D01*
X122634756Y-85190091D01*
X122634751Y-85190102D01*
X122627675Y-85211880D01*
X122610505Y-85251134D01*
X122587436Y-85284233D01*
X122558353Y-85312196D01*
X122524374Y-85333948D01*
X122486803Y-85348653D01*
X122447087Y-85355745D01*
X122406753Y-85354953D01*
X122364895Y-85345769D01*
X121952827Y-85211880D01*
X121831538Y-85172471D01*
X121831535Y-85172470D01*
X121809749Y-85165391D01*
X121770496Y-85148222D01*
X121737395Y-85125152D01*
X121709431Y-85096068D01*
X121687682Y-85062092D01*
X121672976Y-85024519D01*
X121665884Y-84984803D01*
X121666676Y-84944470D01*
X121675860Y-84902611D01*
X121716199Y-84778460D01*
X121825982Y-84440583D01*
X121825987Y-84440572D01*
X121833063Y-84418794D01*
X121850233Y-84379540D01*
X121873302Y-84346441D01*
X121902385Y-84318478D01*
X121936364Y-84296726D01*
X121973935Y-84282021D01*
X122013651Y-84274929D01*
X122053985Y-84275721D01*
X122053985Y-84275721D01*
G37*
G36*
X122540687Y-82777807D02*
G01*
X122582545Y-82786991D01*
X122838184Y-82870053D01*
X123115902Y-82960289D01*
X123115905Y-82960290D01*
X123137691Y-82967369D01*
X123176944Y-82984538D01*
X123210045Y-83007608D01*
X123238009Y-83036692D01*
X123259758Y-83070668D01*
X123274464Y-83108241D01*
X123281556Y-83147957D01*
X123280764Y-83188290D01*
X123271580Y-83230149D01*
X123264502Y-83251932D01*
X123264502Y-83251933D01*
X123121458Y-83692177D01*
X123121453Y-83692188D01*
X123114377Y-83713966D01*
X123097207Y-83753220D01*
X123074138Y-83786319D01*
X123045055Y-83814282D01*
X123011076Y-83836034D01*
X122973505Y-83850739D01*
X122933789Y-83857831D01*
X122893455Y-83857039D01*
X122851597Y-83847855D01*
X122439529Y-83713966D01*
X122318240Y-83674557D01*
X122318237Y-83674556D01*
X122296451Y-83667477D01*
X122257198Y-83650308D01*
X122224097Y-83627238D01*
X122196133Y-83598154D01*
X122174384Y-83564178D01*
X122159678Y-83526605D01*
X122152586Y-83486889D01*
X122153378Y-83446556D01*
X122162562Y-83404697D01*
X122212198Y-83251933D01*
X122312684Y-82942669D01*
X122312689Y-82942658D01*
X122319765Y-82920880D01*
X122336935Y-82881626D01*
X122360004Y-82848527D01*
X122389087Y-82820564D01*
X122423066Y-82798812D01*
X122460637Y-82784107D01*
X122500353Y-82777015D01*
X122540687Y-82777807D01*
X122540687Y-82777807D01*
G37*
G36*
X96566743Y-81246847D02*
G01*
X96606073Y-81255836D01*
X96642894Y-81272327D01*
X96675790Y-81295683D01*
X96703496Y-81325007D01*
X96724950Y-81359176D01*
X96739326Y-81396871D01*
X96746491Y-81439123D01*
X96748088Y-81461966D01*
X96748089Y-81461970D01*
X96780379Y-81923742D01*
X96781976Y-81946584D01*
X96780761Y-81989428D01*
X96771772Y-82028757D01*
X96755281Y-82065579D01*
X96731925Y-82098475D01*
X96702601Y-82126181D01*
X96668432Y-82147635D01*
X96630737Y-82162011D01*
X96588485Y-82169176D01*
X96192019Y-82196899D01*
X96029048Y-82208295D01*
X96029046Y-82208295D01*
X96006207Y-82209892D01*
X95963363Y-82208677D01*
X95924033Y-82199688D01*
X95887212Y-82183197D01*
X95854316Y-82159841D01*
X95826610Y-82130517D01*
X95805156Y-82096348D01*
X95790780Y-82058653D01*
X95783615Y-82016401D01*
X95781729Y-81989428D01*
X95749727Y-81531782D01*
X95749727Y-81531779D01*
X95748130Y-81508940D01*
X95749345Y-81466096D01*
X95758334Y-81426767D01*
X95774825Y-81389945D01*
X95798181Y-81357049D01*
X95827505Y-81329343D01*
X95861674Y-81307889D01*
X95899369Y-81293513D01*
X95941621Y-81286348D01*
X96382859Y-81255494D01*
X96501058Y-81247229D01*
X96501060Y-81247229D01*
X96523899Y-81245632D01*
X96566743Y-81246847D01*
X96566743Y-81246847D01*
G37*
G36*
X96456877Y-79675683D02*
G01*
X96496207Y-79684672D01*
X96533028Y-79701163D01*
X96565924Y-79724519D01*
X96593630Y-79753843D01*
X96615084Y-79788012D01*
X96629460Y-79825707D01*
X96636625Y-79867959D01*
X96638222Y-79890802D01*
X96638223Y-79890806D01*
X96653613Y-80110896D01*
X96672110Y-80375420D01*
X96670895Y-80418264D01*
X96661906Y-80457593D01*
X96645415Y-80494415D01*
X96622059Y-80527311D01*
X96592735Y-80555017D01*
X96558566Y-80576471D01*
X96520871Y-80590847D01*
X96478619Y-80598012D01*
X96082153Y-80625735D01*
X95919182Y-80637131D01*
X95919180Y-80637131D01*
X95896341Y-80638728D01*
X95853497Y-80637513D01*
X95814167Y-80628524D01*
X95777346Y-80612033D01*
X95744450Y-80588677D01*
X95716744Y-80559353D01*
X95695290Y-80525184D01*
X95680914Y-80487489D01*
X95673749Y-80445237D01*
X95671863Y-80418264D01*
X95639861Y-79960618D01*
X95639861Y-79960615D01*
X95638264Y-79937776D01*
X95639479Y-79894932D01*
X95648468Y-79855603D01*
X95664959Y-79818781D01*
X95688315Y-79785885D01*
X95717639Y-79758179D01*
X95751808Y-79736725D01*
X95789503Y-79722349D01*
X95831755Y-79715184D01*
X96272993Y-79684330D01*
X96391192Y-79676065D01*
X96391194Y-79676065D01*
X96414033Y-79674468D01*
X96456877Y-79675683D01*
X96456877Y-79675683D01*
G37*
G36*
X123460364Y-79145681D02*
G01*
X123499777Y-79154328D01*
X123536735Y-79170494D01*
X123569836Y-79193564D01*
X123597800Y-79222648D01*
X123619549Y-79256624D01*
X123634255Y-79294197D01*
X123641788Y-79336385D01*
X123643584Y-79359203D01*
X123643586Y-79359215D01*
X123675243Y-79761468D01*
X123681701Y-79843520D01*
X123680860Y-79886363D01*
X123672213Y-79925773D01*
X123656045Y-79962737D01*
X123632977Y-79995835D01*
X123603893Y-80023799D01*
X123569917Y-80045548D01*
X123532344Y-80060254D01*
X123490156Y-80067787D01*
X123467328Y-80069584D01*
X123467326Y-80069584D01*
X123144034Y-80095028D01*
X122908253Y-80113584D01*
X122865410Y-80112743D01*
X122825997Y-80104096D01*
X122789039Y-80087930D01*
X122755938Y-80064860D01*
X122727974Y-80035776D01*
X122706225Y-80001800D01*
X122691519Y-79964227D01*
X122683986Y-79922039D01*
X122682190Y-79899221D01*
X122682188Y-79899209D01*
X122645870Y-79437736D01*
X122644073Y-79414904D01*
X122644914Y-79372061D01*
X122653561Y-79332651D01*
X122669729Y-79295687D01*
X122692797Y-79262589D01*
X122721881Y-79234625D01*
X122755857Y-79212876D01*
X122793430Y-79198170D01*
X122835618Y-79190637D01*
X122858446Y-79188840D01*
X122858448Y-79188840D01*
X123181740Y-79163396D01*
X123417521Y-79144840D01*
X123460364Y-79145681D01*
X123460364Y-79145681D01*
G37*
G36*
X123336790Y-77575537D02*
G01*
X123376203Y-77584184D01*
X123413161Y-77600350D01*
X123446262Y-77623420D01*
X123474226Y-77652504D01*
X123495975Y-77686480D01*
X123510681Y-77724053D01*
X123518214Y-77766241D01*
X123520010Y-77789059D01*
X123520012Y-77789071D01*
X123554749Y-78230461D01*
X123558127Y-78273376D01*
X123557286Y-78316219D01*
X123548639Y-78355629D01*
X123532471Y-78392593D01*
X123509403Y-78425691D01*
X123480319Y-78453655D01*
X123446343Y-78475404D01*
X123408770Y-78490110D01*
X123366582Y-78497643D01*
X123343754Y-78499440D01*
X123343752Y-78499440D01*
X123020460Y-78524884D01*
X122784679Y-78543440D01*
X122741836Y-78542599D01*
X122702423Y-78533952D01*
X122665465Y-78517786D01*
X122632364Y-78494716D01*
X122604400Y-78465632D01*
X122582651Y-78431656D01*
X122567945Y-78394083D01*
X122560412Y-78351895D01*
X122558616Y-78329077D01*
X122558614Y-78329065D01*
X122522296Y-77867592D01*
X122520499Y-77844760D01*
X122521340Y-77801917D01*
X122529987Y-77762507D01*
X122546155Y-77725543D01*
X122569223Y-77692445D01*
X122598307Y-77664481D01*
X122632283Y-77642732D01*
X122669856Y-77628026D01*
X122712044Y-77620493D01*
X122734872Y-77618696D01*
X122734874Y-77618696D01*
X123058166Y-77593252D01*
X123293947Y-77574696D01*
X123336790Y-77575537D01*
X123336790Y-77575537D01*
G37*
G36*
X96331405Y-75842921D02*
G01*
X96373263Y-75852105D01*
X96628902Y-75935167D01*
X96906620Y-76025403D01*
X96906623Y-76025404D01*
X96928409Y-76032483D01*
X96967662Y-76049652D01*
X97000763Y-76072722D01*
X97028727Y-76101806D01*
X97050476Y-76135782D01*
X97065182Y-76173355D01*
X97072274Y-76213071D01*
X97071482Y-76253404D01*
X97062298Y-76295263D01*
X97055220Y-76317046D01*
X97055220Y-76317047D01*
X96912176Y-76757291D01*
X96912171Y-76757302D01*
X96905095Y-76779080D01*
X96887925Y-76818334D01*
X96864856Y-76851433D01*
X96835773Y-76879396D01*
X96801794Y-76901148D01*
X96764223Y-76915853D01*
X96724507Y-76922945D01*
X96684173Y-76922153D01*
X96642315Y-76912969D01*
X96230247Y-76779080D01*
X96108958Y-76739671D01*
X96108955Y-76739670D01*
X96087169Y-76732591D01*
X96047916Y-76715422D01*
X96014815Y-76692352D01*
X95986851Y-76663268D01*
X95965102Y-76629292D01*
X95950396Y-76591719D01*
X95943304Y-76552003D01*
X95944096Y-76511670D01*
X95953280Y-76469811D01*
X95960358Y-76448027D01*
X96103402Y-76007783D01*
X96103407Y-76007772D01*
X96110483Y-75985994D01*
X96127653Y-75946740D01*
X96150722Y-75913641D01*
X96179805Y-75885678D01*
X96213784Y-75863926D01*
X96251355Y-75849221D01*
X96291071Y-75842129D01*
X96331405Y-75842921D01*
X96331405Y-75842921D01*
G37*
G36*
X98762676Y-75306102D02*
G01*
X98861715Y-75336145D01*
X98952989Y-75384932D01*
X99032991Y-75450589D01*
X99098648Y-75530591D01*
X99147435Y-75621865D01*
X99177478Y-75720904D01*
X99187622Y-75823900D01*
X99177478Y-75926896D01*
X99147435Y-76025935D01*
X99098648Y-76117209D01*
X99032991Y-76197211D01*
X98952989Y-76262868D01*
X98861715Y-76311655D01*
X98762676Y-76341698D01*
X98685490Y-76349300D01*
X98633870Y-76349300D01*
X98556684Y-76341698D01*
X98457645Y-76311655D01*
X98366371Y-76262868D01*
X98286369Y-76197211D01*
X98220712Y-76117209D01*
X98171925Y-76025935D01*
X98141882Y-75926896D01*
X98131738Y-75823900D01*
X98141882Y-75720904D01*
X98171925Y-75621865D01*
X98220712Y-75530591D01*
X98286369Y-75450589D01*
X98366371Y-75384932D01*
X98457645Y-75336145D01*
X98556684Y-75306102D01*
X98633870Y-75298500D01*
X98685490Y-75298500D01*
X98762676Y-75306102D01*
X98762676Y-75306102D01*
G37*
G36*
X120694576Y-75305622D02*
G01*
X120793615Y-75335665D01*
X120884889Y-75384452D01*
X120964891Y-75450109D01*
X121030548Y-75530111D01*
X121079335Y-75621385D01*
X121109378Y-75720424D01*
X121119522Y-75823420D01*
X121109378Y-75926416D01*
X121079335Y-76025455D01*
X121030548Y-76116729D01*
X120964891Y-76196731D01*
X120884889Y-76262388D01*
X120793615Y-76311175D01*
X120694576Y-76341218D01*
X120617390Y-76348820D01*
X120565770Y-76348820D01*
X120488584Y-76341218D01*
X120389545Y-76311175D01*
X120298271Y-76262388D01*
X120218269Y-76196731D01*
X120152612Y-76116729D01*
X120103825Y-76025455D01*
X120073782Y-75926416D01*
X120063638Y-75823420D01*
X120073782Y-75720424D01*
X120103825Y-75621385D01*
X120152612Y-75530111D01*
X120218269Y-75450109D01*
X120298271Y-75384452D01*
X120389545Y-75335665D01*
X120488584Y-75305622D01*
X120565770Y-75298020D01*
X120617390Y-75298020D01*
X120694576Y-75305622D01*
X120694576Y-75305622D01*
G37*
G36*
X96818107Y-74345007D02*
G01*
X96859965Y-74354191D01*
X97115604Y-74437253D01*
X97393322Y-74527489D01*
X97393325Y-74527490D01*
X97415111Y-74534569D01*
X97454364Y-74551738D01*
X97487465Y-74574808D01*
X97515429Y-74603892D01*
X97537178Y-74637868D01*
X97551884Y-74675441D01*
X97558976Y-74715157D01*
X97558184Y-74755490D01*
X97549000Y-74797349D01*
X97541922Y-74819132D01*
X97541922Y-74819133D01*
X97398878Y-75259377D01*
X97398873Y-75259388D01*
X97391797Y-75281166D01*
X97374627Y-75320420D01*
X97351558Y-75353519D01*
X97322475Y-75381482D01*
X97288496Y-75403234D01*
X97250925Y-75417939D01*
X97211209Y-75425031D01*
X97170875Y-75424239D01*
X97129017Y-75415055D01*
X96777826Y-75300946D01*
X96595660Y-75241757D01*
X96595657Y-75241756D01*
X96573871Y-75234677D01*
X96534618Y-75217508D01*
X96501517Y-75194438D01*
X96473553Y-75165354D01*
X96451804Y-75131378D01*
X96437098Y-75093805D01*
X96430006Y-75054089D01*
X96430798Y-75013756D01*
X96439982Y-74971897D01*
X96447060Y-74950113D01*
X96590104Y-74509869D01*
X96590109Y-74509858D01*
X96597185Y-74488080D01*
X96614355Y-74448826D01*
X96637424Y-74415727D01*
X96666507Y-74387764D01*
X96700486Y-74366012D01*
X96738057Y-74351307D01*
X96777773Y-74344215D01*
X96818107Y-74345007D01*
X96818107Y-74345007D01*
G37*
G36*
X98762676Y-74036102D02*
G01*
X98861715Y-74066145D01*
X98952989Y-74114932D01*
X99032991Y-74180589D01*
X99098648Y-74260591D01*
X99147435Y-74351865D01*
X99177478Y-74450904D01*
X99187622Y-74553900D01*
X99177478Y-74656896D01*
X99147435Y-74755935D01*
X99098648Y-74847209D01*
X99032991Y-74927211D01*
X98952989Y-74992868D01*
X98861715Y-75041655D01*
X98762676Y-75071698D01*
X98685490Y-75079300D01*
X98633870Y-75079300D01*
X98556684Y-75071698D01*
X98457645Y-75041655D01*
X98366371Y-74992868D01*
X98286369Y-74927211D01*
X98220712Y-74847209D01*
X98171925Y-74755935D01*
X98141882Y-74656896D01*
X98131738Y-74553900D01*
X98141882Y-74450904D01*
X98171925Y-74351865D01*
X98220712Y-74260591D01*
X98286369Y-74180589D01*
X98366371Y-74114932D01*
X98457645Y-74066145D01*
X98556684Y-74036102D01*
X98633870Y-74028500D01*
X98685490Y-74028500D01*
X98762676Y-74036102D01*
X98762676Y-74036102D01*
G37*
G36*
X121116980Y-75078820D02*
G01*
X120066180Y-75078820D01*
X120066180Y-74028020D01*
X121116980Y-74028020D01*
X121116980Y-75078820D01*
X121116980Y-75078820D01*
G37*
G36*
X122231525Y-73873387D02*
G01*
X122270938Y-73882034D01*
X122307896Y-73898200D01*
X122340997Y-73921270D01*
X122368961Y-73950354D01*
X122392064Y-73986445D01*
X122402461Y-74006851D01*
X122402462Y-74006852D01*
X122603235Y-74400891D01*
X122623009Y-74439701D01*
X122638631Y-74479613D01*
X122645723Y-74519329D01*
X122644931Y-74559662D01*
X122636284Y-74599075D01*
X122620118Y-74636033D01*
X122597048Y-74669134D01*
X122567964Y-74697098D01*
X122531873Y-74720201D01*
X122511467Y-74730598D01*
X122511466Y-74730599D01*
X122032194Y-74974800D01*
X122032191Y-74974801D01*
X122011792Y-74985195D01*
X121971880Y-75000817D01*
X121932164Y-75007909D01*
X121891831Y-75007117D01*
X121852418Y-74998470D01*
X121815460Y-74982304D01*
X121782359Y-74959234D01*
X121754395Y-74930150D01*
X121731292Y-74894059D01*
X121635541Y-74706137D01*
X121510742Y-74461205D01*
X121510741Y-74461202D01*
X121500347Y-74440803D01*
X121484725Y-74400891D01*
X121477633Y-74361175D01*
X121478425Y-74320842D01*
X121487072Y-74281429D01*
X121503238Y-74244471D01*
X121526308Y-74211370D01*
X121555392Y-74183406D01*
X121591483Y-74160303D01*
X121680525Y-74114934D01*
X122091162Y-73905704D01*
X122091165Y-73905703D01*
X122111564Y-73895309D01*
X122151476Y-73879687D01*
X122191192Y-73872595D01*
X122231525Y-73873387D01*
X122231525Y-73873387D01*
G37*
G36*
X99185080Y-73809300D02*
G01*
X98134280Y-73809300D01*
X98134280Y-72758500D01*
X99185080Y-72758500D01*
X99185080Y-73809300D01*
X99185080Y-73809300D01*
G37*
G36*
X121516489Y-72470051D02*
G01*
X121555902Y-72478698D01*
X121592860Y-72494864D01*
X121625961Y-72517934D01*
X121653925Y-72547018D01*
X121677028Y-72583109D01*
X121687425Y-72603515D01*
X121687426Y-72603516D01*
X121888199Y-72997555D01*
X121907973Y-73036365D01*
X121923595Y-73076277D01*
X121930687Y-73115993D01*
X121929895Y-73156326D01*
X121921248Y-73195739D01*
X121905082Y-73232697D01*
X121882012Y-73265798D01*
X121852928Y-73293762D01*
X121816837Y-73316865D01*
X121796431Y-73327262D01*
X121796430Y-73327263D01*
X121317158Y-73571464D01*
X121317155Y-73571465D01*
X121296756Y-73581859D01*
X121256844Y-73597481D01*
X121217128Y-73604573D01*
X121176795Y-73603781D01*
X121137382Y-73595134D01*
X121100424Y-73578968D01*
X121067323Y-73555898D01*
X121039359Y-73526814D01*
X121016256Y-73490723D01*
X120920505Y-73302801D01*
X120795706Y-73057869D01*
X120795705Y-73057866D01*
X120785311Y-73037467D01*
X120769689Y-72997555D01*
X120762597Y-72957839D01*
X120763389Y-72917506D01*
X120772036Y-72878093D01*
X120788202Y-72841135D01*
X120811272Y-72808034D01*
X120840356Y-72780070D01*
X120876447Y-72756967D01*
X121252609Y-72565303D01*
X121376126Y-72502368D01*
X121376129Y-72502367D01*
X121396528Y-72491973D01*
X121436440Y-72476351D01*
X121476156Y-72469259D01*
X121516489Y-72470051D01*
X121516489Y-72470051D01*
G37*
G36*
X98824686Y-71111581D02*
G01*
X98863286Y-71123327D01*
X98901061Y-71143560D01*
X99386109Y-71468271D01*
X99419213Y-71495487D01*
X99444783Y-71526701D01*
X99463767Y-71562291D01*
X99475446Y-71600914D01*
X99479366Y-71641069D01*
X99475377Y-71681212D01*
X99463631Y-71719812D01*
X99443398Y-71757587D01*
X99160409Y-72180311D01*
X99133192Y-72213416D01*
X99101982Y-72238984D01*
X99066387Y-72257969D01*
X99027766Y-72269648D01*
X98987611Y-72273568D01*
X98947468Y-72269579D01*
X98908868Y-72257833D01*
X98871093Y-72237600D01*
X98386045Y-71912889D01*
X98352941Y-71885673D01*
X98327371Y-71854459D01*
X98308387Y-71818869D01*
X98296708Y-71780246D01*
X98292788Y-71740091D01*
X98296777Y-71699948D01*
X98308523Y-71661348D01*
X98328756Y-71623573D01*
X98611745Y-71200849D01*
X98638962Y-71167744D01*
X98670172Y-71142176D01*
X98705767Y-71123191D01*
X98744388Y-71111512D01*
X98784543Y-71107592D01*
X98824686Y-71111581D01*
X98824686Y-71111581D01*
G37*
G36*
X99700852Y-69802781D02*
G01*
X99739452Y-69814527D01*
X99777227Y-69834760D01*
X100262275Y-70159471D01*
X100295379Y-70186687D01*
X100320949Y-70217901D01*
X100339933Y-70253491D01*
X100351612Y-70292114D01*
X100355532Y-70332269D01*
X100351543Y-70372412D01*
X100339797Y-70411012D01*
X100319564Y-70448787D01*
X100036575Y-70871511D01*
X100009358Y-70904616D01*
X99978148Y-70930184D01*
X99942553Y-70949169D01*
X99903932Y-70960848D01*
X99863777Y-70964768D01*
X99823634Y-70960779D01*
X99785034Y-70949033D01*
X99747259Y-70928800D01*
X99262211Y-70604089D01*
X99229107Y-70576873D01*
X99203537Y-70545659D01*
X99184553Y-70510069D01*
X99172874Y-70471446D01*
X99168954Y-70431291D01*
X99172943Y-70391148D01*
X99184689Y-70352548D01*
X99204922Y-70314773D01*
X99487911Y-69892049D01*
X99515128Y-69858944D01*
X99546338Y-69833376D01*
X99581933Y-69814391D01*
X99620554Y-69802712D01*
X99660709Y-69798792D01*
X99700852Y-69802781D01*
X99700852Y-69802781D01*
G37*
G36*
X119074302Y-69598786D02*
G01*
X119113715Y-69607433D01*
X119150673Y-69623599D01*
X119185834Y-69648105D01*
X119572654Y-69978480D01*
X119602358Y-70009374D01*
X119624107Y-70043350D01*
X119638813Y-70080923D01*
X119645905Y-70120639D01*
X119645113Y-70160972D01*
X119636466Y-70200385D01*
X119620300Y-70237343D01*
X119595794Y-70272504D01*
X119580925Y-70289914D01*
X119580921Y-70289919D01*
X119312594Y-70604089D01*
X119216710Y-70716355D01*
X119185816Y-70746059D01*
X119151840Y-70767808D01*
X119114267Y-70782514D01*
X119074551Y-70789606D01*
X119034218Y-70788814D01*
X118994805Y-70780167D01*
X118957847Y-70764001D01*
X118922686Y-70739495D01*
X118535866Y-70409120D01*
X118506162Y-70378226D01*
X118484413Y-70344250D01*
X118469707Y-70306677D01*
X118462615Y-70266961D01*
X118463407Y-70226628D01*
X118472054Y-70187215D01*
X118488220Y-70150257D01*
X118512726Y-70115096D01*
X118527595Y-70097686D01*
X118527599Y-70097681D01*
X118876937Y-69688659D01*
X118891810Y-69671245D01*
X118922704Y-69641541D01*
X118956680Y-69619792D01*
X118994253Y-69605086D01*
X119033969Y-69597994D01*
X119074302Y-69598786D01*
X119074302Y-69598786D01*
G37*
G36*
X117876662Y-68575906D02*
G01*
X117916075Y-68584553D01*
X117953033Y-68600719D01*
X117988194Y-68625225D01*
X118375014Y-68955600D01*
X118404718Y-68986494D01*
X118426467Y-69020470D01*
X118441173Y-69058043D01*
X118448265Y-69097759D01*
X118447473Y-69138092D01*
X118438826Y-69177505D01*
X118422660Y-69214463D01*
X118398154Y-69249624D01*
X118383285Y-69267034D01*
X118383281Y-69267039D01*
X118045117Y-69662978D01*
X118019070Y-69693475D01*
X117988176Y-69723179D01*
X117954200Y-69744928D01*
X117916627Y-69759634D01*
X117876911Y-69766726D01*
X117836578Y-69765934D01*
X117797165Y-69757287D01*
X117760207Y-69741121D01*
X117725046Y-69716615D01*
X117338226Y-69386240D01*
X117308522Y-69355346D01*
X117286773Y-69321370D01*
X117272067Y-69283797D01*
X117264975Y-69244081D01*
X117265767Y-69203748D01*
X117274414Y-69164335D01*
X117290580Y-69127377D01*
X117315086Y-69092216D01*
X117329955Y-69074806D01*
X117329959Y-69074801D01*
X117679297Y-68665779D01*
X117694170Y-68648365D01*
X117725064Y-68618661D01*
X117759040Y-68596912D01*
X117796613Y-68582206D01*
X117836329Y-68575114D01*
X117876662Y-68575906D01*
X117876662Y-68575906D01*
G37*
G36*
X102966078Y-67665985D02*
G01*
X103005491Y-67674632D01*
X103042449Y-67690798D01*
X103075550Y-67713868D01*
X103103514Y-67742952D01*
X103126617Y-67779043D01*
X103137014Y-67799449D01*
X103137015Y-67799450D01*
X103300203Y-68119724D01*
X103391611Y-68299124D01*
X103407233Y-68339036D01*
X103414325Y-68378752D01*
X103413533Y-68419085D01*
X103404886Y-68458498D01*
X103388720Y-68495456D01*
X103365650Y-68528557D01*
X103336566Y-68556521D01*
X103300475Y-68579624D01*
X103280069Y-68590021D01*
X103280068Y-68590022D01*
X102867621Y-68800174D01*
X102867618Y-68800175D01*
X102847219Y-68810569D01*
X102807307Y-68826191D01*
X102767591Y-68833283D01*
X102727258Y-68832491D01*
X102687845Y-68823844D01*
X102650887Y-68807678D01*
X102617786Y-68784608D01*
X102589822Y-68755524D01*
X102566719Y-68719433D01*
X102506231Y-68600719D01*
X102312120Y-68219754D01*
X102312119Y-68219751D01*
X102301725Y-68199352D01*
X102286103Y-68159440D01*
X102279011Y-68119724D01*
X102279803Y-68079391D01*
X102288450Y-68039978D01*
X102304616Y-68003020D01*
X102327686Y-67969919D01*
X102356770Y-67941955D01*
X102392861Y-67918852D01*
X102483563Y-67872637D01*
X102825715Y-67698302D01*
X102825718Y-67698301D01*
X102846117Y-67687907D01*
X102886029Y-67672285D01*
X102925745Y-67665193D01*
X102966078Y-67665985D01*
X102966078Y-67665985D01*
G37*
G36*
X104369414Y-66950949D02*
G01*
X104408827Y-66959596D01*
X104445785Y-66975762D01*
X104478886Y-66998832D01*
X104506850Y-67027916D01*
X104529953Y-67064007D01*
X104540350Y-67084413D01*
X104540351Y-67084414D01*
X104703539Y-67404688D01*
X104794947Y-67584088D01*
X104810569Y-67624000D01*
X104817661Y-67663716D01*
X104816869Y-67704049D01*
X104808222Y-67743462D01*
X104792056Y-67780420D01*
X104768986Y-67813521D01*
X104739902Y-67841485D01*
X104703811Y-67864588D01*
X104683405Y-67874985D01*
X104683404Y-67874986D01*
X104270957Y-68085138D01*
X104270954Y-68085139D01*
X104250555Y-68095533D01*
X104210643Y-68111155D01*
X104170927Y-68118247D01*
X104130594Y-68117455D01*
X104091181Y-68108808D01*
X104054223Y-68092642D01*
X104021122Y-68069572D01*
X103993158Y-68040488D01*
X103970055Y-68004397D01*
X103959657Y-67983990D01*
X103715456Y-67504718D01*
X103715455Y-67504715D01*
X103705061Y-67484316D01*
X103689439Y-67444404D01*
X103682347Y-67404688D01*
X103683139Y-67364355D01*
X103691786Y-67324942D01*
X103707952Y-67287984D01*
X103731022Y-67254883D01*
X103760106Y-67226919D01*
X103796197Y-67203816D01*
X103842811Y-67180065D01*
X104229051Y-66983266D01*
X104229054Y-66983265D01*
X104249453Y-66972871D01*
X104289365Y-66957249D01*
X104329081Y-66950157D01*
X104369414Y-66950949D01*
X104369414Y-66950949D01*
G37*
G36*
X114493104Y-66750898D02*
G01*
X114534963Y-66760082D01*
X114556746Y-66767160D01*
X114556747Y-66767160D01*
X114996991Y-66910204D01*
X114997002Y-66910209D01*
X115018780Y-66917285D01*
X115058034Y-66934455D01*
X115091133Y-66957524D01*
X115119096Y-66986607D01*
X115140848Y-67020586D01*
X115155553Y-67058157D01*
X115162645Y-67097873D01*
X115161853Y-67138207D01*
X115152669Y-67180065D01*
X115075424Y-67417801D01*
X114979867Y-67711897D01*
X114972291Y-67735211D01*
X114955122Y-67774464D01*
X114932052Y-67807565D01*
X114902968Y-67835529D01*
X114868992Y-67857278D01*
X114831419Y-67871984D01*
X114791703Y-67879076D01*
X114751370Y-67878284D01*
X114709511Y-67869100D01*
X114687727Y-67862022D01*
X114247483Y-67718978D01*
X114247472Y-67718973D01*
X114225694Y-67711897D01*
X114186440Y-67694727D01*
X114153341Y-67671658D01*
X114125378Y-67642575D01*
X114103626Y-67608596D01*
X114088921Y-67571025D01*
X114081829Y-67531309D01*
X114082621Y-67490975D01*
X114091805Y-67449117D01*
X114187086Y-67155873D01*
X114265103Y-66915760D01*
X114265104Y-66915757D01*
X114272183Y-66893971D01*
X114289352Y-66854718D01*
X114312422Y-66821617D01*
X114341506Y-66793653D01*
X114375482Y-66771904D01*
X114413055Y-66757198D01*
X114452771Y-66750106D01*
X114493104Y-66750898D01*
X114493104Y-66750898D01*
G37*
G36*
X112995190Y-66264196D02*
G01*
X113037049Y-66273380D01*
X113058832Y-66280458D01*
X113058833Y-66280458D01*
X113499077Y-66423502D01*
X113499088Y-66423507D01*
X113520866Y-66430583D01*
X113560120Y-66447753D01*
X113593219Y-66470822D01*
X113621182Y-66499905D01*
X113642934Y-66533884D01*
X113657639Y-66571455D01*
X113664731Y-66611171D01*
X113663939Y-66651505D01*
X113654755Y-66693363D01*
X113599508Y-66863396D01*
X113481953Y-67225195D01*
X113474377Y-67248509D01*
X113457208Y-67287762D01*
X113434138Y-67320863D01*
X113405054Y-67348827D01*
X113371078Y-67370576D01*
X113333505Y-67385282D01*
X113293789Y-67392374D01*
X113253456Y-67391582D01*
X113211597Y-67382398D01*
X113189813Y-67375320D01*
X112749569Y-67232276D01*
X112749558Y-67232271D01*
X112727780Y-67225195D01*
X112688526Y-67208025D01*
X112655427Y-67184956D01*
X112627464Y-67155873D01*
X112605712Y-67121894D01*
X112591007Y-67084323D01*
X112583915Y-67044607D01*
X112584707Y-67004273D01*
X112593891Y-66962415D01*
X112708017Y-66611171D01*
X112767189Y-66429058D01*
X112767190Y-66429055D01*
X112774269Y-66407269D01*
X112791438Y-66368016D01*
X112814508Y-66334915D01*
X112843592Y-66306951D01*
X112877568Y-66285202D01*
X112915141Y-66270496D01*
X112954857Y-66263404D01*
X112995190Y-66264196D01*
X112995190Y-66264196D01*
G37*
G36*
X108062159Y-66018154D02*
G01*
X108101569Y-66026801D01*
X108138533Y-66042969D01*
X108171631Y-66066037D01*
X108199595Y-66095121D01*
X108221344Y-66129097D01*
X108236050Y-66166670D01*
X108243583Y-66208858D01*
X108245380Y-66231686D01*
X108245380Y-66231688D01*
X108251303Y-66306951D01*
X108289380Y-66790761D01*
X108288539Y-66833604D01*
X108279892Y-66873017D01*
X108263726Y-66909975D01*
X108240656Y-66943076D01*
X108211572Y-66971040D01*
X108177596Y-66992789D01*
X108140023Y-67007495D01*
X108097835Y-67015028D01*
X108075017Y-67016824D01*
X108075005Y-67016826D01*
X107633615Y-67051563D01*
X107590700Y-67054941D01*
X107547857Y-67054100D01*
X107508447Y-67045453D01*
X107471483Y-67029285D01*
X107438385Y-67006217D01*
X107410421Y-66977133D01*
X107388672Y-66943157D01*
X107373966Y-66905584D01*
X107366433Y-66863396D01*
X107358920Y-66767930D01*
X107333721Y-66447753D01*
X107320636Y-66281493D01*
X107321477Y-66238650D01*
X107330124Y-66199237D01*
X107346290Y-66162279D01*
X107369360Y-66129178D01*
X107398444Y-66101214D01*
X107432420Y-66079465D01*
X107469993Y-66064759D01*
X107512181Y-66057226D01*
X107534999Y-66055430D01*
X107535011Y-66055428D01*
X107976401Y-66020691D01*
X108019316Y-66017313D01*
X108062159Y-66018154D01*
X108062159Y-66018154D01*
G37*
G36*
X109632303Y-65894580D02*
G01*
X109671713Y-65903227D01*
X109708677Y-65919395D01*
X109741775Y-65942463D01*
X109769739Y-65971547D01*
X109791488Y-66005523D01*
X109806194Y-66043096D01*
X109813727Y-66085284D01*
X109815524Y-66108112D01*
X109815524Y-66108114D01*
X109834582Y-66350265D01*
X109859524Y-66667187D01*
X109858683Y-66710030D01*
X109850036Y-66749443D01*
X109833870Y-66786401D01*
X109810800Y-66819502D01*
X109781716Y-66847466D01*
X109747740Y-66869215D01*
X109710167Y-66883921D01*
X109667979Y-66891454D01*
X109645161Y-66893250D01*
X109645149Y-66893252D01*
X109210194Y-66927483D01*
X109160844Y-66931367D01*
X109118001Y-66930526D01*
X109078591Y-66921879D01*
X109041627Y-66905711D01*
X109008529Y-66882643D01*
X108980565Y-66853559D01*
X108958816Y-66819583D01*
X108944110Y-66782010D01*
X108936577Y-66739822D01*
X108932921Y-66693363D01*
X108901518Y-66294357D01*
X108890780Y-66157919D01*
X108891621Y-66115076D01*
X108900268Y-66075663D01*
X108916434Y-66038705D01*
X108939504Y-66005604D01*
X108968588Y-65977640D01*
X109002564Y-65955891D01*
X109040137Y-65941185D01*
X109082325Y-65933652D01*
X109105143Y-65931856D01*
X109105155Y-65931854D01*
X109546545Y-65897117D01*
X109589460Y-65893739D01*
X109632303Y-65894580D01*
X109632303Y-65894580D01*
G37*
M02*
