G04 #@! TF.GenerationSoftware,KiCad,Pcbnew,(5.1.4)-1*
G04 #@! TF.CreationDate,2020-07-30T17:41:21-07:00*
G04 #@! TF.ProjectId,Kicad LED Rings,4b696361-6420-44c4-9544-2052696e6773,rev?*
G04 #@! TF.SameCoordinates,Original*
G04 #@! TF.FileFunction,Legend,Bot*
G04 #@! TF.FilePolarity,Positive*
%FSLAX46Y46*%
G04 Gerber Fmt 4.6, Leading zero omitted, Abs format (unit mm)*
G04 Created by KiCad (PCBNEW (5.1.4)-1) date 2020-07-30 17:41:21*
%MOMM*%
%LPD*%
G04 APERTURE LIST*
%ADD10C,0.010000*%
%ADD11C,0.100000*%
G04 APERTURE END LIST*
D10*
G36*
X102100353Y-86738037D02*
G01*
X102040500Y-86681579D01*
X101961549Y-86657119D01*
X101880522Y-86671235D01*
X101832127Y-86707098D01*
X101789926Y-86790053D01*
X101800460Y-86877790D01*
X101841864Y-86937709D01*
X101921583Y-86985229D01*
X102004232Y-86985622D01*
X102074634Y-86945222D01*
X102117613Y-86870365D01*
X102124086Y-86819916D01*
X102100353Y-86738037D01*
X102100353Y-86738037D01*
G37*
X102100353Y-86738037D02*
X102040500Y-86681579D01*
X101961549Y-86657119D01*
X101880522Y-86671235D01*
X101832127Y-86707098D01*
X101789926Y-86790053D01*
X101800460Y-86877790D01*
X101841864Y-86937709D01*
X101921583Y-86985229D01*
X102004232Y-86985622D01*
X102074634Y-86945222D01*
X102117613Y-86870365D01*
X102124086Y-86819916D01*
X102100353Y-86738037D01*
G36*
X101713961Y-74128354D02*
G01*
X101650662Y-74081116D01*
X101564746Y-74069123D01*
X101473120Y-74097591D01*
X101433658Y-74138925D01*
X101419002Y-74215380D01*
X101418531Y-74239307D01*
X101425543Y-74318606D01*
X101453093Y-74362996D01*
X101487005Y-74383007D01*
X101585275Y-74402432D01*
X101669902Y-74371877D01*
X101728218Y-74295969D01*
X101728757Y-74294679D01*
X101743656Y-74202365D01*
X101713961Y-74128354D01*
X101713961Y-74128354D01*
G37*
X101713961Y-74128354D02*
X101650662Y-74081116D01*
X101564746Y-74069123D01*
X101473120Y-74097591D01*
X101433658Y-74138925D01*
X101419002Y-74215380D01*
X101418531Y-74239307D01*
X101425543Y-74318606D01*
X101453093Y-74362996D01*
X101487005Y-74383007D01*
X101585275Y-74402432D01*
X101669902Y-74371877D01*
X101728218Y-74295969D01*
X101728757Y-74294679D01*
X101743656Y-74202365D01*
X101713961Y-74128354D01*
G36*
X102866615Y-72035789D02*
G01*
X102813173Y-71968956D01*
X102733223Y-71878937D01*
X102634224Y-71773306D01*
X102523637Y-71659637D01*
X102408924Y-71545504D01*
X102297545Y-71438480D01*
X102196960Y-71346140D01*
X102114630Y-71276059D01*
X102069172Y-71242545D01*
X101922415Y-71177353D01*
X101767325Y-71160521D01*
X101635170Y-71187818D01*
X101542263Y-71241202D01*
X101437962Y-71329172D01*
X101338139Y-71436891D01*
X101272471Y-71526845D01*
X101219539Y-71639273D01*
X101193173Y-71758418D01*
X101194723Y-71867602D01*
X101225540Y-71950147D01*
X101237102Y-71963804D01*
X101311754Y-72009264D01*
X101384888Y-72005303D01*
X101447279Y-71958417D01*
X101489705Y-71875099D01*
X101503197Y-71776446D01*
X101511049Y-71683525D01*
X101543003Y-71615566D01*
X101593222Y-71559946D01*
X101681086Y-71492602D01*
X101761366Y-71477301D01*
X101846380Y-71513267D01*
X101884197Y-71541612D01*
X101936448Y-71586306D01*
X101947426Y-71606206D01*
X101920033Y-71611653D01*
X101903963Y-71612027D01*
X101784358Y-71640221D01*
X101677673Y-71713332D01*
X101593781Y-71819916D01*
X101542556Y-71948527D01*
X101531420Y-72043833D01*
X101553742Y-72208721D01*
X101615440Y-72355857D01*
X101708608Y-72481359D01*
X101825341Y-72581345D01*
X101957734Y-72651931D01*
X102097882Y-72689235D01*
X102175520Y-72689312D01*
X102175520Y-72365210D01*
X102150000Y-72360198D01*
X102081287Y-72323316D01*
X101999702Y-72259584D01*
X101924403Y-72186162D01*
X101874549Y-72120208D01*
X101868927Y-72108474D01*
X101848113Y-72047157D01*
X101850222Y-71999328D01*
X101877702Y-71936138D01*
X101884711Y-71922494D01*
X101951455Y-71844648D01*
X102040897Y-71813122D01*
X102143582Y-71827842D01*
X102250059Y-71888734D01*
X102291249Y-71925657D01*
X102375160Y-72037581D01*
X102402931Y-72149819D01*
X102388540Y-72230773D01*
X102338934Y-72302016D01*
X102260346Y-72350942D01*
X102175520Y-72365210D01*
X102175520Y-72689312D01*
X102237879Y-72689374D01*
X102369821Y-72648465D01*
X102485803Y-72562627D01*
X102516281Y-72527562D01*
X102561457Y-72453582D01*
X102597306Y-72366154D01*
X102617416Y-72285117D01*
X102615377Y-72230308D01*
X102613511Y-72226708D01*
X102620793Y-72217280D01*
X102655055Y-72231119D01*
X102738527Y-72248950D01*
X102814147Y-72220316D01*
X102867925Y-72154860D01*
X102886086Y-72071862D01*
X102866615Y-72035789D01*
X102866615Y-72035789D01*
G37*
X102866615Y-72035789D02*
X102813173Y-71968956D01*
X102733223Y-71878937D01*
X102634224Y-71773306D01*
X102523637Y-71659637D01*
X102408924Y-71545504D01*
X102297545Y-71438480D01*
X102196960Y-71346140D01*
X102114630Y-71276059D01*
X102069172Y-71242545D01*
X101922415Y-71177353D01*
X101767325Y-71160521D01*
X101635170Y-71187818D01*
X101542263Y-71241202D01*
X101437962Y-71329172D01*
X101338139Y-71436891D01*
X101272471Y-71526845D01*
X101219539Y-71639273D01*
X101193173Y-71758418D01*
X101194723Y-71867602D01*
X101225540Y-71950147D01*
X101237102Y-71963804D01*
X101311754Y-72009264D01*
X101384888Y-72005303D01*
X101447279Y-71958417D01*
X101489705Y-71875099D01*
X101503197Y-71776446D01*
X101511049Y-71683525D01*
X101543003Y-71615566D01*
X101593222Y-71559946D01*
X101681086Y-71492602D01*
X101761366Y-71477301D01*
X101846380Y-71513267D01*
X101884197Y-71541612D01*
X101936448Y-71586306D01*
X101947426Y-71606206D01*
X101920033Y-71611653D01*
X101903963Y-71612027D01*
X101784358Y-71640221D01*
X101677673Y-71713332D01*
X101593781Y-71819916D01*
X101542556Y-71948527D01*
X101531420Y-72043833D01*
X101553742Y-72208721D01*
X101615440Y-72355857D01*
X101708608Y-72481359D01*
X101825341Y-72581345D01*
X101957734Y-72651931D01*
X102097882Y-72689235D01*
X102175520Y-72689312D01*
X102175520Y-72365210D01*
X102150000Y-72360198D01*
X102081287Y-72323316D01*
X101999702Y-72259584D01*
X101924403Y-72186162D01*
X101874549Y-72120208D01*
X101868927Y-72108474D01*
X101848113Y-72047157D01*
X101850222Y-71999328D01*
X101877702Y-71936138D01*
X101884711Y-71922494D01*
X101951455Y-71844648D01*
X102040897Y-71813122D01*
X102143582Y-71827842D01*
X102250059Y-71888734D01*
X102291249Y-71925657D01*
X102375160Y-72037581D01*
X102402931Y-72149819D01*
X102388540Y-72230773D01*
X102338934Y-72302016D01*
X102260346Y-72350942D01*
X102175520Y-72365210D01*
X102175520Y-72689312D01*
X102237879Y-72689374D01*
X102369821Y-72648465D01*
X102485803Y-72562627D01*
X102516281Y-72527562D01*
X102561457Y-72453582D01*
X102597306Y-72366154D01*
X102617416Y-72285117D01*
X102615377Y-72230308D01*
X102613511Y-72226708D01*
X102620793Y-72217280D01*
X102655055Y-72231119D01*
X102738527Y-72248950D01*
X102814147Y-72220316D01*
X102867925Y-72154860D01*
X102886086Y-72071862D01*
X102866615Y-72035789D01*
G36*
X103154268Y-88062585D02*
G01*
X103111696Y-87974269D01*
X103042873Y-87882856D01*
X102964571Y-87807813D01*
X102903602Y-87771618D01*
X102866595Y-87763827D01*
X102821385Y-87767436D01*
X102761202Y-87785338D01*
X102679275Y-87820420D01*
X102568834Y-87875572D01*
X102423108Y-87953685D01*
X102241396Y-88054260D01*
X102005927Y-88185690D01*
X102235224Y-87843434D01*
X102319124Y-87716315D01*
X102392854Y-87601077D01*
X102449963Y-87508068D01*
X102483999Y-87447633D01*
X102489333Y-87435916D01*
X102492932Y-87354634D01*
X102457161Y-87262025D01*
X102393099Y-87172075D01*
X102311825Y-87098770D01*
X102224421Y-87056096D01*
X102184077Y-87050598D01*
X102135975Y-87070569D01*
X102053178Y-87128390D01*
X101939798Y-87220920D01*
X101805741Y-87339718D01*
X101608572Y-87520270D01*
X101449947Y-87667521D01*
X101326408Y-87785879D01*
X101234499Y-87879750D01*
X101170763Y-87953542D01*
X101131743Y-88011663D01*
X101113983Y-88058520D01*
X101114025Y-88098521D01*
X101128413Y-88136072D01*
X101152020Y-88173207D01*
X101204585Y-88220523D01*
X101252199Y-88235931D01*
X101333973Y-88217726D01*
X101425341Y-88172804D01*
X101497378Y-88115704D01*
X101501999Y-88110375D01*
X101536701Y-88074470D01*
X101603577Y-88009966D01*
X101692908Y-87926096D01*
X101792101Y-87834720D01*
X102045179Y-87603676D01*
X101774744Y-87983304D01*
X101669640Y-88133034D01*
X101594582Y-88246074D01*
X101545086Y-88330384D01*
X101516670Y-88393922D01*
X101504850Y-88444650D01*
X101503753Y-88464390D01*
X101526219Y-88568558D01*
X101589614Y-88639344D01*
X101685991Y-88668385D01*
X101697861Y-88668672D01*
X101752024Y-88654309D01*
X101845556Y-88614133D01*
X101970128Y-88552510D01*
X102117411Y-88473809D01*
X102279076Y-88382398D01*
X102446795Y-88282643D01*
X102519197Y-88237961D01*
X102530526Y-88236306D01*
X102505187Y-88266752D01*
X102448420Y-88323585D01*
X102392197Y-88376552D01*
X102232983Y-88524675D01*
X102111237Y-88640565D01*
X102022209Y-88729459D01*
X101961151Y-88796592D01*
X101923316Y-88847199D01*
X101903953Y-88886515D01*
X101898316Y-88919775D01*
X101898308Y-88921065D01*
X101922544Y-89009757D01*
X101988601Y-89066526D01*
X102068029Y-89082598D01*
X102109655Y-89074172D01*
X102163995Y-89045649D01*
X102237700Y-88992164D01*
X102337422Y-88908849D01*
X102469812Y-88790838D01*
X102482291Y-88779499D01*
X102672811Y-88605679D01*
X102825105Y-88465145D01*
X102943130Y-88353677D01*
X103030840Y-88267056D01*
X103092191Y-88201061D01*
X103131138Y-88151473D01*
X103151638Y-88114071D01*
X103157645Y-88084635D01*
X103154268Y-88062585D01*
X103154268Y-88062585D01*
G37*
X103154268Y-88062585D02*
X103111696Y-87974269D01*
X103042873Y-87882856D01*
X102964571Y-87807813D01*
X102903602Y-87771618D01*
X102866595Y-87763827D01*
X102821385Y-87767436D01*
X102761202Y-87785338D01*
X102679275Y-87820420D01*
X102568834Y-87875572D01*
X102423108Y-87953685D01*
X102241396Y-88054260D01*
X102005927Y-88185690D01*
X102235224Y-87843434D01*
X102319124Y-87716315D01*
X102392854Y-87601077D01*
X102449963Y-87508068D01*
X102483999Y-87447633D01*
X102489333Y-87435916D01*
X102492932Y-87354634D01*
X102457161Y-87262025D01*
X102393099Y-87172075D01*
X102311825Y-87098770D01*
X102224421Y-87056096D01*
X102184077Y-87050598D01*
X102135975Y-87070569D01*
X102053178Y-87128390D01*
X101939798Y-87220920D01*
X101805741Y-87339718D01*
X101608572Y-87520270D01*
X101449947Y-87667521D01*
X101326408Y-87785879D01*
X101234499Y-87879750D01*
X101170763Y-87953542D01*
X101131743Y-88011663D01*
X101113983Y-88058520D01*
X101114025Y-88098521D01*
X101128413Y-88136072D01*
X101152020Y-88173207D01*
X101204585Y-88220523D01*
X101252199Y-88235931D01*
X101333973Y-88217726D01*
X101425341Y-88172804D01*
X101497378Y-88115704D01*
X101501999Y-88110375D01*
X101536701Y-88074470D01*
X101603577Y-88009966D01*
X101692908Y-87926096D01*
X101792101Y-87834720D01*
X102045179Y-87603676D01*
X101774744Y-87983304D01*
X101669640Y-88133034D01*
X101594582Y-88246074D01*
X101545086Y-88330384D01*
X101516670Y-88393922D01*
X101504850Y-88444650D01*
X101503753Y-88464390D01*
X101526219Y-88568558D01*
X101589614Y-88639344D01*
X101685991Y-88668385D01*
X101697861Y-88668672D01*
X101752024Y-88654309D01*
X101845556Y-88614133D01*
X101970128Y-88552510D01*
X102117411Y-88473809D01*
X102279076Y-88382398D01*
X102446795Y-88282643D01*
X102519197Y-88237961D01*
X102530526Y-88236306D01*
X102505187Y-88266752D01*
X102448420Y-88323585D01*
X102392197Y-88376552D01*
X102232983Y-88524675D01*
X102111237Y-88640565D01*
X102022209Y-88729459D01*
X101961151Y-88796592D01*
X101923316Y-88847199D01*
X101903953Y-88886515D01*
X101898316Y-88919775D01*
X101898308Y-88921065D01*
X101922544Y-89009757D01*
X101988601Y-89066526D01*
X102068029Y-89082598D01*
X102109655Y-89074172D01*
X102163995Y-89045649D01*
X102237700Y-88992164D01*
X102337422Y-88908849D01*
X102469812Y-88790838D01*
X102482291Y-88779499D01*
X102672811Y-88605679D01*
X102825105Y-88465145D01*
X102943130Y-88353677D01*
X103030840Y-88267056D01*
X103092191Y-88201061D01*
X103131138Y-88151473D01*
X103151638Y-88114071D01*
X103157645Y-88084635D01*
X103154268Y-88062585D01*
G36*
X101326419Y-85294854D02*
G01*
X101304761Y-85251431D01*
X101243450Y-85189205D01*
X101161302Y-85162787D01*
X101079316Y-85176071D01*
X101041071Y-85202534D01*
X101001955Y-85277114D01*
X101001578Y-85366100D01*
X101039109Y-85443646D01*
X101049146Y-85453783D01*
X101128859Y-85492779D01*
X101214453Y-85484669D01*
X101286847Y-85432973D01*
X101304752Y-85406653D01*
X101332085Y-85345096D01*
X101326419Y-85294854D01*
X101326419Y-85294854D01*
G37*
X101326419Y-85294854D02*
X101304761Y-85251431D01*
X101243450Y-85189205D01*
X101161302Y-85162787D01*
X101079316Y-85176071D01*
X101041071Y-85202534D01*
X101001955Y-85277114D01*
X101001578Y-85366100D01*
X101039109Y-85443646D01*
X101049146Y-85453783D01*
X101128859Y-85492779D01*
X101214453Y-85484669D01*
X101286847Y-85432973D01*
X101304752Y-85406653D01*
X101332085Y-85345096D01*
X101326419Y-85294854D01*
G36*
X101772010Y-86945818D02*
G01*
X101751553Y-86915131D01*
X101705248Y-86884458D01*
X101646307Y-86878140D01*
X101568509Y-86898548D01*
X101465631Y-86948054D01*
X101331453Y-87029029D01*
X101170147Y-87136697D01*
X101001664Y-87255024D01*
X100877948Y-87349613D01*
X100795245Y-87425568D01*
X100749801Y-87487991D01*
X100737865Y-87541987D01*
X100755682Y-87592660D01*
X100797642Y-87643264D01*
X100858122Y-87685477D01*
X100908144Y-87699709D01*
X100948242Y-87684704D01*
X101024686Y-87643944D01*
X101127417Y-87583806D01*
X101246375Y-87510669D01*
X101371503Y-87430911D01*
X101492742Y-87350912D01*
X101600034Y-87277051D01*
X101683319Y-87215705D01*
X101721920Y-87183652D01*
X101768050Y-87112839D01*
X101785629Y-87025562D01*
X101772010Y-86945818D01*
X101772010Y-86945818D01*
G37*
X101772010Y-86945818D02*
X101751553Y-86915131D01*
X101705248Y-86884458D01*
X101646307Y-86878140D01*
X101568509Y-86898548D01*
X101465631Y-86948054D01*
X101331453Y-87029029D01*
X101170147Y-87136697D01*
X101001664Y-87255024D01*
X100877948Y-87349613D01*
X100795245Y-87425568D01*
X100749801Y-87487991D01*
X100737865Y-87541987D01*
X100755682Y-87592660D01*
X100797642Y-87643264D01*
X100858122Y-87685477D01*
X100908144Y-87699709D01*
X100948242Y-87684704D01*
X101024686Y-87643944D01*
X101127417Y-87583806D01*
X101246375Y-87510669D01*
X101371503Y-87430911D01*
X101492742Y-87350912D01*
X101600034Y-87277051D01*
X101683319Y-87215705D01*
X101721920Y-87183652D01*
X101768050Y-87112839D01*
X101785629Y-87025562D01*
X101772010Y-86945818D01*
G36*
X101930304Y-72904886D02*
G01*
X101909365Y-72857248D01*
X101866576Y-72808594D01*
X101788541Y-72740638D01*
X101686079Y-72660895D01*
X101570011Y-72576883D01*
X101451155Y-72496116D01*
X101340330Y-72426110D01*
X101248357Y-72374382D01*
X101186053Y-72348448D01*
X101174589Y-72346820D01*
X101105119Y-72367123D01*
X101039813Y-72416145D01*
X100999585Y-72476059D01*
X100995197Y-72499734D01*
X101001914Y-72549646D01*
X101026942Y-72597785D01*
X101077603Y-72651867D01*
X101161217Y-72719608D01*
X101285104Y-72808723D01*
X101294684Y-72815411D01*
X101404705Y-72894580D01*
X101499906Y-72967628D01*
X101569006Y-73025620D01*
X101598610Y-73056135D01*
X101625883Y-73134546D01*
X101600647Y-73206530D01*
X101526709Y-73261921D01*
X101520462Y-73264641D01*
X101459717Y-73282212D01*
X101396469Y-73279766D01*
X101321172Y-73253622D01*
X101224281Y-73200098D01*
X101096251Y-73115512D01*
X101049694Y-73083073D01*
X100913557Y-72996190D01*
X100808017Y-72950308D01*
X100726524Y-72943932D01*
X100662528Y-72975567D01*
X100646794Y-72991098D01*
X100604479Y-73073363D01*
X100616832Y-73161930D01*
X100663586Y-73230919D01*
X100709586Y-73271288D01*
X100792317Y-73334917D01*
X100901322Y-73414092D01*
X101026148Y-73501096D01*
X101070139Y-73530958D01*
X101229358Y-73635097D01*
X101351259Y-73705774D01*
X101442674Y-73744689D01*
X101510440Y-73753544D01*
X101561391Y-73734038D01*
X101602362Y-73687872D01*
X101615147Y-73666557D01*
X101642102Y-73601151D01*
X101632910Y-73550016D01*
X101624114Y-73534520D01*
X101606539Y-73494192D01*
X101629050Y-73473014D01*
X101669586Y-73462244D01*
X101754853Y-73421425D01*
X101842368Y-73344200D01*
X101914256Y-73246899D01*
X101923082Y-73230620D01*
X101949481Y-73134416D01*
X101951539Y-73016328D01*
X101930304Y-72904886D01*
X101930304Y-72904886D01*
G37*
X101930304Y-72904886D02*
X101909365Y-72857248D01*
X101866576Y-72808594D01*
X101788541Y-72740638D01*
X101686079Y-72660895D01*
X101570011Y-72576883D01*
X101451155Y-72496116D01*
X101340330Y-72426110D01*
X101248357Y-72374382D01*
X101186053Y-72348448D01*
X101174589Y-72346820D01*
X101105119Y-72367123D01*
X101039813Y-72416145D01*
X100999585Y-72476059D01*
X100995197Y-72499734D01*
X101001914Y-72549646D01*
X101026942Y-72597785D01*
X101077603Y-72651867D01*
X101161217Y-72719608D01*
X101285104Y-72808723D01*
X101294684Y-72815411D01*
X101404705Y-72894580D01*
X101499906Y-72967628D01*
X101569006Y-73025620D01*
X101598610Y-73056135D01*
X101625883Y-73134546D01*
X101600647Y-73206530D01*
X101526709Y-73261921D01*
X101520462Y-73264641D01*
X101459717Y-73282212D01*
X101396469Y-73279766D01*
X101321172Y-73253622D01*
X101224281Y-73200098D01*
X101096251Y-73115512D01*
X101049694Y-73083073D01*
X100913557Y-72996190D01*
X100808017Y-72950308D01*
X100726524Y-72943932D01*
X100662528Y-72975567D01*
X100646794Y-72991098D01*
X100604479Y-73073363D01*
X100616832Y-73161930D01*
X100663586Y-73230919D01*
X100709586Y-73271288D01*
X100792317Y-73334917D01*
X100901322Y-73414092D01*
X101026148Y-73501096D01*
X101070139Y-73530958D01*
X101229358Y-73635097D01*
X101351259Y-73705774D01*
X101442674Y-73744689D01*
X101510440Y-73753544D01*
X101561391Y-73734038D01*
X101602362Y-73687872D01*
X101615147Y-73666557D01*
X101642102Y-73601151D01*
X101632910Y-73550016D01*
X101624114Y-73534520D01*
X101606539Y-73494192D01*
X101629050Y-73473014D01*
X101669586Y-73462244D01*
X101754853Y-73421425D01*
X101842368Y-73344200D01*
X101914256Y-73246899D01*
X101923082Y-73230620D01*
X101949481Y-73134416D01*
X101951539Y-73016328D01*
X101930304Y-72904886D01*
G36*
X101376619Y-73969290D02*
G01*
X101340920Y-73920893D01*
X101299246Y-73892371D01*
X101218050Y-73843252D01*
X101107598Y-73779528D01*
X100978159Y-73707189D01*
X100922348Y-73676630D01*
X100746465Y-73584072D01*
X100610867Y-73521156D01*
X100508815Y-73486300D01*
X100433572Y-73477922D01*
X100378398Y-73494441D01*
X100336556Y-73534275D01*
X100333575Y-73538433D01*
X100295756Y-73607610D01*
X100299429Y-73665389D01*
X100331785Y-73720872D01*
X100373380Y-73757817D01*
X100454629Y-73812858D01*
X100564712Y-73880095D01*
X100692808Y-73953631D01*
X100828098Y-74027567D01*
X100959762Y-74096004D01*
X101076981Y-74153043D01*
X101168935Y-74192786D01*
X101224803Y-74209334D01*
X101228034Y-74209486D01*
X101307706Y-74185880D01*
X101363509Y-74126521D01*
X101388721Y-74048595D01*
X101376619Y-73969290D01*
X101376619Y-73969290D01*
G37*
X101376619Y-73969290D02*
X101340920Y-73920893D01*
X101299246Y-73892371D01*
X101218050Y-73843252D01*
X101107598Y-73779528D01*
X100978159Y-73707189D01*
X100922348Y-73676630D01*
X100746465Y-73584072D01*
X100610867Y-73521156D01*
X100508815Y-73486300D01*
X100433572Y-73477922D01*
X100378398Y-73494441D01*
X100336556Y-73534275D01*
X100333575Y-73538433D01*
X100295756Y-73607610D01*
X100299429Y-73665389D01*
X100331785Y-73720872D01*
X100373380Y-73757817D01*
X100454629Y-73812858D01*
X100564712Y-73880095D01*
X100692808Y-73953631D01*
X100828098Y-74027567D01*
X100959762Y-74096004D01*
X101076981Y-74153043D01*
X101168935Y-74192786D01*
X101224803Y-74209334D01*
X101228034Y-74209486D01*
X101307706Y-74185880D01*
X101363509Y-74126521D01*
X101388721Y-74048595D01*
X101376619Y-73969290D01*
G36*
X101511075Y-86562116D02*
G01*
X101492439Y-86529643D01*
X101425930Y-86469700D01*
X101372487Y-86457931D01*
X101320873Y-86450786D01*
X101311039Y-86417688D01*
X101317497Y-86386318D01*
X101320506Y-86281031D01*
X101289135Y-86159893D01*
X101230459Y-86045364D01*
X101196108Y-86000930D01*
X101137909Y-85946445D01*
X101073199Y-85916654D01*
X100978788Y-85901612D01*
X100960768Y-85900025D01*
X100891480Y-85896166D01*
X100832212Y-85900380D01*
X100770161Y-85916803D01*
X100692527Y-85949574D01*
X100586511Y-86002831D01*
X100497416Y-86049810D01*
X100374228Y-86116505D01*
X100265974Y-86177475D01*
X100184411Y-86225941D01*
X100141475Y-86254972D01*
X100105319Y-86316046D01*
X100092994Y-86399327D01*
X100106190Y-86477190D01*
X100125953Y-86508731D01*
X100191700Y-86539279D01*
X100290976Y-86531177D01*
X100425981Y-86483948D01*
X100571864Y-86411928D01*
X100718952Y-86334294D01*
X100826456Y-86283468D01*
X100903119Y-86257099D01*
X100957686Y-86252837D01*
X100998903Y-86268331D01*
X101024951Y-86290129D01*
X101072682Y-86373740D01*
X101070823Y-86468105D01*
X101040906Y-86528643D01*
X101001258Y-86563679D01*
X100923798Y-86617628D01*
X100820395Y-86682616D01*
X100723406Y-86739278D01*
X100602654Y-86808399D01*
X100522616Y-86858338D01*
X100474521Y-86897061D01*
X100449596Y-86932536D01*
X100439070Y-86972731D01*
X100436206Y-87000138D01*
X100438206Y-87077882D01*
X100467955Y-87127065D01*
X100498324Y-87150015D01*
X100533079Y-87170122D01*
X100568216Y-87180012D01*
X100611416Y-87177015D01*
X100670357Y-87158459D01*
X100752720Y-87121675D01*
X100866185Y-87063991D01*
X101018432Y-86982736D01*
X101089042Y-86944588D01*
X101258943Y-86850360D01*
X101382543Y-86774986D01*
X101464700Y-86713470D01*
X101510269Y-86660818D01*
X101524108Y-86612032D01*
X101511075Y-86562116D01*
X101511075Y-86562116D01*
G37*
X101511075Y-86562116D02*
X101492439Y-86529643D01*
X101425930Y-86469700D01*
X101372487Y-86457931D01*
X101320873Y-86450786D01*
X101311039Y-86417688D01*
X101317497Y-86386318D01*
X101320506Y-86281031D01*
X101289135Y-86159893D01*
X101230459Y-86045364D01*
X101196108Y-86000930D01*
X101137909Y-85946445D01*
X101073199Y-85916654D01*
X100978788Y-85901612D01*
X100960768Y-85900025D01*
X100891480Y-85896166D01*
X100832212Y-85900380D01*
X100770161Y-85916803D01*
X100692527Y-85949574D01*
X100586511Y-86002831D01*
X100497416Y-86049810D01*
X100374228Y-86116505D01*
X100265974Y-86177475D01*
X100184411Y-86225941D01*
X100141475Y-86254972D01*
X100105319Y-86316046D01*
X100092994Y-86399327D01*
X100106190Y-86477190D01*
X100125953Y-86508731D01*
X100191700Y-86539279D01*
X100290976Y-86531177D01*
X100425981Y-86483948D01*
X100571864Y-86411928D01*
X100718952Y-86334294D01*
X100826456Y-86283468D01*
X100903119Y-86257099D01*
X100957686Y-86252837D01*
X100998903Y-86268331D01*
X101024951Y-86290129D01*
X101072682Y-86373740D01*
X101070823Y-86468105D01*
X101040906Y-86528643D01*
X101001258Y-86563679D01*
X100923798Y-86617628D01*
X100820395Y-86682616D01*
X100723406Y-86739278D01*
X100602654Y-86808399D01*
X100522616Y-86858338D01*
X100474521Y-86897061D01*
X100449596Y-86932536D01*
X100439070Y-86972731D01*
X100436206Y-87000138D01*
X100438206Y-87077882D01*
X100467955Y-87127065D01*
X100498324Y-87150015D01*
X100533079Y-87170122D01*
X100568216Y-87180012D01*
X100611416Y-87177015D01*
X100670357Y-87158459D01*
X100752720Y-87121675D01*
X100866185Y-87063991D01*
X101018432Y-86982736D01*
X101089042Y-86944588D01*
X101258943Y-86850360D01*
X101382543Y-86774986D01*
X101464700Y-86713470D01*
X101510269Y-86660818D01*
X101524108Y-86612032D01*
X101511075Y-86562116D01*
G36*
X100955646Y-85448501D02*
G01*
X100923042Y-85391766D01*
X100853399Y-85338561D01*
X100794345Y-85329042D01*
X100741718Y-85339897D01*
X100649423Y-85369335D01*
X100529217Y-85412668D01*
X100392853Y-85465206D01*
X100252089Y-85522261D01*
X100118680Y-85579144D01*
X100004381Y-85631165D01*
X99920949Y-85673635D01*
X99901586Y-85685139D01*
X99855467Y-85743383D01*
X99836728Y-85825987D01*
X99848363Y-85906777D01*
X99871953Y-85944286D01*
X99920561Y-85970917D01*
X99994586Y-85974460D01*
X100099657Y-85953717D01*
X100241402Y-85907491D01*
X100425450Y-85834586D01*
X100463924Y-85818359D01*
X100652841Y-85735522D01*
X100792915Y-85666791D01*
X100888690Y-85607945D01*
X100944708Y-85554762D01*
X100965512Y-85503021D01*
X100955646Y-85448501D01*
X100955646Y-85448501D01*
G37*
X100955646Y-85448501D02*
X100923042Y-85391766D01*
X100853399Y-85338561D01*
X100794345Y-85329042D01*
X100741718Y-85339897D01*
X100649423Y-85369335D01*
X100529217Y-85412668D01*
X100392853Y-85465206D01*
X100252089Y-85522261D01*
X100118680Y-85579144D01*
X100004381Y-85631165D01*
X99920949Y-85673635D01*
X99901586Y-85685139D01*
X99855467Y-85743383D01*
X99836728Y-85825987D01*
X99848363Y-85906777D01*
X99871953Y-85944286D01*
X99920561Y-85970917D01*
X99994586Y-85974460D01*
X100099657Y-85953717D01*
X100241402Y-85907491D01*
X100425450Y-85834586D01*
X100463924Y-85818359D01*
X100652841Y-85735522D01*
X100792915Y-85666791D01*
X100888690Y-85607945D01*
X100944708Y-85554762D01*
X100965512Y-85503021D01*
X100955646Y-85448501D01*
G36*
X101393099Y-74629264D02*
G01*
X101326802Y-74506884D01*
X101222819Y-74414848D01*
X101086751Y-74361192D01*
X100984417Y-74350703D01*
X100884585Y-74362361D01*
X100787121Y-74392714D01*
X100707630Y-74434615D01*
X100661719Y-74480915D01*
X100656173Y-74501066D01*
X100644745Y-74495588D01*
X100615158Y-74449370D01*
X100574653Y-74374024D01*
X100494243Y-74232469D01*
X100409089Y-74111557D01*
X100327158Y-74021060D01*
X100256417Y-73970750D01*
X100241727Y-73965675D01*
X100163751Y-73969542D01*
X100105992Y-73995359D01*
X100046616Y-74063700D01*
X100036114Y-74156651D01*
X100074240Y-74271008D01*
X100134445Y-74368683D01*
X100249425Y-74533298D01*
X100330279Y-74662716D01*
X100379993Y-74764268D01*
X100401555Y-74845285D01*
X100397952Y-74913097D01*
X100377590Y-74965354D01*
X100360865Y-74992113D01*
X100339090Y-75003986D01*
X100300835Y-74999332D01*
X100234672Y-74976509D01*
X100129170Y-74933874D01*
X100113470Y-74927408D01*
X100001726Y-74883967D01*
X99904038Y-74850638D01*
X99836189Y-74832633D01*
X99821294Y-74830892D01*
X99746628Y-74855214D01*
X99689454Y-74917376D01*
X99661341Y-74999083D01*
X99669304Y-75071244D01*
X99682673Y-75101865D01*
X99702268Y-75129187D01*
X99734656Y-75156777D01*
X99786402Y-75188201D01*
X99864072Y-75227028D01*
X99974232Y-75276823D01*
X100123449Y-75341155D01*
X100316400Y-75422794D01*
X100526370Y-75510754D01*
X100691007Y-75577667D01*
X100816735Y-75625006D01*
X100909979Y-75654247D01*
X100911423Y-75654518D01*
X100911423Y-75262069D01*
X100886981Y-75256494D01*
X100830737Y-75229651D01*
X100751557Y-75194962D01*
X100734142Y-75187661D01*
X100667998Y-75157528D01*
X100631085Y-75135550D01*
X100628308Y-75131661D01*
X100638915Y-75101489D01*
X100666402Y-75035632D01*
X100696114Y-74967943D01*
X100745100Y-74872448D01*
X100800524Y-74785259D01*
X100852678Y-74719897D01*
X100891856Y-74689883D01*
X100896191Y-74689264D01*
X100927588Y-74699697D01*
X100980435Y-74722325D01*
X101042157Y-74767274D01*
X101068645Y-74834584D01*
X101060513Y-74931670D01*
X101018374Y-75065950D01*
X101010531Y-75086268D01*
X100968705Y-75186837D01*
X100937802Y-75242499D01*
X100911423Y-75262069D01*
X100911423Y-75654518D01*
X100977161Y-75666863D01*
X101024705Y-75664329D01*
X101059034Y-75648120D01*
X101086574Y-75619711D01*
X101099069Y-75602462D01*
X101137050Y-75535859D01*
X101187966Y-75431155D01*
X101245335Y-75303250D01*
X101302679Y-75167045D01*
X101353518Y-75037440D01*
X101390233Y-74932918D01*
X101416109Y-74773954D01*
X101393099Y-74629264D01*
X101393099Y-74629264D01*
G37*
X101393099Y-74629264D02*
X101326802Y-74506884D01*
X101222819Y-74414848D01*
X101086751Y-74361192D01*
X100984417Y-74350703D01*
X100884585Y-74362361D01*
X100787121Y-74392714D01*
X100707630Y-74434615D01*
X100661719Y-74480915D01*
X100656173Y-74501066D01*
X100644745Y-74495588D01*
X100615158Y-74449370D01*
X100574653Y-74374024D01*
X100494243Y-74232469D01*
X100409089Y-74111557D01*
X100327158Y-74021060D01*
X100256417Y-73970750D01*
X100241727Y-73965675D01*
X100163751Y-73969542D01*
X100105992Y-73995359D01*
X100046616Y-74063700D01*
X100036114Y-74156651D01*
X100074240Y-74271008D01*
X100134445Y-74368683D01*
X100249425Y-74533298D01*
X100330279Y-74662716D01*
X100379993Y-74764268D01*
X100401555Y-74845285D01*
X100397952Y-74913097D01*
X100377590Y-74965354D01*
X100360865Y-74992113D01*
X100339090Y-75003986D01*
X100300835Y-74999332D01*
X100234672Y-74976509D01*
X100129170Y-74933874D01*
X100113470Y-74927408D01*
X100001726Y-74883967D01*
X99904038Y-74850638D01*
X99836189Y-74832633D01*
X99821294Y-74830892D01*
X99746628Y-74855214D01*
X99689454Y-74917376D01*
X99661341Y-74999083D01*
X99669304Y-75071244D01*
X99682673Y-75101865D01*
X99702268Y-75129187D01*
X99734656Y-75156777D01*
X99786402Y-75188201D01*
X99864072Y-75227028D01*
X99974232Y-75276823D01*
X100123449Y-75341155D01*
X100316400Y-75422794D01*
X100526370Y-75510754D01*
X100691007Y-75577667D01*
X100816735Y-75625006D01*
X100909979Y-75654247D01*
X100911423Y-75654518D01*
X100911423Y-75262069D01*
X100886981Y-75256494D01*
X100830737Y-75229651D01*
X100751557Y-75194962D01*
X100734142Y-75187661D01*
X100667998Y-75157528D01*
X100631085Y-75135550D01*
X100628308Y-75131661D01*
X100638915Y-75101489D01*
X100666402Y-75035632D01*
X100696114Y-74967943D01*
X100745100Y-74872448D01*
X100800524Y-74785259D01*
X100852678Y-74719897D01*
X100891856Y-74689883D01*
X100896191Y-74689264D01*
X100927588Y-74699697D01*
X100980435Y-74722325D01*
X101042157Y-74767274D01*
X101068645Y-74834584D01*
X101060513Y-74931670D01*
X101018374Y-75065950D01*
X101010531Y-75086268D01*
X100968705Y-75186837D01*
X100937802Y-75242499D01*
X100911423Y-75262069D01*
X100911423Y-75654518D01*
X100977161Y-75666863D01*
X101024705Y-75664329D01*
X101059034Y-75648120D01*
X101086574Y-75619711D01*
X101099069Y-75602462D01*
X101137050Y-75535859D01*
X101187966Y-75431155D01*
X101245335Y-75303250D01*
X101302679Y-75167045D01*
X101353518Y-75037440D01*
X101390233Y-74932918D01*
X101416109Y-74773954D01*
X101393099Y-74629264D01*
G36*
X100981019Y-84344811D02*
G01*
X100916639Y-84171879D01*
X100817915Y-84027311D01*
X100690825Y-83918140D01*
X100541343Y-83851399D01*
X100405453Y-83833264D01*
X100295818Y-83851742D01*
X100228684Y-83906641D01*
X100205005Y-83997163D01*
X100204975Y-84001158D01*
X100214764Y-84066282D01*
X100251027Y-84114030D01*
X100324106Y-84153201D01*
X100422495Y-84186204D01*
X100548398Y-84237369D01*
X100630111Y-84307554D01*
X100679214Y-84407081D01*
X100682471Y-84417976D01*
X100694388Y-84549740D01*
X100652874Y-84668927D01*
X100560062Y-84772909D01*
X100418081Y-84859057D01*
X100284156Y-84909311D01*
X100175583Y-84940410D01*
X100101485Y-84954331D01*
X100043004Y-84952381D01*
X99981283Y-84935866D01*
X99967761Y-84931234D01*
X99860939Y-84869824D01*
X99777607Y-84776464D01*
X99730835Y-84668038D01*
X99725197Y-84617911D01*
X99751868Y-84491815D01*
X99827570Y-84368251D01*
X99877738Y-84315178D01*
X99933988Y-84234531D01*
X99946264Y-84151032D01*
X99920437Y-84077587D01*
X99862374Y-84027104D01*
X99777947Y-84012492D01*
X99742771Y-84018362D01*
X99660696Y-84059824D01*
X99572551Y-84136241D01*
X99495126Y-84230960D01*
X99453722Y-84305080D01*
X99428213Y-84406183D01*
X99418260Y-84539057D01*
X99423642Y-84681276D01*
X99444141Y-84810416D01*
X99459154Y-84860815D01*
X99549867Y-85033100D01*
X99679214Y-85165802D01*
X99843182Y-85256308D01*
X100037754Y-85302008D01*
X100145493Y-85307237D01*
X100369618Y-85282765D01*
X100568141Y-85215993D01*
X100735836Y-85111589D01*
X100867481Y-84974223D01*
X100957849Y-84808563D01*
X101001716Y-84619278D01*
X101005083Y-84539073D01*
X100981019Y-84344811D01*
X100981019Y-84344811D01*
G37*
X100981019Y-84344811D02*
X100916639Y-84171879D01*
X100817915Y-84027311D01*
X100690825Y-83918140D01*
X100541343Y-83851399D01*
X100405453Y-83833264D01*
X100295818Y-83851742D01*
X100228684Y-83906641D01*
X100205005Y-83997163D01*
X100204975Y-84001158D01*
X100214764Y-84066282D01*
X100251027Y-84114030D01*
X100324106Y-84153201D01*
X100422495Y-84186204D01*
X100548398Y-84237369D01*
X100630111Y-84307554D01*
X100679214Y-84407081D01*
X100682471Y-84417976D01*
X100694388Y-84549740D01*
X100652874Y-84668927D01*
X100560062Y-84772909D01*
X100418081Y-84859057D01*
X100284156Y-84909311D01*
X100175583Y-84940410D01*
X100101485Y-84954331D01*
X100043004Y-84952381D01*
X99981283Y-84935866D01*
X99967761Y-84931234D01*
X99860939Y-84869824D01*
X99777607Y-84776464D01*
X99730835Y-84668038D01*
X99725197Y-84617911D01*
X99751868Y-84491815D01*
X99827570Y-84368251D01*
X99877738Y-84315178D01*
X99933988Y-84234531D01*
X99946264Y-84151032D01*
X99920437Y-84077587D01*
X99862374Y-84027104D01*
X99777947Y-84012492D01*
X99742771Y-84018362D01*
X99660696Y-84059824D01*
X99572551Y-84136241D01*
X99495126Y-84230960D01*
X99453722Y-84305080D01*
X99428213Y-84406183D01*
X99418260Y-84539057D01*
X99423642Y-84681276D01*
X99444141Y-84810416D01*
X99459154Y-84860815D01*
X99549867Y-85033100D01*
X99679214Y-85165802D01*
X99843182Y-85256308D01*
X100037754Y-85302008D01*
X100145493Y-85307237D01*
X100369618Y-85282765D01*
X100568141Y-85215993D01*
X100735836Y-85111589D01*
X100867481Y-84974223D01*
X100957849Y-84808563D01*
X101001716Y-84619278D01*
X101005083Y-84539073D01*
X100981019Y-84344811D01*
G36*
X100700342Y-76539626D02*
G01*
X100636847Y-76406213D01*
X100534516Y-76294171D01*
X100460687Y-76239138D01*
X100298931Y-76154827D01*
X100116206Y-76096963D01*
X99927404Y-76067420D01*
X99747419Y-76068071D01*
X99591147Y-76100793D01*
X99538911Y-76123128D01*
X99436578Y-76185285D01*
X99354930Y-76260570D01*
X99288392Y-76358368D01*
X99231389Y-76488062D01*
X99178346Y-76659039D01*
X99146498Y-76783712D01*
X99112112Y-76927051D01*
X99090541Y-77026127D01*
X99081327Y-77091538D01*
X99084013Y-77133881D01*
X99098141Y-77163756D01*
X99123256Y-77191760D01*
X99128668Y-77197180D01*
X99180128Y-77225492D01*
X99287243Y-77263165D01*
X99450005Y-77310199D01*
X99668405Y-77366590D01*
X99784835Y-77395017D01*
X99964536Y-77437622D01*
X100128404Y-77475264D01*
X100267566Y-77506002D01*
X100294995Y-77511689D01*
X100294995Y-77133649D01*
X100251010Y-77122375D01*
X100163670Y-77100997D01*
X100044570Y-77072321D01*
X99905304Y-77039152D01*
X99866308Y-77029923D01*
X99726381Y-76996332D01*
X99606274Y-76966527D01*
X99516652Y-76943226D01*
X99468178Y-76929149D01*
X99463276Y-76927143D01*
X99453066Y-76892241D01*
X99458964Y-76820802D01*
X99478194Y-76729483D01*
X99507984Y-76634938D01*
X99514884Y-76617305D01*
X99568980Y-76537892D01*
X99643562Y-76479808D01*
X99758135Y-76446704D01*
X99898068Y-76444351D01*
X100046391Y-76468885D01*
X100186135Y-76516444D01*
X100300329Y-76583165D01*
X100358332Y-76642499D01*
X100387103Y-76711949D01*
X100399792Y-76804327D01*
X100398172Y-76905879D01*
X100384017Y-77002853D01*
X100359100Y-77081493D01*
X100325196Y-77128047D01*
X100294995Y-77133649D01*
X100294995Y-77511689D01*
X100373150Y-77527895D01*
X100436286Y-77539002D01*
X100447546Y-77539991D01*
X100501790Y-77527972D01*
X100547577Y-77487831D01*
X100588723Y-77412589D01*
X100629047Y-77295267D01*
X100672319Y-77129088D01*
X100716628Y-76894965D01*
X100726452Y-76700510D01*
X100700342Y-76539626D01*
X100700342Y-76539626D01*
G37*
X100700342Y-76539626D02*
X100636847Y-76406213D01*
X100534516Y-76294171D01*
X100460687Y-76239138D01*
X100298931Y-76154827D01*
X100116206Y-76096963D01*
X99927404Y-76067420D01*
X99747419Y-76068071D01*
X99591147Y-76100793D01*
X99538911Y-76123128D01*
X99436578Y-76185285D01*
X99354930Y-76260570D01*
X99288392Y-76358368D01*
X99231389Y-76488062D01*
X99178346Y-76659039D01*
X99146498Y-76783712D01*
X99112112Y-76927051D01*
X99090541Y-77026127D01*
X99081327Y-77091538D01*
X99084013Y-77133881D01*
X99098141Y-77163756D01*
X99123256Y-77191760D01*
X99128668Y-77197180D01*
X99180128Y-77225492D01*
X99287243Y-77263165D01*
X99450005Y-77310199D01*
X99668405Y-77366590D01*
X99784835Y-77395017D01*
X99964536Y-77437622D01*
X100128404Y-77475264D01*
X100267566Y-77506002D01*
X100294995Y-77511689D01*
X100294995Y-77133649D01*
X100251010Y-77122375D01*
X100163670Y-77100997D01*
X100044570Y-77072321D01*
X99905304Y-77039152D01*
X99866308Y-77029923D01*
X99726381Y-76996332D01*
X99606274Y-76966527D01*
X99516652Y-76943226D01*
X99468178Y-76929149D01*
X99463276Y-76927143D01*
X99453066Y-76892241D01*
X99458964Y-76820802D01*
X99478194Y-76729483D01*
X99507984Y-76634938D01*
X99514884Y-76617305D01*
X99568980Y-76537892D01*
X99643562Y-76479808D01*
X99758135Y-76446704D01*
X99898068Y-76444351D01*
X100046391Y-76468885D01*
X100186135Y-76516444D01*
X100300329Y-76583165D01*
X100358332Y-76642499D01*
X100387103Y-76711949D01*
X100399792Y-76804327D01*
X100398172Y-76905879D01*
X100384017Y-77002853D01*
X100359100Y-77081493D01*
X100325196Y-77128047D01*
X100294995Y-77133649D01*
X100294995Y-77511689D01*
X100373150Y-77527895D01*
X100436286Y-77539002D01*
X100447546Y-77539991D01*
X100501790Y-77527972D01*
X100547577Y-77487831D01*
X100588723Y-77412589D01*
X100629047Y-77295267D01*
X100672319Y-77129088D01*
X100716628Y-76894965D01*
X100726452Y-76700510D01*
X100700342Y-76539626D01*
G36*
X100623474Y-83032715D02*
G01*
X100622549Y-83018578D01*
X100615441Y-82956737D01*
X100599082Y-82906633D01*
X100567169Y-82865411D01*
X100513395Y-82830221D01*
X100431458Y-82798210D01*
X100315053Y-82766524D01*
X100157874Y-82732312D01*
X99953618Y-82692721D01*
X99866308Y-82676409D01*
X99628195Y-82632941D01*
X99439054Y-82600686D01*
X99292611Y-82579289D01*
X99182592Y-82568393D01*
X99102723Y-82567641D01*
X99046730Y-82576677D01*
X99008339Y-82595145D01*
X98981277Y-82622687D01*
X98978909Y-82625988D01*
X98938811Y-82715935D01*
X98953564Y-82796698D01*
X98990299Y-82844366D01*
X99055621Y-82883745D01*
X99151858Y-82912700D01*
X99184241Y-82918078D01*
X99270498Y-82932250D01*
X99333676Y-82947571D01*
X99350308Y-82954476D01*
X99367176Y-82988424D01*
X99389984Y-83064864D01*
X99415098Y-83170661D01*
X99429053Y-83239072D01*
X99452374Y-83370087D01*
X99462262Y-83454681D01*
X99459219Y-83501130D01*
X99445971Y-83517118D01*
X99405044Y-83539867D01*
X99338119Y-83585460D01*
X99293228Y-83618621D01*
X99202744Y-83708283D01*
X99164086Y-83797755D01*
X99178611Y-83882376D01*
X99205345Y-83920427D01*
X99241299Y-83952380D01*
X99282614Y-83968724D01*
X99335244Y-83967066D01*
X99405146Y-83945014D01*
X99498275Y-83900177D01*
X99620587Y-83830161D01*
X99762248Y-83742364D01*
X99762248Y-83315269D01*
X99762099Y-83315129D01*
X99743953Y-83275299D01*
X99724051Y-83201774D01*
X99707576Y-83116873D01*
X99699864Y-83047078D01*
X99709212Y-82997990D01*
X99734390Y-82994916D01*
X99780354Y-83005139D01*
X99863906Y-83017819D01*
X99960561Y-83029488D01*
X100057895Y-83042728D01*
X100130658Y-83057899D01*
X100162798Y-83071518D01*
X100146882Y-83094254D01*
X100094518Y-83134807D01*
X100019315Y-83184903D01*
X99934880Y-83236269D01*
X99854819Y-83280634D01*
X99792740Y-83309725D01*
X99762248Y-83315269D01*
X99762248Y-83742364D01*
X99778038Y-83732577D01*
X99953688Y-83619862D01*
X100150614Y-83492168D01*
X100305185Y-83390632D01*
X100422428Y-83310734D01*
X100507369Y-83247956D01*
X100565035Y-83197780D01*
X100600452Y-83155686D01*
X100618646Y-83117156D01*
X100624645Y-83077672D01*
X100623474Y-83032715D01*
X100623474Y-83032715D01*
G37*
X100623474Y-83032715D02*
X100622549Y-83018578D01*
X100615441Y-82956737D01*
X100599082Y-82906633D01*
X100567169Y-82865411D01*
X100513395Y-82830221D01*
X100431458Y-82798210D01*
X100315053Y-82766524D01*
X100157874Y-82732312D01*
X99953618Y-82692721D01*
X99866308Y-82676409D01*
X99628195Y-82632941D01*
X99439054Y-82600686D01*
X99292611Y-82579289D01*
X99182592Y-82568393D01*
X99102723Y-82567641D01*
X99046730Y-82576677D01*
X99008339Y-82595145D01*
X98981277Y-82622687D01*
X98978909Y-82625988D01*
X98938811Y-82715935D01*
X98953564Y-82796698D01*
X98990299Y-82844366D01*
X99055621Y-82883745D01*
X99151858Y-82912700D01*
X99184241Y-82918078D01*
X99270498Y-82932250D01*
X99333676Y-82947571D01*
X99350308Y-82954476D01*
X99367176Y-82988424D01*
X99389984Y-83064864D01*
X99415098Y-83170661D01*
X99429053Y-83239072D01*
X99452374Y-83370087D01*
X99462262Y-83454681D01*
X99459219Y-83501130D01*
X99445971Y-83517118D01*
X99405044Y-83539867D01*
X99338119Y-83585460D01*
X99293228Y-83618621D01*
X99202744Y-83708283D01*
X99164086Y-83797755D01*
X99178611Y-83882376D01*
X99205345Y-83920427D01*
X99241299Y-83952380D01*
X99282614Y-83968724D01*
X99335244Y-83967066D01*
X99405146Y-83945014D01*
X99498275Y-83900177D01*
X99620587Y-83830161D01*
X99762248Y-83742364D01*
X99762248Y-83315269D01*
X99762099Y-83315129D01*
X99743953Y-83275299D01*
X99724051Y-83201774D01*
X99707576Y-83116873D01*
X99699864Y-83047078D01*
X99709212Y-82997990D01*
X99734390Y-82994916D01*
X99780354Y-83005139D01*
X99863906Y-83017819D01*
X99960561Y-83029488D01*
X100057895Y-83042728D01*
X100130658Y-83057899D01*
X100162798Y-83071518D01*
X100146882Y-83094254D01*
X100094518Y-83134807D01*
X100019315Y-83184903D01*
X99934880Y-83236269D01*
X99854819Y-83280634D01*
X99792740Y-83309725D01*
X99762248Y-83315269D01*
X99762248Y-83742364D01*
X99778038Y-83732577D01*
X99953688Y-83619862D01*
X100150614Y-83492168D01*
X100305185Y-83390632D01*
X100422428Y-83310734D01*
X100507369Y-83247956D01*
X100565035Y-83197780D01*
X100600452Y-83155686D01*
X100618646Y-83117156D01*
X100624645Y-83077672D01*
X100623474Y-83032715D01*
G36*
X100508931Y-77785224D02*
G01*
X100501444Y-77746895D01*
X100489852Y-77726351D01*
X100429234Y-77690203D01*
X100349977Y-77683264D01*
X100280085Y-77706101D01*
X100262581Y-77721754D01*
X100245829Y-77764456D01*
X100225091Y-77850811D01*
X100202963Y-77968414D01*
X100182040Y-78104860D01*
X100181363Y-78109810D01*
X100134118Y-78456931D01*
X99993158Y-78447000D01*
X99910944Y-78440019D01*
X99856423Y-78433140D01*
X99844603Y-78429998D01*
X99845210Y-78400973D01*
X99852690Y-78327757D01*
X99865730Y-78222004D01*
X99879881Y-78117517D01*
X99900658Y-77968428D01*
X99913735Y-77865120D01*
X99919074Y-77797452D01*
X99916642Y-77755281D01*
X99906401Y-77728469D01*
X99888318Y-77706872D01*
X99878404Y-77696947D01*
X99805226Y-77657136D01*
X99725854Y-77662200D01*
X99661909Y-77710260D01*
X99657986Y-77716098D01*
X99638120Y-77769846D01*
X99616247Y-77864924D01*
X99595422Y-77986447D01*
X99582701Y-78082754D01*
X99547707Y-78385910D01*
X99389508Y-78368428D01*
X99299547Y-78355933D01*
X99233993Y-78342103D01*
X99212307Y-78333383D01*
X99208573Y-78300311D01*
X99211932Y-78222441D01*
X99221588Y-78110865D01*
X99236743Y-77976673D01*
X99239525Y-77954624D01*
X99259221Y-77785077D01*
X99268269Y-77664540D01*
X99266921Y-77586640D01*
X99255680Y-77545401D01*
X99202805Y-77504895D01*
X99126859Y-77488923D01*
X99054382Y-77500084D01*
X99022186Y-77522533D01*
X99003692Y-77568125D01*
X98981746Y-77658019D01*
X98958164Y-77780315D01*
X98934758Y-77923118D01*
X98913343Y-78074530D01*
X98895731Y-78222652D01*
X98883738Y-78355589D01*
X98879179Y-78460563D01*
X98880687Y-78556941D01*
X98890070Y-78612602D01*
X98913252Y-78643236D01*
X98956142Y-78664534D01*
X99008831Y-78678052D01*
X99106712Y-78696453D01*
X99238894Y-78718225D01*
X99394489Y-78741852D01*
X99562607Y-78765823D01*
X99732358Y-78788624D01*
X99892854Y-78808741D01*
X100033203Y-78824661D01*
X100142518Y-78834871D01*
X100203863Y-78837931D01*
X100267116Y-78834109D01*
X100316209Y-78817969D01*
X100354282Y-78782500D01*
X100384474Y-78720689D01*
X100409927Y-78625525D01*
X100433780Y-78489997D01*
X100459173Y-78307092D01*
X100466279Y-78251977D01*
X100488563Y-78071954D01*
X100502856Y-77939593D01*
X100509523Y-77846737D01*
X100508931Y-77785224D01*
X100508931Y-77785224D01*
G37*
X100508931Y-77785224D02*
X100501444Y-77746895D01*
X100489852Y-77726351D01*
X100429234Y-77690203D01*
X100349977Y-77683264D01*
X100280085Y-77706101D01*
X100262581Y-77721754D01*
X100245829Y-77764456D01*
X100225091Y-77850811D01*
X100202963Y-77968414D01*
X100182040Y-78104860D01*
X100181363Y-78109810D01*
X100134118Y-78456931D01*
X99993158Y-78447000D01*
X99910944Y-78440019D01*
X99856423Y-78433140D01*
X99844603Y-78429998D01*
X99845210Y-78400973D01*
X99852690Y-78327757D01*
X99865730Y-78222004D01*
X99879881Y-78117517D01*
X99900658Y-77968428D01*
X99913735Y-77865120D01*
X99919074Y-77797452D01*
X99916642Y-77755281D01*
X99906401Y-77728469D01*
X99888318Y-77706872D01*
X99878404Y-77696947D01*
X99805226Y-77657136D01*
X99725854Y-77662200D01*
X99661909Y-77710260D01*
X99657986Y-77716098D01*
X99638120Y-77769846D01*
X99616247Y-77864924D01*
X99595422Y-77986447D01*
X99582701Y-78082754D01*
X99547707Y-78385910D01*
X99389508Y-78368428D01*
X99299547Y-78355933D01*
X99233993Y-78342103D01*
X99212307Y-78333383D01*
X99208573Y-78300311D01*
X99211932Y-78222441D01*
X99221588Y-78110865D01*
X99236743Y-77976673D01*
X99239525Y-77954624D01*
X99259221Y-77785077D01*
X99268269Y-77664540D01*
X99266921Y-77586640D01*
X99255680Y-77545401D01*
X99202805Y-77504895D01*
X99126859Y-77488923D01*
X99054382Y-77500084D01*
X99022186Y-77522533D01*
X99003692Y-77568125D01*
X98981746Y-77658019D01*
X98958164Y-77780315D01*
X98934758Y-77923118D01*
X98913343Y-78074530D01*
X98895731Y-78222652D01*
X98883738Y-78355589D01*
X98879179Y-78460563D01*
X98880687Y-78556941D01*
X98890070Y-78612602D01*
X98913252Y-78643236D01*
X98956142Y-78664534D01*
X99008831Y-78678052D01*
X99106712Y-78696453D01*
X99238894Y-78718225D01*
X99394489Y-78741852D01*
X99562607Y-78765823D01*
X99732358Y-78788624D01*
X99892854Y-78808741D01*
X100033203Y-78824661D01*
X100142518Y-78834871D01*
X100203863Y-78837931D01*
X100267116Y-78834109D01*
X100316209Y-78817969D01*
X100354282Y-78782500D01*
X100384474Y-78720689D01*
X100409927Y-78625525D01*
X100433780Y-78489997D01*
X100459173Y-78307092D01*
X100466279Y-78251977D01*
X100488563Y-78071954D01*
X100502856Y-77939593D01*
X100509523Y-77846737D01*
X100508931Y-77785224D01*
G36*
X100340620Y-79803410D02*
G01*
X100315148Y-79760767D01*
X100256058Y-79729376D01*
X100254364Y-79728678D01*
X100186969Y-79712609D01*
X100068598Y-79697699D01*
X99904717Y-79684458D01*
X99700792Y-79673396D01*
X99630541Y-79670498D01*
X99098439Y-79650024D01*
X99105232Y-79349811D01*
X99108514Y-79194519D01*
X99109071Y-79085761D01*
X99105308Y-79013638D01*
X99095631Y-78968249D01*
X99078446Y-78939695D01*
X99052159Y-78918078D01*
X99033753Y-78905891D01*
X98978307Y-78876067D01*
X98934685Y-78881045D01*
X98893961Y-78905027D01*
X98861660Y-78930576D01*
X98837394Y-78964546D01*
X98819566Y-79015361D01*
X98806577Y-79091441D01*
X98796830Y-79201210D01*
X98788728Y-79353090D01*
X98783175Y-79489111D01*
X98779058Y-79675187D01*
X98783163Y-79808208D01*
X98795621Y-79890980D01*
X98802887Y-79910477D01*
X98854503Y-79967378D01*
X98915011Y-79998011D01*
X98965969Y-80005136D01*
X99063815Y-80013154D01*
X99199009Y-80021501D01*
X99362015Y-80029610D01*
X99543292Y-80036915D01*
X99608112Y-80039139D01*
X99830999Y-80045901D01*
X100003844Y-80048899D01*
X100132995Y-80046763D01*
X100224803Y-80038120D01*
X100285618Y-80021598D01*
X100321791Y-79995825D01*
X100339671Y-79959430D01*
X100345610Y-79911041D01*
X100346086Y-79879720D01*
X100340620Y-79803410D01*
X100340620Y-79803410D01*
G37*
X100340620Y-79803410D02*
X100315148Y-79760767D01*
X100256058Y-79729376D01*
X100254364Y-79728678D01*
X100186969Y-79712609D01*
X100068598Y-79697699D01*
X99904717Y-79684458D01*
X99700792Y-79673396D01*
X99630541Y-79670498D01*
X99098439Y-79650024D01*
X99105232Y-79349811D01*
X99108514Y-79194519D01*
X99109071Y-79085761D01*
X99105308Y-79013638D01*
X99095631Y-78968249D01*
X99078446Y-78939695D01*
X99052159Y-78918078D01*
X99033753Y-78905891D01*
X98978307Y-78876067D01*
X98934685Y-78881045D01*
X98893961Y-78905027D01*
X98861660Y-78930576D01*
X98837394Y-78964546D01*
X98819566Y-79015361D01*
X98806577Y-79091441D01*
X98796830Y-79201210D01*
X98788728Y-79353090D01*
X98783175Y-79489111D01*
X98779058Y-79675187D01*
X98783163Y-79808208D01*
X98795621Y-79890980D01*
X98802887Y-79910477D01*
X98854503Y-79967378D01*
X98915011Y-79998011D01*
X98965969Y-80005136D01*
X99063815Y-80013154D01*
X99199009Y-80021501D01*
X99362015Y-80029610D01*
X99543292Y-80036915D01*
X99608112Y-80039139D01*
X99830999Y-80045901D01*
X100003844Y-80048899D01*
X100132995Y-80046763D01*
X100224803Y-80038120D01*
X100285618Y-80021598D01*
X100321791Y-79995825D01*
X100339671Y-79959430D01*
X100345610Y-79911041D01*
X100346086Y-79879720D01*
X100340620Y-79803410D01*
G36*
X100427891Y-81902732D02*
G01*
X100414284Y-81828784D01*
X100382396Y-81774167D01*
X100324694Y-81733593D01*
X100233643Y-81701776D01*
X100101709Y-81673430D01*
X99921357Y-81643267D01*
X99920245Y-81643091D01*
X99772516Y-81619909D01*
X99642694Y-81599977D01*
X99541944Y-81584976D01*
X99481435Y-81576587D01*
X99471197Y-81575474D01*
X99481417Y-81565818D01*
X99537173Y-81541205D01*
X99630541Y-81504780D01*
X99753594Y-81459689D01*
X99838086Y-81429884D01*
X99984502Y-81377131D01*
X100114904Y-81326814D01*
X100218492Y-81283352D01*
X100284466Y-81251165D01*
X100299543Y-81241071D01*
X100329084Y-81203631D01*
X100342509Y-81148892D01*
X100342909Y-81060343D01*
X100340726Y-81021157D01*
X100326730Y-80896153D01*
X100298239Y-80817405D01*
X100246578Y-80775027D01*
X100163070Y-80759129D01*
X100109797Y-80757996D01*
X100001779Y-80761519D01*
X99862722Y-80770208D01*
X99702410Y-80783008D01*
X99530627Y-80798865D01*
X99357157Y-80816725D01*
X99191784Y-80835531D01*
X99044291Y-80854230D01*
X98924464Y-80871766D01*
X98842085Y-80887085D01*
X98807716Y-80898368D01*
X98770833Y-80961272D01*
X98766397Y-81044389D01*
X98792301Y-81123303D01*
X98830752Y-81165291D01*
X98861280Y-81181225D01*
X98900797Y-81190768D01*
X98958811Y-81193939D01*
X99044835Y-81190757D01*
X99168379Y-81181242D01*
X99329703Y-81166301D01*
X99479464Y-81152515D01*
X99608010Y-81141807D01*
X99705517Y-81134907D01*
X99762159Y-81132542D01*
X99772357Y-81133460D01*
X99749980Y-81144128D01*
X99682472Y-81167764D01*
X99578849Y-81201404D01*
X99448129Y-81242084D01*
X99368032Y-81266360D01*
X99180649Y-81324316D01*
X99041150Y-81372667D01*
X98942689Y-81415615D01*
X98878419Y-81457361D01*
X98841496Y-81502106D01*
X98825071Y-81554051D01*
X98822086Y-81601383D01*
X98825894Y-81665724D01*
X98841941Y-81715774D01*
X98877169Y-81754642D01*
X98938514Y-81785441D01*
X99032915Y-81811280D01*
X99167313Y-81835271D01*
X99348645Y-81860525D01*
X99420672Y-81869756D01*
X99908642Y-81931556D01*
X99485308Y-81967418D01*
X99294772Y-81984314D01*
X99152514Y-81999525D01*
X99050490Y-82015078D01*
X98980656Y-82032998D01*
X98934969Y-82055312D01*
X98905384Y-82084044D01*
X98885146Y-82118554D01*
X98867960Y-82204015D01*
X98891030Y-82284035D01*
X98946977Y-82338710D01*
X98970014Y-82347446D01*
X99022855Y-82351067D01*
X99120471Y-82348415D01*
X99252867Y-82340495D01*
X99410048Y-82328314D01*
X99582021Y-82312877D01*
X99758790Y-82295189D01*
X99930361Y-82276257D01*
X100086739Y-82257087D01*
X100217931Y-82238683D01*
X100313941Y-82222053D01*
X100364774Y-82208200D01*
X100367253Y-82206843D01*
X100404008Y-82175186D01*
X100423259Y-82128454D01*
X100430230Y-82049738D01*
X100430753Y-82001296D01*
X100427891Y-81902732D01*
X100427891Y-81902732D01*
G37*
X100427891Y-81902732D02*
X100414284Y-81828784D01*
X100382396Y-81774167D01*
X100324694Y-81733593D01*
X100233643Y-81701776D01*
X100101709Y-81673430D01*
X99921357Y-81643267D01*
X99920245Y-81643091D01*
X99772516Y-81619909D01*
X99642694Y-81599977D01*
X99541944Y-81584976D01*
X99481435Y-81576587D01*
X99471197Y-81575474D01*
X99481417Y-81565818D01*
X99537173Y-81541205D01*
X99630541Y-81504780D01*
X99753594Y-81459689D01*
X99838086Y-81429884D01*
X99984502Y-81377131D01*
X100114904Y-81326814D01*
X100218492Y-81283352D01*
X100284466Y-81251165D01*
X100299543Y-81241071D01*
X100329084Y-81203631D01*
X100342509Y-81148892D01*
X100342909Y-81060343D01*
X100340726Y-81021157D01*
X100326730Y-80896153D01*
X100298239Y-80817405D01*
X100246578Y-80775027D01*
X100163070Y-80759129D01*
X100109797Y-80757996D01*
X100001779Y-80761519D01*
X99862722Y-80770208D01*
X99702410Y-80783008D01*
X99530627Y-80798865D01*
X99357157Y-80816725D01*
X99191784Y-80835531D01*
X99044291Y-80854230D01*
X98924464Y-80871766D01*
X98842085Y-80887085D01*
X98807716Y-80898368D01*
X98770833Y-80961272D01*
X98766397Y-81044389D01*
X98792301Y-81123303D01*
X98830752Y-81165291D01*
X98861280Y-81181225D01*
X98900797Y-81190768D01*
X98958811Y-81193939D01*
X99044835Y-81190757D01*
X99168379Y-81181242D01*
X99329703Y-81166301D01*
X99479464Y-81152515D01*
X99608010Y-81141807D01*
X99705517Y-81134907D01*
X99762159Y-81132542D01*
X99772357Y-81133460D01*
X99749980Y-81144128D01*
X99682472Y-81167764D01*
X99578849Y-81201404D01*
X99448129Y-81242084D01*
X99368032Y-81266360D01*
X99180649Y-81324316D01*
X99041150Y-81372667D01*
X98942689Y-81415615D01*
X98878419Y-81457361D01*
X98841496Y-81502106D01*
X98825071Y-81554051D01*
X98822086Y-81601383D01*
X98825894Y-81665724D01*
X98841941Y-81715774D01*
X98877169Y-81754642D01*
X98938514Y-81785441D01*
X99032915Y-81811280D01*
X99167313Y-81835271D01*
X99348645Y-81860525D01*
X99420672Y-81869756D01*
X99908642Y-81931556D01*
X99485308Y-81967418D01*
X99294772Y-81984314D01*
X99152514Y-81999525D01*
X99050490Y-82015078D01*
X98980656Y-82032998D01*
X98934969Y-82055312D01*
X98905384Y-82084044D01*
X98885146Y-82118554D01*
X98867960Y-82204015D01*
X98891030Y-82284035D01*
X98946977Y-82338710D01*
X98970014Y-82347446D01*
X99022855Y-82351067D01*
X99120471Y-82348415D01*
X99252867Y-82340495D01*
X99410048Y-82328314D01*
X99582021Y-82312877D01*
X99758790Y-82295189D01*
X99930361Y-82276257D01*
X100086739Y-82257087D01*
X100217931Y-82238683D01*
X100313941Y-82222053D01*
X100364774Y-82208200D01*
X100367253Y-82206843D01*
X100404008Y-82175186D01*
X100423259Y-82128454D01*
X100430230Y-82049738D01*
X100430753Y-82001296D01*
X100427891Y-81902732D01*
D11*
X106684165Y-93897765D02*
X104511001Y-93191661D01*
X107138420Y-92499712D02*
X106684165Y-93897765D01*
X104965256Y-91793608D02*
X107138420Y-92499712D01*
X111565839Y-94023147D02*
X109287883Y-94202426D01*
X109287883Y-94202426D02*
X109172548Y-92736958D01*
X109172548Y-92736958D02*
X111450504Y-92557678D01*
X97911517Y-84975692D02*
X98948886Y-87011642D01*
X98948886Y-87011642D02*
X97639106Y-87679008D01*
X97639106Y-87679008D02*
X96601738Y-85643058D01*
X118374831Y-89300399D02*
X119858820Y-87562871D01*
X119492628Y-90255087D02*
X118374831Y-89300399D01*
X120976617Y-88517560D02*
X119492628Y-90255087D01*
X95580499Y-82474834D02*
X95421105Y-80195400D01*
X97046918Y-82372292D02*
X95580499Y-82474834D01*
X96887524Y-80092858D02*
X97046918Y-82372292D01*
X123419960Y-83532662D02*
X122713856Y-85705826D01*
X122713856Y-85705826D02*
X121315803Y-85251571D01*
X121315803Y-85251571D02*
X122021907Y-83078407D01*
X100379970Y-70780270D02*
X99108835Y-72679069D01*
X99108835Y-72679069D02*
X97887287Y-71861315D01*
X97887287Y-71861315D02*
X99158423Y-69962515D01*
X121723446Y-75395412D02*
X120686078Y-73359462D01*
X123033226Y-74728046D02*
X121723446Y-75395412D01*
X121995857Y-72692096D02*
X123033226Y-74728046D01*
X101891508Y-67911006D02*
X103927458Y-66873638D01*
X102558874Y-69220786D02*
X101891508Y-67911006D01*
X104594824Y-68183417D02*
X102558874Y-69220786D01*
X118324460Y-68603903D02*
X120061987Y-70087892D01*
X120061987Y-70087892D02*
X119107299Y-71205689D01*
X119107299Y-71205689D02*
X117369771Y-69721700D01*
X101510179Y-91698409D02*
X99772651Y-90214420D01*
X102464867Y-90580612D02*
X101510179Y-91698409D01*
X100727340Y-89096623D02*
X102464867Y-90580612D01*
X116880648Y-92318437D02*
X114844698Y-93355806D01*
X114844698Y-93355806D02*
X114177332Y-92046026D01*
X114177332Y-92046026D02*
X116213282Y-91008658D01*
X97697380Y-75099862D02*
X96991276Y-77273026D01*
X96991276Y-77273026D02*
X95593223Y-76818771D01*
X95593223Y-76818771D02*
X96299327Y-74645607D01*
X122484878Y-80382230D02*
X122305598Y-78104274D01*
X123950346Y-80266895D02*
X122484878Y-80382230D01*
X123771067Y-77988939D02*
X123950346Y-80266895D01*
X107051990Y-65858118D02*
X109329946Y-65678838D01*
X107167325Y-67323586D02*
X107051990Y-65858118D01*
X109445281Y-67144307D02*
X107167325Y-67323586D01*
X113339562Y-66125000D02*
X115512726Y-66831104D01*
X115512726Y-66831104D02*
X115058471Y-68229157D01*
X115058471Y-68229157D02*
X112885307Y-67523053D01*
X106130508Y-92056181D02*
X106285016Y-91580653D01*
X106171795Y-91543865D01*
X106096505Y-91544437D01*
X106036502Y-91575010D01*
X105999142Y-91612941D01*
X105947068Y-91696160D01*
X105924995Y-91764093D01*
X105918209Y-91862027D01*
X105926139Y-91914673D01*
X105956712Y-91974677D01*
X106017287Y-92019394D01*
X106130508Y-92056181D01*
X105405893Y-91820740D02*
X105677624Y-91909030D01*
X105541759Y-91864885D02*
X105696267Y-91389357D01*
X105719483Y-91472005D01*
X105750056Y-91532008D01*
X105787987Y-91569367D01*
X110977256Y-92459498D02*
X110938027Y-91961039D01*
X110819346Y-91970379D01*
X110750006Y-91999720D01*
X110706270Y-92050928D01*
X110686270Y-92100268D01*
X110670006Y-92197081D01*
X110675610Y-92268289D01*
X110706818Y-92361366D01*
X110734291Y-92406970D01*
X110785499Y-92450706D01*
X110858576Y-92468838D01*
X110977256Y-92459498D01*
X110467040Y-92045873D02*
X110441436Y-92024005D01*
X110392096Y-92004005D01*
X110273415Y-92013345D01*
X110227811Y-92040817D01*
X110205943Y-92066421D01*
X110185943Y-92115762D01*
X110189679Y-92163234D01*
X110219019Y-92232574D01*
X110526270Y-92494991D01*
X110217700Y-92519276D01*
X98545946Y-85953312D02*
X98991450Y-85726316D01*
X98937403Y-85620244D01*
X98883761Y-85567410D01*
X98819713Y-85546600D01*
X98766475Y-85547004D01*
X98670808Y-85569027D01*
X98607165Y-85601455D01*
X98533116Y-85665906D01*
X98501497Y-85708739D01*
X98480686Y-85772787D01*
X98491900Y-85847239D01*
X98545946Y-85953312D01*
X98786073Y-85323242D02*
X98645552Y-85047454D01*
X98551502Y-85282430D01*
X98519074Y-85218786D01*
X98476241Y-85187167D01*
X98444217Y-85176762D01*
X98390979Y-85177166D01*
X98284907Y-85231212D01*
X98253287Y-85274045D01*
X98242882Y-85306069D01*
X98243286Y-85359307D01*
X98308142Y-85486594D01*
X98350975Y-85518214D01*
X98382999Y-85528619D01*
X119512273Y-87773132D02*
X119132070Y-87448408D01*
X119054755Y-87538933D01*
X119026471Y-87608711D01*
X119031755Y-87675847D01*
X119052501Y-87724878D01*
X119109458Y-87804835D01*
X119163773Y-87851224D01*
X119251655Y-87894971D01*
X119303328Y-87907792D01*
X119370464Y-87902509D01*
X119434958Y-87863657D01*
X119512273Y-87773132D01*
X118794913Y-88099797D02*
X119048382Y-88316280D01*
X118727389Y-87885568D02*
X119076278Y-88026989D01*
X118875258Y-88262353D01*
X97102423Y-81254986D02*
X97601205Y-81220108D01*
X97592901Y-81101351D01*
X97564167Y-81031757D01*
X97513342Y-80987576D01*
X97464178Y-80967146D01*
X97367511Y-80950038D01*
X97296257Y-80955020D01*
X97202912Y-80985415D01*
X97157069Y-81012489D01*
X97112888Y-81063313D01*
X97094119Y-81136229D01*
X97102423Y-81254986D01*
X97549719Y-80483811D02*
X97566327Y-80721326D01*
X97330473Y-80761686D01*
X97352564Y-80736274D01*
X97372993Y-80687110D01*
X97364689Y-80568352D01*
X97337616Y-80522510D01*
X97312203Y-80500420D01*
X97263039Y-80479990D01*
X97144282Y-80488294D01*
X97098440Y-80515367D01*
X97076349Y-80540780D01*
X97055919Y-80589944D01*
X97064223Y-80708701D01*
X97091297Y-80754543D01*
X97116709Y-80776634D01*
X121748781Y-83401751D02*
X121273253Y-83247243D01*
X121236465Y-83360464D01*
X121237037Y-83435754D01*
X121267610Y-83495757D01*
X121305541Y-83533117D01*
X121388760Y-83585191D01*
X121456693Y-83607264D01*
X121554627Y-83614050D01*
X121607273Y-83606120D01*
X121667277Y-83575547D01*
X121711994Y-83514972D01*
X121748781Y-83401751D01*
X121052527Y-83926569D02*
X121081957Y-83835992D01*
X121119316Y-83798061D01*
X121149318Y-83782774D01*
X121231966Y-83759559D01*
X121329900Y-83766345D01*
X121511054Y-83825205D01*
X121548985Y-83862564D01*
X121564271Y-83892566D01*
X121572200Y-83945212D01*
X121542770Y-84035789D01*
X121505411Y-84073720D01*
X121475409Y-84089006D01*
X121422763Y-84096935D01*
X121309542Y-84060148D01*
X121271611Y-84022788D01*
X121256325Y-83992787D01*
X121248395Y-83940141D01*
X121277826Y-83849564D01*
X121315185Y-83811633D01*
X121345187Y-83796346D01*
X121397833Y-83788417D01*
X100662300Y-71515735D02*
X100246808Y-71237588D01*
X100180582Y-71336514D01*
X100160632Y-71409116D01*
X100173712Y-71475176D01*
X100200038Y-71521452D01*
X100265934Y-71594218D01*
X100325290Y-71633953D01*
X100417677Y-71667149D01*
X100470492Y-71673853D01*
X100536553Y-71660773D01*
X100596074Y-71614662D01*
X100662300Y-71515735D01*
X99995150Y-71613509D02*
X99809718Y-71890504D01*
X100344417Y-71990584D01*
X120595686Y-74706192D02*
X121041190Y-74479196D01*
X120987143Y-74373124D01*
X120933501Y-74320290D01*
X120869453Y-74299480D01*
X120816215Y-74299884D01*
X120720548Y-74321907D01*
X120656905Y-74354335D01*
X120582856Y-74418786D01*
X120551237Y-74461619D01*
X120530426Y-74525667D01*
X120541640Y-74600119D01*
X120595686Y-74706192D01*
X120590837Y-74067334D02*
X120633670Y-74098953D01*
X120665693Y-74109358D01*
X120718932Y-74108954D01*
X120740146Y-74098145D01*
X120771766Y-74055312D01*
X120782171Y-74023288D01*
X120781767Y-73970050D01*
X120738529Y-73885192D01*
X120695696Y-73853572D01*
X120663673Y-73843167D01*
X120610434Y-73843571D01*
X120589220Y-73854381D01*
X120557600Y-73897214D01*
X120547195Y-73929238D01*
X120547599Y-73982476D01*
X120590837Y-74067334D01*
X120591241Y-74120572D01*
X120580836Y-74152595D01*
X120549216Y-74195428D01*
X120464358Y-74238666D01*
X120411120Y-74239070D01*
X120379096Y-74228665D01*
X120336263Y-74197045D01*
X120293026Y-74112187D01*
X120292622Y-74058949D01*
X120303027Y-74026925D01*
X120334647Y-73984092D01*
X120419504Y-73940855D01*
X120472743Y-73940451D01*
X120504766Y-73950856D01*
X120547599Y-73982476D01*
X104482612Y-68997533D02*
X104255616Y-68552029D01*
X104149544Y-68606076D01*
X104096710Y-68659718D01*
X104075900Y-68723766D01*
X104076304Y-68777004D01*
X104098327Y-68872671D01*
X104130755Y-68936314D01*
X104195206Y-69010363D01*
X104238039Y-69041982D01*
X104302087Y-69062793D01*
X104376539Y-69051579D01*
X104482612Y-68997533D01*
X104015894Y-69235337D02*
X103931036Y-69278574D01*
X103877798Y-69278978D01*
X103845774Y-69268573D01*
X103770918Y-69226549D01*
X103706466Y-69152500D01*
X103619991Y-68982785D01*
X103619587Y-68929546D01*
X103629992Y-68897523D01*
X103661612Y-68854690D01*
X103746470Y-68811452D01*
X103799708Y-68811048D01*
X103831732Y-68821453D01*
X103874565Y-68853073D01*
X103928611Y-68959145D01*
X103929015Y-69012383D01*
X103918610Y-69044407D01*
X103886991Y-69087240D01*
X103802133Y-69130477D01*
X103748895Y-69130882D01*
X103716871Y-69120476D01*
X103674038Y-69088857D01*
X117982816Y-71117344D02*
X118307540Y-70737141D01*
X118217015Y-70659826D01*
X118147237Y-70631541D01*
X118080101Y-70636825D01*
X118031070Y-70657572D01*
X117951113Y-70714528D01*
X117904724Y-70768843D01*
X117860977Y-70856726D01*
X117848156Y-70908399D01*
X117853439Y-70975535D01*
X117892291Y-71040029D01*
X117982816Y-71117344D01*
X117403459Y-70622526D02*
X117620718Y-70808083D01*
X117512088Y-70715305D02*
X117836812Y-70335102D01*
X117826633Y-70420342D01*
X117831916Y-70487478D01*
X117852663Y-70536509D01*
X117492819Y-70041304D02*
X117456609Y-70010378D01*
X117404936Y-69997556D01*
X117371368Y-70000198D01*
X117322337Y-70020945D01*
X117242380Y-70077902D01*
X117165065Y-70168426D01*
X117121318Y-70256309D01*
X117108496Y-70307982D01*
X117111138Y-70341550D01*
X117131885Y-70390581D01*
X117168095Y-70421507D01*
X117219768Y-70434328D01*
X117253336Y-70431686D01*
X117302367Y-70410939D01*
X117382324Y-70353983D01*
X117459639Y-70263458D01*
X117503386Y-70175575D01*
X117516208Y-70123903D01*
X117513566Y-70090335D01*
X117492819Y-70041304D01*
X101894456Y-89872704D02*
X102219180Y-89492501D01*
X102128655Y-89415186D01*
X102058877Y-89386901D01*
X101991741Y-89392185D01*
X101942710Y-89412932D01*
X101862753Y-89469888D01*
X101816364Y-89524203D01*
X101772617Y-89612086D01*
X101759796Y-89663759D01*
X101765079Y-89730895D01*
X101803931Y-89795389D01*
X101894456Y-89872704D01*
X101315099Y-89377886D02*
X101532358Y-89563443D01*
X101423728Y-89470665D02*
X101748452Y-89090462D01*
X101738273Y-89175702D01*
X101743556Y-89242838D01*
X101764303Y-89291869D01*
X101464057Y-88910189D02*
X101461416Y-88876621D01*
X101440669Y-88827590D01*
X101350144Y-88750275D01*
X101298471Y-88737453D01*
X101264903Y-88740095D01*
X101215872Y-88760842D01*
X101184946Y-88797052D01*
X101156662Y-88866829D01*
X101188364Y-89269645D01*
X100953001Y-89068625D01*
X115979976Y-90979820D02*
X115752981Y-90534316D01*
X115646909Y-90588363D01*
X115594075Y-90642005D01*
X115573264Y-90706053D01*
X115573668Y-90759291D01*
X115595691Y-90854958D01*
X115628119Y-90918601D01*
X115692571Y-90992650D01*
X115735404Y-91024269D01*
X115799451Y-91045080D01*
X115873904Y-91033866D01*
X115979976Y-90979820D01*
X115301114Y-91325717D02*
X115555687Y-91196006D01*
X115428401Y-91260861D02*
X115201405Y-90815358D01*
X115276262Y-90857383D01*
X115340310Y-90878193D01*
X115393548Y-90877789D01*
X114925618Y-90955879D02*
X114649830Y-91096400D01*
X114884805Y-91190450D01*
X114821162Y-91222878D01*
X114789542Y-91265711D01*
X114779137Y-91297735D01*
X114779541Y-91350973D01*
X114833588Y-91457045D01*
X114876421Y-91488665D01*
X114908445Y-91499070D01*
X114961683Y-91498666D01*
X115088970Y-91433810D01*
X115120589Y-91390977D01*
X115130994Y-91358953D01*
X98246077Y-75517209D02*
X97770549Y-75362701D01*
X97733761Y-75475922D01*
X97734332Y-75551212D01*
X97764906Y-75611215D01*
X97802837Y-75648575D01*
X97886056Y-75700649D01*
X97953988Y-75722722D01*
X98051923Y-75729508D01*
X98104569Y-75721578D01*
X98164572Y-75691005D01*
X98209289Y-75630430D01*
X98246077Y-75517209D01*
X98010635Y-76241824D02*
X98098926Y-75970093D01*
X98054781Y-76105958D02*
X97579252Y-75951450D01*
X97661900Y-75928234D01*
X97721904Y-75897661D01*
X97759263Y-75859730D01*
X97561181Y-76546414D02*
X97878200Y-76649419D01*
X97416815Y-76374332D02*
X97793266Y-76371474D01*
X97697617Y-76665849D01*
X121765002Y-79571297D02*
X122263461Y-79532068D01*
X122254120Y-79413387D01*
X122224780Y-79344047D01*
X122173572Y-79300311D01*
X122124231Y-79280311D01*
X122027419Y-79264047D01*
X121956210Y-79269651D01*
X121863134Y-79300860D01*
X121817530Y-79328332D01*
X121773794Y-79379540D01*
X121755662Y-79452617D01*
X121765002Y-79571297D01*
X121705224Y-78811741D02*
X121727641Y-79096575D01*
X121716432Y-78954158D02*
X122214891Y-78914929D01*
X122147419Y-78968005D01*
X122103683Y-79019213D01*
X122083683Y-79068554D01*
X122168189Y-78321525D02*
X122186870Y-78558887D01*
X121951377Y-78601304D01*
X121973245Y-78575699D01*
X121993245Y-78526359D01*
X121983904Y-78407678D01*
X121956432Y-78362074D01*
X121930828Y-78340206D01*
X121881487Y-78320206D01*
X121762807Y-78329547D01*
X121717203Y-78357019D01*
X121695335Y-78382623D01*
X121675335Y-78431963D01*
X121684675Y-78550644D01*
X121712147Y-78596248D01*
X121737751Y-78618116D01*
X109235957Y-67818057D02*
X109196728Y-67319598D01*
X109078047Y-67328939D01*
X109008707Y-67358279D01*
X108964971Y-67409487D01*
X108944971Y-67458828D01*
X108928707Y-67555640D01*
X108934311Y-67626849D01*
X108965520Y-67719925D01*
X108992992Y-67765529D01*
X109044200Y-67809265D01*
X109117277Y-67827397D01*
X109235957Y-67818057D01*
X108476401Y-67877835D02*
X108761235Y-67855418D01*
X108618818Y-67866627D02*
X108579589Y-67368168D01*
X108632665Y-67435640D01*
X108683873Y-67479376D01*
X108733214Y-67499376D01*
X108009922Y-67413002D02*
X108104866Y-67405530D01*
X108154206Y-67425530D01*
X108179811Y-67447398D01*
X108232887Y-67514870D01*
X108264095Y-67607946D01*
X108279040Y-67797835D01*
X108259040Y-67847176D01*
X108237172Y-67872780D01*
X108191568Y-67900252D01*
X108096623Y-67907724D01*
X108047283Y-67887724D01*
X108021679Y-67865856D01*
X107994207Y-67820252D01*
X107984866Y-67701572D01*
X108004866Y-67652231D01*
X108026734Y-67626627D01*
X108072338Y-67599155D01*
X108167283Y-67591682D01*
X108216623Y-67611682D01*
X108242227Y-67633550D01*
X108269700Y-67679155D01*
X114009970Y-68566177D02*
X114164478Y-68090649D01*
X114051257Y-68053861D01*
X113975967Y-68054432D01*
X113915964Y-68085006D01*
X113878604Y-68122937D01*
X113826530Y-68206156D01*
X113804457Y-68274088D01*
X113797671Y-68372023D01*
X113805601Y-68424669D01*
X113836174Y-68484672D01*
X113896749Y-68529389D01*
X114009970Y-68566177D01*
X113285355Y-68330735D02*
X113557086Y-68419026D01*
X113421221Y-68374881D02*
X113575729Y-67899352D01*
X113598945Y-67982000D01*
X113629518Y-68042004D01*
X113667449Y-68079363D01*
X113281355Y-67803704D02*
X112964336Y-67700699D01*
X113013625Y-68242445D01*
M02*
