G04 #@! TF.GenerationSoftware,KiCad,Pcbnew,(5.1.4)-1*
G04 #@! TF.CreationDate,2020-07-29T22:37:46-07:00*
G04 #@! TF.ProjectId,Kicad LED Rings_Circular_final_V2,4b696361-6420-44c4-9544-2052696e6773,rev?*
G04 #@! TF.SameCoordinates,Original*
G04 #@! TF.FileFunction,Soldermask,Top*
G04 #@! TF.FilePolarity,Negative*
%FSLAX46Y46*%
G04 Gerber Fmt 4.6, Leading zero omitted, Abs format (unit mm)*
G04 Created by KiCad (PCBNEW (5.1.4)-1) date 2020-07-29 22:37:46*
%MOMM*%
%LPD*%
G04 APERTURE LIST*
%ADD10C,0.100000*%
G04 APERTURE END LIST*
D10*
G36*
X98762676Y-75306102D02*
G01*
X98861715Y-75336145D01*
X98952989Y-75384932D01*
X99032991Y-75450589D01*
X99098648Y-75530591D01*
X99147435Y-75621865D01*
X99177478Y-75720904D01*
X99187622Y-75823900D01*
X99177478Y-75926896D01*
X99147435Y-76025935D01*
X99098648Y-76117209D01*
X99032991Y-76197211D01*
X98952989Y-76262868D01*
X98861715Y-76311655D01*
X98762676Y-76341698D01*
X98685490Y-76349300D01*
X98633870Y-76349300D01*
X98556684Y-76341698D01*
X98457645Y-76311655D01*
X98366371Y-76262868D01*
X98286369Y-76197211D01*
X98220712Y-76117209D01*
X98171925Y-76025935D01*
X98141882Y-75926896D01*
X98131738Y-75823900D01*
X98141882Y-75720904D01*
X98171925Y-75621865D01*
X98220712Y-75530591D01*
X98286369Y-75450589D01*
X98366371Y-75384932D01*
X98457645Y-75336145D01*
X98556684Y-75306102D01*
X98633870Y-75298500D01*
X98685490Y-75298500D01*
X98762676Y-75306102D01*
X98762676Y-75306102D01*
G37*
G36*
X120694576Y-75305622D02*
G01*
X120793615Y-75335665D01*
X120884889Y-75384452D01*
X120964891Y-75450109D01*
X121030548Y-75530111D01*
X121079335Y-75621385D01*
X121109378Y-75720424D01*
X121119522Y-75823420D01*
X121109378Y-75926416D01*
X121079335Y-76025455D01*
X121030548Y-76116729D01*
X120964891Y-76196731D01*
X120884889Y-76262388D01*
X120793615Y-76311175D01*
X120694576Y-76341218D01*
X120617390Y-76348820D01*
X120565770Y-76348820D01*
X120488584Y-76341218D01*
X120389545Y-76311175D01*
X120298271Y-76262388D01*
X120218269Y-76196731D01*
X120152612Y-76116729D01*
X120103825Y-76025455D01*
X120073782Y-75926416D01*
X120063638Y-75823420D01*
X120073782Y-75720424D01*
X120103825Y-75621385D01*
X120152612Y-75530111D01*
X120218269Y-75450109D01*
X120298271Y-75384452D01*
X120389545Y-75335665D01*
X120488584Y-75305622D01*
X120565770Y-75298020D01*
X120617390Y-75298020D01*
X120694576Y-75305622D01*
X120694576Y-75305622D01*
G37*
G36*
X98762676Y-74036102D02*
G01*
X98861715Y-74066145D01*
X98952989Y-74114932D01*
X99032991Y-74180589D01*
X99098648Y-74260591D01*
X99147435Y-74351865D01*
X99177478Y-74450904D01*
X99187622Y-74553900D01*
X99177478Y-74656896D01*
X99147435Y-74755935D01*
X99098648Y-74847209D01*
X99032991Y-74927211D01*
X98952989Y-74992868D01*
X98861715Y-75041655D01*
X98762676Y-75071698D01*
X98685490Y-75079300D01*
X98633870Y-75079300D01*
X98556684Y-75071698D01*
X98457645Y-75041655D01*
X98366371Y-74992868D01*
X98286369Y-74927211D01*
X98220712Y-74847209D01*
X98171925Y-74755935D01*
X98141882Y-74656896D01*
X98131738Y-74553900D01*
X98141882Y-74450904D01*
X98171925Y-74351865D01*
X98220712Y-74260591D01*
X98286369Y-74180589D01*
X98366371Y-74114932D01*
X98457645Y-74066145D01*
X98556684Y-74036102D01*
X98633870Y-74028500D01*
X98685490Y-74028500D01*
X98762676Y-74036102D01*
X98762676Y-74036102D01*
G37*
G36*
X121116980Y-75078820D02*
G01*
X120066180Y-75078820D01*
X120066180Y-74028020D01*
X121116980Y-74028020D01*
X121116980Y-75078820D01*
X121116980Y-75078820D01*
G37*
G36*
X99185080Y-73809300D02*
G01*
X98134280Y-73809300D01*
X98134280Y-72758500D01*
X99185080Y-72758500D01*
X99185080Y-73809300D01*
X99185080Y-73809300D01*
G37*
G36*
X101508900Y-70611760D02*
G01*
X100558100Y-70611760D01*
X100558100Y-69260960D01*
X101508900Y-69260960D01*
X101508900Y-70611760D01*
X101508900Y-70611760D01*
G37*
G36*
X105308900Y-70611760D02*
G01*
X104358100Y-70611760D01*
X104358100Y-69260960D01*
X105308900Y-69260960D01*
X105308900Y-70611760D01*
X105308900Y-70611760D01*
G37*
G36*
X116355750Y-69890971D02*
G01*
X116380988Y-69898627D01*
X116404255Y-69911063D01*
X116424644Y-69927796D01*
X116441377Y-69948185D01*
X116453813Y-69971452D01*
X116461469Y-69996690D01*
X116464300Y-70025431D01*
X116464300Y-70441649D01*
X116461469Y-70470390D01*
X116453813Y-70495628D01*
X116441377Y-70518895D01*
X116424644Y-70539284D01*
X116404255Y-70556017D01*
X116380988Y-70568453D01*
X116355750Y-70576109D01*
X116327009Y-70578940D01*
X115960791Y-70578940D01*
X115932050Y-70576109D01*
X115906812Y-70568453D01*
X115883545Y-70556017D01*
X115863156Y-70539284D01*
X115846423Y-70518895D01*
X115833987Y-70495628D01*
X115826331Y-70470390D01*
X115823500Y-70441649D01*
X115823500Y-70025431D01*
X115826331Y-69996690D01*
X115833987Y-69971452D01*
X115846423Y-69948185D01*
X115863156Y-69927796D01*
X115883545Y-69911063D01*
X115906812Y-69898627D01*
X115932050Y-69890971D01*
X115960791Y-69888140D01*
X116327009Y-69888140D01*
X116355750Y-69890971D01*
X116355750Y-69890971D01*
G37*
G36*
X115385750Y-69890971D02*
G01*
X115410988Y-69898627D01*
X115434255Y-69911063D01*
X115454644Y-69927796D01*
X115471377Y-69948185D01*
X115483813Y-69971452D01*
X115491469Y-69996690D01*
X115494300Y-70025431D01*
X115494300Y-70441649D01*
X115491469Y-70470390D01*
X115483813Y-70495628D01*
X115471377Y-70518895D01*
X115454644Y-70539284D01*
X115434255Y-70556017D01*
X115410988Y-70568453D01*
X115385750Y-70576109D01*
X115357009Y-70578940D01*
X114990791Y-70578940D01*
X114962050Y-70576109D01*
X114936812Y-70568453D01*
X114913545Y-70556017D01*
X114893156Y-70539284D01*
X114876423Y-70518895D01*
X114863987Y-70495628D01*
X114856331Y-70470390D01*
X114853500Y-70441649D01*
X114853500Y-70025431D01*
X114856331Y-69996690D01*
X114863987Y-69971452D01*
X114876423Y-69948185D01*
X114893156Y-69927796D01*
X114913545Y-69911063D01*
X114936812Y-69898627D01*
X114962050Y-69890971D01*
X114990791Y-69888140D01*
X115357009Y-69888140D01*
X115385750Y-69890971D01*
X115385750Y-69890971D01*
G37*
G36*
X112732037Y-69640319D02*
G01*
X112770647Y-69652031D01*
X112806233Y-69671053D01*
X112837416Y-69696644D01*
X112863007Y-69727827D01*
X112882029Y-69763413D01*
X112893741Y-69802023D01*
X112897940Y-69844661D01*
X112897940Y-70353379D01*
X112893741Y-70396017D01*
X112882029Y-70434627D01*
X112863007Y-70470213D01*
X112837416Y-70501396D01*
X112806233Y-70526987D01*
X112770647Y-70546009D01*
X112732037Y-70557721D01*
X112689399Y-70561920D01*
X112105681Y-70561920D01*
X112063043Y-70557721D01*
X112024433Y-70546009D01*
X111988847Y-70526987D01*
X111957664Y-70501396D01*
X111932073Y-70470213D01*
X111913051Y-70434627D01*
X111901339Y-70396017D01*
X111897140Y-70353379D01*
X111897140Y-69844661D01*
X111901339Y-69802023D01*
X111913051Y-69763413D01*
X111932073Y-69727827D01*
X111957664Y-69696644D01*
X111988847Y-69671053D01*
X112024433Y-69652031D01*
X112063043Y-69640319D01*
X112105681Y-69636120D01*
X112689399Y-69636120D01*
X112732037Y-69640319D01*
X112732037Y-69640319D01*
G37*
G36*
X113951237Y-69640219D02*
G01*
X113989847Y-69651931D01*
X114025433Y-69670953D01*
X114056616Y-69696544D01*
X114082207Y-69727727D01*
X114101229Y-69763313D01*
X114112941Y-69801923D01*
X114117140Y-69844561D01*
X114117140Y-70353279D01*
X114112941Y-70395917D01*
X114101229Y-70434527D01*
X114082207Y-70470113D01*
X114056616Y-70501296D01*
X114025433Y-70526887D01*
X113989847Y-70545909D01*
X113951237Y-70557621D01*
X113908599Y-70561820D01*
X113324881Y-70561820D01*
X113282243Y-70557621D01*
X113243633Y-70545909D01*
X113208047Y-70526887D01*
X113176864Y-70501296D01*
X113151273Y-70470113D01*
X113132251Y-70434527D01*
X113120539Y-70395917D01*
X113116340Y-70353279D01*
X113116340Y-69844561D01*
X113120539Y-69801923D01*
X113132251Y-69763313D01*
X113151273Y-69727727D01*
X113176864Y-69696544D01*
X113208047Y-69670953D01*
X113243633Y-69651931D01*
X113282243Y-69640219D01*
X113324881Y-69636020D01*
X113908599Y-69636020D01*
X113951237Y-69640219D01*
X113951237Y-69640219D01*
G37*
G36*
X110509040Y-70133020D02*
G01*
X109958240Y-70133020D01*
X109958240Y-69582220D01*
X110509040Y-69582220D01*
X110509040Y-70133020D01*
X110509040Y-70133020D01*
G37*
G36*
X108309040Y-70133020D02*
G01*
X107758240Y-70133020D01*
X107758240Y-69582220D01*
X108309040Y-69582220D01*
X108309040Y-70133020D01*
X108309040Y-70133020D01*
G37*
G36*
X115385750Y-68946091D02*
G01*
X115410988Y-68953747D01*
X115434255Y-68966183D01*
X115454644Y-68982916D01*
X115471377Y-69003305D01*
X115483813Y-69026572D01*
X115491469Y-69051810D01*
X115494300Y-69080551D01*
X115494300Y-69496769D01*
X115491469Y-69525510D01*
X115483813Y-69550748D01*
X115471377Y-69574015D01*
X115454644Y-69594404D01*
X115434255Y-69611137D01*
X115410988Y-69623573D01*
X115385750Y-69631229D01*
X115357009Y-69634060D01*
X114990791Y-69634060D01*
X114962050Y-69631229D01*
X114936812Y-69623573D01*
X114913545Y-69611137D01*
X114893156Y-69594404D01*
X114876423Y-69574015D01*
X114863987Y-69550748D01*
X114856331Y-69525510D01*
X114853500Y-69496769D01*
X114853500Y-69080551D01*
X114856331Y-69051810D01*
X114863987Y-69026572D01*
X114876423Y-69003305D01*
X114893156Y-68982916D01*
X114913545Y-68966183D01*
X114936812Y-68953747D01*
X114962050Y-68946091D01*
X114990791Y-68943260D01*
X115357009Y-68943260D01*
X115385750Y-68946091D01*
X115385750Y-68946091D01*
G37*
G36*
X116355750Y-68946091D02*
G01*
X116380988Y-68953747D01*
X116404255Y-68966183D01*
X116424644Y-68982916D01*
X116441377Y-69003305D01*
X116453813Y-69026572D01*
X116461469Y-69051810D01*
X116464300Y-69080551D01*
X116464300Y-69496769D01*
X116461469Y-69525510D01*
X116453813Y-69550748D01*
X116441377Y-69574015D01*
X116424644Y-69594404D01*
X116404255Y-69611137D01*
X116380988Y-69623573D01*
X116355750Y-69631229D01*
X116327009Y-69634060D01*
X115960791Y-69634060D01*
X115932050Y-69631229D01*
X115906812Y-69623573D01*
X115883545Y-69611137D01*
X115863156Y-69594404D01*
X115846423Y-69574015D01*
X115833987Y-69550748D01*
X115826331Y-69525510D01*
X115823500Y-69496769D01*
X115823500Y-69080551D01*
X115826331Y-69051810D01*
X115833987Y-69026572D01*
X115846423Y-69003305D01*
X115863156Y-68982916D01*
X115883545Y-68966183D01*
X115906812Y-68953747D01*
X115932050Y-68946091D01*
X115960791Y-68943260D01*
X116327009Y-68943260D01*
X116355750Y-68946091D01*
X116355750Y-68946091D01*
G37*
G36*
X107264830Y-68762671D02*
G01*
X107290068Y-68770327D01*
X107313335Y-68782763D01*
X107333724Y-68799496D01*
X107350457Y-68819885D01*
X107362893Y-68843152D01*
X107370549Y-68868390D01*
X107373380Y-68897131D01*
X107373380Y-69263349D01*
X107370549Y-69292090D01*
X107362893Y-69317328D01*
X107350457Y-69340595D01*
X107333724Y-69360984D01*
X107313335Y-69377717D01*
X107290068Y-69390153D01*
X107264830Y-69397809D01*
X107236089Y-69400640D01*
X106819871Y-69400640D01*
X106791130Y-69397809D01*
X106765892Y-69390153D01*
X106742625Y-69377717D01*
X106722236Y-69360984D01*
X106705503Y-69340595D01*
X106693067Y-69317328D01*
X106685411Y-69292090D01*
X106682580Y-69263349D01*
X106682580Y-68897131D01*
X106685411Y-68868390D01*
X106693067Y-68843152D01*
X106705503Y-68819885D01*
X106722236Y-68799496D01*
X106742625Y-68782763D01*
X106765892Y-68770327D01*
X106791130Y-68762671D01*
X106819871Y-68759840D01*
X107236089Y-68759840D01*
X107264830Y-68762671D01*
X107264830Y-68762671D01*
G37*
G36*
X112732037Y-68065319D02*
G01*
X112770647Y-68077031D01*
X112806233Y-68096053D01*
X112837416Y-68121644D01*
X112863007Y-68152827D01*
X112882029Y-68188413D01*
X112893741Y-68227023D01*
X112897940Y-68269661D01*
X112897940Y-68778379D01*
X112893741Y-68821017D01*
X112882029Y-68859627D01*
X112863007Y-68895213D01*
X112837416Y-68926396D01*
X112806233Y-68951987D01*
X112770647Y-68971009D01*
X112732037Y-68982721D01*
X112689399Y-68986920D01*
X112105681Y-68986920D01*
X112063043Y-68982721D01*
X112024433Y-68971009D01*
X111988847Y-68951987D01*
X111957664Y-68926396D01*
X111932073Y-68895213D01*
X111913051Y-68859627D01*
X111901339Y-68821017D01*
X111897140Y-68778379D01*
X111897140Y-68269661D01*
X111901339Y-68227023D01*
X111913051Y-68188413D01*
X111932073Y-68152827D01*
X111957664Y-68121644D01*
X111988847Y-68096053D01*
X112024433Y-68077031D01*
X112063043Y-68065319D01*
X112105681Y-68061120D01*
X112689399Y-68061120D01*
X112732037Y-68065319D01*
X112732037Y-68065319D01*
G37*
G36*
X113951237Y-68065219D02*
G01*
X113989847Y-68076931D01*
X114025433Y-68095953D01*
X114056616Y-68121544D01*
X114082207Y-68152727D01*
X114101229Y-68188313D01*
X114112941Y-68226923D01*
X114117140Y-68269561D01*
X114117140Y-68778279D01*
X114112941Y-68820917D01*
X114101229Y-68859527D01*
X114082207Y-68895113D01*
X114056616Y-68926296D01*
X114025433Y-68951887D01*
X113989847Y-68970909D01*
X113951237Y-68982621D01*
X113908599Y-68986820D01*
X113324881Y-68986820D01*
X113282243Y-68982621D01*
X113243633Y-68970909D01*
X113208047Y-68951887D01*
X113176864Y-68926296D01*
X113151273Y-68895113D01*
X113132251Y-68859527D01*
X113120539Y-68820917D01*
X113116340Y-68778279D01*
X113116340Y-68269561D01*
X113120539Y-68226923D01*
X113132251Y-68188313D01*
X113151273Y-68152727D01*
X113176864Y-68121544D01*
X113208047Y-68095953D01*
X113243633Y-68076931D01*
X113282243Y-68065219D01*
X113324881Y-68061020D01*
X113908599Y-68061020D01*
X113951237Y-68065219D01*
X113951237Y-68065219D01*
G37*
G36*
X107264830Y-67792671D02*
G01*
X107290068Y-67800327D01*
X107313335Y-67812763D01*
X107333724Y-67829496D01*
X107350457Y-67849885D01*
X107362893Y-67873152D01*
X107370549Y-67898390D01*
X107373380Y-67927131D01*
X107373380Y-68293349D01*
X107370549Y-68322090D01*
X107362893Y-68347328D01*
X107350457Y-68370595D01*
X107333724Y-68390984D01*
X107313335Y-68407717D01*
X107290068Y-68420153D01*
X107264830Y-68427809D01*
X107236089Y-68430640D01*
X106819871Y-68430640D01*
X106791130Y-68427809D01*
X106765892Y-68420153D01*
X106742625Y-68407717D01*
X106722236Y-68390984D01*
X106705503Y-68370595D01*
X106693067Y-68347328D01*
X106685411Y-68322090D01*
X106682580Y-68293349D01*
X106682580Y-67927131D01*
X106685411Y-67898390D01*
X106693067Y-67873152D01*
X106705503Y-67849885D01*
X106722236Y-67829496D01*
X106742625Y-67812763D01*
X106765892Y-67800327D01*
X106791130Y-67792671D01*
X106819871Y-67789840D01*
X107236089Y-67789840D01*
X107264830Y-67792671D01*
X107264830Y-67792671D01*
G37*
G36*
X108610400Y-68330321D02*
G01*
X107746800Y-68330321D01*
X107746800Y-67974721D01*
X108610400Y-67974721D01*
X108610400Y-68330321D01*
X108610400Y-68330321D01*
G37*
G36*
X111506000Y-68330321D02*
G01*
X110642400Y-68330321D01*
X110642400Y-67974721D01*
X111506000Y-67974721D01*
X111506000Y-68330321D01*
X111506000Y-68330321D01*
G37*
G36*
X110451900Y-68181220D02*
G01*
X108800900Y-68181220D01*
X108800900Y-66123820D01*
X110451900Y-66123820D01*
X110451900Y-68181220D01*
X110451900Y-68181220D01*
G37*
G36*
X111506000Y-67830319D02*
G01*
X110642400Y-67830319D01*
X110642400Y-67474719D01*
X111506000Y-67474719D01*
X111506000Y-67830319D01*
X111506000Y-67830319D01*
G37*
G36*
X108610400Y-67830319D02*
G01*
X107746800Y-67830319D01*
X107746800Y-67474719D01*
X108610400Y-67474719D01*
X108610400Y-67830319D01*
X108610400Y-67830319D01*
G37*
G36*
X107275250Y-66858211D02*
G01*
X107300488Y-66865867D01*
X107323755Y-66878303D01*
X107344144Y-66895036D01*
X107360877Y-66915425D01*
X107373313Y-66938692D01*
X107380969Y-66963930D01*
X107383800Y-66992671D01*
X107383800Y-67408889D01*
X107380969Y-67437630D01*
X107373313Y-67462868D01*
X107360877Y-67486135D01*
X107344144Y-67506524D01*
X107323755Y-67523257D01*
X107300488Y-67535693D01*
X107275250Y-67543349D01*
X107246509Y-67546180D01*
X106880291Y-67546180D01*
X106851550Y-67543349D01*
X106826312Y-67535693D01*
X106803045Y-67523257D01*
X106782656Y-67506524D01*
X106765923Y-67486135D01*
X106753487Y-67462868D01*
X106745831Y-67437630D01*
X106743000Y-67408889D01*
X106743000Y-66992671D01*
X106745831Y-66963930D01*
X106753487Y-66938692D01*
X106765923Y-66915425D01*
X106782656Y-66895036D01*
X106803045Y-66878303D01*
X106826312Y-66865867D01*
X106851550Y-66858211D01*
X106880291Y-66855380D01*
X107246509Y-66855380D01*
X107275250Y-66858211D01*
X107275250Y-66858211D01*
G37*
G36*
X106305250Y-66858211D02*
G01*
X106330488Y-66865867D01*
X106353755Y-66878303D01*
X106374144Y-66895036D01*
X106390877Y-66915425D01*
X106403313Y-66938692D01*
X106410969Y-66963930D01*
X106413800Y-66992671D01*
X106413800Y-67408889D01*
X106410969Y-67437630D01*
X106403313Y-67462868D01*
X106390877Y-67486135D01*
X106374144Y-67506524D01*
X106353755Y-67523257D01*
X106330488Y-67535693D01*
X106305250Y-67543349D01*
X106276509Y-67546180D01*
X105910291Y-67546180D01*
X105881550Y-67543349D01*
X105856312Y-67535693D01*
X105833045Y-67523257D01*
X105812656Y-67506524D01*
X105795923Y-67486135D01*
X105783487Y-67462868D01*
X105775831Y-67437630D01*
X105773000Y-67408889D01*
X105773000Y-66992671D01*
X105775831Y-66963930D01*
X105783487Y-66938692D01*
X105795923Y-66915425D01*
X105812656Y-66895036D01*
X105833045Y-66878303D01*
X105856312Y-66865867D01*
X105881550Y-66858211D01*
X105910291Y-66855380D01*
X106276509Y-66855380D01*
X106305250Y-66858211D01*
X106305250Y-66858211D01*
G37*
G36*
X111506000Y-67330320D02*
G01*
X110642400Y-67330320D01*
X110642400Y-66974720D01*
X111506000Y-66974720D01*
X111506000Y-67330320D01*
X111506000Y-67330320D01*
G37*
G36*
X108610400Y-67330320D02*
G01*
X107746800Y-67330320D01*
X107746800Y-66974720D01*
X108610400Y-66974720D01*
X108610400Y-67330320D01*
X108610400Y-67330320D01*
G37*
G36*
X108610400Y-66830321D02*
G01*
X107746800Y-66830321D01*
X107746800Y-66474721D01*
X108610400Y-66474721D01*
X108610400Y-66830321D01*
X108610400Y-66830321D01*
G37*
G36*
X111506000Y-66830321D02*
G01*
X110642400Y-66830321D01*
X110642400Y-66474721D01*
X111506000Y-66474721D01*
X111506000Y-66830321D01*
X111506000Y-66830321D01*
G37*
G36*
X108610400Y-66330319D02*
G01*
X107746800Y-66330319D01*
X107746800Y-65974719D01*
X108610400Y-65974719D01*
X108610400Y-66330319D01*
X108610400Y-66330319D01*
G37*
G36*
X111506000Y-66330319D02*
G01*
X110642400Y-66330319D01*
X110642400Y-65974719D01*
X111506000Y-65974719D01*
X111506000Y-66330319D01*
X111506000Y-66330319D01*
G37*
M02*
