G04 #@! TF.GenerationSoftware,KiCad,Pcbnew,(5.1.4)-1*
G04 #@! TF.CreationDate,2020-09-01T15:21:42-07:00*
G04 #@! TF.ProjectId,LED_Ring,4c45445f-5269-46e6-972e-6b696361645f,rev?*
G04 #@! TF.SameCoordinates,Original*
G04 #@! TF.FileFunction,Soldermask,Top*
G04 #@! TF.FilePolarity,Negative*
%FSLAX46Y46*%
G04 Gerber Fmt 4.6, Leading zero omitted, Abs format (unit mm)*
G04 Created by KiCad (PCBNEW (5.1.4)-1) date 2020-09-01 15:21:42*
%MOMM*%
%LPD*%
G04 APERTURE LIST*
%ADD10C,0.100000*%
G04 APERTURE END LIST*
D10*
G36*
X99112676Y-75396102D02*
G01*
X99211715Y-75426145D01*
X99302989Y-75474932D01*
X99382991Y-75540589D01*
X99448648Y-75620591D01*
X99497435Y-75711865D01*
X99527478Y-75810904D01*
X99537622Y-75913900D01*
X99527478Y-76016896D01*
X99497435Y-76115935D01*
X99448648Y-76207209D01*
X99382991Y-76287211D01*
X99302989Y-76352868D01*
X99211715Y-76401655D01*
X99112676Y-76431698D01*
X99035490Y-76439300D01*
X98983870Y-76439300D01*
X98906684Y-76431698D01*
X98807645Y-76401655D01*
X98716371Y-76352868D01*
X98636369Y-76287211D01*
X98570712Y-76207209D01*
X98521925Y-76115935D01*
X98491882Y-76016896D01*
X98481738Y-75913900D01*
X98491882Y-75810904D01*
X98521925Y-75711865D01*
X98570712Y-75620591D01*
X98636369Y-75540589D01*
X98716371Y-75474932D01*
X98807645Y-75426145D01*
X98906684Y-75396102D01*
X98983870Y-75388500D01*
X99035490Y-75388500D01*
X99112676Y-75396102D01*
X99112676Y-75396102D01*
G37*
G36*
X121044576Y-75395622D02*
G01*
X121143615Y-75425665D01*
X121234889Y-75474452D01*
X121314891Y-75540109D01*
X121380548Y-75620111D01*
X121429335Y-75711385D01*
X121459378Y-75810424D01*
X121469522Y-75913420D01*
X121459378Y-76016416D01*
X121429335Y-76115455D01*
X121380548Y-76206729D01*
X121314891Y-76286731D01*
X121234889Y-76352388D01*
X121143615Y-76401175D01*
X121044576Y-76431218D01*
X120967390Y-76438820D01*
X120915770Y-76438820D01*
X120838584Y-76431218D01*
X120739545Y-76401175D01*
X120648271Y-76352388D01*
X120568269Y-76286731D01*
X120502612Y-76206729D01*
X120453825Y-76115455D01*
X120423782Y-76016416D01*
X120413638Y-75913420D01*
X120423782Y-75810424D01*
X120453825Y-75711385D01*
X120502612Y-75620111D01*
X120568269Y-75540109D01*
X120648271Y-75474452D01*
X120739545Y-75425665D01*
X120838584Y-75395622D01*
X120915770Y-75388020D01*
X120967390Y-75388020D01*
X121044576Y-75395622D01*
X121044576Y-75395622D01*
G37*
G36*
X99112676Y-74126102D02*
G01*
X99211715Y-74156145D01*
X99302989Y-74204932D01*
X99382991Y-74270589D01*
X99448648Y-74350591D01*
X99497435Y-74441865D01*
X99527478Y-74540904D01*
X99537622Y-74643900D01*
X99527478Y-74746896D01*
X99497435Y-74845935D01*
X99448648Y-74937209D01*
X99382991Y-75017211D01*
X99302989Y-75082868D01*
X99211715Y-75131655D01*
X99112676Y-75161698D01*
X99035490Y-75169300D01*
X98983870Y-75169300D01*
X98906684Y-75161698D01*
X98807645Y-75131655D01*
X98716371Y-75082868D01*
X98636369Y-75017211D01*
X98570712Y-74937209D01*
X98521925Y-74845935D01*
X98491882Y-74746896D01*
X98481738Y-74643900D01*
X98491882Y-74540904D01*
X98521925Y-74441865D01*
X98570712Y-74350591D01*
X98636369Y-74270589D01*
X98716371Y-74204932D01*
X98807645Y-74156145D01*
X98906684Y-74126102D01*
X98983870Y-74118500D01*
X99035490Y-74118500D01*
X99112676Y-74126102D01*
X99112676Y-74126102D01*
G37*
G36*
X121466980Y-75168820D02*
G01*
X120416180Y-75168820D01*
X120416180Y-74118020D01*
X121466980Y-74118020D01*
X121466980Y-75168820D01*
X121466980Y-75168820D01*
G37*
G36*
X99535080Y-73899300D02*
G01*
X98484280Y-73899300D01*
X98484280Y-72848500D01*
X99535080Y-72848500D01*
X99535080Y-73899300D01*
X99535080Y-73899300D01*
G37*
G36*
X103379821Y-72910946D02*
G01*
X102399062Y-73677198D01*
X100084667Y-70714908D01*
X101065426Y-69948656D01*
X103379821Y-72910946D01*
X103379821Y-72910946D01*
G37*
G36*
X105581523Y-71190788D02*
G01*
X104600764Y-71957040D01*
X102286369Y-68994750D01*
X103267128Y-68228498D01*
X105581523Y-71190788D01*
X105581523Y-71190788D01*
G37*
G36*
X116220000Y-70865600D02*
G01*
X115239200Y-70865600D01*
X115239200Y-69494800D01*
X116220000Y-69494800D01*
X116220000Y-70865600D01*
X116220000Y-70865600D01*
G37*
G36*
X114580000Y-70865600D02*
G01*
X113599200Y-70865600D01*
X113599200Y-69494800D01*
X114580000Y-69494800D01*
X114580000Y-70865600D01*
X114580000Y-70865600D01*
G37*
G36*
X111478800Y-70240800D02*
G01*
X110928000Y-70240800D01*
X110928000Y-69690000D01*
X111478800Y-69690000D01*
X111478800Y-70240800D01*
X111478800Y-70240800D01*
G37*
G36*
X109278800Y-70240800D02*
G01*
X108728000Y-70240800D01*
X108728000Y-69690000D01*
X109278800Y-69690000D01*
X109278800Y-70240800D01*
X109278800Y-70240800D01*
G37*
G36*
X114520697Y-68312399D02*
G01*
X114559307Y-68324111D01*
X114594893Y-68343133D01*
X114626076Y-68368724D01*
X114651667Y-68399907D01*
X114670689Y-68435493D01*
X114682401Y-68474103D01*
X114686600Y-68516741D01*
X114686600Y-69100459D01*
X114682401Y-69143097D01*
X114670689Y-69181707D01*
X114651667Y-69217293D01*
X114626076Y-69248476D01*
X114594893Y-69274067D01*
X114559307Y-69293089D01*
X114520697Y-69304801D01*
X114478059Y-69309000D01*
X113969341Y-69309000D01*
X113926703Y-69304801D01*
X113888093Y-69293089D01*
X113852507Y-69274067D01*
X113821324Y-69248476D01*
X113795733Y-69217293D01*
X113776711Y-69181707D01*
X113764999Y-69143097D01*
X113760800Y-69100459D01*
X113760800Y-68516741D01*
X113764999Y-68474103D01*
X113776711Y-68435493D01*
X113795733Y-68399907D01*
X113821324Y-68368724D01*
X113852507Y-68343133D01*
X113888093Y-68324111D01*
X113926703Y-68312399D01*
X113969341Y-68308200D01*
X114478059Y-68308200D01*
X114520697Y-68312399D01*
X114520697Y-68312399D01*
G37*
G36*
X116095697Y-68312399D02*
G01*
X116134307Y-68324111D01*
X116169893Y-68343133D01*
X116201076Y-68368724D01*
X116226667Y-68399907D01*
X116245689Y-68435493D01*
X116257401Y-68474103D01*
X116261600Y-68516741D01*
X116261600Y-69100459D01*
X116257401Y-69143097D01*
X116245689Y-69181707D01*
X116226667Y-69217293D01*
X116201076Y-69248476D01*
X116169893Y-69274067D01*
X116134307Y-69293089D01*
X116095697Y-69304801D01*
X116053059Y-69309000D01*
X115544341Y-69309000D01*
X115501703Y-69304801D01*
X115463093Y-69293089D01*
X115427507Y-69274067D01*
X115396324Y-69248476D01*
X115370733Y-69217293D01*
X115351711Y-69181707D01*
X115339999Y-69143097D01*
X115335800Y-69100459D01*
X115335800Y-68516741D01*
X115339999Y-68474103D01*
X115351711Y-68435493D01*
X115370733Y-68399907D01*
X115396324Y-68368724D01*
X115427507Y-68343133D01*
X115463093Y-68324111D01*
X115501703Y-68312399D01*
X115544341Y-68308200D01*
X116053059Y-68308200D01*
X116095697Y-68312399D01*
X116095697Y-68312399D01*
G37*
G36*
X107757850Y-68542231D02*
G01*
X107783088Y-68549887D01*
X107806355Y-68562323D01*
X107826744Y-68579056D01*
X107843477Y-68599445D01*
X107855913Y-68622712D01*
X107863569Y-68647950D01*
X107866400Y-68676691D01*
X107866400Y-69092909D01*
X107863569Y-69121650D01*
X107855913Y-69146888D01*
X107843477Y-69170155D01*
X107826744Y-69190544D01*
X107806355Y-69207277D01*
X107783088Y-69219713D01*
X107757850Y-69227369D01*
X107729109Y-69230200D01*
X107362891Y-69230200D01*
X107334150Y-69227369D01*
X107308912Y-69219713D01*
X107285645Y-69207277D01*
X107265256Y-69190544D01*
X107248523Y-69170155D01*
X107236087Y-69146888D01*
X107228431Y-69121650D01*
X107225600Y-69092909D01*
X107225600Y-68676691D01*
X107228431Y-68647950D01*
X107236087Y-68622712D01*
X107248523Y-68599445D01*
X107265256Y-68579056D01*
X107285645Y-68562323D01*
X107308912Y-68549887D01*
X107334150Y-68542231D01*
X107362891Y-68539400D01*
X107729109Y-68539400D01*
X107757850Y-68542231D01*
X107757850Y-68542231D01*
G37*
G36*
X106787850Y-68542231D02*
G01*
X106813088Y-68549887D01*
X106836355Y-68562323D01*
X106856744Y-68579056D01*
X106873477Y-68599445D01*
X106885913Y-68622712D01*
X106893569Y-68647950D01*
X106896400Y-68676691D01*
X106896400Y-69092909D01*
X106893569Y-69121650D01*
X106885913Y-69146888D01*
X106873477Y-69170155D01*
X106856744Y-69190544D01*
X106836355Y-69207277D01*
X106813088Y-69219713D01*
X106787850Y-69227369D01*
X106759109Y-69230200D01*
X106392891Y-69230200D01*
X106364150Y-69227369D01*
X106338912Y-69219713D01*
X106315645Y-69207277D01*
X106295256Y-69190544D01*
X106278523Y-69170155D01*
X106266087Y-69146888D01*
X106258431Y-69121650D01*
X106255600Y-69092909D01*
X106255600Y-68676691D01*
X106258431Y-68647950D01*
X106266087Y-68622712D01*
X106278523Y-68599445D01*
X106295256Y-68579056D01*
X106315645Y-68562323D01*
X106338912Y-68549887D01*
X106364150Y-68542231D01*
X106392891Y-68539400D01*
X106759109Y-68539400D01*
X106787850Y-68542231D01*
X106787850Y-68542231D01*
G37*
G36*
X111924800Y-68596401D02*
G01*
X111061200Y-68596401D01*
X111061200Y-68240801D01*
X111924800Y-68240801D01*
X111924800Y-68596401D01*
X111924800Y-68596401D01*
G37*
G36*
X109029200Y-68596401D02*
G01*
X108165600Y-68596401D01*
X108165600Y-68240801D01*
X109029200Y-68240801D01*
X109029200Y-68596401D01*
X109029200Y-68596401D01*
G37*
G36*
X110870700Y-68447300D02*
G01*
X109219700Y-68447300D01*
X109219700Y-66389900D01*
X110870700Y-66389900D01*
X110870700Y-68447300D01*
X110870700Y-68447300D01*
G37*
G36*
X115377850Y-67424631D02*
G01*
X115403088Y-67432287D01*
X115426355Y-67444723D01*
X115446744Y-67461456D01*
X115463477Y-67481845D01*
X115475913Y-67505112D01*
X115483569Y-67530350D01*
X115486400Y-67559091D01*
X115486400Y-67975309D01*
X115483569Y-68004050D01*
X115475913Y-68029288D01*
X115463477Y-68052555D01*
X115446744Y-68072944D01*
X115426355Y-68089677D01*
X115403088Y-68102113D01*
X115377850Y-68109769D01*
X115349109Y-68112600D01*
X114982891Y-68112600D01*
X114954150Y-68109769D01*
X114928912Y-68102113D01*
X114905645Y-68089677D01*
X114885256Y-68072944D01*
X114868523Y-68052555D01*
X114856087Y-68029288D01*
X114848431Y-68004050D01*
X114845600Y-67975309D01*
X114845600Y-67559091D01*
X114848431Y-67530350D01*
X114856087Y-67505112D01*
X114868523Y-67481845D01*
X114885256Y-67461456D01*
X114905645Y-67444723D01*
X114928912Y-67432287D01*
X114954150Y-67424631D01*
X114982891Y-67421800D01*
X115349109Y-67421800D01*
X115377850Y-67424631D01*
X115377850Y-67424631D01*
G37*
G36*
X114407850Y-67424631D02*
G01*
X114433088Y-67432287D01*
X114456355Y-67444723D01*
X114476744Y-67461456D01*
X114493477Y-67481845D01*
X114505913Y-67505112D01*
X114513569Y-67530350D01*
X114516400Y-67559091D01*
X114516400Y-67975309D01*
X114513569Y-68004050D01*
X114505913Y-68029288D01*
X114493477Y-68052555D01*
X114476744Y-68072944D01*
X114456355Y-68089677D01*
X114433088Y-68102113D01*
X114407850Y-68109769D01*
X114379109Y-68112600D01*
X114012891Y-68112600D01*
X113984150Y-68109769D01*
X113958912Y-68102113D01*
X113935645Y-68089677D01*
X113915256Y-68072944D01*
X113898523Y-68052555D01*
X113886087Y-68029288D01*
X113878431Y-68004050D01*
X113875600Y-67975309D01*
X113875600Y-67559091D01*
X113878431Y-67530350D01*
X113886087Y-67505112D01*
X113898523Y-67481845D01*
X113915256Y-67461456D01*
X113935645Y-67444723D01*
X113958912Y-67432287D01*
X113984150Y-67424631D01*
X114012891Y-67421800D01*
X114379109Y-67421800D01*
X114407850Y-67424631D01*
X114407850Y-67424631D01*
G37*
G36*
X111924800Y-68096399D02*
G01*
X111061200Y-68096399D01*
X111061200Y-67740799D01*
X111924800Y-67740799D01*
X111924800Y-68096399D01*
X111924800Y-68096399D01*
G37*
G36*
X109029200Y-68096399D02*
G01*
X108165600Y-68096399D01*
X108165600Y-67740799D01*
X109029200Y-67740799D01*
X109029200Y-68096399D01*
X109029200Y-68096399D01*
G37*
G36*
X106787850Y-67221431D02*
G01*
X106813088Y-67229087D01*
X106836355Y-67241523D01*
X106856744Y-67258256D01*
X106873477Y-67278645D01*
X106885913Y-67301912D01*
X106893569Y-67327150D01*
X106896400Y-67355891D01*
X106896400Y-67772109D01*
X106893569Y-67800850D01*
X106885913Y-67826088D01*
X106873477Y-67849355D01*
X106856744Y-67869744D01*
X106836355Y-67886477D01*
X106813088Y-67898913D01*
X106787850Y-67906569D01*
X106759109Y-67909400D01*
X106392891Y-67909400D01*
X106364150Y-67906569D01*
X106338912Y-67898913D01*
X106315645Y-67886477D01*
X106295256Y-67869744D01*
X106278523Y-67849355D01*
X106266087Y-67826088D01*
X106258431Y-67800850D01*
X106255600Y-67772109D01*
X106255600Y-67355891D01*
X106258431Y-67327150D01*
X106266087Y-67301912D01*
X106278523Y-67278645D01*
X106295256Y-67258256D01*
X106315645Y-67241523D01*
X106338912Y-67229087D01*
X106364150Y-67221431D01*
X106392891Y-67218600D01*
X106759109Y-67218600D01*
X106787850Y-67221431D01*
X106787850Y-67221431D01*
G37*
G36*
X107757850Y-67221431D02*
G01*
X107783088Y-67229087D01*
X107806355Y-67241523D01*
X107826744Y-67258256D01*
X107843477Y-67278645D01*
X107855913Y-67301912D01*
X107863569Y-67327150D01*
X107866400Y-67355891D01*
X107866400Y-67772109D01*
X107863569Y-67800850D01*
X107855913Y-67826088D01*
X107843477Y-67849355D01*
X107826744Y-67869744D01*
X107806355Y-67886477D01*
X107783088Y-67898913D01*
X107757850Y-67906569D01*
X107729109Y-67909400D01*
X107362891Y-67909400D01*
X107334150Y-67906569D01*
X107308912Y-67898913D01*
X107285645Y-67886477D01*
X107265256Y-67869744D01*
X107248523Y-67849355D01*
X107236087Y-67826088D01*
X107228431Y-67800850D01*
X107225600Y-67772109D01*
X107225600Y-67355891D01*
X107228431Y-67327150D01*
X107236087Y-67301912D01*
X107248523Y-67278645D01*
X107265256Y-67258256D01*
X107285645Y-67241523D01*
X107308912Y-67229087D01*
X107334150Y-67221431D01*
X107362891Y-67218600D01*
X107729109Y-67218600D01*
X107757850Y-67221431D01*
X107757850Y-67221431D01*
G37*
G36*
X109029200Y-67596400D02*
G01*
X108165600Y-67596400D01*
X108165600Y-67240800D01*
X109029200Y-67240800D01*
X109029200Y-67596400D01*
X109029200Y-67596400D01*
G37*
G36*
X111924800Y-67596400D02*
G01*
X111061200Y-67596400D01*
X111061200Y-67240800D01*
X111924800Y-67240800D01*
X111924800Y-67596400D01*
X111924800Y-67596400D01*
G37*
G36*
X114407850Y-66535631D02*
G01*
X114433088Y-66543287D01*
X114456355Y-66555723D01*
X114476744Y-66572456D01*
X114493477Y-66592845D01*
X114505913Y-66616112D01*
X114513569Y-66641350D01*
X114516400Y-66670091D01*
X114516400Y-67086309D01*
X114513569Y-67115050D01*
X114505913Y-67140288D01*
X114493477Y-67163555D01*
X114476744Y-67183944D01*
X114456355Y-67200677D01*
X114433088Y-67213113D01*
X114407850Y-67220769D01*
X114379109Y-67223600D01*
X114012891Y-67223600D01*
X113984150Y-67220769D01*
X113958912Y-67213113D01*
X113935645Y-67200677D01*
X113915256Y-67183944D01*
X113898523Y-67163555D01*
X113886087Y-67140288D01*
X113878431Y-67115050D01*
X113875600Y-67086309D01*
X113875600Y-66670091D01*
X113878431Y-66641350D01*
X113886087Y-66616112D01*
X113898523Y-66592845D01*
X113915256Y-66572456D01*
X113935645Y-66555723D01*
X113958912Y-66543287D01*
X113984150Y-66535631D01*
X114012891Y-66532800D01*
X114379109Y-66532800D01*
X114407850Y-66535631D01*
X114407850Y-66535631D01*
G37*
G36*
X115377850Y-66535631D02*
G01*
X115403088Y-66543287D01*
X115426355Y-66555723D01*
X115446744Y-66572456D01*
X115463477Y-66592845D01*
X115475913Y-66616112D01*
X115483569Y-66641350D01*
X115486400Y-66670091D01*
X115486400Y-67086309D01*
X115483569Y-67115050D01*
X115475913Y-67140288D01*
X115463477Y-67163555D01*
X115446744Y-67183944D01*
X115426355Y-67200677D01*
X115403088Y-67213113D01*
X115377850Y-67220769D01*
X115349109Y-67223600D01*
X114982891Y-67223600D01*
X114954150Y-67220769D01*
X114928912Y-67213113D01*
X114905645Y-67200677D01*
X114885256Y-67183944D01*
X114868523Y-67163555D01*
X114856087Y-67140288D01*
X114848431Y-67115050D01*
X114845600Y-67086309D01*
X114845600Y-66670091D01*
X114848431Y-66641350D01*
X114856087Y-66616112D01*
X114868523Y-66592845D01*
X114885256Y-66572456D01*
X114905645Y-66555723D01*
X114928912Y-66543287D01*
X114954150Y-66535631D01*
X114982891Y-66532800D01*
X115349109Y-66532800D01*
X115377850Y-66535631D01*
X115377850Y-66535631D01*
G37*
G36*
X111924800Y-67096401D02*
G01*
X111061200Y-67096401D01*
X111061200Y-66740801D01*
X111924800Y-66740801D01*
X111924800Y-67096401D01*
X111924800Y-67096401D01*
G37*
G36*
X109029200Y-67096401D02*
G01*
X108165600Y-67096401D01*
X108165600Y-66740801D01*
X109029200Y-66740801D01*
X109029200Y-67096401D01*
X109029200Y-67096401D01*
G37*
G36*
X111924800Y-66596399D02*
G01*
X111061200Y-66596399D01*
X111061200Y-66240799D01*
X111924800Y-66240799D01*
X111924800Y-66596399D01*
X111924800Y-66596399D01*
G37*
G36*
X109029200Y-66596399D02*
G01*
X108165600Y-66596399D01*
X108165600Y-66240799D01*
X109029200Y-66240799D01*
X109029200Y-66596399D01*
X109029200Y-66596399D01*
G37*
M02*
