G04 #@! TF.GenerationSoftware,KiCad,Pcbnew,(5.1.4)-1*
G04 #@! TF.CreationDate,2020-09-01T15:21:39-07:00*
G04 #@! TF.ProjectId,LED_Ring,4c45445f-5269-46e6-972e-6b696361645f,rev?*
G04 #@! TF.SameCoordinates,Original*
G04 #@! TF.FileFunction,Copper,L1,Top*
G04 #@! TF.FilePolarity,Positive*
%FSLAX46Y46*%
G04 Gerber Fmt 4.6, Leading zero omitted, Abs format (unit mm)*
G04 Created by KiCad (PCBNEW (5.1.4)-1) date 2020-09-01 15:21:39*
%MOMM*%
%LPD*%
G04 APERTURE LIST*
%ADD10C,0.203000*%
%ADD11C,0.500000*%
%ADD12C,1.193800*%
%ADD13C,0.100000*%
%ADD14C,0.590000*%
%ADD15R,0.812800X0.304800*%
%ADD16R,1.600200X2.006600*%
%ADD17R,0.500000X0.500000*%
%ADD18O,1.000000X1.000000*%
%ADD19R,1.000000X1.000000*%
%ADD20C,0.875000*%
%ADD21R,0.930000X1.320000*%
%ADD22C,0.450000*%
%ADD23C,0.304800*%
%ADD24C,0.508000*%
%ADD25C,0.127000*%
%ADD26C,0.203200*%
G04 APERTURE END LIST*
D10*
X96462259Y-79330245D02*
X96461800Y-80660400D01*
X96853046Y-76702031D02*
X96593095Y-78006538D01*
X123408280Y-78015804D02*
X123149230Y-76711118D01*
X123537741Y-80669755D02*
X123538200Y-79339600D01*
X123146954Y-83297969D02*
X123406905Y-81993462D01*
X122250938Y-85799443D02*
X122760391Y-84570716D01*
X120884124Y-88078047D02*
X121623500Y-86972319D01*
X119099040Y-90046217D02*
X120039926Y-89105980D01*
X116964285Y-91628317D02*
X118070524Y-90889704D01*
X114561896Y-92763546D02*
X115790975Y-92254942D01*
X111984196Y-93408280D02*
X113288882Y-93149230D01*
X109330245Y-93537741D02*
X110660400Y-93538200D01*
X106702031Y-93146954D02*
X108006538Y-93406905D01*
X104200557Y-92250938D02*
X105429284Y-92760391D01*
X101921953Y-90884124D02*
X103027681Y-91623500D01*
X99953783Y-89099040D02*
X100894020Y-90039926D01*
X98371683Y-86964285D02*
X99110296Y-88070524D01*
X97236454Y-84561896D02*
X97745058Y-85790975D01*
X99736820Y-78476479D02*
X99636909Y-79489783D01*
X120363200Y-79492000D02*
X120263506Y-78478675D01*
X120263180Y-81523521D02*
X120363091Y-80510217D01*
X119768752Y-83496494D02*
X120064429Y-82522153D01*
X118898916Y-85335099D02*
X119378997Y-84437163D01*
X117687099Y-86968679D02*
X118333134Y-86181656D01*
X116179872Y-88334456D02*
X116967034Y-87688590D01*
X114435156Y-89379945D02*
X115333195Y-88900057D01*
X112519999Y-90064968D02*
X113494404Y-89769500D01*
X110508000Y-90363200D02*
X111521325Y-90263506D01*
X108476479Y-90263180D02*
X109489783Y-90363091D01*
X106503506Y-89768752D02*
X107477847Y-90064429D01*
X104664901Y-88898916D02*
X105562837Y-89378997D01*
X103031321Y-87687099D02*
X103818344Y-88333134D01*
X101665544Y-86179872D02*
X102311410Y-86967034D01*
X100620055Y-84435156D02*
X101099943Y-85333195D01*
X99935032Y-82519999D02*
X100230500Y-83494404D01*
X99736820Y-78476479D02*
X96593095Y-78006539D01*
X120064968Y-77480001D02*
X123149230Y-76711118D01*
X120363200Y-79492000D02*
X123538200Y-79339600D01*
X120263180Y-81523521D02*
X123406905Y-81993461D01*
X119768752Y-83496494D02*
X122760390Y-84570715D01*
X118898916Y-85335099D02*
X121623501Y-86972319D01*
X117687099Y-86968679D02*
X120039926Y-89105980D01*
X116179872Y-88334456D02*
X118070523Y-90889703D01*
X114435156Y-89379945D02*
X115790975Y-92254942D01*
X112519999Y-90064968D02*
X113288882Y-93149230D01*
X110508000Y-90363200D02*
X110660400Y-93538200D01*
X108476479Y-90263180D02*
X108006539Y-93406905D01*
X106503506Y-89768752D02*
X105429285Y-92760390D01*
X104664901Y-88898916D02*
X103027681Y-91623501D01*
X103031321Y-87687099D02*
X100894020Y-90039926D01*
X101665544Y-86179872D02*
X99110297Y-88070523D01*
X100620055Y-84435156D02*
X97745058Y-85790975D01*
X99935032Y-82519999D02*
X96850770Y-83288882D01*
X99636909Y-79489782D02*
X96462259Y-79330244D01*
X99935571Y-77477847D02*
X96853046Y-76702031D01*
X120263506Y-78478675D02*
X123408280Y-78015804D01*
X120363091Y-80510218D02*
X123537741Y-80669756D01*
X120064429Y-82522153D02*
X123146954Y-83297969D01*
X119378996Y-84437163D02*
X122250937Y-85799443D01*
X118333134Y-86181655D02*
X120884124Y-88078047D01*
X116967034Y-87688590D02*
X119099040Y-90046217D01*
X115333195Y-88900057D02*
X116964285Y-91628316D01*
X113494404Y-89769500D02*
X114561896Y-92763546D01*
X111521325Y-90263506D02*
X111984196Y-93408280D01*
X109489782Y-90363091D02*
X109330244Y-93537741D01*
X107477847Y-90064429D02*
X106702031Y-93146954D01*
X105562837Y-89378996D02*
X104200557Y-92250937D01*
X103818345Y-88333134D02*
X101921953Y-90884124D01*
X102311410Y-86967034D02*
X99953783Y-89099040D01*
X101099943Y-85333195D02*
X98371684Y-86964285D01*
X100230500Y-83494404D02*
X97236454Y-84561896D01*
X96591720Y-81984196D02*
X96850770Y-83288882D01*
X99636800Y-80508000D02*
X99736494Y-81521325D01*
X99736494Y-81521325D02*
X96591720Y-81984196D01*
X99636800Y-80508000D02*
X96461800Y-80660400D01*
D11*
X104828053Y-71326979D02*
G75*
G02X109000001Y-69951600I5171947J-8673021D01*
G01*
D12*
X101732244Y-71812927D03*
D13*
G36*
X102403440Y-73641545D02*
G01*
X100120321Y-70719286D01*
X101061048Y-69984309D01*
X103344167Y-72906568D01*
X102403440Y-73641545D01*
X102403440Y-73641545D01*
G37*
D12*
X103933946Y-70092769D03*
D13*
G36*
X104605142Y-71921387D02*
G01*
X102322023Y-68999128D01*
X103262750Y-68264151D01*
X105545869Y-71186410D01*
X104605142Y-71921387D01*
X104605142Y-71921387D01*
G37*
G36*
X114357958Y-67447910D02*
G01*
X114372276Y-67450034D01*
X114386317Y-67453551D01*
X114399946Y-67458428D01*
X114413031Y-67464617D01*
X114425447Y-67472058D01*
X114437073Y-67480681D01*
X114447798Y-67490402D01*
X114457519Y-67501127D01*
X114466142Y-67512753D01*
X114473583Y-67525169D01*
X114479772Y-67538254D01*
X114484649Y-67551883D01*
X114488166Y-67565924D01*
X114490290Y-67580242D01*
X114491000Y-67594700D01*
X114491000Y-67939700D01*
X114490290Y-67954158D01*
X114488166Y-67968476D01*
X114484649Y-67982517D01*
X114479772Y-67996146D01*
X114473583Y-68009231D01*
X114466142Y-68021647D01*
X114457519Y-68033273D01*
X114447798Y-68043998D01*
X114437073Y-68053719D01*
X114425447Y-68062342D01*
X114413031Y-68069783D01*
X114399946Y-68075972D01*
X114386317Y-68080849D01*
X114372276Y-68084366D01*
X114357958Y-68086490D01*
X114343500Y-68087200D01*
X114048500Y-68087200D01*
X114034042Y-68086490D01*
X114019724Y-68084366D01*
X114005683Y-68080849D01*
X113992054Y-68075972D01*
X113978969Y-68069783D01*
X113966553Y-68062342D01*
X113954927Y-68053719D01*
X113944202Y-68043998D01*
X113934481Y-68033273D01*
X113925858Y-68021647D01*
X113918417Y-68009231D01*
X113912228Y-67996146D01*
X113907351Y-67982517D01*
X113903834Y-67968476D01*
X113901710Y-67954158D01*
X113901000Y-67939700D01*
X113901000Y-67594700D01*
X113901710Y-67580242D01*
X113903834Y-67565924D01*
X113907351Y-67551883D01*
X113912228Y-67538254D01*
X113918417Y-67525169D01*
X113925858Y-67512753D01*
X113934481Y-67501127D01*
X113944202Y-67490402D01*
X113954927Y-67480681D01*
X113966553Y-67472058D01*
X113978969Y-67464617D01*
X113992054Y-67458428D01*
X114005683Y-67453551D01*
X114019724Y-67450034D01*
X114034042Y-67447910D01*
X114048500Y-67447200D01*
X114343500Y-67447200D01*
X114357958Y-67447910D01*
X114357958Y-67447910D01*
G37*
D14*
X114196000Y-67767200D03*
D13*
G36*
X115327958Y-67447910D02*
G01*
X115342276Y-67450034D01*
X115356317Y-67453551D01*
X115369946Y-67458428D01*
X115383031Y-67464617D01*
X115395447Y-67472058D01*
X115407073Y-67480681D01*
X115417798Y-67490402D01*
X115427519Y-67501127D01*
X115436142Y-67512753D01*
X115443583Y-67525169D01*
X115449772Y-67538254D01*
X115454649Y-67551883D01*
X115458166Y-67565924D01*
X115460290Y-67580242D01*
X115461000Y-67594700D01*
X115461000Y-67939700D01*
X115460290Y-67954158D01*
X115458166Y-67968476D01*
X115454649Y-67982517D01*
X115449772Y-67996146D01*
X115443583Y-68009231D01*
X115436142Y-68021647D01*
X115427519Y-68033273D01*
X115417798Y-68043998D01*
X115407073Y-68053719D01*
X115395447Y-68062342D01*
X115383031Y-68069783D01*
X115369946Y-68075972D01*
X115356317Y-68080849D01*
X115342276Y-68084366D01*
X115327958Y-68086490D01*
X115313500Y-68087200D01*
X115018500Y-68087200D01*
X115004042Y-68086490D01*
X114989724Y-68084366D01*
X114975683Y-68080849D01*
X114962054Y-68075972D01*
X114948969Y-68069783D01*
X114936553Y-68062342D01*
X114924927Y-68053719D01*
X114914202Y-68043998D01*
X114904481Y-68033273D01*
X114895858Y-68021647D01*
X114888417Y-68009231D01*
X114882228Y-67996146D01*
X114877351Y-67982517D01*
X114873834Y-67968476D01*
X114871710Y-67954158D01*
X114871000Y-67939700D01*
X114871000Y-67594700D01*
X114871710Y-67580242D01*
X114873834Y-67565924D01*
X114877351Y-67551883D01*
X114882228Y-67538254D01*
X114888417Y-67525169D01*
X114895858Y-67512753D01*
X114904481Y-67501127D01*
X114914202Y-67490402D01*
X114924927Y-67480681D01*
X114936553Y-67472058D01*
X114948969Y-67464617D01*
X114962054Y-67458428D01*
X114975683Y-67453551D01*
X114989724Y-67450034D01*
X115004042Y-67447910D01*
X115018500Y-67447200D01*
X115313500Y-67447200D01*
X115327958Y-67447910D01*
X115327958Y-67447910D01*
G37*
D14*
X115166000Y-67767200D03*
D13*
G36*
X107707958Y-68565510D02*
G01*
X107722276Y-68567634D01*
X107736317Y-68571151D01*
X107749946Y-68576028D01*
X107763031Y-68582217D01*
X107775447Y-68589658D01*
X107787073Y-68598281D01*
X107797798Y-68608002D01*
X107807519Y-68618727D01*
X107816142Y-68630353D01*
X107823583Y-68642769D01*
X107829772Y-68655854D01*
X107834649Y-68669483D01*
X107838166Y-68683524D01*
X107840290Y-68697842D01*
X107841000Y-68712300D01*
X107841000Y-69057300D01*
X107840290Y-69071758D01*
X107838166Y-69086076D01*
X107834649Y-69100117D01*
X107829772Y-69113746D01*
X107823583Y-69126831D01*
X107816142Y-69139247D01*
X107807519Y-69150873D01*
X107797798Y-69161598D01*
X107787073Y-69171319D01*
X107775447Y-69179942D01*
X107763031Y-69187383D01*
X107749946Y-69193572D01*
X107736317Y-69198449D01*
X107722276Y-69201966D01*
X107707958Y-69204090D01*
X107693500Y-69204800D01*
X107398500Y-69204800D01*
X107384042Y-69204090D01*
X107369724Y-69201966D01*
X107355683Y-69198449D01*
X107342054Y-69193572D01*
X107328969Y-69187383D01*
X107316553Y-69179942D01*
X107304927Y-69171319D01*
X107294202Y-69161598D01*
X107284481Y-69150873D01*
X107275858Y-69139247D01*
X107268417Y-69126831D01*
X107262228Y-69113746D01*
X107257351Y-69100117D01*
X107253834Y-69086076D01*
X107251710Y-69071758D01*
X107251000Y-69057300D01*
X107251000Y-68712300D01*
X107251710Y-68697842D01*
X107253834Y-68683524D01*
X107257351Y-68669483D01*
X107262228Y-68655854D01*
X107268417Y-68642769D01*
X107275858Y-68630353D01*
X107284481Y-68618727D01*
X107294202Y-68608002D01*
X107304927Y-68598281D01*
X107316553Y-68589658D01*
X107328969Y-68582217D01*
X107342054Y-68576028D01*
X107355683Y-68571151D01*
X107369724Y-68567634D01*
X107384042Y-68565510D01*
X107398500Y-68564800D01*
X107693500Y-68564800D01*
X107707958Y-68565510D01*
X107707958Y-68565510D01*
G37*
D14*
X107546000Y-68884800D03*
D13*
G36*
X106737958Y-68565510D02*
G01*
X106752276Y-68567634D01*
X106766317Y-68571151D01*
X106779946Y-68576028D01*
X106793031Y-68582217D01*
X106805447Y-68589658D01*
X106817073Y-68598281D01*
X106827798Y-68608002D01*
X106837519Y-68618727D01*
X106846142Y-68630353D01*
X106853583Y-68642769D01*
X106859772Y-68655854D01*
X106864649Y-68669483D01*
X106868166Y-68683524D01*
X106870290Y-68697842D01*
X106871000Y-68712300D01*
X106871000Y-69057300D01*
X106870290Y-69071758D01*
X106868166Y-69086076D01*
X106864649Y-69100117D01*
X106859772Y-69113746D01*
X106853583Y-69126831D01*
X106846142Y-69139247D01*
X106837519Y-69150873D01*
X106827798Y-69161598D01*
X106817073Y-69171319D01*
X106805447Y-69179942D01*
X106793031Y-69187383D01*
X106779946Y-69193572D01*
X106766317Y-69198449D01*
X106752276Y-69201966D01*
X106737958Y-69204090D01*
X106723500Y-69204800D01*
X106428500Y-69204800D01*
X106414042Y-69204090D01*
X106399724Y-69201966D01*
X106385683Y-69198449D01*
X106372054Y-69193572D01*
X106358969Y-69187383D01*
X106346553Y-69179942D01*
X106334927Y-69171319D01*
X106324202Y-69161598D01*
X106314481Y-69150873D01*
X106305858Y-69139247D01*
X106298417Y-69126831D01*
X106292228Y-69113746D01*
X106287351Y-69100117D01*
X106283834Y-69086076D01*
X106281710Y-69071758D01*
X106281000Y-69057300D01*
X106281000Y-68712300D01*
X106281710Y-68697842D01*
X106283834Y-68683524D01*
X106287351Y-68669483D01*
X106292228Y-68655854D01*
X106298417Y-68642769D01*
X106305858Y-68630353D01*
X106314481Y-68618727D01*
X106324202Y-68608002D01*
X106334927Y-68598281D01*
X106346553Y-68589658D01*
X106358969Y-68582217D01*
X106372054Y-68576028D01*
X106385683Y-68571151D01*
X106399724Y-68567634D01*
X106414042Y-68565510D01*
X106428500Y-68564800D01*
X106723500Y-68564800D01*
X106737958Y-68565510D01*
X106737958Y-68565510D01*
G37*
D14*
X106576000Y-68884800D03*
D13*
G36*
X107707958Y-67244710D02*
G01*
X107722276Y-67246834D01*
X107736317Y-67250351D01*
X107749946Y-67255228D01*
X107763031Y-67261417D01*
X107775447Y-67268858D01*
X107787073Y-67277481D01*
X107797798Y-67287202D01*
X107807519Y-67297927D01*
X107816142Y-67309553D01*
X107823583Y-67321969D01*
X107829772Y-67335054D01*
X107834649Y-67348683D01*
X107838166Y-67362724D01*
X107840290Y-67377042D01*
X107841000Y-67391500D01*
X107841000Y-67736500D01*
X107840290Y-67750958D01*
X107838166Y-67765276D01*
X107834649Y-67779317D01*
X107829772Y-67792946D01*
X107823583Y-67806031D01*
X107816142Y-67818447D01*
X107807519Y-67830073D01*
X107797798Y-67840798D01*
X107787073Y-67850519D01*
X107775447Y-67859142D01*
X107763031Y-67866583D01*
X107749946Y-67872772D01*
X107736317Y-67877649D01*
X107722276Y-67881166D01*
X107707958Y-67883290D01*
X107693500Y-67884000D01*
X107398500Y-67884000D01*
X107384042Y-67883290D01*
X107369724Y-67881166D01*
X107355683Y-67877649D01*
X107342054Y-67872772D01*
X107328969Y-67866583D01*
X107316553Y-67859142D01*
X107304927Y-67850519D01*
X107294202Y-67840798D01*
X107284481Y-67830073D01*
X107275858Y-67818447D01*
X107268417Y-67806031D01*
X107262228Y-67792946D01*
X107257351Y-67779317D01*
X107253834Y-67765276D01*
X107251710Y-67750958D01*
X107251000Y-67736500D01*
X107251000Y-67391500D01*
X107251710Y-67377042D01*
X107253834Y-67362724D01*
X107257351Y-67348683D01*
X107262228Y-67335054D01*
X107268417Y-67321969D01*
X107275858Y-67309553D01*
X107284481Y-67297927D01*
X107294202Y-67287202D01*
X107304927Y-67277481D01*
X107316553Y-67268858D01*
X107328969Y-67261417D01*
X107342054Y-67255228D01*
X107355683Y-67250351D01*
X107369724Y-67246834D01*
X107384042Y-67244710D01*
X107398500Y-67244000D01*
X107693500Y-67244000D01*
X107707958Y-67244710D01*
X107707958Y-67244710D01*
G37*
D14*
X107546000Y-67564000D03*
D13*
G36*
X106737958Y-67244710D02*
G01*
X106752276Y-67246834D01*
X106766317Y-67250351D01*
X106779946Y-67255228D01*
X106793031Y-67261417D01*
X106805447Y-67268858D01*
X106817073Y-67277481D01*
X106827798Y-67287202D01*
X106837519Y-67297927D01*
X106846142Y-67309553D01*
X106853583Y-67321969D01*
X106859772Y-67335054D01*
X106864649Y-67348683D01*
X106868166Y-67362724D01*
X106870290Y-67377042D01*
X106871000Y-67391500D01*
X106871000Y-67736500D01*
X106870290Y-67750958D01*
X106868166Y-67765276D01*
X106864649Y-67779317D01*
X106859772Y-67792946D01*
X106853583Y-67806031D01*
X106846142Y-67818447D01*
X106837519Y-67830073D01*
X106827798Y-67840798D01*
X106817073Y-67850519D01*
X106805447Y-67859142D01*
X106793031Y-67866583D01*
X106779946Y-67872772D01*
X106766317Y-67877649D01*
X106752276Y-67881166D01*
X106737958Y-67883290D01*
X106723500Y-67884000D01*
X106428500Y-67884000D01*
X106414042Y-67883290D01*
X106399724Y-67881166D01*
X106385683Y-67877649D01*
X106372054Y-67872772D01*
X106358969Y-67866583D01*
X106346553Y-67859142D01*
X106334927Y-67850519D01*
X106324202Y-67840798D01*
X106314481Y-67830073D01*
X106305858Y-67818447D01*
X106298417Y-67806031D01*
X106292228Y-67792946D01*
X106287351Y-67779317D01*
X106283834Y-67765276D01*
X106281710Y-67750958D01*
X106281000Y-67736500D01*
X106281000Y-67391500D01*
X106281710Y-67377042D01*
X106283834Y-67362724D01*
X106287351Y-67348683D01*
X106292228Y-67335054D01*
X106298417Y-67321969D01*
X106305858Y-67309553D01*
X106314481Y-67297927D01*
X106324202Y-67287202D01*
X106334927Y-67277481D01*
X106346553Y-67268858D01*
X106358969Y-67261417D01*
X106372054Y-67255228D01*
X106385683Y-67250351D01*
X106399724Y-67246834D01*
X106414042Y-67244710D01*
X106428500Y-67244000D01*
X106723500Y-67244000D01*
X106737958Y-67244710D01*
X106737958Y-67244710D01*
G37*
D14*
X106576000Y-67564000D03*
D15*
X108597400Y-66418599D03*
X108597400Y-66918601D03*
X108597400Y-67418600D03*
X108597400Y-67918599D03*
X108597400Y-68418601D03*
X111493000Y-68418601D03*
X111493000Y-67918599D03*
X111493000Y-67418600D03*
X111493000Y-66918601D03*
X111493000Y-66418599D03*
D16*
X110045200Y-67418600D03*
D17*
X111203400Y-69965400D03*
X109003400Y-69965400D03*
D13*
G36*
X115327958Y-66558910D02*
G01*
X115342276Y-66561034D01*
X115356317Y-66564551D01*
X115369946Y-66569428D01*
X115383031Y-66575617D01*
X115395447Y-66583058D01*
X115407073Y-66591681D01*
X115417798Y-66601402D01*
X115427519Y-66612127D01*
X115436142Y-66623753D01*
X115443583Y-66636169D01*
X115449772Y-66649254D01*
X115454649Y-66662883D01*
X115458166Y-66676924D01*
X115460290Y-66691242D01*
X115461000Y-66705700D01*
X115461000Y-67050700D01*
X115460290Y-67065158D01*
X115458166Y-67079476D01*
X115454649Y-67093517D01*
X115449772Y-67107146D01*
X115443583Y-67120231D01*
X115436142Y-67132647D01*
X115427519Y-67144273D01*
X115417798Y-67154998D01*
X115407073Y-67164719D01*
X115395447Y-67173342D01*
X115383031Y-67180783D01*
X115369946Y-67186972D01*
X115356317Y-67191849D01*
X115342276Y-67195366D01*
X115327958Y-67197490D01*
X115313500Y-67198200D01*
X115018500Y-67198200D01*
X115004042Y-67197490D01*
X114989724Y-67195366D01*
X114975683Y-67191849D01*
X114962054Y-67186972D01*
X114948969Y-67180783D01*
X114936553Y-67173342D01*
X114924927Y-67164719D01*
X114914202Y-67154998D01*
X114904481Y-67144273D01*
X114895858Y-67132647D01*
X114888417Y-67120231D01*
X114882228Y-67107146D01*
X114877351Y-67093517D01*
X114873834Y-67079476D01*
X114871710Y-67065158D01*
X114871000Y-67050700D01*
X114871000Y-66705700D01*
X114871710Y-66691242D01*
X114873834Y-66676924D01*
X114877351Y-66662883D01*
X114882228Y-66649254D01*
X114888417Y-66636169D01*
X114895858Y-66623753D01*
X114904481Y-66612127D01*
X114914202Y-66601402D01*
X114924927Y-66591681D01*
X114936553Y-66583058D01*
X114948969Y-66575617D01*
X114962054Y-66569428D01*
X114975683Y-66564551D01*
X114989724Y-66561034D01*
X115004042Y-66558910D01*
X115018500Y-66558200D01*
X115313500Y-66558200D01*
X115327958Y-66558910D01*
X115327958Y-66558910D01*
G37*
D14*
X115166000Y-66878200D03*
D13*
G36*
X114357958Y-66558910D02*
G01*
X114372276Y-66561034D01*
X114386317Y-66564551D01*
X114399946Y-66569428D01*
X114413031Y-66575617D01*
X114425447Y-66583058D01*
X114437073Y-66591681D01*
X114447798Y-66601402D01*
X114457519Y-66612127D01*
X114466142Y-66623753D01*
X114473583Y-66636169D01*
X114479772Y-66649254D01*
X114484649Y-66662883D01*
X114488166Y-66676924D01*
X114490290Y-66691242D01*
X114491000Y-66705700D01*
X114491000Y-67050700D01*
X114490290Y-67065158D01*
X114488166Y-67079476D01*
X114484649Y-67093517D01*
X114479772Y-67107146D01*
X114473583Y-67120231D01*
X114466142Y-67132647D01*
X114457519Y-67144273D01*
X114447798Y-67154998D01*
X114437073Y-67164719D01*
X114425447Y-67173342D01*
X114413031Y-67180783D01*
X114399946Y-67186972D01*
X114386317Y-67191849D01*
X114372276Y-67195366D01*
X114357958Y-67197490D01*
X114343500Y-67198200D01*
X114048500Y-67198200D01*
X114034042Y-67197490D01*
X114019724Y-67195366D01*
X114005683Y-67191849D01*
X113992054Y-67186972D01*
X113978969Y-67180783D01*
X113966553Y-67173342D01*
X113954927Y-67164719D01*
X113944202Y-67154998D01*
X113934481Y-67144273D01*
X113925858Y-67132647D01*
X113918417Y-67120231D01*
X113912228Y-67107146D01*
X113907351Y-67093517D01*
X113903834Y-67079476D01*
X113901710Y-67065158D01*
X113901000Y-67050700D01*
X113901000Y-66705700D01*
X113901710Y-66691242D01*
X113903834Y-66676924D01*
X113907351Y-66662883D01*
X113912228Y-66649254D01*
X113918417Y-66636169D01*
X113925858Y-66623753D01*
X113934481Y-66612127D01*
X113944202Y-66601402D01*
X113954927Y-66591681D01*
X113966553Y-66583058D01*
X113978969Y-66575617D01*
X113992054Y-66569428D01*
X114005683Y-66564551D01*
X114019724Y-66561034D01*
X114034042Y-66558910D01*
X114048500Y-66558200D01*
X114343500Y-66558200D01*
X114357958Y-66558910D01*
X114357958Y-66558910D01*
G37*
D14*
X114196000Y-66878200D03*
D18*
X99009680Y-75913900D03*
X99009680Y-74643900D03*
D19*
X99009680Y-73373900D03*
D18*
X120941580Y-75913420D03*
D19*
X120941580Y-74643420D03*
D13*
G36*
X114463891Y-68334653D02*
G01*
X114485126Y-68337803D01*
X114505950Y-68343019D01*
X114526162Y-68350251D01*
X114545568Y-68359430D01*
X114563981Y-68370466D01*
X114581224Y-68383254D01*
X114597130Y-68397670D01*
X114611546Y-68413576D01*
X114624334Y-68430819D01*
X114635370Y-68449232D01*
X114644549Y-68468638D01*
X114651781Y-68488850D01*
X114656997Y-68509674D01*
X114660147Y-68530909D01*
X114661200Y-68552350D01*
X114661200Y-69064850D01*
X114660147Y-69086291D01*
X114656997Y-69107526D01*
X114651781Y-69128350D01*
X114644549Y-69148562D01*
X114635370Y-69167968D01*
X114624334Y-69186381D01*
X114611546Y-69203624D01*
X114597130Y-69219530D01*
X114581224Y-69233946D01*
X114563981Y-69246734D01*
X114545568Y-69257770D01*
X114526162Y-69266949D01*
X114505950Y-69274181D01*
X114485126Y-69279397D01*
X114463891Y-69282547D01*
X114442450Y-69283600D01*
X114004950Y-69283600D01*
X113983509Y-69282547D01*
X113962274Y-69279397D01*
X113941450Y-69274181D01*
X113921238Y-69266949D01*
X113901832Y-69257770D01*
X113883419Y-69246734D01*
X113866176Y-69233946D01*
X113850270Y-69219530D01*
X113835854Y-69203624D01*
X113823066Y-69186381D01*
X113812030Y-69167968D01*
X113802851Y-69148562D01*
X113795619Y-69128350D01*
X113790403Y-69107526D01*
X113787253Y-69086291D01*
X113786200Y-69064850D01*
X113786200Y-68552350D01*
X113787253Y-68530909D01*
X113790403Y-68509674D01*
X113795619Y-68488850D01*
X113802851Y-68468638D01*
X113812030Y-68449232D01*
X113823066Y-68430819D01*
X113835854Y-68413576D01*
X113850270Y-68397670D01*
X113866176Y-68383254D01*
X113883419Y-68370466D01*
X113901832Y-68359430D01*
X113921238Y-68350251D01*
X113941450Y-68343019D01*
X113962274Y-68337803D01*
X113983509Y-68334653D01*
X114004950Y-68333600D01*
X114442450Y-68333600D01*
X114463891Y-68334653D01*
X114463891Y-68334653D01*
G37*
D20*
X114223700Y-68808600D03*
D13*
G36*
X116038891Y-68334653D02*
G01*
X116060126Y-68337803D01*
X116080950Y-68343019D01*
X116101162Y-68350251D01*
X116120568Y-68359430D01*
X116138981Y-68370466D01*
X116156224Y-68383254D01*
X116172130Y-68397670D01*
X116186546Y-68413576D01*
X116199334Y-68430819D01*
X116210370Y-68449232D01*
X116219549Y-68468638D01*
X116226781Y-68488850D01*
X116231997Y-68509674D01*
X116235147Y-68530909D01*
X116236200Y-68552350D01*
X116236200Y-69064850D01*
X116235147Y-69086291D01*
X116231997Y-69107526D01*
X116226781Y-69128350D01*
X116219549Y-69148562D01*
X116210370Y-69167968D01*
X116199334Y-69186381D01*
X116186546Y-69203624D01*
X116172130Y-69219530D01*
X116156224Y-69233946D01*
X116138981Y-69246734D01*
X116120568Y-69257770D01*
X116101162Y-69266949D01*
X116080950Y-69274181D01*
X116060126Y-69279397D01*
X116038891Y-69282547D01*
X116017450Y-69283600D01*
X115579950Y-69283600D01*
X115558509Y-69282547D01*
X115537274Y-69279397D01*
X115516450Y-69274181D01*
X115496238Y-69266949D01*
X115476832Y-69257770D01*
X115458419Y-69246734D01*
X115441176Y-69233946D01*
X115425270Y-69219530D01*
X115410854Y-69203624D01*
X115398066Y-69186381D01*
X115387030Y-69167968D01*
X115377851Y-69148562D01*
X115370619Y-69128350D01*
X115365403Y-69107526D01*
X115362253Y-69086291D01*
X115361200Y-69064850D01*
X115361200Y-68552350D01*
X115362253Y-68530909D01*
X115365403Y-68509674D01*
X115370619Y-68488850D01*
X115377851Y-68468638D01*
X115387030Y-68449232D01*
X115398066Y-68430819D01*
X115410854Y-68413576D01*
X115425270Y-68397670D01*
X115441176Y-68383254D01*
X115458419Y-68370466D01*
X115476832Y-68359430D01*
X115496238Y-68350251D01*
X115516450Y-68343019D01*
X115537274Y-68337803D01*
X115558509Y-68334653D01*
X115579950Y-68333600D01*
X116017450Y-68333600D01*
X116038891Y-68334653D01*
X116038891Y-68334653D01*
G37*
D20*
X115798700Y-68808600D03*
D21*
X114089600Y-70180200D03*
X115729600Y-70180200D03*
D22*
X100457000Y-71882000D03*
X101295200Y-72974200D03*
X113360200Y-68757800D03*
X110540800Y-68097400D03*
X109524800Y-67386200D03*
X105841800Y-68148200D03*
X117068600Y-70967600D03*
X117119400Y-70078600D03*
X104329142Y-68692622D03*
X112395000Y-68554600D03*
X113567106Y-68101094D03*
X113538000Y-67386200D03*
X107752671Y-68281071D03*
X117144800Y-69265800D03*
X105156000Y-68478400D03*
D23*
X114223700Y-68808600D02*
X113969700Y-69062600D01*
X114172900Y-68757800D02*
X114223700Y-68808600D01*
X113360200Y-68757800D02*
X114172900Y-68757800D01*
X113004600Y-68219000D02*
X113004600Y-68402200D01*
X111493000Y-67418600D02*
X112204200Y-67418600D01*
X113004600Y-68402200D02*
X113360200Y-68757800D01*
X112204200Y-67418600D02*
X113004600Y-68219000D01*
X106576000Y-67564000D02*
X106426000Y-67564000D01*
X106426000Y-67564000D02*
X105841800Y-68148200D01*
X115729600Y-70180200D02*
X116281200Y-70180200D01*
X116281200Y-70180200D02*
X117068600Y-70967600D01*
X115798700Y-68808600D02*
X115849400Y-68808600D01*
X115849400Y-68808600D02*
X117119400Y-70078600D01*
X104343200Y-68678564D02*
X104329142Y-68692622D01*
X104343200Y-68046600D02*
X104343200Y-68678564D01*
X108597400Y-66418599D02*
X105971201Y-66418599D01*
X105971201Y-66418599D02*
X104343200Y-68046600D01*
X113901000Y-67767200D02*
X113567106Y-68101094D01*
X114196000Y-67767200D02*
X113901000Y-67767200D01*
X113516294Y-68101094D02*
X113567106Y-68101094D01*
X111493000Y-66918601D02*
X112333801Y-66918601D01*
X112333801Y-66918601D02*
X113516294Y-68101094D01*
X107010200Y-69545200D02*
X107879671Y-69545200D01*
X108597400Y-68827471D02*
X108597400Y-68418601D01*
X107879671Y-69545200D02*
X108597400Y-68827471D01*
X106576000Y-68884800D02*
X106576000Y-69111000D01*
X106576000Y-69111000D02*
X107010200Y-69545200D01*
X107691400Y-67418600D02*
X107546000Y-67564000D01*
X108597400Y-67418600D02*
X107691400Y-67418600D01*
X113736399Y-66418599D02*
X114196000Y-66878200D01*
X111493000Y-66418599D02*
X113736399Y-66418599D01*
X114046000Y-66878200D02*
X113538000Y-67386200D01*
X114196000Y-66878200D02*
X114046000Y-66878200D01*
X107546000Y-68487742D02*
X107546000Y-68884800D01*
X108115143Y-67918599D02*
X107752671Y-68281071D01*
X108597400Y-67918599D02*
X108115143Y-67918599D01*
X107752671Y-68281071D02*
X107546000Y-68487742D01*
X115166000Y-67767200D02*
X115166000Y-66878200D01*
X115964398Y-67767200D02*
X115166000Y-67767200D01*
X117144800Y-68947602D02*
X115964398Y-67767200D01*
X117144800Y-69265800D02*
X117144800Y-68947602D01*
X105156000Y-67995800D02*
X105156000Y-68478400D01*
X108597400Y-66918601D02*
X106233199Y-66918601D01*
X106233199Y-66918601D02*
X105156000Y-67995800D01*
D24*
X109595400Y-69965400D02*
X109003400Y-69965400D01*
X111449600Y-68568400D02*
X110052600Y-69965400D01*
X110052600Y-69965400D02*
X109595400Y-69965400D01*
D25*
G36*
X112661700Y-68361034D02*
G01*
X112661700Y-68385365D01*
X112660042Y-68402200D01*
X112661700Y-68419035D01*
X112661700Y-68419043D01*
X112666662Y-68469420D01*
X112686269Y-68534057D01*
X112718110Y-68593627D01*
X112760961Y-68645840D01*
X112774043Y-68656576D01*
X112951780Y-68834313D01*
X112960668Y-68878997D01*
X112991989Y-68954613D01*
X113037460Y-69022666D01*
X113095334Y-69080540D01*
X113163387Y-69126011D01*
X113239003Y-69157332D01*
X113319277Y-69173300D01*
X113401123Y-69173300D01*
X113481397Y-69157332D01*
X113557013Y-69126011D01*
X113594894Y-69100700D01*
X113598310Y-69100700D01*
X113602660Y-69144870D01*
X113626001Y-69221816D01*
X113663905Y-69292729D01*
X113714915Y-69354885D01*
X113777071Y-69405895D01*
X113847984Y-69443799D01*
X113924930Y-69467140D01*
X114004950Y-69475021D01*
X114419059Y-69475021D01*
X114424919Y-71801000D01*
X113930478Y-71530039D01*
X112766473Y-71081730D01*
X111553100Y-70792569D01*
X111042227Y-70741175D01*
X111028497Y-69618121D01*
X111779344Y-68867274D01*
X111820975Y-68816546D01*
X111849906Y-68762422D01*
X111899400Y-68762422D01*
X111936744Y-68758744D01*
X111972654Y-68747851D01*
X112005748Y-68730162D01*
X112034755Y-68706356D01*
X112058561Y-68677349D01*
X112076250Y-68644255D01*
X112087143Y-68608345D01*
X112090821Y-68571001D01*
X112090821Y-68266201D01*
X112087143Y-68228857D01*
X112076250Y-68192947D01*
X112058561Y-68159853D01*
X112034755Y-68130846D01*
X112005748Y-68107040D01*
X111972654Y-68089351D01*
X111936744Y-68078458D01*
X111899400Y-68074780D01*
X111086600Y-68074780D01*
X111049256Y-68078458D01*
X111036721Y-68082260D01*
X111036721Y-67768300D01*
X112068967Y-67768300D01*
X112661700Y-68361034D01*
X112661700Y-68361034D01*
G37*
X112661700Y-68361034D02*
X112661700Y-68385365D01*
X112660042Y-68402200D01*
X112661700Y-68419035D01*
X112661700Y-68419043D01*
X112666662Y-68469420D01*
X112686269Y-68534057D01*
X112718110Y-68593627D01*
X112760961Y-68645840D01*
X112774043Y-68656576D01*
X112951780Y-68834313D01*
X112960668Y-68878997D01*
X112991989Y-68954613D01*
X113037460Y-69022666D01*
X113095334Y-69080540D01*
X113163387Y-69126011D01*
X113239003Y-69157332D01*
X113319277Y-69173300D01*
X113401123Y-69173300D01*
X113481397Y-69157332D01*
X113557013Y-69126011D01*
X113594894Y-69100700D01*
X113598310Y-69100700D01*
X113602660Y-69144870D01*
X113626001Y-69221816D01*
X113663905Y-69292729D01*
X113714915Y-69354885D01*
X113777071Y-69405895D01*
X113847984Y-69443799D01*
X113924930Y-69467140D01*
X114004950Y-69475021D01*
X114419059Y-69475021D01*
X114424919Y-71801000D01*
X113930478Y-71530039D01*
X112766473Y-71081730D01*
X111553100Y-70792569D01*
X111042227Y-70741175D01*
X111028497Y-69618121D01*
X111779344Y-68867274D01*
X111820975Y-68816546D01*
X111849906Y-68762422D01*
X111899400Y-68762422D01*
X111936744Y-68758744D01*
X111972654Y-68747851D01*
X112005748Y-68730162D01*
X112034755Y-68706356D01*
X112058561Y-68677349D01*
X112076250Y-68644255D01*
X112087143Y-68608345D01*
X112090821Y-68571001D01*
X112090821Y-68266201D01*
X112087143Y-68228857D01*
X112076250Y-68192947D01*
X112058561Y-68159853D01*
X112034755Y-68130846D01*
X112005748Y-68107040D01*
X111972654Y-68089351D01*
X111936744Y-68078458D01*
X111899400Y-68074780D01*
X111086600Y-68074780D01*
X111049256Y-68078458D01*
X111036721Y-68082260D01*
X111036721Y-67768300D01*
X112068967Y-67768300D01*
X112661700Y-68361034D01*
G36*
X103378096Y-72826099D02*
G01*
X101807382Y-74045264D01*
X99555588Y-71210732D01*
X101126302Y-69991566D01*
X103378096Y-72826099D01*
X103378096Y-72826099D01*
G37*
X103378096Y-72826099D02*
X101807382Y-74045264D01*
X99555588Y-71210732D01*
X101126302Y-69991566D01*
X103378096Y-72826099D01*
D26*
G36*
X116846715Y-67140959D02*
G01*
X118132606Y-67913099D01*
X119332290Y-68813364D01*
X120433048Y-69832210D01*
X121423214Y-70958837D01*
X122292291Y-72181303D01*
X123031067Y-73486648D01*
X123631710Y-74861037D01*
X124087853Y-76289900D01*
X124394662Y-77758091D01*
X124548884Y-79250047D01*
X124548884Y-80749953D01*
X124394662Y-82241909D01*
X124087853Y-83710100D01*
X123631710Y-85138963D01*
X123031067Y-86513352D01*
X122292291Y-87818697D01*
X121423214Y-89041163D01*
X120433048Y-90167790D01*
X119332290Y-91186636D01*
X118132606Y-92086901D01*
X116846715Y-92859041D01*
X115488247Y-93494873D01*
X114071603Y-93987655D01*
X112611798Y-94332165D01*
X111124308Y-94524751D01*
X109624899Y-94563370D01*
X108129467Y-94447614D01*
X106653863Y-94178710D01*
X105213729Y-93759508D01*
X103824330Y-93194452D01*
X102500396Y-92489531D01*
X101255958Y-91652218D01*
X100104210Y-90691389D01*
X99057360Y-89617228D01*
X98126504Y-88441122D01*
X97321511Y-87175539D01*
X96650912Y-85833893D01*
X96121817Y-84430406D01*
X95739835Y-82979955D01*
X95509013Y-81497917D01*
X95466851Y-80679974D01*
X96054005Y-80679974D01*
X96058404Y-80709857D01*
X96061353Y-80739910D01*
X96064220Y-80749374D01*
X96065660Y-80759155D01*
X96075803Y-80787603D01*
X96084559Y-80816505D01*
X96089216Y-80825225D01*
X96092537Y-80834540D01*
X96108035Y-80860463D01*
X96122262Y-80887102D01*
X96128533Y-80894748D01*
X96133606Y-80903234D01*
X96153861Y-80925632D01*
X96173014Y-80948987D01*
X96180655Y-80955262D01*
X96187287Y-80962596D01*
X96211523Y-80980613D01*
X96234863Y-80999781D01*
X96243583Y-81004446D01*
X96251517Y-81010344D01*
X96278795Y-81023283D01*
X96305434Y-81037534D01*
X96314899Y-81040409D01*
X96323828Y-81044644D01*
X96353111Y-81052014D01*
X96382013Y-81060792D01*
X96391851Y-81061764D01*
X96401441Y-81064178D01*
X96431615Y-81065694D01*
X96461660Y-81068664D01*
X96491370Y-81065748D01*
X99270289Y-80932360D01*
X99294233Y-81175743D01*
X96542232Y-81580803D01*
X96512210Y-81583749D01*
X96483613Y-81592413D01*
X96454612Y-81599643D01*
X96445383Y-81603995D01*
X96435614Y-81606955D01*
X96409253Y-81621034D01*
X96382224Y-81633780D01*
X96374020Y-81639850D01*
X96365018Y-81644658D01*
X96341909Y-81663610D01*
X96317887Y-81681384D01*
X96311026Y-81688937D01*
X96303133Y-81695410D01*
X96284161Y-81718512D01*
X96264073Y-81740625D01*
X96258818Y-81749369D01*
X96252339Y-81757259D01*
X96238239Y-81783616D01*
X96222850Y-81809226D01*
X96219401Y-81818831D01*
X96214587Y-81827830D01*
X96205902Y-81856423D01*
X96195802Y-81884551D01*
X96194293Y-81894644D01*
X96191327Y-81904410D01*
X96188388Y-81934150D01*
X96183970Y-81963705D01*
X96184459Y-81973902D01*
X96183456Y-81984055D01*
X96186374Y-82013785D01*
X96187807Y-82043646D01*
X96195109Y-82072937D01*
X96450281Y-83358092D01*
X96454629Y-83387636D01*
X96464771Y-83416081D01*
X96473529Y-83444988D01*
X96478188Y-83453712D01*
X96481508Y-83463023D01*
X96497004Y-83488944D01*
X96511232Y-83515584D01*
X96517500Y-83523227D01*
X96522575Y-83531716D01*
X96542837Y-83554122D01*
X96561984Y-83577469D01*
X96569625Y-83583744D01*
X96576257Y-83591078D01*
X96600486Y-83609090D01*
X96623832Y-83628263D01*
X96632555Y-83632929D01*
X96640487Y-83638826D01*
X96667766Y-83651766D01*
X96694403Y-83666015D01*
X96703866Y-83668889D01*
X96712798Y-83673126D01*
X96742084Y-83680497D01*
X96770983Y-83689274D01*
X96780823Y-83690247D01*
X96790412Y-83692660D01*
X96820580Y-83694176D01*
X96850628Y-83697146D01*
X96860465Y-83696181D01*
X96870343Y-83696677D01*
X96900233Y-83692278D01*
X96930280Y-83689329D01*
X96958852Y-83680673D01*
X99658352Y-83007708D01*
X99729318Y-83241743D01*
X97109222Y-84175908D01*
X97080349Y-84184655D01*
X97053992Y-84198731D01*
X97026958Y-84211481D01*
X97018753Y-84217552D01*
X97009752Y-84222359D01*
X96986642Y-84241311D01*
X96962621Y-84259084D01*
X96955762Y-84266634D01*
X96947867Y-84273109D01*
X96928895Y-84296210D01*
X96908806Y-84318325D01*
X96903549Y-84327073D01*
X96897073Y-84334959D01*
X96882976Y-84361310D01*
X96867584Y-84386926D01*
X96864135Y-84396531D01*
X96859321Y-84405530D01*
X96850639Y-84434116D01*
X96840536Y-84462251D01*
X96839027Y-84472349D01*
X96836062Y-84482110D01*
X96833123Y-84511846D01*
X96828704Y-84541406D01*
X96829193Y-84551597D01*
X96828189Y-84561756D01*
X96831108Y-84591498D01*
X96832541Y-84621346D01*
X96835010Y-84631251D01*
X96836007Y-84641405D01*
X96844672Y-84670006D01*
X96851901Y-84699004D01*
X96864769Y-84726290D01*
X97365768Y-85936991D01*
X97375795Y-85965115D01*
X97391290Y-85991032D01*
X97405520Y-86017677D01*
X97411791Y-86025324D01*
X97416864Y-86033809D01*
X97437111Y-86056199D01*
X97456270Y-86079561D01*
X97463915Y-86085840D01*
X97470544Y-86093170D01*
X97494769Y-86111179D01*
X97518120Y-86130356D01*
X97526843Y-86135022D01*
X97534775Y-86140919D01*
X97562054Y-86153859D01*
X97588691Y-86168108D01*
X97598154Y-86170982D01*
X97607086Y-86175219D01*
X97636370Y-86182589D01*
X97665270Y-86191367D01*
X97675110Y-86192340D01*
X97684699Y-86194753D01*
X97714869Y-86196269D01*
X97744917Y-86199239D01*
X97754754Y-86198274D01*
X97764632Y-86198770D01*
X97794522Y-86194371D01*
X97824567Y-86191422D01*
X97834025Y-86188556D01*
X97843812Y-86187116D01*
X97872269Y-86176970D01*
X97901163Y-86168216D01*
X97927497Y-86154152D01*
X100443838Y-84967472D01*
X100559099Y-85183165D01*
X98171613Y-86610524D01*
X98144981Y-86624747D01*
X98121860Y-86643709D01*
X98097850Y-86661474D01*
X98090992Y-86669023D01*
X98083096Y-86675499D01*
X98064120Y-86698605D01*
X98044037Y-86720713D01*
X98038783Y-86729456D01*
X98032302Y-86737348D01*
X98018196Y-86763717D01*
X98002814Y-86789315D01*
X97999367Y-86798914D01*
X97994550Y-86807919D01*
X97985862Y-86836523D01*
X97975766Y-86864640D01*
X97974257Y-86874732D01*
X97971291Y-86884499D01*
X97968350Y-86914254D01*
X97963934Y-86943794D01*
X97964423Y-86953979D01*
X97963418Y-86964144D01*
X97966339Y-86993906D01*
X97967771Y-87023736D01*
X97970239Y-87033634D01*
X97971236Y-87043795D01*
X97979906Y-87072413D01*
X97987131Y-87101392D01*
X97991481Y-87110616D01*
X97994442Y-87120390D01*
X98008525Y-87146760D01*
X98021268Y-87173781D01*
X98039217Y-87198039D01*
X98766797Y-88287755D01*
X98782103Y-88313357D01*
X98802336Y-88335731D01*
X98821510Y-88359111D01*
X98829159Y-88365393D01*
X98835784Y-88372719D01*
X98859994Y-88390716D01*
X98883358Y-88409905D01*
X98892087Y-88414574D01*
X98900013Y-88420467D01*
X98927262Y-88433392D01*
X98953929Y-88447658D01*
X98963406Y-88450536D01*
X98972325Y-88454767D01*
X99001567Y-88462127D01*
X99030509Y-88470917D01*
X99040363Y-88471891D01*
X99049939Y-88474301D01*
X99080065Y-88475815D01*
X99110155Y-88478789D01*
X99120006Y-88477822D01*
X99129871Y-88478318D01*
X99159722Y-88473924D01*
X99189806Y-88470972D01*
X99199275Y-88468103D01*
X99209052Y-88466664D01*
X99237491Y-88456524D01*
X99266401Y-88447765D01*
X99275124Y-88443107D01*
X99284437Y-88439786D01*
X99310355Y-88424291D01*
X99336998Y-88410062D01*
X99360091Y-88391123D01*
X101596563Y-86736338D01*
X101751689Y-86925400D01*
X99688533Y-88791115D01*
X99665196Y-88810254D01*
X99646233Y-88833345D01*
X99626135Y-88855469D01*
X99620876Y-88864221D01*
X99614402Y-88872104D01*
X99600308Y-88898449D01*
X99584913Y-88924070D01*
X99581464Y-88933676D01*
X99576650Y-88942674D01*
X99567968Y-88971260D01*
X99557865Y-88999395D01*
X99556355Y-89009494D01*
X99553391Y-89019254D01*
X99550452Y-89048988D01*
X99546033Y-89078549D01*
X99546522Y-89088741D01*
X99545518Y-89098900D01*
X99548437Y-89128643D01*
X99549870Y-89158490D01*
X99552339Y-89168395D01*
X99553336Y-89178550D01*
X99562001Y-89207150D01*
X99569230Y-89236148D01*
X99573582Y-89245377D01*
X99576542Y-89255146D01*
X99590623Y-89281512D01*
X99603367Y-89308535D01*
X99609436Y-89316737D01*
X99614245Y-89325742D01*
X99633198Y-89348852D01*
X99650971Y-89372873D01*
X99673314Y-89393170D01*
X100599497Y-90319993D01*
X100619507Y-90342121D01*
X100643729Y-90360128D01*
X100667083Y-90379307D01*
X100675803Y-90383972D01*
X100683737Y-90389870D01*
X100711019Y-90402811D01*
X100737653Y-90417059D01*
X100747116Y-90419933D01*
X100756048Y-90424170D01*
X100785334Y-90431541D01*
X100814233Y-90440318D01*
X100824073Y-90441291D01*
X100833662Y-90443704D01*
X100863818Y-90445220D01*
X100893879Y-90448191D01*
X100903722Y-90447225D01*
X100913594Y-90447721D01*
X100943475Y-90443323D01*
X100973530Y-90440373D01*
X100982989Y-90437507D01*
X100992774Y-90436067D01*
X101021229Y-90425922D01*
X101050126Y-90417167D01*
X101058845Y-90412510D01*
X101068161Y-90409189D01*
X101094082Y-90393691D01*
X101120722Y-90379464D01*
X101128371Y-90373191D01*
X101136853Y-90368120D01*
X101159247Y-90347870D01*
X101182607Y-90328712D01*
X101201559Y-90305635D01*
X103072226Y-88246330D01*
X103261255Y-88401496D01*
X101601724Y-90633868D01*
X101582572Y-90657187D01*
X101568477Y-90683536D01*
X101553083Y-90709154D01*
X101549633Y-90718762D01*
X101544820Y-90727759D01*
X101536138Y-90756343D01*
X101526035Y-90784479D01*
X101524526Y-90794576D01*
X101521561Y-90804337D01*
X101518621Y-90834075D01*
X101514203Y-90863634D01*
X101514692Y-90873825D01*
X101513688Y-90883984D01*
X101516607Y-90913727D01*
X101518040Y-90943574D01*
X101520509Y-90953479D01*
X101521506Y-90963634D01*
X101530171Y-90992234D01*
X101537400Y-91021232D01*
X101541752Y-91030461D01*
X101544712Y-91040230D01*
X101558792Y-91066595D01*
X101571537Y-91093620D01*
X101577606Y-91101822D01*
X101582415Y-91110827D01*
X101601369Y-91133938D01*
X101619141Y-91157957D01*
X101626696Y-91164820D01*
X101633167Y-91172710D01*
X101656258Y-91191673D01*
X101678382Y-91211771D01*
X101704254Y-91227318D01*
X102793422Y-91955621D01*
X102817398Y-91973445D01*
X102844698Y-91986394D01*
X102871315Y-92000633D01*
X102880772Y-92003506D01*
X102889710Y-92007745D01*
X102919003Y-92015118D01*
X102947894Y-92023893D01*
X102957732Y-92024865D01*
X102967322Y-92027279D01*
X102997493Y-92028795D01*
X103027540Y-92031765D01*
X103037377Y-92030800D01*
X103047255Y-92031296D01*
X103077144Y-92026897D01*
X103107191Y-92023948D01*
X103116650Y-92021082D01*
X103126435Y-92019642D01*
X103154900Y-92009493D01*
X103183787Y-92000741D01*
X103192503Y-91996086D01*
X103201821Y-91992764D01*
X103227752Y-91977261D01*
X103254384Y-91963038D01*
X103262028Y-91956769D01*
X103270515Y-91951695D01*
X103292922Y-91931432D01*
X103316268Y-91912286D01*
X103322540Y-91904649D01*
X103329876Y-91898015D01*
X103347898Y-91873771D01*
X103367062Y-91850437D01*
X103381150Y-91824103D01*
X104814121Y-89439421D01*
X105029788Y-89554728D01*
X103837654Y-92067971D01*
X103823424Y-92094572D01*
X103814740Y-92123163D01*
X103804640Y-92151293D01*
X103803131Y-92161386D01*
X103800165Y-92171152D01*
X103797225Y-92200892D01*
X103792807Y-92230446D01*
X103793296Y-92240638D01*
X103792292Y-92250797D01*
X103795211Y-92280541D01*
X103796644Y-92310387D01*
X103799113Y-92320291D01*
X103800110Y-92330448D01*
X103808776Y-92359051D01*
X103816004Y-92388045D01*
X103820356Y-92397274D01*
X103823316Y-92407043D01*
X103837396Y-92433408D01*
X103850141Y-92460433D01*
X103856210Y-92468635D01*
X103861019Y-92477640D01*
X103879974Y-92500752D01*
X103897745Y-92524771D01*
X103905298Y-92531632D01*
X103911771Y-92539525D01*
X103934880Y-92558503D01*
X103956986Y-92578584D01*
X103965726Y-92583836D01*
X103973620Y-92590319D01*
X103999990Y-92604426D01*
X104025587Y-92619807D01*
X104053970Y-92629998D01*
X105264366Y-93131852D01*
X105291313Y-93144634D01*
X105320571Y-93151998D01*
X105349497Y-93160783D01*
X105359346Y-93161757D01*
X105368927Y-93164168D01*
X105399060Y-93165682D01*
X105429142Y-93168656D01*
X105438992Y-93167689D01*
X105448858Y-93168185D01*
X105478722Y-93163790D01*
X105508794Y-93160838D01*
X105518258Y-93157971D01*
X105528040Y-93156531D01*
X105556487Y-93146389D01*
X105585389Y-93137632D01*
X105594112Y-93132974D01*
X105603425Y-93129653D01*
X105629341Y-93114159D01*
X105655986Y-93099929D01*
X105663634Y-93093657D01*
X105672119Y-93088584D01*
X105694515Y-93068331D01*
X105717871Y-93049177D01*
X105724147Y-93041535D01*
X105731481Y-93034903D01*
X105749498Y-93010666D01*
X105768665Y-92987328D01*
X105773329Y-92978609D01*
X105779228Y-92970674D01*
X105792175Y-92943380D01*
X105806417Y-92916757D01*
X105815090Y-92888202D01*
X106755306Y-90269760D01*
X106989324Y-90340776D01*
X106310409Y-93038292D01*
X106301639Y-93067168D01*
X106298700Y-93096902D01*
X106294281Y-93126464D01*
X106294770Y-93136661D01*
X106293767Y-93146814D01*
X106296685Y-93176551D01*
X106298118Y-93206404D01*
X106300586Y-93216304D01*
X106301583Y-93226463D01*
X106310251Y-93255072D01*
X106317478Y-93284062D01*
X106321830Y-93293291D01*
X106324790Y-93303060D01*
X106338869Y-93329421D01*
X106351615Y-93356450D01*
X106357685Y-93364654D01*
X106362493Y-93373656D01*
X106381445Y-93396765D01*
X106399219Y-93420787D01*
X106406772Y-93427649D01*
X106413245Y-93435541D01*
X106436336Y-93454504D01*
X106458460Y-93474602D01*
X106467212Y-93479861D01*
X106475095Y-93486335D01*
X106501440Y-93500429D01*
X106527061Y-93515824D01*
X106536667Y-93519273D01*
X106545665Y-93524087D01*
X106574251Y-93532769D01*
X106602386Y-93542872D01*
X106632248Y-93547336D01*
X107917228Y-93803396D01*
X107946181Y-93810683D01*
X107976345Y-93812199D01*
X108006397Y-93815169D01*
X108016235Y-93814204D01*
X108026113Y-93814700D01*
X108055992Y-93810302D01*
X108086047Y-93807353D01*
X108095510Y-93804486D01*
X108105293Y-93803046D01*
X108133750Y-93792900D01*
X108162643Y-93784146D01*
X108171360Y-93779491D01*
X108180679Y-93776168D01*
X108206611Y-93760665D01*
X108233240Y-93746443D01*
X108240883Y-93740175D01*
X108249373Y-93735099D01*
X108271792Y-93714826D01*
X108295124Y-93695691D01*
X108301391Y-93688060D01*
X108308735Y-93681419D01*
X108326775Y-93657152D01*
X108345919Y-93633841D01*
X108350579Y-93625130D01*
X108356483Y-93617188D01*
X108369436Y-93589880D01*
X108383671Y-93563271D01*
X108386542Y-93553817D01*
X108390783Y-93544877D01*
X108398160Y-93515567D01*
X108406930Y-93486691D01*
X108409865Y-93456995D01*
X108821182Y-90705437D01*
X109064560Y-90729434D01*
X108924946Y-93507599D01*
X108921981Y-93537601D01*
X108924898Y-93567320D01*
X108926332Y-93597192D01*
X108928802Y-93607099D01*
X108929798Y-93617251D01*
X108938456Y-93645827D01*
X108945690Y-93674848D01*
X108950048Y-93684089D01*
X108953004Y-93693846D01*
X108967070Y-93720184D01*
X108979828Y-93747237D01*
X108985902Y-93755446D01*
X108990707Y-93764443D01*
X109009648Y-93787539D01*
X109027432Y-93811574D01*
X109034989Y-93818439D01*
X109041459Y-93826328D01*
X109064550Y-93845292D01*
X109086673Y-93865388D01*
X109095422Y-93870645D01*
X109103308Y-93877122D01*
X109129652Y-93891215D01*
X109155274Y-93906612D01*
X109164881Y-93910062D01*
X109173879Y-93914875D01*
X109202477Y-93923560D01*
X109230599Y-93933658D01*
X109240691Y-93935167D01*
X109250458Y-93938133D01*
X109280201Y-93941073D01*
X109309754Y-93945491D01*
X109339888Y-93944044D01*
X110650158Y-93944496D01*
X110679974Y-93945994D01*
X110709845Y-93941598D01*
X110739910Y-93938647D01*
X110749375Y-93935779D01*
X110759155Y-93934340D01*
X110787603Y-93924197D01*
X110816505Y-93915441D01*
X110825225Y-93910784D01*
X110834540Y-93907463D01*
X110860463Y-93891965D01*
X110887102Y-93877738D01*
X110894748Y-93871467D01*
X110903234Y-93866394D01*
X110925632Y-93846139D01*
X110948987Y-93826986D01*
X110955262Y-93819345D01*
X110962596Y-93812713D01*
X110980613Y-93788477D01*
X110999781Y-93765137D01*
X111004445Y-93756418D01*
X111010344Y-93748483D01*
X111023286Y-93721198D01*
X111037533Y-93694566D01*
X111040407Y-93685104D01*
X111044644Y-93676171D01*
X111052014Y-93646887D01*
X111060792Y-93617987D01*
X111061765Y-93608147D01*
X111064178Y-93598558D01*
X111065694Y-93568386D01*
X111068664Y-93538340D01*
X111065748Y-93508631D01*
X110932360Y-90729711D01*
X111175743Y-90705767D01*
X111580805Y-93457788D01*
X111583749Y-93487790D01*
X111592407Y-93516368D01*
X111599642Y-93545388D01*
X111603997Y-93554623D01*
X111606955Y-93564386D01*
X111621025Y-93590731D01*
X111633779Y-93617776D01*
X111639853Y-93625986D01*
X111644658Y-93634982D01*
X111663595Y-93658073D01*
X111681383Y-93682114D01*
X111688943Y-93688982D01*
X111695410Y-93696867D01*
X111718490Y-93715821D01*
X111740624Y-93735928D01*
X111749376Y-93741187D01*
X111757259Y-93747661D01*
X111783601Y-93761753D01*
X111809225Y-93777150D01*
X111818833Y-93780600D01*
X111827830Y-93785413D01*
X111856416Y-93794096D01*
X111884550Y-93804198D01*
X111894645Y-93805707D01*
X111904410Y-93808673D01*
X111934147Y-93811612D01*
X111963704Y-93816030D01*
X111973901Y-93815541D01*
X111984055Y-93816544D01*
X112013786Y-93813626D01*
X112043646Y-93812193D01*
X112072937Y-93804891D01*
X113358092Y-93549719D01*
X113387636Y-93545371D01*
X113416081Y-93535229D01*
X113444988Y-93526471D01*
X113453712Y-93521812D01*
X113463023Y-93518492D01*
X113488944Y-93502996D01*
X113515584Y-93488768D01*
X113523227Y-93482500D01*
X113531716Y-93477425D01*
X113554126Y-93457159D01*
X113577469Y-93438016D01*
X113583742Y-93430378D01*
X113591078Y-93423744D01*
X113609095Y-93399508D01*
X113628263Y-93376168D01*
X113632929Y-93367446D01*
X113638826Y-93359513D01*
X113651766Y-93332234D01*
X113666015Y-93305597D01*
X113668889Y-93296134D01*
X113673126Y-93287202D01*
X113680497Y-93257916D01*
X113689274Y-93229017D01*
X113690247Y-93219177D01*
X113692660Y-93209588D01*
X113694176Y-93179420D01*
X113697146Y-93149372D01*
X113696181Y-93139535D01*
X113696677Y-93129656D01*
X113692278Y-93099766D01*
X113689329Y-93069720D01*
X113680673Y-93041148D01*
X113007707Y-90341648D01*
X113241743Y-90270682D01*
X114175913Y-92890797D01*
X114184655Y-92919651D01*
X114198723Y-92945992D01*
X114211480Y-92973042D01*
X114217554Y-92981251D01*
X114222359Y-92990248D01*
X114241301Y-93013346D01*
X114259083Y-93037379D01*
X114266637Y-93044241D01*
X114273109Y-93052133D01*
X114296207Y-93071102D01*
X114318324Y-93091193D01*
X114327072Y-93096450D01*
X114334959Y-93102927D01*
X114361307Y-93117022D01*
X114386925Y-93132416D01*
X114396532Y-93135866D01*
X114405530Y-93140679D01*
X114434121Y-93149363D01*
X114462250Y-93159463D01*
X114472345Y-93160972D01*
X114482110Y-93163938D01*
X114511850Y-93166878D01*
X114541405Y-93171296D01*
X114551596Y-93170807D01*
X114561756Y-93171811D01*
X114591511Y-93168890D01*
X114621346Y-93167458D01*
X114631245Y-93164990D01*
X114641405Y-93163993D01*
X114670013Y-93155326D01*
X114699004Y-93148099D01*
X114726290Y-93135231D01*
X115936991Y-92634232D01*
X115965115Y-92624205D01*
X115991032Y-92608710D01*
X116017677Y-92594480D01*
X116025324Y-92588209D01*
X116033809Y-92583136D01*
X116056199Y-92562889D01*
X116079561Y-92543730D01*
X116085840Y-92536085D01*
X116093170Y-92529456D01*
X116111179Y-92505231D01*
X116130356Y-92481880D01*
X116135022Y-92473157D01*
X116140919Y-92465225D01*
X116153859Y-92437946D01*
X116168108Y-92411309D01*
X116170982Y-92401846D01*
X116175219Y-92392914D01*
X116182589Y-92363630D01*
X116191367Y-92334730D01*
X116192340Y-92324890D01*
X116194753Y-92315301D01*
X116196269Y-92285131D01*
X116199239Y-92255083D01*
X116198274Y-92245246D01*
X116198770Y-92235367D01*
X116194370Y-92205475D01*
X116191422Y-92175433D01*
X116188557Y-92165976D01*
X116187116Y-92156187D01*
X116176968Y-92127724D01*
X116168216Y-92098837D01*
X116154156Y-92072511D01*
X114967471Y-89556162D01*
X115183165Y-89440901D01*
X116610532Y-91828403D01*
X116624747Y-91855019D01*
X116643699Y-91878128D01*
X116661473Y-91902150D01*
X116669026Y-91909012D01*
X116675499Y-91916904D01*
X116698594Y-91935871D01*
X116720713Y-91955964D01*
X116729461Y-91961221D01*
X116737348Y-91967698D01*
X116763696Y-91981793D01*
X116789314Y-91997187D01*
X116798921Y-92000637D01*
X116807919Y-92005450D01*
X116836510Y-92014134D01*
X116864639Y-92024234D01*
X116874733Y-92025743D01*
X116884499Y-92028709D01*
X116914252Y-92031650D01*
X116943794Y-92036066D01*
X116953979Y-92035577D01*
X116964144Y-92036582D01*
X116993906Y-92033661D01*
X117023736Y-92032229D01*
X117033635Y-92029761D01*
X117043795Y-92028764D01*
X117072401Y-92020097D01*
X117101392Y-92012870D01*
X117110621Y-92008518D01*
X117120390Y-92005558D01*
X117146754Y-91991478D01*
X117173781Y-91978732D01*
X117198045Y-91960779D01*
X118287755Y-91233203D01*
X118313357Y-91217897D01*
X118335731Y-91197664D01*
X118359111Y-91178490D01*
X118365393Y-91170841D01*
X118372719Y-91164216D01*
X118390716Y-91140006D01*
X118409905Y-91116642D01*
X118414574Y-91107913D01*
X118420467Y-91099987D01*
X118433392Y-91072738D01*
X118447658Y-91046071D01*
X118450536Y-91036594D01*
X118454767Y-91027675D01*
X118462127Y-90998433D01*
X118470917Y-90969491D01*
X118471891Y-90959637D01*
X118474301Y-90950061D01*
X118475815Y-90919935D01*
X118478789Y-90889845D01*
X118477822Y-90879994D01*
X118478318Y-90870128D01*
X118473924Y-90840275D01*
X118470972Y-90810194D01*
X118468103Y-90800726D01*
X118466664Y-90790947D01*
X118456522Y-90762502D01*
X118447765Y-90733599D01*
X118443108Y-90724878D01*
X118439786Y-90715562D01*
X118424286Y-90689635D01*
X118410062Y-90663002D01*
X118391130Y-90639918D01*
X116736337Y-88403438D01*
X116925400Y-88248311D01*
X118791125Y-90311479D01*
X118810254Y-90334804D01*
X118833340Y-90353763D01*
X118855468Y-90373864D01*
X118864220Y-90379123D01*
X118872104Y-90385598D01*
X118898440Y-90399687D01*
X118924068Y-90415087D01*
X118933679Y-90418538D01*
X118942674Y-90423350D01*
X118971251Y-90432030D01*
X118999394Y-90442135D01*
X119009495Y-90443645D01*
X119019254Y-90446609D01*
X119048985Y-90449548D01*
X119078548Y-90453967D01*
X119088741Y-90453478D01*
X119098900Y-90454482D01*
X119128643Y-90451563D01*
X119158490Y-90450130D01*
X119168395Y-90447661D01*
X119178550Y-90446664D01*
X119207150Y-90437999D01*
X119236148Y-90430770D01*
X119245377Y-90426418D01*
X119255146Y-90423458D01*
X119281512Y-90409377D01*
X119308535Y-90396633D01*
X119316737Y-90390564D01*
X119325742Y-90385755D01*
X119348852Y-90366802D01*
X119372873Y-90349029D01*
X119393166Y-90326690D01*
X120319993Y-89400503D01*
X120342121Y-89380493D01*
X120360125Y-89356274D01*
X120379307Y-89332917D01*
X120383974Y-89324194D01*
X120389870Y-89316262D01*
X120402808Y-89288986D01*
X120417059Y-89262347D01*
X120419933Y-89252884D01*
X120424170Y-89243952D01*
X120431541Y-89214666D01*
X120440318Y-89185767D01*
X120441291Y-89175927D01*
X120443704Y-89166338D01*
X120445219Y-89136182D01*
X120448191Y-89106121D01*
X120447225Y-89096278D01*
X120447721Y-89086405D01*
X120443323Y-89056528D01*
X120440373Y-89026470D01*
X120437506Y-89017007D01*
X120436066Y-89007224D01*
X120425924Y-88978778D01*
X120417167Y-88949874D01*
X120412509Y-88941152D01*
X120409188Y-88931838D01*
X120393690Y-88905915D01*
X120379464Y-88879278D01*
X120373195Y-88871634D01*
X120368120Y-88863145D01*
X120347856Y-88840737D01*
X120328712Y-88817393D01*
X120305646Y-88798450D01*
X118246329Y-86927775D01*
X118401497Y-86738744D01*
X120633877Y-88398284D01*
X120657187Y-88417428D01*
X120683532Y-88431521D01*
X120709154Y-88446917D01*
X120718762Y-88450367D01*
X120727759Y-88455180D01*
X120756339Y-88463861D01*
X120784478Y-88473965D01*
X120794577Y-88475475D01*
X120804337Y-88478439D01*
X120834072Y-88481378D01*
X120863633Y-88485797D01*
X120873825Y-88485308D01*
X120883984Y-88486312D01*
X120913726Y-88483393D01*
X120943575Y-88481960D01*
X120953481Y-88479491D01*
X120963634Y-88478494D01*
X120992221Y-88469833D01*
X121021232Y-88462601D01*
X121030467Y-88458246D01*
X121040230Y-88455288D01*
X121066589Y-88441211D01*
X121093620Y-88428463D01*
X121101822Y-88422394D01*
X121110827Y-88417585D01*
X121133938Y-88398631D01*
X121157957Y-88380859D01*
X121164821Y-88373303D01*
X121172710Y-88366833D01*
X121191668Y-88343749D01*
X121211772Y-88321618D01*
X121227324Y-88295737D01*
X121955621Y-87206578D01*
X121973445Y-87182602D01*
X121986394Y-87155302D01*
X122000633Y-87128685D01*
X122003506Y-87119228D01*
X122007745Y-87110290D01*
X122015118Y-87080997D01*
X122023893Y-87052106D01*
X122024865Y-87042268D01*
X122027279Y-87032678D01*
X122028795Y-87002507D01*
X122031765Y-86972460D01*
X122030800Y-86962623D01*
X122031296Y-86952744D01*
X122026897Y-86922853D01*
X122023948Y-86892809D01*
X122021083Y-86883351D01*
X122019642Y-86873564D01*
X122009491Y-86845094D01*
X122000741Y-86816213D01*
X121996087Y-86807499D01*
X121992764Y-86798178D01*
X121977256Y-86772239D01*
X121963038Y-86745616D01*
X121956771Y-86737974D01*
X121951695Y-86729484D01*
X121931424Y-86707067D01*
X121912286Y-86683732D01*
X121904652Y-86677463D01*
X121898015Y-86670123D01*
X121873758Y-86652091D01*
X121850437Y-86632938D01*
X121824118Y-86618858D01*
X119439421Y-85185880D01*
X119554728Y-84970211D01*
X122067979Y-86162350D01*
X122094572Y-86176576D01*
X122123147Y-86185255D01*
X122151292Y-86195361D01*
X122161393Y-86196871D01*
X122171152Y-86199835D01*
X122200882Y-86202774D01*
X122230445Y-86207193D01*
X122240638Y-86206704D01*
X122250797Y-86207708D01*
X122280540Y-86204789D01*
X122310388Y-86203356D01*
X122320293Y-86200887D01*
X122330448Y-86199890D01*
X122359037Y-86191228D01*
X122388045Y-86183997D01*
X122397279Y-86179642D01*
X122407043Y-86176684D01*
X122433402Y-86162607D01*
X122460433Y-86149859D01*
X122468635Y-86143790D01*
X122477640Y-86138981D01*
X122500752Y-86120026D01*
X122524771Y-86102255D01*
X122531632Y-86094702D01*
X122539525Y-86088229D01*
X122558498Y-86065127D01*
X122578584Y-86043015D01*
X122583838Y-86034271D01*
X122590319Y-86026380D01*
X122604419Y-86000023D01*
X122619808Y-85974413D01*
X122630007Y-85946010D01*
X123131852Y-84735634D01*
X123144634Y-84708687D01*
X123151998Y-84679429D01*
X123160783Y-84650503D01*
X123161757Y-84640654D01*
X123164168Y-84631073D01*
X123165682Y-84600940D01*
X123168656Y-84570858D01*
X123167689Y-84561008D01*
X123168185Y-84551141D01*
X123163789Y-84521275D01*
X123160838Y-84491206D01*
X123157971Y-84481743D01*
X123156531Y-84471959D01*
X123146387Y-84443507D01*
X123137632Y-84414611D01*
X123132975Y-84405890D01*
X123129653Y-84396574D01*
X123114154Y-84370650D01*
X123099929Y-84344014D01*
X123093659Y-84336368D01*
X123088584Y-84327880D01*
X123068322Y-84305474D01*
X123049177Y-84282129D01*
X123041539Y-84275856D01*
X123034903Y-84268518D01*
X123010657Y-84250494D01*
X122987328Y-84231335D01*
X122978611Y-84226672D01*
X122970673Y-84220771D01*
X122943367Y-84207818D01*
X122916757Y-84193583D01*
X122888220Y-84184916D01*
X120269760Y-83244694D01*
X120340776Y-83010675D01*
X123038292Y-83689591D01*
X123067168Y-83698361D01*
X123096901Y-83701300D01*
X123126463Y-83705719D01*
X123136661Y-83705230D01*
X123146814Y-83706233D01*
X123176551Y-83703315D01*
X123206405Y-83701882D01*
X123216307Y-83699414D01*
X123226463Y-83698417D01*
X123255059Y-83689753D01*
X123284062Y-83682523D01*
X123293296Y-83678168D01*
X123303060Y-83675210D01*
X123329415Y-83661134D01*
X123356450Y-83648385D01*
X123364655Y-83642314D01*
X123373656Y-83637507D01*
X123396759Y-83618560D01*
X123420788Y-83600781D01*
X123427652Y-83593225D01*
X123435541Y-83586755D01*
X123454501Y-83563668D01*
X123474602Y-83541540D01*
X123479861Y-83532788D01*
X123486335Y-83524905D01*
X123500425Y-83498566D01*
X123515824Y-83472940D01*
X123519274Y-83463332D01*
X123524087Y-83454335D01*
X123532768Y-83425751D01*
X123542872Y-83397614D01*
X123547336Y-83367752D01*
X123803397Y-82082765D01*
X123810683Y-82053819D01*
X123812198Y-82023663D01*
X123815169Y-81993603D01*
X123814203Y-81983759D01*
X123814699Y-81973886D01*
X123810304Y-81944025D01*
X123807353Y-81913953D01*
X123804484Y-81904484D01*
X123803045Y-81894706D01*
X123792904Y-81866262D01*
X123784146Y-81837357D01*
X123779489Y-81828636D01*
X123776167Y-81819320D01*
X123760665Y-81793390D01*
X123746443Y-81766760D01*
X123740176Y-81759119D01*
X123735099Y-81750626D01*
X123714821Y-81728202D01*
X123695691Y-81704876D01*
X123688060Y-81698609D01*
X123681418Y-81691264D01*
X123657145Y-81673220D01*
X123633841Y-81654081D01*
X123625135Y-81649423D01*
X123617188Y-81643516D01*
X123589864Y-81630555D01*
X123563271Y-81616329D01*
X123553823Y-81613459D01*
X123544877Y-81609216D01*
X123515550Y-81601835D01*
X123486691Y-81593070D01*
X123457011Y-81590137D01*
X120705437Y-81178818D01*
X120729434Y-80935440D01*
X123507600Y-81075054D01*
X123537601Y-81078019D01*
X123567320Y-81075102D01*
X123597192Y-81073668D01*
X123607099Y-81071198D01*
X123617251Y-81070202D01*
X123645827Y-81061544D01*
X123674848Y-81054310D01*
X123684089Y-81049952D01*
X123693846Y-81046996D01*
X123720184Y-81032930D01*
X123747237Y-81020172D01*
X123755446Y-81014098D01*
X123764443Y-81009293D01*
X123787539Y-80990352D01*
X123811574Y-80972568D01*
X123818439Y-80965011D01*
X123826328Y-80958541D01*
X123845292Y-80935450D01*
X123865388Y-80913327D01*
X123870645Y-80904579D01*
X123877122Y-80896692D01*
X123891220Y-80870339D01*
X123906611Y-80844726D01*
X123910059Y-80835124D01*
X123914875Y-80826121D01*
X123923563Y-80797517D01*
X123933658Y-80769401D01*
X123935167Y-80759309D01*
X123938133Y-80749542D01*
X123941073Y-80719799D01*
X123945491Y-80690246D01*
X123944044Y-80660111D01*
X123944496Y-79349842D01*
X123945994Y-79320026D01*
X123941598Y-79290155D01*
X123938647Y-79260090D01*
X123935779Y-79250625D01*
X123934340Y-79240845D01*
X123924197Y-79212397D01*
X123915441Y-79183495D01*
X123910784Y-79174775D01*
X123907463Y-79165460D01*
X123891965Y-79139537D01*
X123877738Y-79112898D01*
X123871467Y-79105252D01*
X123866394Y-79096766D01*
X123846139Y-79074368D01*
X123826986Y-79051013D01*
X123819345Y-79044738D01*
X123812713Y-79037404D01*
X123788477Y-79019387D01*
X123765137Y-79000219D01*
X123756418Y-78995555D01*
X123748483Y-78989656D01*
X123721198Y-78976714D01*
X123694566Y-78962467D01*
X123685104Y-78959593D01*
X123676171Y-78955356D01*
X123646887Y-78947986D01*
X123617987Y-78939208D01*
X123608147Y-78938235D01*
X123598558Y-78935822D01*
X123568386Y-78934306D01*
X123538340Y-78931336D01*
X123508631Y-78934252D01*
X120729712Y-79067640D01*
X120705767Y-78824257D01*
X123457789Y-78419195D01*
X123487790Y-78416251D01*
X123516368Y-78407593D01*
X123545388Y-78400358D01*
X123554623Y-78396003D01*
X123564386Y-78393045D01*
X123590731Y-78378975D01*
X123617776Y-78366221D01*
X123625986Y-78360147D01*
X123634982Y-78355342D01*
X123658073Y-78336405D01*
X123682114Y-78318617D01*
X123688982Y-78311057D01*
X123696867Y-78304590D01*
X123715821Y-78281510D01*
X123735928Y-78259376D01*
X123741187Y-78250624D01*
X123747661Y-78242741D01*
X123761753Y-78216399D01*
X123777150Y-78190775D01*
X123780600Y-78181167D01*
X123785413Y-78172170D01*
X123794096Y-78143584D01*
X123804198Y-78115450D01*
X123805707Y-78105355D01*
X123808673Y-78095590D01*
X123811612Y-78065853D01*
X123816030Y-78036296D01*
X123815541Y-78026099D01*
X123816544Y-78015945D01*
X123813626Y-77986213D01*
X123812193Y-77956354D01*
X123804892Y-77927067D01*
X123549719Y-76641908D01*
X123545371Y-76612364D01*
X123535229Y-76583919D01*
X123526471Y-76555012D01*
X123521812Y-76546288D01*
X123518492Y-76536977D01*
X123502996Y-76511056D01*
X123488768Y-76484416D01*
X123482500Y-76476773D01*
X123477425Y-76468284D01*
X123457159Y-76445874D01*
X123438016Y-76422531D01*
X123430379Y-76416259D01*
X123423744Y-76408922D01*
X123399501Y-76390900D01*
X123376167Y-76371737D01*
X123367448Y-76367073D01*
X123359513Y-76361174D01*
X123332225Y-76348230D01*
X123305596Y-76333985D01*
X123296136Y-76331112D01*
X123287202Y-76326874D01*
X123257922Y-76319505D01*
X123229016Y-76310725D01*
X123219172Y-76309752D01*
X123209588Y-76307340D01*
X123179426Y-76305824D01*
X123149371Y-76302854D01*
X123139534Y-76303819D01*
X123129656Y-76303323D01*
X123099767Y-76307722D01*
X123069720Y-76310671D01*
X123041148Y-76319327D01*
X119947331Y-77090593D01*
X119890827Y-77110739D01*
X119822134Y-77151806D01*
X119762772Y-77205488D01*
X119715024Y-77269718D01*
X119680724Y-77342029D01*
X119661190Y-77419643D01*
X119657173Y-77499574D01*
X119668827Y-77578755D01*
X119695706Y-77654142D01*
X119736773Y-77722835D01*
X119790455Y-77782197D01*
X119854685Y-77829945D01*
X119926996Y-77864245D01*
X120004610Y-77883779D01*
X120084541Y-77887796D01*
X120143890Y-77879061D01*
X122833756Y-77208498D01*
X122926585Y-77676026D01*
X120233778Y-78072373D01*
X120223533Y-78072372D01*
X120194298Y-78078184D01*
X120184604Y-78079611D01*
X120174695Y-78082081D01*
X120145035Y-78087978D01*
X120135946Y-78091742D01*
X120126398Y-78094122D01*
X120099037Y-78107025D01*
X120071091Y-78118597D01*
X120062911Y-78124061D01*
X120054010Y-78128259D01*
X120029686Y-78146257D01*
X120004540Y-78163055D01*
X119997584Y-78170010D01*
X119989673Y-78175863D01*
X119969336Y-78198251D01*
X119947941Y-78219641D01*
X119942472Y-78227824D01*
X119935859Y-78235104D01*
X119920281Y-78261028D01*
X119903470Y-78286182D01*
X119899704Y-78295271D01*
X119894636Y-78303705D01*
X119884411Y-78332181D01*
X119872834Y-78360121D01*
X119870914Y-78369767D01*
X119867588Y-78379030D01*
X119863115Y-78408956D01*
X119857212Y-78438614D01*
X119857211Y-78448451D01*
X119855756Y-78458184D01*
X119857206Y-78488398D01*
X119857205Y-78498601D01*
X119858164Y-78508344D01*
X119859593Y-78538125D01*
X119862072Y-78548068D01*
X119955899Y-79501753D01*
X119955405Y-79511574D01*
X119959807Y-79541480D01*
X119960806Y-79551634D01*
X119962715Y-79561237D01*
X119967060Y-79590755D01*
X119970504Y-79600413D01*
X119972503Y-79610471D01*
X119983916Y-79638034D01*
X119993937Y-79666140D01*
X119999200Y-79674942D01*
X120003122Y-79684415D01*
X120019693Y-79709221D01*
X120035006Y-79734834D01*
X120041885Y-79742441D01*
X120047580Y-79750966D01*
X120068672Y-79772063D01*
X120088687Y-79794196D01*
X120096916Y-79800313D01*
X120104166Y-79807565D01*
X120128971Y-79824143D01*
X120152917Y-79841944D01*
X120162183Y-79846339D01*
X120170707Y-79852036D01*
X120198266Y-79863455D01*
X120225228Y-79876244D01*
X120235173Y-79878747D01*
X120244646Y-79882672D01*
X120273906Y-79888496D01*
X120302841Y-79895778D01*
X120313083Y-79896293D01*
X120323138Y-79898294D01*
X120352970Y-79898297D01*
X120362753Y-79898789D01*
X120372949Y-79898300D01*
X120403173Y-79898303D01*
X120412815Y-79896386D01*
X123131753Y-79765877D01*
X123131589Y-80242533D01*
X120413211Y-80105924D01*
X120403151Y-80103922D01*
X120373309Y-80103919D01*
X120363558Y-80103429D01*
X120353394Y-80103917D01*
X120323116Y-80103914D01*
X120313454Y-80105835D01*
X120303640Y-80106306D01*
X120274324Y-80113614D01*
X120244620Y-80119519D01*
X120235522Y-80123286D01*
X120225984Y-80125664D01*
X120198644Y-80138557D01*
X120170675Y-80150139D01*
X120162488Y-80155608D01*
X120153595Y-80159802D01*
X120129297Y-80177781D01*
X120104125Y-80194596D01*
X120097161Y-80201558D01*
X120089258Y-80207406D01*
X120068935Y-80229779D01*
X120047526Y-80251183D01*
X120042054Y-80259370D01*
X120035444Y-80266647D01*
X120019874Y-80292558D01*
X120003054Y-80317724D01*
X119999287Y-80326817D01*
X119994220Y-80335248D01*
X119984001Y-80363709D01*
X119972419Y-80391662D01*
X119970498Y-80401317D01*
X119967174Y-80410573D01*
X119962703Y-80440484D01*
X119960710Y-80450496D01*
X119959749Y-80460239D01*
X119955341Y-80489728D01*
X119955832Y-80499964D01*
X119861802Y-81453626D01*
X119859402Y-81463163D01*
X119857884Y-81493363D01*
X119856884Y-81503508D01*
X119856883Y-81513290D01*
X119855385Y-81543095D01*
X119856878Y-81553240D01*
X119856877Y-81563495D01*
X119862695Y-81592761D01*
X119867039Y-81622275D01*
X119870482Y-81631932D01*
X119872482Y-81641992D01*
X119883899Y-81669564D01*
X119893917Y-81697661D01*
X119899178Y-81706461D01*
X119903102Y-81715937D01*
X119919677Y-81740748D01*
X119934986Y-81766355D01*
X119941865Y-81773962D01*
X119947560Y-81782487D01*
X119968646Y-81803577D01*
X119988666Y-81825717D01*
X119996899Y-81831837D01*
X120004146Y-81839086D01*
X120028953Y-81855665D01*
X120052897Y-81873465D01*
X120062159Y-81877858D01*
X120070687Y-81883558D01*
X120098259Y-81894982D01*
X120125208Y-81907765D01*
X120135150Y-81910267D01*
X120144625Y-81914193D01*
X120173890Y-81920017D01*
X120183381Y-81922406D01*
X120193471Y-81923914D01*
X120223120Y-81929815D01*
X120232952Y-81929816D01*
X122925106Y-82332253D01*
X122831954Y-82799718D01*
X120192450Y-82135404D01*
X120182983Y-82131481D01*
X120153741Y-82125661D01*
X120144248Y-82123272D01*
X120134156Y-82121763D01*
X120104489Y-82115859D01*
X120094651Y-82115858D01*
X120084919Y-82114403D01*
X120054701Y-82115853D01*
X120024455Y-82115850D01*
X120014805Y-82117768D01*
X120004979Y-82118240D01*
X119975640Y-82125554D01*
X119945957Y-82131455D01*
X119936860Y-82135222D01*
X119927321Y-82137600D01*
X119899978Y-82150495D01*
X119872012Y-82162075D01*
X119863827Y-82167543D01*
X119854933Y-82171737D01*
X119830630Y-82189719D01*
X119805462Y-82206532D01*
X119798500Y-82213493D01*
X119790596Y-82219341D01*
X119770263Y-82241725D01*
X119748864Y-82263119D01*
X119743398Y-82271298D01*
X119736781Y-82278582D01*
X119721198Y-82304516D01*
X119704393Y-82329660D01*
X119700627Y-82338748D01*
X119695559Y-82347183D01*
X119685332Y-82375665D01*
X119681431Y-82385079D01*
X119678593Y-82394431D01*
X119668511Y-82422508D01*
X119666995Y-82432650D01*
X119388722Y-83349638D01*
X119384508Y-83358522D01*
X119377130Y-83387838D01*
X119374167Y-83397601D01*
X119372257Y-83407200D01*
X119364974Y-83436136D01*
X119364459Y-83446380D01*
X119362458Y-83456435D01*
X119362455Y-83486267D01*
X119360957Y-83516067D01*
X119362450Y-83526212D01*
X119362449Y-83536467D01*
X119368267Y-83565731D01*
X119372611Y-83595249D01*
X119376055Y-83604907D01*
X119378054Y-83614965D01*
X119389470Y-83642535D01*
X119399489Y-83670634D01*
X119404750Y-83679434D01*
X119408674Y-83688910D01*
X119425249Y-83713721D01*
X119440558Y-83739328D01*
X119447437Y-83746935D01*
X119453132Y-83755460D01*
X119474224Y-83776557D01*
X119494239Y-83798690D01*
X119502468Y-83804807D01*
X119509718Y-83812059D01*
X119534526Y-83828639D01*
X119558468Y-83846437D01*
X119567733Y-83850832D01*
X119576259Y-83856530D01*
X119603816Y-83867948D01*
X119612668Y-83872147D01*
X119622280Y-83875599D01*
X119650198Y-83887166D01*
X119659838Y-83889085D01*
X122221754Y-84809004D01*
X122039194Y-85249312D01*
X119580009Y-84082821D01*
X119571490Y-84077127D01*
X119543944Y-84065714D01*
X119535099Y-84061518D01*
X119525500Y-84058071D01*
X119497551Y-84046491D01*
X119487896Y-84044569D01*
X119478640Y-84041246D01*
X119448731Y-84036775D01*
X119419057Y-84030869D01*
X119409219Y-84030868D01*
X119399487Y-84029413D01*
X119369269Y-84030863D01*
X119339023Y-84030860D01*
X119329374Y-84032778D01*
X119319546Y-84033250D01*
X119290191Y-84040568D01*
X119260525Y-84046466D01*
X119251435Y-84050230D01*
X119241888Y-84052610D01*
X119214531Y-84065511D01*
X119186580Y-84077085D01*
X119178398Y-84082551D01*
X119169500Y-84086747D01*
X119145181Y-84104741D01*
X119120029Y-84121543D01*
X119113073Y-84128498D01*
X119105162Y-84134351D01*
X119084817Y-84156748D01*
X119063432Y-84178129D01*
X119057966Y-84186307D01*
X119051349Y-84193592D01*
X119035764Y-84219527D01*
X119030099Y-84228004D01*
X119025488Y-84236629D01*
X119010126Y-84262193D01*
X119006662Y-84271840D01*
X118554838Y-85116925D01*
X118548972Y-85124816D01*
X118536019Y-85152124D01*
X118531206Y-85161126D01*
X118527457Y-85170175D01*
X118514672Y-85197128D01*
X118512170Y-85207071D01*
X118508244Y-85216545D01*
X118502420Y-85245806D01*
X118495138Y-85274740D01*
X118494623Y-85284983D01*
X118492622Y-85295038D01*
X118492619Y-85324872D01*
X118491121Y-85354673D01*
X118492614Y-85364818D01*
X118492613Y-85375072D01*
X118498431Y-85404337D01*
X118502775Y-85433853D01*
X118506218Y-85443510D01*
X118508218Y-85453570D01*
X118519635Y-85481142D01*
X118529653Y-85509239D01*
X118534914Y-85518039D01*
X118538838Y-85527515D01*
X118555415Y-85552330D01*
X118570722Y-85577933D01*
X118577599Y-85585537D01*
X118583296Y-85594066D01*
X118604390Y-85615164D01*
X118624402Y-85637294D01*
X118632634Y-85643414D01*
X118639882Y-85650663D01*
X118664683Y-85667239D01*
X118672545Y-85673083D01*
X118681295Y-85678341D01*
X118706423Y-85695135D01*
X118715506Y-85698898D01*
X121048725Y-87100945D01*
X120783774Y-87497178D01*
X118599405Y-85873331D01*
X118592168Y-85866092D01*
X118567405Y-85849542D01*
X118559522Y-85843682D01*
X118550747Y-85838409D01*
X118525626Y-85821620D01*
X118516545Y-85817857D01*
X118508104Y-85812785D01*
X118479612Y-85802554D01*
X118451689Y-85790984D01*
X118442047Y-85789065D01*
X118432779Y-85785737D01*
X118402833Y-85781261D01*
X118373194Y-85775362D01*
X118363364Y-85775361D01*
X118353624Y-85773905D01*
X118323386Y-85775356D01*
X118293160Y-85775353D01*
X118283517Y-85777270D01*
X118273684Y-85777742D01*
X118244313Y-85785064D01*
X118214662Y-85790959D01*
X118205577Y-85794721D01*
X118196026Y-85797102D01*
X118168659Y-85810008D01*
X118140717Y-85821578D01*
X118132538Y-85827042D01*
X118123638Y-85831239D01*
X118099313Y-85849238D01*
X118074167Y-85866036D01*
X118067212Y-85872990D01*
X118059301Y-85878843D01*
X118038958Y-85901237D01*
X118031745Y-85908449D01*
X118025535Y-85916014D01*
X118005487Y-85938084D01*
X118000209Y-85946867D01*
X117392193Y-86687575D01*
X117384904Y-86694166D01*
X117366875Y-86718417D01*
X117360395Y-86726312D01*
X117354952Y-86734456D01*
X117337155Y-86758396D01*
X117332760Y-86767662D01*
X117327063Y-86776186D01*
X117315643Y-86803747D01*
X117302855Y-86830707D01*
X117300353Y-86840650D01*
X117296427Y-86850124D01*
X117290603Y-86879388D01*
X117283321Y-86908321D01*
X117282806Y-86918563D01*
X117280805Y-86928619D01*
X117280802Y-86958452D01*
X117279304Y-86988253D01*
X117280797Y-86998398D01*
X117280796Y-87008652D01*
X117286614Y-87037915D01*
X117290958Y-87067433D01*
X117294402Y-87077092D01*
X117296401Y-87087149D01*
X117307815Y-87114714D01*
X117317836Y-87142820D01*
X117323098Y-87151621D01*
X117327021Y-87161095D01*
X117343601Y-87185914D01*
X117358905Y-87211512D01*
X117365778Y-87219113D01*
X117371478Y-87227645D01*
X117392579Y-87248750D01*
X117399140Y-87256006D01*
X117406689Y-87262864D01*
X117428065Y-87284244D01*
X117436240Y-87289708D01*
X119451101Y-89120002D01*
X119113939Y-89456932D01*
X117288350Y-87438149D01*
X117282655Y-87429623D01*
X117261565Y-87408529D01*
X117255008Y-87401278D01*
X117247462Y-87394423D01*
X117226068Y-87373025D01*
X117217888Y-87367558D01*
X117210605Y-87360942D01*
X117184687Y-87345368D01*
X117159528Y-87328553D01*
X117150432Y-87324784D01*
X117142004Y-87319720D01*
X117113543Y-87309500D01*
X117085589Y-87297918D01*
X117075940Y-87295998D01*
X117066679Y-87292672D01*
X117036764Y-87288200D01*
X117007094Y-87282295D01*
X116997252Y-87282294D01*
X116987525Y-87280840D01*
X116957315Y-87282290D01*
X116927061Y-87282287D01*
X116917411Y-87284205D01*
X116907584Y-87284677D01*
X116878243Y-87291992D01*
X116848562Y-87297892D01*
X116839466Y-87301659D01*
X116829926Y-87304037D01*
X116802582Y-87316932D01*
X116774618Y-87328512D01*
X116766433Y-87333980D01*
X116757539Y-87338174D01*
X116733237Y-87356155D01*
X116724736Y-87361834D01*
X116717154Y-87368055D01*
X116693201Y-87385778D01*
X116686314Y-87393359D01*
X115945475Y-88001218D01*
X115937038Y-88006262D01*
X115914622Y-88026533D01*
X115906729Y-88033009D01*
X115899804Y-88039932D01*
X115877676Y-88059943D01*
X115871556Y-88068175D01*
X115864307Y-88075423D01*
X115847737Y-88100216D01*
X115829928Y-88124172D01*
X115825531Y-88133442D01*
X115819836Y-88141963D01*
X115808418Y-88169519D01*
X115795628Y-88196484D01*
X115793125Y-88206429D01*
X115789200Y-88215902D01*
X115783377Y-88245162D01*
X115776094Y-88274098D01*
X115775579Y-88284341D01*
X115773578Y-88294396D01*
X115773575Y-88324229D01*
X115772077Y-88354030D01*
X115773570Y-88364175D01*
X115773569Y-88374429D01*
X115779386Y-88403692D01*
X115783731Y-88433211D01*
X115787175Y-88442869D01*
X115789174Y-88452927D01*
X115800589Y-88480494D01*
X115810609Y-88508596D01*
X115815871Y-88517398D01*
X115819794Y-88526871D01*
X115836363Y-88551674D01*
X115841391Y-88560084D01*
X115847467Y-88568296D01*
X115864252Y-88593422D01*
X115871200Y-88600372D01*
X117490277Y-90788583D01*
X117093862Y-91053261D01*
X115697191Y-88717106D01*
X115693272Y-88707641D01*
X115676714Y-88682855D01*
X115671687Y-88674446D01*
X115665614Y-88666239D01*
X115648815Y-88641091D01*
X115641859Y-88634134D01*
X115636006Y-88626223D01*
X115613615Y-88605883D01*
X115592229Y-88584492D01*
X115584049Y-88579025D01*
X115576767Y-88572410D01*
X115550836Y-88556828D01*
X115525688Y-88540021D01*
X115516599Y-88536255D01*
X115508165Y-88531187D01*
X115479689Y-88520962D01*
X115451749Y-88509385D01*
X115442103Y-88507465D01*
X115432840Y-88504139D01*
X115402911Y-88499665D01*
X115373255Y-88493763D01*
X115363419Y-88493762D01*
X115353686Y-88492307D01*
X115323468Y-88493757D01*
X115293220Y-88493754D01*
X115283571Y-88495672D01*
X115273744Y-88496144D01*
X115244391Y-88503462D01*
X115214724Y-88509360D01*
X115205633Y-88513124D01*
X115196088Y-88515504D01*
X115168739Y-88528401D01*
X115159299Y-88532310D01*
X115150654Y-88536929D01*
X115123699Y-88549641D01*
X115115464Y-88555734D01*
X114270279Y-89007379D01*
X114261016Y-89010682D01*
X114235066Y-89026196D01*
X114226071Y-89031003D01*
X114217934Y-89036439D01*
X114192322Y-89051751D01*
X114184715Y-89058630D01*
X114176190Y-89064325D01*
X114155094Y-89085416D01*
X114132961Y-89105431D01*
X114126843Y-89113660D01*
X114119591Y-89120911D01*
X114103008Y-89145723D01*
X114085212Y-89169662D01*
X114080819Y-89178924D01*
X114075119Y-89187452D01*
X114063695Y-89215024D01*
X114050912Y-89241973D01*
X114048410Y-89251915D01*
X114044484Y-89261390D01*
X114038661Y-89290651D01*
X114031378Y-89319586D01*
X114030863Y-89329830D01*
X114028862Y-89339885D01*
X114028859Y-89369718D01*
X114027361Y-89399519D01*
X114028854Y-89409664D01*
X114028853Y-89419918D01*
X114034669Y-89449174D01*
X114039015Y-89478699D01*
X114042460Y-89488363D01*
X114044459Y-89498415D01*
X114055871Y-89525975D01*
X114059161Y-89535203D01*
X114063514Y-89544433D01*
X114075078Y-89572361D01*
X114080540Y-89580538D01*
X115241606Y-92042564D01*
X114801171Y-92224820D01*
X113887098Y-89661074D01*
X113885101Y-89651030D01*
X113873700Y-89623497D01*
X113870407Y-89614261D01*
X113866049Y-89605020D01*
X113854481Y-89577084D01*
X113849015Y-89568902D01*
X113844819Y-89560004D01*
X113826833Y-89535695D01*
X113810025Y-89510534D01*
X113803066Y-89503574D01*
X113797216Y-89495667D01*
X113774828Y-89475330D01*
X113753438Y-89453935D01*
X113745259Y-89448469D01*
X113737975Y-89441852D01*
X113712041Y-89426269D01*
X113686897Y-89409464D01*
X113677809Y-89405698D01*
X113669374Y-89400630D01*
X113640898Y-89390405D01*
X113612958Y-89378828D01*
X113603312Y-89376908D01*
X113594049Y-89373582D01*
X113564121Y-89369108D01*
X113534464Y-89363206D01*
X113524627Y-89363205D01*
X113514894Y-89361750D01*
X113484676Y-89363200D01*
X113454431Y-89363197D01*
X113444782Y-89365115D01*
X113434954Y-89365587D01*
X113405603Y-89372904D01*
X113395594Y-89374894D01*
X113386223Y-89377736D01*
X113357296Y-89384947D01*
X113348030Y-89389317D01*
X112430974Y-89667395D01*
X112421245Y-89668827D01*
X112392772Y-89678979D01*
X112383007Y-89681940D01*
X112373961Y-89685686D01*
X112345858Y-89695706D01*
X112337055Y-89700968D01*
X112327583Y-89704891D01*
X112302782Y-89721458D01*
X112277165Y-89736773D01*
X112269558Y-89743652D01*
X112261033Y-89749347D01*
X112239933Y-89770442D01*
X112217803Y-89790455D01*
X112211686Y-89798684D01*
X112204434Y-89805934D01*
X112187856Y-89830739D01*
X112170055Y-89854685D01*
X112165660Y-89863951D01*
X112159963Y-89872475D01*
X112148543Y-89900036D01*
X112135755Y-89926996D01*
X112133253Y-89936939D01*
X112129327Y-89946413D01*
X112123501Y-89975684D01*
X112116221Y-90004610D01*
X112115707Y-90014847D01*
X112113704Y-90024908D01*
X112113701Y-90054753D01*
X112112204Y-90084541D01*
X112113697Y-90094685D01*
X112113696Y-90104940D01*
X112119512Y-90134196D01*
X112120939Y-90143890D01*
X112123410Y-90153803D01*
X112129302Y-90183439D01*
X112133062Y-90192518D01*
X112791502Y-92833756D01*
X112323974Y-92926585D01*
X111927627Y-90233778D01*
X111927628Y-90223533D01*
X111921816Y-90194298D01*
X111920389Y-90184604D01*
X111917919Y-90174695D01*
X111912022Y-90145035D01*
X111908258Y-90135946D01*
X111905878Y-90126398D01*
X111892975Y-90099037D01*
X111881403Y-90071091D01*
X111875939Y-90062911D01*
X111871741Y-90054010D01*
X111853743Y-90029686D01*
X111836945Y-90004540D01*
X111829990Y-89997584D01*
X111824137Y-89989673D01*
X111801749Y-89969336D01*
X111780359Y-89947941D01*
X111772176Y-89942472D01*
X111764896Y-89935859D01*
X111738972Y-89920281D01*
X111713818Y-89903470D01*
X111704729Y-89899704D01*
X111696295Y-89894636D01*
X111667819Y-89884411D01*
X111639879Y-89872834D01*
X111630233Y-89870914D01*
X111620970Y-89867588D01*
X111591041Y-89863114D01*
X111561385Y-89857212D01*
X111551549Y-89857211D01*
X111541816Y-89855756D01*
X111511602Y-89857206D01*
X111501397Y-89857205D01*
X111491652Y-89858164D01*
X111461875Y-89859593D01*
X111451934Y-89862071D01*
X110498246Y-89955899D01*
X110488426Y-89955405D01*
X110458522Y-89959807D01*
X110448365Y-89960806D01*
X110438760Y-89962716D01*
X110409245Y-89967060D01*
X110399587Y-89970503D01*
X110389529Y-89972503D01*
X110361966Y-89983916D01*
X110333860Y-89993937D01*
X110325058Y-89999200D01*
X110315585Y-90003122D01*
X110290779Y-90019693D01*
X110265166Y-90035006D01*
X110257559Y-90041885D01*
X110249034Y-90047580D01*
X110227937Y-90068672D01*
X110205804Y-90088687D01*
X110199687Y-90096916D01*
X110192435Y-90104166D01*
X110175857Y-90128971D01*
X110158056Y-90152917D01*
X110153661Y-90162183D01*
X110147964Y-90170707D01*
X110136545Y-90198266D01*
X110123756Y-90225228D01*
X110121253Y-90235173D01*
X110117328Y-90244646D01*
X110111505Y-90273905D01*
X110104222Y-90302841D01*
X110103707Y-90313084D01*
X110101706Y-90323139D01*
X110101703Y-90352970D01*
X110101211Y-90362753D01*
X110101700Y-90372949D01*
X110101697Y-90403173D01*
X110103614Y-90412815D01*
X110234123Y-93131753D01*
X109757467Y-93131589D01*
X109894076Y-90413211D01*
X109896078Y-90403151D01*
X109896081Y-90373310D01*
X109896571Y-90363559D01*
X109896083Y-90353395D01*
X109896086Y-90323116D01*
X109894165Y-90313454D01*
X109893694Y-90303640D01*
X109886386Y-90274324D01*
X109880481Y-90244620D01*
X109876714Y-90235522D01*
X109874336Y-90225984D01*
X109861443Y-90198644D01*
X109849861Y-90170675D01*
X109844392Y-90162488D01*
X109840198Y-90153595D01*
X109822219Y-90129297D01*
X109805404Y-90104125D01*
X109798442Y-90097161D01*
X109792594Y-90089258D01*
X109770221Y-90068935D01*
X109748817Y-90047526D01*
X109740630Y-90042054D01*
X109733353Y-90035444D01*
X109707448Y-90019877D01*
X109682276Y-90003054D01*
X109673179Y-89999285D01*
X109664752Y-89994221D01*
X109636302Y-89984006D01*
X109608338Y-89972419D01*
X109598683Y-89970497D01*
X109589427Y-89967174D01*
X109559516Y-89962703D01*
X109549504Y-89960710D01*
X109539761Y-89959749D01*
X109510272Y-89955341D01*
X109500036Y-89955832D01*
X108546373Y-89861802D01*
X108536837Y-89859402D01*
X108506645Y-89857885D01*
X108496492Y-89856884D01*
X108486697Y-89856883D01*
X108456904Y-89855386D01*
X108446766Y-89856878D01*
X108436505Y-89856877D01*
X108407222Y-89862698D01*
X108377724Y-89867040D01*
X108368072Y-89870481D01*
X108358008Y-89872482D01*
X108330425Y-89883904D01*
X108302338Y-89893918D01*
X108293541Y-89899177D01*
X108284063Y-89903102D01*
X108259255Y-89919675D01*
X108233644Y-89934986D01*
X108226034Y-89941867D01*
X108217513Y-89947560D01*
X108196426Y-89968643D01*
X108174282Y-89988667D01*
X108168162Y-89996900D01*
X108160914Y-90004146D01*
X108144341Y-90028943D01*
X108126534Y-90052897D01*
X108122138Y-90062164D01*
X108116442Y-90070687D01*
X108105025Y-90098242D01*
X108092234Y-90125208D01*
X108089730Y-90135156D01*
X108085807Y-90144625D01*
X108079986Y-90173875D01*
X108077593Y-90183382D01*
X108076082Y-90193489D01*
X108070185Y-90223120D01*
X108070184Y-90232946D01*
X107667747Y-92925106D01*
X107200281Y-92831953D01*
X107864596Y-90192450D01*
X107868519Y-90182983D01*
X107874339Y-90153741D01*
X107876728Y-90144248D01*
X107878237Y-90134155D01*
X107884141Y-90104489D01*
X107884142Y-90094652D01*
X107885597Y-90084920D01*
X107884147Y-90054702D01*
X107884150Y-90024455D01*
X107882232Y-90014805D01*
X107881760Y-90004978D01*
X107874444Y-89975629D01*
X107868545Y-89945957D01*
X107864780Y-89936866D01*
X107862401Y-89927321D01*
X107849501Y-89899967D01*
X107837925Y-89872012D01*
X107832458Y-89863828D01*
X107828263Y-89854933D01*
X107810278Y-89830626D01*
X107793468Y-89805462D01*
X107786510Y-89798502D01*
X107780659Y-89790595D01*
X107758269Y-89770256D01*
X107736881Y-89748864D01*
X107728702Y-89743398D01*
X107721418Y-89736781D01*
X107695481Y-89721195D01*
X107670340Y-89704393D01*
X107661255Y-89700629D01*
X107652818Y-89695559D01*
X107624331Y-89685330D01*
X107614921Y-89681431D01*
X107605571Y-89678594D01*
X107577492Y-89668511D01*
X107567350Y-89666995D01*
X106650362Y-89388722D01*
X106641478Y-89384508D01*
X106612162Y-89377130D01*
X106602399Y-89374167D01*
X106592800Y-89372257D01*
X106563864Y-89364974D01*
X106553620Y-89364459D01*
X106543565Y-89362458D01*
X106513733Y-89362455D01*
X106483932Y-89360957D01*
X106473787Y-89362450D01*
X106463533Y-89362449D01*
X106434272Y-89368266D01*
X106404750Y-89372611D01*
X106395091Y-89376055D01*
X106385035Y-89378054D01*
X106357471Y-89389468D01*
X106329365Y-89399489D01*
X106320563Y-89404751D01*
X106311090Y-89408674D01*
X106286287Y-89425243D01*
X106260671Y-89440558D01*
X106253061Y-89447439D01*
X106244540Y-89453132D01*
X106223453Y-89474215D01*
X106201309Y-89494239D01*
X106195189Y-89502472D01*
X106187941Y-89509718D01*
X106171366Y-89534519D01*
X106153562Y-89558469D01*
X106149166Y-89567736D01*
X106143470Y-89576259D01*
X106132058Y-89603801D01*
X106127852Y-89612668D01*
X106124394Y-89622298D01*
X106112834Y-89650198D01*
X106110917Y-89659832D01*
X105190997Y-92221754D01*
X104750687Y-92039193D01*
X105917181Y-89580007D01*
X105922873Y-89571490D01*
X105934283Y-89543952D01*
X105938482Y-89535100D01*
X105941933Y-89525490D01*
X105953509Y-89497551D01*
X105955429Y-89487904D01*
X105958755Y-89478641D01*
X105963228Y-89448715D01*
X105969131Y-89419057D01*
X105969132Y-89409221D01*
X105970587Y-89399488D01*
X105969137Y-89369269D01*
X105969140Y-89339023D01*
X105967222Y-89329374D01*
X105966750Y-89319545D01*
X105959430Y-89290180D01*
X105953534Y-89260525D01*
X105949772Y-89251441D01*
X105947391Y-89241888D01*
X105934484Y-89214520D01*
X105922915Y-89186580D01*
X105917449Y-89178398D01*
X105913253Y-89169500D01*
X105895259Y-89145181D01*
X105878457Y-89120029D01*
X105871502Y-89113073D01*
X105865649Y-89105162D01*
X105843248Y-89084813D01*
X105821871Y-89063432D01*
X105813696Y-89057968D01*
X105806409Y-89051349D01*
X105780461Y-89035757D01*
X105771996Y-89030099D01*
X105763384Y-89025494D01*
X105737807Y-89010125D01*
X105728154Y-89006659D01*
X104883075Y-88554838D01*
X104875184Y-88548972D01*
X104847876Y-88536019D01*
X104838874Y-88531206D01*
X104829825Y-88527457D01*
X104802872Y-88514672D01*
X104792929Y-88512170D01*
X104783455Y-88508244D01*
X104754194Y-88502420D01*
X104725260Y-88495138D01*
X104715017Y-88494623D01*
X104704962Y-88492622D01*
X104675128Y-88492619D01*
X104645326Y-88491121D01*
X104635181Y-88492614D01*
X104624928Y-88492613D01*
X104595666Y-88498430D01*
X104566146Y-88502775D01*
X104556488Y-88506219D01*
X104546430Y-88508218D01*
X104518864Y-88519633D01*
X104490760Y-88529653D01*
X104481958Y-88534915D01*
X104472485Y-88538838D01*
X104447679Y-88555409D01*
X104422066Y-88570722D01*
X104414459Y-88577601D01*
X104405934Y-88583296D01*
X104384845Y-88604380D01*
X104362705Y-88624402D01*
X104356583Y-88632638D01*
X104349337Y-88639882D01*
X104332770Y-88664670D01*
X104326916Y-88672545D01*
X104321649Y-88681309D01*
X104304865Y-88706423D01*
X104301104Y-88715500D01*
X102899055Y-91048725D01*
X102502821Y-90783773D01*
X104126672Y-88599403D01*
X104133908Y-88592168D01*
X104150452Y-88567414D01*
X104156318Y-88559523D01*
X104161596Y-88550740D01*
X104178380Y-88525626D01*
X104182142Y-88516546D01*
X104187215Y-88508104D01*
X104197447Y-88479610D01*
X104209016Y-88451689D01*
X104210934Y-88442049D01*
X104214263Y-88432780D01*
X104218740Y-88402830D01*
X104224638Y-88373194D01*
X104224639Y-88363365D01*
X104226095Y-88353625D01*
X104224644Y-88323386D01*
X104224647Y-88293160D01*
X104222730Y-88283518D01*
X104222258Y-88273683D01*
X104214934Y-88244302D01*
X104209041Y-88214662D01*
X104205281Y-88205582D01*
X104202899Y-88196026D01*
X104189988Y-88168648D01*
X104178422Y-88140717D01*
X104172958Y-88132539D01*
X104168761Y-88123638D01*
X104150762Y-88099313D01*
X104133964Y-88074167D01*
X104127010Y-88067212D01*
X104121157Y-88059301D01*
X104098758Y-88038954D01*
X104091551Y-88031745D01*
X104083993Y-88025541D01*
X104061916Y-88005486D01*
X104053129Y-88000206D01*
X103312425Y-87392193D01*
X103305834Y-87384904D01*
X103281586Y-87366878D01*
X103273688Y-87360395D01*
X103265538Y-87354948D01*
X103241603Y-87337155D01*
X103232340Y-87332761D01*
X103223814Y-87327063D01*
X103196250Y-87315642D01*
X103169293Y-87302855D01*
X103159350Y-87300353D01*
X103149876Y-87296427D01*
X103120612Y-87290603D01*
X103091679Y-87283321D01*
X103081437Y-87282806D01*
X103071381Y-87280805D01*
X103041547Y-87280802D01*
X103011746Y-87279304D01*
X103001602Y-87280797D01*
X102991348Y-87280796D01*
X102962077Y-87286615D01*
X102932565Y-87290959D01*
X102922911Y-87294401D01*
X102912851Y-87296401D01*
X102885277Y-87307819D01*
X102857179Y-87317837D01*
X102848380Y-87323098D01*
X102838905Y-87327021D01*
X102814095Y-87343595D01*
X102788486Y-87358905D01*
X102780880Y-87365783D01*
X102772355Y-87371478D01*
X102751261Y-87392568D01*
X102743993Y-87399140D01*
X102737125Y-87406700D01*
X102715756Y-87428065D01*
X102710295Y-87436236D01*
X100879998Y-89451102D01*
X100543067Y-89113939D01*
X102561856Y-87288347D01*
X102570377Y-87282655D01*
X102591461Y-87261575D01*
X102598722Y-87255009D01*
X102605585Y-87247454D01*
X102626975Y-87226068D01*
X102632442Y-87217888D01*
X102639057Y-87210606D01*
X102654634Y-87184684D01*
X102671447Y-87159528D01*
X102675214Y-87150437D01*
X102680280Y-87142006D01*
X102690504Y-87113532D01*
X102702082Y-87085589D01*
X102704002Y-87075943D01*
X102707328Y-87066680D01*
X102711800Y-87036761D01*
X102717705Y-87007094D01*
X102717706Y-86997253D01*
X102719160Y-86987526D01*
X102717710Y-86957315D01*
X102717713Y-86927061D01*
X102715795Y-86917411D01*
X102715323Y-86907584D01*
X102708008Y-86878243D01*
X102702108Y-86848562D01*
X102698341Y-86839466D01*
X102695963Y-86829926D01*
X102683068Y-86802582D01*
X102671488Y-86774618D01*
X102666020Y-86766433D01*
X102661826Y-86757539D01*
X102643845Y-86733237D01*
X102638166Y-86724736D01*
X102631945Y-86717154D01*
X102614222Y-86693201D01*
X102606642Y-86686315D01*
X101998782Y-85945475D01*
X101993738Y-85937038D01*
X101973467Y-85914622D01*
X101966991Y-85906729D01*
X101960068Y-85899804D01*
X101940057Y-85877676D01*
X101931825Y-85871556D01*
X101924577Y-85864307D01*
X101899784Y-85847737D01*
X101875828Y-85829928D01*
X101866558Y-85825531D01*
X101858037Y-85819836D01*
X101830481Y-85808418D01*
X101803516Y-85795628D01*
X101793571Y-85793125D01*
X101784098Y-85789200D01*
X101754838Y-85783377D01*
X101725902Y-85776094D01*
X101715660Y-85775579D01*
X101705604Y-85773578D01*
X101675770Y-85773575D01*
X101645969Y-85772077D01*
X101635824Y-85773570D01*
X101625571Y-85773569D01*
X101596311Y-85779386D01*
X101566788Y-85783731D01*
X101557129Y-85787175D01*
X101547073Y-85789174D01*
X101519512Y-85800587D01*
X101491403Y-85810609D01*
X101482599Y-85815873D01*
X101473129Y-85819794D01*
X101448335Y-85836357D01*
X101439915Y-85841391D01*
X101431694Y-85847474D01*
X101406578Y-85864252D01*
X101399631Y-85871198D01*
X99211418Y-87490278D01*
X98946739Y-87093862D01*
X101282899Y-85697189D01*
X101292359Y-85693272D01*
X101317131Y-85676724D01*
X101325554Y-85671688D01*
X101333775Y-85665605D01*
X101358909Y-85648815D01*
X101365863Y-85641863D01*
X101373777Y-85636007D01*
X101394127Y-85613605D01*
X101415508Y-85592229D01*
X101420972Y-85584054D01*
X101427591Y-85576767D01*
X101443184Y-85550818D01*
X101459979Y-85525688D01*
X101463741Y-85516607D01*
X101468814Y-85508166D01*
X101479045Y-85479672D01*
X101490615Y-85451749D01*
X101492534Y-85442106D01*
X101495861Y-85432841D01*
X101500335Y-85402909D01*
X101506237Y-85373255D01*
X101506238Y-85363419D01*
X101507693Y-85353686D01*
X101506243Y-85323468D01*
X101506246Y-85293220D01*
X101504328Y-85283571D01*
X101503856Y-85273744D01*
X101496537Y-85244384D01*
X101490640Y-85214724D01*
X101486878Y-85205638D01*
X101484497Y-85196088D01*
X101471594Y-85168728D01*
X101467690Y-85159299D01*
X101463074Y-85150660D01*
X101450359Y-85123699D01*
X101444265Y-85115463D01*
X100992621Y-84270279D01*
X100989318Y-84261016D01*
X100973804Y-84235066D01*
X100968997Y-84226071D01*
X100963561Y-84217934D01*
X100948249Y-84192322D01*
X100941370Y-84184715D01*
X100935675Y-84176190D01*
X100914584Y-84155094D01*
X100894569Y-84132961D01*
X100886340Y-84126843D01*
X100879089Y-84119591D01*
X100854277Y-84103008D01*
X100830338Y-84085212D01*
X100821076Y-84080819D01*
X100812548Y-84075119D01*
X100784976Y-84063695D01*
X100758027Y-84050912D01*
X100748085Y-84048410D01*
X100738610Y-84044484D01*
X100709349Y-84038661D01*
X100680414Y-84031378D01*
X100670170Y-84030863D01*
X100660115Y-84028862D01*
X100630282Y-84028859D01*
X100600480Y-84027361D01*
X100590335Y-84028854D01*
X100580082Y-84028853D01*
X100550829Y-84034669D01*
X100521300Y-84039015D01*
X100511635Y-84042461D01*
X100501585Y-84044459D01*
X100474031Y-84055868D01*
X100464796Y-84059161D01*
X100455559Y-84063517D01*
X100427639Y-84075078D01*
X100419465Y-84080539D01*
X97957436Y-85241607D01*
X97775180Y-84801171D01*
X100338932Y-83887097D01*
X100348970Y-83885101D01*
X100376485Y-83873707D01*
X100385739Y-83870408D01*
X100394997Y-83866042D01*
X100422916Y-83854481D01*
X100431093Y-83849019D01*
X100439996Y-83844820D01*
X100464319Y-83826824D01*
X100489466Y-83810025D01*
X100496422Y-83803070D01*
X100504333Y-83797217D01*
X100524676Y-83774822D01*
X100546065Y-83753438D01*
X100551531Y-83745259D01*
X100558147Y-83737976D01*
X100573731Y-83712042D01*
X100590536Y-83686897D01*
X100594301Y-83677811D01*
X100599370Y-83669375D01*
X100609595Y-83640899D01*
X100621172Y-83612958D01*
X100623092Y-83603309D01*
X100626417Y-83594050D01*
X100630890Y-83564131D01*
X100636794Y-83534464D01*
X100636795Y-83524627D01*
X100638250Y-83514895D01*
X100636800Y-83484685D01*
X100636803Y-83454431D01*
X100634884Y-83444776D01*
X100634412Y-83434954D01*
X100627098Y-83405615D01*
X100625106Y-83395594D01*
X100622262Y-83386216D01*
X100615053Y-83357296D01*
X100610683Y-83348030D01*
X100332605Y-82430974D01*
X100331173Y-82421245D01*
X100321021Y-82392772D01*
X100318060Y-82383007D01*
X100314314Y-82373961D01*
X100304294Y-82345858D01*
X100299032Y-82337055D01*
X100295109Y-82327583D01*
X100278542Y-82302782D01*
X100263227Y-82277165D01*
X100256347Y-82269557D01*
X100250653Y-82261033D01*
X100229564Y-82239940D01*
X100209546Y-82217803D01*
X100201314Y-82211683D01*
X100194066Y-82204434D01*
X100169264Y-82187858D01*
X100145315Y-82170055D01*
X100136049Y-82165660D01*
X100127525Y-82159963D01*
X100099964Y-82148543D01*
X100073004Y-82135755D01*
X100063061Y-82133253D01*
X100053587Y-82129327D01*
X100024316Y-82123501D01*
X99995390Y-82116221D01*
X99985154Y-82115707D01*
X99975092Y-82113704D01*
X99945246Y-82113701D01*
X99915458Y-82112204D01*
X99905314Y-82113697D01*
X99895060Y-82113696D01*
X99865805Y-82119512D01*
X99856110Y-82120939D01*
X99846197Y-82123410D01*
X99816561Y-82129302D01*
X99807482Y-82133062D01*
X97166245Y-82791503D01*
X97073415Y-82323974D01*
X99766228Y-81927627D01*
X99776467Y-81927628D01*
X99805683Y-81921820D01*
X99815396Y-81920390D01*
X99825325Y-81917915D01*
X99854965Y-81912022D01*
X99864048Y-81908261D01*
X99873602Y-81905879D01*
X99900981Y-81892968D01*
X99928909Y-81881403D01*
X99937084Y-81875942D01*
X99945990Y-81871742D01*
X99970332Y-81853731D01*
X99995460Y-81836945D01*
X100002410Y-81829996D01*
X100010328Y-81824138D01*
X100030685Y-81801728D01*
X100052059Y-81780359D01*
X100057523Y-81772184D01*
X100064142Y-81764897D01*
X100079731Y-81738954D01*
X100096530Y-81713818D01*
X100100294Y-81704733D01*
X100105364Y-81696296D01*
X100115592Y-81667813D01*
X100127166Y-81639879D01*
X100129085Y-81630236D01*
X100132412Y-81620971D01*
X100136886Y-81591038D01*
X100142788Y-81561385D01*
X100142789Y-81551550D01*
X100144244Y-81541817D01*
X100142794Y-81511603D01*
X100142795Y-81501397D01*
X100141836Y-81491651D01*
X100140407Y-81461875D01*
X100137929Y-81451934D01*
X100044101Y-80498240D01*
X100044594Y-80488426D01*
X100040195Y-80458534D01*
X100039194Y-80448365D01*
X100037283Y-80438752D01*
X100032940Y-80409245D01*
X100029497Y-80399587D01*
X100027497Y-80389529D01*
X100016084Y-80361966D01*
X100006063Y-80333860D01*
X100000800Y-80325058D01*
X99996878Y-80315585D01*
X99980307Y-80290779D01*
X99964994Y-80265166D01*
X99958115Y-80257559D01*
X99952420Y-80249034D01*
X99931328Y-80227937D01*
X99911313Y-80205804D01*
X99903084Y-80199687D01*
X99895834Y-80192435D01*
X99871029Y-80175857D01*
X99847083Y-80158056D01*
X99837817Y-80153661D01*
X99829293Y-80147964D01*
X99801729Y-80136543D01*
X99774771Y-80123756D01*
X99764828Y-80121254D01*
X99755354Y-80117328D01*
X99726090Y-80111504D01*
X99697158Y-80104222D01*
X99686917Y-80103707D01*
X99676861Y-80101706D01*
X99647029Y-80101703D01*
X99637246Y-80101211D01*
X99627050Y-80101700D01*
X99596827Y-80101697D01*
X99587185Y-80103614D01*
X96868247Y-80234123D01*
X96868411Y-79757467D01*
X99586795Y-79894076D01*
X99596849Y-79896077D01*
X99626678Y-79896080D01*
X99636441Y-79896571D01*
X99646613Y-79896083D01*
X99676883Y-79896086D01*
X99686545Y-79894165D01*
X99696360Y-79893694D01*
X99725677Y-79886386D01*
X99755380Y-79880481D01*
X99764478Y-79876714D01*
X99774016Y-79874336D01*
X99801356Y-79861443D01*
X99829325Y-79849861D01*
X99837512Y-79844392D01*
X99846405Y-79840198D01*
X99870712Y-79822213D01*
X99895875Y-79805403D01*
X99902835Y-79798444D01*
X99910742Y-79792594D01*
X99931069Y-79770217D01*
X99952474Y-79748817D01*
X99957946Y-79740630D01*
X99964556Y-79733353D01*
X99980123Y-79707448D01*
X99996946Y-79682276D01*
X100000715Y-79673179D01*
X100005779Y-79664752D01*
X100015994Y-79636302D01*
X100027581Y-79608338D01*
X100029503Y-79598683D01*
X100032826Y-79589427D01*
X100037297Y-79559516D01*
X100039290Y-79549504D01*
X100040251Y-79539761D01*
X100044659Y-79510272D01*
X100044168Y-79500036D01*
X100138198Y-78546373D01*
X100140598Y-78536837D01*
X100142115Y-78506647D01*
X100143116Y-78496493D01*
X100143117Y-78486697D01*
X100144614Y-78456904D01*
X100143122Y-78446766D01*
X100143123Y-78436505D01*
X100137302Y-78407222D01*
X100132960Y-78377724D01*
X100129519Y-78368072D01*
X100127518Y-78358008D01*
X100116096Y-78330425D01*
X100106082Y-78302338D01*
X100100823Y-78293541D01*
X100096898Y-78284063D01*
X100080323Y-78259251D01*
X100065014Y-78233644D01*
X100058135Y-78226037D01*
X100052440Y-78217512D01*
X100031351Y-78196419D01*
X100011333Y-78174282D01*
X100003100Y-78168162D01*
X99995854Y-78160914D01*
X99971057Y-78144341D01*
X99947103Y-78126534D01*
X99937836Y-78122138D01*
X99929313Y-78116442D01*
X99901758Y-78105025D01*
X99874792Y-78092234D01*
X99864844Y-78089730D01*
X99855375Y-78085807D01*
X99826118Y-78079984D01*
X99816618Y-78077593D01*
X99806524Y-78076084D01*
X99776880Y-78070184D01*
X99767048Y-78070183D01*
X97074894Y-77667747D01*
X97168047Y-77200281D01*
X99855752Y-77876728D01*
X99915080Y-77885597D01*
X99995022Y-77881760D01*
X100072679Y-77862401D01*
X100145067Y-77828263D01*
X100209405Y-77780659D01*
X100263219Y-77721418D01*
X100304441Y-77652818D01*
X100331489Y-77577492D01*
X100343321Y-77498337D01*
X100339484Y-77418396D01*
X100320125Y-77340738D01*
X100285987Y-77268350D01*
X100238384Y-77204013D01*
X100179142Y-77150198D01*
X100110542Y-77108976D01*
X100054083Y-77088703D01*
X96961708Y-76310409D01*
X96932832Y-76301639D01*
X96903098Y-76298700D01*
X96873536Y-76294281D01*
X96863339Y-76294770D01*
X96853186Y-76293767D01*
X96823456Y-76296685D01*
X96793596Y-76298118D01*
X96783691Y-76300587D01*
X96773536Y-76301584D01*
X96744934Y-76310249D01*
X96715938Y-76317478D01*
X96706710Y-76321830D01*
X96696939Y-76324790D01*
X96670570Y-76338873D01*
X96643550Y-76351615D01*
X96635348Y-76357684D01*
X96626343Y-76362493D01*
X96603229Y-76381449D01*
X96579213Y-76399219D01*
X96572352Y-76406772D01*
X96564459Y-76413245D01*
X96545496Y-76436336D01*
X96525398Y-76458460D01*
X96520139Y-76467212D01*
X96513665Y-76475095D01*
X96499571Y-76501440D01*
X96484176Y-76527061D01*
X96480727Y-76536667D01*
X96475913Y-76545665D01*
X96467232Y-76574248D01*
X96457128Y-76602386D01*
X96452664Y-76632252D01*
X96196605Y-77917224D01*
X96189317Y-77946181D01*
X96187801Y-77976347D01*
X96184831Y-78006398D01*
X96185796Y-78016236D01*
X96185300Y-78026113D01*
X96189698Y-78055992D01*
X96192647Y-78086047D01*
X96195514Y-78095510D01*
X96196954Y-78105293D01*
X96207099Y-78133747D01*
X96215854Y-78162644D01*
X96220510Y-78171363D01*
X96223832Y-78180679D01*
X96239333Y-78206607D01*
X96253557Y-78233240D01*
X96259826Y-78240884D01*
X96264901Y-78249373D01*
X96285168Y-78271786D01*
X96304309Y-78295125D01*
X96311943Y-78301394D01*
X96318581Y-78308735D01*
X96342843Y-78326771D01*
X96366159Y-78345919D01*
X96374870Y-78350579D01*
X96382812Y-78356483D01*
X96410120Y-78369436D01*
X96436729Y-78383671D01*
X96446183Y-78386542D01*
X96455123Y-78390783D01*
X96484433Y-78398160D01*
X96513309Y-78406930D01*
X96543005Y-78409865D01*
X99294563Y-78821182D01*
X99270566Y-79064560D01*
X96492401Y-78924946D01*
X96462399Y-78921981D01*
X96432680Y-78924898D01*
X96402808Y-78926332D01*
X96392901Y-78928802D01*
X96382749Y-78929798D01*
X96354173Y-78938456D01*
X96325152Y-78945690D01*
X96315911Y-78950048D01*
X96306154Y-78953004D01*
X96279816Y-78967070D01*
X96252763Y-78979828D01*
X96244554Y-78985902D01*
X96235557Y-78990707D01*
X96212461Y-79009648D01*
X96188426Y-79027432D01*
X96181561Y-79034989D01*
X96173672Y-79041459D01*
X96154708Y-79064550D01*
X96134612Y-79086673D01*
X96129355Y-79095422D01*
X96122878Y-79103308D01*
X96108785Y-79129652D01*
X96093388Y-79155274D01*
X96089938Y-79164881D01*
X96085125Y-79173879D01*
X96076440Y-79202477D01*
X96066342Y-79230599D01*
X96064833Y-79240691D01*
X96061867Y-79250458D01*
X96058927Y-79280201D01*
X96054509Y-79309754D01*
X96055956Y-79339888D01*
X96055504Y-80650139D01*
X96054005Y-80679974D01*
X95466851Y-80679974D01*
X95431800Y-80000000D01*
X95509013Y-78502083D01*
X95739835Y-77020045D01*
X96121817Y-75569594D01*
X96470790Y-74643900D01*
X98200986Y-74643900D01*
X98216525Y-74801668D01*
X98262544Y-74953374D01*
X98337276Y-75093186D01*
X98437847Y-75215733D01*
X98514817Y-75278900D01*
X98437847Y-75342067D01*
X98337276Y-75464614D01*
X98262544Y-75604426D01*
X98216525Y-75756132D01*
X98200986Y-75913900D01*
X98216525Y-76071668D01*
X98262544Y-76223374D01*
X98337276Y-76363186D01*
X98437847Y-76485733D01*
X98560394Y-76586304D01*
X98700206Y-76661036D01*
X98851912Y-76707055D01*
X98970144Y-76718700D01*
X99049216Y-76718700D01*
X99167448Y-76707055D01*
X99319154Y-76661036D01*
X99458966Y-76586304D01*
X99581513Y-76485733D01*
X99682084Y-76363186D01*
X99756816Y-76223374D01*
X99802835Y-76071668D01*
X99818374Y-75913900D01*
X99802835Y-75756132D01*
X99756816Y-75604426D01*
X99682084Y-75464614D01*
X99581513Y-75342067D01*
X99504543Y-75278900D01*
X99581513Y-75215733D01*
X99682084Y-75093186D01*
X99756816Y-74953374D01*
X99802835Y-74801668D01*
X99818374Y-74643900D01*
X99802835Y-74486132D01*
X99756816Y-74334426D01*
X99682084Y-74194614D01*
X99581513Y-74072067D01*
X99458966Y-73971496D01*
X99319154Y-73896764D01*
X99167448Y-73850745D01*
X99049216Y-73839100D01*
X98970144Y-73839100D01*
X98851912Y-73850745D01*
X98700206Y-73896764D01*
X98560394Y-73971496D01*
X98437847Y-74072067D01*
X98337276Y-74194614D01*
X98262544Y-74334426D01*
X98216525Y-74486132D01*
X98200986Y-74643900D01*
X96470790Y-74643900D01*
X96650912Y-74166107D01*
X97321511Y-72824461D01*
X98126504Y-71558878D01*
X99057360Y-70382772D01*
X100104210Y-69308611D01*
X101255958Y-68347782D01*
X102500396Y-67510469D01*
X103824330Y-66805548D01*
X103898400Y-66775424D01*
X103898400Y-67937904D01*
X103892615Y-67956974D01*
X103886000Y-68024141D01*
X103886000Y-68024150D01*
X103883789Y-68046600D01*
X103886000Y-68069050D01*
X103886001Y-68402216D01*
X103859640Y-68441668D01*
X103835549Y-68499829D01*
X103504097Y-68075590D01*
X103462673Y-68032128D01*
X103413566Y-67997584D01*
X103358664Y-67973283D01*
X103300075Y-67960160D01*
X103240052Y-67958719D01*
X103180902Y-67969016D01*
X103124896Y-67990655D01*
X103074189Y-68022804D01*
X102133462Y-68757781D01*
X102090001Y-68799205D01*
X102055456Y-68848311D01*
X102031155Y-68903214D01*
X102018032Y-68961803D01*
X102016591Y-69021826D01*
X102026888Y-69080976D01*
X102048527Y-69136981D01*
X102080676Y-69187689D01*
X104363795Y-72109948D01*
X104405219Y-72153410D01*
X104454326Y-72187954D01*
X104509228Y-72212255D01*
X104567817Y-72225378D01*
X104627840Y-72226819D01*
X104658314Y-72221514D01*
X104393384Y-72390639D01*
X103758565Y-72927345D01*
X103770582Y-72871579D01*
X103771532Y-72811835D01*
X103760808Y-72753054D01*
X103738823Y-72697495D01*
X103706421Y-72647292D01*
X101375625Y-69713312D01*
X101336660Y-69672632D01*
X101287899Y-69638098D01*
X101233338Y-69613741D01*
X101175073Y-69600496D01*
X101115344Y-69598873D01*
X101056446Y-69608933D01*
X101000642Y-69630291D01*
X100950077Y-69662125D01*
X99279031Y-70959166D01*
X99233411Y-71002862D01*
X99199429Y-71052009D01*
X99175689Y-71106842D01*
X99163102Y-71165252D01*
X99162152Y-71224996D01*
X99172876Y-71283777D01*
X99194861Y-71339336D01*
X99227263Y-71389539D01*
X101558059Y-74323518D01*
X101597024Y-74364198D01*
X101645785Y-74398731D01*
X101700346Y-74423089D01*
X101758611Y-74436334D01*
X101818340Y-74437957D01*
X101877238Y-74427897D01*
X101933042Y-74406539D01*
X101983607Y-74374705D01*
X103286974Y-73363051D01*
X102582233Y-74142248D01*
X101867656Y-75183205D01*
X101298201Y-76310119D01*
X100884030Y-77502878D01*
X100632534Y-78740198D01*
X100548200Y-80000000D01*
X100632534Y-81259802D01*
X100884030Y-82497122D01*
X101298201Y-83689881D01*
X101867656Y-84816795D01*
X102582233Y-85857752D01*
X103429180Y-86794178D01*
X104393384Y-87609361D01*
X105457637Y-88288755D01*
X106602950Y-88820236D01*
X107808882Y-89194320D01*
X109053916Y-89404331D01*
X110315832Y-89446522D01*
X111572112Y-89320139D01*
X112800338Y-89027438D01*
X113978591Y-88573642D01*
X115085847Y-87966849D01*
X116102345Y-87217888D01*
X117009947Y-86340123D01*
X117792457Y-85349219D01*
X118435910Y-84262857D01*
X118928823Y-83100425D01*
X119262402Y-81882666D01*
X119430693Y-80631311D01*
X119430693Y-79368689D01*
X119262402Y-78117334D01*
X118928823Y-76899575D01*
X118510658Y-75913420D01*
X120132886Y-75913420D01*
X120148425Y-76071188D01*
X120194444Y-76222894D01*
X120269176Y-76362706D01*
X120369747Y-76485253D01*
X120492294Y-76585824D01*
X120632106Y-76660556D01*
X120783812Y-76706575D01*
X120902044Y-76718220D01*
X120981116Y-76718220D01*
X121099348Y-76706575D01*
X121251054Y-76660556D01*
X121390866Y-76585824D01*
X121513413Y-76485253D01*
X121613984Y-76362706D01*
X121688716Y-76222894D01*
X121734735Y-76071188D01*
X121750274Y-75913420D01*
X121734735Y-75755652D01*
X121688716Y-75603946D01*
X121613984Y-75464134D01*
X121575617Y-75417384D01*
X121611737Y-75398078D01*
X121658148Y-75359988D01*
X121696238Y-75313577D01*
X121724540Y-75260626D01*
X121741969Y-75203171D01*
X121747854Y-75143420D01*
X121747854Y-74143420D01*
X121741969Y-74083669D01*
X121724540Y-74026214D01*
X121696238Y-73973263D01*
X121658148Y-73926852D01*
X121611737Y-73888762D01*
X121558786Y-73860460D01*
X121501331Y-73843031D01*
X121441580Y-73837146D01*
X120441580Y-73837146D01*
X120381829Y-73843031D01*
X120324374Y-73860460D01*
X120271423Y-73888762D01*
X120225012Y-73926852D01*
X120186922Y-73973263D01*
X120158620Y-74026214D01*
X120141191Y-74083669D01*
X120135306Y-74143420D01*
X120135306Y-75143420D01*
X120141191Y-75203171D01*
X120158620Y-75260626D01*
X120186922Y-75313577D01*
X120225012Y-75359988D01*
X120271423Y-75398078D01*
X120307543Y-75417384D01*
X120269176Y-75464134D01*
X120194444Y-75603946D01*
X120148425Y-75755652D01*
X120132886Y-75913420D01*
X118510658Y-75913420D01*
X118435910Y-75737143D01*
X117792457Y-74650781D01*
X117009947Y-73659877D01*
X116102345Y-72782112D01*
X115085847Y-72033151D01*
X114793401Y-71872886D01*
X114791283Y-71032258D01*
X114809258Y-71010357D01*
X114837560Y-70957406D01*
X114854989Y-70899951D01*
X114860874Y-70840200D01*
X114860874Y-69520200D01*
X114854989Y-69460449D01*
X114838452Y-69405935D01*
X114878992Y-69356538D01*
X114927509Y-69265768D01*
X114957386Y-69167277D01*
X114967474Y-69064850D01*
X114967474Y-68552350D01*
X114957386Y-68449923D01*
X114937853Y-68385531D01*
X115018500Y-68393474D01*
X115313500Y-68393474D01*
X115402027Y-68384755D01*
X115487152Y-68358933D01*
X115565603Y-68316999D01*
X115634367Y-68260567D01*
X115664048Y-68224400D01*
X115775021Y-68224400D01*
X116643128Y-69092509D01*
X116635360Y-69111263D01*
X116615000Y-69213619D01*
X116615000Y-69317981D01*
X116635360Y-69420337D01*
X116675298Y-69516754D01*
X116733278Y-69603528D01*
X116807072Y-69677322D01*
X116893846Y-69735302D01*
X116990263Y-69775240D01*
X117092619Y-69795600D01*
X117196981Y-69795600D01*
X117299337Y-69775240D01*
X117395754Y-69735302D01*
X117482528Y-69677322D01*
X117556322Y-69603528D01*
X117614302Y-69516754D01*
X117654240Y-69420337D01*
X117674600Y-69317981D01*
X117674600Y-69213619D01*
X117654240Y-69111263D01*
X117614302Y-69014846D01*
X117602000Y-68996435D01*
X117602000Y-68970054D01*
X117604211Y-68947602D01*
X117602000Y-68925150D01*
X117602000Y-68925142D01*
X117595385Y-68857975D01*
X117592945Y-68849931D01*
X117569241Y-68771792D01*
X117526787Y-68692366D01*
X117483971Y-68640194D01*
X117483965Y-68640188D01*
X117469653Y-68622749D01*
X117452214Y-68608437D01*
X116303572Y-67459797D01*
X116289251Y-67442347D01*
X116219634Y-67385213D01*
X116140207Y-67342759D01*
X116054025Y-67316615D01*
X115986858Y-67310000D01*
X115986848Y-67310000D01*
X115964398Y-67307789D01*
X115941948Y-67310000D01*
X115684893Y-67310000D01*
X115690799Y-67302803D01*
X115732733Y-67224352D01*
X115758555Y-67139227D01*
X115767274Y-67050700D01*
X115767274Y-66705700D01*
X115760049Y-66632344D01*
X116846715Y-67140959D01*
X116846715Y-67140959D01*
G37*
X116846715Y-67140959D02*
X118132606Y-67913099D01*
X119332290Y-68813364D01*
X120433048Y-69832210D01*
X121423214Y-70958837D01*
X122292291Y-72181303D01*
X123031067Y-73486648D01*
X123631710Y-74861037D01*
X124087853Y-76289900D01*
X124394662Y-77758091D01*
X124548884Y-79250047D01*
X124548884Y-80749953D01*
X124394662Y-82241909D01*
X124087853Y-83710100D01*
X123631710Y-85138963D01*
X123031067Y-86513352D01*
X122292291Y-87818697D01*
X121423214Y-89041163D01*
X120433048Y-90167790D01*
X119332290Y-91186636D01*
X118132606Y-92086901D01*
X116846715Y-92859041D01*
X115488247Y-93494873D01*
X114071603Y-93987655D01*
X112611798Y-94332165D01*
X111124308Y-94524751D01*
X109624899Y-94563370D01*
X108129467Y-94447614D01*
X106653863Y-94178710D01*
X105213729Y-93759508D01*
X103824330Y-93194452D01*
X102500396Y-92489531D01*
X101255958Y-91652218D01*
X100104210Y-90691389D01*
X99057360Y-89617228D01*
X98126504Y-88441122D01*
X97321511Y-87175539D01*
X96650912Y-85833893D01*
X96121817Y-84430406D01*
X95739835Y-82979955D01*
X95509013Y-81497917D01*
X95466851Y-80679974D01*
X96054005Y-80679974D01*
X96058404Y-80709857D01*
X96061353Y-80739910D01*
X96064220Y-80749374D01*
X96065660Y-80759155D01*
X96075803Y-80787603D01*
X96084559Y-80816505D01*
X96089216Y-80825225D01*
X96092537Y-80834540D01*
X96108035Y-80860463D01*
X96122262Y-80887102D01*
X96128533Y-80894748D01*
X96133606Y-80903234D01*
X96153861Y-80925632D01*
X96173014Y-80948987D01*
X96180655Y-80955262D01*
X96187287Y-80962596D01*
X96211523Y-80980613D01*
X96234863Y-80999781D01*
X96243583Y-81004446D01*
X96251517Y-81010344D01*
X96278795Y-81023283D01*
X96305434Y-81037534D01*
X96314899Y-81040409D01*
X96323828Y-81044644D01*
X96353111Y-81052014D01*
X96382013Y-81060792D01*
X96391851Y-81061764D01*
X96401441Y-81064178D01*
X96431615Y-81065694D01*
X96461660Y-81068664D01*
X96491370Y-81065748D01*
X99270289Y-80932360D01*
X99294233Y-81175743D01*
X96542232Y-81580803D01*
X96512210Y-81583749D01*
X96483613Y-81592413D01*
X96454612Y-81599643D01*
X96445383Y-81603995D01*
X96435614Y-81606955D01*
X96409253Y-81621034D01*
X96382224Y-81633780D01*
X96374020Y-81639850D01*
X96365018Y-81644658D01*
X96341909Y-81663610D01*
X96317887Y-81681384D01*
X96311026Y-81688937D01*
X96303133Y-81695410D01*
X96284161Y-81718512D01*
X96264073Y-81740625D01*
X96258818Y-81749369D01*
X96252339Y-81757259D01*
X96238239Y-81783616D01*
X96222850Y-81809226D01*
X96219401Y-81818831D01*
X96214587Y-81827830D01*
X96205902Y-81856423D01*
X96195802Y-81884551D01*
X96194293Y-81894644D01*
X96191327Y-81904410D01*
X96188388Y-81934150D01*
X96183970Y-81963705D01*
X96184459Y-81973902D01*
X96183456Y-81984055D01*
X96186374Y-82013785D01*
X96187807Y-82043646D01*
X96195109Y-82072937D01*
X96450281Y-83358092D01*
X96454629Y-83387636D01*
X96464771Y-83416081D01*
X96473529Y-83444988D01*
X96478188Y-83453712D01*
X96481508Y-83463023D01*
X96497004Y-83488944D01*
X96511232Y-83515584D01*
X96517500Y-83523227D01*
X96522575Y-83531716D01*
X96542837Y-83554122D01*
X96561984Y-83577469D01*
X96569625Y-83583744D01*
X96576257Y-83591078D01*
X96600486Y-83609090D01*
X96623832Y-83628263D01*
X96632555Y-83632929D01*
X96640487Y-83638826D01*
X96667766Y-83651766D01*
X96694403Y-83666015D01*
X96703866Y-83668889D01*
X96712798Y-83673126D01*
X96742084Y-83680497D01*
X96770983Y-83689274D01*
X96780823Y-83690247D01*
X96790412Y-83692660D01*
X96820580Y-83694176D01*
X96850628Y-83697146D01*
X96860465Y-83696181D01*
X96870343Y-83696677D01*
X96900233Y-83692278D01*
X96930280Y-83689329D01*
X96958852Y-83680673D01*
X99658352Y-83007708D01*
X99729318Y-83241743D01*
X97109222Y-84175908D01*
X97080349Y-84184655D01*
X97053992Y-84198731D01*
X97026958Y-84211481D01*
X97018753Y-84217552D01*
X97009752Y-84222359D01*
X96986642Y-84241311D01*
X96962621Y-84259084D01*
X96955762Y-84266634D01*
X96947867Y-84273109D01*
X96928895Y-84296210D01*
X96908806Y-84318325D01*
X96903549Y-84327073D01*
X96897073Y-84334959D01*
X96882976Y-84361310D01*
X96867584Y-84386926D01*
X96864135Y-84396531D01*
X96859321Y-84405530D01*
X96850639Y-84434116D01*
X96840536Y-84462251D01*
X96839027Y-84472349D01*
X96836062Y-84482110D01*
X96833123Y-84511846D01*
X96828704Y-84541406D01*
X96829193Y-84551597D01*
X96828189Y-84561756D01*
X96831108Y-84591498D01*
X96832541Y-84621346D01*
X96835010Y-84631251D01*
X96836007Y-84641405D01*
X96844672Y-84670006D01*
X96851901Y-84699004D01*
X96864769Y-84726290D01*
X97365768Y-85936991D01*
X97375795Y-85965115D01*
X97391290Y-85991032D01*
X97405520Y-86017677D01*
X97411791Y-86025324D01*
X97416864Y-86033809D01*
X97437111Y-86056199D01*
X97456270Y-86079561D01*
X97463915Y-86085840D01*
X97470544Y-86093170D01*
X97494769Y-86111179D01*
X97518120Y-86130356D01*
X97526843Y-86135022D01*
X97534775Y-86140919D01*
X97562054Y-86153859D01*
X97588691Y-86168108D01*
X97598154Y-86170982D01*
X97607086Y-86175219D01*
X97636370Y-86182589D01*
X97665270Y-86191367D01*
X97675110Y-86192340D01*
X97684699Y-86194753D01*
X97714869Y-86196269D01*
X97744917Y-86199239D01*
X97754754Y-86198274D01*
X97764632Y-86198770D01*
X97794522Y-86194371D01*
X97824567Y-86191422D01*
X97834025Y-86188556D01*
X97843812Y-86187116D01*
X97872269Y-86176970D01*
X97901163Y-86168216D01*
X97927497Y-86154152D01*
X100443838Y-84967472D01*
X100559099Y-85183165D01*
X98171613Y-86610524D01*
X98144981Y-86624747D01*
X98121860Y-86643709D01*
X98097850Y-86661474D01*
X98090992Y-86669023D01*
X98083096Y-86675499D01*
X98064120Y-86698605D01*
X98044037Y-86720713D01*
X98038783Y-86729456D01*
X98032302Y-86737348D01*
X98018196Y-86763717D01*
X98002814Y-86789315D01*
X97999367Y-86798914D01*
X97994550Y-86807919D01*
X97985862Y-86836523D01*
X97975766Y-86864640D01*
X97974257Y-86874732D01*
X97971291Y-86884499D01*
X97968350Y-86914254D01*
X97963934Y-86943794D01*
X97964423Y-86953979D01*
X97963418Y-86964144D01*
X97966339Y-86993906D01*
X97967771Y-87023736D01*
X97970239Y-87033634D01*
X97971236Y-87043795D01*
X97979906Y-87072413D01*
X97987131Y-87101392D01*
X97991481Y-87110616D01*
X97994442Y-87120390D01*
X98008525Y-87146760D01*
X98021268Y-87173781D01*
X98039217Y-87198039D01*
X98766797Y-88287755D01*
X98782103Y-88313357D01*
X98802336Y-88335731D01*
X98821510Y-88359111D01*
X98829159Y-88365393D01*
X98835784Y-88372719D01*
X98859994Y-88390716D01*
X98883358Y-88409905D01*
X98892087Y-88414574D01*
X98900013Y-88420467D01*
X98927262Y-88433392D01*
X98953929Y-88447658D01*
X98963406Y-88450536D01*
X98972325Y-88454767D01*
X99001567Y-88462127D01*
X99030509Y-88470917D01*
X99040363Y-88471891D01*
X99049939Y-88474301D01*
X99080065Y-88475815D01*
X99110155Y-88478789D01*
X99120006Y-88477822D01*
X99129871Y-88478318D01*
X99159722Y-88473924D01*
X99189806Y-88470972D01*
X99199275Y-88468103D01*
X99209052Y-88466664D01*
X99237491Y-88456524D01*
X99266401Y-88447765D01*
X99275124Y-88443107D01*
X99284437Y-88439786D01*
X99310355Y-88424291D01*
X99336998Y-88410062D01*
X99360091Y-88391123D01*
X101596563Y-86736338D01*
X101751689Y-86925400D01*
X99688533Y-88791115D01*
X99665196Y-88810254D01*
X99646233Y-88833345D01*
X99626135Y-88855469D01*
X99620876Y-88864221D01*
X99614402Y-88872104D01*
X99600308Y-88898449D01*
X99584913Y-88924070D01*
X99581464Y-88933676D01*
X99576650Y-88942674D01*
X99567968Y-88971260D01*
X99557865Y-88999395D01*
X99556355Y-89009494D01*
X99553391Y-89019254D01*
X99550452Y-89048988D01*
X99546033Y-89078549D01*
X99546522Y-89088741D01*
X99545518Y-89098900D01*
X99548437Y-89128643D01*
X99549870Y-89158490D01*
X99552339Y-89168395D01*
X99553336Y-89178550D01*
X99562001Y-89207150D01*
X99569230Y-89236148D01*
X99573582Y-89245377D01*
X99576542Y-89255146D01*
X99590623Y-89281512D01*
X99603367Y-89308535D01*
X99609436Y-89316737D01*
X99614245Y-89325742D01*
X99633198Y-89348852D01*
X99650971Y-89372873D01*
X99673314Y-89393170D01*
X100599497Y-90319993D01*
X100619507Y-90342121D01*
X100643729Y-90360128D01*
X100667083Y-90379307D01*
X100675803Y-90383972D01*
X100683737Y-90389870D01*
X100711019Y-90402811D01*
X100737653Y-90417059D01*
X100747116Y-90419933D01*
X100756048Y-90424170D01*
X100785334Y-90431541D01*
X100814233Y-90440318D01*
X100824073Y-90441291D01*
X100833662Y-90443704D01*
X100863818Y-90445220D01*
X100893879Y-90448191D01*
X100903722Y-90447225D01*
X100913594Y-90447721D01*
X100943475Y-90443323D01*
X100973530Y-90440373D01*
X100982989Y-90437507D01*
X100992774Y-90436067D01*
X101021229Y-90425922D01*
X101050126Y-90417167D01*
X101058845Y-90412510D01*
X101068161Y-90409189D01*
X101094082Y-90393691D01*
X101120722Y-90379464D01*
X101128371Y-90373191D01*
X101136853Y-90368120D01*
X101159247Y-90347870D01*
X101182607Y-90328712D01*
X101201559Y-90305635D01*
X103072226Y-88246330D01*
X103261255Y-88401496D01*
X101601724Y-90633868D01*
X101582572Y-90657187D01*
X101568477Y-90683536D01*
X101553083Y-90709154D01*
X101549633Y-90718762D01*
X101544820Y-90727759D01*
X101536138Y-90756343D01*
X101526035Y-90784479D01*
X101524526Y-90794576D01*
X101521561Y-90804337D01*
X101518621Y-90834075D01*
X101514203Y-90863634D01*
X101514692Y-90873825D01*
X101513688Y-90883984D01*
X101516607Y-90913727D01*
X101518040Y-90943574D01*
X101520509Y-90953479D01*
X101521506Y-90963634D01*
X101530171Y-90992234D01*
X101537400Y-91021232D01*
X101541752Y-91030461D01*
X101544712Y-91040230D01*
X101558792Y-91066595D01*
X101571537Y-91093620D01*
X101577606Y-91101822D01*
X101582415Y-91110827D01*
X101601369Y-91133938D01*
X101619141Y-91157957D01*
X101626696Y-91164820D01*
X101633167Y-91172710D01*
X101656258Y-91191673D01*
X101678382Y-91211771D01*
X101704254Y-91227318D01*
X102793422Y-91955621D01*
X102817398Y-91973445D01*
X102844698Y-91986394D01*
X102871315Y-92000633D01*
X102880772Y-92003506D01*
X102889710Y-92007745D01*
X102919003Y-92015118D01*
X102947894Y-92023893D01*
X102957732Y-92024865D01*
X102967322Y-92027279D01*
X102997493Y-92028795D01*
X103027540Y-92031765D01*
X103037377Y-92030800D01*
X103047255Y-92031296D01*
X103077144Y-92026897D01*
X103107191Y-92023948D01*
X103116650Y-92021082D01*
X103126435Y-92019642D01*
X103154900Y-92009493D01*
X103183787Y-92000741D01*
X103192503Y-91996086D01*
X103201821Y-91992764D01*
X103227752Y-91977261D01*
X103254384Y-91963038D01*
X103262028Y-91956769D01*
X103270515Y-91951695D01*
X103292922Y-91931432D01*
X103316268Y-91912286D01*
X103322540Y-91904649D01*
X103329876Y-91898015D01*
X103347898Y-91873771D01*
X103367062Y-91850437D01*
X103381150Y-91824103D01*
X104814121Y-89439421D01*
X105029788Y-89554728D01*
X103837654Y-92067971D01*
X103823424Y-92094572D01*
X103814740Y-92123163D01*
X103804640Y-92151293D01*
X103803131Y-92161386D01*
X103800165Y-92171152D01*
X103797225Y-92200892D01*
X103792807Y-92230446D01*
X103793296Y-92240638D01*
X103792292Y-92250797D01*
X103795211Y-92280541D01*
X103796644Y-92310387D01*
X103799113Y-92320291D01*
X103800110Y-92330448D01*
X103808776Y-92359051D01*
X103816004Y-92388045D01*
X103820356Y-92397274D01*
X103823316Y-92407043D01*
X103837396Y-92433408D01*
X103850141Y-92460433D01*
X103856210Y-92468635D01*
X103861019Y-92477640D01*
X103879974Y-92500752D01*
X103897745Y-92524771D01*
X103905298Y-92531632D01*
X103911771Y-92539525D01*
X103934880Y-92558503D01*
X103956986Y-92578584D01*
X103965726Y-92583836D01*
X103973620Y-92590319D01*
X103999990Y-92604426D01*
X104025587Y-92619807D01*
X104053970Y-92629998D01*
X105264366Y-93131852D01*
X105291313Y-93144634D01*
X105320571Y-93151998D01*
X105349497Y-93160783D01*
X105359346Y-93161757D01*
X105368927Y-93164168D01*
X105399060Y-93165682D01*
X105429142Y-93168656D01*
X105438992Y-93167689D01*
X105448858Y-93168185D01*
X105478722Y-93163790D01*
X105508794Y-93160838D01*
X105518258Y-93157971D01*
X105528040Y-93156531D01*
X105556487Y-93146389D01*
X105585389Y-93137632D01*
X105594112Y-93132974D01*
X105603425Y-93129653D01*
X105629341Y-93114159D01*
X105655986Y-93099929D01*
X105663634Y-93093657D01*
X105672119Y-93088584D01*
X105694515Y-93068331D01*
X105717871Y-93049177D01*
X105724147Y-93041535D01*
X105731481Y-93034903D01*
X105749498Y-93010666D01*
X105768665Y-92987328D01*
X105773329Y-92978609D01*
X105779228Y-92970674D01*
X105792175Y-92943380D01*
X105806417Y-92916757D01*
X105815090Y-92888202D01*
X106755306Y-90269760D01*
X106989324Y-90340776D01*
X106310409Y-93038292D01*
X106301639Y-93067168D01*
X106298700Y-93096902D01*
X106294281Y-93126464D01*
X106294770Y-93136661D01*
X106293767Y-93146814D01*
X106296685Y-93176551D01*
X106298118Y-93206404D01*
X106300586Y-93216304D01*
X106301583Y-93226463D01*
X106310251Y-93255072D01*
X106317478Y-93284062D01*
X106321830Y-93293291D01*
X106324790Y-93303060D01*
X106338869Y-93329421D01*
X106351615Y-93356450D01*
X106357685Y-93364654D01*
X106362493Y-93373656D01*
X106381445Y-93396765D01*
X106399219Y-93420787D01*
X106406772Y-93427649D01*
X106413245Y-93435541D01*
X106436336Y-93454504D01*
X106458460Y-93474602D01*
X106467212Y-93479861D01*
X106475095Y-93486335D01*
X106501440Y-93500429D01*
X106527061Y-93515824D01*
X106536667Y-93519273D01*
X106545665Y-93524087D01*
X106574251Y-93532769D01*
X106602386Y-93542872D01*
X106632248Y-93547336D01*
X107917228Y-93803396D01*
X107946181Y-93810683D01*
X107976345Y-93812199D01*
X108006397Y-93815169D01*
X108016235Y-93814204D01*
X108026113Y-93814700D01*
X108055992Y-93810302D01*
X108086047Y-93807353D01*
X108095510Y-93804486D01*
X108105293Y-93803046D01*
X108133750Y-93792900D01*
X108162643Y-93784146D01*
X108171360Y-93779491D01*
X108180679Y-93776168D01*
X108206611Y-93760665D01*
X108233240Y-93746443D01*
X108240883Y-93740175D01*
X108249373Y-93735099D01*
X108271792Y-93714826D01*
X108295124Y-93695691D01*
X108301391Y-93688060D01*
X108308735Y-93681419D01*
X108326775Y-93657152D01*
X108345919Y-93633841D01*
X108350579Y-93625130D01*
X108356483Y-93617188D01*
X108369436Y-93589880D01*
X108383671Y-93563271D01*
X108386542Y-93553817D01*
X108390783Y-93544877D01*
X108398160Y-93515567D01*
X108406930Y-93486691D01*
X108409865Y-93456995D01*
X108821182Y-90705437D01*
X109064560Y-90729434D01*
X108924946Y-93507599D01*
X108921981Y-93537601D01*
X108924898Y-93567320D01*
X108926332Y-93597192D01*
X108928802Y-93607099D01*
X108929798Y-93617251D01*
X108938456Y-93645827D01*
X108945690Y-93674848D01*
X108950048Y-93684089D01*
X108953004Y-93693846D01*
X108967070Y-93720184D01*
X108979828Y-93747237D01*
X108985902Y-93755446D01*
X108990707Y-93764443D01*
X109009648Y-93787539D01*
X109027432Y-93811574D01*
X109034989Y-93818439D01*
X109041459Y-93826328D01*
X109064550Y-93845292D01*
X109086673Y-93865388D01*
X109095422Y-93870645D01*
X109103308Y-93877122D01*
X109129652Y-93891215D01*
X109155274Y-93906612D01*
X109164881Y-93910062D01*
X109173879Y-93914875D01*
X109202477Y-93923560D01*
X109230599Y-93933658D01*
X109240691Y-93935167D01*
X109250458Y-93938133D01*
X109280201Y-93941073D01*
X109309754Y-93945491D01*
X109339888Y-93944044D01*
X110650158Y-93944496D01*
X110679974Y-93945994D01*
X110709845Y-93941598D01*
X110739910Y-93938647D01*
X110749375Y-93935779D01*
X110759155Y-93934340D01*
X110787603Y-93924197D01*
X110816505Y-93915441D01*
X110825225Y-93910784D01*
X110834540Y-93907463D01*
X110860463Y-93891965D01*
X110887102Y-93877738D01*
X110894748Y-93871467D01*
X110903234Y-93866394D01*
X110925632Y-93846139D01*
X110948987Y-93826986D01*
X110955262Y-93819345D01*
X110962596Y-93812713D01*
X110980613Y-93788477D01*
X110999781Y-93765137D01*
X111004445Y-93756418D01*
X111010344Y-93748483D01*
X111023286Y-93721198D01*
X111037533Y-93694566D01*
X111040407Y-93685104D01*
X111044644Y-93676171D01*
X111052014Y-93646887D01*
X111060792Y-93617987D01*
X111061765Y-93608147D01*
X111064178Y-93598558D01*
X111065694Y-93568386D01*
X111068664Y-93538340D01*
X111065748Y-93508631D01*
X110932360Y-90729711D01*
X111175743Y-90705767D01*
X111580805Y-93457788D01*
X111583749Y-93487790D01*
X111592407Y-93516368D01*
X111599642Y-93545388D01*
X111603997Y-93554623D01*
X111606955Y-93564386D01*
X111621025Y-93590731D01*
X111633779Y-93617776D01*
X111639853Y-93625986D01*
X111644658Y-93634982D01*
X111663595Y-93658073D01*
X111681383Y-93682114D01*
X111688943Y-93688982D01*
X111695410Y-93696867D01*
X111718490Y-93715821D01*
X111740624Y-93735928D01*
X111749376Y-93741187D01*
X111757259Y-93747661D01*
X111783601Y-93761753D01*
X111809225Y-93777150D01*
X111818833Y-93780600D01*
X111827830Y-93785413D01*
X111856416Y-93794096D01*
X111884550Y-93804198D01*
X111894645Y-93805707D01*
X111904410Y-93808673D01*
X111934147Y-93811612D01*
X111963704Y-93816030D01*
X111973901Y-93815541D01*
X111984055Y-93816544D01*
X112013786Y-93813626D01*
X112043646Y-93812193D01*
X112072937Y-93804891D01*
X113358092Y-93549719D01*
X113387636Y-93545371D01*
X113416081Y-93535229D01*
X113444988Y-93526471D01*
X113453712Y-93521812D01*
X113463023Y-93518492D01*
X113488944Y-93502996D01*
X113515584Y-93488768D01*
X113523227Y-93482500D01*
X113531716Y-93477425D01*
X113554126Y-93457159D01*
X113577469Y-93438016D01*
X113583742Y-93430378D01*
X113591078Y-93423744D01*
X113609095Y-93399508D01*
X113628263Y-93376168D01*
X113632929Y-93367446D01*
X113638826Y-93359513D01*
X113651766Y-93332234D01*
X113666015Y-93305597D01*
X113668889Y-93296134D01*
X113673126Y-93287202D01*
X113680497Y-93257916D01*
X113689274Y-93229017D01*
X113690247Y-93219177D01*
X113692660Y-93209588D01*
X113694176Y-93179420D01*
X113697146Y-93149372D01*
X113696181Y-93139535D01*
X113696677Y-93129656D01*
X113692278Y-93099766D01*
X113689329Y-93069720D01*
X113680673Y-93041148D01*
X113007707Y-90341648D01*
X113241743Y-90270682D01*
X114175913Y-92890797D01*
X114184655Y-92919651D01*
X114198723Y-92945992D01*
X114211480Y-92973042D01*
X114217554Y-92981251D01*
X114222359Y-92990248D01*
X114241301Y-93013346D01*
X114259083Y-93037379D01*
X114266637Y-93044241D01*
X114273109Y-93052133D01*
X114296207Y-93071102D01*
X114318324Y-93091193D01*
X114327072Y-93096450D01*
X114334959Y-93102927D01*
X114361307Y-93117022D01*
X114386925Y-93132416D01*
X114396532Y-93135866D01*
X114405530Y-93140679D01*
X114434121Y-93149363D01*
X114462250Y-93159463D01*
X114472345Y-93160972D01*
X114482110Y-93163938D01*
X114511850Y-93166878D01*
X114541405Y-93171296D01*
X114551596Y-93170807D01*
X114561756Y-93171811D01*
X114591511Y-93168890D01*
X114621346Y-93167458D01*
X114631245Y-93164990D01*
X114641405Y-93163993D01*
X114670013Y-93155326D01*
X114699004Y-93148099D01*
X114726290Y-93135231D01*
X115936991Y-92634232D01*
X115965115Y-92624205D01*
X115991032Y-92608710D01*
X116017677Y-92594480D01*
X116025324Y-92588209D01*
X116033809Y-92583136D01*
X116056199Y-92562889D01*
X116079561Y-92543730D01*
X116085840Y-92536085D01*
X116093170Y-92529456D01*
X116111179Y-92505231D01*
X116130356Y-92481880D01*
X116135022Y-92473157D01*
X116140919Y-92465225D01*
X116153859Y-92437946D01*
X116168108Y-92411309D01*
X116170982Y-92401846D01*
X116175219Y-92392914D01*
X116182589Y-92363630D01*
X116191367Y-92334730D01*
X116192340Y-92324890D01*
X116194753Y-92315301D01*
X116196269Y-92285131D01*
X116199239Y-92255083D01*
X116198274Y-92245246D01*
X116198770Y-92235367D01*
X116194370Y-92205475D01*
X116191422Y-92175433D01*
X116188557Y-92165976D01*
X116187116Y-92156187D01*
X116176968Y-92127724D01*
X116168216Y-92098837D01*
X116154156Y-92072511D01*
X114967471Y-89556162D01*
X115183165Y-89440901D01*
X116610532Y-91828403D01*
X116624747Y-91855019D01*
X116643699Y-91878128D01*
X116661473Y-91902150D01*
X116669026Y-91909012D01*
X116675499Y-91916904D01*
X116698594Y-91935871D01*
X116720713Y-91955964D01*
X116729461Y-91961221D01*
X116737348Y-91967698D01*
X116763696Y-91981793D01*
X116789314Y-91997187D01*
X116798921Y-92000637D01*
X116807919Y-92005450D01*
X116836510Y-92014134D01*
X116864639Y-92024234D01*
X116874733Y-92025743D01*
X116884499Y-92028709D01*
X116914252Y-92031650D01*
X116943794Y-92036066D01*
X116953979Y-92035577D01*
X116964144Y-92036582D01*
X116993906Y-92033661D01*
X117023736Y-92032229D01*
X117033635Y-92029761D01*
X117043795Y-92028764D01*
X117072401Y-92020097D01*
X117101392Y-92012870D01*
X117110621Y-92008518D01*
X117120390Y-92005558D01*
X117146754Y-91991478D01*
X117173781Y-91978732D01*
X117198045Y-91960779D01*
X118287755Y-91233203D01*
X118313357Y-91217897D01*
X118335731Y-91197664D01*
X118359111Y-91178490D01*
X118365393Y-91170841D01*
X118372719Y-91164216D01*
X118390716Y-91140006D01*
X118409905Y-91116642D01*
X118414574Y-91107913D01*
X118420467Y-91099987D01*
X118433392Y-91072738D01*
X118447658Y-91046071D01*
X118450536Y-91036594D01*
X118454767Y-91027675D01*
X118462127Y-90998433D01*
X118470917Y-90969491D01*
X118471891Y-90959637D01*
X118474301Y-90950061D01*
X118475815Y-90919935D01*
X118478789Y-90889845D01*
X118477822Y-90879994D01*
X118478318Y-90870128D01*
X118473924Y-90840275D01*
X118470972Y-90810194D01*
X118468103Y-90800726D01*
X118466664Y-90790947D01*
X118456522Y-90762502D01*
X118447765Y-90733599D01*
X118443108Y-90724878D01*
X118439786Y-90715562D01*
X118424286Y-90689635D01*
X118410062Y-90663002D01*
X118391130Y-90639918D01*
X116736337Y-88403438D01*
X116925400Y-88248311D01*
X118791125Y-90311479D01*
X118810254Y-90334804D01*
X118833340Y-90353763D01*
X118855468Y-90373864D01*
X118864220Y-90379123D01*
X118872104Y-90385598D01*
X118898440Y-90399687D01*
X118924068Y-90415087D01*
X118933679Y-90418538D01*
X118942674Y-90423350D01*
X118971251Y-90432030D01*
X118999394Y-90442135D01*
X119009495Y-90443645D01*
X119019254Y-90446609D01*
X119048985Y-90449548D01*
X119078548Y-90453967D01*
X119088741Y-90453478D01*
X119098900Y-90454482D01*
X119128643Y-90451563D01*
X119158490Y-90450130D01*
X119168395Y-90447661D01*
X119178550Y-90446664D01*
X119207150Y-90437999D01*
X119236148Y-90430770D01*
X119245377Y-90426418D01*
X119255146Y-90423458D01*
X119281512Y-90409377D01*
X119308535Y-90396633D01*
X119316737Y-90390564D01*
X119325742Y-90385755D01*
X119348852Y-90366802D01*
X119372873Y-90349029D01*
X119393166Y-90326690D01*
X120319993Y-89400503D01*
X120342121Y-89380493D01*
X120360125Y-89356274D01*
X120379307Y-89332917D01*
X120383974Y-89324194D01*
X120389870Y-89316262D01*
X120402808Y-89288986D01*
X120417059Y-89262347D01*
X120419933Y-89252884D01*
X120424170Y-89243952D01*
X120431541Y-89214666D01*
X120440318Y-89185767D01*
X120441291Y-89175927D01*
X120443704Y-89166338D01*
X120445219Y-89136182D01*
X120448191Y-89106121D01*
X120447225Y-89096278D01*
X120447721Y-89086405D01*
X120443323Y-89056528D01*
X120440373Y-89026470D01*
X120437506Y-89017007D01*
X120436066Y-89007224D01*
X120425924Y-88978778D01*
X120417167Y-88949874D01*
X120412509Y-88941152D01*
X120409188Y-88931838D01*
X120393690Y-88905915D01*
X120379464Y-88879278D01*
X120373195Y-88871634D01*
X120368120Y-88863145D01*
X120347856Y-88840737D01*
X120328712Y-88817393D01*
X120305646Y-88798450D01*
X118246329Y-86927775D01*
X118401497Y-86738744D01*
X120633877Y-88398284D01*
X120657187Y-88417428D01*
X120683532Y-88431521D01*
X120709154Y-88446917D01*
X120718762Y-88450367D01*
X120727759Y-88455180D01*
X120756339Y-88463861D01*
X120784478Y-88473965D01*
X120794577Y-88475475D01*
X120804337Y-88478439D01*
X120834072Y-88481378D01*
X120863633Y-88485797D01*
X120873825Y-88485308D01*
X120883984Y-88486312D01*
X120913726Y-88483393D01*
X120943575Y-88481960D01*
X120953481Y-88479491D01*
X120963634Y-88478494D01*
X120992221Y-88469833D01*
X121021232Y-88462601D01*
X121030467Y-88458246D01*
X121040230Y-88455288D01*
X121066589Y-88441211D01*
X121093620Y-88428463D01*
X121101822Y-88422394D01*
X121110827Y-88417585D01*
X121133938Y-88398631D01*
X121157957Y-88380859D01*
X121164821Y-88373303D01*
X121172710Y-88366833D01*
X121191668Y-88343749D01*
X121211772Y-88321618D01*
X121227324Y-88295737D01*
X121955621Y-87206578D01*
X121973445Y-87182602D01*
X121986394Y-87155302D01*
X122000633Y-87128685D01*
X122003506Y-87119228D01*
X122007745Y-87110290D01*
X122015118Y-87080997D01*
X122023893Y-87052106D01*
X122024865Y-87042268D01*
X122027279Y-87032678D01*
X122028795Y-87002507D01*
X122031765Y-86972460D01*
X122030800Y-86962623D01*
X122031296Y-86952744D01*
X122026897Y-86922853D01*
X122023948Y-86892809D01*
X122021083Y-86883351D01*
X122019642Y-86873564D01*
X122009491Y-86845094D01*
X122000741Y-86816213D01*
X121996087Y-86807499D01*
X121992764Y-86798178D01*
X121977256Y-86772239D01*
X121963038Y-86745616D01*
X121956771Y-86737974D01*
X121951695Y-86729484D01*
X121931424Y-86707067D01*
X121912286Y-86683732D01*
X121904652Y-86677463D01*
X121898015Y-86670123D01*
X121873758Y-86652091D01*
X121850437Y-86632938D01*
X121824118Y-86618858D01*
X119439421Y-85185880D01*
X119554728Y-84970211D01*
X122067979Y-86162350D01*
X122094572Y-86176576D01*
X122123147Y-86185255D01*
X122151292Y-86195361D01*
X122161393Y-86196871D01*
X122171152Y-86199835D01*
X122200882Y-86202774D01*
X122230445Y-86207193D01*
X122240638Y-86206704D01*
X122250797Y-86207708D01*
X122280540Y-86204789D01*
X122310388Y-86203356D01*
X122320293Y-86200887D01*
X122330448Y-86199890D01*
X122359037Y-86191228D01*
X122388045Y-86183997D01*
X122397279Y-86179642D01*
X122407043Y-86176684D01*
X122433402Y-86162607D01*
X122460433Y-86149859D01*
X122468635Y-86143790D01*
X122477640Y-86138981D01*
X122500752Y-86120026D01*
X122524771Y-86102255D01*
X122531632Y-86094702D01*
X122539525Y-86088229D01*
X122558498Y-86065127D01*
X122578584Y-86043015D01*
X122583838Y-86034271D01*
X122590319Y-86026380D01*
X122604419Y-86000023D01*
X122619808Y-85974413D01*
X122630007Y-85946010D01*
X123131852Y-84735634D01*
X123144634Y-84708687D01*
X123151998Y-84679429D01*
X123160783Y-84650503D01*
X123161757Y-84640654D01*
X123164168Y-84631073D01*
X123165682Y-84600940D01*
X123168656Y-84570858D01*
X123167689Y-84561008D01*
X123168185Y-84551141D01*
X123163789Y-84521275D01*
X123160838Y-84491206D01*
X123157971Y-84481743D01*
X123156531Y-84471959D01*
X123146387Y-84443507D01*
X123137632Y-84414611D01*
X123132975Y-84405890D01*
X123129653Y-84396574D01*
X123114154Y-84370650D01*
X123099929Y-84344014D01*
X123093659Y-84336368D01*
X123088584Y-84327880D01*
X123068322Y-84305474D01*
X123049177Y-84282129D01*
X123041539Y-84275856D01*
X123034903Y-84268518D01*
X123010657Y-84250494D01*
X122987328Y-84231335D01*
X122978611Y-84226672D01*
X122970673Y-84220771D01*
X122943367Y-84207818D01*
X122916757Y-84193583D01*
X122888220Y-84184916D01*
X120269760Y-83244694D01*
X120340776Y-83010675D01*
X123038292Y-83689591D01*
X123067168Y-83698361D01*
X123096901Y-83701300D01*
X123126463Y-83705719D01*
X123136661Y-83705230D01*
X123146814Y-83706233D01*
X123176551Y-83703315D01*
X123206405Y-83701882D01*
X123216307Y-83699414D01*
X123226463Y-83698417D01*
X123255059Y-83689753D01*
X123284062Y-83682523D01*
X123293296Y-83678168D01*
X123303060Y-83675210D01*
X123329415Y-83661134D01*
X123356450Y-83648385D01*
X123364655Y-83642314D01*
X123373656Y-83637507D01*
X123396759Y-83618560D01*
X123420788Y-83600781D01*
X123427652Y-83593225D01*
X123435541Y-83586755D01*
X123454501Y-83563668D01*
X123474602Y-83541540D01*
X123479861Y-83532788D01*
X123486335Y-83524905D01*
X123500425Y-83498566D01*
X123515824Y-83472940D01*
X123519274Y-83463332D01*
X123524087Y-83454335D01*
X123532768Y-83425751D01*
X123542872Y-83397614D01*
X123547336Y-83367752D01*
X123803397Y-82082765D01*
X123810683Y-82053819D01*
X123812198Y-82023663D01*
X123815169Y-81993603D01*
X123814203Y-81983759D01*
X123814699Y-81973886D01*
X123810304Y-81944025D01*
X123807353Y-81913953D01*
X123804484Y-81904484D01*
X123803045Y-81894706D01*
X123792904Y-81866262D01*
X123784146Y-81837357D01*
X123779489Y-81828636D01*
X123776167Y-81819320D01*
X123760665Y-81793390D01*
X123746443Y-81766760D01*
X123740176Y-81759119D01*
X123735099Y-81750626D01*
X123714821Y-81728202D01*
X123695691Y-81704876D01*
X123688060Y-81698609D01*
X123681418Y-81691264D01*
X123657145Y-81673220D01*
X123633841Y-81654081D01*
X123625135Y-81649423D01*
X123617188Y-81643516D01*
X123589864Y-81630555D01*
X123563271Y-81616329D01*
X123553823Y-81613459D01*
X123544877Y-81609216D01*
X123515550Y-81601835D01*
X123486691Y-81593070D01*
X123457011Y-81590137D01*
X120705437Y-81178818D01*
X120729434Y-80935440D01*
X123507600Y-81075054D01*
X123537601Y-81078019D01*
X123567320Y-81075102D01*
X123597192Y-81073668D01*
X123607099Y-81071198D01*
X123617251Y-81070202D01*
X123645827Y-81061544D01*
X123674848Y-81054310D01*
X123684089Y-81049952D01*
X123693846Y-81046996D01*
X123720184Y-81032930D01*
X123747237Y-81020172D01*
X123755446Y-81014098D01*
X123764443Y-81009293D01*
X123787539Y-80990352D01*
X123811574Y-80972568D01*
X123818439Y-80965011D01*
X123826328Y-80958541D01*
X123845292Y-80935450D01*
X123865388Y-80913327D01*
X123870645Y-80904579D01*
X123877122Y-80896692D01*
X123891220Y-80870339D01*
X123906611Y-80844726D01*
X123910059Y-80835124D01*
X123914875Y-80826121D01*
X123923563Y-80797517D01*
X123933658Y-80769401D01*
X123935167Y-80759309D01*
X123938133Y-80749542D01*
X123941073Y-80719799D01*
X123945491Y-80690246D01*
X123944044Y-80660111D01*
X123944496Y-79349842D01*
X123945994Y-79320026D01*
X123941598Y-79290155D01*
X123938647Y-79260090D01*
X123935779Y-79250625D01*
X123934340Y-79240845D01*
X123924197Y-79212397D01*
X123915441Y-79183495D01*
X123910784Y-79174775D01*
X123907463Y-79165460D01*
X123891965Y-79139537D01*
X123877738Y-79112898D01*
X123871467Y-79105252D01*
X123866394Y-79096766D01*
X123846139Y-79074368D01*
X123826986Y-79051013D01*
X123819345Y-79044738D01*
X123812713Y-79037404D01*
X123788477Y-79019387D01*
X123765137Y-79000219D01*
X123756418Y-78995555D01*
X123748483Y-78989656D01*
X123721198Y-78976714D01*
X123694566Y-78962467D01*
X123685104Y-78959593D01*
X123676171Y-78955356D01*
X123646887Y-78947986D01*
X123617987Y-78939208D01*
X123608147Y-78938235D01*
X123598558Y-78935822D01*
X123568386Y-78934306D01*
X123538340Y-78931336D01*
X123508631Y-78934252D01*
X120729712Y-79067640D01*
X120705767Y-78824257D01*
X123457789Y-78419195D01*
X123487790Y-78416251D01*
X123516368Y-78407593D01*
X123545388Y-78400358D01*
X123554623Y-78396003D01*
X123564386Y-78393045D01*
X123590731Y-78378975D01*
X123617776Y-78366221D01*
X123625986Y-78360147D01*
X123634982Y-78355342D01*
X123658073Y-78336405D01*
X123682114Y-78318617D01*
X123688982Y-78311057D01*
X123696867Y-78304590D01*
X123715821Y-78281510D01*
X123735928Y-78259376D01*
X123741187Y-78250624D01*
X123747661Y-78242741D01*
X123761753Y-78216399D01*
X123777150Y-78190775D01*
X123780600Y-78181167D01*
X123785413Y-78172170D01*
X123794096Y-78143584D01*
X123804198Y-78115450D01*
X123805707Y-78105355D01*
X123808673Y-78095590D01*
X123811612Y-78065853D01*
X123816030Y-78036296D01*
X123815541Y-78026099D01*
X123816544Y-78015945D01*
X123813626Y-77986213D01*
X123812193Y-77956354D01*
X123804892Y-77927067D01*
X123549719Y-76641908D01*
X123545371Y-76612364D01*
X123535229Y-76583919D01*
X123526471Y-76555012D01*
X123521812Y-76546288D01*
X123518492Y-76536977D01*
X123502996Y-76511056D01*
X123488768Y-76484416D01*
X123482500Y-76476773D01*
X123477425Y-76468284D01*
X123457159Y-76445874D01*
X123438016Y-76422531D01*
X123430379Y-76416259D01*
X123423744Y-76408922D01*
X123399501Y-76390900D01*
X123376167Y-76371737D01*
X123367448Y-76367073D01*
X123359513Y-76361174D01*
X123332225Y-76348230D01*
X123305596Y-76333985D01*
X123296136Y-76331112D01*
X123287202Y-76326874D01*
X123257922Y-76319505D01*
X123229016Y-76310725D01*
X123219172Y-76309752D01*
X123209588Y-76307340D01*
X123179426Y-76305824D01*
X123149371Y-76302854D01*
X123139534Y-76303819D01*
X123129656Y-76303323D01*
X123099767Y-76307722D01*
X123069720Y-76310671D01*
X123041148Y-76319327D01*
X119947331Y-77090593D01*
X119890827Y-77110739D01*
X119822134Y-77151806D01*
X119762772Y-77205488D01*
X119715024Y-77269718D01*
X119680724Y-77342029D01*
X119661190Y-77419643D01*
X119657173Y-77499574D01*
X119668827Y-77578755D01*
X119695706Y-77654142D01*
X119736773Y-77722835D01*
X119790455Y-77782197D01*
X119854685Y-77829945D01*
X119926996Y-77864245D01*
X120004610Y-77883779D01*
X120084541Y-77887796D01*
X120143890Y-77879061D01*
X122833756Y-77208498D01*
X122926585Y-77676026D01*
X120233778Y-78072373D01*
X120223533Y-78072372D01*
X120194298Y-78078184D01*
X120184604Y-78079611D01*
X120174695Y-78082081D01*
X120145035Y-78087978D01*
X120135946Y-78091742D01*
X120126398Y-78094122D01*
X120099037Y-78107025D01*
X120071091Y-78118597D01*
X120062911Y-78124061D01*
X120054010Y-78128259D01*
X120029686Y-78146257D01*
X120004540Y-78163055D01*
X119997584Y-78170010D01*
X119989673Y-78175863D01*
X119969336Y-78198251D01*
X119947941Y-78219641D01*
X119942472Y-78227824D01*
X119935859Y-78235104D01*
X119920281Y-78261028D01*
X119903470Y-78286182D01*
X119899704Y-78295271D01*
X119894636Y-78303705D01*
X119884411Y-78332181D01*
X119872834Y-78360121D01*
X119870914Y-78369767D01*
X119867588Y-78379030D01*
X119863115Y-78408956D01*
X119857212Y-78438614D01*
X119857211Y-78448451D01*
X119855756Y-78458184D01*
X119857206Y-78488398D01*
X119857205Y-78498601D01*
X119858164Y-78508344D01*
X119859593Y-78538125D01*
X119862072Y-78548068D01*
X119955899Y-79501753D01*
X119955405Y-79511574D01*
X119959807Y-79541480D01*
X119960806Y-79551634D01*
X119962715Y-79561237D01*
X119967060Y-79590755D01*
X119970504Y-79600413D01*
X119972503Y-79610471D01*
X119983916Y-79638034D01*
X119993937Y-79666140D01*
X119999200Y-79674942D01*
X120003122Y-79684415D01*
X120019693Y-79709221D01*
X120035006Y-79734834D01*
X120041885Y-79742441D01*
X120047580Y-79750966D01*
X120068672Y-79772063D01*
X120088687Y-79794196D01*
X120096916Y-79800313D01*
X120104166Y-79807565D01*
X120128971Y-79824143D01*
X120152917Y-79841944D01*
X120162183Y-79846339D01*
X120170707Y-79852036D01*
X120198266Y-79863455D01*
X120225228Y-79876244D01*
X120235173Y-79878747D01*
X120244646Y-79882672D01*
X120273906Y-79888496D01*
X120302841Y-79895778D01*
X120313083Y-79896293D01*
X120323138Y-79898294D01*
X120352970Y-79898297D01*
X120362753Y-79898789D01*
X120372949Y-79898300D01*
X120403173Y-79898303D01*
X120412815Y-79896386D01*
X123131753Y-79765877D01*
X123131589Y-80242533D01*
X120413211Y-80105924D01*
X120403151Y-80103922D01*
X120373309Y-80103919D01*
X120363558Y-80103429D01*
X120353394Y-80103917D01*
X120323116Y-80103914D01*
X120313454Y-80105835D01*
X120303640Y-80106306D01*
X120274324Y-80113614D01*
X120244620Y-80119519D01*
X120235522Y-80123286D01*
X120225984Y-80125664D01*
X120198644Y-80138557D01*
X120170675Y-80150139D01*
X120162488Y-80155608D01*
X120153595Y-80159802D01*
X120129297Y-80177781D01*
X120104125Y-80194596D01*
X120097161Y-80201558D01*
X120089258Y-80207406D01*
X120068935Y-80229779D01*
X120047526Y-80251183D01*
X120042054Y-80259370D01*
X120035444Y-80266647D01*
X120019874Y-80292558D01*
X120003054Y-80317724D01*
X119999287Y-80326817D01*
X119994220Y-80335248D01*
X119984001Y-80363709D01*
X119972419Y-80391662D01*
X119970498Y-80401317D01*
X119967174Y-80410573D01*
X119962703Y-80440484D01*
X119960710Y-80450496D01*
X119959749Y-80460239D01*
X119955341Y-80489728D01*
X119955832Y-80499964D01*
X119861802Y-81453626D01*
X119859402Y-81463163D01*
X119857884Y-81493363D01*
X119856884Y-81503508D01*
X119856883Y-81513290D01*
X119855385Y-81543095D01*
X119856878Y-81553240D01*
X119856877Y-81563495D01*
X119862695Y-81592761D01*
X119867039Y-81622275D01*
X119870482Y-81631932D01*
X119872482Y-81641992D01*
X119883899Y-81669564D01*
X119893917Y-81697661D01*
X119899178Y-81706461D01*
X119903102Y-81715937D01*
X119919677Y-81740748D01*
X119934986Y-81766355D01*
X119941865Y-81773962D01*
X119947560Y-81782487D01*
X119968646Y-81803577D01*
X119988666Y-81825717D01*
X119996899Y-81831837D01*
X120004146Y-81839086D01*
X120028953Y-81855665D01*
X120052897Y-81873465D01*
X120062159Y-81877858D01*
X120070687Y-81883558D01*
X120098259Y-81894982D01*
X120125208Y-81907765D01*
X120135150Y-81910267D01*
X120144625Y-81914193D01*
X120173890Y-81920017D01*
X120183381Y-81922406D01*
X120193471Y-81923914D01*
X120223120Y-81929815D01*
X120232952Y-81929816D01*
X122925106Y-82332253D01*
X122831954Y-82799718D01*
X120192450Y-82135404D01*
X120182983Y-82131481D01*
X120153741Y-82125661D01*
X120144248Y-82123272D01*
X120134156Y-82121763D01*
X120104489Y-82115859D01*
X120094651Y-82115858D01*
X120084919Y-82114403D01*
X120054701Y-82115853D01*
X120024455Y-82115850D01*
X120014805Y-82117768D01*
X120004979Y-82118240D01*
X119975640Y-82125554D01*
X119945957Y-82131455D01*
X119936860Y-82135222D01*
X119927321Y-82137600D01*
X119899978Y-82150495D01*
X119872012Y-82162075D01*
X119863827Y-82167543D01*
X119854933Y-82171737D01*
X119830630Y-82189719D01*
X119805462Y-82206532D01*
X119798500Y-82213493D01*
X119790596Y-82219341D01*
X119770263Y-82241725D01*
X119748864Y-82263119D01*
X119743398Y-82271298D01*
X119736781Y-82278582D01*
X119721198Y-82304516D01*
X119704393Y-82329660D01*
X119700627Y-82338748D01*
X119695559Y-82347183D01*
X119685332Y-82375665D01*
X119681431Y-82385079D01*
X119678593Y-82394431D01*
X119668511Y-82422508D01*
X119666995Y-82432650D01*
X119388722Y-83349638D01*
X119384508Y-83358522D01*
X119377130Y-83387838D01*
X119374167Y-83397601D01*
X119372257Y-83407200D01*
X119364974Y-83436136D01*
X119364459Y-83446380D01*
X119362458Y-83456435D01*
X119362455Y-83486267D01*
X119360957Y-83516067D01*
X119362450Y-83526212D01*
X119362449Y-83536467D01*
X119368267Y-83565731D01*
X119372611Y-83595249D01*
X119376055Y-83604907D01*
X119378054Y-83614965D01*
X119389470Y-83642535D01*
X119399489Y-83670634D01*
X119404750Y-83679434D01*
X119408674Y-83688910D01*
X119425249Y-83713721D01*
X119440558Y-83739328D01*
X119447437Y-83746935D01*
X119453132Y-83755460D01*
X119474224Y-83776557D01*
X119494239Y-83798690D01*
X119502468Y-83804807D01*
X119509718Y-83812059D01*
X119534526Y-83828639D01*
X119558468Y-83846437D01*
X119567733Y-83850832D01*
X119576259Y-83856530D01*
X119603816Y-83867948D01*
X119612668Y-83872147D01*
X119622280Y-83875599D01*
X119650198Y-83887166D01*
X119659838Y-83889085D01*
X122221754Y-84809004D01*
X122039194Y-85249312D01*
X119580009Y-84082821D01*
X119571490Y-84077127D01*
X119543944Y-84065714D01*
X119535099Y-84061518D01*
X119525500Y-84058071D01*
X119497551Y-84046491D01*
X119487896Y-84044569D01*
X119478640Y-84041246D01*
X119448731Y-84036775D01*
X119419057Y-84030869D01*
X119409219Y-84030868D01*
X119399487Y-84029413D01*
X119369269Y-84030863D01*
X119339023Y-84030860D01*
X119329374Y-84032778D01*
X119319546Y-84033250D01*
X119290191Y-84040568D01*
X119260525Y-84046466D01*
X119251435Y-84050230D01*
X119241888Y-84052610D01*
X119214531Y-84065511D01*
X119186580Y-84077085D01*
X119178398Y-84082551D01*
X119169500Y-84086747D01*
X119145181Y-84104741D01*
X119120029Y-84121543D01*
X119113073Y-84128498D01*
X119105162Y-84134351D01*
X119084817Y-84156748D01*
X119063432Y-84178129D01*
X119057966Y-84186307D01*
X119051349Y-84193592D01*
X119035764Y-84219527D01*
X119030099Y-84228004D01*
X119025488Y-84236629D01*
X119010126Y-84262193D01*
X119006662Y-84271840D01*
X118554838Y-85116925D01*
X118548972Y-85124816D01*
X118536019Y-85152124D01*
X118531206Y-85161126D01*
X118527457Y-85170175D01*
X118514672Y-85197128D01*
X118512170Y-85207071D01*
X118508244Y-85216545D01*
X118502420Y-85245806D01*
X118495138Y-85274740D01*
X118494623Y-85284983D01*
X118492622Y-85295038D01*
X118492619Y-85324872D01*
X118491121Y-85354673D01*
X118492614Y-85364818D01*
X118492613Y-85375072D01*
X118498431Y-85404337D01*
X118502775Y-85433853D01*
X118506218Y-85443510D01*
X118508218Y-85453570D01*
X118519635Y-85481142D01*
X118529653Y-85509239D01*
X118534914Y-85518039D01*
X118538838Y-85527515D01*
X118555415Y-85552330D01*
X118570722Y-85577933D01*
X118577599Y-85585537D01*
X118583296Y-85594066D01*
X118604390Y-85615164D01*
X118624402Y-85637294D01*
X118632634Y-85643414D01*
X118639882Y-85650663D01*
X118664683Y-85667239D01*
X118672545Y-85673083D01*
X118681295Y-85678341D01*
X118706423Y-85695135D01*
X118715506Y-85698898D01*
X121048725Y-87100945D01*
X120783774Y-87497178D01*
X118599405Y-85873331D01*
X118592168Y-85866092D01*
X118567405Y-85849542D01*
X118559522Y-85843682D01*
X118550747Y-85838409D01*
X118525626Y-85821620D01*
X118516545Y-85817857D01*
X118508104Y-85812785D01*
X118479612Y-85802554D01*
X118451689Y-85790984D01*
X118442047Y-85789065D01*
X118432779Y-85785737D01*
X118402833Y-85781261D01*
X118373194Y-85775362D01*
X118363364Y-85775361D01*
X118353624Y-85773905D01*
X118323386Y-85775356D01*
X118293160Y-85775353D01*
X118283517Y-85777270D01*
X118273684Y-85777742D01*
X118244313Y-85785064D01*
X118214662Y-85790959D01*
X118205577Y-85794721D01*
X118196026Y-85797102D01*
X118168659Y-85810008D01*
X118140717Y-85821578D01*
X118132538Y-85827042D01*
X118123638Y-85831239D01*
X118099313Y-85849238D01*
X118074167Y-85866036D01*
X118067212Y-85872990D01*
X118059301Y-85878843D01*
X118038958Y-85901237D01*
X118031745Y-85908449D01*
X118025535Y-85916014D01*
X118005487Y-85938084D01*
X118000209Y-85946867D01*
X117392193Y-86687575D01*
X117384904Y-86694166D01*
X117366875Y-86718417D01*
X117360395Y-86726312D01*
X117354952Y-86734456D01*
X117337155Y-86758396D01*
X117332760Y-86767662D01*
X117327063Y-86776186D01*
X117315643Y-86803747D01*
X117302855Y-86830707D01*
X117300353Y-86840650D01*
X117296427Y-86850124D01*
X117290603Y-86879388D01*
X117283321Y-86908321D01*
X117282806Y-86918563D01*
X117280805Y-86928619D01*
X117280802Y-86958452D01*
X117279304Y-86988253D01*
X117280797Y-86998398D01*
X117280796Y-87008652D01*
X117286614Y-87037915D01*
X117290958Y-87067433D01*
X117294402Y-87077092D01*
X117296401Y-87087149D01*
X117307815Y-87114714D01*
X117317836Y-87142820D01*
X117323098Y-87151621D01*
X117327021Y-87161095D01*
X117343601Y-87185914D01*
X117358905Y-87211512D01*
X117365778Y-87219113D01*
X117371478Y-87227645D01*
X117392579Y-87248750D01*
X117399140Y-87256006D01*
X117406689Y-87262864D01*
X117428065Y-87284244D01*
X117436240Y-87289708D01*
X119451101Y-89120002D01*
X119113939Y-89456932D01*
X117288350Y-87438149D01*
X117282655Y-87429623D01*
X117261565Y-87408529D01*
X117255008Y-87401278D01*
X117247462Y-87394423D01*
X117226068Y-87373025D01*
X117217888Y-87367558D01*
X117210605Y-87360942D01*
X117184687Y-87345368D01*
X117159528Y-87328553D01*
X117150432Y-87324784D01*
X117142004Y-87319720D01*
X117113543Y-87309500D01*
X117085589Y-87297918D01*
X117075940Y-87295998D01*
X117066679Y-87292672D01*
X117036764Y-87288200D01*
X117007094Y-87282295D01*
X116997252Y-87282294D01*
X116987525Y-87280840D01*
X116957315Y-87282290D01*
X116927061Y-87282287D01*
X116917411Y-87284205D01*
X116907584Y-87284677D01*
X116878243Y-87291992D01*
X116848562Y-87297892D01*
X116839466Y-87301659D01*
X116829926Y-87304037D01*
X116802582Y-87316932D01*
X116774618Y-87328512D01*
X116766433Y-87333980D01*
X116757539Y-87338174D01*
X116733237Y-87356155D01*
X116724736Y-87361834D01*
X116717154Y-87368055D01*
X116693201Y-87385778D01*
X116686314Y-87393359D01*
X115945475Y-88001218D01*
X115937038Y-88006262D01*
X115914622Y-88026533D01*
X115906729Y-88033009D01*
X115899804Y-88039932D01*
X115877676Y-88059943D01*
X115871556Y-88068175D01*
X115864307Y-88075423D01*
X115847737Y-88100216D01*
X115829928Y-88124172D01*
X115825531Y-88133442D01*
X115819836Y-88141963D01*
X115808418Y-88169519D01*
X115795628Y-88196484D01*
X115793125Y-88206429D01*
X115789200Y-88215902D01*
X115783377Y-88245162D01*
X115776094Y-88274098D01*
X115775579Y-88284341D01*
X115773578Y-88294396D01*
X115773575Y-88324229D01*
X115772077Y-88354030D01*
X115773570Y-88364175D01*
X115773569Y-88374429D01*
X115779386Y-88403692D01*
X115783731Y-88433211D01*
X115787175Y-88442869D01*
X115789174Y-88452927D01*
X115800589Y-88480494D01*
X115810609Y-88508596D01*
X115815871Y-88517398D01*
X115819794Y-88526871D01*
X115836363Y-88551674D01*
X115841391Y-88560084D01*
X115847467Y-88568296D01*
X115864252Y-88593422D01*
X115871200Y-88600372D01*
X117490277Y-90788583D01*
X117093862Y-91053261D01*
X115697191Y-88717106D01*
X115693272Y-88707641D01*
X115676714Y-88682855D01*
X115671687Y-88674446D01*
X115665614Y-88666239D01*
X115648815Y-88641091D01*
X115641859Y-88634134D01*
X115636006Y-88626223D01*
X115613615Y-88605883D01*
X115592229Y-88584492D01*
X115584049Y-88579025D01*
X115576767Y-88572410D01*
X115550836Y-88556828D01*
X115525688Y-88540021D01*
X115516599Y-88536255D01*
X115508165Y-88531187D01*
X115479689Y-88520962D01*
X115451749Y-88509385D01*
X115442103Y-88507465D01*
X115432840Y-88504139D01*
X115402911Y-88499665D01*
X115373255Y-88493763D01*
X115363419Y-88493762D01*
X115353686Y-88492307D01*
X115323468Y-88493757D01*
X115293220Y-88493754D01*
X115283571Y-88495672D01*
X115273744Y-88496144D01*
X115244391Y-88503462D01*
X115214724Y-88509360D01*
X115205633Y-88513124D01*
X115196088Y-88515504D01*
X115168739Y-88528401D01*
X115159299Y-88532310D01*
X115150654Y-88536929D01*
X115123699Y-88549641D01*
X115115464Y-88555734D01*
X114270279Y-89007379D01*
X114261016Y-89010682D01*
X114235066Y-89026196D01*
X114226071Y-89031003D01*
X114217934Y-89036439D01*
X114192322Y-89051751D01*
X114184715Y-89058630D01*
X114176190Y-89064325D01*
X114155094Y-89085416D01*
X114132961Y-89105431D01*
X114126843Y-89113660D01*
X114119591Y-89120911D01*
X114103008Y-89145723D01*
X114085212Y-89169662D01*
X114080819Y-89178924D01*
X114075119Y-89187452D01*
X114063695Y-89215024D01*
X114050912Y-89241973D01*
X114048410Y-89251915D01*
X114044484Y-89261390D01*
X114038661Y-89290651D01*
X114031378Y-89319586D01*
X114030863Y-89329830D01*
X114028862Y-89339885D01*
X114028859Y-89369718D01*
X114027361Y-89399519D01*
X114028854Y-89409664D01*
X114028853Y-89419918D01*
X114034669Y-89449174D01*
X114039015Y-89478699D01*
X114042460Y-89488363D01*
X114044459Y-89498415D01*
X114055871Y-89525975D01*
X114059161Y-89535203D01*
X114063514Y-89544433D01*
X114075078Y-89572361D01*
X114080540Y-89580538D01*
X115241606Y-92042564D01*
X114801171Y-92224820D01*
X113887098Y-89661074D01*
X113885101Y-89651030D01*
X113873700Y-89623497D01*
X113870407Y-89614261D01*
X113866049Y-89605020D01*
X113854481Y-89577084D01*
X113849015Y-89568902D01*
X113844819Y-89560004D01*
X113826833Y-89535695D01*
X113810025Y-89510534D01*
X113803066Y-89503574D01*
X113797216Y-89495667D01*
X113774828Y-89475330D01*
X113753438Y-89453935D01*
X113745259Y-89448469D01*
X113737975Y-89441852D01*
X113712041Y-89426269D01*
X113686897Y-89409464D01*
X113677809Y-89405698D01*
X113669374Y-89400630D01*
X113640898Y-89390405D01*
X113612958Y-89378828D01*
X113603312Y-89376908D01*
X113594049Y-89373582D01*
X113564121Y-89369108D01*
X113534464Y-89363206D01*
X113524627Y-89363205D01*
X113514894Y-89361750D01*
X113484676Y-89363200D01*
X113454431Y-89363197D01*
X113444782Y-89365115D01*
X113434954Y-89365587D01*
X113405603Y-89372904D01*
X113395594Y-89374894D01*
X113386223Y-89377736D01*
X113357296Y-89384947D01*
X113348030Y-89389317D01*
X112430974Y-89667395D01*
X112421245Y-89668827D01*
X112392772Y-89678979D01*
X112383007Y-89681940D01*
X112373961Y-89685686D01*
X112345858Y-89695706D01*
X112337055Y-89700968D01*
X112327583Y-89704891D01*
X112302782Y-89721458D01*
X112277165Y-89736773D01*
X112269558Y-89743652D01*
X112261033Y-89749347D01*
X112239933Y-89770442D01*
X112217803Y-89790455D01*
X112211686Y-89798684D01*
X112204434Y-89805934D01*
X112187856Y-89830739D01*
X112170055Y-89854685D01*
X112165660Y-89863951D01*
X112159963Y-89872475D01*
X112148543Y-89900036D01*
X112135755Y-89926996D01*
X112133253Y-89936939D01*
X112129327Y-89946413D01*
X112123501Y-89975684D01*
X112116221Y-90004610D01*
X112115707Y-90014847D01*
X112113704Y-90024908D01*
X112113701Y-90054753D01*
X112112204Y-90084541D01*
X112113697Y-90094685D01*
X112113696Y-90104940D01*
X112119512Y-90134196D01*
X112120939Y-90143890D01*
X112123410Y-90153803D01*
X112129302Y-90183439D01*
X112133062Y-90192518D01*
X112791502Y-92833756D01*
X112323974Y-92926585D01*
X111927627Y-90233778D01*
X111927628Y-90223533D01*
X111921816Y-90194298D01*
X111920389Y-90184604D01*
X111917919Y-90174695D01*
X111912022Y-90145035D01*
X111908258Y-90135946D01*
X111905878Y-90126398D01*
X111892975Y-90099037D01*
X111881403Y-90071091D01*
X111875939Y-90062911D01*
X111871741Y-90054010D01*
X111853743Y-90029686D01*
X111836945Y-90004540D01*
X111829990Y-89997584D01*
X111824137Y-89989673D01*
X111801749Y-89969336D01*
X111780359Y-89947941D01*
X111772176Y-89942472D01*
X111764896Y-89935859D01*
X111738972Y-89920281D01*
X111713818Y-89903470D01*
X111704729Y-89899704D01*
X111696295Y-89894636D01*
X111667819Y-89884411D01*
X111639879Y-89872834D01*
X111630233Y-89870914D01*
X111620970Y-89867588D01*
X111591041Y-89863114D01*
X111561385Y-89857212D01*
X111551549Y-89857211D01*
X111541816Y-89855756D01*
X111511602Y-89857206D01*
X111501397Y-89857205D01*
X111491652Y-89858164D01*
X111461875Y-89859593D01*
X111451934Y-89862071D01*
X110498246Y-89955899D01*
X110488426Y-89955405D01*
X110458522Y-89959807D01*
X110448365Y-89960806D01*
X110438760Y-89962716D01*
X110409245Y-89967060D01*
X110399587Y-89970503D01*
X110389529Y-89972503D01*
X110361966Y-89983916D01*
X110333860Y-89993937D01*
X110325058Y-89999200D01*
X110315585Y-90003122D01*
X110290779Y-90019693D01*
X110265166Y-90035006D01*
X110257559Y-90041885D01*
X110249034Y-90047580D01*
X110227937Y-90068672D01*
X110205804Y-90088687D01*
X110199687Y-90096916D01*
X110192435Y-90104166D01*
X110175857Y-90128971D01*
X110158056Y-90152917D01*
X110153661Y-90162183D01*
X110147964Y-90170707D01*
X110136545Y-90198266D01*
X110123756Y-90225228D01*
X110121253Y-90235173D01*
X110117328Y-90244646D01*
X110111505Y-90273905D01*
X110104222Y-90302841D01*
X110103707Y-90313084D01*
X110101706Y-90323139D01*
X110101703Y-90352970D01*
X110101211Y-90362753D01*
X110101700Y-90372949D01*
X110101697Y-90403173D01*
X110103614Y-90412815D01*
X110234123Y-93131753D01*
X109757467Y-93131589D01*
X109894076Y-90413211D01*
X109896078Y-90403151D01*
X109896081Y-90373310D01*
X109896571Y-90363559D01*
X109896083Y-90353395D01*
X109896086Y-90323116D01*
X109894165Y-90313454D01*
X109893694Y-90303640D01*
X109886386Y-90274324D01*
X109880481Y-90244620D01*
X109876714Y-90235522D01*
X109874336Y-90225984D01*
X109861443Y-90198644D01*
X109849861Y-90170675D01*
X109844392Y-90162488D01*
X109840198Y-90153595D01*
X109822219Y-90129297D01*
X109805404Y-90104125D01*
X109798442Y-90097161D01*
X109792594Y-90089258D01*
X109770221Y-90068935D01*
X109748817Y-90047526D01*
X109740630Y-90042054D01*
X109733353Y-90035444D01*
X109707448Y-90019877D01*
X109682276Y-90003054D01*
X109673179Y-89999285D01*
X109664752Y-89994221D01*
X109636302Y-89984006D01*
X109608338Y-89972419D01*
X109598683Y-89970497D01*
X109589427Y-89967174D01*
X109559516Y-89962703D01*
X109549504Y-89960710D01*
X109539761Y-89959749D01*
X109510272Y-89955341D01*
X109500036Y-89955832D01*
X108546373Y-89861802D01*
X108536837Y-89859402D01*
X108506645Y-89857885D01*
X108496492Y-89856884D01*
X108486697Y-89856883D01*
X108456904Y-89855386D01*
X108446766Y-89856878D01*
X108436505Y-89856877D01*
X108407222Y-89862698D01*
X108377724Y-89867040D01*
X108368072Y-89870481D01*
X108358008Y-89872482D01*
X108330425Y-89883904D01*
X108302338Y-89893918D01*
X108293541Y-89899177D01*
X108284063Y-89903102D01*
X108259255Y-89919675D01*
X108233644Y-89934986D01*
X108226034Y-89941867D01*
X108217513Y-89947560D01*
X108196426Y-89968643D01*
X108174282Y-89988667D01*
X108168162Y-89996900D01*
X108160914Y-90004146D01*
X108144341Y-90028943D01*
X108126534Y-90052897D01*
X108122138Y-90062164D01*
X108116442Y-90070687D01*
X108105025Y-90098242D01*
X108092234Y-90125208D01*
X108089730Y-90135156D01*
X108085807Y-90144625D01*
X108079986Y-90173875D01*
X108077593Y-90183382D01*
X108076082Y-90193489D01*
X108070185Y-90223120D01*
X108070184Y-90232946D01*
X107667747Y-92925106D01*
X107200281Y-92831953D01*
X107864596Y-90192450D01*
X107868519Y-90182983D01*
X107874339Y-90153741D01*
X107876728Y-90144248D01*
X107878237Y-90134155D01*
X107884141Y-90104489D01*
X107884142Y-90094652D01*
X107885597Y-90084920D01*
X107884147Y-90054702D01*
X107884150Y-90024455D01*
X107882232Y-90014805D01*
X107881760Y-90004978D01*
X107874444Y-89975629D01*
X107868545Y-89945957D01*
X107864780Y-89936866D01*
X107862401Y-89927321D01*
X107849501Y-89899967D01*
X107837925Y-89872012D01*
X107832458Y-89863828D01*
X107828263Y-89854933D01*
X107810278Y-89830626D01*
X107793468Y-89805462D01*
X107786510Y-89798502D01*
X107780659Y-89790595D01*
X107758269Y-89770256D01*
X107736881Y-89748864D01*
X107728702Y-89743398D01*
X107721418Y-89736781D01*
X107695481Y-89721195D01*
X107670340Y-89704393D01*
X107661255Y-89700629D01*
X107652818Y-89695559D01*
X107624331Y-89685330D01*
X107614921Y-89681431D01*
X107605571Y-89678594D01*
X107577492Y-89668511D01*
X107567350Y-89666995D01*
X106650362Y-89388722D01*
X106641478Y-89384508D01*
X106612162Y-89377130D01*
X106602399Y-89374167D01*
X106592800Y-89372257D01*
X106563864Y-89364974D01*
X106553620Y-89364459D01*
X106543565Y-89362458D01*
X106513733Y-89362455D01*
X106483932Y-89360957D01*
X106473787Y-89362450D01*
X106463533Y-89362449D01*
X106434272Y-89368266D01*
X106404750Y-89372611D01*
X106395091Y-89376055D01*
X106385035Y-89378054D01*
X106357471Y-89389468D01*
X106329365Y-89399489D01*
X106320563Y-89404751D01*
X106311090Y-89408674D01*
X106286287Y-89425243D01*
X106260671Y-89440558D01*
X106253061Y-89447439D01*
X106244540Y-89453132D01*
X106223453Y-89474215D01*
X106201309Y-89494239D01*
X106195189Y-89502472D01*
X106187941Y-89509718D01*
X106171366Y-89534519D01*
X106153562Y-89558469D01*
X106149166Y-89567736D01*
X106143470Y-89576259D01*
X106132058Y-89603801D01*
X106127852Y-89612668D01*
X106124394Y-89622298D01*
X106112834Y-89650198D01*
X106110917Y-89659832D01*
X105190997Y-92221754D01*
X104750687Y-92039193D01*
X105917181Y-89580007D01*
X105922873Y-89571490D01*
X105934283Y-89543952D01*
X105938482Y-89535100D01*
X105941933Y-89525490D01*
X105953509Y-89497551D01*
X105955429Y-89487904D01*
X105958755Y-89478641D01*
X105963228Y-89448715D01*
X105969131Y-89419057D01*
X105969132Y-89409221D01*
X105970587Y-89399488D01*
X105969137Y-89369269D01*
X105969140Y-89339023D01*
X105967222Y-89329374D01*
X105966750Y-89319545D01*
X105959430Y-89290180D01*
X105953534Y-89260525D01*
X105949772Y-89251441D01*
X105947391Y-89241888D01*
X105934484Y-89214520D01*
X105922915Y-89186580D01*
X105917449Y-89178398D01*
X105913253Y-89169500D01*
X105895259Y-89145181D01*
X105878457Y-89120029D01*
X105871502Y-89113073D01*
X105865649Y-89105162D01*
X105843248Y-89084813D01*
X105821871Y-89063432D01*
X105813696Y-89057968D01*
X105806409Y-89051349D01*
X105780461Y-89035757D01*
X105771996Y-89030099D01*
X105763384Y-89025494D01*
X105737807Y-89010125D01*
X105728154Y-89006659D01*
X104883075Y-88554838D01*
X104875184Y-88548972D01*
X104847876Y-88536019D01*
X104838874Y-88531206D01*
X104829825Y-88527457D01*
X104802872Y-88514672D01*
X104792929Y-88512170D01*
X104783455Y-88508244D01*
X104754194Y-88502420D01*
X104725260Y-88495138D01*
X104715017Y-88494623D01*
X104704962Y-88492622D01*
X104675128Y-88492619D01*
X104645326Y-88491121D01*
X104635181Y-88492614D01*
X104624928Y-88492613D01*
X104595666Y-88498430D01*
X104566146Y-88502775D01*
X104556488Y-88506219D01*
X104546430Y-88508218D01*
X104518864Y-88519633D01*
X104490760Y-88529653D01*
X104481958Y-88534915D01*
X104472485Y-88538838D01*
X104447679Y-88555409D01*
X104422066Y-88570722D01*
X104414459Y-88577601D01*
X104405934Y-88583296D01*
X104384845Y-88604380D01*
X104362705Y-88624402D01*
X104356583Y-88632638D01*
X104349337Y-88639882D01*
X104332770Y-88664670D01*
X104326916Y-88672545D01*
X104321649Y-88681309D01*
X104304865Y-88706423D01*
X104301104Y-88715500D01*
X102899055Y-91048725D01*
X102502821Y-90783773D01*
X104126672Y-88599403D01*
X104133908Y-88592168D01*
X104150452Y-88567414D01*
X104156318Y-88559523D01*
X104161596Y-88550740D01*
X104178380Y-88525626D01*
X104182142Y-88516546D01*
X104187215Y-88508104D01*
X104197447Y-88479610D01*
X104209016Y-88451689D01*
X104210934Y-88442049D01*
X104214263Y-88432780D01*
X104218740Y-88402830D01*
X104224638Y-88373194D01*
X104224639Y-88363365D01*
X104226095Y-88353625D01*
X104224644Y-88323386D01*
X104224647Y-88293160D01*
X104222730Y-88283518D01*
X104222258Y-88273683D01*
X104214934Y-88244302D01*
X104209041Y-88214662D01*
X104205281Y-88205582D01*
X104202899Y-88196026D01*
X104189988Y-88168648D01*
X104178422Y-88140717D01*
X104172958Y-88132539D01*
X104168761Y-88123638D01*
X104150762Y-88099313D01*
X104133964Y-88074167D01*
X104127010Y-88067212D01*
X104121157Y-88059301D01*
X104098758Y-88038954D01*
X104091551Y-88031745D01*
X104083993Y-88025541D01*
X104061916Y-88005486D01*
X104053129Y-88000206D01*
X103312425Y-87392193D01*
X103305834Y-87384904D01*
X103281586Y-87366878D01*
X103273688Y-87360395D01*
X103265538Y-87354948D01*
X103241603Y-87337155D01*
X103232340Y-87332761D01*
X103223814Y-87327063D01*
X103196250Y-87315642D01*
X103169293Y-87302855D01*
X103159350Y-87300353D01*
X103149876Y-87296427D01*
X103120612Y-87290603D01*
X103091679Y-87283321D01*
X103081437Y-87282806D01*
X103071381Y-87280805D01*
X103041547Y-87280802D01*
X103011746Y-87279304D01*
X103001602Y-87280797D01*
X102991348Y-87280796D01*
X102962077Y-87286615D01*
X102932565Y-87290959D01*
X102922911Y-87294401D01*
X102912851Y-87296401D01*
X102885277Y-87307819D01*
X102857179Y-87317837D01*
X102848380Y-87323098D01*
X102838905Y-87327021D01*
X102814095Y-87343595D01*
X102788486Y-87358905D01*
X102780880Y-87365783D01*
X102772355Y-87371478D01*
X102751261Y-87392568D01*
X102743993Y-87399140D01*
X102737125Y-87406700D01*
X102715756Y-87428065D01*
X102710295Y-87436236D01*
X100879998Y-89451102D01*
X100543067Y-89113939D01*
X102561856Y-87288347D01*
X102570377Y-87282655D01*
X102591461Y-87261575D01*
X102598722Y-87255009D01*
X102605585Y-87247454D01*
X102626975Y-87226068D01*
X102632442Y-87217888D01*
X102639057Y-87210606D01*
X102654634Y-87184684D01*
X102671447Y-87159528D01*
X102675214Y-87150437D01*
X102680280Y-87142006D01*
X102690504Y-87113532D01*
X102702082Y-87085589D01*
X102704002Y-87075943D01*
X102707328Y-87066680D01*
X102711800Y-87036761D01*
X102717705Y-87007094D01*
X102717706Y-86997253D01*
X102719160Y-86987526D01*
X102717710Y-86957315D01*
X102717713Y-86927061D01*
X102715795Y-86917411D01*
X102715323Y-86907584D01*
X102708008Y-86878243D01*
X102702108Y-86848562D01*
X102698341Y-86839466D01*
X102695963Y-86829926D01*
X102683068Y-86802582D01*
X102671488Y-86774618D01*
X102666020Y-86766433D01*
X102661826Y-86757539D01*
X102643845Y-86733237D01*
X102638166Y-86724736D01*
X102631945Y-86717154D01*
X102614222Y-86693201D01*
X102606642Y-86686315D01*
X101998782Y-85945475D01*
X101993738Y-85937038D01*
X101973467Y-85914622D01*
X101966991Y-85906729D01*
X101960068Y-85899804D01*
X101940057Y-85877676D01*
X101931825Y-85871556D01*
X101924577Y-85864307D01*
X101899784Y-85847737D01*
X101875828Y-85829928D01*
X101866558Y-85825531D01*
X101858037Y-85819836D01*
X101830481Y-85808418D01*
X101803516Y-85795628D01*
X101793571Y-85793125D01*
X101784098Y-85789200D01*
X101754838Y-85783377D01*
X101725902Y-85776094D01*
X101715660Y-85775579D01*
X101705604Y-85773578D01*
X101675770Y-85773575D01*
X101645969Y-85772077D01*
X101635824Y-85773570D01*
X101625571Y-85773569D01*
X101596311Y-85779386D01*
X101566788Y-85783731D01*
X101557129Y-85787175D01*
X101547073Y-85789174D01*
X101519512Y-85800587D01*
X101491403Y-85810609D01*
X101482599Y-85815873D01*
X101473129Y-85819794D01*
X101448335Y-85836357D01*
X101439915Y-85841391D01*
X101431694Y-85847474D01*
X101406578Y-85864252D01*
X101399631Y-85871198D01*
X99211418Y-87490278D01*
X98946739Y-87093862D01*
X101282899Y-85697189D01*
X101292359Y-85693272D01*
X101317131Y-85676724D01*
X101325554Y-85671688D01*
X101333775Y-85665605D01*
X101358909Y-85648815D01*
X101365863Y-85641863D01*
X101373777Y-85636007D01*
X101394127Y-85613605D01*
X101415508Y-85592229D01*
X101420972Y-85584054D01*
X101427591Y-85576767D01*
X101443184Y-85550818D01*
X101459979Y-85525688D01*
X101463741Y-85516607D01*
X101468814Y-85508166D01*
X101479045Y-85479672D01*
X101490615Y-85451749D01*
X101492534Y-85442106D01*
X101495861Y-85432841D01*
X101500335Y-85402909D01*
X101506237Y-85373255D01*
X101506238Y-85363419D01*
X101507693Y-85353686D01*
X101506243Y-85323468D01*
X101506246Y-85293220D01*
X101504328Y-85283571D01*
X101503856Y-85273744D01*
X101496537Y-85244384D01*
X101490640Y-85214724D01*
X101486878Y-85205638D01*
X101484497Y-85196088D01*
X101471594Y-85168728D01*
X101467690Y-85159299D01*
X101463074Y-85150660D01*
X101450359Y-85123699D01*
X101444265Y-85115463D01*
X100992621Y-84270279D01*
X100989318Y-84261016D01*
X100973804Y-84235066D01*
X100968997Y-84226071D01*
X100963561Y-84217934D01*
X100948249Y-84192322D01*
X100941370Y-84184715D01*
X100935675Y-84176190D01*
X100914584Y-84155094D01*
X100894569Y-84132961D01*
X100886340Y-84126843D01*
X100879089Y-84119591D01*
X100854277Y-84103008D01*
X100830338Y-84085212D01*
X100821076Y-84080819D01*
X100812548Y-84075119D01*
X100784976Y-84063695D01*
X100758027Y-84050912D01*
X100748085Y-84048410D01*
X100738610Y-84044484D01*
X100709349Y-84038661D01*
X100680414Y-84031378D01*
X100670170Y-84030863D01*
X100660115Y-84028862D01*
X100630282Y-84028859D01*
X100600480Y-84027361D01*
X100590335Y-84028854D01*
X100580082Y-84028853D01*
X100550829Y-84034669D01*
X100521300Y-84039015D01*
X100511635Y-84042461D01*
X100501585Y-84044459D01*
X100474031Y-84055868D01*
X100464796Y-84059161D01*
X100455559Y-84063517D01*
X100427639Y-84075078D01*
X100419465Y-84080539D01*
X97957436Y-85241607D01*
X97775180Y-84801171D01*
X100338932Y-83887097D01*
X100348970Y-83885101D01*
X100376485Y-83873707D01*
X100385739Y-83870408D01*
X100394997Y-83866042D01*
X100422916Y-83854481D01*
X100431093Y-83849019D01*
X100439996Y-83844820D01*
X100464319Y-83826824D01*
X100489466Y-83810025D01*
X100496422Y-83803070D01*
X100504333Y-83797217D01*
X100524676Y-83774822D01*
X100546065Y-83753438D01*
X100551531Y-83745259D01*
X100558147Y-83737976D01*
X100573731Y-83712042D01*
X100590536Y-83686897D01*
X100594301Y-83677811D01*
X100599370Y-83669375D01*
X100609595Y-83640899D01*
X100621172Y-83612958D01*
X100623092Y-83603309D01*
X100626417Y-83594050D01*
X100630890Y-83564131D01*
X100636794Y-83534464D01*
X100636795Y-83524627D01*
X100638250Y-83514895D01*
X100636800Y-83484685D01*
X100636803Y-83454431D01*
X100634884Y-83444776D01*
X100634412Y-83434954D01*
X100627098Y-83405615D01*
X100625106Y-83395594D01*
X100622262Y-83386216D01*
X100615053Y-83357296D01*
X100610683Y-83348030D01*
X100332605Y-82430974D01*
X100331173Y-82421245D01*
X100321021Y-82392772D01*
X100318060Y-82383007D01*
X100314314Y-82373961D01*
X100304294Y-82345858D01*
X100299032Y-82337055D01*
X100295109Y-82327583D01*
X100278542Y-82302782D01*
X100263227Y-82277165D01*
X100256347Y-82269557D01*
X100250653Y-82261033D01*
X100229564Y-82239940D01*
X100209546Y-82217803D01*
X100201314Y-82211683D01*
X100194066Y-82204434D01*
X100169264Y-82187858D01*
X100145315Y-82170055D01*
X100136049Y-82165660D01*
X100127525Y-82159963D01*
X100099964Y-82148543D01*
X100073004Y-82135755D01*
X100063061Y-82133253D01*
X100053587Y-82129327D01*
X100024316Y-82123501D01*
X99995390Y-82116221D01*
X99985154Y-82115707D01*
X99975092Y-82113704D01*
X99945246Y-82113701D01*
X99915458Y-82112204D01*
X99905314Y-82113697D01*
X99895060Y-82113696D01*
X99865805Y-82119512D01*
X99856110Y-82120939D01*
X99846197Y-82123410D01*
X99816561Y-82129302D01*
X99807482Y-82133062D01*
X97166245Y-82791503D01*
X97073415Y-82323974D01*
X99766228Y-81927627D01*
X99776467Y-81927628D01*
X99805683Y-81921820D01*
X99815396Y-81920390D01*
X99825325Y-81917915D01*
X99854965Y-81912022D01*
X99864048Y-81908261D01*
X99873602Y-81905879D01*
X99900981Y-81892968D01*
X99928909Y-81881403D01*
X99937084Y-81875942D01*
X99945990Y-81871742D01*
X99970332Y-81853731D01*
X99995460Y-81836945D01*
X100002410Y-81829996D01*
X100010328Y-81824138D01*
X100030685Y-81801728D01*
X100052059Y-81780359D01*
X100057523Y-81772184D01*
X100064142Y-81764897D01*
X100079731Y-81738954D01*
X100096530Y-81713818D01*
X100100294Y-81704733D01*
X100105364Y-81696296D01*
X100115592Y-81667813D01*
X100127166Y-81639879D01*
X100129085Y-81630236D01*
X100132412Y-81620971D01*
X100136886Y-81591038D01*
X100142788Y-81561385D01*
X100142789Y-81551550D01*
X100144244Y-81541817D01*
X100142794Y-81511603D01*
X100142795Y-81501397D01*
X100141836Y-81491651D01*
X100140407Y-81461875D01*
X100137929Y-81451934D01*
X100044101Y-80498240D01*
X100044594Y-80488426D01*
X100040195Y-80458534D01*
X100039194Y-80448365D01*
X100037283Y-80438752D01*
X100032940Y-80409245D01*
X100029497Y-80399587D01*
X100027497Y-80389529D01*
X100016084Y-80361966D01*
X100006063Y-80333860D01*
X100000800Y-80325058D01*
X99996878Y-80315585D01*
X99980307Y-80290779D01*
X99964994Y-80265166D01*
X99958115Y-80257559D01*
X99952420Y-80249034D01*
X99931328Y-80227937D01*
X99911313Y-80205804D01*
X99903084Y-80199687D01*
X99895834Y-80192435D01*
X99871029Y-80175857D01*
X99847083Y-80158056D01*
X99837817Y-80153661D01*
X99829293Y-80147964D01*
X99801729Y-80136543D01*
X99774771Y-80123756D01*
X99764828Y-80121254D01*
X99755354Y-80117328D01*
X99726090Y-80111504D01*
X99697158Y-80104222D01*
X99686917Y-80103707D01*
X99676861Y-80101706D01*
X99647029Y-80101703D01*
X99637246Y-80101211D01*
X99627050Y-80101700D01*
X99596827Y-80101697D01*
X99587185Y-80103614D01*
X96868247Y-80234123D01*
X96868411Y-79757467D01*
X99586795Y-79894076D01*
X99596849Y-79896077D01*
X99626678Y-79896080D01*
X99636441Y-79896571D01*
X99646613Y-79896083D01*
X99676883Y-79896086D01*
X99686545Y-79894165D01*
X99696360Y-79893694D01*
X99725677Y-79886386D01*
X99755380Y-79880481D01*
X99764478Y-79876714D01*
X99774016Y-79874336D01*
X99801356Y-79861443D01*
X99829325Y-79849861D01*
X99837512Y-79844392D01*
X99846405Y-79840198D01*
X99870712Y-79822213D01*
X99895875Y-79805403D01*
X99902835Y-79798444D01*
X99910742Y-79792594D01*
X99931069Y-79770217D01*
X99952474Y-79748817D01*
X99957946Y-79740630D01*
X99964556Y-79733353D01*
X99980123Y-79707448D01*
X99996946Y-79682276D01*
X100000715Y-79673179D01*
X100005779Y-79664752D01*
X100015994Y-79636302D01*
X100027581Y-79608338D01*
X100029503Y-79598683D01*
X100032826Y-79589427D01*
X100037297Y-79559516D01*
X100039290Y-79549504D01*
X100040251Y-79539761D01*
X100044659Y-79510272D01*
X100044168Y-79500036D01*
X100138198Y-78546373D01*
X100140598Y-78536837D01*
X100142115Y-78506647D01*
X100143116Y-78496493D01*
X100143117Y-78486697D01*
X100144614Y-78456904D01*
X100143122Y-78446766D01*
X100143123Y-78436505D01*
X100137302Y-78407222D01*
X100132960Y-78377724D01*
X100129519Y-78368072D01*
X100127518Y-78358008D01*
X100116096Y-78330425D01*
X100106082Y-78302338D01*
X100100823Y-78293541D01*
X100096898Y-78284063D01*
X100080323Y-78259251D01*
X100065014Y-78233644D01*
X100058135Y-78226037D01*
X100052440Y-78217512D01*
X100031351Y-78196419D01*
X100011333Y-78174282D01*
X100003100Y-78168162D01*
X99995854Y-78160914D01*
X99971057Y-78144341D01*
X99947103Y-78126534D01*
X99937836Y-78122138D01*
X99929313Y-78116442D01*
X99901758Y-78105025D01*
X99874792Y-78092234D01*
X99864844Y-78089730D01*
X99855375Y-78085807D01*
X99826118Y-78079984D01*
X99816618Y-78077593D01*
X99806524Y-78076084D01*
X99776880Y-78070184D01*
X99767048Y-78070183D01*
X97074894Y-77667747D01*
X97168047Y-77200281D01*
X99855752Y-77876728D01*
X99915080Y-77885597D01*
X99995022Y-77881760D01*
X100072679Y-77862401D01*
X100145067Y-77828263D01*
X100209405Y-77780659D01*
X100263219Y-77721418D01*
X100304441Y-77652818D01*
X100331489Y-77577492D01*
X100343321Y-77498337D01*
X100339484Y-77418396D01*
X100320125Y-77340738D01*
X100285987Y-77268350D01*
X100238384Y-77204013D01*
X100179142Y-77150198D01*
X100110542Y-77108976D01*
X100054083Y-77088703D01*
X96961708Y-76310409D01*
X96932832Y-76301639D01*
X96903098Y-76298700D01*
X96873536Y-76294281D01*
X96863339Y-76294770D01*
X96853186Y-76293767D01*
X96823456Y-76296685D01*
X96793596Y-76298118D01*
X96783691Y-76300587D01*
X96773536Y-76301584D01*
X96744934Y-76310249D01*
X96715938Y-76317478D01*
X96706710Y-76321830D01*
X96696939Y-76324790D01*
X96670570Y-76338873D01*
X96643550Y-76351615D01*
X96635348Y-76357684D01*
X96626343Y-76362493D01*
X96603229Y-76381449D01*
X96579213Y-76399219D01*
X96572352Y-76406772D01*
X96564459Y-76413245D01*
X96545496Y-76436336D01*
X96525398Y-76458460D01*
X96520139Y-76467212D01*
X96513665Y-76475095D01*
X96499571Y-76501440D01*
X96484176Y-76527061D01*
X96480727Y-76536667D01*
X96475913Y-76545665D01*
X96467232Y-76574248D01*
X96457128Y-76602386D01*
X96452664Y-76632252D01*
X96196605Y-77917224D01*
X96189317Y-77946181D01*
X96187801Y-77976347D01*
X96184831Y-78006398D01*
X96185796Y-78016236D01*
X96185300Y-78026113D01*
X96189698Y-78055992D01*
X96192647Y-78086047D01*
X96195514Y-78095510D01*
X96196954Y-78105293D01*
X96207099Y-78133747D01*
X96215854Y-78162644D01*
X96220510Y-78171363D01*
X96223832Y-78180679D01*
X96239333Y-78206607D01*
X96253557Y-78233240D01*
X96259826Y-78240884D01*
X96264901Y-78249373D01*
X96285168Y-78271786D01*
X96304309Y-78295125D01*
X96311943Y-78301394D01*
X96318581Y-78308735D01*
X96342843Y-78326771D01*
X96366159Y-78345919D01*
X96374870Y-78350579D01*
X96382812Y-78356483D01*
X96410120Y-78369436D01*
X96436729Y-78383671D01*
X96446183Y-78386542D01*
X96455123Y-78390783D01*
X96484433Y-78398160D01*
X96513309Y-78406930D01*
X96543005Y-78409865D01*
X99294563Y-78821182D01*
X99270566Y-79064560D01*
X96492401Y-78924946D01*
X96462399Y-78921981D01*
X96432680Y-78924898D01*
X96402808Y-78926332D01*
X96392901Y-78928802D01*
X96382749Y-78929798D01*
X96354173Y-78938456D01*
X96325152Y-78945690D01*
X96315911Y-78950048D01*
X96306154Y-78953004D01*
X96279816Y-78967070D01*
X96252763Y-78979828D01*
X96244554Y-78985902D01*
X96235557Y-78990707D01*
X96212461Y-79009648D01*
X96188426Y-79027432D01*
X96181561Y-79034989D01*
X96173672Y-79041459D01*
X96154708Y-79064550D01*
X96134612Y-79086673D01*
X96129355Y-79095422D01*
X96122878Y-79103308D01*
X96108785Y-79129652D01*
X96093388Y-79155274D01*
X96089938Y-79164881D01*
X96085125Y-79173879D01*
X96076440Y-79202477D01*
X96066342Y-79230599D01*
X96064833Y-79240691D01*
X96061867Y-79250458D01*
X96058927Y-79280201D01*
X96054509Y-79309754D01*
X96055956Y-79339888D01*
X96055504Y-80650139D01*
X96054005Y-80679974D01*
X95466851Y-80679974D01*
X95431800Y-80000000D01*
X95509013Y-78502083D01*
X95739835Y-77020045D01*
X96121817Y-75569594D01*
X96470790Y-74643900D01*
X98200986Y-74643900D01*
X98216525Y-74801668D01*
X98262544Y-74953374D01*
X98337276Y-75093186D01*
X98437847Y-75215733D01*
X98514817Y-75278900D01*
X98437847Y-75342067D01*
X98337276Y-75464614D01*
X98262544Y-75604426D01*
X98216525Y-75756132D01*
X98200986Y-75913900D01*
X98216525Y-76071668D01*
X98262544Y-76223374D01*
X98337276Y-76363186D01*
X98437847Y-76485733D01*
X98560394Y-76586304D01*
X98700206Y-76661036D01*
X98851912Y-76707055D01*
X98970144Y-76718700D01*
X99049216Y-76718700D01*
X99167448Y-76707055D01*
X99319154Y-76661036D01*
X99458966Y-76586304D01*
X99581513Y-76485733D01*
X99682084Y-76363186D01*
X99756816Y-76223374D01*
X99802835Y-76071668D01*
X99818374Y-75913900D01*
X99802835Y-75756132D01*
X99756816Y-75604426D01*
X99682084Y-75464614D01*
X99581513Y-75342067D01*
X99504543Y-75278900D01*
X99581513Y-75215733D01*
X99682084Y-75093186D01*
X99756816Y-74953374D01*
X99802835Y-74801668D01*
X99818374Y-74643900D01*
X99802835Y-74486132D01*
X99756816Y-74334426D01*
X99682084Y-74194614D01*
X99581513Y-74072067D01*
X99458966Y-73971496D01*
X99319154Y-73896764D01*
X99167448Y-73850745D01*
X99049216Y-73839100D01*
X98970144Y-73839100D01*
X98851912Y-73850745D01*
X98700206Y-73896764D01*
X98560394Y-73971496D01*
X98437847Y-74072067D01*
X98337276Y-74194614D01*
X98262544Y-74334426D01*
X98216525Y-74486132D01*
X98200986Y-74643900D01*
X96470790Y-74643900D01*
X96650912Y-74166107D01*
X97321511Y-72824461D01*
X98126504Y-71558878D01*
X99057360Y-70382772D01*
X100104210Y-69308611D01*
X101255958Y-68347782D01*
X102500396Y-67510469D01*
X103824330Y-66805548D01*
X103898400Y-66775424D01*
X103898400Y-67937904D01*
X103892615Y-67956974D01*
X103886000Y-68024141D01*
X103886000Y-68024150D01*
X103883789Y-68046600D01*
X103886000Y-68069050D01*
X103886001Y-68402216D01*
X103859640Y-68441668D01*
X103835549Y-68499829D01*
X103504097Y-68075590D01*
X103462673Y-68032128D01*
X103413566Y-67997584D01*
X103358664Y-67973283D01*
X103300075Y-67960160D01*
X103240052Y-67958719D01*
X103180902Y-67969016D01*
X103124896Y-67990655D01*
X103074189Y-68022804D01*
X102133462Y-68757781D01*
X102090001Y-68799205D01*
X102055456Y-68848311D01*
X102031155Y-68903214D01*
X102018032Y-68961803D01*
X102016591Y-69021826D01*
X102026888Y-69080976D01*
X102048527Y-69136981D01*
X102080676Y-69187689D01*
X104363795Y-72109948D01*
X104405219Y-72153410D01*
X104454326Y-72187954D01*
X104509228Y-72212255D01*
X104567817Y-72225378D01*
X104627840Y-72226819D01*
X104658314Y-72221514D01*
X104393384Y-72390639D01*
X103758565Y-72927345D01*
X103770582Y-72871579D01*
X103771532Y-72811835D01*
X103760808Y-72753054D01*
X103738823Y-72697495D01*
X103706421Y-72647292D01*
X101375625Y-69713312D01*
X101336660Y-69672632D01*
X101287899Y-69638098D01*
X101233338Y-69613741D01*
X101175073Y-69600496D01*
X101115344Y-69598873D01*
X101056446Y-69608933D01*
X101000642Y-69630291D01*
X100950077Y-69662125D01*
X99279031Y-70959166D01*
X99233411Y-71002862D01*
X99199429Y-71052009D01*
X99175689Y-71106842D01*
X99163102Y-71165252D01*
X99162152Y-71224996D01*
X99172876Y-71283777D01*
X99194861Y-71339336D01*
X99227263Y-71389539D01*
X101558059Y-74323518D01*
X101597024Y-74364198D01*
X101645785Y-74398731D01*
X101700346Y-74423089D01*
X101758611Y-74436334D01*
X101818340Y-74437957D01*
X101877238Y-74427897D01*
X101933042Y-74406539D01*
X101983607Y-74374705D01*
X103286974Y-73363051D01*
X102582233Y-74142248D01*
X101867656Y-75183205D01*
X101298201Y-76310119D01*
X100884030Y-77502878D01*
X100632534Y-78740198D01*
X100548200Y-80000000D01*
X100632534Y-81259802D01*
X100884030Y-82497122D01*
X101298201Y-83689881D01*
X101867656Y-84816795D01*
X102582233Y-85857752D01*
X103429180Y-86794178D01*
X104393384Y-87609361D01*
X105457637Y-88288755D01*
X106602950Y-88820236D01*
X107808882Y-89194320D01*
X109053916Y-89404331D01*
X110315832Y-89446522D01*
X111572112Y-89320139D01*
X112800338Y-89027438D01*
X113978591Y-88573642D01*
X115085847Y-87966849D01*
X116102345Y-87217888D01*
X117009947Y-86340123D01*
X117792457Y-85349219D01*
X118435910Y-84262857D01*
X118928823Y-83100425D01*
X119262402Y-81882666D01*
X119430693Y-80631311D01*
X119430693Y-79368689D01*
X119262402Y-78117334D01*
X118928823Y-76899575D01*
X118510658Y-75913420D01*
X120132886Y-75913420D01*
X120148425Y-76071188D01*
X120194444Y-76222894D01*
X120269176Y-76362706D01*
X120369747Y-76485253D01*
X120492294Y-76585824D01*
X120632106Y-76660556D01*
X120783812Y-76706575D01*
X120902044Y-76718220D01*
X120981116Y-76718220D01*
X121099348Y-76706575D01*
X121251054Y-76660556D01*
X121390866Y-76585824D01*
X121513413Y-76485253D01*
X121613984Y-76362706D01*
X121688716Y-76222894D01*
X121734735Y-76071188D01*
X121750274Y-75913420D01*
X121734735Y-75755652D01*
X121688716Y-75603946D01*
X121613984Y-75464134D01*
X121575617Y-75417384D01*
X121611737Y-75398078D01*
X121658148Y-75359988D01*
X121696238Y-75313577D01*
X121724540Y-75260626D01*
X121741969Y-75203171D01*
X121747854Y-75143420D01*
X121747854Y-74143420D01*
X121741969Y-74083669D01*
X121724540Y-74026214D01*
X121696238Y-73973263D01*
X121658148Y-73926852D01*
X121611737Y-73888762D01*
X121558786Y-73860460D01*
X121501331Y-73843031D01*
X121441580Y-73837146D01*
X120441580Y-73837146D01*
X120381829Y-73843031D01*
X120324374Y-73860460D01*
X120271423Y-73888762D01*
X120225012Y-73926852D01*
X120186922Y-73973263D01*
X120158620Y-74026214D01*
X120141191Y-74083669D01*
X120135306Y-74143420D01*
X120135306Y-75143420D01*
X120141191Y-75203171D01*
X120158620Y-75260626D01*
X120186922Y-75313577D01*
X120225012Y-75359988D01*
X120271423Y-75398078D01*
X120307543Y-75417384D01*
X120269176Y-75464134D01*
X120194444Y-75603946D01*
X120148425Y-75755652D01*
X120132886Y-75913420D01*
X118510658Y-75913420D01*
X118435910Y-75737143D01*
X117792457Y-74650781D01*
X117009947Y-73659877D01*
X116102345Y-72782112D01*
X115085847Y-72033151D01*
X114793401Y-71872886D01*
X114791283Y-71032258D01*
X114809258Y-71010357D01*
X114837560Y-70957406D01*
X114854989Y-70899951D01*
X114860874Y-70840200D01*
X114860874Y-69520200D01*
X114854989Y-69460449D01*
X114838452Y-69405935D01*
X114878992Y-69356538D01*
X114927509Y-69265768D01*
X114957386Y-69167277D01*
X114967474Y-69064850D01*
X114967474Y-68552350D01*
X114957386Y-68449923D01*
X114937853Y-68385531D01*
X115018500Y-68393474D01*
X115313500Y-68393474D01*
X115402027Y-68384755D01*
X115487152Y-68358933D01*
X115565603Y-68316999D01*
X115634367Y-68260567D01*
X115664048Y-68224400D01*
X115775021Y-68224400D01*
X116643128Y-69092509D01*
X116635360Y-69111263D01*
X116615000Y-69213619D01*
X116615000Y-69317981D01*
X116635360Y-69420337D01*
X116675298Y-69516754D01*
X116733278Y-69603528D01*
X116807072Y-69677322D01*
X116893846Y-69735302D01*
X116990263Y-69775240D01*
X117092619Y-69795600D01*
X117196981Y-69795600D01*
X117299337Y-69775240D01*
X117395754Y-69735302D01*
X117482528Y-69677322D01*
X117556322Y-69603528D01*
X117614302Y-69516754D01*
X117654240Y-69420337D01*
X117674600Y-69317981D01*
X117674600Y-69213619D01*
X117654240Y-69111263D01*
X117614302Y-69014846D01*
X117602000Y-68996435D01*
X117602000Y-68970054D01*
X117604211Y-68947602D01*
X117602000Y-68925150D01*
X117602000Y-68925142D01*
X117595385Y-68857975D01*
X117592945Y-68849931D01*
X117569241Y-68771792D01*
X117526787Y-68692366D01*
X117483971Y-68640194D01*
X117483965Y-68640188D01*
X117469653Y-68622749D01*
X117452214Y-68608437D01*
X116303572Y-67459797D01*
X116289251Y-67442347D01*
X116219634Y-67385213D01*
X116140207Y-67342759D01*
X116054025Y-67316615D01*
X115986858Y-67310000D01*
X115986848Y-67310000D01*
X115964398Y-67307789D01*
X115941948Y-67310000D01*
X115684893Y-67310000D01*
X115690799Y-67302803D01*
X115732733Y-67224352D01*
X115758555Y-67139227D01*
X115767274Y-67050700D01*
X115767274Y-66705700D01*
X115760049Y-66632344D01*
X116846715Y-67140959D01*
G36*
X111124308Y-65475249D02*
G01*
X112611798Y-65667835D01*
X114071603Y-66012345D01*
X114852753Y-66284069D01*
X114844848Y-66286467D01*
X114766397Y-66328401D01*
X114697633Y-66384833D01*
X114681000Y-66405101D01*
X114664367Y-66384833D01*
X114595603Y-66328401D01*
X114517152Y-66286467D01*
X114432027Y-66260645D01*
X114343500Y-66251926D01*
X114216303Y-66251926D01*
X114075573Y-66111196D01*
X114061252Y-66093746D01*
X113991635Y-66036612D01*
X113912208Y-65994158D01*
X113826026Y-65968014D01*
X113758859Y-65961399D01*
X113758849Y-65961399D01*
X113736399Y-65959188D01*
X113713949Y-65961399D01*
X111914366Y-65961399D01*
X111899400Y-65959925D01*
X111086600Y-65959925D01*
X111026849Y-65965810D01*
X110969394Y-65983239D01*
X110916443Y-66011541D01*
X110870032Y-66049631D01*
X110831942Y-66096042D01*
X110803640Y-66148993D01*
X110786211Y-66206448D01*
X110780326Y-66266199D01*
X110780326Y-66570999D01*
X110786211Y-66630750D01*
X110797693Y-66668600D01*
X110786211Y-66706450D01*
X110780326Y-66766201D01*
X110780326Y-67071001D01*
X110786211Y-67130752D01*
X110797692Y-67168600D01*
X110786211Y-67206449D01*
X110780326Y-67266200D01*
X110780326Y-67447321D01*
X110769177Y-67453457D01*
X110723455Y-67491925D01*
X110686117Y-67538573D01*
X110658597Y-67591609D01*
X110641952Y-67648996D01*
X110636823Y-67708526D01*
X110647481Y-68580257D01*
X109821138Y-69406600D01*
X109097867Y-69406600D01*
X109067173Y-69400881D01*
X108997620Y-69396805D01*
X108928105Y-69401478D01*
X108869586Y-69409126D01*
X108753400Y-69409126D01*
X108693649Y-69415011D01*
X108640234Y-69431214D01*
X108904809Y-69166640D01*
X108922253Y-69152324D01*
X108941273Y-69129149D01*
X108963882Y-69101600D01*
X109855000Y-69101600D01*
X109874821Y-69099648D01*
X109893881Y-69093866D01*
X109911446Y-69084477D01*
X109926842Y-69071842D01*
X109939477Y-69056446D01*
X109948866Y-69038881D01*
X109954648Y-69019821D01*
X109956600Y-69000000D01*
X109956600Y-65445173D01*
X111124308Y-65475249D01*
X111124308Y-65475249D01*
G37*
X111124308Y-65475249D02*
X112611798Y-65667835D01*
X114071603Y-66012345D01*
X114852753Y-66284069D01*
X114844848Y-66286467D01*
X114766397Y-66328401D01*
X114697633Y-66384833D01*
X114681000Y-66405101D01*
X114664367Y-66384833D01*
X114595603Y-66328401D01*
X114517152Y-66286467D01*
X114432027Y-66260645D01*
X114343500Y-66251926D01*
X114216303Y-66251926D01*
X114075573Y-66111196D01*
X114061252Y-66093746D01*
X113991635Y-66036612D01*
X113912208Y-65994158D01*
X113826026Y-65968014D01*
X113758859Y-65961399D01*
X113758849Y-65961399D01*
X113736399Y-65959188D01*
X113713949Y-65961399D01*
X111914366Y-65961399D01*
X111899400Y-65959925D01*
X111086600Y-65959925D01*
X111026849Y-65965810D01*
X110969394Y-65983239D01*
X110916443Y-66011541D01*
X110870032Y-66049631D01*
X110831942Y-66096042D01*
X110803640Y-66148993D01*
X110786211Y-66206448D01*
X110780326Y-66266199D01*
X110780326Y-66570999D01*
X110786211Y-66630750D01*
X110797693Y-66668600D01*
X110786211Y-66706450D01*
X110780326Y-66766201D01*
X110780326Y-67071001D01*
X110786211Y-67130752D01*
X110797692Y-67168600D01*
X110786211Y-67206449D01*
X110780326Y-67266200D01*
X110780326Y-67447321D01*
X110769177Y-67453457D01*
X110723455Y-67491925D01*
X110686117Y-67538573D01*
X110658597Y-67591609D01*
X110641952Y-67648996D01*
X110636823Y-67708526D01*
X110647481Y-68580257D01*
X109821138Y-69406600D01*
X109097867Y-69406600D01*
X109067173Y-69400881D01*
X108997620Y-69396805D01*
X108928105Y-69401478D01*
X108869586Y-69409126D01*
X108753400Y-69409126D01*
X108693649Y-69415011D01*
X108640234Y-69431214D01*
X108904809Y-69166640D01*
X108922253Y-69152324D01*
X108941273Y-69129149D01*
X108963882Y-69101600D01*
X109855000Y-69101600D01*
X109874821Y-69099648D01*
X109893881Y-69093866D01*
X109911446Y-69084477D01*
X109926842Y-69071842D01*
X109939477Y-69056446D01*
X109948866Y-69038881D01*
X109954648Y-69019821D01*
X109956600Y-69000000D01*
X109956600Y-65445173D01*
X111124308Y-65475249D01*
M02*
