G04 #@! TF.GenerationSoftware,KiCad,Pcbnew,(5.1.4)-1*
G04 #@! TF.CreationDate,2020-09-01T15:21:42-07:00*
G04 #@! TF.ProjectId,LED_Ring,4c45445f-5269-46e6-972e-6b696361645f,rev?*
G04 #@! TF.SameCoordinates,Original*
G04 #@! TF.FileFunction,Soldermask,Bot*
G04 #@! TF.FilePolarity,Negative*
%FSLAX46Y46*%
G04 Gerber Fmt 4.6, Leading zero omitted, Abs format (unit mm)*
G04 Created by KiCad (PCBNEW (5.1.4)-1) date 2020-09-01 15:21:42*
%MOMM*%
%LPD*%
G04 APERTURE LIST*
%ADD10C,0.100000*%
G04 APERTURE END LIST*
D10*
G36*
X111084497Y-93003799D02*
G01*
X111123107Y-93015511D01*
X111158693Y-93034533D01*
X111189876Y-93060124D01*
X111215467Y-93091307D01*
X111234489Y-93126893D01*
X111246201Y-93165503D01*
X111250400Y-93208141D01*
X111250400Y-93791859D01*
X111246201Y-93834497D01*
X111234489Y-93873107D01*
X111215467Y-93908693D01*
X111189876Y-93939876D01*
X111158693Y-93965467D01*
X111123107Y-93984489D01*
X111084497Y-93996201D01*
X111041859Y-94000400D01*
X110533141Y-94000400D01*
X110490503Y-93996201D01*
X110451893Y-93984489D01*
X110416307Y-93965467D01*
X110385124Y-93939876D01*
X110359533Y-93908693D01*
X110340511Y-93873107D01*
X110328799Y-93834497D01*
X110324600Y-93791859D01*
X110324600Y-93208141D01*
X110328799Y-93165503D01*
X110340511Y-93126893D01*
X110359533Y-93091307D01*
X110385124Y-93060124D01*
X110416307Y-93034533D01*
X110451893Y-93015511D01*
X110490503Y-93003799D01*
X110533141Y-92999600D01*
X111041859Y-92999600D01*
X111084497Y-93003799D01*
X111084497Y-93003799D01*
G37*
G36*
X109509497Y-93003799D02*
G01*
X109548107Y-93015511D01*
X109583693Y-93034533D01*
X109614876Y-93060124D01*
X109640467Y-93091307D01*
X109659489Y-93126893D01*
X109671201Y-93165503D01*
X109675400Y-93208141D01*
X109675400Y-93791859D01*
X109671201Y-93834497D01*
X109659489Y-93873107D01*
X109640467Y-93908693D01*
X109614876Y-93939876D01*
X109583693Y-93965467D01*
X109548107Y-93984489D01*
X109509497Y-93996201D01*
X109466859Y-94000400D01*
X108958141Y-94000400D01*
X108915503Y-93996201D01*
X108876893Y-93984489D01*
X108841307Y-93965467D01*
X108810124Y-93939876D01*
X108784533Y-93908693D01*
X108765511Y-93873107D01*
X108753799Y-93834497D01*
X108749600Y-93791859D01*
X108749600Y-93208141D01*
X108753799Y-93165503D01*
X108765511Y-93126893D01*
X108784533Y-93091307D01*
X108810124Y-93060124D01*
X108841307Y-93034533D01*
X108876893Y-93015511D01*
X108915503Y-93003799D01*
X108958141Y-92999600D01*
X109466859Y-92999600D01*
X109509497Y-93003799D01*
X109509497Y-93003799D01*
G37*
G36*
X105476819Y-92201650D02*
G01*
X105517835Y-92214092D01*
X105987819Y-92408765D01*
X106025605Y-92428963D01*
X106056799Y-92454562D01*
X106082388Y-92485743D01*
X106101409Y-92521329D01*
X106113120Y-92559935D01*
X106117075Y-92600085D01*
X106113121Y-92640232D01*
X106100679Y-92681247D01*
X106091917Y-92702400D01*
X106091916Y-92702404D01*
X106079911Y-92731386D01*
X105877305Y-93220522D01*
X105857105Y-93258311D01*
X105831513Y-93289496D01*
X105800323Y-93315093D01*
X105764741Y-93334112D01*
X105726135Y-93345823D01*
X105685985Y-93349778D01*
X105645839Y-93345824D01*
X105604823Y-93333382D01*
X105134839Y-93138709D01*
X105097053Y-93118511D01*
X105065859Y-93092912D01*
X105040270Y-93061731D01*
X105021249Y-93026145D01*
X105009538Y-92987539D01*
X105005583Y-92947389D01*
X105009537Y-92907242D01*
X105021979Y-92866227D01*
X105245353Y-92326952D01*
X105265553Y-92289163D01*
X105291145Y-92257978D01*
X105322335Y-92232381D01*
X105357917Y-92213362D01*
X105396523Y-92201651D01*
X105436673Y-92197696D01*
X105476819Y-92201650D01*
X105476819Y-92201650D01*
G37*
G36*
X114603477Y-92201651D02*
G01*
X114642083Y-92213362D01*
X114677669Y-92232383D01*
X114708850Y-92257972D01*
X114734449Y-92289166D01*
X114754647Y-92326952D01*
X114978021Y-92866227D01*
X114990463Y-92907243D01*
X114994417Y-92947389D01*
X114990462Y-92987539D01*
X114978751Y-93026145D01*
X114959732Y-93061727D01*
X114934135Y-93092917D01*
X114902950Y-93118509D01*
X114865161Y-93138709D01*
X114395177Y-93333382D01*
X114354162Y-93345824D01*
X114314015Y-93349778D01*
X114273865Y-93345823D01*
X114235259Y-93334112D01*
X114199673Y-93315091D01*
X114168492Y-93289502D01*
X114142893Y-93258308D01*
X114122695Y-93220522D01*
X113920089Y-92731386D01*
X113908084Y-92702404D01*
X113908083Y-92702400D01*
X113899321Y-92681247D01*
X113886879Y-92640231D01*
X113882925Y-92600085D01*
X113886880Y-92559935D01*
X113898591Y-92521329D01*
X113917610Y-92485747D01*
X113943207Y-92454557D01*
X113974392Y-92428965D01*
X114012181Y-92408765D01*
X114482165Y-92214092D01*
X114523180Y-92201650D01*
X114563327Y-92197696D01*
X114603477Y-92201651D01*
X114603477Y-92201651D01*
G37*
G36*
X116058587Y-91598925D02*
G01*
X116097193Y-91610636D01*
X116132779Y-91629657D01*
X116163960Y-91655246D01*
X116189559Y-91686440D01*
X116209757Y-91724226D01*
X116328586Y-92011106D01*
X116416296Y-92222856D01*
X116433131Y-92263501D01*
X116445573Y-92304517D01*
X116449527Y-92344663D01*
X116445572Y-92384813D01*
X116433861Y-92423419D01*
X116414842Y-92459001D01*
X116389245Y-92490191D01*
X116358060Y-92515783D01*
X116320271Y-92535983D01*
X115850287Y-92730656D01*
X115809272Y-92743098D01*
X115769125Y-92747052D01*
X115728975Y-92743097D01*
X115690369Y-92731386D01*
X115654783Y-92712365D01*
X115623602Y-92686776D01*
X115598003Y-92655582D01*
X115577805Y-92617796D01*
X115354431Y-92078521D01*
X115341989Y-92037505D01*
X115338035Y-91997359D01*
X115341990Y-91957209D01*
X115353701Y-91918603D01*
X115372720Y-91883021D01*
X115398317Y-91851831D01*
X115429502Y-91826239D01*
X115467291Y-91806039D01*
X115937275Y-91611366D01*
X115978290Y-91598924D01*
X116018437Y-91594970D01*
X116058587Y-91598925D01*
X116058587Y-91598925D01*
G37*
G36*
X104021709Y-91598924D02*
G01*
X104062725Y-91611366D01*
X104532709Y-91806039D01*
X104570495Y-91826237D01*
X104601689Y-91851836D01*
X104627278Y-91883017D01*
X104646299Y-91918603D01*
X104658010Y-91957209D01*
X104661965Y-91997359D01*
X104658011Y-92037506D01*
X104645569Y-92078521D01*
X104422195Y-92617796D01*
X104401995Y-92655585D01*
X104376403Y-92686770D01*
X104345213Y-92712367D01*
X104309631Y-92731386D01*
X104271025Y-92743097D01*
X104230875Y-92747052D01*
X104190729Y-92743098D01*
X104149713Y-92730656D01*
X103679729Y-92535983D01*
X103641943Y-92515785D01*
X103610749Y-92490186D01*
X103585160Y-92459005D01*
X103566139Y-92423419D01*
X103554428Y-92384813D01*
X103550473Y-92344663D01*
X103554427Y-92304516D01*
X103566869Y-92263501D01*
X103583705Y-92222856D01*
X103671414Y-92011106D01*
X103790243Y-91724226D01*
X103810443Y-91686437D01*
X103836035Y-91655252D01*
X103867225Y-91629655D01*
X103902807Y-91610636D01*
X103941413Y-91598925D01*
X103981563Y-91594970D01*
X104021709Y-91598924D01*
X104021709Y-91598924D01*
G37*
G36*
X119002725Y-89511181D02*
G01*
X119041335Y-89522893D01*
X119076921Y-89541915D01*
X119110043Y-89569097D01*
X119522787Y-89981841D01*
X119549969Y-90014963D01*
X119568991Y-90050549D01*
X119580703Y-90089159D01*
X119584657Y-90129306D01*
X119580703Y-90169453D01*
X119568991Y-90208063D01*
X119549969Y-90243649D01*
X119522787Y-90276771D01*
X119163077Y-90636481D01*
X119129955Y-90663663D01*
X119094369Y-90682685D01*
X119055759Y-90694397D01*
X119015612Y-90698351D01*
X118975465Y-90694397D01*
X118936855Y-90682685D01*
X118901269Y-90663663D01*
X118868147Y-90636481D01*
X118455403Y-90223737D01*
X118428221Y-90190615D01*
X118409199Y-90155029D01*
X118397487Y-90116419D01*
X118393533Y-90076272D01*
X118397487Y-90036125D01*
X118409199Y-89997515D01*
X118428221Y-89961929D01*
X118455403Y-89928807D01*
X118815113Y-89569097D01*
X118848235Y-89541915D01*
X118883821Y-89522893D01*
X118922431Y-89511181D01*
X118962578Y-89507227D01*
X119002725Y-89511181D01*
X119002725Y-89511181D01*
G37*
G36*
X101077569Y-89511181D02*
G01*
X101116179Y-89522893D01*
X101151765Y-89541915D01*
X101184887Y-89569097D01*
X101544597Y-89928807D01*
X101571779Y-89961929D01*
X101590801Y-89997515D01*
X101602513Y-90036125D01*
X101606467Y-90076272D01*
X101602513Y-90116419D01*
X101590801Y-90155029D01*
X101571779Y-90190615D01*
X101544597Y-90223737D01*
X101131853Y-90636481D01*
X101098731Y-90663663D01*
X101063145Y-90682685D01*
X101024535Y-90694397D01*
X100984388Y-90698351D01*
X100944241Y-90694397D01*
X100905631Y-90682685D01*
X100870045Y-90663663D01*
X100836923Y-90636481D01*
X100477213Y-90276771D01*
X100450031Y-90243649D01*
X100431009Y-90208063D01*
X100419297Y-90169453D01*
X100415343Y-90129306D01*
X100419297Y-90089159D01*
X100431009Y-90050549D01*
X100450031Y-90014963D01*
X100477213Y-89981841D01*
X100889957Y-89569097D01*
X100923079Y-89541915D01*
X100958665Y-89522893D01*
X100997275Y-89511181D01*
X101037422Y-89507227D01*
X101077569Y-89511181D01*
X101077569Y-89511181D01*
G37*
G36*
X120116419Y-88397487D02*
G01*
X120155029Y-88409199D01*
X120190615Y-88428221D01*
X120223737Y-88455403D01*
X120636481Y-88868147D01*
X120663663Y-88901269D01*
X120682685Y-88936855D01*
X120694397Y-88975465D01*
X120698351Y-89015612D01*
X120694397Y-89055759D01*
X120682685Y-89094369D01*
X120663663Y-89129955D01*
X120636481Y-89163077D01*
X120276771Y-89522787D01*
X120243649Y-89549969D01*
X120208063Y-89568991D01*
X120169453Y-89580703D01*
X120129306Y-89584657D01*
X120089159Y-89580703D01*
X120050549Y-89568991D01*
X120014963Y-89549969D01*
X119981841Y-89522787D01*
X119569097Y-89110043D01*
X119541915Y-89076921D01*
X119522893Y-89041335D01*
X119511181Y-89002725D01*
X119507227Y-88962578D01*
X119511181Y-88922431D01*
X119522893Y-88883821D01*
X119541915Y-88848235D01*
X119569097Y-88815113D01*
X119928807Y-88455403D01*
X119961929Y-88428221D01*
X119997515Y-88409199D01*
X120036125Y-88397487D01*
X120076272Y-88393533D01*
X120116419Y-88397487D01*
X120116419Y-88397487D01*
G37*
G36*
X99963875Y-88397487D02*
G01*
X100002485Y-88409199D01*
X100038071Y-88428221D01*
X100071193Y-88455403D01*
X100430903Y-88815113D01*
X100458085Y-88848235D01*
X100477107Y-88883821D01*
X100488819Y-88922431D01*
X100492773Y-88962578D01*
X100488819Y-89002725D01*
X100477107Y-89041335D01*
X100458085Y-89076921D01*
X100430903Y-89110043D01*
X100018159Y-89522787D01*
X99985037Y-89549969D01*
X99949451Y-89568991D01*
X99910841Y-89580703D01*
X99870694Y-89584657D01*
X99830547Y-89580703D01*
X99791937Y-89568991D01*
X99756351Y-89549969D01*
X99723229Y-89522787D01*
X99363519Y-89163077D01*
X99336337Y-89129955D01*
X99317315Y-89094369D01*
X99305603Y-89055759D01*
X99301649Y-89015612D01*
X99305603Y-88975465D01*
X99317315Y-88936855D01*
X99336337Y-88901269D01*
X99363519Y-88868147D01*
X99776263Y-88455403D01*
X99809385Y-88428221D01*
X99844971Y-88409199D01*
X99883581Y-88397487D01*
X99923728Y-88393533D01*
X99963875Y-88397487D01*
X99963875Y-88397487D01*
G37*
G36*
X98042791Y-85341990D02*
G01*
X98081397Y-85353701D01*
X98116979Y-85372720D01*
X98148169Y-85398317D01*
X98173761Y-85429502D01*
X98193961Y-85467291D01*
X98388634Y-85937275D01*
X98401076Y-85978290D01*
X98405030Y-86018437D01*
X98401075Y-86058587D01*
X98389364Y-86097193D01*
X98370343Y-86132779D01*
X98344754Y-86163960D01*
X98313560Y-86189559D01*
X98275774Y-86209757D01*
X97963455Y-86339123D01*
X97757656Y-86424368D01*
X97757652Y-86424369D01*
X97736499Y-86433131D01*
X97695483Y-86445573D01*
X97655337Y-86449527D01*
X97615187Y-86445572D01*
X97576581Y-86433861D01*
X97540999Y-86414842D01*
X97509809Y-86389245D01*
X97484217Y-86358060D01*
X97464017Y-86320271D01*
X97269344Y-85850287D01*
X97256902Y-85809272D01*
X97252948Y-85769125D01*
X97256903Y-85728975D01*
X97268614Y-85690369D01*
X97287635Y-85654783D01*
X97313224Y-85623602D01*
X97344418Y-85598003D01*
X97382204Y-85577805D01*
X97815528Y-85398317D01*
X97900322Y-85363194D01*
X97900326Y-85363193D01*
X97921479Y-85354431D01*
X97962495Y-85341989D01*
X98002641Y-85338035D01*
X98042791Y-85341990D01*
X98042791Y-85341990D01*
G37*
G36*
X122037506Y-85341989D02*
G01*
X122078521Y-85354431D01*
X122099674Y-85363193D01*
X122099678Y-85363194D01*
X122184472Y-85398317D01*
X122617796Y-85577805D01*
X122655585Y-85598005D01*
X122686770Y-85623597D01*
X122712367Y-85654787D01*
X122731386Y-85690369D01*
X122743097Y-85728975D01*
X122747052Y-85769125D01*
X122743098Y-85809271D01*
X122730656Y-85850287D01*
X122535983Y-86320271D01*
X122515785Y-86358057D01*
X122490186Y-86389251D01*
X122459005Y-86414840D01*
X122423419Y-86433861D01*
X122384813Y-86445572D01*
X122344663Y-86449527D01*
X122304516Y-86445573D01*
X122263501Y-86433131D01*
X122242348Y-86424369D01*
X122242344Y-86424368D01*
X122036545Y-86339123D01*
X121724226Y-86209757D01*
X121686437Y-86189557D01*
X121655252Y-86163965D01*
X121629655Y-86132775D01*
X121610636Y-86097193D01*
X121598925Y-86058587D01*
X121594970Y-86018437D01*
X121598924Y-85978291D01*
X121611366Y-85937275D01*
X121806039Y-85467291D01*
X121826237Y-85429505D01*
X121851836Y-85398311D01*
X121883017Y-85372722D01*
X121918603Y-85353701D01*
X121957209Y-85341990D01*
X121997359Y-85338035D01*
X122037506Y-85341989D01*
X122037506Y-85341989D01*
G37*
G36*
X97440065Y-83886880D02*
G01*
X97478671Y-83898591D01*
X97514253Y-83917610D01*
X97545443Y-83943207D01*
X97571035Y-83974392D01*
X97591235Y-84012181D01*
X97785908Y-84482165D01*
X97798350Y-84523180D01*
X97802304Y-84563327D01*
X97798349Y-84603477D01*
X97786638Y-84642083D01*
X97767617Y-84677669D01*
X97742028Y-84708850D01*
X97710834Y-84734449D01*
X97673048Y-84754647D01*
X97360729Y-84884013D01*
X97154930Y-84969258D01*
X97154926Y-84969259D01*
X97133773Y-84978021D01*
X97092757Y-84990463D01*
X97052611Y-84994417D01*
X97012461Y-84990462D01*
X96973855Y-84978751D01*
X96938273Y-84959732D01*
X96907083Y-84934135D01*
X96881491Y-84902950D01*
X96861291Y-84865161D01*
X96666618Y-84395177D01*
X96654176Y-84354162D01*
X96650222Y-84314015D01*
X96654177Y-84273865D01*
X96665888Y-84235259D01*
X96684909Y-84199673D01*
X96710498Y-84168492D01*
X96741692Y-84142893D01*
X96779478Y-84122695D01*
X97212802Y-83943207D01*
X97297596Y-83908084D01*
X97297600Y-83908083D01*
X97318753Y-83899321D01*
X97359769Y-83886879D01*
X97399915Y-83882925D01*
X97440065Y-83886880D01*
X97440065Y-83886880D01*
G37*
G36*
X122640232Y-83886879D02*
G01*
X122681247Y-83899321D01*
X122702400Y-83908083D01*
X122702404Y-83908084D01*
X122787198Y-83943207D01*
X123220522Y-84122695D01*
X123258311Y-84142895D01*
X123289496Y-84168487D01*
X123315093Y-84199677D01*
X123334112Y-84235259D01*
X123345823Y-84273865D01*
X123349778Y-84314015D01*
X123345824Y-84354161D01*
X123333382Y-84395177D01*
X123138709Y-84865161D01*
X123118511Y-84902947D01*
X123092912Y-84934141D01*
X123061731Y-84959730D01*
X123026145Y-84978751D01*
X122987539Y-84990462D01*
X122947389Y-84994417D01*
X122907242Y-84990463D01*
X122866227Y-84978021D01*
X122845074Y-84969259D01*
X122845070Y-84969258D01*
X122639271Y-84884013D01*
X122326952Y-84754647D01*
X122289163Y-84734447D01*
X122257978Y-84708855D01*
X122232381Y-84677665D01*
X122213362Y-84642083D01*
X122201651Y-84603477D01*
X122197696Y-84563327D01*
X122201650Y-84523181D01*
X122214092Y-84482165D01*
X122408765Y-84012181D01*
X122428963Y-83974395D01*
X122454562Y-83943201D01*
X122485743Y-83917612D01*
X122521329Y-83898591D01*
X122559935Y-83886880D01*
X122600085Y-83882925D01*
X122640232Y-83886879D01*
X122640232Y-83886879D01*
G37*
G36*
X123834497Y-80328799D02*
G01*
X123873107Y-80340511D01*
X123908693Y-80359533D01*
X123939876Y-80385124D01*
X123965467Y-80416307D01*
X123984489Y-80451893D01*
X123996201Y-80490503D01*
X124000400Y-80533141D01*
X124000400Y-81041859D01*
X123996201Y-81084497D01*
X123984489Y-81123107D01*
X123965467Y-81158693D01*
X123939876Y-81189876D01*
X123908693Y-81215467D01*
X123873107Y-81234489D01*
X123834497Y-81246201D01*
X123791859Y-81250400D01*
X123208141Y-81250400D01*
X123165503Y-81246201D01*
X123126893Y-81234489D01*
X123091307Y-81215467D01*
X123060124Y-81189876D01*
X123034533Y-81158693D01*
X123015511Y-81123107D01*
X123003799Y-81084497D01*
X122999600Y-81041859D01*
X122999600Y-80533141D01*
X123003799Y-80490503D01*
X123015511Y-80451893D01*
X123034533Y-80416307D01*
X123060124Y-80385124D01*
X123091307Y-80359533D01*
X123126893Y-80340511D01*
X123165503Y-80328799D01*
X123208141Y-80324600D01*
X123791859Y-80324600D01*
X123834497Y-80328799D01*
X123834497Y-80328799D01*
G37*
G36*
X96834497Y-80328799D02*
G01*
X96873107Y-80340511D01*
X96908693Y-80359533D01*
X96939876Y-80385124D01*
X96965467Y-80416307D01*
X96984489Y-80451893D01*
X96996201Y-80490503D01*
X97000400Y-80533141D01*
X97000400Y-81041859D01*
X96996201Y-81084497D01*
X96984489Y-81123107D01*
X96965467Y-81158693D01*
X96939876Y-81189876D01*
X96908693Y-81215467D01*
X96873107Y-81234489D01*
X96834497Y-81246201D01*
X96791859Y-81250400D01*
X96208141Y-81250400D01*
X96165503Y-81246201D01*
X96126893Y-81234489D01*
X96091307Y-81215467D01*
X96060124Y-81189876D01*
X96034533Y-81158693D01*
X96015511Y-81123107D01*
X96003799Y-81084497D01*
X95999600Y-81041859D01*
X95999600Y-80533141D01*
X96003799Y-80490503D01*
X96015511Y-80451893D01*
X96034533Y-80416307D01*
X96060124Y-80385124D01*
X96091307Y-80359533D01*
X96126893Y-80340511D01*
X96165503Y-80328799D01*
X96208141Y-80324600D01*
X96791859Y-80324600D01*
X96834497Y-80328799D01*
X96834497Y-80328799D01*
G37*
G36*
X96834497Y-78753799D02*
G01*
X96873107Y-78765511D01*
X96908693Y-78784533D01*
X96939876Y-78810124D01*
X96965467Y-78841307D01*
X96984489Y-78876893D01*
X96996201Y-78915503D01*
X97000400Y-78958141D01*
X97000400Y-79466859D01*
X96996201Y-79509497D01*
X96984489Y-79548107D01*
X96965467Y-79583693D01*
X96939876Y-79614876D01*
X96908693Y-79640467D01*
X96873107Y-79659489D01*
X96834497Y-79671201D01*
X96791859Y-79675400D01*
X96208141Y-79675400D01*
X96165503Y-79671201D01*
X96126893Y-79659489D01*
X96091307Y-79640467D01*
X96060124Y-79614876D01*
X96034533Y-79583693D01*
X96015511Y-79548107D01*
X96003799Y-79509497D01*
X95999600Y-79466859D01*
X95999600Y-78958141D01*
X96003799Y-78915503D01*
X96015511Y-78876893D01*
X96034533Y-78841307D01*
X96060124Y-78810124D01*
X96091307Y-78784533D01*
X96126893Y-78765511D01*
X96165503Y-78753799D01*
X96208141Y-78749600D01*
X96791859Y-78749600D01*
X96834497Y-78753799D01*
X96834497Y-78753799D01*
G37*
G36*
X123834497Y-78753799D02*
G01*
X123873107Y-78765511D01*
X123908693Y-78784533D01*
X123939876Y-78810124D01*
X123965467Y-78841307D01*
X123984489Y-78876893D01*
X123996201Y-78915503D01*
X124000400Y-78958141D01*
X124000400Y-79466859D01*
X123996201Y-79509497D01*
X123984489Y-79548107D01*
X123965467Y-79583693D01*
X123939876Y-79614876D01*
X123908693Y-79640467D01*
X123873107Y-79659489D01*
X123834497Y-79671201D01*
X123791859Y-79675400D01*
X123208141Y-79675400D01*
X123165503Y-79671201D01*
X123126893Y-79659489D01*
X123091307Y-79640467D01*
X123060124Y-79614876D01*
X123034533Y-79583693D01*
X123015511Y-79548107D01*
X123003799Y-79509497D01*
X122999600Y-79466859D01*
X122999600Y-78958141D01*
X123003799Y-78915503D01*
X123015511Y-78876893D01*
X123034533Y-78841307D01*
X123060124Y-78810124D01*
X123091307Y-78784533D01*
X123126893Y-78765511D01*
X123165503Y-78753799D01*
X123208141Y-78749600D01*
X123791859Y-78749600D01*
X123834497Y-78753799D01*
X123834497Y-78753799D01*
G37*
G36*
X99112676Y-75396102D02*
G01*
X99211715Y-75426145D01*
X99302989Y-75474932D01*
X99382991Y-75540589D01*
X99448648Y-75620591D01*
X99497435Y-75711865D01*
X99527478Y-75810904D01*
X99537622Y-75913900D01*
X99527478Y-76016896D01*
X99497435Y-76115935D01*
X99448648Y-76207209D01*
X99382991Y-76287211D01*
X99302989Y-76352868D01*
X99211715Y-76401655D01*
X99112676Y-76431698D01*
X99035490Y-76439300D01*
X98983870Y-76439300D01*
X98906684Y-76431698D01*
X98807645Y-76401655D01*
X98716371Y-76352868D01*
X98636369Y-76287211D01*
X98570712Y-76207209D01*
X98521925Y-76115935D01*
X98491882Y-76016896D01*
X98481738Y-75913900D01*
X98491882Y-75810904D01*
X98521925Y-75711865D01*
X98570712Y-75620591D01*
X98636369Y-75540589D01*
X98716371Y-75474932D01*
X98807645Y-75426145D01*
X98906684Y-75396102D01*
X98983870Y-75388500D01*
X99035490Y-75388500D01*
X99112676Y-75396102D01*
X99112676Y-75396102D01*
G37*
G36*
X121044576Y-75395622D02*
G01*
X121143615Y-75425665D01*
X121234889Y-75474452D01*
X121314891Y-75540109D01*
X121380548Y-75620111D01*
X121429335Y-75711385D01*
X121459378Y-75810424D01*
X121469522Y-75913420D01*
X121459378Y-76016416D01*
X121429335Y-76115455D01*
X121380548Y-76206729D01*
X121314891Y-76286731D01*
X121234889Y-76352388D01*
X121143615Y-76401175D01*
X121044576Y-76431218D01*
X120967390Y-76438820D01*
X120915770Y-76438820D01*
X120838584Y-76431218D01*
X120739545Y-76401175D01*
X120648271Y-76352388D01*
X120568269Y-76286731D01*
X120502612Y-76206729D01*
X120453825Y-76115455D01*
X120423782Y-76016416D01*
X120413638Y-75913420D01*
X120423782Y-75810424D01*
X120453825Y-75711385D01*
X120502612Y-75620111D01*
X120568269Y-75540109D01*
X120648271Y-75474452D01*
X120739545Y-75425665D01*
X120838584Y-75395622D01*
X120915770Y-75388020D01*
X120967390Y-75388020D01*
X121044576Y-75395622D01*
X121044576Y-75395622D01*
G37*
G36*
X97092758Y-75009537D02*
G01*
X97133773Y-75021979D01*
X97154926Y-75030741D01*
X97154930Y-75030742D01*
X97239724Y-75065865D01*
X97673048Y-75245353D01*
X97710837Y-75265553D01*
X97742022Y-75291145D01*
X97767619Y-75322335D01*
X97786638Y-75357917D01*
X97798349Y-75396523D01*
X97802304Y-75436673D01*
X97798350Y-75476819D01*
X97785908Y-75517835D01*
X97591235Y-75987819D01*
X97571037Y-76025605D01*
X97545438Y-76056799D01*
X97514257Y-76082388D01*
X97478671Y-76101409D01*
X97440065Y-76113120D01*
X97399915Y-76117075D01*
X97359768Y-76113121D01*
X97318753Y-76100679D01*
X97297600Y-76091917D01*
X97297596Y-76091916D01*
X97137508Y-76025605D01*
X96779478Y-75877305D01*
X96741689Y-75857105D01*
X96710504Y-75831513D01*
X96684907Y-75800323D01*
X96665888Y-75764741D01*
X96654177Y-75726135D01*
X96650222Y-75685985D01*
X96654176Y-75645839D01*
X96666618Y-75604823D01*
X96861291Y-75134839D01*
X96881489Y-75097053D01*
X96907088Y-75065859D01*
X96938269Y-75040270D01*
X96973855Y-75021249D01*
X97012461Y-75009538D01*
X97052611Y-75005583D01*
X97092758Y-75009537D01*
X97092758Y-75009537D01*
G37*
G36*
X122987539Y-75009538D02*
G01*
X123026145Y-75021249D01*
X123061727Y-75040268D01*
X123092917Y-75065865D01*
X123118509Y-75097050D01*
X123138709Y-75134839D01*
X123333382Y-75604823D01*
X123345824Y-75645838D01*
X123349778Y-75685985D01*
X123345823Y-75726135D01*
X123334112Y-75764741D01*
X123315091Y-75800327D01*
X123289502Y-75831508D01*
X123258308Y-75857107D01*
X123220522Y-75877305D01*
X122862492Y-76025605D01*
X122702404Y-76091916D01*
X122702400Y-76091917D01*
X122681247Y-76100679D01*
X122640231Y-76113121D01*
X122600085Y-76117075D01*
X122559935Y-76113120D01*
X122521329Y-76101409D01*
X122485747Y-76082390D01*
X122454557Y-76056793D01*
X122428965Y-76025608D01*
X122408765Y-75987819D01*
X122214092Y-75517835D01*
X122201650Y-75476820D01*
X122197696Y-75436673D01*
X122201651Y-75396523D01*
X122213362Y-75357917D01*
X122232383Y-75322331D01*
X122257972Y-75291150D01*
X122289166Y-75265551D01*
X122326952Y-75245353D01*
X122760276Y-75065865D01*
X122845070Y-75030742D01*
X122845074Y-75030741D01*
X122866227Y-75021979D01*
X122907243Y-75009537D01*
X122947389Y-75005583D01*
X122987539Y-75009538D01*
X122987539Y-75009538D01*
G37*
G36*
X99112676Y-74126102D02*
G01*
X99211715Y-74156145D01*
X99302989Y-74204932D01*
X99382991Y-74270589D01*
X99448648Y-74350591D01*
X99497435Y-74441865D01*
X99527478Y-74540904D01*
X99537622Y-74643900D01*
X99527478Y-74746896D01*
X99497435Y-74845935D01*
X99448648Y-74937209D01*
X99382991Y-75017211D01*
X99302989Y-75082868D01*
X99211715Y-75131655D01*
X99112676Y-75161698D01*
X99035490Y-75169300D01*
X98983870Y-75169300D01*
X98906684Y-75161698D01*
X98807645Y-75131655D01*
X98716371Y-75082868D01*
X98636369Y-75017211D01*
X98570712Y-74937209D01*
X98521925Y-74845935D01*
X98491882Y-74746896D01*
X98481738Y-74643900D01*
X98491882Y-74540904D01*
X98521925Y-74441865D01*
X98570712Y-74350591D01*
X98636369Y-74270589D01*
X98716371Y-74204932D01*
X98807645Y-74156145D01*
X98906684Y-74126102D01*
X98983870Y-74118500D01*
X99035490Y-74118500D01*
X99112676Y-74126102D01*
X99112676Y-74126102D01*
G37*
G36*
X121466980Y-75168820D02*
G01*
X120416180Y-75168820D01*
X120416180Y-74118020D01*
X121466980Y-74118020D01*
X121466980Y-75168820D01*
X121466980Y-75168820D01*
G37*
G36*
X97695484Y-73554427D02*
G01*
X97736499Y-73566869D01*
X97757652Y-73575631D01*
X97757656Y-73575632D01*
X97842450Y-73610755D01*
X98275774Y-73790243D01*
X98313563Y-73810443D01*
X98344748Y-73836035D01*
X98370345Y-73867225D01*
X98388680Y-73901528D01*
X98394212Y-73909808D01*
X98401254Y-73916850D01*
X98409534Y-73922382D01*
X98410298Y-73922698D01*
X98406043Y-73930659D01*
X98403152Y-73940189D01*
X98402176Y-73950099D01*
X98402421Y-73955078D01*
X98405030Y-73981563D01*
X98401076Y-74021709D01*
X98388634Y-74062725D01*
X98193961Y-74532709D01*
X98173763Y-74570495D01*
X98148164Y-74601689D01*
X98116983Y-74627278D01*
X98081397Y-74646299D01*
X98042791Y-74658010D01*
X98002641Y-74661965D01*
X97962494Y-74658011D01*
X97921479Y-74645569D01*
X97900326Y-74636807D01*
X97900322Y-74636806D01*
X97694523Y-74551561D01*
X97382204Y-74422195D01*
X97344415Y-74401995D01*
X97313230Y-74376403D01*
X97287633Y-74345213D01*
X97268614Y-74309631D01*
X97256903Y-74271025D01*
X97252948Y-74230875D01*
X97256902Y-74190729D01*
X97269344Y-74149713D01*
X97464017Y-73679729D01*
X97484215Y-73641943D01*
X97509814Y-73610749D01*
X97540995Y-73585160D01*
X97576581Y-73566139D01*
X97615187Y-73554428D01*
X97655337Y-73550473D01*
X97695484Y-73554427D01*
X97695484Y-73554427D01*
G37*
G36*
X122384813Y-73554428D02*
G01*
X122423419Y-73566139D01*
X122459001Y-73585158D01*
X122490191Y-73610755D01*
X122515783Y-73641940D01*
X122535983Y-73679729D01*
X122730656Y-74149713D01*
X122743098Y-74190728D01*
X122747052Y-74230875D01*
X122743097Y-74271025D01*
X122731386Y-74309631D01*
X122712365Y-74345217D01*
X122686776Y-74376398D01*
X122655582Y-74401997D01*
X122617796Y-74422195D01*
X122305477Y-74551561D01*
X122099678Y-74636806D01*
X122099674Y-74636807D01*
X122078521Y-74645569D01*
X122037505Y-74658011D01*
X121997359Y-74661965D01*
X121957209Y-74658010D01*
X121918603Y-74646299D01*
X121883021Y-74627280D01*
X121851831Y-74601683D01*
X121826239Y-74570498D01*
X121806039Y-74532709D01*
X121611366Y-74062725D01*
X121598924Y-74021710D01*
X121594970Y-73981563D01*
X121598925Y-73941413D01*
X121610636Y-73902807D01*
X121629657Y-73867221D01*
X121655246Y-73836040D01*
X121686440Y-73810441D01*
X121724226Y-73790243D01*
X122157550Y-73610755D01*
X122242344Y-73575632D01*
X122242348Y-73575631D01*
X122263501Y-73566869D01*
X122304517Y-73554427D01*
X122344663Y-73550473D01*
X122384813Y-73554428D01*
X122384813Y-73554428D01*
G37*
G36*
X99535080Y-73899300D02*
G01*
X98479204Y-73899300D01*
X98482092Y-73892329D01*
X98484035Y-73882562D01*
X98484280Y-73877582D01*
X98484280Y-72848500D01*
X99535080Y-72848500D01*
X99535080Y-73899300D01*
X99535080Y-73899300D01*
G37*
G36*
X99910841Y-70419297D02*
G01*
X99949451Y-70431009D01*
X99985037Y-70450031D01*
X100018159Y-70477213D01*
X100430903Y-70889957D01*
X100458085Y-70923079D01*
X100477107Y-70958665D01*
X100488819Y-70997275D01*
X100492773Y-71037422D01*
X100488819Y-71077569D01*
X100477107Y-71116179D01*
X100458085Y-71151765D01*
X100430903Y-71184887D01*
X100071193Y-71544597D01*
X100038071Y-71571779D01*
X100002485Y-71590801D01*
X99963875Y-71602513D01*
X99923728Y-71606467D01*
X99883581Y-71602513D01*
X99844971Y-71590801D01*
X99809385Y-71571779D01*
X99776263Y-71544597D01*
X99363519Y-71131853D01*
X99336337Y-71098731D01*
X99317315Y-71063145D01*
X99305603Y-71024535D01*
X99301649Y-70984388D01*
X99305603Y-70944241D01*
X99317315Y-70905631D01*
X99336337Y-70870045D01*
X99363519Y-70836923D01*
X99723229Y-70477213D01*
X99756351Y-70450031D01*
X99791937Y-70431009D01*
X99830547Y-70419297D01*
X99870694Y-70415343D01*
X99910841Y-70419297D01*
X99910841Y-70419297D01*
G37*
G36*
X120169453Y-70419297D02*
G01*
X120208063Y-70431009D01*
X120243649Y-70450031D01*
X120276771Y-70477213D01*
X120636481Y-70836923D01*
X120663663Y-70870045D01*
X120682685Y-70905631D01*
X120694397Y-70944241D01*
X120698351Y-70984388D01*
X120694397Y-71024535D01*
X120682685Y-71063145D01*
X120663663Y-71098731D01*
X120636481Y-71131853D01*
X120223737Y-71544597D01*
X120190615Y-71571779D01*
X120155029Y-71590801D01*
X120116419Y-71602513D01*
X120076272Y-71606467D01*
X120036125Y-71602513D01*
X119997515Y-71590801D01*
X119961929Y-71571779D01*
X119928807Y-71544597D01*
X119569097Y-71184887D01*
X119541915Y-71151765D01*
X119522893Y-71116179D01*
X119511181Y-71077569D01*
X119507227Y-71037422D01*
X119511181Y-70997275D01*
X119522893Y-70958665D01*
X119541915Y-70923079D01*
X119569097Y-70889957D01*
X119981841Y-70477213D01*
X120014963Y-70450031D01*
X120050549Y-70431009D01*
X120089159Y-70419297D01*
X120129306Y-70415343D01*
X120169453Y-70419297D01*
X120169453Y-70419297D01*
G37*
G36*
X119055759Y-69305603D02*
G01*
X119094369Y-69317315D01*
X119129955Y-69336337D01*
X119163077Y-69363519D01*
X119522787Y-69723229D01*
X119549969Y-69756351D01*
X119568991Y-69791937D01*
X119580703Y-69830547D01*
X119584657Y-69870694D01*
X119580703Y-69910841D01*
X119568991Y-69949451D01*
X119549969Y-69985037D01*
X119522787Y-70018159D01*
X119110043Y-70430903D01*
X119076921Y-70458085D01*
X119041335Y-70477107D01*
X119002725Y-70488819D01*
X118962578Y-70492773D01*
X118922431Y-70488819D01*
X118883821Y-70477107D01*
X118848235Y-70458085D01*
X118815113Y-70430903D01*
X118455403Y-70071193D01*
X118428221Y-70038071D01*
X118409199Y-70002485D01*
X118397487Y-69963875D01*
X118393533Y-69923728D01*
X118397487Y-69883581D01*
X118409199Y-69844971D01*
X118428221Y-69809385D01*
X118455403Y-69776263D01*
X118868147Y-69363519D01*
X118901269Y-69336337D01*
X118936855Y-69317315D01*
X118975465Y-69305603D01*
X119015612Y-69301649D01*
X119055759Y-69305603D01*
X119055759Y-69305603D01*
G37*
G36*
X101024535Y-69305603D02*
G01*
X101063145Y-69317315D01*
X101098731Y-69336337D01*
X101131853Y-69363519D01*
X101544597Y-69776263D01*
X101571779Y-69809385D01*
X101590801Y-69844971D01*
X101602513Y-69883581D01*
X101606467Y-69923728D01*
X101602513Y-69963875D01*
X101590801Y-70002485D01*
X101571779Y-70038071D01*
X101544597Y-70071193D01*
X101184887Y-70430903D01*
X101151765Y-70458085D01*
X101116179Y-70477107D01*
X101077569Y-70488819D01*
X101037422Y-70492773D01*
X100997275Y-70488819D01*
X100958665Y-70477107D01*
X100923079Y-70458085D01*
X100889957Y-70430903D01*
X100477213Y-70018159D01*
X100450031Y-69985037D01*
X100431009Y-69949451D01*
X100419297Y-69910841D01*
X100415343Y-69870694D01*
X100419297Y-69830547D01*
X100431009Y-69791937D01*
X100450031Y-69756351D01*
X100477213Y-69723229D01*
X100836923Y-69363519D01*
X100870045Y-69336337D01*
X100905631Y-69317315D01*
X100944241Y-69305603D01*
X100984388Y-69301649D01*
X101024535Y-69305603D01*
X101024535Y-69305603D01*
G37*
G36*
X104271025Y-67256903D02*
G01*
X104309631Y-67268614D01*
X104345217Y-67287635D01*
X104376398Y-67313224D01*
X104401997Y-67344418D01*
X104422195Y-67382204D01*
X104645569Y-67921479D01*
X104658011Y-67962495D01*
X104661965Y-68002641D01*
X104658010Y-68042791D01*
X104646299Y-68081397D01*
X104627280Y-68116979D01*
X104601683Y-68148169D01*
X104570498Y-68173761D01*
X104532709Y-68193961D01*
X104062725Y-68388634D01*
X104021710Y-68401076D01*
X103981563Y-68405030D01*
X103941413Y-68401075D01*
X103902807Y-68389364D01*
X103867221Y-68370343D01*
X103836040Y-68344754D01*
X103810441Y-68313560D01*
X103790243Y-68275774D01*
X103587637Y-67786638D01*
X103575632Y-67757656D01*
X103575631Y-67757652D01*
X103566869Y-67736499D01*
X103554427Y-67695483D01*
X103550473Y-67655337D01*
X103554428Y-67615187D01*
X103566139Y-67576581D01*
X103585158Y-67540999D01*
X103610755Y-67509809D01*
X103641940Y-67484217D01*
X103679729Y-67464017D01*
X104149713Y-67269344D01*
X104190728Y-67256902D01*
X104230875Y-67252948D01*
X104271025Y-67256903D01*
X104271025Y-67256903D01*
G37*
G36*
X115809271Y-67256902D02*
G01*
X115850287Y-67269344D01*
X116320271Y-67464017D01*
X116358057Y-67484215D01*
X116389251Y-67509814D01*
X116414840Y-67540995D01*
X116433861Y-67576581D01*
X116445572Y-67615187D01*
X116449527Y-67655337D01*
X116445573Y-67695484D01*
X116433131Y-67736499D01*
X116424369Y-67757652D01*
X116424368Y-67757656D01*
X116412363Y-67786638D01*
X116209757Y-68275774D01*
X116189557Y-68313563D01*
X116163965Y-68344748D01*
X116132775Y-68370345D01*
X116097193Y-68389364D01*
X116058587Y-68401075D01*
X116018437Y-68405030D01*
X115978291Y-68401076D01*
X115937275Y-68388634D01*
X115467291Y-68193961D01*
X115429505Y-68173763D01*
X115398311Y-68148164D01*
X115372722Y-68116983D01*
X115353701Y-68081397D01*
X115341990Y-68042791D01*
X115338035Y-68002641D01*
X115341989Y-67962494D01*
X115354431Y-67921479D01*
X115577805Y-67382204D01*
X115598005Y-67344415D01*
X115623597Y-67313230D01*
X115654787Y-67287633D01*
X115690369Y-67268614D01*
X115728975Y-67256903D01*
X115769125Y-67252948D01*
X115809271Y-67256902D01*
X115809271Y-67256902D01*
G37*
G36*
X114354161Y-66654176D02*
G01*
X114395177Y-66666618D01*
X114865161Y-66861291D01*
X114902947Y-66881489D01*
X114934141Y-66907088D01*
X114959730Y-66938269D01*
X114978751Y-66973855D01*
X114990462Y-67012461D01*
X114994417Y-67052611D01*
X114990463Y-67092758D01*
X114978021Y-67133773D01*
X114754647Y-67673048D01*
X114734447Y-67710837D01*
X114708855Y-67742022D01*
X114677665Y-67767619D01*
X114642083Y-67786638D01*
X114603477Y-67798349D01*
X114563327Y-67802304D01*
X114523181Y-67798350D01*
X114482165Y-67785908D01*
X114012181Y-67591235D01*
X113974395Y-67571037D01*
X113943201Y-67545438D01*
X113917612Y-67514257D01*
X113898591Y-67478671D01*
X113886880Y-67440065D01*
X113882925Y-67399915D01*
X113886879Y-67359768D01*
X113899321Y-67318753D01*
X113916157Y-67278108D01*
X114003866Y-67066358D01*
X114122695Y-66779478D01*
X114142895Y-66741689D01*
X114168487Y-66710504D01*
X114199677Y-66684907D01*
X114235259Y-66665888D01*
X114273865Y-66654177D01*
X114314015Y-66650222D01*
X114354161Y-66654176D01*
X114354161Y-66654176D01*
G37*
G36*
X105726135Y-66654177D02*
G01*
X105764741Y-66665888D01*
X105800327Y-66684909D01*
X105831508Y-66710498D01*
X105857107Y-66741692D01*
X105877305Y-66779478D01*
X105996134Y-67066358D01*
X106083844Y-67278108D01*
X106100679Y-67318753D01*
X106113121Y-67359769D01*
X106117075Y-67399915D01*
X106113120Y-67440065D01*
X106101409Y-67478671D01*
X106082390Y-67514253D01*
X106056793Y-67545443D01*
X106025608Y-67571035D01*
X105987819Y-67591235D01*
X105517835Y-67785908D01*
X105476820Y-67798350D01*
X105436673Y-67802304D01*
X105396523Y-67798349D01*
X105357917Y-67786638D01*
X105322331Y-67767617D01*
X105291150Y-67742028D01*
X105265551Y-67710834D01*
X105245353Y-67673048D01*
X105021979Y-67133773D01*
X105009537Y-67092757D01*
X105005583Y-67052611D01*
X105009538Y-67012461D01*
X105021249Y-66973855D01*
X105040268Y-66938273D01*
X105065865Y-66907083D01*
X105097050Y-66881491D01*
X105134839Y-66861291D01*
X105604823Y-66666618D01*
X105645838Y-66654176D01*
X105685985Y-66650222D01*
X105726135Y-66654177D01*
X105726135Y-66654177D01*
G37*
G36*
X111084497Y-66003799D02*
G01*
X111123107Y-66015511D01*
X111158693Y-66034533D01*
X111189876Y-66060124D01*
X111215467Y-66091307D01*
X111234489Y-66126893D01*
X111246201Y-66165503D01*
X111250400Y-66208141D01*
X111250400Y-66791859D01*
X111246201Y-66834497D01*
X111234489Y-66873107D01*
X111215467Y-66908693D01*
X111189876Y-66939876D01*
X111158693Y-66965467D01*
X111123107Y-66984489D01*
X111084497Y-66996201D01*
X111041859Y-67000400D01*
X110533141Y-67000400D01*
X110490503Y-66996201D01*
X110451893Y-66984489D01*
X110416307Y-66965467D01*
X110385124Y-66939876D01*
X110359533Y-66908693D01*
X110340511Y-66873107D01*
X110328799Y-66834497D01*
X110324600Y-66791859D01*
X110324600Y-66208141D01*
X110328799Y-66165503D01*
X110340511Y-66126893D01*
X110359533Y-66091307D01*
X110385124Y-66060124D01*
X110416307Y-66034533D01*
X110451893Y-66015511D01*
X110490503Y-66003799D01*
X110533141Y-65999600D01*
X111041859Y-65999600D01*
X111084497Y-66003799D01*
X111084497Y-66003799D01*
G37*
G36*
X109509497Y-66003799D02*
G01*
X109548107Y-66015511D01*
X109583693Y-66034533D01*
X109614876Y-66060124D01*
X109640467Y-66091307D01*
X109659489Y-66126893D01*
X109671201Y-66165503D01*
X109675400Y-66208141D01*
X109675400Y-66791859D01*
X109671201Y-66834497D01*
X109659489Y-66873107D01*
X109640467Y-66908693D01*
X109614876Y-66939876D01*
X109583693Y-66965467D01*
X109548107Y-66984489D01*
X109509497Y-66996201D01*
X109466859Y-67000400D01*
X108958141Y-67000400D01*
X108915503Y-66996201D01*
X108876893Y-66984489D01*
X108841307Y-66965467D01*
X108810124Y-66939876D01*
X108784533Y-66908693D01*
X108765511Y-66873107D01*
X108753799Y-66834497D01*
X108749600Y-66791859D01*
X108749600Y-66208141D01*
X108753799Y-66165503D01*
X108765511Y-66126893D01*
X108784533Y-66091307D01*
X108810124Y-66060124D01*
X108841307Y-66034533D01*
X108876893Y-66015511D01*
X108915503Y-66003799D01*
X108958141Y-65999600D01*
X109466859Y-65999600D01*
X109509497Y-66003799D01*
X109509497Y-66003799D01*
G37*
M02*
