G04 #@! TF.GenerationSoftware,KiCad,Pcbnew,(5.1.4)-1*
G04 #@! TF.CreationDate,2020-09-02T00:42:46-07:00*
G04 #@! TF.ProjectId,LED_Ring,4c45445f-5269-46e6-972e-6b696361645f,rev?*
G04 #@! TF.SameCoordinates,Original*
G04 #@! TF.FileFunction,Legend,Top*
G04 #@! TF.FilePolarity,Positive*
%FSLAX46Y46*%
G04 Gerber Fmt 4.6, Leading zero omitted, Abs format (unit mm)*
G04 Created by KiCad (PCBNEW (5.1.4)-1) date 2020-09-02 00:42:46*
%MOMM*%
%LPD*%
G04 APERTURE LIST*
%ADD10C,0.203000*%
%ADD11C,0.150000*%
%ADD12C,0.120000*%
%ADD13C,0.100000*%
%ADD14C,0.152400*%
%ADD15C,0.050000*%
%ADD16C,0.127000*%
G04 APERTURE END LIST*
D10*
X100682540Y-78146642D02*
X95778614Y-77171190D01*
X119317460Y-78146642D02*
X124221386Y-77171190D01*
X119500000Y-80000000D02*
X124500000Y-80000000D01*
X119317460Y-81853358D02*
X124221386Y-82828810D01*
X118776856Y-83635493D02*
X123396254Y-85548910D01*
X117898961Y-85277917D02*
X122056309Y-88055768D01*
X116717514Y-86717514D02*
X120253048Y-90253048D01*
X115277917Y-87898961D02*
X118055768Y-92056309D01*
X113635493Y-88776856D02*
X115548910Y-93396254D01*
X106364507Y-88776856D02*
X104451090Y-93396254D01*
X104722083Y-87898961D02*
X101944232Y-92056309D01*
X103282486Y-86717514D02*
X99746952Y-90253048D01*
X102101039Y-85277917D02*
X97943691Y-88055768D01*
X101223144Y-83635493D02*
X96603746Y-85548910D01*
X100682540Y-81853358D02*
X95778614Y-82828810D01*
X100545745Y-79068837D02*
X95569821Y-78578752D01*
X119454255Y-79068837D02*
X124430179Y-78578751D01*
X119454255Y-80931163D02*
X124430179Y-81421248D01*
X119090933Y-82757704D02*
X123875635Y-84209127D01*
X118378252Y-84478269D02*
X122787859Y-86835253D01*
X117343599Y-86026736D02*
X121208652Y-89198702D01*
X116026736Y-87343599D02*
X119198703Y-91208651D01*
X114478269Y-88378252D02*
X116835253Y-92787859D01*
X105521731Y-88378252D02*
X103164747Y-92787859D01*
X103973264Y-87343599D02*
X100801298Y-91208652D01*
X102656401Y-86026736D02*
X98791349Y-89198703D01*
X101621748Y-84478269D02*
X97212141Y-86835253D01*
X100909067Y-82757705D02*
X96124365Y-84209129D01*
X100545745Y-80931163D02*
X95569821Y-81421249D01*
X100500000Y-80000000D02*
X95500000Y-80000000D01*
D11*
X106855000Y-91109066D02*
X107188333Y-91109066D01*
X106788333Y-91309066D02*
X107021666Y-90609066D01*
X107255000Y-91309066D01*
X107488333Y-91309066D02*
X107488333Y-90609066D01*
X107788333Y-91309066D02*
X107788333Y-90942400D01*
X107755000Y-90875733D01*
X107688333Y-90842400D01*
X107588333Y-90842400D01*
X107521666Y-90875733D01*
X107488333Y-90909066D01*
X108421666Y-91309066D02*
X108421666Y-90942400D01*
X108388333Y-90875733D01*
X108321666Y-90842400D01*
X108188333Y-90842400D01*
X108121666Y-90875733D01*
X108421666Y-91275733D02*
X108355000Y-91309066D01*
X108188333Y-91309066D01*
X108121666Y-91275733D01*
X108088333Y-91209066D01*
X108088333Y-91142400D01*
X108121666Y-91075733D01*
X108188333Y-91042400D01*
X108355000Y-91042400D01*
X108421666Y-91009066D01*
X108755000Y-91309066D02*
X108755000Y-90842400D01*
X108755000Y-90975733D02*
X108788333Y-90909066D01*
X108821666Y-90875733D01*
X108888333Y-90842400D01*
X108955000Y-90842400D01*
X109288333Y-91309066D02*
X109221666Y-91275733D01*
X109188333Y-91242400D01*
X109155000Y-91175733D01*
X109155000Y-90975733D01*
X109188333Y-90909066D01*
X109221666Y-90875733D01*
X109288333Y-90842400D01*
X109388333Y-90842400D01*
X109455000Y-90875733D01*
X109488333Y-90909066D01*
X109521666Y-90975733D01*
X109521666Y-91175733D01*
X109488333Y-91242400D01*
X109455000Y-91275733D01*
X109388333Y-91309066D01*
X109288333Y-91309066D01*
X109821666Y-90842400D02*
X109821666Y-91309066D01*
X109821666Y-90909066D02*
X109855000Y-90875733D01*
X109921666Y-90842400D01*
X110021666Y-90842400D01*
X110088333Y-90875733D01*
X110121666Y-90942400D01*
X110121666Y-91309066D01*
X110455000Y-91309066D02*
X110455000Y-90842400D01*
X110455000Y-90609066D02*
X110421666Y-90642400D01*
X110455000Y-90675733D01*
X110488333Y-90642400D01*
X110455000Y-90609066D01*
X110455000Y-90675733D01*
X111655000Y-91309066D02*
X111321666Y-91309066D01*
X111321666Y-90609066D01*
X112188333Y-91309066D02*
X112188333Y-90942400D01*
X112155000Y-90875733D01*
X112088333Y-90842400D01*
X111955000Y-90842400D01*
X111888333Y-90875733D01*
X112188333Y-91275733D02*
X112121666Y-91309066D01*
X111955000Y-91309066D01*
X111888333Y-91275733D01*
X111855000Y-91209066D01*
X111855000Y-91142400D01*
X111888333Y-91075733D01*
X111955000Y-91042400D01*
X112121666Y-91042400D01*
X112188333Y-91009066D01*
X112521666Y-91309066D02*
X112521666Y-90609066D01*
X112521666Y-90875733D02*
X112588333Y-90842400D01*
X112721666Y-90842400D01*
X112788333Y-90875733D01*
X112821666Y-90909066D01*
X112855000Y-90975733D01*
X112855000Y-91175733D01*
X112821666Y-91242400D01*
X112788333Y-91275733D01*
X112721666Y-91309066D01*
X112588333Y-91309066D01*
X112521666Y-91275733D01*
X106621666Y-92509066D02*
X106288333Y-92509066D01*
X106288333Y-91809066D01*
X106855000Y-92142400D02*
X107088333Y-92142400D01*
X107188333Y-92509066D02*
X106855000Y-92509066D01*
X106855000Y-91809066D01*
X107188333Y-91809066D01*
X107488333Y-92509066D02*
X107488333Y-91809066D01*
X107655000Y-91809066D01*
X107755000Y-91842400D01*
X107821666Y-91909066D01*
X107855000Y-91975733D01*
X107888333Y-92109066D01*
X107888333Y-92209066D01*
X107855000Y-92342400D01*
X107821666Y-92409066D01*
X107755000Y-92475733D01*
X107655000Y-92509066D01*
X107488333Y-92509066D01*
X108021666Y-92575733D02*
X108555000Y-92575733D01*
X109121666Y-92509066D02*
X108888333Y-92175733D01*
X108721666Y-92509066D02*
X108721666Y-91809066D01*
X108988333Y-91809066D01*
X109055000Y-91842400D01*
X109088333Y-91875733D01*
X109121666Y-91942400D01*
X109121666Y-92042400D01*
X109088333Y-92109066D01*
X109055000Y-92142400D01*
X108988333Y-92175733D01*
X108721666Y-92175733D01*
X109421666Y-92509066D02*
X109421666Y-92042400D01*
X109421666Y-91809066D02*
X109388333Y-91842400D01*
X109421666Y-91875733D01*
X109455000Y-91842400D01*
X109421666Y-91809066D01*
X109421666Y-91875733D01*
X109755000Y-92042400D02*
X109755000Y-92509066D01*
X109755000Y-92109066D02*
X109788333Y-92075733D01*
X109855000Y-92042400D01*
X109955000Y-92042400D01*
X110021666Y-92075733D01*
X110055000Y-92142400D01*
X110055000Y-92509066D01*
X110688333Y-92042400D02*
X110688333Y-92609066D01*
X110655000Y-92675733D01*
X110621666Y-92709066D01*
X110555000Y-92742400D01*
X110455000Y-92742400D01*
X110388333Y-92709066D01*
X110688333Y-92475733D02*
X110621666Y-92509066D01*
X110488333Y-92509066D01*
X110421666Y-92475733D01*
X110388333Y-92442400D01*
X110355000Y-92375733D01*
X110355000Y-92175733D01*
X110388333Y-92109066D01*
X110421666Y-92075733D01*
X110488333Y-92042400D01*
X110621666Y-92042400D01*
X110688333Y-92075733D01*
X111488333Y-92042400D02*
X111655000Y-92509066D01*
X111821666Y-92042400D01*
X112221666Y-91809066D02*
X112288333Y-91809066D01*
X112355000Y-91842400D01*
X112388333Y-91875733D01*
X112421666Y-91942400D01*
X112455000Y-92075733D01*
X112455000Y-92242400D01*
X112421666Y-92375733D01*
X112388333Y-92442400D01*
X112355000Y-92475733D01*
X112288333Y-92509066D01*
X112221666Y-92509066D01*
X112155000Y-92475733D01*
X112121666Y-92442400D01*
X112088333Y-92375733D01*
X112055000Y-92242400D01*
X112055000Y-92075733D01*
X112088333Y-91942400D01*
X112121666Y-91875733D01*
X112155000Y-91842400D01*
X112221666Y-91809066D01*
X112755000Y-92442400D02*
X112788333Y-92475733D01*
X112755000Y-92509066D01*
X112721666Y-92475733D01*
X112755000Y-92442400D01*
X112755000Y-92509066D01*
X113055000Y-91875733D02*
X113088333Y-91842400D01*
X113155000Y-91809066D01*
X113321666Y-91809066D01*
X113388333Y-91842400D01*
X113421666Y-91875733D01*
X113455000Y-91942400D01*
X113455000Y-92009066D01*
X113421666Y-92109066D01*
X113021666Y-92509066D01*
X113455000Y-92509066D01*
D12*
X122498600Y-73338520D02*
X122130300Y-73338520D01*
X122564640Y-77092640D02*
X122153160Y-77092640D01*
D13*
G36*
X122351280Y-76033460D02*
G01*
X122183640Y-75888680D01*
X122351280Y-75741360D01*
X122351280Y-76033460D01*
G37*
X122351280Y-76033460D02*
X122183640Y-75888680D01*
X122351280Y-75741360D01*
X122351280Y-76033460D01*
G36*
X122351280Y-74832040D02*
G01*
X122183640Y-74687260D01*
X122351280Y-74539940D01*
X122351280Y-74832040D01*
G37*
X122351280Y-74832040D02*
X122183640Y-74687260D01*
X122351280Y-74539940D01*
X122351280Y-74832040D01*
D12*
X122958340Y-75886140D02*
X122308100Y-75886140D01*
X122958340Y-77092640D02*
X122958340Y-75886140D01*
X122564640Y-77092640D02*
X122958340Y-77092640D01*
X122950720Y-74687260D02*
X122330960Y-74687260D01*
X122950720Y-73338520D02*
X122950720Y-74687260D01*
X122498600Y-73338520D02*
X122950720Y-73338520D01*
D13*
X120189714Y-77357257D02*
X120275428Y-77385828D01*
X120418285Y-77385828D01*
X120475428Y-77357257D01*
X120504000Y-77328685D01*
X120532571Y-77271542D01*
X120532571Y-77214400D01*
X120504000Y-77157257D01*
X120475428Y-77128685D01*
X120418285Y-77100114D01*
X120304000Y-77071542D01*
X120246857Y-77042971D01*
X120218285Y-77014400D01*
X120189714Y-76957257D01*
X120189714Y-76900114D01*
X120218285Y-76842971D01*
X120246857Y-76814400D01*
X120304000Y-76785828D01*
X120446857Y-76785828D01*
X120532571Y-76814400D01*
X121132571Y-77328685D02*
X121104000Y-77357257D01*
X121018285Y-77385828D01*
X120961142Y-77385828D01*
X120875428Y-77357257D01*
X120818285Y-77300114D01*
X120789714Y-77242971D01*
X120761142Y-77128685D01*
X120761142Y-77042971D01*
X120789714Y-76928685D01*
X120818285Y-76871542D01*
X120875428Y-76814400D01*
X120961142Y-76785828D01*
X121018285Y-76785828D01*
X121104000Y-76814400D01*
X121132571Y-76842971D01*
X121675428Y-77385828D02*
X121389714Y-77385828D01*
X121389714Y-76785828D01*
X120073828Y-73598057D02*
X120159542Y-73626628D01*
X120302400Y-73626628D01*
X120359542Y-73598057D01*
X120388114Y-73569485D01*
X120416685Y-73512342D01*
X120416685Y-73455200D01*
X120388114Y-73398057D01*
X120359542Y-73369485D01*
X120302400Y-73340914D01*
X120188114Y-73312342D01*
X120130971Y-73283771D01*
X120102400Y-73255200D01*
X120073828Y-73198057D01*
X120073828Y-73140914D01*
X120102400Y-73083771D01*
X120130971Y-73055200D01*
X120188114Y-73026628D01*
X120330971Y-73026628D01*
X120416685Y-73055200D01*
X120673828Y-73626628D02*
X120673828Y-73026628D01*
X120816685Y-73026628D01*
X120902400Y-73055200D01*
X120959542Y-73112342D01*
X120988114Y-73169485D01*
X121016685Y-73283771D01*
X121016685Y-73369485D01*
X120988114Y-73483771D01*
X120959542Y-73540914D01*
X120902400Y-73598057D01*
X120816685Y-73626628D01*
X120673828Y-73626628D01*
X121245257Y-73455200D02*
X121530971Y-73455200D01*
X121188114Y-73626628D02*
X121388114Y-73026628D01*
X121588114Y-73626628D01*
X100284477Y-75704888D02*
X100484477Y-76304888D01*
X100684477Y-75704888D01*
X100884477Y-76304888D02*
X100884477Y-75704888D01*
X101284477Y-75704888D02*
X101398762Y-75704888D01*
X101455905Y-75733460D01*
X101513048Y-75790602D01*
X101541620Y-75904888D01*
X101541620Y-76104888D01*
X101513048Y-76219174D01*
X101455905Y-76276317D01*
X101398762Y-76304888D01*
X101284477Y-76304888D01*
X101227334Y-76276317D01*
X101170191Y-76219174D01*
X101141620Y-76104888D01*
X101141620Y-75904888D01*
X101170191Y-75790602D01*
X101227334Y-75733460D01*
X101284477Y-75704888D01*
X100672914Y-74347428D02*
X100387200Y-74347428D01*
X100358628Y-74633142D01*
X100387200Y-74604571D01*
X100444342Y-74576000D01*
X100587200Y-74576000D01*
X100644342Y-74604571D01*
X100672914Y-74633142D01*
X100701485Y-74690285D01*
X100701485Y-74833142D01*
X100672914Y-74890285D01*
X100644342Y-74918857D01*
X100587200Y-74947428D01*
X100444342Y-74947428D01*
X100387200Y-74918857D01*
X100358628Y-74890285D01*
X100872914Y-74347428D02*
X101072914Y-74947428D01*
X101272914Y-74347428D01*
X100609457Y-73106000D02*
X100552314Y-73077428D01*
X100466600Y-73077428D01*
X100380885Y-73106000D01*
X100323742Y-73163142D01*
X100295171Y-73220285D01*
X100266600Y-73334571D01*
X100266600Y-73420285D01*
X100295171Y-73534571D01*
X100323742Y-73591714D01*
X100380885Y-73648857D01*
X100466600Y-73677428D01*
X100523742Y-73677428D01*
X100609457Y-73648857D01*
X100638028Y-73620285D01*
X100638028Y-73420285D01*
X100523742Y-73420285D01*
X100895171Y-73677428D02*
X100895171Y-73077428D01*
X101238028Y-73677428D01*
X101238028Y-73077428D01*
X101523742Y-73677428D02*
X101523742Y-73077428D01*
X101666600Y-73077428D01*
X101752314Y-73106000D01*
X101809457Y-73163142D01*
X101838028Y-73220285D01*
X101866600Y-73334571D01*
X101866600Y-73420285D01*
X101838028Y-73534571D01*
X101809457Y-73591714D01*
X101752314Y-73648857D01*
X101666600Y-73677428D01*
X101523742Y-73677428D01*
D14*
X100737616Y-72649549D02*
G75*
G03X100737616Y-72649549I-76200J0D01*
G01*
D15*
X108368800Y-69095000D02*
X111721600Y-69095000D01*
X111721600Y-65742200D02*
X108368800Y-65742200D01*
X107802854Y-66485464D02*
G75*
G03X107839400Y-66342400I36546J66864D01*
G01*
D16*
X110553400Y-69340400D02*
X110553400Y-70590400D01*
X110553400Y-70590400D02*
X109253400Y-70590400D01*
X110953400Y-70590400D02*
X110553400Y-70590400D01*
X110553400Y-69340400D02*
X110953400Y-69340400D01*
X109253400Y-69340400D02*
X110553400Y-69340400D01*
D12*
X97899680Y-72613900D02*
X99009680Y-72613900D01*
X97899680Y-73373900D02*
X97899680Y-72613900D01*
X99573151Y-74133900D02*
X100119680Y-74133900D01*
X97899680Y-74133900D02*
X98446209Y-74133900D01*
X100119680Y-74133900D02*
X100119680Y-76608900D01*
X97899680Y-74133900D02*
X97899680Y-76608900D01*
X99317210Y-76608900D02*
X100119680Y-76608900D01*
X97899680Y-76608900D02*
X98702150Y-76608900D01*
X119831580Y-73883420D02*
X120941580Y-73883420D01*
X119831580Y-74643420D02*
X119831580Y-73883420D01*
X121505051Y-75403420D02*
X122051580Y-75403420D01*
X119831580Y-75403420D02*
X120378109Y-75403420D01*
X122051580Y-75403420D02*
X122051580Y-76608420D01*
X119831580Y-75403420D02*
X119831580Y-76608420D01*
X121249110Y-76608420D02*
X122051580Y-76608420D01*
X119831580Y-76608420D02*
X120634050Y-76608420D01*
X115173979Y-68298600D02*
X114848421Y-68298600D01*
X115173979Y-69318600D02*
X114848421Y-69318600D01*
D13*
X115114600Y-69480200D02*
X114704600Y-69480200D01*
X115114600Y-70880200D02*
X114704600Y-70880200D01*
D15*
X101593353Y-69276527D02*
X101480780Y-69364479D01*
X101296082Y-69128075D01*
X101795984Y-69118214D02*
X101660897Y-69223756D01*
X101728441Y-69170985D02*
X101543742Y-68934582D01*
X101547613Y-68985944D01*
X101542689Y-69026049D01*
X101528969Y-69054896D01*
X115875600Y-67928314D02*
X115775600Y-67785457D01*
X115704171Y-67928314D02*
X115704171Y-67628314D01*
X115818457Y-67628314D01*
X115847028Y-67642600D01*
X115861314Y-67656885D01*
X115875600Y-67685457D01*
X115875600Y-67728314D01*
X115861314Y-67756885D01*
X115847028Y-67771171D01*
X115818457Y-67785457D01*
X115704171Y-67785457D01*
X116161314Y-67928314D02*
X115989885Y-67928314D01*
X116075600Y-67928314D02*
X116075600Y-67628314D01*
X116047028Y-67671171D01*
X116018457Y-67699742D01*
X115989885Y-67714028D01*
X105779100Y-69020514D02*
X105679100Y-68877657D01*
X105607671Y-69020514D02*
X105607671Y-68720514D01*
X105721957Y-68720514D01*
X105750528Y-68734800D01*
X105764814Y-68749085D01*
X105779100Y-68777657D01*
X105779100Y-68820514D01*
X105764814Y-68849085D01*
X105750528Y-68863371D01*
X105721957Y-68877657D01*
X105607671Y-68877657D01*
X105893385Y-68749085D02*
X105907671Y-68734800D01*
X105936242Y-68720514D01*
X106007671Y-68720514D01*
X106036242Y-68734800D01*
X106050528Y-68749085D01*
X106064814Y-68777657D01*
X106064814Y-68806228D01*
X106050528Y-68849085D01*
X105879100Y-69020514D01*
X106064814Y-69020514D01*
X105791800Y-67712414D02*
X105691800Y-67569557D01*
X105620371Y-67712414D02*
X105620371Y-67412414D01*
X105734657Y-67412414D01*
X105763228Y-67426700D01*
X105777514Y-67440985D01*
X105791800Y-67469557D01*
X105791800Y-67512414D01*
X105777514Y-67540985D01*
X105763228Y-67555271D01*
X105734657Y-67569557D01*
X105620371Y-67569557D01*
X105891800Y-67412414D02*
X106077514Y-67412414D01*
X105977514Y-67526700D01*
X106020371Y-67526700D01*
X106048942Y-67540985D01*
X106063228Y-67555271D01*
X106077514Y-67583842D01*
X106077514Y-67655271D01*
X106063228Y-67683842D01*
X106048942Y-67698128D01*
X106020371Y-67712414D01*
X105934657Y-67712414D01*
X105906085Y-67698128D01*
X105891800Y-67683842D01*
X109925628Y-65330714D02*
X109925628Y-65573571D01*
X109939914Y-65602142D01*
X109954200Y-65616428D01*
X109982771Y-65630714D01*
X110039914Y-65630714D01*
X110068485Y-65616428D01*
X110082771Y-65602142D01*
X110097057Y-65573571D01*
X110097057Y-65330714D01*
X110397057Y-65630714D02*
X110225628Y-65630714D01*
X110311342Y-65630714D02*
X110311342Y-65330714D01*
X110282771Y-65373571D01*
X110254200Y-65402142D01*
X110225628Y-65416428D01*
X110256020Y-66141794D02*
X110256020Y-66213222D01*
X110184591Y-66184651D02*
X110256020Y-66213222D01*
X110327448Y-66184651D01*
X110213162Y-66270365D02*
X110256020Y-66213222D01*
X110298877Y-66270365D01*
X107732514Y-70075714D02*
X107732514Y-69775714D01*
X107803942Y-69775714D01*
X107846800Y-69790000D01*
X107875371Y-69818571D01*
X107889657Y-69847142D01*
X107903942Y-69904285D01*
X107903942Y-69947142D01*
X107889657Y-70004285D01*
X107875371Y-70032857D01*
X107846800Y-70061428D01*
X107803942Y-70075714D01*
X107732514Y-70075714D01*
X108189657Y-70075714D02*
X108018228Y-70075714D01*
X108103942Y-70075714D02*
X108103942Y-69775714D01*
X108075371Y-69818571D01*
X108046800Y-69847142D01*
X108018228Y-69861428D01*
X108289657Y-69775714D02*
X108489657Y-69775714D01*
X108361085Y-70075714D01*
X115852600Y-67039314D02*
X115752600Y-66896457D01*
X115681171Y-67039314D02*
X115681171Y-66739314D01*
X115795457Y-66739314D01*
X115824028Y-66753600D01*
X115838314Y-66767885D01*
X115852600Y-66796457D01*
X115852600Y-66839314D01*
X115838314Y-66867885D01*
X115824028Y-66882171D01*
X115795457Y-66896457D01*
X115681171Y-66896457D01*
X116109742Y-66839314D02*
X116109742Y-67039314D01*
X116038314Y-66725028D02*
X115966885Y-66939314D01*
X116152600Y-66939314D01*
X97450720Y-75058254D02*
X97450720Y-75272540D01*
X97436434Y-75315397D01*
X97407862Y-75343968D01*
X97365005Y-75358254D01*
X97336434Y-75358254D01*
X97750720Y-75358254D02*
X97579291Y-75358254D01*
X97665005Y-75358254D02*
X97665005Y-75058254D01*
X97636434Y-75101111D01*
X97607862Y-75129682D01*
X97579291Y-75143968D01*
X122312240Y-75058254D02*
X122312240Y-75272540D01*
X122297954Y-75315397D01*
X122269382Y-75343968D01*
X122226525Y-75358254D01*
X122197954Y-75358254D01*
X122440811Y-75086825D02*
X122455097Y-75072540D01*
X122483668Y-75058254D01*
X122555097Y-75058254D01*
X122583668Y-75072540D01*
X122597954Y-75086825D01*
X122612240Y-75115397D01*
X122612240Y-75143968D01*
X122597954Y-75186825D01*
X122426525Y-75358254D01*
X122612240Y-75358254D01*
X116637600Y-68966542D02*
X116623314Y-68980828D01*
X116580457Y-68995114D01*
X116551885Y-68995114D01*
X116509028Y-68980828D01*
X116480457Y-68952257D01*
X116466171Y-68923685D01*
X116451885Y-68866542D01*
X116451885Y-68823685D01*
X116466171Y-68766542D01*
X116480457Y-68737971D01*
X116509028Y-68709400D01*
X116551885Y-68695114D01*
X116580457Y-68695114D01*
X116623314Y-68709400D01*
X116637600Y-68723685D01*
X116923314Y-68995114D02*
X116751885Y-68995114D01*
X116837600Y-68995114D02*
X116837600Y-68695114D01*
X116809028Y-68737971D01*
X116780457Y-68766542D01*
X116751885Y-68780828D01*
X116510600Y-70236542D02*
X116496314Y-70250828D01*
X116453457Y-70265114D01*
X116424885Y-70265114D01*
X116382028Y-70250828D01*
X116353457Y-70222257D01*
X116339171Y-70193685D01*
X116324885Y-70136542D01*
X116324885Y-70093685D01*
X116339171Y-70036542D01*
X116353457Y-70007971D01*
X116382028Y-69979400D01*
X116424885Y-69965114D01*
X116453457Y-69965114D01*
X116496314Y-69979400D01*
X116510600Y-69993685D01*
X116624885Y-69993685D02*
X116639171Y-69979400D01*
X116667742Y-69965114D01*
X116739171Y-69965114D01*
X116767742Y-69979400D01*
X116782028Y-69993685D01*
X116796314Y-70022257D01*
X116796314Y-70050828D01*
X116782028Y-70093685D01*
X116610600Y-70265114D01*
X116796314Y-70265114D01*
M02*
