G04 #@! TF.GenerationSoftware,KiCad,Pcbnew,(5.1.6)-1*
G04 #@! TF.CreationDate,2020-07-31T21:11:41-07:00*
G04 #@! TF.ProjectId,LED_Ring,4c45445f-5269-46e6-972e-6b696361645f,rev?*
G04 #@! TF.SameCoordinates,Original*
G04 #@! TF.FileFunction,Copper,L4,Bot*
G04 #@! TF.FilePolarity,Positive*
%FSLAX46Y46*%
G04 Gerber Fmt 4.6, Leading zero omitted, Abs format (unit mm)*
G04 Created by KiCad (PCBNEW (5.1.6)-1) date 2020-07-31 21:11:41*
%MOMM*%
%LPD*%
G01*
G04 APERTURE LIST*
G04 #@! TA.AperFunction,NonConductor*
%ADD10C,0.635000*%
G04 #@! TD*
G04 #@! TA.AperFunction,NonConductor*
%ADD11C,0.500000*%
G04 #@! TD*
G04 #@! TA.AperFunction,ComponentPad*
%ADD12O,1.000000X1.000000*%
G04 #@! TD*
G04 #@! TA.AperFunction,ComponentPad*
%ADD13R,1.000000X1.000000*%
G04 #@! TD*
G04 #@! TA.AperFunction,ViaPad*
%ADD14C,0.450000*%
G04 #@! TD*
G04 #@! TA.AperFunction,Conductor*
%ADD15C,0.203200*%
G04 #@! TD*
G04 APERTURE END LIST*
D10*
X112395000Y-68478400D02*
X112776000Y-66675000D01*
X114530080Y-92931173D02*
G75*
G02*
X110810111Y-93677740I-4530080J12931173D01*
G01*
X119133793Y-90213260D02*
G75*
G02*
X115982689Y-92326568I-9133793J10213260D01*
G01*
X122346969Y-85940470D02*
G75*
G02*
X120244457Y-89098788I-12346969J5940470D01*
G01*
X123680432Y-80763298D02*
G75*
G02*
X122946600Y-84485800I-13680432J763298D01*
G01*
X122931173Y-75469920D02*
G75*
G02*
X123677740Y-79189889I-12931173J-4530080D01*
G01*
X120213260Y-70866207D02*
G75*
G02*
X122326568Y-74017311I-10213260J-9133793D01*
G01*
X115940470Y-67653031D02*
G75*
G02*
X119098788Y-69755543I-5940470J-12346969D01*
G01*
D11*
X110770209Y-66268634D02*
G75*
G02*
X114503200Y-67005200I-770209J-13731366D01*
G01*
D10*
X105469920Y-67068827D02*
G75*
G02*
X109189889Y-66322260I4530080J-12931173D01*
G01*
X100866207Y-69786740D02*
G75*
G02*
X104017311Y-67673432I9133793J-10213260D01*
G01*
D11*
X97458809Y-73961523D02*
G75*
G02*
X99466400Y-70901212I12541191J-6038477D01*
G01*
D10*
X104059530Y-92346969D02*
G75*
G02*
X100901212Y-90244457I5940470J12346969D01*
G01*
X99786740Y-89133793D02*
G75*
G02*
X97673432Y-85982689I10213260J9133793D01*
G01*
X97068827Y-84530080D02*
G75*
G02*
X96322260Y-80810111I12931173J4530080D01*
G01*
X96319568Y-79236702D02*
G75*
G02*
X97053400Y-75514200I13680432J-763298D01*
G01*
X105257600Y-70866000D02*
X104317800Y-68757800D01*
X105232200Y-68478400D02*
X106121200Y-70434200D01*
X109000000Y-90250000D02*
X109100000Y-93450000D01*
X105500000Y-92765527D02*
X106744824Y-89765527D01*
X106745457Y-89763620D02*
G75*
G02*
X105257600Y-70866000I3254543J9763620D01*
G01*
X106143061Y-70450837D02*
G75*
G02*
X109000000Y-90250000I3856939J-9549163D01*
G01*
G04 #@! TA.AperFunction,SMDPad,CuDef*
G36*
G01*
X114940931Y-67156943D02*
X114744806Y-67630431D01*
G75*
G02*
X114458995Y-67748818I-202099J83712D01*
G01*
X114054798Y-67581394D01*
G75*
G02*
X113936411Y-67295583I83712J202099D01*
G01*
X114132536Y-66822095D01*
G75*
G02*
X114418347Y-66703708I202099J-83712D01*
G01*
X114822544Y-66871132D01*
G75*
G02*
X114940931Y-67156943I-83712J-202099D01*
G01*
G37*
G04 #@! TD.AperFunction*
G04 #@! TA.AperFunction,SMDPad,CuDef*
G36*
G01*
X116396041Y-67759669D02*
X116199916Y-68233157D01*
G75*
G02*
X115914105Y-68351544I-202099J83712D01*
G01*
X115509908Y-68184120D01*
G75*
G02*
X115391521Y-67898309I83712J202099D01*
G01*
X115587646Y-67424821D01*
G75*
G02*
X115873457Y-67306434I202099J-83712D01*
G01*
X116277654Y-67473858D01*
G75*
G02*
X116396041Y-67759669I-83712J-202099D01*
G01*
G37*
G04 #@! TD.AperFunction*
G04 #@! TA.AperFunction,SMDPad,CuDef*
G36*
G01*
X119479650Y-70025374D02*
X119117258Y-70387767D01*
G75*
G02*
X118807898Y-70387767I-154680J154680D01*
G01*
X118498539Y-70078408D01*
G75*
G02*
X118498539Y-69769048I154680J154680D01*
G01*
X118860932Y-69406655D01*
G75*
G02*
X119170292Y-69406655I154680J-154680D01*
G01*
X119479651Y-69716014D01*
G75*
G02*
X119479651Y-70025374I-154680J-154680D01*
G01*
G37*
G04 #@! TD.AperFunction*
G04 #@! TA.AperFunction,SMDPad,CuDef*
G36*
G01*
X120593344Y-71139068D02*
X120230952Y-71501461D01*
G75*
G02*
X119921592Y-71501461I-154680J154680D01*
G01*
X119612233Y-71192102D01*
G75*
G02*
X119612233Y-70882742I154680J154680D01*
G01*
X119974626Y-70520349D01*
G75*
G02*
X120283986Y-70520349I154680J-154680D01*
G01*
X120593345Y-70829708D01*
G75*
G02*
X120593345Y-71139068I-154680J-154680D01*
G01*
G37*
G04 #@! TD.AperFunction*
G04 #@! TA.AperFunction,SMDPad,CuDef*
G36*
G01*
X122575179Y-74412354D02*
X122101691Y-74608479D01*
G75*
G02*
X121815880Y-74490092I-83712J202099D01*
G01*
X121648456Y-74085895D01*
G75*
G02*
X121766843Y-73800084I202099J83712D01*
G01*
X122240331Y-73603959D01*
G75*
G02*
X122526142Y-73722346I83712J-202099D01*
G01*
X122693566Y-74126543D01*
G75*
G02*
X122575179Y-74412354I-202099J-83712D01*
G01*
G37*
G04 #@! TD.AperFunction*
G04 #@! TA.AperFunction,SMDPad,CuDef*
G36*
G01*
X123177905Y-75867464D02*
X122704417Y-76063589D01*
G75*
G02*
X122418606Y-75945202I-83712J202099D01*
G01*
X122251182Y-75541005D01*
G75*
G02*
X122369569Y-75255194I202099J83712D01*
G01*
X122843057Y-75059069D01*
G75*
G02*
X123128868Y-75177456I83712J-202099D01*
G01*
X123296292Y-75581653D01*
G75*
G02*
X123177905Y-75867464I-202099J-83712D01*
G01*
G37*
G04 #@! TD.AperFunction*
G04 #@! TA.AperFunction,SMDPad,CuDef*
G36*
G01*
X123756250Y-79650000D02*
X123243750Y-79650000D01*
G75*
G02*
X123025000Y-79431250I0J218750D01*
G01*
X123025000Y-78993750D01*
G75*
G02*
X123243750Y-78775000I218750J0D01*
G01*
X123756250Y-78775000D01*
G75*
G02*
X123975000Y-78993750I0J-218750D01*
G01*
X123975000Y-79431250D01*
G75*
G02*
X123756250Y-79650000I-218750J0D01*
G01*
G37*
G04 #@! TD.AperFunction*
G04 #@! TA.AperFunction,SMDPad,CuDef*
G36*
G01*
X123756250Y-81225000D02*
X123243750Y-81225000D01*
G75*
G02*
X123025000Y-81006250I0J218750D01*
G01*
X123025000Y-80568750D01*
G75*
G02*
X123243750Y-80350000I218750J0D01*
G01*
X123756250Y-80350000D01*
G75*
G02*
X123975000Y-80568750I0J-218750D01*
G01*
X123975000Y-81006250D01*
G75*
G02*
X123756250Y-81225000I-218750J0D01*
G01*
G37*
G04 #@! TD.AperFunction*
G04 #@! TA.AperFunction,SMDPad,CuDef*
G36*
G01*
X122843057Y-84940931D02*
X122369569Y-84744806D01*
G75*
G02*
X122251182Y-84458995I83712J202099D01*
G01*
X122418606Y-84054798D01*
G75*
G02*
X122704417Y-83936411I202099J-83712D01*
G01*
X123177905Y-84132536D01*
G75*
G02*
X123296292Y-84418347I-83712J-202099D01*
G01*
X123128868Y-84822544D01*
G75*
G02*
X122843057Y-84940931I-202099J83712D01*
G01*
G37*
G04 #@! TD.AperFunction*
G04 #@! TA.AperFunction,SMDPad,CuDef*
G36*
G01*
X122240331Y-86396041D02*
X121766843Y-86199916D01*
G75*
G02*
X121648456Y-85914105I83712J202099D01*
G01*
X121815880Y-85509908D01*
G75*
G02*
X122101691Y-85391521I202099J-83712D01*
G01*
X122575179Y-85587646D01*
G75*
G02*
X122693566Y-85873457I-83712J-202099D01*
G01*
X122526142Y-86277654D01*
G75*
G02*
X122240331Y-86396041I-202099J83712D01*
G01*
G37*
G04 #@! TD.AperFunction*
G04 #@! TA.AperFunction,SMDPad,CuDef*
G36*
G01*
X119974626Y-89479650D02*
X119612233Y-89117258D01*
G75*
G02*
X119612233Y-88807898I154680J154680D01*
G01*
X119921592Y-88498539D01*
G75*
G02*
X120230952Y-88498539I154680J-154680D01*
G01*
X120593345Y-88860932D01*
G75*
G02*
X120593345Y-89170292I-154680J-154680D01*
G01*
X120283986Y-89479651D01*
G75*
G02*
X119974626Y-89479651I-154680J154680D01*
G01*
G37*
G04 #@! TD.AperFunction*
G04 #@! TA.AperFunction,SMDPad,CuDef*
G36*
G01*
X118860932Y-90593344D02*
X118498539Y-90230952D01*
G75*
G02*
X118498539Y-89921592I154680J154680D01*
G01*
X118807898Y-89612233D01*
G75*
G02*
X119117258Y-89612233I154680J-154680D01*
G01*
X119479651Y-89974626D01*
G75*
G02*
X119479651Y-90283986I-154680J-154680D01*
G01*
X119170292Y-90593345D01*
G75*
G02*
X118860932Y-90593345I-154680J154680D01*
G01*
G37*
G04 #@! TD.AperFunction*
G04 #@! TA.AperFunction,SMDPad,CuDef*
G36*
G01*
X115587646Y-92575179D02*
X115391521Y-92101691D01*
G75*
G02*
X115509908Y-91815880I202099J83712D01*
G01*
X115914105Y-91648456D01*
G75*
G02*
X116199916Y-91766843I83712J-202099D01*
G01*
X116396041Y-92240331D01*
G75*
G02*
X116277654Y-92526142I-202099J-83712D01*
G01*
X115873457Y-92693566D01*
G75*
G02*
X115587646Y-92575179I-83712J202099D01*
G01*
G37*
G04 #@! TD.AperFunction*
G04 #@! TA.AperFunction,SMDPad,CuDef*
G36*
G01*
X114132536Y-93177905D02*
X113936411Y-92704417D01*
G75*
G02*
X114054798Y-92418606I202099J83712D01*
G01*
X114458995Y-92251182D01*
G75*
G02*
X114744806Y-92369569I83712J-202099D01*
G01*
X114940931Y-92843057D01*
G75*
G02*
X114822544Y-93128868I-202099J-83712D01*
G01*
X114418347Y-93296292D01*
G75*
G02*
X114132536Y-93177905I-83712J202099D01*
G01*
G37*
G04 #@! TD.AperFunction*
G04 #@! TA.AperFunction,SMDPad,CuDef*
G36*
G01*
X110350000Y-93756250D02*
X110350000Y-93243750D01*
G75*
G02*
X110568750Y-93025000I218750J0D01*
G01*
X111006250Y-93025000D01*
G75*
G02*
X111225000Y-93243750I0J-218750D01*
G01*
X111225000Y-93756250D01*
G75*
G02*
X111006250Y-93975000I-218750J0D01*
G01*
X110568750Y-93975000D01*
G75*
G02*
X110350000Y-93756250I0J218750D01*
G01*
G37*
G04 #@! TD.AperFunction*
G04 #@! TA.AperFunction,SMDPad,CuDef*
G36*
G01*
X108775000Y-93756250D02*
X108775000Y-93243750D01*
G75*
G02*
X108993750Y-93025000I218750J0D01*
G01*
X109431250Y-93025000D01*
G75*
G02*
X109650000Y-93243750I0J-218750D01*
G01*
X109650000Y-93756250D01*
G75*
G02*
X109431250Y-93975000I-218750J0D01*
G01*
X108993750Y-93975000D01*
G75*
G02*
X108775000Y-93756250I0J218750D01*
G01*
G37*
G04 #@! TD.AperFunction*
G04 #@! TA.AperFunction,SMDPad,CuDef*
G36*
G01*
X104608479Y-92101691D02*
X104412354Y-92575179D01*
G75*
G02*
X104126543Y-92693566I-202099J83712D01*
G01*
X103722346Y-92526142D01*
G75*
G02*
X103603959Y-92240331I83712J202099D01*
G01*
X103800084Y-91766843D01*
G75*
G02*
X104085895Y-91648456I202099J-83712D01*
G01*
X104490092Y-91815880D01*
G75*
G02*
X104608479Y-92101691I-83712J-202099D01*
G01*
G37*
G04 #@! TD.AperFunction*
G04 #@! TA.AperFunction,SMDPad,CuDef*
G36*
G01*
X106063589Y-92704417D02*
X105867464Y-93177905D01*
G75*
G02*
X105581653Y-93296292I-202099J83712D01*
G01*
X105177456Y-93128868D01*
G75*
G02*
X105059069Y-92843057I83712J202099D01*
G01*
X105255194Y-92369569D01*
G75*
G02*
X105541005Y-92251182I202099J-83712D01*
G01*
X105945202Y-92418606D01*
G75*
G02*
X106063589Y-92704417I-83712J-202099D01*
G01*
G37*
G04 #@! TD.AperFunction*
G04 #@! TA.AperFunction,SMDPad,CuDef*
G36*
G01*
X100387766Y-89117258D02*
X100025374Y-89479651D01*
G75*
G02*
X99716014Y-89479651I-154680J154680D01*
G01*
X99406655Y-89170292D01*
G75*
G02*
X99406655Y-88860932I154680J154680D01*
G01*
X99769048Y-88498539D01*
G75*
G02*
X100078408Y-88498539I154680J-154680D01*
G01*
X100387767Y-88807898D01*
G75*
G02*
X100387767Y-89117258I-154680J-154680D01*
G01*
G37*
G04 #@! TD.AperFunction*
G04 #@! TA.AperFunction,SMDPad,CuDef*
G36*
G01*
X101501460Y-90230952D02*
X101139068Y-90593345D01*
G75*
G02*
X100829708Y-90593345I-154680J154680D01*
G01*
X100520349Y-90283986D01*
G75*
G02*
X100520349Y-89974626I154680J154680D01*
G01*
X100882742Y-89612233D01*
G75*
G02*
X101192102Y-89612233I154680J-154680D01*
G01*
X101501461Y-89921592D01*
G75*
G02*
X101501461Y-90230952I-154680J-154680D01*
G01*
G37*
G04 #@! TD.AperFunction*
G04 #@! TA.AperFunction,SMDPad,CuDef*
G36*
G01*
X97630431Y-84744806D02*
X97156943Y-84940931D01*
G75*
G02*
X96871132Y-84822544I-83712J202099D01*
G01*
X96703708Y-84418347D01*
G75*
G02*
X96822095Y-84132536I202099J83712D01*
G01*
X97295583Y-83936411D01*
G75*
G02*
X97581394Y-84054798I83712J-202099D01*
G01*
X97748818Y-84458995D01*
G75*
G02*
X97630431Y-84744806I-202099J-83712D01*
G01*
G37*
G04 #@! TD.AperFunction*
G04 #@! TA.AperFunction,SMDPad,CuDef*
G36*
G01*
X98233157Y-86199916D02*
X97759669Y-86396041D01*
G75*
G02*
X97473858Y-86277654I-83712J202099D01*
G01*
X97306434Y-85873457D01*
G75*
G02*
X97424821Y-85587646I202099J83712D01*
G01*
X97898309Y-85391521D01*
G75*
G02*
X98184120Y-85509908I83712J-202099D01*
G01*
X98351544Y-85914105D01*
G75*
G02*
X98233157Y-86199916I-202099J-83712D01*
G01*
G37*
G04 #@! TD.AperFunction*
G04 #@! TA.AperFunction,SMDPad,CuDef*
G36*
G01*
X96756250Y-79650000D02*
X96243750Y-79650000D01*
G75*
G02*
X96025000Y-79431250I0J218750D01*
G01*
X96025000Y-78993750D01*
G75*
G02*
X96243750Y-78775000I218750J0D01*
G01*
X96756250Y-78775000D01*
G75*
G02*
X96975000Y-78993750I0J-218750D01*
G01*
X96975000Y-79431250D01*
G75*
G02*
X96756250Y-79650000I-218750J0D01*
G01*
G37*
G04 #@! TD.AperFunction*
G04 #@! TA.AperFunction,SMDPad,CuDef*
G36*
G01*
X96756250Y-81225000D02*
X96243750Y-81225000D01*
G75*
G02*
X96025000Y-81006250I0J218750D01*
G01*
X96025000Y-80568750D01*
G75*
G02*
X96243750Y-80350000I218750J0D01*
G01*
X96756250Y-80350000D01*
G75*
G02*
X96975000Y-80568750I0J-218750D01*
G01*
X96975000Y-81006250D01*
G75*
G02*
X96756250Y-81225000I-218750J0D01*
G01*
G37*
G04 #@! TD.AperFunction*
G04 #@! TA.AperFunction,SMDPad,CuDef*
G36*
G01*
X97898309Y-74608479D02*
X97424821Y-74412354D01*
G75*
G02*
X97306434Y-74126543I83712J202099D01*
G01*
X97473858Y-73722346D01*
G75*
G02*
X97759669Y-73603959I202099J-83712D01*
G01*
X98233157Y-73800084D01*
G75*
G02*
X98351544Y-74085895I-83712J-202099D01*
G01*
X98184120Y-74490092D01*
G75*
G02*
X97898309Y-74608479I-202099J83712D01*
G01*
G37*
G04 #@! TD.AperFunction*
G04 #@! TA.AperFunction,SMDPad,CuDef*
G36*
G01*
X97295583Y-76063589D02*
X96822095Y-75867464D01*
G75*
G02*
X96703708Y-75581653I83712J202099D01*
G01*
X96871132Y-75177456D01*
G75*
G02*
X97156943Y-75059069I202099J-83712D01*
G01*
X97630431Y-75255194D01*
G75*
G02*
X97748818Y-75541005I-83712J-202099D01*
G01*
X97581394Y-75945202D01*
G75*
G02*
X97295583Y-76063589I-202099J83712D01*
G01*
G37*
G04 #@! TD.AperFunction*
G04 #@! TA.AperFunction,SMDPad,CuDef*
G36*
G01*
X100882742Y-70387766D02*
X100520349Y-70025374D01*
G75*
G02*
X100520349Y-69716014I154680J154680D01*
G01*
X100829708Y-69406655D01*
G75*
G02*
X101139068Y-69406655I154680J-154680D01*
G01*
X101501461Y-69769048D01*
G75*
G02*
X101501461Y-70078408I-154680J-154680D01*
G01*
X101192102Y-70387767D01*
G75*
G02*
X100882742Y-70387767I-154680J154680D01*
G01*
G37*
G04 #@! TD.AperFunction*
G04 #@! TA.AperFunction,SMDPad,CuDef*
G36*
G01*
X99769048Y-71501460D02*
X99406655Y-71139068D01*
G75*
G02*
X99406655Y-70829708I154680J154680D01*
G01*
X99716014Y-70520349D01*
G75*
G02*
X100025374Y-70520349I154680J-154680D01*
G01*
X100387767Y-70882742D01*
G75*
G02*
X100387767Y-71192102I-154680J-154680D01*
G01*
X100078408Y-71501461D01*
G75*
G02*
X99769048Y-71501461I-154680J154680D01*
G01*
G37*
G04 #@! TD.AperFunction*
G04 #@! TA.AperFunction,SMDPad,CuDef*
G36*
G01*
X105255194Y-67630431D02*
X105059069Y-67156943D01*
G75*
G02*
X105177456Y-66871132I202099J83712D01*
G01*
X105581653Y-66703708D01*
G75*
G02*
X105867464Y-66822095I83712J-202099D01*
G01*
X106063589Y-67295583D01*
G75*
G02*
X105945202Y-67581394I-202099J-83712D01*
G01*
X105541005Y-67748818D01*
G75*
G02*
X105255194Y-67630431I-83712J202099D01*
G01*
G37*
G04 #@! TD.AperFunction*
G04 #@! TA.AperFunction,SMDPad,CuDef*
G36*
G01*
X103800084Y-68233157D02*
X103603959Y-67759669D01*
G75*
G02*
X103722346Y-67473858I202099J83712D01*
G01*
X104126543Y-67306434D01*
G75*
G02*
X104412354Y-67424821I83712J-202099D01*
G01*
X104608479Y-67898309D01*
G75*
G02*
X104490092Y-68184120I-202099J-83712D01*
G01*
X104085895Y-68351544D01*
G75*
G02*
X103800084Y-68233157I-83712J202099D01*
G01*
G37*
G04 #@! TD.AperFunction*
G04 #@! TA.AperFunction,SMDPad,CuDef*
G36*
G01*
X108775000Y-66756250D02*
X108775000Y-66243750D01*
G75*
G02*
X108993750Y-66025000I218750J0D01*
G01*
X109431250Y-66025000D01*
G75*
G02*
X109650000Y-66243750I0J-218750D01*
G01*
X109650000Y-66756250D01*
G75*
G02*
X109431250Y-66975000I-218750J0D01*
G01*
X108993750Y-66975000D01*
G75*
G02*
X108775000Y-66756250I0J218750D01*
G01*
G37*
G04 #@! TD.AperFunction*
G04 #@! TA.AperFunction,SMDPad,CuDef*
G36*
G01*
X110350000Y-66756250D02*
X110350000Y-66243750D01*
G75*
G02*
X110568750Y-66025000I218750J0D01*
G01*
X111006250Y-66025000D01*
G75*
G02*
X111225000Y-66243750I0J-218750D01*
G01*
X111225000Y-66756250D01*
G75*
G02*
X111006250Y-66975000I-218750J0D01*
G01*
X110568750Y-66975000D01*
G75*
G02*
X110350000Y-66756250I0J218750D01*
G01*
G37*
G04 #@! TD.AperFunction*
D12*
X99009680Y-75913900D03*
X99009680Y-74643900D03*
D13*
X99009680Y-73373900D03*
D12*
X120941580Y-75913420D03*
D13*
X120941580Y-74643420D03*
D14*
X100457000Y-71882000D03*
X101295200Y-72974200D03*
X113360200Y-68757800D03*
X110540800Y-68097400D03*
X109524800Y-67386200D03*
X105841800Y-68148200D03*
X117068600Y-70967600D03*
X117119400Y-70078600D03*
X104329142Y-68692622D03*
X112395000Y-68554600D03*
X113567106Y-68101094D03*
X113538000Y-67386200D03*
X107752671Y-68281071D03*
X117144800Y-69265800D03*
X105156000Y-68478400D03*
D15*
G36*
X111124308Y-65475249D02*
G01*
X112611798Y-65667835D01*
X114071603Y-66012345D01*
X115488247Y-66505127D01*
X116846715Y-67140959D01*
X118132606Y-67913099D01*
X119332290Y-68813364D01*
X120433048Y-69832210D01*
X121423214Y-70958837D01*
X122292291Y-72181303D01*
X123031067Y-73486648D01*
X123631710Y-74861037D01*
X124087853Y-76289900D01*
X124394662Y-77758091D01*
X124548884Y-79250047D01*
X124548884Y-80749953D01*
X124394662Y-82241909D01*
X124087853Y-83710100D01*
X123631710Y-85138963D01*
X123031067Y-86513352D01*
X122292291Y-87818697D01*
X121423214Y-89041163D01*
X120433048Y-90167790D01*
X119332290Y-91186636D01*
X118132606Y-92086901D01*
X116846715Y-92859041D01*
X115488247Y-93494873D01*
X114071603Y-93987655D01*
X112611798Y-94332165D01*
X111124308Y-94524751D01*
X109624899Y-94563370D01*
X108129467Y-94447614D01*
X106653863Y-94178710D01*
X105213729Y-93759508D01*
X103824330Y-93194452D01*
X102500396Y-92489531D01*
X101255958Y-91652218D01*
X100104210Y-90691389D01*
X99556419Y-90129306D01*
X100150005Y-90129306D01*
X100160093Y-90231733D01*
X100189970Y-90330224D01*
X100238487Y-90420994D01*
X100303781Y-90500554D01*
X100367811Y-90564584D01*
X100369753Y-90568199D01*
X100407825Y-90623702D01*
X100451670Y-90674770D01*
X100500773Y-90720803D01*
X100502438Y-90722198D01*
X101148003Y-91261056D01*
X101168263Y-91276186D01*
X101188121Y-91291865D01*
X101189898Y-91293114D01*
X102403932Y-92142984D01*
X102431656Y-92160236D01*
X102459176Y-92177495D01*
X102461078Y-92178545D01*
X103502777Y-92751070D01*
X103514370Y-92760584D01*
X103605140Y-92809102D01*
X103618232Y-92814525D01*
X103759797Y-92892330D01*
X103820449Y-92921511D01*
X103883897Y-92943971D01*
X103949400Y-92959447D01*
X103976138Y-92962774D01*
X104009337Y-92976526D01*
X104107828Y-93006403D01*
X104210255Y-93016491D01*
X104312682Y-93006403D01*
X104411173Y-92976526D01*
X104501943Y-92928008D01*
X104581503Y-92862715D01*
X104646797Y-92783155D01*
X104695314Y-92692385D01*
X104891439Y-92218897D01*
X104921316Y-92120406D01*
X104931404Y-92017979D01*
X104921316Y-91915552D01*
X104891439Y-91817061D01*
X104842922Y-91726291D01*
X104777628Y-91646731D01*
X104698068Y-91581438D01*
X104607298Y-91532920D01*
X104203101Y-91365496D01*
X104104610Y-91335619D01*
X104002183Y-91325531D01*
X103899756Y-91335619D01*
X103801265Y-91365496D01*
X103710495Y-91414014D01*
X103687851Y-91432597D01*
X103090082Y-91104059D01*
X101925280Y-90288654D01*
X101847944Y-90224101D01*
X101861717Y-90178699D01*
X101871805Y-90076272D01*
X101861717Y-89973845D01*
X101831840Y-89875354D01*
X101783323Y-89784584D01*
X101718029Y-89705024D01*
X101408670Y-89395665D01*
X101329110Y-89330371D01*
X101238340Y-89281854D01*
X101139849Y-89251977D01*
X101037422Y-89241889D01*
X100934995Y-89251977D01*
X100836504Y-89281854D01*
X100745734Y-89330371D01*
X100666174Y-89395665D01*
X100303781Y-89758058D01*
X100238487Y-89837618D01*
X100189970Y-89928388D01*
X100160093Y-90026879D01*
X100150005Y-90129306D01*
X99556419Y-90129306D01*
X99057360Y-89617228D01*
X98126504Y-88441122D01*
X97321511Y-87175539D01*
X96650912Y-85833893D01*
X96634269Y-85789745D01*
X96983509Y-85789745D01*
X96993597Y-85892172D01*
X97023474Y-85990663D01*
X97058125Y-86074319D01*
X97058537Y-86078408D01*
X97072471Y-86144256D01*
X97093436Y-86208215D01*
X97121185Y-86269535D01*
X97122190Y-86271461D01*
X97512403Y-87016347D01*
X97525334Y-87038083D01*
X97537677Y-87060162D01*
X97538840Y-87061996D01*
X98335231Y-88311765D01*
X98354122Y-88338146D01*
X98373062Y-88364790D01*
X98374417Y-88366488D01*
X99117718Y-89294063D01*
X99124793Y-89307300D01*
X99190087Y-89386860D01*
X99200116Y-89396889D01*
X99301123Y-89522937D01*
X99345991Y-89573107D01*
X99396015Y-89618138D01*
X99450609Y-89657503D01*
X99474034Y-89670807D01*
X99499446Y-89696219D01*
X99579006Y-89761513D01*
X99669776Y-89810030D01*
X99768267Y-89839907D01*
X99870694Y-89849995D01*
X99973121Y-89839907D01*
X100071612Y-89810030D01*
X100162382Y-89761513D01*
X100241942Y-89696219D01*
X100604335Y-89333826D01*
X100669629Y-89254266D01*
X100718146Y-89163496D01*
X100748023Y-89065005D01*
X100758111Y-88962578D01*
X100748023Y-88860151D01*
X100718146Y-88761660D01*
X100669629Y-88670890D01*
X100604335Y-88591330D01*
X100294976Y-88281971D01*
X100215416Y-88216677D01*
X100124646Y-88168160D01*
X100026155Y-88138283D01*
X99923728Y-88128195D01*
X99821301Y-88138283D01*
X99793269Y-88146786D01*
X99366727Y-87614499D01*
X98602634Y-86415412D01*
X98555889Y-86326180D01*
X98585987Y-86289505D01*
X98634504Y-86198735D01*
X98664381Y-86100244D01*
X98674469Y-85997817D01*
X98664381Y-85895390D01*
X98634504Y-85796899D01*
X98467080Y-85392702D01*
X98418563Y-85301932D01*
X98353269Y-85222372D01*
X98273709Y-85157079D01*
X98182939Y-85108561D01*
X98084448Y-85078684D01*
X97982021Y-85068596D01*
X97879594Y-85078684D01*
X97781103Y-85108561D01*
X97307615Y-85304686D01*
X97216845Y-85353204D01*
X97137285Y-85418497D01*
X97071991Y-85498057D01*
X97023474Y-85588827D01*
X96993597Y-85687318D01*
X96983509Y-85789745D01*
X96634269Y-85789745D01*
X96121817Y-84430406D01*
X95739835Y-82979955D01*
X95509013Y-81497917D01*
X95472858Y-80796515D01*
X95700108Y-80796515D01*
X95702279Y-80863786D01*
X95702470Y-80865950D01*
X95777924Y-81703463D01*
X95781554Y-81728502D01*
X95784507Y-81753615D01*
X95784880Y-81755755D01*
X96042382Y-83215155D01*
X96049805Y-83247036D01*
X96057043Y-83278622D01*
X96057645Y-83280709D01*
X96389401Y-84422137D01*
X96390871Y-84437062D01*
X96420748Y-84535553D01*
X96426170Y-84548643D01*
X96471256Y-84703764D01*
X96493509Y-84767286D01*
X96522492Y-84828033D01*
X96557866Y-84885293D01*
X96574422Y-84906555D01*
X96588172Y-84939750D01*
X96636689Y-85030520D01*
X96701983Y-85110080D01*
X96781543Y-85175373D01*
X96872313Y-85223891D01*
X96970804Y-85253768D01*
X97073231Y-85263856D01*
X97175658Y-85253768D01*
X97274149Y-85223891D01*
X97747637Y-85027766D01*
X97838407Y-84979248D01*
X97917967Y-84913955D01*
X97983261Y-84834395D01*
X98031778Y-84743625D01*
X98061655Y-84645134D01*
X98071743Y-84542707D01*
X98061655Y-84440280D01*
X98031778Y-84341789D01*
X97864354Y-83937592D01*
X97815837Y-83846822D01*
X97750543Y-83767262D01*
X97670983Y-83701969D01*
X97580213Y-83653451D01*
X97481722Y-83623574D01*
X97452569Y-83620703D01*
X97262195Y-82965709D01*
X97015135Y-81565490D01*
X97006096Y-81465157D01*
X97047938Y-81442792D01*
X97127498Y-81377498D01*
X97192792Y-81297938D01*
X97241309Y-81207168D01*
X97271186Y-81108677D01*
X97281274Y-81006250D01*
X97281274Y-80568750D01*
X97271186Y-80466323D01*
X97241309Y-80367832D01*
X97192792Y-80277062D01*
X97127498Y-80197502D01*
X97047938Y-80132208D01*
X96957168Y-80083691D01*
X96858677Y-80053814D01*
X96756250Y-80043726D01*
X96243750Y-80043726D01*
X96141323Y-80053814D01*
X96042832Y-80083691D01*
X95952062Y-80132208D01*
X95872502Y-80197502D01*
X95807208Y-80277062D01*
X95758691Y-80367832D01*
X95728814Y-80466323D01*
X95718726Y-80568750D01*
X95718726Y-80659297D01*
X95717541Y-80663234D01*
X95705216Y-80729401D01*
X95700108Y-80796515D01*
X95472858Y-80796515D01*
X95431800Y-80000000D01*
X95471198Y-79235686D01*
X95697269Y-79235686D01*
X95700799Y-79302901D01*
X95711568Y-79369339D01*
X95718726Y-79395315D01*
X95718726Y-79431250D01*
X95728814Y-79533677D01*
X95758691Y-79632168D01*
X95807208Y-79722938D01*
X95872502Y-79802498D01*
X95952062Y-79867792D01*
X96042832Y-79916309D01*
X96141323Y-79946186D01*
X96243750Y-79956274D01*
X96756250Y-79956274D01*
X96858677Y-79946186D01*
X96957168Y-79916309D01*
X97047938Y-79867792D01*
X97127498Y-79802498D01*
X97192792Y-79722938D01*
X97241309Y-79632168D01*
X97271186Y-79533677D01*
X97281274Y-79431250D01*
X97281274Y-78993750D01*
X97271186Y-78891323D01*
X97241309Y-78792832D01*
X97192792Y-78702062D01*
X97127498Y-78622502D01*
X97047938Y-78557208D01*
X97022103Y-78543399D01*
X97096877Y-77865399D01*
X97404459Y-76477241D01*
X97434507Y-76381076D01*
X97481722Y-76376426D01*
X97580213Y-76346549D01*
X97670983Y-76298032D01*
X97750543Y-76232738D01*
X97815836Y-76153178D01*
X97864354Y-76062408D01*
X98031778Y-75658211D01*
X98061655Y-75559720D01*
X98071743Y-75457293D01*
X98061655Y-75354866D01*
X98031778Y-75256375D01*
X97983260Y-75165605D01*
X97917967Y-75086045D01*
X97838407Y-75020751D01*
X97747637Y-74972234D01*
X97274149Y-74776109D01*
X97175658Y-74746232D01*
X97073231Y-74736144D01*
X96970804Y-74746232D01*
X96872313Y-74776109D01*
X96781543Y-74824626D01*
X96701983Y-74889920D01*
X96636690Y-74969480D01*
X96588172Y-75060250D01*
X96553522Y-75143903D01*
X96550920Y-75147087D01*
X96514212Y-75203502D01*
X96483810Y-75263551D01*
X96460072Y-75326533D01*
X96459420Y-75328605D01*
X96208628Y-76131241D01*
X96202398Y-76155771D01*
X96195518Y-76180095D01*
X96195044Y-76182214D01*
X95874457Y-77629068D01*
X95869154Y-77661119D01*
X95863713Y-77693313D01*
X95863471Y-77695472D01*
X95733168Y-78876969D01*
X95728814Y-78891323D01*
X95718726Y-78993750D01*
X95718726Y-79007921D01*
X95701018Y-79168485D01*
X95697269Y-79235686D01*
X95471198Y-79235686D01*
X95509013Y-78502083D01*
X95739835Y-77020045D01*
X96121817Y-75569594D01*
X96650912Y-74166107D01*
X96744751Y-73978365D01*
X96904265Y-73978365D01*
X96909194Y-74037198D01*
X96920347Y-74095173D01*
X96937599Y-74151636D01*
X96960752Y-74205945D01*
X96987864Y-74254477D01*
X96993597Y-74312682D01*
X97023474Y-74411173D01*
X97071992Y-74501943D01*
X97137285Y-74581503D01*
X97216845Y-74646797D01*
X97307615Y-74695314D01*
X97781103Y-74891439D01*
X97879594Y-74921316D01*
X97982021Y-74931404D01*
X98084448Y-74921316D01*
X98182939Y-74891439D01*
X98233026Y-74864667D01*
X98235808Y-74878651D01*
X98296476Y-75025116D01*
X98384551Y-75156930D01*
X98496650Y-75269029D01*
X98511423Y-75278900D01*
X98496650Y-75288771D01*
X98384551Y-75400870D01*
X98296476Y-75532684D01*
X98235808Y-75679149D01*
X98204880Y-75834634D01*
X98204880Y-75993166D01*
X98235808Y-76148651D01*
X98296476Y-76295116D01*
X98384551Y-76426930D01*
X98496650Y-76539029D01*
X98628464Y-76627104D01*
X98774929Y-76687772D01*
X98930414Y-76718700D01*
X99088946Y-76718700D01*
X99244431Y-76687772D01*
X99390896Y-76627104D01*
X99522710Y-76539029D01*
X99634809Y-76426930D01*
X99722884Y-76295116D01*
X99783552Y-76148651D01*
X99814480Y-75993166D01*
X99814480Y-75834634D01*
X99783552Y-75679149D01*
X99722884Y-75532684D01*
X99634809Y-75400870D01*
X99522710Y-75288771D01*
X99507937Y-75278900D01*
X99522710Y-75269029D01*
X99634809Y-75156930D01*
X99722884Y-75025116D01*
X99783552Y-74878651D01*
X99814480Y-74723166D01*
X99814480Y-74564634D01*
X99783552Y-74409149D01*
X99722884Y-74262684D01*
X99634809Y-74130870D01*
X99522710Y-74018771D01*
X99390896Y-73930696D01*
X99244431Y-73870028D01*
X99088946Y-73839100D01*
X98930414Y-73839100D01*
X98774929Y-73870028D01*
X98665901Y-73915189D01*
X98664381Y-73899756D01*
X98634504Y-73801265D01*
X98585986Y-73710495D01*
X98520693Y-73630935D01*
X98441133Y-73565641D01*
X98350363Y-73517124D01*
X98338327Y-73512139D01*
X98643627Y-72955891D01*
X99460891Y-71782645D01*
X99531288Y-71696837D01*
X99552480Y-71718029D01*
X99632040Y-71783323D01*
X99722810Y-71831840D01*
X99821301Y-71861717D01*
X99923728Y-71871805D01*
X99927200Y-71871463D01*
X99927200Y-71934181D01*
X99947560Y-72036537D01*
X99987498Y-72132954D01*
X100045478Y-72219728D01*
X100119272Y-72293522D01*
X100206046Y-72351502D01*
X100302463Y-72391440D01*
X100404819Y-72411800D01*
X100509181Y-72411800D01*
X100611537Y-72391440D01*
X100707954Y-72351502D01*
X100794728Y-72293522D01*
X100868522Y-72219728D01*
X100926502Y-72132954D01*
X100966440Y-72036537D01*
X100986800Y-71934181D01*
X100986800Y-71829819D01*
X100966440Y-71727463D01*
X100926502Y-71631046D01*
X100868522Y-71544272D01*
X100794728Y-71470478D01*
X100707954Y-71412498D01*
X100628279Y-71379495D01*
X100669629Y-71329110D01*
X100718146Y-71238340D01*
X100748023Y-71139849D01*
X100758111Y-71037422D01*
X100748023Y-70934995D01*
X100718146Y-70836504D01*
X100669629Y-70745734D01*
X100604335Y-70666174D01*
X100241942Y-70303781D01*
X100162382Y-70238487D01*
X100071612Y-70189970D01*
X99973121Y-70160093D01*
X99870694Y-70150005D01*
X99768267Y-70160093D01*
X99669776Y-70189970D01*
X99579006Y-70238487D01*
X99499446Y-70303781D01*
X99455974Y-70347253D01*
X99419640Y-70348386D01*
X99361159Y-70356485D01*
X99303870Y-70370752D01*
X99248421Y-70391027D01*
X99195442Y-70417079D01*
X99145530Y-70448613D01*
X99099252Y-70485273D01*
X99057131Y-70526643D01*
X99037474Y-70549324D01*
X98589195Y-71095744D01*
X98585165Y-71101228D01*
X98580697Y-71106365D01*
X98562882Y-71130520D01*
X97716252Y-72345923D01*
X97708595Y-72358267D01*
X97700279Y-72370183D01*
X97685131Y-72396094D01*
X96972450Y-73694582D01*
X96946837Y-73747776D01*
X96927023Y-73803391D01*
X96913230Y-73860796D01*
X96905615Y-73919341D01*
X96904265Y-73978365D01*
X96744751Y-73978365D01*
X97321511Y-72824461D01*
X98126504Y-71558878D01*
X99057360Y-70382772D01*
X100104210Y-69308611D01*
X101255958Y-68347782D01*
X102500396Y-67510469D01*
X103824330Y-66805548D01*
X103898400Y-66775424D01*
X103898400Y-67063445D01*
X103855744Y-67072472D01*
X103791785Y-67093436D01*
X103730465Y-67121185D01*
X103728539Y-67122190D01*
X102983653Y-67512403D01*
X102961929Y-67525327D01*
X102939838Y-67537676D01*
X102938004Y-67538840D01*
X101688235Y-68335230D01*
X101661729Y-68354211D01*
X101635210Y-68373062D01*
X101633512Y-68374417D01*
X100705937Y-69117718D01*
X100692700Y-69124793D01*
X100613140Y-69190087D01*
X100603111Y-69200116D01*
X100477063Y-69301123D01*
X100426893Y-69345991D01*
X100381862Y-69396015D01*
X100342497Y-69450609D01*
X100329193Y-69474034D01*
X100303781Y-69499446D01*
X100238487Y-69579006D01*
X100189970Y-69669776D01*
X100160093Y-69768267D01*
X100150005Y-69870694D01*
X100160093Y-69973121D01*
X100189970Y-70071612D01*
X100238487Y-70162382D01*
X100303781Y-70241942D01*
X100666174Y-70604335D01*
X100745734Y-70669629D01*
X100836504Y-70718146D01*
X100934995Y-70748023D01*
X101037422Y-70758111D01*
X101139849Y-70748023D01*
X101238340Y-70718146D01*
X101329110Y-70669629D01*
X101408670Y-70604335D01*
X101718029Y-70294976D01*
X101783323Y-70215416D01*
X101831840Y-70124646D01*
X101861717Y-70026155D01*
X101871805Y-69923728D01*
X101861717Y-69821301D01*
X101853214Y-69793269D01*
X102385501Y-69366727D01*
X103584579Y-68602638D01*
X103673820Y-68555889D01*
X103710495Y-68585987D01*
X103718473Y-68590251D01*
X103701473Y-68652190D01*
X103692712Y-68774458D01*
X103707972Y-68896086D01*
X103736971Y-68983252D01*
X104459774Y-70604678D01*
X104243185Y-70728227D01*
X104216578Y-70745706D01*
X104189580Y-70762553D01*
X103138229Y-71514276D01*
X103077637Y-71563632D01*
X102128792Y-72441197D01*
X102106326Y-72464760D01*
X102074865Y-72497757D01*
X101804567Y-72819487D01*
X101764702Y-72723246D01*
X101706722Y-72636472D01*
X101632928Y-72562678D01*
X101546154Y-72504698D01*
X101449737Y-72464760D01*
X101347381Y-72444400D01*
X101243019Y-72444400D01*
X101140663Y-72464760D01*
X101044246Y-72504698D01*
X100957472Y-72562678D01*
X100883678Y-72636472D01*
X100825698Y-72723246D01*
X100785760Y-72819663D01*
X100765400Y-72922019D01*
X100765400Y-73026381D01*
X100785760Y-73128737D01*
X100825698Y-73225154D01*
X100883678Y-73311928D01*
X100957472Y-73385722D01*
X101044246Y-73443702D01*
X101140663Y-73483640D01*
X101232696Y-73501947D01*
X101221492Y-73517124D01*
X101197077Y-73550197D01*
X100496283Y-74636160D01*
X100458116Y-74704355D01*
X99898956Y-75869587D01*
X99869636Y-75942028D01*
X99460927Y-77168153D01*
X99440918Y-77243698D01*
X99440916Y-77243710D01*
X99189106Y-78511379D01*
X99178723Y-78588836D01*
X99178723Y-78588851D01*
X99087781Y-79878067D01*
X99087779Y-79878082D01*
X99087186Y-79956229D01*
X99158545Y-81246706D01*
X99167751Y-81324311D01*
X99400287Y-82595671D01*
X99419147Y-82671510D01*
X99809192Y-83903694D01*
X99809193Y-83903699D01*
X99837409Y-83976576D01*
X100378814Y-85150164D01*
X100392425Y-85175373D01*
X100415942Y-85218931D01*
X101100166Y-86315407D01*
X101145620Y-86378978D01*
X101961875Y-87381055D01*
X102014938Y-87438427D01*
X102950350Y-88330297D01*
X103010185Y-88380567D01*
X103010196Y-88380574D01*
X104050000Y-89148165D01*
X104078822Y-89166764D01*
X104115664Y-89190539D01*
X105243487Y-89821762D01*
X105302322Y-89849995D01*
X105313944Y-89855572D01*
X105930216Y-90104999D01*
X105122163Y-92052391D01*
X105086045Y-92082033D01*
X105020751Y-92161593D01*
X104972234Y-92252363D01*
X104776109Y-92725851D01*
X104746232Y-92824342D01*
X104736144Y-92926769D01*
X104746232Y-93029196D01*
X104776109Y-93127687D01*
X104824626Y-93218457D01*
X104889920Y-93298017D01*
X104969480Y-93363310D01*
X105060250Y-93411828D01*
X105464447Y-93579252D01*
X105562938Y-93609129D01*
X105665365Y-93619217D01*
X105767792Y-93609129D01*
X105866283Y-93579252D01*
X105957053Y-93530734D01*
X106036613Y-93465441D01*
X106101907Y-93385881D01*
X106150424Y-93295111D01*
X106346549Y-92821623D01*
X106376426Y-92723132D01*
X106386514Y-92620705D01*
X106376426Y-92518278D01*
X106346549Y-92419787D01*
X106330031Y-92388883D01*
X107331323Y-89975791D01*
X107358044Y-89887900D01*
X107365476Y-89812909D01*
X107366214Y-89807407D01*
X107366230Y-89805306D01*
X107370134Y-89765916D01*
X107366789Y-89731737D01*
X107366808Y-89729261D01*
X107365316Y-89716687D01*
X107358195Y-89643916D01*
X107344078Y-89597274D01*
X107338742Y-89575816D01*
X107333435Y-89562109D01*
X107322685Y-89526590D01*
X107311756Y-89506112D01*
X107310527Y-89502939D01*
X107273399Y-89434173D01*
X107273245Y-89433957D01*
X107264966Y-89418446D01*
X107242940Y-89391573D01*
X107227945Y-89370601D01*
X107208665Y-89349755D01*
X107187260Y-89323640D01*
X107175806Y-89314228D01*
X107174882Y-89313229D01*
X107115047Y-89262959D01*
X107107437Y-89258048D01*
X107092551Y-89245816D01*
X107068685Y-89233040D01*
X107049384Y-89220585D01*
X107011080Y-89202204D01*
X106984478Y-89187964D01*
X106973975Y-89184771D01*
X105817178Y-88716573D01*
X104757681Y-88123591D01*
X103780863Y-87402498D01*
X102902124Y-86564664D01*
X102135322Y-85623299D01*
X101492553Y-84593255D01*
X100983948Y-83490767D01*
X100617533Y-82333232D01*
X100399086Y-81138900D01*
X100336108Y-80000000D01*
X100548200Y-80000000D01*
X100632534Y-81259802D01*
X100884030Y-82497122D01*
X101298201Y-83689881D01*
X101867656Y-84816795D01*
X102582233Y-85857752D01*
X103429180Y-86794178D01*
X104393384Y-87609361D01*
X105457637Y-88288755D01*
X106602950Y-88820236D01*
X107808882Y-89194320D01*
X109053916Y-89404331D01*
X110315832Y-89446522D01*
X111572112Y-89320139D01*
X112800338Y-89027438D01*
X113978591Y-88573642D01*
X115085847Y-87966849D01*
X116102345Y-87217888D01*
X117009947Y-86340123D01*
X117792457Y-85349219D01*
X118435910Y-84262857D01*
X118928823Y-83100425D01*
X119262402Y-81882666D01*
X119430693Y-80631311D01*
X119430693Y-79368689D01*
X119262402Y-78117334D01*
X118928823Y-76899575D01*
X118435910Y-75737143D01*
X117792457Y-74650781D01*
X117009947Y-73659877D01*
X116102345Y-72782112D01*
X115085847Y-72033151D01*
X113978591Y-71426358D01*
X112800338Y-70972562D01*
X111572112Y-70679861D01*
X110315832Y-70553478D01*
X109053916Y-70595669D01*
X107808882Y-70805680D01*
X106602950Y-71179764D01*
X105457637Y-71711245D01*
X104393384Y-72390639D01*
X103429180Y-73205822D01*
X102582233Y-74142248D01*
X101867656Y-75183205D01*
X101298201Y-76310119D01*
X100884030Y-77502878D01*
X100632534Y-78740198D01*
X100548200Y-80000000D01*
X100336108Y-80000000D01*
X100332049Y-79926598D01*
X100417484Y-78715468D01*
X100654040Y-77524588D01*
X101037986Y-76372748D01*
X101563270Y-75278112D01*
X102221609Y-74257939D01*
X103002606Y-73328334D01*
X103893970Y-72503932D01*
X104887548Y-71793517D01*
X105565428Y-71406832D01*
X105618731Y-71376488D01*
X105711383Y-71296225D01*
X105786597Y-71199430D01*
X105841482Y-71089821D01*
X105864426Y-71006227D01*
X105881976Y-71015719D01*
X105954833Y-71043988D01*
X106030660Y-71062902D01*
X106108258Y-71072163D01*
X106186405Y-71071625D01*
X106263869Y-71061298D01*
X106339427Y-71041343D01*
X107529519Y-70645592D01*
X108721410Y-70409722D01*
X109933480Y-70325095D01*
X111146586Y-70393046D01*
X112341620Y-70612507D01*
X113499721Y-70980012D01*
X114602624Y-71489767D01*
X115632951Y-72133737D01*
X116574436Y-72901759D01*
X117412243Y-73781731D01*
X118133148Y-74759760D01*
X118725793Y-75820435D01*
X119180825Y-76947023D01*
X119491071Y-78121760D01*
X119651637Y-79326118D01*
X119659992Y-80541096D01*
X119516000Y-81747555D01*
X119221938Y-82926446D01*
X118782442Y-84059180D01*
X118204438Y-85127906D01*
X117497045Y-86115762D01*
X116671422Y-87007164D01*
X115740586Y-87788061D01*
X114719218Y-88446135D01*
X113623417Y-88971013D01*
X112470485Y-89354407D01*
X111278590Y-89590278D01*
X110063168Y-89675139D01*
X109034835Y-89628639D01*
X108980469Y-89624995D01*
X108858912Y-89640814D01*
X108742777Y-89680045D01*
X108636526Y-89741178D01*
X108544243Y-89821865D01*
X108469476Y-89919006D01*
X108415096Y-90028866D01*
X108383193Y-90147224D01*
X108377049Y-90238881D01*
X108470415Y-93226598D01*
X108468726Y-93243750D01*
X108468726Y-93756250D01*
X108478814Y-93858677D01*
X108508691Y-93957168D01*
X108557208Y-94047938D01*
X108622502Y-94127498D01*
X108702062Y-94192792D01*
X108792832Y-94241309D01*
X108891323Y-94271186D01*
X108993750Y-94281274D01*
X109431250Y-94281274D01*
X109533677Y-94271186D01*
X109632168Y-94241309D01*
X109722938Y-94192792D01*
X109802498Y-94127498D01*
X109867792Y-94047938D01*
X109916309Y-93957168D01*
X109946186Y-93858677D01*
X109956274Y-93756250D01*
X109956274Y-93243750D01*
X110043726Y-93243750D01*
X110043726Y-93756250D01*
X110053814Y-93858677D01*
X110083691Y-93957168D01*
X110132208Y-94047938D01*
X110197502Y-94127498D01*
X110277062Y-94192792D01*
X110367832Y-94241309D01*
X110466323Y-94271186D01*
X110568750Y-94281274D01*
X110659297Y-94281274D01*
X110663234Y-94282459D01*
X110729401Y-94294784D01*
X110796515Y-94299892D01*
X110863786Y-94297721D01*
X110865950Y-94297530D01*
X111703463Y-94222076D01*
X111728502Y-94218446D01*
X111753615Y-94215493D01*
X111755755Y-94215120D01*
X113215155Y-93957618D01*
X113247036Y-93950195D01*
X113278622Y-93942957D01*
X113280709Y-93942355D01*
X114422137Y-93610599D01*
X114437062Y-93609129D01*
X114535553Y-93579252D01*
X114548643Y-93573830D01*
X114703764Y-93528744D01*
X114767286Y-93506491D01*
X114828033Y-93477508D01*
X114885293Y-93442134D01*
X114906555Y-93425578D01*
X114939750Y-93411828D01*
X115030520Y-93363311D01*
X115110080Y-93298017D01*
X115175373Y-93218457D01*
X115223891Y-93127687D01*
X115253768Y-93029196D01*
X115263856Y-92926769D01*
X115253768Y-92824342D01*
X115223891Y-92725851D01*
X115027766Y-92252363D01*
X114979248Y-92161593D01*
X114913955Y-92082033D01*
X114835906Y-92017979D01*
X115068596Y-92017979D01*
X115078684Y-92120406D01*
X115108561Y-92218897D01*
X115304686Y-92692385D01*
X115353204Y-92783155D01*
X115418497Y-92862715D01*
X115498057Y-92928009D01*
X115588827Y-92976526D01*
X115687318Y-93006403D01*
X115789745Y-93016491D01*
X115892172Y-93006403D01*
X115990663Y-92976526D01*
X116074319Y-92941875D01*
X116078408Y-92941463D01*
X116144256Y-92927529D01*
X116208215Y-92906564D01*
X116269535Y-92878815D01*
X116271461Y-92877810D01*
X117016347Y-92487597D01*
X117038083Y-92474666D01*
X117060162Y-92462323D01*
X117061996Y-92461160D01*
X118311765Y-91664769D01*
X118338146Y-91645878D01*
X118364790Y-91626938D01*
X118366488Y-91625583D01*
X119294063Y-90882282D01*
X119307300Y-90875207D01*
X119386860Y-90809913D01*
X119396889Y-90799884D01*
X119522937Y-90698877D01*
X119573107Y-90654009D01*
X119618138Y-90603985D01*
X119657503Y-90549391D01*
X119670807Y-90525966D01*
X119696219Y-90500554D01*
X119761513Y-90420994D01*
X119810030Y-90330224D01*
X119839907Y-90231733D01*
X119849995Y-90129306D01*
X119839907Y-90026879D01*
X119810030Y-89928388D01*
X119761513Y-89837618D01*
X119696219Y-89758058D01*
X119333826Y-89395665D01*
X119254266Y-89330371D01*
X119163496Y-89281854D01*
X119065005Y-89251977D01*
X118962578Y-89241889D01*
X118860151Y-89251977D01*
X118761660Y-89281854D01*
X118670890Y-89330371D01*
X118591330Y-89395665D01*
X118281971Y-89705024D01*
X118216677Y-89784584D01*
X118168160Y-89875354D01*
X118138283Y-89973845D01*
X118128195Y-90076272D01*
X118138283Y-90178699D01*
X118146786Y-90206731D01*
X117614499Y-90633273D01*
X116415412Y-91397366D01*
X116326180Y-91444111D01*
X116289505Y-91414013D01*
X116198735Y-91365496D01*
X116100244Y-91335619D01*
X115997817Y-91325531D01*
X115895390Y-91335619D01*
X115796899Y-91365496D01*
X115392702Y-91532920D01*
X115301932Y-91581437D01*
X115222372Y-91646731D01*
X115157079Y-91726291D01*
X115108561Y-91817061D01*
X115078684Y-91915552D01*
X115068596Y-92017979D01*
X114835906Y-92017979D01*
X114834395Y-92016739D01*
X114743625Y-91968222D01*
X114645134Y-91938345D01*
X114542707Y-91928257D01*
X114440280Y-91938345D01*
X114341789Y-91968222D01*
X113937592Y-92135646D01*
X113846822Y-92184163D01*
X113767262Y-92249457D01*
X113701969Y-92329017D01*
X113653451Y-92419787D01*
X113623574Y-92518278D01*
X113620703Y-92547431D01*
X112965709Y-92737805D01*
X111565490Y-92984865D01*
X111465157Y-92993904D01*
X111442792Y-92952062D01*
X111377498Y-92872502D01*
X111297938Y-92807208D01*
X111207168Y-92758691D01*
X111108677Y-92728814D01*
X111006250Y-92718726D01*
X110568750Y-92718726D01*
X110466323Y-92728814D01*
X110367832Y-92758691D01*
X110277062Y-92807208D01*
X110197502Y-92872502D01*
X110132208Y-92952062D01*
X110083691Y-93042832D01*
X110053814Y-93141323D01*
X110043726Y-93243750D01*
X109956274Y-93243750D01*
X109946186Y-93141323D01*
X109916309Y-93042832D01*
X109867792Y-92952062D01*
X109802498Y-92872502D01*
X109722938Y-92807208D01*
X109702169Y-92796107D01*
X109642979Y-90902011D01*
X110042699Y-90920086D01*
X110078422Y-90919456D01*
X110114154Y-90919210D01*
X111404330Y-90829129D01*
X111481794Y-90818801D01*
X111481797Y-90818800D01*
X112750503Y-90567729D01*
X112750506Y-90567729D01*
X112826064Y-90547774D01*
X114053306Y-90139669D01*
X114125767Y-90110402D01*
X115292181Y-89551701D01*
X115360403Y-89513582D01*
X116215592Y-88962578D01*
X119241889Y-88962578D01*
X119251977Y-89065005D01*
X119281854Y-89163496D01*
X119330371Y-89254266D01*
X119395665Y-89333826D01*
X119758058Y-89696219D01*
X119837618Y-89761513D01*
X119928388Y-89810030D01*
X120026879Y-89839907D01*
X120129306Y-89849995D01*
X120231733Y-89839907D01*
X120330224Y-89810030D01*
X120420994Y-89761513D01*
X120500554Y-89696219D01*
X120564584Y-89632189D01*
X120568199Y-89630247D01*
X120623702Y-89592175D01*
X120674770Y-89548330D01*
X120720803Y-89499227D01*
X120722198Y-89497562D01*
X121261056Y-88851997D01*
X121276186Y-88831737D01*
X121291865Y-88811879D01*
X121293114Y-88810102D01*
X122142984Y-87596068D01*
X122160236Y-87568344D01*
X122177495Y-87540824D01*
X122178545Y-87538922D01*
X122751070Y-86497223D01*
X122760584Y-86485630D01*
X122809102Y-86394860D01*
X122814525Y-86381768D01*
X122892330Y-86240203D01*
X122921511Y-86179551D01*
X122943971Y-86116103D01*
X122959447Y-86050600D01*
X122962774Y-86023862D01*
X122976526Y-85990663D01*
X123006403Y-85892172D01*
X123016491Y-85789745D01*
X123006403Y-85687318D01*
X122976526Y-85588827D01*
X122928008Y-85498057D01*
X122862715Y-85418497D01*
X122783155Y-85353203D01*
X122692385Y-85304686D01*
X122218897Y-85108561D01*
X122120406Y-85078684D01*
X122017979Y-85068596D01*
X121915552Y-85078684D01*
X121817061Y-85108561D01*
X121726291Y-85157078D01*
X121646731Y-85222372D01*
X121581438Y-85301932D01*
X121532920Y-85392702D01*
X121365496Y-85796899D01*
X121335619Y-85895390D01*
X121325531Y-85997817D01*
X121335619Y-86100244D01*
X121365496Y-86198735D01*
X121414014Y-86289505D01*
X121432597Y-86312149D01*
X121104059Y-86909918D01*
X120288654Y-88074720D01*
X120224101Y-88152056D01*
X120178699Y-88138283D01*
X120076272Y-88128195D01*
X119973845Y-88138283D01*
X119875354Y-88168160D01*
X119784584Y-88216677D01*
X119705024Y-88281971D01*
X119395665Y-88591330D01*
X119330371Y-88670890D01*
X119281854Y-88761660D01*
X119251977Y-88860151D01*
X119241889Y-88962578D01*
X116215592Y-88962578D01*
X116447596Y-88813097D01*
X116510503Y-88766729D01*
X116510510Y-88766722D01*
X117501329Y-87935505D01*
X117557928Y-87881618D01*
X118436761Y-86932766D01*
X118436762Y-86932765D01*
X118486161Y-86872209D01*
X119239141Y-85820691D01*
X119258482Y-85789745D01*
X119280560Y-85754422D01*
X119895809Y-84616829D01*
X119895813Y-84616823D01*
X119922890Y-84558239D01*
X119928601Y-84545884D01*
X119928605Y-84545870D01*
X119929832Y-84542707D01*
X121928257Y-84542707D01*
X121938345Y-84645134D01*
X121968222Y-84743625D01*
X122016740Y-84834395D01*
X122082033Y-84913955D01*
X122161593Y-84979249D01*
X122252363Y-85027766D01*
X122725851Y-85223891D01*
X122824342Y-85253768D01*
X122926769Y-85263856D01*
X123029196Y-85253768D01*
X123127687Y-85223891D01*
X123218457Y-85175374D01*
X123298017Y-85110080D01*
X123363310Y-85030520D01*
X123411828Y-84939750D01*
X123446478Y-84856097D01*
X123449080Y-84852913D01*
X123485788Y-84796498D01*
X123516190Y-84736449D01*
X123539928Y-84673467D01*
X123540580Y-84671395D01*
X123791372Y-83868759D01*
X123797597Y-83844250D01*
X123804483Y-83819905D01*
X123804956Y-83817785D01*
X124125543Y-82370932D01*
X124130846Y-82338881D01*
X124136287Y-82306687D01*
X124136529Y-82304528D01*
X124266832Y-81123030D01*
X124271186Y-81108677D01*
X124281274Y-81006250D01*
X124281274Y-80992080D01*
X124298982Y-80831516D01*
X124302731Y-80764314D01*
X124299201Y-80697100D01*
X124288432Y-80630661D01*
X124281274Y-80604685D01*
X124281274Y-80568750D01*
X124271186Y-80466323D01*
X124241309Y-80367832D01*
X124192792Y-80277062D01*
X124127498Y-80197502D01*
X124047938Y-80132208D01*
X123957168Y-80083691D01*
X123858677Y-80053814D01*
X123756250Y-80043726D01*
X123243750Y-80043726D01*
X123141323Y-80053814D01*
X123042832Y-80083691D01*
X122952062Y-80132208D01*
X122872502Y-80197502D01*
X122807208Y-80277062D01*
X122758691Y-80367832D01*
X122728814Y-80466323D01*
X122718726Y-80568750D01*
X122718726Y-81006250D01*
X122728814Y-81108677D01*
X122758691Y-81207168D01*
X122807208Y-81297938D01*
X122872502Y-81377498D01*
X122952062Y-81442792D01*
X122977897Y-81456601D01*
X122903123Y-82134598D01*
X122595541Y-83522759D01*
X122565493Y-83618924D01*
X122518278Y-83623574D01*
X122419787Y-83653451D01*
X122329017Y-83701968D01*
X122249457Y-83767262D01*
X122184164Y-83846822D01*
X122135646Y-83937592D01*
X121968222Y-84341789D01*
X121938345Y-84440280D01*
X121928257Y-84542707D01*
X119929832Y-84542707D01*
X120396423Y-83340144D01*
X120420061Y-83265655D01*
X120733075Y-82010788D01*
X120747191Y-81933924D01*
X120900461Y-80649721D01*
X120904831Y-80571694D01*
X120895938Y-79278408D01*
X120890495Y-79200449D01*
X120719581Y-77918475D01*
X120704410Y-77841813D01*
X120374170Y-76591369D01*
X120349510Y-76517212D01*
X120307349Y-76412828D01*
X120316451Y-76426450D01*
X120428550Y-76538549D01*
X120560364Y-76626624D01*
X120706829Y-76687292D01*
X120862314Y-76718220D01*
X121020846Y-76718220D01*
X121176331Y-76687292D01*
X121322796Y-76626624D01*
X121454610Y-76538549D01*
X121566709Y-76426450D01*
X121654784Y-76294636D01*
X121715452Y-76148171D01*
X121746380Y-75992686D01*
X121746380Y-75834154D01*
X121715452Y-75678669D01*
X121654784Y-75532204D01*
X121604731Y-75457293D01*
X121928257Y-75457293D01*
X121938345Y-75559720D01*
X121968222Y-75658211D01*
X122135646Y-76062408D01*
X122184163Y-76153178D01*
X122249457Y-76232738D01*
X122329017Y-76298031D01*
X122419787Y-76346549D01*
X122518278Y-76376426D01*
X122547431Y-76379297D01*
X122737805Y-77034291D01*
X122984865Y-78434508D01*
X122993904Y-78534843D01*
X122952062Y-78557208D01*
X122872502Y-78622502D01*
X122807208Y-78702062D01*
X122758691Y-78792832D01*
X122728814Y-78891323D01*
X122718726Y-78993750D01*
X122718726Y-79431250D01*
X122728814Y-79533677D01*
X122758691Y-79632168D01*
X122807208Y-79722938D01*
X122872502Y-79802498D01*
X122952062Y-79867792D01*
X123042832Y-79916309D01*
X123141323Y-79946186D01*
X123243750Y-79956274D01*
X123756250Y-79956274D01*
X123858677Y-79946186D01*
X123957168Y-79916309D01*
X124047938Y-79867792D01*
X124127498Y-79802498D01*
X124192792Y-79722938D01*
X124241309Y-79632168D01*
X124271186Y-79533677D01*
X124281274Y-79431250D01*
X124281274Y-79340703D01*
X124282459Y-79336766D01*
X124294784Y-79270598D01*
X124299892Y-79203485D01*
X124297721Y-79136214D01*
X124297530Y-79134050D01*
X124222076Y-78296537D01*
X124218446Y-78271498D01*
X124215493Y-78246385D01*
X124215120Y-78244245D01*
X123957618Y-76784844D01*
X123950251Y-76753204D01*
X123942958Y-76721378D01*
X123942355Y-76719291D01*
X123610599Y-75577863D01*
X123609129Y-75562938D01*
X123579252Y-75464447D01*
X123573830Y-75451357D01*
X123528744Y-75296236D01*
X123506491Y-75232715D01*
X123477508Y-75171968D01*
X123442134Y-75114707D01*
X123425578Y-75093445D01*
X123411828Y-75060250D01*
X123363311Y-74969480D01*
X123298017Y-74889920D01*
X123218457Y-74824627D01*
X123127687Y-74776109D01*
X123029196Y-74746232D01*
X122926769Y-74736144D01*
X122824342Y-74746232D01*
X122725851Y-74776109D01*
X122252363Y-74972234D01*
X122161593Y-75020752D01*
X122082033Y-75086045D01*
X122016739Y-75165605D01*
X121968222Y-75256375D01*
X121938345Y-75354866D01*
X121928257Y-75457293D01*
X121604731Y-75457293D01*
X121577420Y-75416420D01*
X121611737Y-75398078D01*
X121658148Y-75359988D01*
X121696238Y-75313577D01*
X121724540Y-75260626D01*
X121741969Y-75203171D01*
X121747854Y-75143420D01*
X121747854Y-74854447D01*
X121817061Y-74891439D01*
X121915552Y-74921316D01*
X122017979Y-74931404D01*
X122120406Y-74921316D01*
X122218897Y-74891439D01*
X122692385Y-74695314D01*
X122783155Y-74646796D01*
X122862715Y-74581503D01*
X122928009Y-74501943D01*
X122976526Y-74411173D01*
X123006403Y-74312682D01*
X123016491Y-74210255D01*
X123006403Y-74107828D01*
X122976526Y-74009337D01*
X122941875Y-73925681D01*
X122941463Y-73921592D01*
X122927528Y-73855744D01*
X122906564Y-73791785D01*
X122878815Y-73730465D01*
X122877810Y-73728539D01*
X122487597Y-72983653D01*
X122474673Y-72961929D01*
X122462324Y-72939838D01*
X122461160Y-72938004D01*
X121664770Y-71688235D01*
X121645789Y-71661729D01*
X121626938Y-71635210D01*
X121625583Y-71633512D01*
X120882282Y-70705937D01*
X120875207Y-70692700D01*
X120809913Y-70613140D01*
X120799884Y-70603111D01*
X120698877Y-70477063D01*
X120654009Y-70426893D01*
X120603985Y-70381862D01*
X120549391Y-70342497D01*
X120525966Y-70329193D01*
X120500554Y-70303781D01*
X120420994Y-70238487D01*
X120330224Y-70189970D01*
X120231733Y-70160093D01*
X120129306Y-70150005D01*
X120026879Y-70160093D01*
X119928388Y-70189970D01*
X119837618Y-70238487D01*
X119758058Y-70303781D01*
X119395665Y-70666174D01*
X119330371Y-70745734D01*
X119281854Y-70836504D01*
X119251977Y-70934995D01*
X119241889Y-71037422D01*
X119251977Y-71139849D01*
X119281854Y-71238340D01*
X119330371Y-71329110D01*
X119395665Y-71408670D01*
X119705024Y-71718029D01*
X119784584Y-71783323D01*
X119875354Y-71831840D01*
X119973845Y-71861717D01*
X120076272Y-71871805D01*
X120178699Y-71861717D01*
X120206731Y-71853214D01*
X120633273Y-72385501D01*
X121397362Y-73584579D01*
X121444111Y-73673820D01*
X121414013Y-73710495D01*
X121365496Y-73801265D01*
X121354612Y-73837146D01*
X120441580Y-73837146D01*
X120381829Y-73843031D01*
X120324374Y-73860460D01*
X120271423Y-73888762D01*
X120225012Y-73926852D01*
X120186922Y-73973263D01*
X120158620Y-74026214D01*
X120141191Y-74083669D01*
X120135306Y-74143420D01*
X120135306Y-75143420D01*
X120141191Y-75203171D01*
X120158620Y-75260626D01*
X120186922Y-75313577D01*
X120225012Y-75359988D01*
X120271423Y-75398078D01*
X120305740Y-75416420D01*
X120228376Y-75532204D01*
X120167708Y-75678669D01*
X120136780Y-75834154D01*
X120136780Y-75990526D01*
X119865152Y-75318018D01*
X119831393Y-75247537D01*
X119831385Y-75247525D01*
X119200555Y-74118505D01*
X119158227Y-74052811D01*
X118390858Y-73011747D01*
X118340631Y-72951876D01*
X117448833Y-72015198D01*
X117391499Y-71962094D01*
X117391489Y-71962087D01*
X116389346Y-71144582D01*
X116389337Y-71144574D01*
X116352312Y-71118061D01*
X116325799Y-71099075D01*
X116325792Y-71099071D01*
X115229075Y-70413606D01*
X115160335Y-70376429D01*
X115160322Y-70376424D01*
X113986349Y-69833821D01*
X113974344Y-69829163D01*
X113913492Y-69805552D01*
X112680760Y-69414364D01*
X112680756Y-69414362D01*
X112604930Y-69395448D01*
X111332885Y-69161845D01*
X111255286Y-69152584D01*
X109963995Y-69080253D01*
X109963993Y-69080253D01*
X109916193Y-69080581D01*
X109926842Y-69071842D01*
X109939477Y-69056446D01*
X109948866Y-69038881D01*
X109954648Y-69019821D01*
X109956600Y-69000000D01*
X109956600Y-66243750D01*
X110043726Y-66243750D01*
X110043726Y-66756250D01*
X110053814Y-66858677D01*
X110083691Y-66957168D01*
X110132208Y-67047938D01*
X110197502Y-67127498D01*
X110277062Y-67192792D01*
X110367832Y-67241309D01*
X110466323Y-67271186D01*
X110568750Y-67281274D01*
X111006250Y-67281274D01*
X111108677Y-67271186D01*
X111207168Y-67241309D01*
X111297938Y-67192792D01*
X111377498Y-67127498D01*
X111442792Y-67047938D01*
X111491309Y-66957168D01*
X111506163Y-66908201D01*
X112077351Y-66971367D01*
X111779821Y-68379680D01*
X111769733Y-68470987D01*
X111780301Y-68593112D01*
X111814492Y-68710829D01*
X111870991Y-68819615D01*
X111947628Y-68915288D01*
X112041457Y-68994171D01*
X112148872Y-69053234D01*
X112265746Y-69090206D01*
X112387587Y-69103667D01*
X112509712Y-69093099D01*
X112627429Y-69058908D01*
X112736215Y-69002409D01*
X112831888Y-68925772D01*
X112849310Y-68905049D01*
X112850760Y-68912337D01*
X112890698Y-69008754D01*
X112948678Y-69095528D01*
X113022472Y-69169322D01*
X113109246Y-69227302D01*
X113205663Y-69267240D01*
X113308019Y-69287600D01*
X113412381Y-69287600D01*
X113514737Y-69267240D01*
X113611154Y-69227302D01*
X113697928Y-69169322D01*
X113771722Y-69095528D01*
X113829702Y-69008754D01*
X113869640Y-68912337D01*
X113890000Y-68809981D01*
X113890000Y-68705619D01*
X113869640Y-68603263D01*
X113847861Y-68550684D01*
X113904834Y-68512616D01*
X113978628Y-68438822D01*
X114036608Y-68352048D01*
X114076546Y-68255631D01*
X114096906Y-68153275D01*
X114096906Y-68048913D01*
X114076546Y-67946557D01*
X114064223Y-67916806D01*
X114341789Y-68031778D01*
X114440280Y-68061655D01*
X114542707Y-68071743D01*
X114645134Y-68061655D01*
X114743625Y-68031778D01*
X114834395Y-67983260D01*
X114835904Y-67982021D01*
X115068596Y-67982021D01*
X115078684Y-68084448D01*
X115108561Y-68182939D01*
X115157078Y-68273709D01*
X115222372Y-68353269D01*
X115301932Y-68418562D01*
X115392702Y-68467080D01*
X115796899Y-68634504D01*
X115895390Y-68664381D01*
X115997817Y-68674469D01*
X116100244Y-68664381D01*
X116198735Y-68634504D01*
X116289505Y-68585986D01*
X116312149Y-68567403D01*
X116819276Y-68846123D01*
X116807072Y-68854278D01*
X116733278Y-68928072D01*
X116675298Y-69014846D01*
X116635360Y-69111263D01*
X116615000Y-69213619D01*
X116615000Y-69317981D01*
X116635360Y-69420337D01*
X116675298Y-69516754D01*
X116733278Y-69603528D01*
X116807072Y-69677322D01*
X116893846Y-69735302D01*
X116990263Y-69775240D01*
X117092619Y-69795600D01*
X117196981Y-69795600D01*
X117299337Y-69775240D01*
X117395754Y-69735302D01*
X117482528Y-69677322D01*
X117556322Y-69603528D01*
X117614302Y-69516754D01*
X117654240Y-69420337D01*
X117654824Y-69417403D01*
X118074720Y-69711346D01*
X118152056Y-69775899D01*
X118138283Y-69821301D01*
X118128195Y-69923728D01*
X118138283Y-70026155D01*
X118168160Y-70124646D01*
X118216677Y-70215416D01*
X118281971Y-70294976D01*
X118591330Y-70604335D01*
X118670890Y-70669629D01*
X118761660Y-70718146D01*
X118860151Y-70748023D01*
X118962578Y-70758111D01*
X119065005Y-70748023D01*
X119163496Y-70718146D01*
X119254266Y-70669629D01*
X119333826Y-70604335D01*
X119696219Y-70241942D01*
X119761513Y-70162382D01*
X119810030Y-70071612D01*
X119839907Y-69973121D01*
X119849995Y-69870694D01*
X119839907Y-69768267D01*
X119810030Y-69669776D01*
X119761513Y-69579006D01*
X119696219Y-69499446D01*
X119632189Y-69435416D01*
X119630247Y-69431801D01*
X119592175Y-69376298D01*
X119548331Y-69325230D01*
X119499227Y-69279197D01*
X119497562Y-69277802D01*
X118851997Y-68738944D01*
X118831731Y-68723809D01*
X118811879Y-68708135D01*
X118810102Y-68706886D01*
X117596068Y-67857016D01*
X117568344Y-67839764D01*
X117540824Y-67822505D01*
X117538928Y-67821459D01*
X117538922Y-67821455D01*
X117538915Y-67821452D01*
X116497223Y-67248930D01*
X116485630Y-67239416D01*
X116394860Y-67190898D01*
X116381768Y-67185475D01*
X116240203Y-67107670D01*
X116179552Y-67078489D01*
X116116103Y-67056029D01*
X116050601Y-67040553D01*
X116023862Y-67037225D01*
X115990663Y-67023474D01*
X115892172Y-66993597D01*
X115789745Y-66983509D01*
X115687318Y-66993597D01*
X115588827Y-67023474D01*
X115498057Y-67071992D01*
X115418497Y-67137285D01*
X115353203Y-67216845D01*
X115304686Y-67307615D01*
X115108561Y-67781103D01*
X115078684Y-67879594D01*
X115068596Y-67982021D01*
X114835904Y-67982021D01*
X114913955Y-67917967D01*
X114979249Y-67838407D01*
X115027766Y-67747637D01*
X115223891Y-67274149D01*
X115253768Y-67175658D01*
X115263856Y-67073231D01*
X115253768Y-66970804D01*
X115223891Y-66872313D01*
X115175374Y-66781543D01*
X115110080Y-66701983D01*
X115030520Y-66636690D01*
X114939750Y-66588172D01*
X114753977Y-66511222D01*
X114726748Y-66497431D01*
X114670602Y-66476258D01*
X114668754Y-66475677D01*
X114666345Y-66474924D01*
X114535553Y-66420748D01*
X114437062Y-66390871D01*
X114379311Y-66385183D01*
X113866405Y-66224824D01*
X113844599Y-66219281D01*
X113822921Y-66213142D01*
X113821030Y-66212720D01*
X112368863Y-65890504D01*
X112340354Y-65885779D01*
X112311589Y-65880908D01*
X112309664Y-65880693D01*
X111207363Y-65758795D01*
X111207168Y-65758691D01*
X111108677Y-65728814D01*
X111006250Y-65718726D01*
X110845026Y-65718726D01*
X110831190Y-65717196D01*
X110771278Y-65713835D01*
X110711354Y-65716964D01*
X110700464Y-65718726D01*
X110568750Y-65718726D01*
X110466323Y-65728814D01*
X110367832Y-65758691D01*
X110277062Y-65807208D01*
X110197502Y-65872502D01*
X110132208Y-65952062D01*
X110083691Y-66042832D01*
X110053814Y-66141323D01*
X110043726Y-66243750D01*
X109956600Y-66243750D01*
X109956600Y-65445173D01*
X111124308Y-65475249D01*
G37*
X111124308Y-65475249D02*
X112611798Y-65667835D01*
X114071603Y-66012345D01*
X115488247Y-66505127D01*
X116846715Y-67140959D01*
X118132606Y-67913099D01*
X119332290Y-68813364D01*
X120433048Y-69832210D01*
X121423214Y-70958837D01*
X122292291Y-72181303D01*
X123031067Y-73486648D01*
X123631710Y-74861037D01*
X124087853Y-76289900D01*
X124394662Y-77758091D01*
X124548884Y-79250047D01*
X124548884Y-80749953D01*
X124394662Y-82241909D01*
X124087853Y-83710100D01*
X123631710Y-85138963D01*
X123031067Y-86513352D01*
X122292291Y-87818697D01*
X121423214Y-89041163D01*
X120433048Y-90167790D01*
X119332290Y-91186636D01*
X118132606Y-92086901D01*
X116846715Y-92859041D01*
X115488247Y-93494873D01*
X114071603Y-93987655D01*
X112611798Y-94332165D01*
X111124308Y-94524751D01*
X109624899Y-94563370D01*
X108129467Y-94447614D01*
X106653863Y-94178710D01*
X105213729Y-93759508D01*
X103824330Y-93194452D01*
X102500396Y-92489531D01*
X101255958Y-91652218D01*
X100104210Y-90691389D01*
X99556419Y-90129306D01*
X100150005Y-90129306D01*
X100160093Y-90231733D01*
X100189970Y-90330224D01*
X100238487Y-90420994D01*
X100303781Y-90500554D01*
X100367811Y-90564584D01*
X100369753Y-90568199D01*
X100407825Y-90623702D01*
X100451670Y-90674770D01*
X100500773Y-90720803D01*
X100502438Y-90722198D01*
X101148003Y-91261056D01*
X101168263Y-91276186D01*
X101188121Y-91291865D01*
X101189898Y-91293114D01*
X102403932Y-92142984D01*
X102431656Y-92160236D01*
X102459176Y-92177495D01*
X102461078Y-92178545D01*
X103502777Y-92751070D01*
X103514370Y-92760584D01*
X103605140Y-92809102D01*
X103618232Y-92814525D01*
X103759797Y-92892330D01*
X103820449Y-92921511D01*
X103883897Y-92943971D01*
X103949400Y-92959447D01*
X103976138Y-92962774D01*
X104009337Y-92976526D01*
X104107828Y-93006403D01*
X104210255Y-93016491D01*
X104312682Y-93006403D01*
X104411173Y-92976526D01*
X104501943Y-92928008D01*
X104581503Y-92862715D01*
X104646797Y-92783155D01*
X104695314Y-92692385D01*
X104891439Y-92218897D01*
X104921316Y-92120406D01*
X104931404Y-92017979D01*
X104921316Y-91915552D01*
X104891439Y-91817061D01*
X104842922Y-91726291D01*
X104777628Y-91646731D01*
X104698068Y-91581438D01*
X104607298Y-91532920D01*
X104203101Y-91365496D01*
X104104610Y-91335619D01*
X104002183Y-91325531D01*
X103899756Y-91335619D01*
X103801265Y-91365496D01*
X103710495Y-91414014D01*
X103687851Y-91432597D01*
X103090082Y-91104059D01*
X101925280Y-90288654D01*
X101847944Y-90224101D01*
X101861717Y-90178699D01*
X101871805Y-90076272D01*
X101861717Y-89973845D01*
X101831840Y-89875354D01*
X101783323Y-89784584D01*
X101718029Y-89705024D01*
X101408670Y-89395665D01*
X101329110Y-89330371D01*
X101238340Y-89281854D01*
X101139849Y-89251977D01*
X101037422Y-89241889D01*
X100934995Y-89251977D01*
X100836504Y-89281854D01*
X100745734Y-89330371D01*
X100666174Y-89395665D01*
X100303781Y-89758058D01*
X100238487Y-89837618D01*
X100189970Y-89928388D01*
X100160093Y-90026879D01*
X100150005Y-90129306D01*
X99556419Y-90129306D01*
X99057360Y-89617228D01*
X98126504Y-88441122D01*
X97321511Y-87175539D01*
X96650912Y-85833893D01*
X96634269Y-85789745D01*
X96983509Y-85789745D01*
X96993597Y-85892172D01*
X97023474Y-85990663D01*
X97058125Y-86074319D01*
X97058537Y-86078408D01*
X97072471Y-86144256D01*
X97093436Y-86208215D01*
X97121185Y-86269535D01*
X97122190Y-86271461D01*
X97512403Y-87016347D01*
X97525334Y-87038083D01*
X97537677Y-87060162D01*
X97538840Y-87061996D01*
X98335231Y-88311765D01*
X98354122Y-88338146D01*
X98373062Y-88364790D01*
X98374417Y-88366488D01*
X99117718Y-89294063D01*
X99124793Y-89307300D01*
X99190087Y-89386860D01*
X99200116Y-89396889D01*
X99301123Y-89522937D01*
X99345991Y-89573107D01*
X99396015Y-89618138D01*
X99450609Y-89657503D01*
X99474034Y-89670807D01*
X99499446Y-89696219D01*
X99579006Y-89761513D01*
X99669776Y-89810030D01*
X99768267Y-89839907D01*
X99870694Y-89849995D01*
X99973121Y-89839907D01*
X100071612Y-89810030D01*
X100162382Y-89761513D01*
X100241942Y-89696219D01*
X100604335Y-89333826D01*
X100669629Y-89254266D01*
X100718146Y-89163496D01*
X100748023Y-89065005D01*
X100758111Y-88962578D01*
X100748023Y-88860151D01*
X100718146Y-88761660D01*
X100669629Y-88670890D01*
X100604335Y-88591330D01*
X100294976Y-88281971D01*
X100215416Y-88216677D01*
X100124646Y-88168160D01*
X100026155Y-88138283D01*
X99923728Y-88128195D01*
X99821301Y-88138283D01*
X99793269Y-88146786D01*
X99366727Y-87614499D01*
X98602634Y-86415412D01*
X98555889Y-86326180D01*
X98585987Y-86289505D01*
X98634504Y-86198735D01*
X98664381Y-86100244D01*
X98674469Y-85997817D01*
X98664381Y-85895390D01*
X98634504Y-85796899D01*
X98467080Y-85392702D01*
X98418563Y-85301932D01*
X98353269Y-85222372D01*
X98273709Y-85157079D01*
X98182939Y-85108561D01*
X98084448Y-85078684D01*
X97982021Y-85068596D01*
X97879594Y-85078684D01*
X97781103Y-85108561D01*
X97307615Y-85304686D01*
X97216845Y-85353204D01*
X97137285Y-85418497D01*
X97071991Y-85498057D01*
X97023474Y-85588827D01*
X96993597Y-85687318D01*
X96983509Y-85789745D01*
X96634269Y-85789745D01*
X96121817Y-84430406D01*
X95739835Y-82979955D01*
X95509013Y-81497917D01*
X95472858Y-80796515D01*
X95700108Y-80796515D01*
X95702279Y-80863786D01*
X95702470Y-80865950D01*
X95777924Y-81703463D01*
X95781554Y-81728502D01*
X95784507Y-81753615D01*
X95784880Y-81755755D01*
X96042382Y-83215155D01*
X96049805Y-83247036D01*
X96057043Y-83278622D01*
X96057645Y-83280709D01*
X96389401Y-84422137D01*
X96390871Y-84437062D01*
X96420748Y-84535553D01*
X96426170Y-84548643D01*
X96471256Y-84703764D01*
X96493509Y-84767286D01*
X96522492Y-84828033D01*
X96557866Y-84885293D01*
X96574422Y-84906555D01*
X96588172Y-84939750D01*
X96636689Y-85030520D01*
X96701983Y-85110080D01*
X96781543Y-85175373D01*
X96872313Y-85223891D01*
X96970804Y-85253768D01*
X97073231Y-85263856D01*
X97175658Y-85253768D01*
X97274149Y-85223891D01*
X97747637Y-85027766D01*
X97838407Y-84979248D01*
X97917967Y-84913955D01*
X97983261Y-84834395D01*
X98031778Y-84743625D01*
X98061655Y-84645134D01*
X98071743Y-84542707D01*
X98061655Y-84440280D01*
X98031778Y-84341789D01*
X97864354Y-83937592D01*
X97815837Y-83846822D01*
X97750543Y-83767262D01*
X97670983Y-83701969D01*
X97580213Y-83653451D01*
X97481722Y-83623574D01*
X97452569Y-83620703D01*
X97262195Y-82965709D01*
X97015135Y-81565490D01*
X97006096Y-81465157D01*
X97047938Y-81442792D01*
X97127498Y-81377498D01*
X97192792Y-81297938D01*
X97241309Y-81207168D01*
X97271186Y-81108677D01*
X97281274Y-81006250D01*
X97281274Y-80568750D01*
X97271186Y-80466323D01*
X97241309Y-80367832D01*
X97192792Y-80277062D01*
X97127498Y-80197502D01*
X97047938Y-80132208D01*
X96957168Y-80083691D01*
X96858677Y-80053814D01*
X96756250Y-80043726D01*
X96243750Y-80043726D01*
X96141323Y-80053814D01*
X96042832Y-80083691D01*
X95952062Y-80132208D01*
X95872502Y-80197502D01*
X95807208Y-80277062D01*
X95758691Y-80367832D01*
X95728814Y-80466323D01*
X95718726Y-80568750D01*
X95718726Y-80659297D01*
X95717541Y-80663234D01*
X95705216Y-80729401D01*
X95700108Y-80796515D01*
X95472858Y-80796515D01*
X95431800Y-80000000D01*
X95471198Y-79235686D01*
X95697269Y-79235686D01*
X95700799Y-79302901D01*
X95711568Y-79369339D01*
X95718726Y-79395315D01*
X95718726Y-79431250D01*
X95728814Y-79533677D01*
X95758691Y-79632168D01*
X95807208Y-79722938D01*
X95872502Y-79802498D01*
X95952062Y-79867792D01*
X96042832Y-79916309D01*
X96141323Y-79946186D01*
X96243750Y-79956274D01*
X96756250Y-79956274D01*
X96858677Y-79946186D01*
X96957168Y-79916309D01*
X97047938Y-79867792D01*
X97127498Y-79802498D01*
X97192792Y-79722938D01*
X97241309Y-79632168D01*
X97271186Y-79533677D01*
X97281274Y-79431250D01*
X97281274Y-78993750D01*
X97271186Y-78891323D01*
X97241309Y-78792832D01*
X97192792Y-78702062D01*
X97127498Y-78622502D01*
X97047938Y-78557208D01*
X97022103Y-78543399D01*
X97096877Y-77865399D01*
X97404459Y-76477241D01*
X97434507Y-76381076D01*
X97481722Y-76376426D01*
X97580213Y-76346549D01*
X97670983Y-76298032D01*
X97750543Y-76232738D01*
X97815836Y-76153178D01*
X97864354Y-76062408D01*
X98031778Y-75658211D01*
X98061655Y-75559720D01*
X98071743Y-75457293D01*
X98061655Y-75354866D01*
X98031778Y-75256375D01*
X97983260Y-75165605D01*
X97917967Y-75086045D01*
X97838407Y-75020751D01*
X97747637Y-74972234D01*
X97274149Y-74776109D01*
X97175658Y-74746232D01*
X97073231Y-74736144D01*
X96970804Y-74746232D01*
X96872313Y-74776109D01*
X96781543Y-74824626D01*
X96701983Y-74889920D01*
X96636690Y-74969480D01*
X96588172Y-75060250D01*
X96553522Y-75143903D01*
X96550920Y-75147087D01*
X96514212Y-75203502D01*
X96483810Y-75263551D01*
X96460072Y-75326533D01*
X96459420Y-75328605D01*
X96208628Y-76131241D01*
X96202398Y-76155771D01*
X96195518Y-76180095D01*
X96195044Y-76182214D01*
X95874457Y-77629068D01*
X95869154Y-77661119D01*
X95863713Y-77693313D01*
X95863471Y-77695472D01*
X95733168Y-78876969D01*
X95728814Y-78891323D01*
X95718726Y-78993750D01*
X95718726Y-79007921D01*
X95701018Y-79168485D01*
X95697269Y-79235686D01*
X95471198Y-79235686D01*
X95509013Y-78502083D01*
X95739835Y-77020045D01*
X96121817Y-75569594D01*
X96650912Y-74166107D01*
X96744751Y-73978365D01*
X96904265Y-73978365D01*
X96909194Y-74037198D01*
X96920347Y-74095173D01*
X96937599Y-74151636D01*
X96960752Y-74205945D01*
X96987864Y-74254477D01*
X96993597Y-74312682D01*
X97023474Y-74411173D01*
X97071992Y-74501943D01*
X97137285Y-74581503D01*
X97216845Y-74646797D01*
X97307615Y-74695314D01*
X97781103Y-74891439D01*
X97879594Y-74921316D01*
X97982021Y-74931404D01*
X98084448Y-74921316D01*
X98182939Y-74891439D01*
X98233026Y-74864667D01*
X98235808Y-74878651D01*
X98296476Y-75025116D01*
X98384551Y-75156930D01*
X98496650Y-75269029D01*
X98511423Y-75278900D01*
X98496650Y-75288771D01*
X98384551Y-75400870D01*
X98296476Y-75532684D01*
X98235808Y-75679149D01*
X98204880Y-75834634D01*
X98204880Y-75993166D01*
X98235808Y-76148651D01*
X98296476Y-76295116D01*
X98384551Y-76426930D01*
X98496650Y-76539029D01*
X98628464Y-76627104D01*
X98774929Y-76687772D01*
X98930414Y-76718700D01*
X99088946Y-76718700D01*
X99244431Y-76687772D01*
X99390896Y-76627104D01*
X99522710Y-76539029D01*
X99634809Y-76426930D01*
X99722884Y-76295116D01*
X99783552Y-76148651D01*
X99814480Y-75993166D01*
X99814480Y-75834634D01*
X99783552Y-75679149D01*
X99722884Y-75532684D01*
X99634809Y-75400870D01*
X99522710Y-75288771D01*
X99507937Y-75278900D01*
X99522710Y-75269029D01*
X99634809Y-75156930D01*
X99722884Y-75025116D01*
X99783552Y-74878651D01*
X99814480Y-74723166D01*
X99814480Y-74564634D01*
X99783552Y-74409149D01*
X99722884Y-74262684D01*
X99634809Y-74130870D01*
X99522710Y-74018771D01*
X99390896Y-73930696D01*
X99244431Y-73870028D01*
X99088946Y-73839100D01*
X98930414Y-73839100D01*
X98774929Y-73870028D01*
X98665901Y-73915189D01*
X98664381Y-73899756D01*
X98634504Y-73801265D01*
X98585986Y-73710495D01*
X98520693Y-73630935D01*
X98441133Y-73565641D01*
X98350363Y-73517124D01*
X98338327Y-73512139D01*
X98643627Y-72955891D01*
X99460891Y-71782645D01*
X99531288Y-71696837D01*
X99552480Y-71718029D01*
X99632040Y-71783323D01*
X99722810Y-71831840D01*
X99821301Y-71861717D01*
X99923728Y-71871805D01*
X99927200Y-71871463D01*
X99927200Y-71934181D01*
X99947560Y-72036537D01*
X99987498Y-72132954D01*
X100045478Y-72219728D01*
X100119272Y-72293522D01*
X100206046Y-72351502D01*
X100302463Y-72391440D01*
X100404819Y-72411800D01*
X100509181Y-72411800D01*
X100611537Y-72391440D01*
X100707954Y-72351502D01*
X100794728Y-72293522D01*
X100868522Y-72219728D01*
X100926502Y-72132954D01*
X100966440Y-72036537D01*
X100986800Y-71934181D01*
X100986800Y-71829819D01*
X100966440Y-71727463D01*
X100926502Y-71631046D01*
X100868522Y-71544272D01*
X100794728Y-71470478D01*
X100707954Y-71412498D01*
X100628279Y-71379495D01*
X100669629Y-71329110D01*
X100718146Y-71238340D01*
X100748023Y-71139849D01*
X100758111Y-71037422D01*
X100748023Y-70934995D01*
X100718146Y-70836504D01*
X100669629Y-70745734D01*
X100604335Y-70666174D01*
X100241942Y-70303781D01*
X100162382Y-70238487D01*
X100071612Y-70189970D01*
X99973121Y-70160093D01*
X99870694Y-70150005D01*
X99768267Y-70160093D01*
X99669776Y-70189970D01*
X99579006Y-70238487D01*
X99499446Y-70303781D01*
X99455974Y-70347253D01*
X99419640Y-70348386D01*
X99361159Y-70356485D01*
X99303870Y-70370752D01*
X99248421Y-70391027D01*
X99195442Y-70417079D01*
X99145530Y-70448613D01*
X99099252Y-70485273D01*
X99057131Y-70526643D01*
X99037474Y-70549324D01*
X98589195Y-71095744D01*
X98585165Y-71101228D01*
X98580697Y-71106365D01*
X98562882Y-71130520D01*
X97716252Y-72345923D01*
X97708595Y-72358267D01*
X97700279Y-72370183D01*
X97685131Y-72396094D01*
X96972450Y-73694582D01*
X96946837Y-73747776D01*
X96927023Y-73803391D01*
X96913230Y-73860796D01*
X96905615Y-73919341D01*
X96904265Y-73978365D01*
X96744751Y-73978365D01*
X97321511Y-72824461D01*
X98126504Y-71558878D01*
X99057360Y-70382772D01*
X100104210Y-69308611D01*
X101255958Y-68347782D01*
X102500396Y-67510469D01*
X103824330Y-66805548D01*
X103898400Y-66775424D01*
X103898400Y-67063445D01*
X103855744Y-67072472D01*
X103791785Y-67093436D01*
X103730465Y-67121185D01*
X103728539Y-67122190D01*
X102983653Y-67512403D01*
X102961929Y-67525327D01*
X102939838Y-67537676D01*
X102938004Y-67538840D01*
X101688235Y-68335230D01*
X101661729Y-68354211D01*
X101635210Y-68373062D01*
X101633512Y-68374417D01*
X100705937Y-69117718D01*
X100692700Y-69124793D01*
X100613140Y-69190087D01*
X100603111Y-69200116D01*
X100477063Y-69301123D01*
X100426893Y-69345991D01*
X100381862Y-69396015D01*
X100342497Y-69450609D01*
X100329193Y-69474034D01*
X100303781Y-69499446D01*
X100238487Y-69579006D01*
X100189970Y-69669776D01*
X100160093Y-69768267D01*
X100150005Y-69870694D01*
X100160093Y-69973121D01*
X100189970Y-70071612D01*
X100238487Y-70162382D01*
X100303781Y-70241942D01*
X100666174Y-70604335D01*
X100745734Y-70669629D01*
X100836504Y-70718146D01*
X100934995Y-70748023D01*
X101037422Y-70758111D01*
X101139849Y-70748023D01*
X101238340Y-70718146D01*
X101329110Y-70669629D01*
X101408670Y-70604335D01*
X101718029Y-70294976D01*
X101783323Y-70215416D01*
X101831840Y-70124646D01*
X101861717Y-70026155D01*
X101871805Y-69923728D01*
X101861717Y-69821301D01*
X101853214Y-69793269D01*
X102385501Y-69366727D01*
X103584579Y-68602638D01*
X103673820Y-68555889D01*
X103710495Y-68585987D01*
X103718473Y-68590251D01*
X103701473Y-68652190D01*
X103692712Y-68774458D01*
X103707972Y-68896086D01*
X103736971Y-68983252D01*
X104459774Y-70604678D01*
X104243185Y-70728227D01*
X104216578Y-70745706D01*
X104189580Y-70762553D01*
X103138229Y-71514276D01*
X103077637Y-71563632D01*
X102128792Y-72441197D01*
X102106326Y-72464760D01*
X102074865Y-72497757D01*
X101804567Y-72819487D01*
X101764702Y-72723246D01*
X101706722Y-72636472D01*
X101632928Y-72562678D01*
X101546154Y-72504698D01*
X101449737Y-72464760D01*
X101347381Y-72444400D01*
X101243019Y-72444400D01*
X101140663Y-72464760D01*
X101044246Y-72504698D01*
X100957472Y-72562678D01*
X100883678Y-72636472D01*
X100825698Y-72723246D01*
X100785760Y-72819663D01*
X100765400Y-72922019D01*
X100765400Y-73026381D01*
X100785760Y-73128737D01*
X100825698Y-73225154D01*
X100883678Y-73311928D01*
X100957472Y-73385722D01*
X101044246Y-73443702D01*
X101140663Y-73483640D01*
X101232696Y-73501947D01*
X101221492Y-73517124D01*
X101197077Y-73550197D01*
X100496283Y-74636160D01*
X100458116Y-74704355D01*
X99898956Y-75869587D01*
X99869636Y-75942028D01*
X99460927Y-77168153D01*
X99440918Y-77243698D01*
X99440916Y-77243710D01*
X99189106Y-78511379D01*
X99178723Y-78588836D01*
X99178723Y-78588851D01*
X99087781Y-79878067D01*
X99087779Y-79878082D01*
X99087186Y-79956229D01*
X99158545Y-81246706D01*
X99167751Y-81324311D01*
X99400287Y-82595671D01*
X99419147Y-82671510D01*
X99809192Y-83903694D01*
X99809193Y-83903699D01*
X99837409Y-83976576D01*
X100378814Y-85150164D01*
X100392425Y-85175373D01*
X100415942Y-85218931D01*
X101100166Y-86315407D01*
X101145620Y-86378978D01*
X101961875Y-87381055D01*
X102014938Y-87438427D01*
X102950350Y-88330297D01*
X103010185Y-88380567D01*
X103010196Y-88380574D01*
X104050000Y-89148165D01*
X104078822Y-89166764D01*
X104115664Y-89190539D01*
X105243487Y-89821762D01*
X105302322Y-89849995D01*
X105313944Y-89855572D01*
X105930216Y-90104999D01*
X105122163Y-92052391D01*
X105086045Y-92082033D01*
X105020751Y-92161593D01*
X104972234Y-92252363D01*
X104776109Y-92725851D01*
X104746232Y-92824342D01*
X104736144Y-92926769D01*
X104746232Y-93029196D01*
X104776109Y-93127687D01*
X104824626Y-93218457D01*
X104889920Y-93298017D01*
X104969480Y-93363310D01*
X105060250Y-93411828D01*
X105464447Y-93579252D01*
X105562938Y-93609129D01*
X105665365Y-93619217D01*
X105767792Y-93609129D01*
X105866283Y-93579252D01*
X105957053Y-93530734D01*
X106036613Y-93465441D01*
X106101907Y-93385881D01*
X106150424Y-93295111D01*
X106346549Y-92821623D01*
X106376426Y-92723132D01*
X106386514Y-92620705D01*
X106376426Y-92518278D01*
X106346549Y-92419787D01*
X106330031Y-92388883D01*
X107331323Y-89975791D01*
X107358044Y-89887900D01*
X107365476Y-89812909D01*
X107366214Y-89807407D01*
X107366230Y-89805306D01*
X107370134Y-89765916D01*
X107366789Y-89731737D01*
X107366808Y-89729261D01*
X107365316Y-89716687D01*
X107358195Y-89643916D01*
X107344078Y-89597274D01*
X107338742Y-89575816D01*
X107333435Y-89562109D01*
X107322685Y-89526590D01*
X107311756Y-89506112D01*
X107310527Y-89502939D01*
X107273399Y-89434173D01*
X107273245Y-89433957D01*
X107264966Y-89418446D01*
X107242940Y-89391573D01*
X107227945Y-89370601D01*
X107208665Y-89349755D01*
X107187260Y-89323640D01*
X107175806Y-89314228D01*
X107174882Y-89313229D01*
X107115047Y-89262959D01*
X107107437Y-89258048D01*
X107092551Y-89245816D01*
X107068685Y-89233040D01*
X107049384Y-89220585D01*
X107011080Y-89202204D01*
X106984478Y-89187964D01*
X106973975Y-89184771D01*
X105817178Y-88716573D01*
X104757681Y-88123591D01*
X103780863Y-87402498D01*
X102902124Y-86564664D01*
X102135322Y-85623299D01*
X101492553Y-84593255D01*
X100983948Y-83490767D01*
X100617533Y-82333232D01*
X100399086Y-81138900D01*
X100336108Y-80000000D01*
X100548200Y-80000000D01*
X100632534Y-81259802D01*
X100884030Y-82497122D01*
X101298201Y-83689881D01*
X101867656Y-84816795D01*
X102582233Y-85857752D01*
X103429180Y-86794178D01*
X104393384Y-87609361D01*
X105457637Y-88288755D01*
X106602950Y-88820236D01*
X107808882Y-89194320D01*
X109053916Y-89404331D01*
X110315832Y-89446522D01*
X111572112Y-89320139D01*
X112800338Y-89027438D01*
X113978591Y-88573642D01*
X115085847Y-87966849D01*
X116102345Y-87217888D01*
X117009947Y-86340123D01*
X117792457Y-85349219D01*
X118435910Y-84262857D01*
X118928823Y-83100425D01*
X119262402Y-81882666D01*
X119430693Y-80631311D01*
X119430693Y-79368689D01*
X119262402Y-78117334D01*
X118928823Y-76899575D01*
X118435910Y-75737143D01*
X117792457Y-74650781D01*
X117009947Y-73659877D01*
X116102345Y-72782112D01*
X115085847Y-72033151D01*
X113978591Y-71426358D01*
X112800338Y-70972562D01*
X111572112Y-70679861D01*
X110315832Y-70553478D01*
X109053916Y-70595669D01*
X107808882Y-70805680D01*
X106602950Y-71179764D01*
X105457637Y-71711245D01*
X104393384Y-72390639D01*
X103429180Y-73205822D01*
X102582233Y-74142248D01*
X101867656Y-75183205D01*
X101298201Y-76310119D01*
X100884030Y-77502878D01*
X100632534Y-78740198D01*
X100548200Y-80000000D01*
X100336108Y-80000000D01*
X100332049Y-79926598D01*
X100417484Y-78715468D01*
X100654040Y-77524588D01*
X101037986Y-76372748D01*
X101563270Y-75278112D01*
X102221609Y-74257939D01*
X103002606Y-73328334D01*
X103893970Y-72503932D01*
X104887548Y-71793517D01*
X105565428Y-71406832D01*
X105618731Y-71376488D01*
X105711383Y-71296225D01*
X105786597Y-71199430D01*
X105841482Y-71089821D01*
X105864426Y-71006227D01*
X105881976Y-71015719D01*
X105954833Y-71043988D01*
X106030660Y-71062902D01*
X106108258Y-71072163D01*
X106186405Y-71071625D01*
X106263869Y-71061298D01*
X106339427Y-71041343D01*
X107529519Y-70645592D01*
X108721410Y-70409722D01*
X109933480Y-70325095D01*
X111146586Y-70393046D01*
X112341620Y-70612507D01*
X113499721Y-70980012D01*
X114602624Y-71489767D01*
X115632951Y-72133737D01*
X116574436Y-72901759D01*
X117412243Y-73781731D01*
X118133148Y-74759760D01*
X118725793Y-75820435D01*
X119180825Y-76947023D01*
X119491071Y-78121760D01*
X119651637Y-79326118D01*
X119659992Y-80541096D01*
X119516000Y-81747555D01*
X119221938Y-82926446D01*
X118782442Y-84059180D01*
X118204438Y-85127906D01*
X117497045Y-86115762D01*
X116671422Y-87007164D01*
X115740586Y-87788061D01*
X114719218Y-88446135D01*
X113623417Y-88971013D01*
X112470485Y-89354407D01*
X111278590Y-89590278D01*
X110063168Y-89675139D01*
X109034835Y-89628639D01*
X108980469Y-89624995D01*
X108858912Y-89640814D01*
X108742777Y-89680045D01*
X108636526Y-89741178D01*
X108544243Y-89821865D01*
X108469476Y-89919006D01*
X108415096Y-90028866D01*
X108383193Y-90147224D01*
X108377049Y-90238881D01*
X108470415Y-93226598D01*
X108468726Y-93243750D01*
X108468726Y-93756250D01*
X108478814Y-93858677D01*
X108508691Y-93957168D01*
X108557208Y-94047938D01*
X108622502Y-94127498D01*
X108702062Y-94192792D01*
X108792832Y-94241309D01*
X108891323Y-94271186D01*
X108993750Y-94281274D01*
X109431250Y-94281274D01*
X109533677Y-94271186D01*
X109632168Y-94241309D01*
X109722938Y-94192792D01*
X109802498Y-94127498D01*
X109867792Y-94047938D01*
X109916309Y-93957168D01*
X109946186Y-93858677D01*
X109956274Y-93756250D01*
X109956274Y-93243750D01*
X110043726Y-93243750D01*
X110043726Y-93756250D01*
X110053814Y-93858677D01*
X110083691Y-93957168D01*
X110132208Y-94047938D01*
X110197502Y-94127498D01*
X110277062Y-94192792D01*
X110367832Y-94241309D01*
X110466323Y-94271186D01*
X110568750Y-94281274D01*
X110659297Y-94281274D01*
X110663234Y-94282459D01*
X110729401Y-94294784D01*
X110796515Y-94299892D01*
X110863786Y-94297721D01*
X110865950Y-94297530D01*
X111703463Y-94222076D01*
X111728502Y-94218446D01*
X111753615Y-94215493D01*
X111755755Y-94215120D01*
X113215155Y-93957618D01*
X113247036Y-93950195D01*
X113278622Y-93942957D01*
X113280709Y-93942355D01*
X114422137Y-93610599D01*
X114437062Y-93609129D01*
X114535553Y-93579252D01*
X114548643Y-93573830D01*
X114703764Y-93528744D01*
X114767286Y-93506491D01*
X114828033Y-93477508D01*
X114885293Y-93442134D01*
X114906555Y-93425578D01*
X114939750Y-93411828D01*
X115030520Y-93363311D01*
X115110080Y-93298017D01*
X115175373Y-93218457D01*
X115223891Y-93127687D01*
X115253768Y-93029196D01*
X115263856Y-92926769D01*
X115253768Y-92824342D01*
X115223891Y-92725851D01*
X115027766Y-92252363D01*
X114979248Y-92161593D01*
X114913955Y-92082033D01*
X114835906Y-92017979D01*
X115068596Y-92017979D01*
X115078684Y-92120406D01*
X115108561Y-92218897D01*
X115304686Y-92692385D01*
X115353204Y-92783155D01*
X115418497Y-92862715D01*
X115498057Y-92928009D01*
X115588827Y-92976526D01*
X115687318Y-93006403D01*
X115789745Y-93016491D01*
X115892172Y-93006403D01*
X115990663Y-92976526D01*
X116074319Y-92941875D01*
X116078408Y-92941463D01*
X116144256Y-92927529D01*
X116208215Y-92906564D01*
X116269535Y-92878815D01*
X116271461Y-92877810D01*
X117016347Y-92487597D01*
X117038083Y-92474666D01*
X117060162Y-92462323D01*
X117061996Y-92461160D01*
X118311765Y-91664769D01*
X118338146Y-91645878D01*
X118364790Y-91626938D01*
X118366488Y-91625583D01*
X119294063Y-90882282D01*
X119307300Y-90875207D01*
X119386860Y-90809913D01*
X119396889Y-90799884D01*
X119522937Y-90698877D01*
X119573107Y-90654009D01*
X119618138Y-90603985D01*
X119657503Y-90549391D01*
X119670807Y-90525966D01*
X119696219Y-90500554D01*
X119761513Y-90420994D01*
X119810030Y-90330224D01*
X119839907Y-90231733D01*
X119849995Y-90129306D01*
X119839907Y-90026879D01*
X119810030Y-89928388D01*
X119761513Y-89837618D01*
X119696219Y-89758058D01*
X119333826Y-89395665D01*
X119254266Y-89330371D01*
X119163496Y-89281854D01*
X119065005Y-89251977D01*
X118962578Y-89241889D01*
X118860151Y-89251977D01*
X118761660Y-89281854D01*
X118670890Y-89330371D01*
X118591330Y-89395665D01*
X118281971Y-89705024D01*
X118216677Y-89784584D01*
X118168160Y-89875354D01*
X118138283Y-89973845D01*
X118128195Y-90076272D01*
X118138283Y-90178699D01*
X118146786Y-90206731D01*
X117614499Y-90633273D01*
X116415412Y-91397366D01*
X116326180Y-91444111D01*
X116289505Y-91414013D01*
X116198735Y-91365496D01*
X116100244Y-91335619D01*
X115997817Y-91325531D01*
X115895390Y-91335619D01*
X115796899Y-91365496D01*
X115392702Y-91532920D01*
X115301932Y-91581437D01*
X115222372Y-91646731D01*
X115157079Y-91726291D01*
X115108561Y-91817061D01*
X115078684Y-91915552D01*
X115068596Y-92017979D01*
X114835906Y-92017979D01*
X114834395Y-92016739D01*
X114743625Y-91968222D01*
X114645134Y-91938345D01*
X114542707Y-91928257D01*
X114440280Y-91938345D01*
X114341789Y-91968222D01*
X113937592Y-92135646D01*
X113846822Y-92184163D01*
X113767262Y-92249457D01*
X113701969Y-92329017D01*
X113653451Y-92419787D01*
X113623574Y-92518278D01*
X113620703Y-92547431D01*
X112965709Y-92737805D01*
X111565490Y-92984865D01*
X111465157Y-92993904D01*
X111442792Y-92952062D01*
X111377498Y-92872502D01*
X111297938Y-92807208D01*
X111207168Y-92758691D01*
X111108677Y-92728814D01*
X111006250Y-92718726D01*
X110568750Y-92718726D01*
X110466323Y-92728814D01*
X110367832Y-92758691D01*
X110277062Y-92807208D01*
X110197502Y-92872502D01*
X110132208Y-92952062D01*
X110083691Y-93042832D01*
X110053814Y-93141323D01*
X110043726Y-93243750D01*
X109956274Y-93243750D01*
X109946186Y-93141323D01*
X109916309Y-93042832D01*
X109867792Y-92952062D01*
X109802498Y-92872502D01*
X109722938Y-92807208D01*
X109702169Y-92796107D01*
X109642979Y-90902011D01*
X110042699Y-90920086D01*
X110078422Y-90919456D01*
X110114154Y-90919210D01*
X111404330Y-90829129D01*
X111481794Y-90818801D01*
X111481797Y-90818800D01*
X112750503Y-90567729D01*
X112750506Y-90567729D01*
X112826064Y-90547774D01*
X114053306Y-90139669D01*
X114125767Y-90110402D01*
X115292181Y-89551701D01*
X115360403Y-89513582D01*
X116215592Y-88962578D01*
X119241889Y-88962578D01*
X119251977Y-89065005D01*
X119281854Y-89163496D01*
X119330371Y-89254266D01*
X119395665Y-89333826D01*
X119758058Y-89696219D01*
X119837618Y-89761513D01*
X119928388Y-89810030D01*
X120026879Y-89839907D01*
X120129306Y-89849995D01*
X120231733Y-89839907D01*
X120330224Y-89810030D01*
X120420994Y-89761513D01*
X120500554Y-89696219D01*
X120564584Y-89632189D01*
X120568199Y-89630247D01*
X120623702Y-89592175D01*
X120674770Y-89548330D01*
X120720803Y-89499227D01*
X120722198Y-89497562D01*
X121261056Y-88851997D01*
X121276186Y-88831737D01*
X121291865Y-88811879D01*
X121293114Y-88810102D01*
X122142984Y-87596068D01*
X122160236Y-87568344D01*
X122177495Y-87540824D01*
X122178545Y-87538922D01*
X122751070Y-86497223D01*
X122760584Y-86485630D01*
X122809102Y-86394860D01*
X122814525Y-86381768D01*
X122892330Y-86240203D01*
X122921511Y-86179551D01*
X122943971Y-86116103D01*
X122959447Y-86050600D01*
X122962774Y-86023862D01*
X122976526Y-85990663D01*
X123006403Y-85892172D01*
X123016491Y-85789745D01*
X123006403Y-85687318D01*
X122976526Y-85588827D01*
X122928008Y-85498057D01*
X122862715Y-85418497D01*
X122783155Y-85353203D01*
X122692385Y-85304686D01*
X122218897Y-85108561D01*
X122120406Y-85078684D01*
X122017979Y-85068596D01*
X121915552Y-85078684D01*
X121817061Y-85108561D01*
X121726291Y-85157078D01*
X121646731Y-85222372D01*
X121581438Y-85301932D01*
X121532920Y-85392702D01*
X121365496Y-85796899D01*
X121335619Y-85895390D01*
X121325531Y-85997817D01*
X121335619Y-86100244D01*
X121365496Y-86198735D01*
X121414014Y-86289505D01*
X121432597Y-86312149D01*
X121104059Y-86909918D01*
X120288654Y-88074720D01*
X120224101Y-88152056D01*
X120178699Y-88138283D01*
X120076272Y-88128195D01*
X119973845Y-88138283D01*
X119875354Y-88168160D01*
X119784584Y-88216677D01*
X119705024Y-88281971D01*
X119395665Y-88591330D01*
X119330371Y-88670890D01*
X119281854Y-88761660D01*
X119251977Y-88860151D01*
X119241889Y-88962578D01*
X116215592Y-88962578D01*
X116447596Y-88813097D01*
X116510503Y-88766729D01*
X116510510Y-88766722D01*
X117501329Y-87935505D01*
X117557928Y-87881618D01*
X118436761Y-86932766D01*
X118436762Y-86932765D01*
X118486161Y-86872209D01*
X119239141Y-85820691D01*
X119258482Y-85789745D01*
X119280560Y-85754422D01*
X119895809Y-84616829D01*
X119895813Y-84616823D01*
X119922890Y-84558239D01*
X119928601Y-84545884D01*
X119928605Y-84545870D01*
X119929832Y-84542707D01*
X121928257Y-84542707D01*
X121938345Y-84645134D01*
X121968222Y-84743625D01*
X122016740Y-84834395D01*
X122082033Y-84913955D01*
X122161593Y-84979249D01*
X122252363Y-85027766D01*
X122725851Y-85223891D01*
X122824342Y-85253768D01*
X122926769Y-85263856D01*
X123029196Y-85253768D01*
X123127687Y-85223891D01*
X123218457Y-85175374D01*
X123298017Y-85110080D01*
X123363310Y-85030520D01*
X123411828Y-84939750D01*
X123446478Y-84856097D01*
X123449080Y-84852913D01*
X123485788Y-84796498D01*
X123516190Y-84736449D01*
X123539928Y-84673467D01*
X123540580Y-84671395D01*
X123791372Y-83868759D01*
X123797597Y-83844250D01*
X123804483Y-83819905D01*
X123804956Y-83817785D01*
X124125543Y-82370932D01*
X124130846Y-82338881D01*
X124136287Y-82306687D01*
X124136529Y-82304528D01*
X124266832Y-81123030D01*
X124271186Y-81108677D01*
X124281274Y-81006250D01*
X124281274Y-80992080D01*
X124298982Y-80831516D01*
X124302731Y-80764314D01*
X124299201Y-80697100D01*
X124288432Y-80630661D01*
X124281274Y-80604685D01*
X124281274Y-80568750D01*
X124271186Y-80466323D01*
X124241309Y-80367832D01*
X124192792Y-80277062D01*
X124127498Y-80197502D01*
X124047938Y-80132208D01*
X123957168Y-80083691D01*
X123858677Y-80053814D01*
X123756250Y-80043726D01*
X123243750Y-80043726D01*
X123141323Y-80053814D01*
X123042832Y-80083691D01*
X122952062Y-80132208D01*
X122872502Y-80197502D01*
X122807208Y-80277062D01*
X122758691Y-80367832D01*
X122728814Y-80466323D01*
X122718726Y-80568750D01*
X122718726Y-81006250D01*
X122728814Y-81108677D01*
X122758691Y-81207168D01*
X122807208Y-81297938D01*
X122872502Y-81377498D01*
X122952062Y-81442792D01*
X122977897Y-81456601D01*
X122903123Y-82134598D01*
X122595541Y-83522759D01*
X122565493Y-83618924D01*
X122518278Y-83623574D01*
X122419787Y-83653451D01*
X122329017Y-83701968D01*
X122249457Y-83767262D01*
X122184164Y-83846822D01*
X122135646Y-83937592D01*
X121968222Y-84341789D01*
X121938345Y-84440280D01*
X121928257Y-84542707D01*
X119929832Y-84542707D01*
X120396423Y-83340144D01*
X120420061Y-83265655D01*
X120733075Y-82010788D01*
X120747191Y-81933924D01*
X120900461Y-80649721D01*
X120904831Y-80571694D01*
X120895938Y-79278408D01*
X120890495Y-79200449D01*
X120719581Y-77918475D01*
X120704410Y-77841813D01*
X120374170Y-76591369D01*
X120349510Y-76517212D01*
X120307349Y-76412828D01*
X120316451Y-76426450D01*
X120428550Y-76538549D01*
X120560364Y-76626624D01*
X120706829Y-76687292D01*
X120862314Y-76718220D01*
X121020846Y-76718220D01*
X121176331Y-76687292D01*
X121322796Y-76626624D01*
X121454610Y-76538549D01*
X121566709Y-76426450D01*
X121654784Y-76294636D01*
X121715452Y-76148171D01*
X121746380Y-75992686D01*
X121746380Y-75834154D01*
X121715452Y-75678669D01*
X121654784Y-75532204D01*
X121604731Y-75457293D01*
X121928257Y-75457293D01*
X121938345Y-75559720D01*
X121968222Y-75658211D01*
X122135646Y-76062408D01*
X122184163Y-76153178D01*
X122249457Y-76232738D01*
X122329017Y-76298031D01*
X122419787Y-76346549D01*
X122518278Y-76376426D01*
X122547431Y-76379297D01*
X122737805Y-77034291D01*
X122984865Y-78434508D01*
X122993904Y-78534843D01*
X122952062Y-78557208D01*
X122872502Y-78622502D01*
X122807208Y-78702062D01*
X122758691Y-78792832D01*
X122728814Y-78891323D01*
X122718726Y-78993750D01*
X122718726Y-79431250D01*
X122728814Y-79533677D01*
X122758691Y-79632168D01*
X122807208Y-79722938D01*
X122872502Y-79802498D01*
X122952062Y-79867792D01*
X123042832Y-79916309D01*
X123141323Y-79946186D01*
X123243750Y-79956274D01*
X123756250Y-79956274D01*
X123858677Y-79946186D01*
X123957168Y-79916309D01*
X124047938Y-79867792D01*
X124127498Y-79802498D01*
X124192792Y-79722938D01*
X124241309Y-79632168D01*
X124271186Y-79533677D01*
X124281274Y-79431250D01*
X124281274Y-79340703D01*
X124282459Y-79336766D01*
X124294784Y-79270598D01*
X124299892Y-79203485D01*
X124297721Y-79136214D01*
X124297530Y-79134050D01*
X124222076Y-78296537D01*
X124218446Y-78271498D01*
X124215493Y-78246385D01*
X124215120Y-78244245D01*
X123957618Y-76784844D01*
X123950251Y-76753204D01*
X123942958Y-76721378D01*
X123942355Y-76719291D01*
X123610599Y-75577863D01*
X123609129Y-75562938D01*
X123579252Y-75464447D01*
X123573830Y-75451357D01*
X123528744Y-75296236D01*
X123506491Y-75232715D01*
X123477508Y-75171968D01*
X123442134Y-75114707D01*
X123425578Y-75093445D01*
X123411828Y-75060250D01*
X123363311Y-74969480D01*
X123298017Y-74889920D01*
X123218457Y-74824627D01*
X123127687Y-74776109D01*
X123029196Y-74746232D01*
X122926769Y-74736144D01*
X122824342Y-74746232D01*
X122725851Y-74776109D01*
X122252363Y-74972234D01*
X122161593Y-75020752D01*
X122082033Y-75086045D01*
X122016739Y-75165605D01*
X121968222Y-75256375D01*
X121938345Y-75354866D01*
X121928257Y-75457293D01*
X121604731Y-75457293D01*
X121577420Y-75416420D01*
X121611737Y-75398078D01*
X121658148Y-75359988D01*
X121696238Y-75313577D01*
X121724540Y-75260626D01*
X121741969Y-75203171D01*
X121747854Y-75143420D01*
X121747854Y-74854447D01*
X121817061Y-74891439D01*
X121915552Y-74921316D01*
X122017979Y-74931404D01*
X122120406Y-74921316D01*
X122218897Y-74891439D01*
X122692385Y-74695314D01*
X122783155Y-74646796D01*
X122862715Y-74581503D01*
X122928009Y-74501943D01*
X122976526Y-74411173D01*
X123006403Y-74312682D01*
X123016491Y-74210255D01*
X123006403Y-74107828D01*
X122976526Y-74009337D01*
X122941875Y-73925681D01*
X122941463Y-73921592D01*
X122927528Y-73855744D01*
X122906564Y-73791785D01*
X122878815Y-73730465D01*
X122877810Y-73728539D01*
X122487597Y-72983653D01*
X122474673Y-72961929D01*
X122462324Y-72939838D01*
X122461160Y-72938004D01*
X121664770Y-71688235D01*
X121645789Y-71661729D01*
X121626938Y-71635210D01*
X121625583Y-71633512D01*
X120882282Y-70705937D01*
X120875207Y-70692700D01*
X120809913Y-70613140D01*
X120799884Y-70603111D01*
X120698877Y-70477063D01*
X120654009Y-70426893D01*
X120603985Y-70381862D01*
X120549391Y-70342497D01*
X120525966Y-70329193D01*
X120500554Y-70303781D01*
X120420994Y-70238487D01*
X120330224Y-70189970D01*
X120231733Y-70160093D01*
X120129306Y-70150005D01*
X120026879Y-70160093D01*
X119928388Y-70189970D01*
X119837618Y-70238487D01*
X119758058Y-70303781D01*
X119395665Y-70666174D01*
X119330371Y-70745734D01*
X119281854Y-70836504D01*
X119251977Y-70934995D01*
X119241889Y-71037422D01*
X119251977Y-71139849D01*
X119281854Y-71238340D01*
X119330371Y-71329110D01*
X119395665Y-71408670D01*
X119705024Y-71718029D01*
X119784584Y-71783323D01*
X119875354Y-71831840D01*
X119973845Y-71861717D01*
X120076272Y-71871805D01*
X120178699Y-71861717D01*
X120206731Y-71853214D01*
X120633273Y-72385501D01*
X121397362Y-73584579D01*
X121444111Y-73673820D01*
X121414013Y-73710495D01*
X121365496Y-73801265D01*
X121354612Y-73837146D01*
X120441580Y-73837146D01*
X120381829Y-73843031D01*
X120324374Y-73860460D01*
X120271423Y-73888762D01*
X120225012Y-73926852D01*
X120186922Y-73973263D01*
X120158620Y-74026214D01*
X120141191Y-74083669D01*
X120135306Y-74143420D01*
X120135306Y-75143420D01*
X120141191Y-75203171D01*
X120158620Y-75260626D01*
X120186922Y-75313577D01*
X120225012Y-75359988D01*
X120271423Y-75398078D01*
X120305740Y-75416420D01*
X120228376Y-75532204D01*
X120167708Y-75678669D01*
X120136780Y-75834154D01*
X120136780Y-75990526D01*
X119865152Y-75318018D01*
X119831393Y-75247537D01*
X119831385Y-75247525D01*
X119200555Y-74118505D01*
X119158227Y-74052811D01*
X118390858Y-73011747D01*
X118340631Y-72951876D01*
X117448833Y-72015198D01*
X117391499Y-71962094D01*
X117391489Y-71962087D01*
X116389346Y-71144582D01*
X116389337Y-71144574D01*
X116352312Y-71118061D01*
X116325799Y-71099075D01*
X116325792Y-71099071D01*
X115229075Y-70413606D01*
X115160335Y-70376429D01*
X115160322Y-70376424D01*
X113986349Y-69833821D01*
X113974344Y-69829163D01*
X113913492Y-69805552D01*
X112680760Y-69414364D01*
X112680756Y-69414362D01*
X112604930Y-69395448D01*
X111332885Y-69161845D01*
X111255286Y-69152584D01*
X109963995Y-69080253D01*
X109963993Y-69080253D01*
X109916193Y-69080581D01*
X109926842Y-69071842D01*
X109939477Y-69056446D01*
X109948866Y-69038881D01*
X109954648Y-69019821D01*
X109956600Y-69000000D01*
X109956600Y-66243750D01*
X110043726Y-66243750D01*
X110043726Y-66756250D01*
X110053814Y-66858677D01*
X110083691Y-66957168D01*
X110132208Y-67047938D01*
X110197502Y-67127498D01*
X110277062Y-67192792D01*
X110367832Y-67241309D01*
X110466323Y-67271186D01*
X110568750Y-67281274D01*
X111006250Y-67281274D01*
X111108677Y-67271186D01*
X111207168Y-67241309D01*
X111297938Y-67192792D01*
X111377498Y-67127498D01*
X111442792Y-67047938D01*
X111491309Y-66957168D01*
X111506163Y-66908201D01*
X112077351Y-66971367D01*
X111779821Y-68379680D01*
X111769733Y-68470987D01*
X111780301Y-68593112D01*
X111814492Y-68710829D01*
X111870991Y-68819615D01*
X111947628Y-68915288D01*
X112041457Y-68994171D01*
X112148872Y-69053234D01*
X112265746Y-69090206D01*
X112387587Y-69103667D01*
X112509712Y-69093099D01*
X112627429Y-69058908D01*
X112736215Y-69002409D01*
X112831888Y-68925772D01*
X112849310Y-68905049D01*
X112850760Y-68912337D01*
X112890698Y-69008754D01*
X112948678Y-69095528D01*
X113022472Y-69169322D01*
X113109246Y-69227302D01*
X113205663Y-69267240D01*
X113308019Y-69287600D01*
X113412381Y-69287600D01*
X113514737Y-69267240D01*
X113611154Y-69227302D01*
X113697928Y-69169322D01*
X113771722Y-69095528D01*
X113829702Y-69008754D01*
X113869640Y-68912337D01*
X113890000Y-68809981D01*
X113890000Y-68705619D01*
X113869640Y-68603263D01*
X113847861Y-68550684D01*
X113904834Y-68512616D01*
X113978628Y-68438822D01*
X114036608Y-68352048D01*
X114076546Y-68255631D01*
X114096906Y-68153275D01*
X114096906Y-68048913D01*
X114076546Y-67946557D01*
X114064223Y-67916806D01*
X114341789Y-68031778D01*
X114440280Y-68061655D01*
X114542707Y-68071743D01*
X114645134Y-68061655D01*
X114743625Y-68031778D01*
X114834395Y-67983260D01*
X114835904Y-67982021D01*
X115068596Y-67982021D01*
X115078684Y-68084448D01*
X115108561Y-68182939D01*
X115157078Y-68273709D01*
X115222372Y-68353269D01*
X115301932Y-68418562D01*
X115392702Y-68467080D01*
X115796899Y-68634504D01*
X115895390Y-68664381D01*
X115997817Y-68674469D01*
X116100244Y-68664381D01*
X116198735Y-68634504D01*
X116289505Y-68585986D01*
X116312149Y-68567403D01*
X116819276Y-68846123D01*
X116807072Y-68854278D01*
X116733278Y-68928072D01*
X116675298Y-69014846D01*
X116635360Y-69111263D01*
X116615000Y-69213619D01*
X116615000Y-69317981D01*
X116635360Y-69420337D01*
X116675298Y-69516754D01*
X116733278Y-69603528D01*
X116807072Y-69677322D01*
X116893846Y-69735302D01*
X116990263Y-69775240D01*
X117092619Y-69795600D01*
X117196981Y-69795600D01*
X117299337Y-69775240D01*
X117395754Y-69735302D01*
X117482528Y-69677322D01*
X117556322Y-69603528D01*
X117614302Y-69516754D01*
X117654240Y-69420337D01*
X117654824Y-69417403D01*
X118074720Y-69711346D01*
X118152056Y-69775899D01*
X118138283Y-69821301D01*
X118128195Y-69923728D01*
X118138283Y-70026155D01*
X118168160Y-70124646D01*
X118216677Y-70215416D01*
X118281971Y-70294976D01*
X118591330Y-70604335D01*
X118670890Y-70669629D01*
X118761660Y-70718146D01*
X118860151Y-70748023D01*
X118962578Y-70758111D01*
X119065005Y-70748023D01*
X119163496Y-70718146D01*
X119254266Y-70669629D01*
X119333826Y-70604335D01*
X119696219Y-70241942D01*
X119761513Y-70162382D01*
X119810030Y-70071612D01*
X119839907Y-69973121D01*
X119849995Y-69870694D01*
X119839907Y-69768267D01*
X119810030Y-69669776D01*
X119761513Y-69579006D01*
X119696219Y-69499446D01*
X119632189Y-69435416D01*
X119630247Y-69431801D01*
X119592175Y-69376298D01*
X119548331Y-69325230D01*
X119499227Y-69279197D01*
X119497562Y-69277802D01*
X118851997Y-68738944D01*
X118831731Y-68723809D01*
X118811879Y-68708135D01*
X118810102Y-68706886D01*
X117596068Y-67857016D01*
X117568344Y-67839764D01*
X117540824Y-67822505D01*
X117538928Y-67821459D01*
X117538922Y-67821455D01*
X117538915Y-67821452D01*
X116497223Y-67248930D01*
X116485630Y-67239416D01*
X116394860Y-67190898D01*
X116381768Y-67185475D01*
X116240203Y-67107670D01*
X116179552Y-67078489D01*
X116116103Y-67056029D01*
X116050601Y-67040553D01*
X116023862Y-67037225D01*
X115990663Y-67023474D01*
X115892172Y-66993597D01*
X115789745Y-66983509D01*
X115687318Y-66993597D01*
X115588827Y-67023474D01*
X115498057Y-67071992D01*
X115418497Y-67137285D01*
X115353203Y-67216845D01*
X115304686Y-67307615D01*
X115108561Y-67781103D01*
X115078684Y-67879594D01*
X115068596Y-67982021D01*
X114835904Y-67982021D01*
X114913955Y-67917967D01*
X114979249Y-67838407D01*
X115027766Y-67747637D01*
X115223891Y-67274149D01*
X115253768Y-67175658D01*
X115263856Y-67073231D01*
X115253768Y-66970804D01*
X115223891Y-66872313D01*
X115175374Y-66781543D01*
X115110080Y-66701983D01*
X115030520Y-66636690D01*
X114939750Y-66588172D01*
X114753977Y-66511222D01*
X114726748Y-66497431D01*
X114670602Y-66476258D01*
X114668754Y-66475677D01*
X114666345Y-66474924D01*
X114535553Y-66420748D01*
X114437062Y-66390871D01*
X114379311Y-66385183D01*
X113866405Y-66224824D01*
X113844599Y-66219281D01*
X113822921Y-66213142D01*
X113821030Y-66212720D01*
X112368863Y-65890504D01*
X112340354Y-65885779D01*
X112311589Y-65880908D01*
X112309664Y-65880693D01*
X111207363Y-65758795D01*
X111207168Y-65758691D01*
X111108677Y-65728814D01*
X111006250Y-65718726D01*
X110845026Y-65718726D01*
X110831190Y-65717196D01*
X110771278Y-65713835D01*
X110711354Y-65716964D01*
X110700464Y-65718726D01*
X110568750Y-65718726D01*
X110466323Y-65728814D01*
X110367832Y-65758691D01*
X110277062Y-65807208D01*
X110197502Y-65872502D01*
X110132208Y-65952062D01*
X110083691Y-66042832D01*
X110053814Y-66141323D01*
X110043726Y-66243750D01*
X109956600Y-66243750D01*
X109956600Y-65445173D01*
X111124308Y-65475249D01*
M02*
