G04 #@! TF.GenerationSoftware,KiCad,Pcbnew,(5.1.5)-3*
G04 #@! TF.CreationDate,2020-07-21T22:53:20-07:00*
G04 #@! TF.ProjectId,MiniCAM,4d696e69-4341-44d2-9e6b-696361645f70,rev?*
G04 #@! TF.SameCoordinates,Original*
G04 #@! TF.FileFunction,Soldermask,Bot*
G04 #@! TF.FilePolarity,Negative*
%FSLAX46Y46*%
G04 Gerber Fmt 4.6, Leading zero omitted, Abs format (unit mm)*
G04 Created by KiCad (PCBNEW (5.1.5)-3) date 2020-07-21 22:53:20*
%MOMM*%
%LPD*%
G04 APERTURE LIST*
%ADD10C,0.100000*%
G04 APERTURE END LIST*
D10*
G36*
X110691012Y-46089437D02*
G01*
X110884301Y-46148071D01*
X110884304Y-46148072D01*
X111062440Y-46243287D01*
X111218576Y-46371424D01*
X111346713Y-46527560D01*
X111441928Y-46705695D01*
X111441928Y-46705696D01*
X111441929Y-46705698D01*
X111500563Y-46898987D01*
X111515400Y-47049630D01*
X111515400Y-49150370D01*
X111500563Y-49301013D01*
X111455998Y-49447923D01*
X111441928Y-49494305D01*
X111346713Y-49672440D01*
X111218576Y-49828576D01*
X111062440Y-49956713D01*
X110884305Y-50051928D01*
X110884302Y-50051929D01*
X110691013Y-50110563D01*
X110490000Y-50130361D01*
X110288988Y-50110563D01*
X110095699Y-50051929D01*
X110095696Y-50051928D01*
X109917561Y-49956713D01*
X109761425Y-49828576D01*
X109633288Y-49672440D01*
X109538073Y-49494305D01*
X109524003Y-49447923D01*
X109479438Y-49301013D01*
X109464601Y-49150370D01*
X109464600Y-47049631D01*
X109479437Y-46898988D01*
X109538071Y-46705699D01*
X109538072Y-46705696D01*
X109633287Y-46527560D01*
X109761424Y-46371424D01*
X109917560Y-46243287D01*
X110095695Y-46148072D01*
X110095698Y-46148071D01*
X110288987Y-46089437D01*
X110490000Y-46069639D01*
X110691012Y-46089437D01*
G37*
G36*
X125400519Y-48034451D02*
G01*
X125549101Y-48064006D01*
X125735710Y-48141302D01*
X125903650Y-48253516D01*
X126046484Y-48396350D01*
X126158698Y-48564290D01*
X126235994Y-48750899D01*
X126275400Y-48949008D01*
X126275400Y-49150992D01*
X126235994Y-49349101D01*
X126158698Y-49535710D01*
X126046484Y-49703650D01*
X125903650Y-49846484D01*
X125735710Y-49958698D01*
X125549101Y-50035994D01*
X125400519Y-50065548D01*
X125350993Y-50075400D01*
X125149007Y-50075400D01*
X125099481Y-50065548D01*
X124950899Y-50035994D01*
X124764290Y-49958698D01*
X124596350Y-49846484D01*
X124453516Y-49703650D01*
X124341302Y-49535710D01*
X124264006Y-49349101D01*
X124224600Y-49150992D01*
X124224600Y-48949008D01*
X124264006Y-48750899D01*
X124341302Y-48564290D01*
X124453516Y-48396350D01*
X124596350Y-48253516D01*
X124764290Y-48141302D01*
X124950899Y-48064006D01*
X125099481Y-48034451D01*
X125149007Y-48024600D01*
X125350993Y-48024600D01*
X125400519Y-48034451D01*
G37*
G36*
X103500519Y-48034451D02*
G01*
X103649101Y-48064006D01*
X103835710Y-48141302D01*
X104003650Y-48253516D01*
X104146484Y-48396350D01*
X104258698Y-48564290D01*
X104335994Y-48750899D01*
X104375400Y-48949008D01*
X104375400Y-49150992D01*
X104335994Y-49349101D01*
X104258698Y-49535710D01*
X104146484Y-49703650D01*
X104003650Y-49846484D01*
X103835710Y-49958698D01*
X103649101Y-50035994D01*
X103500519Y-50065548D01*
X103450993Y-50075400D01*
X103249007Y-50075400D01*
X103199481Y-50065548D01*
X103050899Y-50035994D01*
X102864290Y-49958698D01*
X102696350Y-49846484D01*
X102553516Y-49703650D01*
X102441302Y-49535710D01*
X102364006Y-49349101D01*
X102324600Y-49150992D01*
X102324600Y-48949008D01*
X102364006Y-48750899D01*
X102441302Y-48564290D01*
X102553516Y-48396350D01*
X102696350Y-48253516D01*
X102864290Y-48141302D01*
X103050899Y-48064006D01*
X103199481Y-48034451D01*
X103249007Y-48024600D01*
X103450993Y-48024600D01*
X103500519Y-48034451D01*
G37*
G36*
X115845582Y-48594330D02*
G01*
X115913255Y-48607791D01*
X116008870Y-48647397D01*
X116094923Y-48704895D01*
X116168105Y-48778077D01*
X116168108Y-48778082D01*
X116225603Y-48864130D01*
X116265209Y-48959745D01*
X116285400Y-49061254D01*
X116285400Y-49164746D01*
X116265209Y-49266255D01*
X116250811Y-49301013D01*
X116225603Y-49361870D01*
X116168105Y-49447923D01*
X116094923Y-49521105D01*
X116008870Y-49578603D01*
X115913255Y-49618209D01*
X115845582Y-49631670D01*
X115811747Y-49638400D01*
X115708253Y-49638400D01*
X115674418Y-49631670D01*
X115606745Y-49618209D01*
X115511130Y-49578603D01*
X115425077Y-49521105D01*
X115351895Y-49447923D01*
X115294397Y-49361870D01*
X115269189Y-49301013D01*
X115254791Y-49266255D01*
X115234600Y-49164746D01*
X115234600Y-49061254D01*
X115254791Y-48959745D01*
X115294397Y-48864130D01*
X115351892Y-48778082D01*
X115351895Y-48778077D01*
X115425077Y-48704895D01*
X115511130Y-48647397D01*
X115606745Y-48607791D01*
X115674418Y-48594330D01*
X115708253Y-48587600D01*
X115811747Y-48587600D01*
X115845582Y-48594330D01*
G37*
G36*
X115015400Y-49638400D02*
G01*
X113964600Y-49638400D01*
X113964600Y-48587600D01*
X115015400Y-48587600D01*
X115015400Y-49638400D01*
G37*
G36*
X121218182Y-46674530D02*
G01*
X121285855Y-46687991D01*
X121381470Y-46727597D01*
X121467523Y-46785095D01*
X121540705Y-46858277D01*
X121540708Y-46858282D01*
X121598203Y-46944330D01*
X121637809Y-47039945D01*
X121658000Y-47141454D01*
X121658000Y-47244946D01*
X121637809Y-47346455D01*
X121598203Y-47442070D01*
X121540705Y-47528123D01*
X121467523Y-47601305D01*
X121381470Y-47658803D01*
X121285855Y-47698409D01*
X121218182Y-47711870D01*
X121184347Y-47718600D01*
X121080853Y-47718600D01*
X121047018Y-47711870D01*
X120979345Y-47698409D01*
X120883730Y-47658803D01*
X120797677Y-47601305D01*
X120724495Y-47528123D01*
X120666997Y-47442070D01*
X120627391Y-47346455D01*
X120607200Y-47244946D01*
X120607200Y-47141454D01*
X120627391Y-47039945D01*
X120666997Y-46944330D01*
X120724492Y-46858282D01*
X120724495Y-46858277D01*
X120797677Y-46785095D01*
X120883730Y-46727597D01*
X120979345Y-46687991D01*
X121047018Y-46674530D01*
X121080853Y-46667800D01*
X121184347Y-46667800D01*
X121218182Y-46674530D01*
G37*
G36*
X119948182Y-46674530D02*
G01*
X120015855Y-46687991D01*
X120111470Y-46727597D01*
X120197523Y-46785095D01*
X120270705Y-46858277D01*
X120270708Y-46858282D01*
X120328203Y-46944330D01*
X120367809Y-47039945D01*
X120388000Y-47141454D01*
X120388000Y-47244946D01*
X120367809Y-47346455D01*
X120328203Y-47442070D01*
X120270705Y-47528123D01*
X120197523Y-47601305D01*
X120111470Y-47658803D01*
X120015855Y-47698409D01*
X119948182Y-47711870D01*
X119914347Y-47718600D01*
X119810853Y-47718600D01*
X119777018Y-47711870D01*
X119709345Y-47698409D01*
X119613730Y-47658803D01*
X119527677Y-47601305D01*
X119454495Y-47528123D01*
X119396997Y-47442070D01*
X119357391Y-47346455D01*
X119337200Y-47244946D01*
X119337200Y-47141454D01*
X119357391Y-47039945D01*
X119396997Y-46944330D01*
X119454492Y-46858282D01*
X119454495Y-46858277D01*
X119527677Y-46785095D01*
X119613730Y-46727597D01*
X119709345Y-46687991D01*
X119777018Y-46674530D01*
X119810853Y-46667800D01*
X119914347Y-46667800D01*
X119948182Y-46674530D01*
G37*
G36*
X122488182Y-46674530D02*
G01*
X122555855Y-46687991D01*
X122651470Y-46727597D01*
X122737523Y-46785095D01*
X122810705Y-46858277D01*
X122810708Y-46858282D01*
X122868203Y-46944330D01*
X122907809Y-47039945D01*
X122928000Y-47141454D01*
X122928000Y-47244946D01*
X122907809Y-47346455D01*
X122868203Y-47442070D01*
X122810705Y-47528123D01*
X122737523Y-47601305D01*
X122651470Y-47658803D01*
X122555855Y-47698409D01*
X122488182Y-47711870D01*
X122454347Y-47718600D01*
X122350853Y-47718600D01*
X122317018Y-47711870D01*
X122249345Y-47698409D01*
X122153730Y-47658803D01*
X122067677Y-47601305D01*
X121994495Y-47528123D01*
X121936997Y-47442070D01*
X121897391Y-47346455D01*
X121877200Y-47244946D01*
X121877200Y-47141454D01*
X121897391Y-47039945D01*
X121936997Y-46944330D01*
X121994492Y-46858282D01*
X121994495Y-46858277D01*
X122067677Y-46785095D01*
X122153730Y-46727597D01*
X122249345Y-46687991D01*
X122317018Y-46674530D01*
X122350853Y-46667800D01*
X122454347Y-46667800D01*
X122488182Y-46674530D01*
G37*
G36*
X122488182Y-45404530D02*
G01*
X122555855Y-45417991D01*
X122651470Y-45457597D01*
X122737523Y-45515095D01*
X122810705Y-45588277D01*
X122810708Y-45588282D01*
X122868203Y-45674330D01*
X122907809Y-45769945D01*
X122928000Y-45871454D01*
X122928000Y-45974946D01*
X122907809Y-46076455D01*
X122868203Y-46172070D01*
X122810705Y-46258123D01*
X122737523Y-46331305D01*
X122677480Y-46371424D01*
X122651470Y-46388803D01*
X122555855Y-46428409D01*
X122488182Y-46441870D01*
X122454347Y-46448600D01*
X122350853Y-46448600D01*
X122317018Y-46441870D01*
X122249345Y-46428409D01*
X122153730Y-46388803D01*
X122127720Y-46371424D01*
X122067677Y-46331305D01*
X121994495Y-46258123D01*
X121936997Y-46172070D01*
X121897391Y-46076455D01*
X121877200Y-45974946D01*
X121877200Y-45871454D01*
X121897391Y-45769945D01*
X121936997Y-45674330D01*
X121994492Y-45588282D01*
X121994495Y-45588277D01*
X122067677Y-45515095D01*
X122153730Y-45457597D01*
X122249345Y-45417991D01*
X122317018Y-45404530D01*
X122350853Y-45397800D01*
X122454347Y-45397800D01*
X122488182Y-45404530D01*
G37*
G36*
X120388000Y-46448600D02*
G01*
X119337200Y-46448600D01*
X119337200Y-45397800D01*
X120388000Y-45397800D01*
X120388000Y-46448600D01*
G37*
G36*
X121218182Y-45404530D02*
G01*
X121285855Y-45417991D01*
X121381470Y-45457597D01*
X121467523Y-45515095D01*
X121540705Y-45588277D01*
X121540708Y-45588282D01*
X121598203Y-45674330D01*
X121637809Y-45769945D01*
X121658000Y-45871454D01*
X121658000Y-45974946D01*
X121637809Y-46076455D01*
X121598203Y-46172070D01*
X121540705Y-46258123D01*
X121467523Y-46331305D01*
X121407480Y-46371424D01*
X121381470Y-46388803D01*
X121285855Y-46428409D01*
X121218182Y-46441870D01*
X121184347Y-46448600D01*
X121080853Y-46448600D01*
X121047018Y-46441870D01*
X120979345Y-46428409D01*
X120883730Y-46388803D01*
X120857720Y-46371424D01*
X120797677Y-46331305D01*
X120724495Y-46258123D01*
X120666997Y-46172070D01*
X120627391Y-46076455D01*
X120607200Y-45974946D01*
X120607200Y-45871454D01*
X120627391Y-45769945D01*
X120666997Y-45674330D01*
X120724492Y-45588282D01*
X120724495Y-45588277D01*
X120797677Y-45515095D01*
X120883730Y-45457597D01*
X120979345Y-45417991D01*
X121047018Y-45404530D01*
X121080853Y-45397800D01*
X121184347Y-45397800D01*
X121218182Y-45404530D01*
G37*
G36*
X109015400Y-43080400D02*
G01*
X108464600Y-43080400D01*
X108464600Y-42289600D01*
X109015400Y-42289600D01*
X109015400Y-43080400D01*
G37*
G36*
X114615400Y-43080400D02*
G01*
X114064600Y-43080400D01*
X114064600Y-42289600D01*
X114615400Y-42289600D01*
X114615400Y-43080400D01*
G37*
G36*
X112515400Y-43080400D02*
G01*
X111964600Y-43080400D01*
X111964600Y-42289600D01*
X112515400Y-42289600D01*
X112515400Y-43080400D01*
G37*
G36*
X111115400Y-43080400D02*
G01*
X110564600Y-43080400D01*
X110564600Y-42289600D01*
X111115400Y-42289600D01*
X111115400Y-43080400D01*
G37*
G36*
X110415400Y-43080400D02*
G01*
X109864600Y-43080400D01*
X109864600Y-42289600D01*
X110415400Y-42289600D01*
X110415400Y-43080400D01*
G37*
G36*
X109715400Y-43080400D02*
G01*
X109164600Y-43080400D01*
X109164600Y-42289600D01*
X109715400Y-42289600D01*
X109715400Y-43080400D01*
G37*
G36*
X108315400Y-43080400D02*
G01*
X107764600Y-43080400D01*
X107764600Y-42289600D01*
X108315400Y-42289600D01*
X108315400Y-43080400D01*
G37*
G36*
X107615400Y-43080400D02*
G01*
X107064600Y-43080400D01*
X107064600Y-42289600D01*
X107615400Y-42289600D01*
X107615400Y-43080400D01*
G37*
G36*
X106915400Y-43080400D02*
G01*
X106364600Y-43080400D01*
X106364600Y-42289600D01*
X106915400Y-42289600D01*
X106915400Y-43080400D01*
G37*
G36*
X113915400Y-43080400D02*
G01*
X113364600Y-43080400D01*
X113364600Y-42289600D01*
X113915400Y-42289600D01*
X113915400Y-43080400D01*
G37*
G36*
X111815400Y-43080400D02*
G01*
X111264600Y-43080400D01*
X111264600Y-42289600D01*
X111815400Y-42289600D01*
X111815400Y-43080400D01*
G37*
G36*
X113215400Y-43080400D02*
G01*
X112664600Y-43080400D01*
X112664600Y-42289600D01*
X113215400Y-42289600D01*
X113215400Y-43080400D01*
G37*
G36*
X106300400Y-42225400D02*
G01*
X105509600Y-42225400D01*
X105509600Y-41674600D01*
X106300400Y-41674600D01*
X106300400Y-42225400D01*
G37*
G36*
X115470400Y-42225400D02*
G01*
X114679600Y-42225400D01*
X114679600Y-41674600D01*
X115470400Y-41674600D01*
X115470400Y-42225400D01*
G37*
G36*
X115470400Y-41525400D02*
G01*
X114679600Y-41525400D01*
X114679600Y-40974600D01*
X115470400Y-40974600D01*
X115470400Y-41525400D01*
G37*
G36*
X106300400Y-41525400D02*
G01*
X105509600Y-41525400D01*
X105509600Y-40974600D01*
X106300400Y-40974600D01*
X106300400Y-41525400D01*
G37*
G36*
X115470400Y-40825400D02*
G01*
X114679600Y-40825400D01*
X114679600Y-40274600D01*
X115470400Y-40274600D01*
X115470400Y-40825400D01*
G37*
G36*
X106300400Y-40825400D02*
G01*
X105509600Y-40825400D01*
X105509600Y-40274600D01*
X106300400Y-40274600D01*
X106300400Y-40825400D01*
G37*
G36*
X115470400Y-40125400D02*
G01*
X114679600Y-40125400D01*
X114679600Y-39574600D01*
X115470400Y-39574600D01*
X115470400Y-40125400D01*
G37*
G36*
X106300400Y-40125400D02*
G01*
X105509600Y-40125400D01*
X105509600Y-39574600D01*
X106300400Y-39574600D01*
X106300400Y-40125400D01*
G37*
G36*
X106300400Y-39425400D02*
G01*
X105509600Y-39425400D01*
X105509600Y-38874600D01*
X106300400Y-38874600D01*
X106300400Y-39425400D01*
G37*
G36*
X115470400Y-39425400D02*
G01*
X114679600Y-39425400D01*
X114679600Y-38874600D01*
X115470400Y-38874600D01*
X115470400Y-39425400D01*
G37*
G36*
X106300400Y-38725400D02*
G01*
X105509600Y-38725400D01*
X105509600Y-38174600D01*
X106300400Y-38174600D01*
X106300400Y-38725400D01*
G37*
G36*
X115470400Y-38725400D02*
G01*
X114679600Y-38725400D01*
X114679600Y-38174600D01*
X115470400Y-38174600D01*
X115470400Y-38725400D01*
G37*
G36*
X115470400Y-38025400D02*
G01*
X114679600Y-38025400D01*
X114679600Y-37474600D01*
X115470400Y-37474600D01*
X115470400Y-38025400D01*
G37*
G36*
X106300400Y-38025400D02*
G01*
X105509600Y-38025400D01*
X105509600Y-37474600D01*
X106300400Y-37474600D01*
X106300400Y-38025400D01*
G37*
G36*
X115470400Y-37325400D02*
G01*
X114679600Y-37325400D01*
X114679600Y-36774600D01*
X115470400Y-36774600D01*
X115470400Y-37325400D01*
G37*
G36*
X106300400Y-37325400D02*
G01*
X105509600Y-37325400D01*
X105509600Y-36774600D01*
X106300400Y-36774600D01*
X106300400Y-37325400D01*
G37*
G36*
X115470400Y-36625400D02*
G01*
X114679600Y-36625400D01*
X114679600Y-36074600D01*
X115470400Y-36074600D01*
X115470400Y-36625400D01*
G37*
G36*
X106300400Y-36625400D02*
G01*
X105509600Y-36625400D01*
X105509600Y-36074600D01*
X106300400Y-36074600D01*
X106300400Y-36625400D01*
G37*
G36*
X115470400Y-35925400D02*
G01*
X114679600Y-35925400D01*
X114679600Y-35374600D01*
X115470400Y-35374600D01*
X115470400Y-35925400D01*
G37*
G36*
X106300400Y-35925400D02*
G01*
X105509600Y-35925400D01*
X105509600Y-35374600D01*
X106300400Y-35374600D01*
X106300400Y-35925400D01*
G37*
G36*
X115470400Y-35225400D02*
G01*
X114679600Y-35225400D01*
X114679600Y-34674600D01*
X115470400Y-34674600D01*
X115470400Y-35225400D01*
G37*
G36*
X106300400Y-35225400D02*
G01*
X105509600Y-35225400D01*
X105509600Y-34674600D01*
X106300400Y-34674600D01*
X106300400Y-35225400D01*
G37*
G36*
X115470400Y-34525400D02*
G01*
X114679600Y-34525400D01*
X114679600Y-33974600D01*
X115470400Y-33974600D01*
X115470400Y-34525400D01*
G37*
G36*
X106300400Y-34525400D02*
G01*
X105509600Y-34525400D01*
X105509600Y-33974600D01*
X106300400Y-33974600D01*
X106300400Y-34525400D01*
G37*
G36*
X111115400Y-34418400D02*
G01*
X110564600Y-34418400D01*
X110564600Y-33119600D01*
X111115400Y-33119600D01*
X111115400Y-34418400D01*
G37*
G36*
X109015400Y-33910400D02*
G01*
X108464600Y-33910400D01*
X108464600Y-33119600D01*
X109015400Y-33119600D01*
X109015400Y-33910400D01*
G37*
G36*
X108315400Y-33910400D02*
G01*
X107764600Y-33910400D01*
X107764600Y-33119600D01*
X108315400Y-33119600D01*
X108315400Y-33910400D01*
G37*
G36*
X107615400Y-33910400D02*
G01*
X107064600Y-33910400D01*
X107064600Y-33119600D01*
X107615400Y-33119600D01*
X107615400Y-33910400D01*
G37*
G36*
X114615400Y-33910400D02*
G01*
X114064600Y-33910400D01*
X114064600Y-33119600D01*
X114615400Y-33119600D01*
X114615400Y-33910400D01*
G37*
G36*
X113915400Y-33910400D02*
G01*
X113364600Y-33910400D01*
X113364600Y-33119600D01*
X113915400Y-33119600D01*
X113915400Y-33910400D01*
G37*
G36*
X113215400Y-33910400D02*
G01*
X112664600Y-33910400D01*
X112664600Y-33119600D01*
X113215400Y-33119600D01*
X113215400Y-33910400D01*
G37*
G36*
X112515400Y-33910400D02*
G01*
X111964600Y-33910400D01*
X111964600Y-33119600D01*
X112515400Y-33119600D01*
X112515400Y-33910400D01*
G37*
G36*
X111815400Y-33910400D02*
G01*
X111264600Y-33910400D01*
X111264600Y-33119600D01*
X111815400Y-33119600D01*
X111815400Y-33910400D01*
G37*
G36*
X110415400Y-33910400D02*
G01*
X109864600Y-33910400D01*
X109864600Y-33119600D01*
X110415400Y-33119600D01*
X110415400Y-33910400D01*
G37*
G36*
X106915400Y-33910400D02*
G01*
X106364600Y-33910400D01*
X106364600Y-33119600D01*
X106915400Y-33119600D01*
X106915400Y-33910400D01*
G37*
G36*
X109715400Y-33910400D02*
G01*
X109164600Y-33910400D01*
X109164600Y-33119600D01*
X109715400Y-33119600D01*
X109715400Y-33910400D01*
G37*
G36*
X110691012Y-26089437D02*
G01*
X110884301Y-26148071D01*
X110884304Y-26148072D01*
X111062440Y-26243287D01*
X111218576Y-26371424D01*
X111346713Y-26527560D01*
X111441928Y-26705695D01*
X111441928Y-26705696D01*
X111441929Y-26705698D01*
X111500563Y-26898987D01*
X111515400Y-27049630D01*
X111515400Y-29150370D01*
X111500563Y-29301013D01*
X111441929Y-29494302D01*
X111441928Y-29494305D01*
X111346713Y-29672440D01*
X111218576Y-29828576D01*
X111062440Y-29956713D01*
X110884305Y-30051928D01*
X110884302Y-30051929D01*
X110691013Y-30110563D01*
X110490000Y-30130361D01*
X110288988Y-30110563D01*
X110095699Y-30051929D01*
X110095696Y-30051928D01*
X109917561Y-29956713D01*
X109761425Y-29828576D01*
X109633288Y-29672440D01*
X109538073Y-29494305D01*
X109538072Y-29494302D01*
X109479438Y-29301013D01*
X109464601Y-29150370D01*
X109464600Y-27049631D01*
X109479437Y-26898988D01*
X109538071Y-26705699D01*
X109538072Y-26705696D01*
X109633287Y-26527560D01*
X109761424Y-26371424D01*
X109917560Y-26243287D01*
X110095695Y-26148072D01*
X110095698Y-26148071D01*
X110288987Y-26089437D01*
X110490000Y-26069639D01*
X110691012Y-26089437D01*
G37*
G36*
X103500519Y-26134452D02*
G01*
X103649101Y-26164006D01*
X103835710Y-26241302D01*
X104003650Y-26353516D01*
X104146484Y-26496350D01*
X104258698Y-26664290D01*
X104335994Y-26850899D01*
X104357645Y-26959747D01*
X104375400Y-27049007D01*
X104375400Y-27250993D01*
X104372364Y-27266255D01*
X104335994Y-27449101D01*
X104258698Y-27635710D01*
X104146484Y-27803650D01*
X104003650Y-27946484D01*
X103835710Y-28058698D01*
X103649101Y-28135994D01*
X103500519Y-28165549D01*
X103450993Y-28175400D01*
X103249007Y-28175400D01*
X103199481Y-28165549D01*
X103050899Y-28135994D01*
X102864290Y-28058698D01*
X102696350Y-27946484D01*
X102553516Y-27803650D01*
X102441302Y-27635710D01*
X102364006Y-27449101D01*
X102327636Y-27266255D01*
X102324600Y-27250993D01*
X102324600Y-27049007D01*
X102342355Y-26959747D01*
X102364006Y-26850899D01*
X102441302Y-26664290D01*
X102553516Y-26496350D01*
X102696350Y-26353516D01*
X102864290Y-26241302D01*
X103050899Y-26164006D01*
X103199481Y-26134452D01*
X103249007Y-26124600D01*
X103450993Y-26124600D01*
X103500519Y-26134452D01*
G37*
G36*
X125400519Y-26134452D02*
G01*
X125549101Y-26164006D01*
X125735710Y-26241302D01*
X125903650Y-26353516D01*
X126046484Y-26496350D01*
X126158698Y-26664290D01*
X126235994Y-26850899D01*
X126257645Y-26959747D01*
X126275400Y-27049007D01*
X126275400Y-27250993D01*
X126272364Y-27266255D01*
X126235994Y-27449101D01*
X126158698Y-27635710D01*
X126046484Y-27803650D01*
X125903650Y-27946484D01*
X125735710Y-28058698D01*
X125549101Y-28135994D01*
X125400519Y-28165549D01*
X125350993Y-28175400D01*
X125149007Y-28175400D01*
X125099481Y-28165549D01*
X124950899Y-28135994D01*
X124764290Y-28058698D01*
X124596350Y-27946484D01*
X124453516Y-27803650D01*
X124341302Y-27635710D01*
X124264006Y-27449101D01*
X124227636Y-27266255D01*
X124224600Y-27250993D01*
X124224600Y-27049007D01*
X124242355Y-26959747D01*
X124264006Y-26850899D01*
X124341302Y-26664290D01*
X124453516Y-26496350D01*
X124596350Y-26353516D01*
X124764290Y-26241302D01*
X124950899Y-26164006D01*
X125099481Y-26134452D01*
X125149007Y-26124600D01*
X125350993Y-26124600D01*
X125400519Y-26134452D01*
G37*
G36*
X117115582Y-26594330D02*
G01*
X117183255Y-26607791D01*
X117278870Y-26647397D01*
X117364923Y-26704895D01*
X117438105Y-26778077D01*
X117438108Y-26778082D01*
X117495603Y-26864130D01*
X117535209Y-26959745D01*
X117555400Y-27061254D01*
X117555400Y-27164746D01*
X117535209Y-27266255D01*
X117495603Y-27361870D01*
X117438105Y-27447923D01*
X117364923Y-27521105D01*
X117278870Y-27578603D01*
X117183255Y-27618209D01*
X117115582Y-27631670D01*
X117081747Y-27638400D01*
X116978253Y-27638400D01*
X116944418Y-27631670D01*
X116876745Y-27618209D01*
X116781130Y-27578603D01*
X116695077Y-27521105D01*
X116621895Y-27447923D01*
X116564397Y-27361870D01*
X116524791Y-27266255D01*
X116504600Y-27164746D01*
X116504600Y-27061254D01*
X116524791Y-26959745D01*
X116564397Y-26864130D01*
X116621892Y-26778082D01*
X116621895Y-26778077D01*
X116695077Y-26704895D01*
X116781130Y-26647397D01*
X116876745Y-26607791D01*
X116944418Y-26594330D01*
X116978253Y-26587600D01*
X117081747Y-26587600D01*
X117115582Y-26594330D01*
G37*
G36*
X115845582Y-26594330D02*
G01*
X115913255Y-26607791D01*
X116008870Y-26647397D01*
X116094923Y-26704895D01*
X116168105Y-26778077D01*
X116168108Y-26778082D01*
X116225603Y-26864130D01*
X116265209Y-26959745D01*
X116285400Y-27061254D01*
X116285400Y-27164746D01*
X116265209Y-27266255D01*
X116225603Y-27361870D01*
X116168105Y-27447923D01*
X116094923Y-27521105D01*
X116008870Y-27578603D01*
X115913255Y-27618209D01*
X115845582Y-27631670D01*
X115811747Y-27638400D01*
X115708253Y-27638400D01*
X115674418Y-27631670D01*
X115606745Y-27618209D01*
X115511130Y-27578603D01*
X115425077Y-27521105D01*
X115351895Y-27447923D01*
X115294397Y-27361870D01*
X115254791Y-27266255D01*
X115234600Y-27164746D01*
X115234600Y-27061254D01*
X115254791Y-26959745D01*
X115294397Y-26864130D01*
X115351892Y-26778082D01*
X115351895Y-26778077D01*
X115425077Y-26704895D01*
X115511130Y-26647397D01*
X115606745Y-26607791D01*
X115674418Y-26594330D01*
X115708253Y-26587600D01*
X115811747Y-26587600D01*
X115845582Y-26594330D01*
G37*
G36*
X115015400Y-27638400D02*
G01*
X113964600Y-27638400D01*
X113964600Y-26587600D01*
X115015400Y-26587600D01*
X115015400Y-27638400D01*
G37*
M02*
