G04 #@! TF.GenerationSoftware,KiCad,Pcbnew,(5.1.6)-1*
G04 #@! TF.CreationDate,2020-09-01T21:36:02-07:00*
G04 #@! TF.ProjectId,MiniCAM,4d696e69-4341-44d2-9e6b-696361645f70,rev?*
G04 #@! TF.SameCoordinates,Original*
G04 #@! TF.FileFunction,Paste,Top*
G04 #@! TF.FilePolarity,Positive*
%FSLAX46Y46*%
G04 Gerber Fmt 4.6, Leading zero omitted, Abs format (unit mm)*
G04 Created by KiCad (PCBNEW (5.1.6)-1) date 2020-09-01 21:36:02*
%MOMM*%
%LPD*%
G01*
G04 APERTURE LIST*
%ADD10R,0.560000X0.490000*%
%ADD11R,0.710000X0.770000*%
%ADD12R,0.880000X0.830000*%
%ADD13R,1.350000X1.350000*%
%ADD14R,0.680000X0.260000*%
%ADD15R,0.260000X0.680000*%
%ADD16R,0.600000X0.950000*%
%ADD17R,0.660000X0.260000*%
%ADD18R,0.490000X0.560000*%
%ADD19R,0.870000X2.620000*%
%ADD20C,0.100000*%
%ADD21C,1.730000*%
G04 APERTURE END LIST*
D10*
X114198400Y-34229000D03*
X114198400Y-35139000D03*
X117398800Y-47178600D03*
X117398800Y-46268600D03*
X119405400Y-32954600D03*
X119405400Y-32044600D03*
G36*
G01*
X106738600Y-46929400D02*
X107078600Y-46929400D01*
G75*
G02*
X107223600Y-47074400I0J-145000D01*
G01*
X107223600Y-47364400D01*
G75*
G02*
X107078600Y-47509400I-145000J0D01*
G01*
X106738600Y-47509400D01*
G75*
G02*
X106593600Y-47364400I0J145000D01*
G01*
X106593600Y-47074400D01*
G75*
G02*
X106738600Y-46929400I145000J0D01*
G01*
G37*
G36*
G01*
X106738600Y-46039400D02*
X107078600Y-46039400D01*
G75*
G02*
X107223600Y-46184400I0J-145000D01*
G01*
X107223600Y-46474400D01*
G75*
G02*
X107078600Y-46619400I-145000J0D01*
G01*
X106738600Y-46619400D01*
G75*
G02*
X106593600Y-46474400I0J145000D01*
G01*
X106593600Y-46184400D01*
G75*
G02*
X106738600Y-46039400I145000J0D01*
G01*
G37*
G36*
G01*
X114912200Y-31247200D02*
X114912200Y-30907200D01*
G75*
G02*
X115057200Y-30762200I145000J0D01*
G01*
X115347200Y-30762200D01*
G75*
G02*
X115492200Y-30907200I0J-145000D01*
G01*
X115492200Y-31247200D01*
G75*
G02*
X115347200Y-31392200I-145000J0D01*
G01*
X115057200Y-31392200D01*
G75*
G02*
X114912200Y-31247200I0J145000D01*
G01*
G37*
G36*
G01*
X114022200Y-31247200D02*
X114022200Y-30907200D01*
G75*
G02*
X114167200Y-30762200I145000J0D01*
G01*
X114457200Y-30762200D01*
G75*
G02*
X114602200Y-30907200I0J-145000D01*
G01*
X114602200Y-31247200D01*
G75*
G02*
X114457200Y-31392200I-145000J0D01*
G01*
X114167200Y-31392200D01*
G75*
G02*
X114022200Y-31247200I0J145000D01*
G01*
G37*
G36*
G01*
X107768300Y-47406000D02*
X108233300Y-47406000D01*
G75*
G02*
X108435800Y-47608500I0J-202500D01*
G01*
X108435800Y-48013500D01*
G75*
G02*
X108233300Y-48216000I-202500J0D01*
G01*
X107768300Y-48216000D01*
G75*
G02*
X107565800Y-48013500I0J202500D01*
G01*
X107565800Y-47608500D01*
G75*
G02*
X107768300Y-47406000I202500J0D01*
G01*
G37*
G36*
G01*
X107768300Y-46046000D02*
X108233300Y-46046000D01*
G75*
G02*
X108435800Y-46248500I0J-202500D01*
G01*
X108435800Y-46653500D01*
G75*
G02*
X108233300Y-46856000I-202500J0D01*
G01*
X107768300Y-46856000D01*
G75*
G02*
X107565800Y-46653500I0J202500D01*
G01*
X107565800Y-46248500D01*
G75*
G02*
X107768300Y-46046000I202500J0D01*
G01*
G37*
G36*
G01*
X113338700Y-29252800D02*
X112873700Y-29252800D01*
G75*
G02*
X112671200Y-29050300I0J202500D01*
G01*
X112671200Y-28645300D01*
G75*
G02*
X112873700Y-28442800I202500J0D01*
G01*
X113338700Y-28442800D01*
G75*
G02*
X113541200Y-28645300I0J-202500D01*
G01*
X113541200Y-29050300D01*
G75*
G02*
X113338700Y-29252800I-202500J0D01*
G01*
G37*
G36*
G01*
X113338700Y-30612800D02*
X112873700Y-30612800D01*
G75*
G02*
X112671200Y-30410300I0J202500D01*
G01*
X112671200Y-30005300D01*
G75*
G02*
X112873700Y-29802800I202500J0D01*
G01*
X113338700Y-29802800D01*
G75*
G02*
X113541200Y-30005300I0J-202500D01*
G01*
X113541200Y-30410300D01*
G75*
G02*
X113338700Y-30612800I-202500J0D01*
G01*
G37*
G36*
G01*
X125225900Y-30395800D02*
X124760900Y-30395800D01*
G75*
G02*
X124558400Y-30193300I0J202500D01*
G01*
X124558400Y-29788300D01*
G75*
G02*
X124760900Y-29585800I202500J0D01*
G01*
X125225900Y-29585800D01*
G75*
G02*
X125428400Y-29788300I0J-202500D01*
G01*
X125428400Y-30193300D01*
G75*
G02*
X125225900Y-30395800I-202500J0D01*
G01*
G37*
G36*
G01*
X125225900Y-31755800D02*
X124760900Y-31755800D01*
G75*
G02*
X124558400Y-31553300I0J202500D01*
G01*
X124558400Y-31148300D01*
G75*
G02*
X124760900Y-30945800I202500J0D01*
G01*
X125225900Y-30945800D01*
G75*
G02*
X125428400Y-31148300I0J-202500D01*
G01*
X125428400Y-31553300D01*
G75*
G02*
X125225900Y-31755800I-202500J0D01*
G01*
G37*
D11*
X102768400Y-38830000D03*
X102768400Y-37370000D03*
D12*
X103855400Y-44161800D03*
X105745400Y-44161800D03*
X105745400Y-45601800D03*
X103855400Y-45601800D03*
D13*
X109715000Y-37338000D03*
X109715000Y-38888000D03*
X111265000Y-37338000D03*
X111265000Y-38888000D03*
D14*
X108155000Y-39863000D03*
X108155000Y-39363000D03*
X108155000Y-38863000D03*
X108155000Y-38363000D03*
X108155000Y-37863000D03*
X108155000Y-37363000D03*
X108155000Y-36863000D03*
X108155000Y-36363000D03*
D15*
X108740000Y-35778000D03*
X109240000Y-35778000D03*
X109740000Y-35778000D03*
X110240000Y-35778000D03*
X110740000Y-35778000D03*
X111240000Y-35778000D03*
X111740000Y-35778000D03*
X112240000Y-35778000D03*
D14*
X112825000Y-36363000D03*
X112825000Y-36863000D03*
X112825000Y-37363000D03*
X112825000Y-37863000D03*
X112825000Y-38363000D03*
X112825000Y-38863000D03*
X112825000Y-39363000D03*
X112825000Y-39863000D03*
D15*
X112240000Y-40448000D03*
X111740000Y-40448000D03*
X111240000Y-40448000D03*
X110740000Y-40448000D03*
X110240000Y-40448000D03*
X109740000Y-40448000D03*
X109240000Y-40448000D03*
X108740000Y-40448000D03*
D16*
X120923000Y-28000000D03*
X120123000Y-28000000D03*
X120923000Y-29150000D03*
X120123000Y-29150000D03*
D17*
X121953000Y-27575000D03*
X121953000Y-28075000D03*
X121953000Y-28575000D03*
X121953000Y-29075000D03*
X121953000Y-29575000D03*
X119093000Y-29575000D03*
X119093000Y-29075000D03*
X119093000Y-28575000D03*
X119093000Y-28075000D03*
X119093000Y-27575000D03*
D10*
X102819200Y-45768600D03*
X102819200Y-44858600D03*
D18*
X114196200Y-47091600D03*
X113286200Y-47091600D03*
X113286200Y-46253400D03*
X114196200Y-46253400D03*
X116431400Y-46228000D03*
X115521400Y-46228000D03*
D10*
X105562400Y-39621800D03*
X105562400Y-38711800D03*
X104724200Y-39621800D03*
X104724200Y-38711800D03*
D18*
X118315400Y-43230800D03*
X119225400Y-43230800D03*
X116787000Y-38684200D03*
X115877000Y-38684200D03*
D10*
X102768400Y-36319800D03*
X102768400Y-35409800D03*
D18*
X122760400Y-30480000D03*
X123670400Y-30480000D03*
G36*
G01*
X115967500Y-34560800D02*
X116442500Y-34560800D01*
G75*
G02*
X116665000Y-34783300I0J-222500D01*
G01*
X116665000Y-35228300D01*
G75*
G02*
X116442500Y-35450800I-222500J0D01*
G01*
X115967500Y-35450800D01*
G75*
G02*
X115745000Y-35228300I0J222500D01*
G01*
X115745000Y-34783300D01*
G75*
G02*
X115967500Y-34560800I222500J0D01*
G01*
G37*
G36*
G01*
X115967500Y-33230800D02*
X116442500Y-33230800D01*
G75*
G02*
X116665000Y-33453300I0J-222500D01*
G01*
X116665000Y-33898300D01*
G75*
G02*
X116442500Y-34120800I-222500J0D01*
G01*
X115967500Y-34120800D01*
G75*
G02*
X115745000Y-33898300I0J222500D01*
G01*
X115745000Y-33453300D01*
G75*
G02*
X115967500Y-33230800I222500J0D01*
G01*
G37*
G36*
G01*
X114740400Y-44187100D02*
X114740400Y-44662100D01*
G75*
G02*
X114517900Y-44884600I-222500J0D01*
G01*
X114072900Y-44884600D01*
G75*
G02*
X113850400Y-44662100I0J222500D01*
G01*
X113850400Y-44187100D01*
G75*
G02*
X114072900Y-43964600I222500J0D01*
G01*
X114517900Y-43964600D01*
G75*
G02*
X114740400Y-44187100I0J-222500D01*
G01*
G37*
G36*
G01*
X116070400Y-44187100D02*
X116070400Y-44662100D01*
G75*
G02*
X115847900Y-44884600I-222500J0D01*
G01*
X115402900Y-44884600D01*
G75*
G02*
X115180400Y-44662100I0J222500D01*
G01*
X115180400Y-44187100D01*
G75*
G02*
X115402900Y-43964600I222500J0D01*
G01*
X115847900Y-43964600D01*
G75*
G02*
X116070400Y-44187100I0J-222500D01*
G01*
G37*
G36*
G01*
X117331500Y-42071000D02*
X116856500Y-42071000D01*
G75*
G02*
X116634000Y-41848500I0J222500D01*
G01*
X116634000Y-41403500D01*
G75*
G02*
X116856500Y-41181000I222500J0D01*
G01*
X117331500Y-41181000D01*
G75*
G02*
X117554000Y-41403500I0J-222500D01*
G01*
X117554000Y-41848500D01*
G75*
G02*
X117331500Y-42071000I-222500J0D01*
G01*
G37*
G36*
G01*
X117331500Y-43401000D02*
X116856500Y-43401000D01*
G75*
G02*
X116634000Y-43178500I0J222500D01*
G01*
X116634000Y-42733500D01*
G75*
G02*
X116856500Y-42511000I222500J0D01*
G01*
X117331500Y-42511000D01*
G75*
G02*
X117554000Y-42733500I0J-222500D01*
G01*
X117554000Y-43178500D01*
G75*
G02*
X117331500Y-43401000I-222500J0D01*
G01*
G37*
D19*
X123876800Y-32410400D03*
X120826800Y-32410400D03*
G36*
G01*
X118398300Y-36889400D02*
X117923300Y-36889400D01*
G75*
G02*
X117700800Y-36666900I0J222500D01*
G01*
X117700800Y-36221900D01*
G75*
G02*
X117923300Y-35999400I222500J0D01*
G01*
X118398300Y-35999400D01*
G75*
G02*
X118620800Y-36221900I0J-222500D01*
G01*
X118620800Y-36666900D01*
G75*
G02*
X118398300Y-36889400I-222500J0D01*
G01*
G37*
G36*
G01*
X118398300Y-38219400D02*
X117923300Y-38219400D01*
G75*
G02*
X117700800Y-37996900I0J222500D01*
G01*
X117700800Y-37551900D01*
G75*
G02*
X117923300Y-37329400I222500J0D01*
G01*
X118398300Y-37329400D01*
G75*
G02*
X118620800Y-37551900I0J-222500D01*
G01*
X118620800Y-37996900D01*
G75*
G02*
X118398300Y-38219400I-222500J0D01*
G01*
G37*
D20*
G36*
X121207400Y-39480000D02*
G01*
X121347400Y-39620000D01*
X121502400Y-39745000D01*
X121672400Y-39855000D01*
X121847400Y-39950000D01*
X122032400Y-40025000D01*
X122227400Y-40080000D01*
X122427400Y-40120000D01*
X122622400Y-40135000D01*
X122792400Y-40135000D01*
X122987400Y-40120000D01*
X123187400Y-40080000D01*
X123382400Y-40025000D01*
X123567400Y-39950000D01*
X123742400Y-39855000D01*
X123912400Y-39745000D01*
X124067400Y-39620000D01*
X124207400Y-39480000D01*
X124352400Y-39305000D01*
X126262400Y-39305000D01*
X126262400Y-41655000D01*
X119152400Y-41655000D01*
X119152400Y-39305000D01*
X121062400Y-39305000D01*
X121207400Y-39480000D01*
G37*
G36*
X124207400Y-36720000D02*
G01*
X124067400Y-36580000D01*
X123912400Y-36455000D01*
X123742400Y-36345000D01*
X123567400Y-36250000D01*
X123382400Y-36175000D01*
X123187400Y-36120000D01*
X122987400Y-36080000D01*
X122792400Y-36065000D01*
X122622400Y-36065000D01*
X122427400Y-36080000D01*
X122227400Y-36120000D01*
X122032400Y-36175000D01*
X121847400Y-36250000D01*
X121672400Y-36345000D01*
X121502400Y-36455000D01*
X121347400Y-36580000D01*
X121207400Y-36720000D01*
X121062400Y-36895000D01*
X119152400Y-36895000D01*
X119152400Y-36055000D01*
X119152399Y-36055000D01*
X119152399Y-34545000D01*
X126262400Y-34545000D01*
X126262400Y-36895000D01*
X124352400Y-36895000D01*
X124207400Y-36720000D01*
G37*
D21*
X122707400Y-38100000D03*
G36*
G01*
X115846800Y-46947000D02*
X115846800Y-47287000D01*
G75*
G02*
X115701800Y-47432000I-145000J0D01*
G01*
X115411800Y-47432000D01*
G75*
G02*
X115266800Y-47287000I0J145000D01*
G01*
X115266800Y-46947000D01*
G75*
G02*
X115411800Y-46802000I145000J0D01*
G01*
X115701800Y-46802000D01*
G75*
G02*
X115846800Y-46947000I0J-145000D01*
G01*
G37*
G36*
G01*
X116736800Y-46947000D02*
X116736800Y-47287000D01*
G75*
G02*
X116591800Y-47432000I-145000J0D01*
G01*
X116301800Y-47432000D01*
G75*
G02*
X116156800Y-47287000I0J145000D01*
G01*
X116156800Y-46947000D01*
G75*
G02*
X116301800Y-46802000I145000J0D01*
G01*
X116591800Y-46802000D01*
G75*
G02*
X116736800Y-46947000I0J-145000D01*
G01*
G37*
G36*
G01*
X104371200Y-43273800D02*
X104371200Y-42933800D01*
G75*
G02*
X104516200Y-42788800I145000J0D01*
G01*
X104806200Y-42788800D01*
G75*
G02*
X104951200Y-42933800I0J-145000D01*
G01*
X104951200Y-43273800D01*
G75*
G02*
X104806200Y-43418800I-145000J0D01*
G01*
X104516200Y-43418800D01*
G75*
G02*
X104371200Y-43273800I0J145000D01*
G01*
G37*
G36*
G01*
X103481200Y-43273800D02*
X103481200Y-42933800D01*
G75*
G02*
X103626200Y-42788800I145000J0D01*
G01*
X103916200Y-42788800D01*
G75*
G02*
X104061200Y-42933800I0J-145000D01*
G01*
X104061200Y-43273800D01*
G75*
G02*
X103916200Y-43418800I-145000J0D01*
G01*
X103626200Y-43418800D01*
G75*
G02*
X103481200Y-43273800I0J145000D01*
G01*
G37*
G36*
G01*
X118925400Y-44289800D02*
X118925400Y-43949800D01*
G75*
G02*
X119070400Y-43804800I145000J0D01*
G01*
X119360400Y-43804800D01*
G75*
G02*
X119505400Y-43949800I0J-145000D01*
G01*
X119505400Y-44289800D01*
G75*
G02*
X119360400Y-44434800I-145000J0D01*
G01*
X119070400Y-44434800D01*
G75*
G02*
X118925400Y-44289800I0J145000D01*
G01*
G37*
G36*
G01*
X118035400Y-44289800D02*
X118035400Y-43949800D01*
G75*
G02*
X118180400Y-43804800I145000J0D01*
G01*
X118470400Y-43804800D01*
G75*
G02*
X118615400Y-43949800I0J-145000D01*
G01*
X118615400Y-44289800D01*
G75*
G02*
X118470400Y-44434800I-145000J0D01*
G01*
X118180400Y-44434800D01*
G75*
G02*
X118035400Y-44289800I0J145000D01*
G01*
G37*
G36*
G01*
X105732400Y-37284600D02*
X105392400Y-37284600D01*
G75*
G02*
X105247400Y-37139600I0J145000D01*
G01*
X105247400Y-36849600D01*
G75*
G02*
X105392400Y-36704600I145000J0D01*
G01*
X105732400Y-36704600D01*
G75*
G02*
X105877400Y-36849600I0J-145000D01*
G01*
X105877400Y-37139600D01*
G75*
G02*
X105732400Y-37284600I-145000J0D01*
G01*
G37*
G36*
G01*
X105732400Y-38174600D02*
X105392400Y-38174600D01*
G75*
G02*
X105247400Y-38029600I0J145000D01*
G01*
X105247400Y-37739600D01*
G75*
G02*
X105392400Y-37594600I145000J0D01*
G01*
X105732400Y-37594600D01*
G75*
G02*
X105877400Y-37739600I0J-145000D01*
G01*
X105877400Y-38029600D01*
G75*
G02*
X105732400Y-38174600I-145000J0D01*
G01*
G37*
G36*
G01*
X104792600Y-37284600D02*
X104452600Y-37284600D01*
G75*
G02*
X104307600Y-37139600I0J145000D01*
G01*
X104307600Y-36849600D01*
G75*
G02*
X104452600Y-36704600I145000J0D01*
G01*
X104792600Y-36704600D01*
G75*
G02*
X104937600Y-36849600I0J-145000D01*
G01*
X104937600Y-37139600D01*
G75*
G02*
X104792600Y-37284600I-145000J0D01*
G01*
G37*
G36*
G01*
X104792600Y-38174600D02*
X104452600Y-38174600D01*
G75*
G02*
X104307600Y-38029600I0J145000D01*
G01*
X104307600Y-37739600D01*
G75*
G02*
X104452600Y-37594600I145000J0D01*
G01*
X104792600Y-37594600D01*
G75*
G02*
X104937600Y-37739600I0J-145000D01*
G01*
X104937600Y-38029600D01*
G75*
G02*
X104792600Y-38174600I-145000J0D01*
G01*
G37*
G36*
G01*
X108107300Y-33106300D02*
X107767300Y-33106300D01*
G75*
G02*
X107622300Y-32961300I0J145000D01*
G01*
X107622300Y-32671300D01*
G75*
G02*
X107767300Y-32526300I145000J0D01*
G01*
X108107300Y-32526300D01*
G75*
G02*
X108252300Y-32671300I0J-145000D01*
G01*
X108252300Y-32961300D01*
G75*
G02*
X108107300Y-33106300I-145000J0D01*
G01*
G37*
G36*
G01*
X108107300Y-33996300D02*
X107767300Y-33996300D01*
G75*
G02*
X107622300Y-33851300I0J145000D01*
G01*
X107622300Y-33561300D01*
G75*
G02*
X107767300Y-33416300I145000J0D01*
G01*
X108107300Y-33416300D01*
G75*
G02*
X108252300Y-33561300I0J-145000D01*
G01*
X108252300Y-33851300D01*
G75*
G02*
X108107300Y-33996300I-145000J0D01*
G01*
G37*
G36*
G01*
X107167500Y-33106300D02*
X106827500Y-33106300D01*
G75*
G02*
X106682500Y-32961300I0J145000D01*
G01*
X106682500Y-32671300D01*
G75*
G02*
X106827500Y-32526300I145000J0D01*
G01*
X107167500Y-32526300D01*
G75*
G02*
X107312500Y-32671300I0J-145000D01*
G01*
X107312500Y-32961300D01*
G75*
G02*
X107167500Y-33106300I-145000J0D01*
G01*
G37*
G36*
G01*
X107167500Y-33996300D02*
X106827500Y-33996300D01*
G75*
G02*
X106682500Y-33851300I0J145000D01*
G01*
X106682500Y-33561300D01*
G75*
G02*
X106827500Y-33416300I145000J0D01*
G01*
X107167500Y-33416300D01*
G75*
G02*
X107312500Y-33561300I0J-145000D01*
G01*
X107312500Y-33851300D01*
G75*
G02*
X107167500Y-33996300I-145000J0D01*
G01*
G37*
G36*
G01*
X115257400Y-34541400D02*
X114917400Y-34541400D01*
G75*
G02*
X114772400Y-34396400I0J145000D01*
G01*
X114772400Y-34106400D01*
G75*
G02*
X114917400Y-33961400I145000J0D01*
G01*
X115257400Y-33961400D01*
G75*
G02*
X115402400Y-34106400I0J-145000D01*
G01*
X115402400Y-34396400D01*
G75*
G02*
X115257400Y-34541400I-145000J0D01*
G01*
G37*
G36*
G01*
X115257400Y-35431400D02*
X114917400Y-35431400D01*
G75*
G02*
X114772400Y-35286400I0J145000D01*
G01*
X114772400Y-34996400D01*
G75*
G02*
X114917400Y-34851400I145000J0D01*
G01*
X115257400Y-34851400D01*
G75*
G02*
X115402400Y-34996400I0J-145000D01*
G01*
X115402400Y-35286400D01*
G75*
G02*
X115257400Y-35431400I-145000J0D01*
G01*
G37*
G36*
G01*
X115282800Y-36294000D02*
X114942800Y-36294000D01*
G75*
G02*
X114797800Y-36149000I0J145000D01*
G01*
X114797800Y-35859000D01*
G75*
G02*
X114942800Y-35714000I145000J0D01*
G01*
X115282800Y-35714000D01*
G75*
G02*
X115427800Y-35859000I0J-145000D01*
G01*
X115427800Y-36149000D01*
G75*
G02*
X115282800Y-36294000I-145000J0D01*
G01*
G37*
G36*
G01*
X115282800Y-37184000D02*
X114942800Y-37184000D01*
G75*
G02*
X114797800Y-37039000I0J145000D01*
G01*
X114797800Y-36749000D01*
G75*
G02*
X114942800Y-36604000I145000J0D01*
G01*
X115282800Y-36604000D01*
G75*
G02*
X115427800Y-36749000I0J-145000D01*
G01*
X115427800Y-37039000D01*
G75*
G02*
X115282800Y-37184000I-145000J0D01*
G01*
G37*
G36*
G01*
X114343000Y-36294000D02*
X114003000Y-36294000D01*
G75*
G02*
X113858000Y-36149000I0J145000D01*
G01*
X113858000Y-35859000D01*
G75*
G02*
X114003000Y-35714000I145000J0D01*
G01*
X114343000Y-35714000D01*
G75*
G02*
X114488000Y-35859000I0J-145000D01*
G01*
X114488000Y-36149000D01*
G75*
G02*
X114343000Y-36294000I-145000J0D01*
G01*
G37*
G36*
G01*
X114343000Y-37184000D02*
X114003000Y-37184000D01*
G75*
G02*
X113858000Y-37039000I0J145000D01*
G01*
X113858000Y-36749000D01*
G75*
G02*
X114003000Y-36604000I145000J0D01*
G01*
X114343000Y-36604000D01*
G75*
G02*
X114488000Y-36749000I0J-145000D01*
G01*
X114488000Y-37039000D01*
G75*
G02*
X114343000Y-37184000I-145000J0D01*
G01*
G37*
G36*
G01*
X114734400Y-38879600D02*
X114734400Y-38539600D01*
G75*
G02*
X114879400Y-38394600I145000J0D01*
G01*
X115169400Y-38394600D01*
G75*
G02*
X115314400Y-38539600I0J-145000D01*
G01*
X115314400Y-38879600D01*
G75*
G02*
X115169400Y-39024600I-145000J0D01*
G01*
X114879400Y-39024600D01*
G75*
G02*
X114734400Y-38879600I0J145000D01*
G01*
G37*
G36*
G01*
X113844400Y-38879600D02*
X113844400Y-38539600D01*
G75*
G02*
X113989400Y-38394600I145000J0D01*
G01*
X114279400Y-38394600D01*
G75*
G02*
X114424400Y-38539600I0J-145000D01*
G01*
X114424400Y-38879600D01*
G75*
G02*
X114279400Y-39024600I-145000J0D01*
G01*
X113989400Y-39024600D01*
G75*
G02*
X113844400Y-38879600I0J145000D01*
G01*
G37*
G36*
G01*
X114722200Y-37965200D02*
X114722200Y-37625200D01*
G75*
G02*
X114867200Y-37480200I145000J0D01*
G01*
X115157200Y-37480200D01*
G75*
G02*
X115302200Y-37625200I0J-145000D01*
G01*
X115302200Y-37965200D01*
G75*
G02*
X115157200Y-38110200I-145000J0D01*
G01*
X114867200Y-38110200D01*
G75*
G02*
X114722200Y-37965200I0J145000D01*
G01*
G37*
G36*
G01*
X113832200Y-37965200D02*
X113832200Y-37625200D01*
G75*
G02*
X113977200Y-37480200I145000J0D01*
G01*
X114267200Y-37480200D01*
G75*
G02*
X114412200Y-37625200I0J-145000D01*
G01*
X114412200Y-37965200D01*
G75*
G02*
X114267200Y-38110200I-145000J0D01*
G01*
X113977200Y-38110200D01*
G75*
G02*
X113832200Y-37965200I0J145000D01*
G01*
G37*
G36*
G01*
X114759800Y-43477000D02*
X114759800Y-43137000D01*
G75*
G02*
X114904800Y-42992000I145000J0D01*
G01*
X115194800Y-42992000D01*
G75*
G02*
X115339800Y-43137000I0J-145000D01*
G01*
X115339800Y-43477000D01*
G75*
G02*
X115194800Y-43622000I-145000J0D01*
G01*
X114904800Y-43622000D01*
G75*
G02*
X114759800Y-43477000I0J145000D01*
G01*
G37*
G36*
G01*
X113869800Y-43477000D02*
X113869800Y-43137000D01*
G75*
G02*
X114014800Y-42992000I145000J0D01*
G01*
X114304800Y-42992000D01*
G75*
G02*
X114449800Y-43137000I0J-145000D01*
G01*
X114449800Y-43477000D01*
G75*
G02*
X114304800Y-43622000I-145000J0D01*
G01*
X114014800Y-43622000D01*
G75*
G02*
X113869800Y-43477000I0J145000D01*
G01*
G37*
G36*
G01*
X114759800Y-42537200D02*
X114759800Y-42197200D01*
G75*
G02*
X114904800Y-42052200I145000J0D01*
G01*
X115194800Y-42052200D01*
G75*
G02*
X115339800Y-42197200I0J-145000D01*
G01*
X115339800Y-42537200D01*
G75*
G02*
X115194800Y-42682200I-145000J0D01*
G01*
X114904800Y-42682200D01*
G75*
G02*
X114759800Y-42537200I0J145000D01*
G01*
G37*
G36*
G01*
X113869800Y-42537200D02*
X113869800Y-42197200D01*
G75*
G02*
X114014800Y-42052200I145000J0D01*
G01*
X114304800Y-42052200D01*
G75*
G02*
X114449800Y-42197200I0J-145000D01*
G01*
X114449800Y-42537200D01*
G75*
G02*
X114304800Y-42682200I-145000J0D01*
G01*
X114014800Y-42682200D01*
G75*
G02*
X113869800Y-42537200I0J145000D01*
G01*
G37*
G36*
G01*
X114759800Y-41597400D02*
X114759800Y-41257400D01*
G75*
G02*
X114904800Y-41112400I145000J0D01*
G01*
X115194800Y-41112400D01*
G75*
G02*
X115339800Y-41257400I0J-145000D01*
G01*
X115339800Y-41597400D01*
G75*
G02*
X115194800Y-41742400I-145000J0D01*
G01*
X114904800Y-41742400D01*
G75*
G02*
X114759800Y-41597400I0J145000D01*
G01*
G37*
G36*
G01*
X113869800Y-41597400D02*
X113869800Y-41257400D01*
G75*
G02*
X114014800Y-41112400I145000J0D01*
G01*
X114304800Y-41112400D01*
G75*
G02*
X114449800Y-41257400I0J-145000D01*
G01*
X114449800Y-41597400D01*
G75*
G02*
X114304800Y-41742400I-145000J0D01*
G01*
X114014800Y-41742400D01*
G75*
G02*
X113869800Y-41597400I0J145000D01*
G01*
G37*
G36*
G01*
X115831800Y-42065000D02*
X116171800Y-42065000D01*
G75*
G02*
X116316800Y-42210000I0J-145000D01*
G01*
X116316800Y-42500000D01*
G75*
G02*
X116171800Y-42645000I-145000J0D01*
G01*
X115831800Y-42645000D01*
G75*
G02*
X115686800Y-42500000I0J145000D01*
G01*
X115686800Y-42210000D01*
G75*
G02*
X115831800Y-42065000I145000J0D01*
G01*
G37*
G36*
G01*
X115831800Y-41175000D02*
X116171800Y-41175000D01*
G75*
G02*
X116316800Y-41320000I0J-145000D01*
G01*
X116316800Y-41610000D01*
G75*
G02*
X116171800Y-41755000I-145000J0D01*
G01*
X115831800Y-41755000D01*
G75*
G02*
X115686800Y-41610000I0J145000D01*
G01*
X115686800Y-41320000D01*
G75*
G02*
X115831800Y-41175000I145000J0D01*
G01*
G37*
G36*
G01*
X114942800Y-40236200D02*
X115282800Y-40236200D01*
G75*
G02*
X115427800Y-40381200I0J-145000D01*
G01*
X115427800Y-40671200D01*
G75*
G02*
X115282800Y-40816200I-145000J0D01*
G01*
X114942800Y-40816200D01*
G75*
G02*
X114797800Y-40671200I0J145000D01*
G01*
X114797800Y-40381200D01*
G75*
G02*
X114942800Y-40236200I145000J0D01*
G01*
G37*
G36*
G01*
X114942800Y-39346200D02*
X115282800Y-39346200D01*
G75*
G02*
X115427800Y-39491200I0J-145000D01*
G01*
X115427800Y-39781200D01*
G75*
G02*
X115282800Y-39926200I-145000J0D01*
G01*
X114942800Y-39926200D01*
G75*
G02*
X114797800Y-39781200I0J145000D01*
G01*
X114797800Y-39491200D01*
G75*
G02*
X114942800Y-39346200I145000J0D01*
G01*
G37*
G36*
G01*
X114003000Y-40224000D02*
X114343000Y-40224000D01*
G75*
G02*
X114488000Y-40369000I0J-145000D01*
G01*
X114488000Y-40659000D01*
G75*
G02*
X114343000Y-40804000I-145000J0D01*
G01*
X114003000Y-40804000D01*
G75*
G02*
X113858000Y-40659000I0J145000D01*
G01*
X113858000Y-40369000D01*
G75*
G02*
X114003000Y-40224000I145000J0D01*
G01*
G37*
G36*
G01*
X114003000Y-39334000D02*
X114343000Y-39334000D01*
G75*
G02*
X114488000Y-39479000I0J-145000D01*
G01*
X114488000Y-39769000D01*
G75*
G02*
X114343000Y-39914000I-145000J0D01*
G01*
X114003000Y-39914000D01*
G75*
G02*
X113858000Y-39769000I0J145000D01*
G01*
X113858000Y-39479000D01*
G75*
G02*
X114003000Y-39334000I145000J0D01*
G01*
G37*
G36*
G01*
X116847800Y-40287000D02*
X117187800Y-40287000D01*
G75*
G02*
X117332800Y-40432000I0J-145000D01*
G01*
X117332800Y-40722000D01*
G75*
G02*
X117187800Y-40867000I-145000J0D01*
G01*
X116847800Y-40867000D01*
G75*
G02*
X116702800Y-40722000I0J145000D01*
G01*
X116702800Y-40432000D01*
G75*
G02*
X116847800Y-40287000I145000J0D01*
G01*
G37*
G36*
G01*
X116847800Y-39397000D02*
X117187800Y-39397000D01*
G75*
G02*
X117332800Y-39542000I0J-145000D01*
G01*
X117332800Y-39832000D01*
G75*
G02*
X117187800Y-39977000I-145000J0D01*
G01*
X116847800Y-39977000D01*
G75*
G02*
X116702800Y-39832000I0J145000D01*
G01*
X116702800Y-39542000D01*
G75*
G02*
X116847800Y-39397000I145000J0D01*
G01*
G37*
G36*
G01*
X109115800Y-33485000D02*
X109115800Y-33825000D01*
G75*
G02*
X108970800Y-33970000I-145000J0D01*
G01*
X108680800Y-33970000D01*
G75*
G02*
X108535800Y-33825000I0J145000D01*
G01*
X108535800Y-33485000D01*
G75*
G02*
X108680800Y-33340000I145000J0D01*
G01*
X108970800Y-33340000D01*
G75*
G02*
X109115800Y-33485000I0J-145000D01*
G01*
G37*
G36*
G01*
X110005800Y-33485000D02*
X110005800Y-33825000D01*
G75*
G02*
X109860800Y-33970000I-145000J0D01*
G01*
X109570800Y-33970000D01*
G75*
G02*
X109425800Y-33825000I0J145000D01*
G01*
X109425800Y-33485000D01*
G75*
G02*
X109570800Y-33340000I145000J0D01*
G01*
X109860800Y-33340000D01*
G75*
G02*
X110005800Y-33485000I0J-145000D01*
G01*
G37*
G36*
G01*
X126445100Y-30395800D02*
X125980100Y-30395800D01*
G75*
G02*
X125777600Y-30193300I0J202500D01*
G01*
X125777600Y-29788300D01*
G75*
G02*
X125980100Y-29585800I202500J0D01*
G01*
X126445100Y-29585800D01*
G75*
G02*
X126647600Y-29788300I0J-202500D01*
G01*
X126647600Y-30193300D01*
G75*
G02*
X126445100Y-30395800I-202500J0D01*
G01*
G37*
G36*
G01*
X126445100Y-31755800D02*
X125980100Y-31755800D01*
G75*
G02*
X125777600Y-31553300I0J202500D01*
G01*
X125777600Y-31148300D01*
G75*
G02*
X125980100Y-30945800I202500J0D01*
G01*
X126445100Y-30945800D01*
G75*
G02*
X126647600Y-31148300I0J-202500D01*
G01*
X126647600Y-31553300D01*
G75*
G02*
X126445100Y-31755800I-202500J0D01*
G01*
G37*
G36*
G01*
X112194400Y-32885200D02*
X112194400Y-32545200D01*
G75*
G02*
X112339400Y-32400200I145000J0D01*
G01*
X112629400Y-32400200D01*
G75*
G02*
X112774400Y-32545200I0J-145000D01*
G01*
X112774400Y-32885200D01*
G75*
G02*
X112629400Y-33030200I-145000J0D01*
G01*
X112339400Y-33030200D01*
G75*
G02*
X112194400Y-32885200I0J145000D01*
G01*
G37*
G36*
G01*
X111304400Y-32885200D02*
X111304400Y-32545200D01*
G75*
G02*
X111449400Y-32400200I145000J0D01*
G01*
X111739400Y-32400200D01*
G75*
G02*
X111884400Y-32545200I0J-145000D01*
G01*
X111884400Y-32885200D01*
G75*
G02*
X111739400Y-33030200I-145000J0D01*
G01*
X111449400Y-33030200D01*
G75*
G02*
X111304400Y-32885200I0J145000D01*
G01*
G37*
G36*
G01*
X109471400Y-43492600D02*
X109471400Y-43832600D01*
G75*
G02*
X109326400Y-43977600I-145000J0D01*
G01*
X109036400Y-43977600D01*
G75*
G02*
X108891400Y-43832600I0J145000D01*
G01*
X108891400Y-43492600D01*
G75*
G02*
X109036400Y-43347600I145000J0D01*
G01*
X109326400Y-43347600D01*
G75*
G02*
X109471400Y-43492600I0J-145000D01*
G01*
G37*
G36*
G01*
X110361400Y-43492600D02*
X110361400Y-43832600D01*
G75*
G02*
X110216400Y-43977600I-145000J0D01*
G01*
X109926400Y-43977600D01*
G75*
G02*
X109781400Y-43832600I0J145000D01*
G01*
X109781400Y-43492600D01*
G75*
G02*
X109926400Y-43347600I145000J0D01*
G01*
X110216400Y-43347600D01*
G75*
G02*
X110361400Y-43492600I0J-145000D01*
G01*
G37*
G36*
G01*
X112194400Y-31945400D02*
X112194400Y-31605400D01*
G75*
G02*
X112339400Y-31460400I145000J0D01*
G01*
X112629400Y-31460400D01*
G75*
G02*
X112774400Y-31605400I0J-145000D01*
G01*
X112774400Y-31945400D01*
G75*
G02*
X112629400Y-32090400I-145000J0D01*
G01*
X112339400Y-32090400D01*
G75*
G02*
X112194400Y-31945400I0J145000D01*
G01*
G37*
G36*
G01*
X111304400Y-31945400D02*
X111304400Y-31605400D01*
G75*
G02*
X111449400Y-31460400I145000J0D01*
G01*
X111739400Y-31460400D01*
G75*
G02*
X111884400Y-31605400I0J-145000D01*
G01*
X111884400Y-31945400D01*
G75*
G02*
X111739400Y-32090400I-145000J0D01*
G01*
X111449400Y-32090400D01*
G75*
G02*
X111304400Y-31945400I0J145000D01*
G01*
G37*
G36*
G01*
X112143600Y-44162800D02*
X112143600Y-43822800D01*
G75*
G02*
X112288600Y-43677800I145000J0D01*
G01*
X112578600Y-43677800D01*
G75*
G02*
X112723600Y-43822800I0J-145000D01*
G01*
X112723600Y-44162800D01*
G75*
G02*
X112578600Y-44307800I-145000J0D01*
G01*
X112288600Y-44307800D01*
G75*
G02*
X112143600Y-44162800I0J145000D01*
G01*
G37*
G36*
G01*
X111253600Y-44162800D02*
X111253600Y-43822800D01*
G75*
G02*
X111398600Y-43677800I145000J0D01*
G01*
X111688600Y-43677800D01*
G75*
G02*
X111833600Y-43822800I0J-145000D01*
G01*
X111833600Y-44162800D01*
G75*
G02*
X111688600Y-44307800I-145000J0D01*
G01*
X111398600Y-44307800D01*
G75*
G02*
X111253600Y-44162800I0J145000D01*
G01*
G37*
G36*
G01*
X112143600Y-45102600D02*
X112143600Y-44762600D01*
G75*
G02*
X112288600Y-44617600I145000J0D01*
G01*
X112578600Y-44617600D01*
G75*
G02*
X112723600Y-44762600I0J-145000D01*
G01*
X112723600Y-45102600D01*
G75*
G02*
X112578600Y-45247600I-145000J0D01*
G01*
X112288600Y-45247600D01*
G75*
G02*
X112143600Y-45102600I0J145000D01*
G01*
G37*
G36*
G01*
X111253600Y-45102600D02*
X111253600Y-44762600D01*
G75*
G02*
X111398600Y-44617600I145000J0D01*
G01*
X111688600Y-44617600D01*
G75*
G02*
X111833600Y-44762600I0J-145000D01*
G01*
X111833600Y-45102600D01*
G75*
G02*
X111688600Y-45247600I-145000J0D01*
G01*
X111398600Y-45247600D01*
G75*
G02*
X111253600Y-45102600I0J145000D01*
G01*
G37*
G36*
G01*
X117238600Y-36395600D02*
X116898600Y-36395600D01*
G75*
G02*
X116753600Y-36250600I0J145000D01*
G01*
X116753600Y-35960600D01*
G75*
G02*
X116898600Y-35815600I145000J0D01*
G01*
X117238600Y-35815600D01*
G75*
G02*
X117383600Y-35960600I0J-145000D01*
G01*
X117383600Y-36250600D01*
G75*
G02*
X117238600Y-36395600I-145000J0D01*
G01*
G37*
G36*
G01*
X117238600Y-37285600D02*
X116898600Y-37285600D01*
G75*
G02*
X116753600Y-37140600I0J145000D01*
G01*
X116753600Y-36850600D01*
G75*
G02*
X116898600Y-36705600I145000J0D01*
G01*
X117238600Y-36705600D01*
G75*
G02*
X117383600Y-36850600I0J-145000D01*
G01*
X117383600Y-37140600D01*
G75*
G02*
X117238600Y-37285600I-145000J0D01*
G01*
G37*
G36*
G01*
X105732400Y-35532000D02*
X105392400Y-35532000D01*
G75*
G02*
X105247400Y-35387000I0J145000D01*
G01*
X105247400Y-35097000D01*
G75*
G02*
X105392400Y-34952000I145000J0D01*
G01*
X105732400Y-34952000D01*
G75*
G02*
X105877400Y-35097000I0J-145000D01*
G01*
X105877400Y-35387000D01*
G75*
G02*
X105732400Y-35532000I-145000J0D01*
G01*
G37*
G36*
G01*
X105732400Y-36422000D02*
X105392400Y-36422000D01*
G75*
G02*
X105247400Y-36277000I0J145000D01*
G01*
X105247400Y-35987000D01*
G75*
G02*
X105392400Y-35842000I145000J0D01*
G01*
X105732400Y-35842000D01*
G75*
G02*
X105877400Y-35987000I0J-145000D01*
G01*
X105877400Y-36277000D01*
G75*
G02*
X105732400Y-36422000I-145000J0D01*
G01*
G37*
G36*
G01*
X117863800Y-29644400D02*
X118203800Y-29644400D01*
G75*
G02*
X118348800Y-29789400I0J-145000D01*
G01*
X118348800Y-30079400D01*
G75*
G02*
X118203800Y-30224400I-145000J0D01*
G01*
X117863800Y-30224400D01*
G75*
G02*
X117718800Y-30079400I0J145000D01*
G01*
X117718800Y-29789400D01*
G75*
G02*
X117863800Y-29644400I145000J0D01*
G01*
G37*
G36*
G01*
X117863800Y-28754400D02*
X118203800Y-28754400D01*
G75*
G02*
X118348800Y-28899400I0J-145000D01*
G01*
X118348800Y-29189400D01*
G75*
G02*
X118203800Y-29334400I-145000J0D01*
G01*
X117863800Y-29334400D01*
G75*
G02*
X117718800Y-29189400I0J145000D01*
G01*
X117718800Y-28899400D01*
G75*
G02*
X117863800Y-28754400I145000J0D01*
G01*
G37*
G36*
G01*
X119687400Y-26535200D02*
X119687400Y-26195200D01*
G75*
G02*
X119832400Y-26050200I145000J0D01*
G01*
X120122400Y-26050200D01*
G75*
G02*
X120267400Y-26195200I0J-145000D01*
G01*
X120267400Y-26535200D01*
G75*
G02*
X120122400Y-26680200I-145000J0D01*
G01*
X119832400Y-26680200D01*
G75*
G02*
X119687400Y-26535200I0J145000D01*
G01*
G37*
G36*
G01*
X118797400Y-26535200D02*
X118797400Y-26195200D01*
G75*
G02*
X118942400Y-26050200I145000J0D01*
G01*
X119232400Y-26050200D01*
G75*
G02*
X119377400Y-26195200I0J-145000D01*
G01*
X119377400Y-26535200D01*
G75*
G02*
X119232400Y-26680200I-145000J0D01*
G01*
X118942400Y-26680200D01*
G75*
G02*
X118797400Y-26535200I0J145000D01*
G01*
G37*
G36*
G01*
X121333200Y-26195200D02*
X121333200Y-26535200D01*
G75*
G02*
X121188200Y-26680200I-145000J0D01*
G01*
X120898200Y-26680200D01*
G75*
G02*
X120753200Y-26535200I0J145000D01*
G01*
X120753200Y-26195200D01*
G75*
G02*
X120898200Y-26050200I145000J0D01*
G01*
X121188200Y-26050200D01*
G75*
G02*
X121333200Y-26195200I0J-145000D01*
G01*
G37*
G36*
G01*
X122223200Y-26195200D02*
X122223200Y-26535200D01*
G75*
G02*
X122078200Y-26680200I-145000J0D01*
G01*
X121788200Y-26680200D01*
G75*
G02*
X121643200Y-26535200I0J145000D01*
G01*
X121643200Y-26195200D01*
G75*
G02*
X121788200Y-26050200I145000J0D01*
G01*
X122078200Y-26050200D01*
G75*
G02*
X122223200Y-26195200I0J-145000D01*
G01*
G37*
M02*
