M48
; DRILL file {KiCad (5.1.5)-3} date 7/21/2020 10:53:22 PM
; FORMAT={-:-/ absolute / inch / decimal}
; #@! TF.CreationDate,2020-07-21T22:53:22-07:00
; #@! TF.GenerationSoftware,Kicad,Pcbnew,(5.1.5)-3
FMAT,2
INCH
T1C0.0079
T2C0.0138
T3C0.0256
T4C0.0276
T5C0.0787
%
G90
G05
T1
X4.038Y-1.558
X4.046Y-1.366
X4.085Y-1.492
X4.086Y-1.667
X4.087Y-1.456
X4.098Y-1.525
X4.113Y-1.3205
X4.119Y-1.424
X4.121Y-1.388
X4.1275Y-1.7645
X4.14Y-1.32
X4.168Y-1.681
X4.169Y-1.32
X4.176Y-1.8585
X4.205Y-1.584
X4.219Y-1.359
X4.224Y-1.561
X4.225Y-1.49
X4.236Y-1.3791
X4.249Y-1.264
X4.26Y-1.62
X4.267Y-1.713
X4.28Y-1.638
X4.281Y-1.363
X4.298Y-1.5525
X4.298Y-1.752
X4.299Y-1.4495
X4.301Y-1.38
X4.301Y-1.621
X4.308Y-1.287
X4.32Y-1.362
X4.336Y-1.751
X4.3403Y-1.3804
X4.35Y-1.4995
X4.35Y-1.5515
X4.361Y-1.3689
X4.362Y-1.261
X4.364Y-1.287
X4.364Y-1.731
X4.365Y-1.761
X4.38Y-1.632
X4.384Y-1.38
X4.401Y-1.4495
X4.401Y-1.4995
X4.401Y-1.5515
X4.43Y-1.221
X4.431Y-1.803
X4.452Y-1.0975
X4.4603Y-1.6433
X4.465Y-1.2245
X4.478Y-1.8865
X4.521Y-1.8535
X4.522Y-1.8135
X4.529Y-1.315
X4.549Y-1.8895
X4.561Y-1.596
X4.566Y-1.417
X4.567Y-1.459
X4.567Y-1.699
X4.5773Y-1.5577
X4.585Y-1.723
X4.6137Y-1.3588
X4.615Y-1.325
X4.616Y-1.387
X4.617Y-1.298
X4.619Y-1.7975
X4.6261Y-1.523
X4.6346Y-1.2809
X4.6531Y-1.2661
X4.659Y-1.622
X4.668Y-1.212
X4.6692Y-1.2487
X4.721Y-1.702
X4.722Y-1.737
T2
X4.2095Y-1.792
X4.6Y-1.2
X4.603Y-1.138
X4.654Y-1.056
X4.7Y-1.2
X4.745Y-1.097
X4.745Y-1.151
X4.75Y-1.2
X4.8Y-1.7197
X4.82Y-1.3095
X4.85Y-1.1
X4.85Y-1.15
X4.85Y-1.7197
X4.9Y-1.7197
X4.923Y-1.276
X4.954Y-1.137
X4.965Y-1.307
T3
X4.719Y-1.808
X4.719Y-1.858
X4.769Y-1.808
X4.769Y-1.858
X4.819Y-1.808
X4.819Y-1.858
T4
X4.5075Y-1.0674
X4.5575Y-1.0674
X4.6075Y-1.0674
X4.5075Y-1.9336
X4.5575Y-1.9336
T5
X4.9311Y-1.0689
X4.0689Y-1.0689
X4.0689Y-1.9311
X4.9311Y-1.9311
T5
G00X4.35Y-1.8543
M15
G01X4.35Y-1.9331
M16
G05
G00X4.35Y-1.0669
M15
G01X4.35Y-1.1457
M16
G05
T0
M30
