G04 #@! TF.GenerationSoftware,KiCad,Pcbnew,(5.1.5)-3*
G04 #@! TF.CreationDate,2020-07-21T22:53:20-07:00*
G04 #@! TF.ProjectId,MiniCAM,4d696e69-4341-44d2-9e6b-696361645f70,rev?*
G04 #@! TF.SameCoordinates,Original*
G04 #@! TF.FileFunction,Paste,Top*
G04 #@! TF.FilePolarity,Positive*
%FSLAX46Y46*%
G04 Gerber Fmt 4.6, Leading zero omitted, Abs format (unit mm)*
G04 Created by KiCad (PCBNEW (5.1.5)-3) date 2020-07-21 22:53:20*
%MOMM*%
%LPD*%
G04 APERTURE LIST*
%ADD10R,0.560000X0.490000*%
%ADD11C,0.100000*%
%ADD12R,0.710000X0.770000*%
%ADD13R,0.880000X0.830000*%
%ADD14R,1.350000X1.350000*%
%ADD15R,0.680000X0.260000*%
%ADD16R,0.260000X0.680000*%
%ADD17R,0.600000X0.950000*%
%ADD18R,0.660000X0.260000*%
%ADD19R,0.490000X0.560000*%
%ADD20R,0.870000X2.620000*%
%ADD21C,1.730000*%
G04 APERTURE END LIST*
D10*
X114198400Y-34229000D03*
X114198400Y-35139000D03*
X117398800Y-47178600D03*
X117398800Y-46268600D03*
X119405400Y-32954600D03*
X119405400Y-32044600D03*
D11*
G36*
X107092812Y-46930098D02*
G01*
X107106888Y-46932186D01*
X107120691Y-46935644D01*
X107134089Y-46940437D01*
X107146953Y-46946521D01*
X107159158Y-46953837D01*
X107170587Y-46962313D01*
X107181130Y-46971870D01*
X107190687Y-46982413D01*
X107199163Y-46993842D01*
X107206479Y-47006047D01*
X107212563Y-47018911D01*
X107217356Y-47032309D01*
X107220814Y-47046112D01*
X107222902Y-47060188D01*
X107223600Y-47074400D01*
X107223600Y-47364400D01*
X107222902Y-47378612D01*
X107220814Y-47392688D01*
X107217356Y-47406491D01*
X107212563Y-47419889D01*
X107206479Y-47432753D01*
X107199163Y-47444958D01*
X107190687Y-47456387D01*
X107181130Y-47466930D01*
X107170587Y-47476487D01*
X107159158Y-47484963D01*
X107146953Y-47492279D01*
X107134089Y-47498363D01*
X107120691Y-47503156D01*
X107106888Y-47506614D01*
X107092812Y-47508702D01*
X107078600Y-47509400D01*
X106738600Y-47509400D01*
X106724388Y-47508702D01*
X106710312Y-47506614D01*
X106696509Y-47503156D01*
X106683111Y-47498363D01*
X106670247Y-47492279D01*
X106658042Y-47484963D01*
X106646613Y-47476487D01*
X106636070Y-47466930D01*
X106626513Y-47456387D01*
X106618037Y-47444958D01*
X106610721Y-47432753D01*
X106604637Y-47419889D01*
X106599844Y-47406491D01*
X106596386Y-47392688D01*
X106594298Y-47378612D01*
X106593600Y-47364400D01*
X106593600Y-47074400D01*
X106594298Y-47060188D01*
X106596386Y-47046112D01*
X106599844Y-47032309D01*
X106604637Y-47018911D01*
X106610721Y-47006047D01*
X106618037Y-46993842D01*
X106626513Y-46982413D01*
X106636070Y-46971870D01*
X106646613Y-46962313D01*
X106658042Y-46953837D01*
X106670247Y-46946521D01*
X106683111Y-46940437D01*
X106696509Y-46935644D01*
X106710312Y-46932186D01*
X106724388Y-46930098D01*
X106738600Y-46929400D01*
X107078600Y-46929400D01*
X107092812Y-46930098D01*
G37*
G36*
X107092812Y-46040098D02*
G01*
X107106888Y-46042186D01*
X107120691Y-46045644D01*
X107134089Y-46050437D01*
X107146953Y-46056521D01*
X107159158Y-46063837D01*
X107170587Y-46072313D01*
X107181130Y-46081870D01*
X107190687Y-46092413D01*
X107199163Y-46103842D01*
X107206479Y-46116047D01*
X107212563Y-46128911D01*
X107217356Y-46142309D01*
X107220814Y-46156112D01*
X107222902Y-46170188D01*
X107223600Y-46184400D01*
X107223600Y-46474400D01*
X107222902Y-46488612D01*
X107220814Y-46502688D01*
X107217356Y-46516491D01*
X107212563Y-46529889D01*
X107206479Y-46542753D01*
X107199163Y-46554958D01*
X107190687Y-46566387D01*
X107181130Y-46576930D01*
X107170587Y-46586487D01*
X107159158Y-46594963D01*
X107146953Y-46602279D01*
X107134089Y-46608363D01*
X107120691Y-46613156D01*
X107106888Y-46616614D01*
X107092812Y-46618702D01*
X107078600Y-46619400D01*
X106738600Y-46619400D01*
X106724388Y-46618702D01*
X106710312Y-46616614D01*
X106696509Y-46613156D01*
X106683111Y-46608363D01*
X106670247Y-46602279D01*
X106658042Y-46594963D01*
X106646613Y-46586487D01*
X106636070Y-46576930D01*
X106626513Y-46566387D01*
X106618037Y-46554958D01*
X106610721Y-46542753D01*
X106604637Y-46529889D01*
X106599844Y-46516491D01*
X106596386Y-46502688D01*
X106594298Y-46488612D01*
X106593600Y-46474400D01*
X106593600Y-46184400D01*
X106594298Y-46170188D01*
X106596386Y-46156112D01*
X106599844Y-46142309D01*
X106604637Y-46128911D01*
X106610721Y-46116047D01*
X106618037Y-46103842D01*
X106626513Y-46092413D01*
X106636070Y-46081870D01*
X106646613Y-46072313D01*
X106658042Y-46063837D01*
X106670247Y-46056521D01*
X106683111Y-46050437D01*
X106696509Y-46045644D01*
X106710312Y-46042186D01*
X106724388Y-46040098D01*
X106738600Y-46039400D01*
X107078600Y-46039400D01*
X107092812Y-46040098D01*
G37*
G36*
X115361412Y-30762898D02*
G01*
X115375488Y-30764986D01*
X115389291Y-30768444D01*
X115402689Y-30773237D01*
X115415553Y-30779321D01*
X115427758Y-30786637D01*
X115439187Y-30795113D01*
X115449730Y-30804670D01*
X115459287Y-30815213D01*
X115467763Y-30826642D01*
X115475079Y-30838847D01*
X115481163Y-30851711D01*
X115485956Y-30865109D01*
X115489414Y-30878912D01*
X115491502Y-30892988D01*
X115492200Y-30907200D01*
X115492200Y-31247200D01*
X115491502Y-31261412D01*
X115489414Y-31275488D01*
X115485956Y-31289291D01*
X115481163Y-31302689D01*
X115475079Y-31315553D01*
X115467763Y-31327758D01*
X115459287Y-31339187D01*
X115449730Y-31349730D01*
X115439187Y-31359287D01*
X115427758Y-31367763D01*
X115415553Y-31375079D01*
X115402689Y-31381163D01*
X115389291Y-31385956D01*
X115375488Y-31389414D01*
X115361412Y-31391502D01*
X115347200Y-31392200D01*
X115057200Y-31392200D01*
X115042988Y-31391502D01*
X115028912Y-31389414D01*
X115015109Y-31385956D01*
X115001711Y-31381163D01*
X114988847Y-31375079D01*
X114976642Y-31367763D01*
X114965213Y-31359287D01*
X114954670Y-31349730D01*
X114945113Y-31339187D01*
X114936637Y-31327758D01*
X114929321Y-31315553D01*
X114923237Y-31302689D01*
X114918444Y-31289291D01*
X114914986Y-31275488D01*
X114912898Y-31261412D01*
X114912200Y-31247200D01*
X114912200Y-30907200D01*
X114912898Y-30892988D01*
X114914986Y-30878912D01*
X114918444Y-30865109D01*
X114923237Y-30851711D01*
X114929321Y-30838847D01*
X114936637Y-30826642D01*
X114945113Y-30815213D01*
X114954670Y-30804670D01*
X114965213Y-30795113D01*
X114976642Y-30786637D01*
X114988847Y-30779321D01*
X115001711Y-30773237D01*
X115015109Y-30768444D01*
X115028912Y-30764986D01*
X115042988Y-30762898D01*
X115057200Y-30762200D01*
X115347200Y-30762200D01*
X115361412Y-30762898D01*
G37*
G36*
X114471412Y-30762898D02*
G01*
X114485488Y-30764986D01*
X114499291Y-30768444D01*
X114512689Y-30773237D01*
X114525553Y-30779321D01*
X114537758Y-30786637D01*
X114549187Y-30795113D01*
X114559730Y-30804670D01*
X114569287Y-30815213D01*
X114577763Y-30826642D01*
X114585079Y-30838847D01*
X114591163Y-30851711D01*
X114595956Y-30865109D01*
X114599414Y-30878912D01*
X114601502Y-30892988D01*
X114602200Y-30907200D01*
X114602200Y-31247200D01*
X114601502Y-31261412D01*
X114599414Y-31275488D01*
X114595956Y-31289291D01*
X114591163Y-31302689D01*
X114585079Y-31315553D01*
X114577763Y-31327758D01*
X114569287Y-31339187D01*
X114559730Y-31349730D01*
X114549187Y-31359287D01*
X114537758Y-31367763D01*
X114525553Y-31375079D01*
X114512689Y-31381163D01*
X114499291Y-31385956D01*
X114485488Y-31389414D01*
X114471412Y-31391502D01*
X114457200Y-31392200D01*
X114167200Y-31392200D01*
X114152988Y-31391502D01*
X114138912Y-31389414D01*
X114125109Y-31385956D01*
X114111711Y-31381163D01*
X114098847Y-31375079D01*
X114086642Y-31367763D01*
X114075213Y-31359287D01*
X114064670Y-31349730D01*
X114055113Y-31339187D01*
X114046637Y-31327758D01*
X114039321Y-31315553D01*
X114033237Y-31302689D01*
X114028444Y-31289291D01*
X114024986Y-31275488D01*
X114022898Y-31261412D01*
X114022200Y-31247200D01*
X114022200Y-30907200D01*
X114022898Y-30892988D01*
X114024986Y-30878912D01*
X114028444Y-30865109D01*
X114033237Y-30851711D01*
X114039321Y-30838847D01*
X114046637Y-30826642D01*
X114055113Y-30815213D01*
X114064670Y-30804670D01*
X114075213Y-30795113D01*
X114086642Y-30786637D01*
X114098847Y-30779321D01*
X114111711Y-30773237D01*
X114125109Y-30768444D01*
X114138912Y-30764986D01*
X114152988Y-30762898D01*
X114167200Y-30762200D01*
X114457200Y-30762200D01*
X114471412Y-30762898D01*
G37*
G36*
X108253148Y-47406975D02*
G01*
X108272806Y-47409891D01*
X108292083Y-47414720D01*
X108310793Y-47421414D01*
X108328758Y-47429911D01*
X108345803Y-47440127D01*
X108361765Y-47451965D01*
X108376489Y-47465311D01*
X108389835Y-47480035D01*
X108401673Y-47495997D01*
X108411889Y-47513042D01*
X108420386Y-47531007D01*
X108427080Y-47549717D01*
X108431909Y-47568994D01*
X108434825Y-47588652D01*
X108435800Y-47608500D01*
X108435800Y-48013500D01*
X108434825Y-48033348D01*
X108431909Y-48053006D01*
X108427080Y-48072283D01*
X108420386Y-48090993D01*
X108411889Y-48108958D01*
X108401673Y-48126003D01*
X108389835Y-48141965D01*
X108376489Y-48156689D01*
X108361765Y-48170035D01*
X108345803Y-48181873D01*
X108328758Y-48192089D01*
X108310793Y-48200586D01*
X108292083Y-48207280D01*
X108272806Y-48212109D01*
X108253148Y-48215025D01*
X108233300Y-48216000D01*
X107768300Y-48216000D01*
X107748452Y-48215025D01*
X107728794Y-48212109D01*
X107709517Y-48207280D01*
X107690807Y-48200586D01*
X107672842Y-48192089D01*
X107655797Y-48181873D01*
X107639835Y-48170035D01*
X107625111Y-48156689D01*
X107611765Y-48141965D01*
X107599927Y-48126003D01*
X107589711Y-48108958D01*
X107581214Y-48090993D01*
X107574520Y-48072283D01*
X107569691Y-48053006D01*
X107566775Y-48033348D01*
X107565800Y-48013500D01*
X107565800Y-47608500D01*
X107566775Y-47588652D01*
X107569691Y-47568994D01*
X107574520Y-47549717D01*
X107581214Y-47531007D01*
X107589711Y-47513042D01*
X107599927Y-47495997D01*
X107611765Y-47480035D01*
X107625111Y-47465311D01*
X107639835Y-47451965D01*
X107655797Y-47440127D01*
X107672842Y-47429911D01*
X107690807Y-47421414D01*
X107709517Y-47414720D01*
X107728794Y-47409891D01*
X107748452Y-47406975D01*
X107768300Y-47406000D01*
X108233300Y-47406000D01*
X108253148Y-47406975D01*
G37*
G36*
X108253148Y-46046975D02*
G01*
X108272806Y-46049891D01*
X108292083Y-46054720D01*
X108310793Y-46061414D01*
X108328758Y-46069911D01*
X108345803Y-46080127D01*
X108361765Y-46091965D01*
X108376489Y-46105311D01*
X108389835Y-46120035D01*
X108401673Y-46135997D01*
X108411889Y-46153042D01*
X108420386Y-46171007D01*
X108427080Y-46189717D01*
X108431909Y-46208994D01*
X108434825Y-46228652D01*
X108435800Y-46248500D01*
X108435800Y-46653500D01*
X108434825Y-46673348D01*
X108431909Y-46693006D01*
X108427080Y-46712283D01*
X108420386Y-46730993D01*
X108411889Y-46748958D01*
X108401673Y-46766003D01*
X108389835Y-46781965D01*
X108376489Y-46796689D01*
X108361765Y-46810035D01*
X108345803Y-46821873D01*
X108328758Y-46832089D01*
X108310793Y-46840586D01*
X108292083Y-46847280D01*
X108272806Y-46852109D01*
X108253148Y-46855025D01*
X108233300Y-46856000D01*
X107768300Y-46856000D01*
X107748452Y-46855025D01*
X107728794Y-46852109D01*
X107709517Y-46847280D01*
X107690807Y-46840586D01*
X107672842Y-46832089D01*
X107655797Y-46821873D01*
X107639835Y-46810035D01*
X107625111Y-46796689D01*
X107611765Y-46781965D01*
X107599927Y-46766003D01*
X107589711Y-46748958D01*
X107581214Y-46730993D01*
X107574520Y-46712283D01*
X107569691Y-46693006D01*
X107566775Y-46673348D01*
X107565800Y-46653500D01*
X107565800Y-46248500D01*
X107566775Y-46228652D01*
X107569691Y-46208994D01*
X107574520Y-46189717D01*
X107581214Y-46171007D01*
X107589711Y-46153042D01*
X107599927Y-46135997D01*
X107611765Y-46120035D01*
X107625111Y-46105311D01*
X107639835Y-46091965D01*
X107655797Y-46080127D01*
X107672842Y-46069911D01*
X107690807Y-46061414D01*
X107709517Y-46054720D01*
X107728794Y-46049891D01*
X107748452Y-46046975D01*
X107768300Y-46046000D01*
X108233300Y-46046000D01*
X108253148Y-46046975D01*
G37*
G36*
X113358548Y-28443775D02*
G01*
X113378206Y-28446691D01*
X113397483Y-28451520D01*
X113416193Y-28458214D01*
X113434158Y-28466711D01*
X113451203Y-28476927D01*
X113467165Y-28488765D01*
X113481889Y-28502111D01*
X113495235Y-28516835D01*
X113507073Y-28532797D01*
X113517289Y-28549842D01*
X113525786Y-28567807D01*
X113532480Y-28586517D01*
X113537309Y-28605794D01*
X113540225Y-28625452D01*
X113541200Y-28645300D01*
X113541200Y-29050300D01*
X113540225Y-29070148D01*
X113537309Y-29089806D01*
X113532480Y-29109083D01*
X113525786Y-29127793D01*
X113517289Y-29145758D01*
X113507073Y-29162803D01*
X113495235Y-29178765D01*
X113481889Y-29193489D01*
X113467165Y-29206835D01*
X113451203Y-29218673D01*
X113434158Y-29228889D01*
X113416193Y-29237386D01*
X113397483Y-29244080D01*
X113378206Y-29248909D01*
X113358548Y-29251825D01*
X113338700Y-29252800D01*
X112873700Y-29252800D01*
X112853852Y-29251825D01*
X112834194Y-29248909D01*
X112814917Y-29244080D01*
X112796207Y-29237386D01*
X112778242Y-29228889D01*
X112761197Y-29218673D01*
X112745235Y-29206835D01*
X112730511Y-29193489D01*
X112717165Y-29178765D01*
X112705327Y-29162803D01*
X112695111Y-29145758D01*
X112686614Y-29127793D01*
X112679920Y-29109083D01*
X112675091Y-29089806D01*
X112672175Y-29070148D01*
X112671200Y-29050300D01*
X112671200Y-28645300D01*
X112672175Y-28625452D01*
X112675091Y-28605794D01*
X112679920Y-28586517D01*
X112686614Y-28567807D01*
X112695111Y-28549842D01*
X112705327Y-28532797D01*
X112717165Y-28516835D01*
X112730511Y-28502111D01*
X112745235Y-28488765D01*
X112761197Y-28476927D01*
X112778242Y-28466711D01*
X112796207Y-28458214D01*
X112814917Y-28451520D01*
X112834194Y-28446691D01*
X112853852Y-28443775D01*
X112873700Y-28442800D01*
X113338700Y-28442800D01*
X113358548Y-28443775D01*
G37*
G36*
X113358548Y-29803775D02*
G01*
X113378206Y-29806691D01*
X113397483Y-29811520D01*
X113416193Y-29818214D01*
X113434158Y-29826711D01*
X113451203Y-29836927D01*
X113467165Y-29848765D01*
X113481889Y-29862111D01*
X113495235Y-29876835D01*
X113507073Y-29892797D01*
X113517289Y-29909842D01*
X113525786Y-29927807D01*
X113532480Y-29946517D01*
X113537309Y-29965794D01*
X113540225Y-29985452D01*
X113541200Y-30005300D01*
X113541200Y-30410300D01*
X113540225Y-30430148D01*
X113537309Y-30449806D01*
X113532480Y-30469083D01*
X113525786Y-30487793D01*
X113517289Y-30505758D01*
X113507073Y-30522803D01*
X113495235Y-30538765D01*
X113481889Y-30553489D01*
X113467165Y-30566835D01*
X113451203Y-30578673D01*
X113434158Y-30588889D01*
X113416193Y-30597386D01*
X113397483Y-30604080D01*
X113378206Y-30608909D01*
X113358548Y-30611825D01*
X113338700Y-30612800D01*
X112873700Y-30612800D01*
X112853852Y-30611825D01*
X112834194Y-30608909D01*
X112814917Y-30604080D01*
X112796207Y-30597386D01*
X112778242Y-30588889D01*
X112761197Y-30578673D01*
X112745235Y-30566835D01*
X112730511Y-30553489D01*
X112717165Y-30538765D01*
X112705327Y-30522803D01*
X112695111Y-30505758D01*
X112686614Y-30487793D01*
X112679920Y-30469083D01*
X112675091Y-30449806D01*
X112672175Y-30430148D01*
X112671200Y-30410300D01*
X112671200Y-30005300D01*
X112672175Y-29985452D01*
X112675091Y-29965794D01*
X112679920Y-29946517D01*
X112686614Y-29927807D01*
X112695111Y-29909842D01*
X112705327Y-29892797D01*
X112717165Y-29876835D01*
X112730511Y-29862111D01*
X112745235Y-29848765D01*
X112761197Y-29836927D01*
X112778242Y-29826711D01*
X112796207Y-29818214D01*
X112814917Y-29811520D01*
X112834194Y-29806691D01*
X112853852Y-29803775D01*
X112873700Y-29802800D01*
X113338700Y-29802800D01*
X113358548Y-29803775D01*
G37*
G36*
X125245748Y-29586775D02*
G01*
X125265406Y-29589691D01*
X125284683Y-29594520D01*
X125303393Y-29601214D01*
X125321358Y-29609711D01*
X125338403Y-29619927D01*
X125354365Y-29631765D01*
X125369089Y-29645111D01*
X125382435Y-29659835D01*
X125394273Y-29675797D01*
X125404489Y-29692842D01*
X125412986Y-29710807D01*
X125419680Y-29729517D01*
X125424509Y-29748794D01*
X125427425Y-29768452D01*
X125428400Y-29788300D01*
X125428400Y-30193300D01*
X125427425Y-30213148D01*
X125424509Y-30232806D01*
X125419680Y-30252083D01*
X125412986Y-30270793D01*
X125404489Y-30288758D01*
X125394273Y-30305803D01*
X125382435Y-30321765D01*
X125369089Y-30336489D01*
X125354365Y-30349835D01*
X125338403Y-30361673D01*
X125321358Y-30371889D01*
X125303393Y-30380386D01*
X125284683Y-30387080D01*
X125265406Y-30391909D01*
X125245748Y-30394825D01*
X125225900Y-30395800D01*
X124760900Y-30395800D01*
X124741052Y-30394825D01*
X124721394Y-30391909D01*
X124702117Y-30387080D01*
X124683407Y-30380386D01*
X124665442Y-30371889D01*
X124648397Y-30361673D01*
X124632435Y-30349835D01*
X124617711Y-30336489D01*
X124604365Y-30321765D01*
X124592527Y-30305803D01*
X124582311Y-30288758D01*
X124573814Y-30270793D01*
X124567120Y-30252083D01*
X124562291Y-30232806D01*
X124559375Y-30213148D01*
X124558400Y-30193300D01*
X124558400Y-29788300D01*
X124559375Y-29768452D01*
X124562291Y-29748794D01*
X124567120Y-29729517D01*
X124573814Y-29710807D01*
X124582311Y-29692842D01*
X124592527Y-29675797D01*
X124604365Y-29659835D01*
X124617711Y-29645111D01*
X124632435Y-29631765D01*
X124648397Y-29619927D01*
X124665442Y-29609711D01*
X124683407Y-29601214D01*
X124702117Y-29594520D01*
X124721394Y-29589691D01*
X124741052Y-29586775D01*
X124760900Y-29585800D01*
X125225900Y-29585800D01*
X125245748Y-29586775D01*
G37*
G36*
X125245748Y-30946775D02*
G01*
X125265406Y-30949691D01*
X125284683Y-30954520D01*
X125303393Y-30961214D01*
X125321358Y-30969711D01*
X125338403Y-30979927D01*
X125354365Y-30991765D01*
X125369089Y-31005111D01*
X125382435Y-31019835D01*
X125394273Y-31035797D01*
X125404489Y-31052842D01*
X125412986Y-31070807D01*
X125419680Y-31089517D01*
X125424509Y-31108794D01*
X125427425Y-31128452D01*
X125428400Y-31148300D01*
X125428400Y-31553300D01*
X125427425Y-31573148D01*
X125424509Y-31592806D01*
X125419680Y-31612083D01*
X125412986Y-31630793D01*
X125404489Y-31648758D01*
X125394273Y-31665803D01*
X125382435Y-31681765D01*
X125369089Y-31696489D01*
X125354365Y-31709835D01*
X125338403Y-31721673D01*
X125321358Y-31731889D01*
X125303393Y-31740386D01*
X125284683Y-31747080D01*
X125265406Y-31751909D01*
X125245748Y-31754825D01*
X125225900Y-31755800D01*
X124760900Y-31755800D01*
X124741052Y-31754825D01*
X124721394Y-31751909D01*
X124702117Y-31747080D01*
X124683407Y-31740386D01*
X124665442Y-31731889D01*
X124648397Y-31721673D01*
X124632435Y-31709835D01*
X124617711Y-31696489D01*
X124604365Y-31681765D01*
X124592527Y-31665803D01*
X124582311Y-31648758D01*
X124573814Y-31630793D01*
X124567120Y-31612083D01*
X124562291Y-31592806D01*
X124559375Y-31573148D01*
X124558400Y-31553300D01*
X124558400Y-31148300D01*
X124559375Y-31128452D01*
X124562291Y-31108794D01*
X124567120Y-31089517D01*
X124573814Y-31070807D01*
X124582311Y-31052842D01*
X124592527Y-31035797D01*
X124604365Y-31019835D01*
X124617711Y-31005111D01*
X124632435Y-30991765D01*
X124648397Y-30979927D01*
X124665442Y-30969711D01*
X124683407Y-30961214D01*
X124702117Y-30954520D01*
X124721394Y-30949691D01*
X124741052Y-30946775D01*
X124760900Y-30945800D01*
X125225900Y-30945800D01*
X125245748Y-30946775D01*
G37*
D12*
X102768400Y-38830000D03*
X102768400Y-37370000D03*
D13*
X103855400Y-44161800D03*
X105745400Y-44161800D03*
X105745400Y-45601800D03*
X103855400Y-45601800D03*
D14*
X109715000Y-37338000D03*
X109715000Y-38888000D03*
X111265000Y-37338000D03*
X111265000Y-38888000D03*
D15*
X108155000Y-39863000D03*
X108155000Y-39363000D03*
X108155000Y-38863000D03*
X108155000Y-38363000D03*
X108155000Y-37863000D03*
X108155000Y-37363000D03*
X108155000Y-36863000D03*
X108155000Y-36363000D03*
D16*
X108740000Y-35778000D03*
X109240000Y-35778000D03*
X109740000Y-35778000D03*
X110240000Y-35778000D03*
X110740000Y-35778000D03*
X111240000Y-35778000D03*
X111740000Y-35778000D03*
X112240000Y-35778000D03*
D15*
X112825000Y-36363000D03*
X112825000Y-36863000D03*
X112825000Y-37363000D03*
X112825000Y-37863000D03*
X112825000Y-38363000D03*
X112825000Y-38863000D03*
X112825000Y-39363000D03*
X112825000Y-39863000D03*
D16*
X112240000Y-40448000D03*
X111740000Y-40448000D03*
X111240000Y-40448000D03*
X110740000Y-40448000D03*
X110240000Y-40448000D03*
X109740000Y-40448000D03*
X109240000Y-40448000D03*
X108740000Y-40448000D03*
D17*
X120923000Y-28000000D03*
X120123000Y-28000000D03*
X120923000Y-29150000D03*
X120123000Y-29150000D03*
D18*
X121953000Y-27575000D03*
X121953000Y-28075000D03*
X121953000Y-28575000D03*
X121953000Y-29075000D03*
X121953000Y-29575000D03*
X119093000Y-29575000D03*
X119093000Y-29075000D03*
X119093000Y-28575000D03*
X119093000Y-28075000D03*
X119093000Y-27575000D03*
D10*
X102819200Y-45768600D03*
X102819200Y-44858600D03*
D19*
X114196200Y-47091600D03*
X113286200Y-47091600D03*
X113286200Y-46253400D03*
X114196200Y-46253400D03*
X116431400Y-46228000D03*
X115521400Y-46228000D03*
D10*
X105562400Y-39621800D03*
X105562400Y-38711800D03*
X104724200Y-39621800D03*
X104724200Y-38711800D03*
D19*
X118315400Y-43230800D03*
X119225400Y-43230800D03*
X116787000Y-38684200D03*
X115877000Y-38684200D03*
D10*
X102768400Y-36319800D03*
X102768400Y-35409800D03*
D19*
X122760400Y-30480000D03*
X123670400Y-30480000D03*
D11*
G36*
X116464309Y-34561871D02*
G01*
X116485908Y-34565075D01*
X116507088Y-34570381D01*
X116527647Y-34577737D01*
X116547386Y-34587073D01*
X116566114Y-34598298D01*
X116583653Y-34611305D01*
X116599831Y-34625969D01*
X116614495Y-34642147D01*
X116627502Y-34659686D01*
X116638727Y-34678414D01*
X116648063Y-34698153D01*
X116655419Y-34718712D01*
X116660725Y-34739892D01*
X116663929Y-34761491D01*
X116665000Y-34783300D01*
X116665000Y-35228300D01*
X116663929Y-35250109D01*
X116660725Y-35271708D01*
X116655419Y-35292888D01*
X116648063Y-35313447D01*
X116638727Y-35333186D01*
X116627502Y-35351914D01*
X116614495Y-35369453D01*
X116599831Y-35385631D01*
X116583653Y-35400295D01*
X116566114Y-35413302D01*
X116547386Y-35424527D01*
X116527647Y-35433863D01*
X116507088Y-35441219D01*
X116485908Y-35446525D01*
X116464309Y-35449729D01*
X116442500Y-35450800D01*
X115967500Y-35450800D01*
X115945691Y-35449729D01*
X115924092Y-35446525D01*
X115902912Y-35441219D01*
X115882353Y-35433863D01*
X115862614Y-35424527D01*
X115843886Y-35413302D01*
X115826347Y-35400295D01*
X115810169Y-35385631D01*
X115795505Y-35369453D01*
X115782498Y-35351914D01*
X115771273Y-35333186D01*
X115761937Y-35313447D01*
X115754581Y-35292888D01*
X115749275Y-35271708D01*
X115746071Y-35250109D01*
X115745000Y-35228300D01*
X115745000Y-34783300D01*
X115746071Y-34761491D01*
X115749275Y-34739892D01*
X115754581Y-34718712D01*
X115761937Y-34698153D01*
X115771273Y-34678414D01*
X115782498Y-34659686D01*
X115795505Y-34642147D01*
X115810169Y-34625969D01*
X115826347Y-34611305D01*
X115843886Y-34598298D01*
X115862614Y-34587073D01*
X115882353Y-34577737D01*
X115902912Y-34570381D01*
X115924092Y-34565075D01*
X115945691Y-34561871D01*
X115967500Y-34560800D01*
X116442500Y-34560800D01*
X116464309Y-34561871D01*
G37*
G36*
X116464309Y-33231871D02*
G01*
X116485908Y-33235075D01*
X116507088Y-33240381D01*
X116527647Y-33247737D01*
X116547386Y-33257073D01*
X116566114Y-33268298D01*
X116583653Y-33281305D01*
X116599831Y-33295969D01*
X116614495Y-33312147D01*
X116627502Y-33329686D01*
X116638727Y-33348414D01*
X116648063Y-33368153D01*
X116655419Y-33388712D01*
X116660725Y-33409892D01*
X116663929Y-33431491D01*
X116665000Y-33453300D01*
X116665000Y-33898300D01*
X116663929Y-33920109D01*
X116660725Y-33941708D01*
X116655419Y-33962888D01*
X116648063Y-33983447D01*
X116638727Y-34003186D01*
X116627502Y-34021914D01*
X116614495Y-34039453D01*
X116599831Y-34055631D01*
X116583653Y-34070295D01*
X116566114Y-34083302D01*
X116547386Y-34094527D01*
X116527647Y-34103863D01*
X116507088Y-34111219D01*
X116485908Y-34116525D01*
X116464309Y-34119729D01*
X116442500Y-34120800D01*
X115967500Y-34120800D01*
X115945691Y-34119729D01*
X115924092Y-34116525D01*
X115902912Y-34111219D01*
X115882353Y-34103863D01*
X115862614Y-34094527D01*
X115843886Y-34083302D01*
X115826347Y-34070295D01*
X115810169Y-34055631D01*
X115795505Y-34039453D01*
X115782498Y-34021914D01*
X115771273Y-34003186D01*
X115761937Y-33983447D01*
X115754581Y-33962888D01*
X115749275Y-33941708D01*
X115746071Y-33920109D01*
X115745000Y-33898300D01*
X115745000Y-33453300D01*
X115746071Y-33431491D01*
X115749275Y-33409892D01*
X115754581Y-33388712D01*
X115761937Y-33368153D01*
X115771273Y-33348414D01*
X115782498Y-33329686D01*
X115795505Y-33312147D01*
X115810169Y-33295969D01*
X115826347Y-33281305D01*
X115843886Y-33268298D01*
X115862614Y-33257073D01*
X115882353Y-33247737D01*
X115902912Y-33240381D01*
X115924092Y-33235075D01*
X115945691Y-33231871D01*
X115967500Y-33230800D01*
X116442500Y-33230800D01*
X116464309Y-33231871D01*
G37*
G36*
X114539709Y-43965671D02*
G01*
X114561308Y-43968875D01*
X114582488Y-43974181D01*
X114603047Y-43981537D01*
X114622786Y-43990873D01*
X114641514Y-44002098D01*
X114659053Y-44015105D01*
X114675231Y-44029769D01*
X114689895Y-44045947D01*
X114702902Y-44063486D01*
X114714127Y-44082214D01*
X114723463Y-44101953D01*
X114730819Y-44122512D01*
X114736125Y-44143692D01*
X114739329Y-44165291D01*
X114740400Y-44187100D01*
X114740400Y-44662100D01*
X114739329Y-44683909D01*
X114736125Y-44705508D01*
X114730819Y-44726688D01*
X114723463Y-44747247D01*
X114714127Y-44766986D01*
X114702902Y-44785714D01*
X114689895Y-44803253D01*
X114675231Y-44819431D01*
X114659053Y-44834095D01*
X114641514Y-44847102D01*
X114622786Y-44858327D01*
X114603047Y-44867663D01*
X114582488Y-44875019D01*
X114561308Y-44880325D01*
X114539709Y-44883529D01*
X114517900Y-44884600D01*
X114072900Y-44884600D01*
X114051091Y-44883529D01*
X114029492Y-44880325D01*
X114008312Y-44875019D01*
X113987753Y-44867663D01*
X113968014Y-44858327D01*
X113949286Y-44847102D01*
X113931747Y-44834095D01*
X113915569Y-44819431D01*
X113900905Y-44803253D01*
X113887898Y-44785714D01*
X113876673Y-44766986D01*
X113867337Y-44747247D01*
X113859981Y-44726688D01*
X113854675Y-44705508D01*
X113851471Y-44683909D01*
X113850400Y-44662100D01*
X113850400Y-44187100D01*
X113851471Y-44165291D01*
X113854675Y-44143692D01*
X113859981Y-44122512D01*
X113867337Y-44101953D01*
X113876673Y-44082214D01*
X113887898Y-44063486D01*
X113900905Y-44045947D01*
X113915569Y-44029769D01*
X113931747Y-44015105D01*
X113949286Y-44002098D01*
X113968014Y-43990873D01*
X113987753Y-43981537D01*
X114008312Y-43974181D01*
X114029492Y-43968875D01*
X114051091Y-43965671D01*
X114072900Y-43964600D01*
X114517900Y-43964600D01*
X114539709Y-43965671D01*
G37*
G36*
X115869709Y-43965671D02*
G01*
X115891308Y-43968875D01*
X115912488Y-43974181D01*
X115933047Y-43981537D01*
X115952786Y-43990873D01*
X115971514Y-44002098D01*
X115989053Y-44015105D01*
X116005231Y-44029769D01*
X116019895Y-44045947D01*
X116032902Y-44063486D01*
X116044127Y-44082214D01*
X116053463Y-44101953D01*
X116060819Y-44122512D01*
X116066125Y-44143692D01*
X116069329Y-44165291D01*
X116070400Y-44187100D01*
X116070400Y-44662100D01*
X116069329Y-44683909D01*
X116066125Y-44705508D01*
X116060819Y-44726688D01*
X116053463Y-44747247D01*
X116044127Y-44766986D01*
X116032902Y-44785714D01*
X116019895Y-44803253D01*
X116005231Y-44819431D01*
X115989053Y-44834095D01*
X115971514Y-44847102D01*
X115952786Y-44858327D01*
X115933047Y-44867663D01*
X115912488Y-44875019D01*
X115891308Y-44880325D01*
X115869709Y-44883529D01*
X115847900Y-44884600D01*
X115402900Y-44884600D01*
X115381091Y-44883529D01*
X115359492Y-44880325D01*
X115338312Y-44875019D01*
X115317753Y-44867663D01*
X115298014Y-44858327D01*
X115279286Y-44847102D01*
X115261747Y-44834095D01*
X115245569Y-44819431D01*
X115230905Y-44803253D01*
X115217898Y-44785714D01*
X115206673Y-44766986D01*
X115197337Y-44747247D01*
X115189981Y-44726688D01*
X115184675Y-44705508D01*
X115181471Y-44683909D01*
X115180400Y-44662100D01*
X115180400Y-44187100D01*
X115181471Y-44165291D01*
X115184675Y-44143692D01*
X115189981Y-44122512D01*
X115197337Y-44101953D01*
X115206673Y-44082214D01*
X115217898Y-44063486D01*
X115230905Y-44045947D01*
X115245569Y-44029769D01*
X115261747Y-44015105D01*
X115279286Y-44002098D01*
X115298014Y-43990873D01*
X115317753Y-43981537D01*
X115338312Y-43974181D01*
X115359492Y-43968875D01*
X115381091Y-43965671D01*
X115402900Y-43964600D01*
X115847900Y-43964600D01*
X115869709Y-43965671D01*
G37*
G36*
X117353309Y-41182071D02*
G01*
X117374908Y-41185275D01*
X117396088Y-41190581D01*
X117416647Y-41197937D01*
X117436386Y-41207273D01*
X117455114Y-41218498D01*
X117472653Y-41231505D01*
X117488831Y-41246169D01*
X117503495Y-41262347D01*
X117516502Y-41279886D01*
X117527727Y-41298614D01*
X117537063Y-41318353D01*
X117544419Y-41338912D01*
X117549725Y-41360092D01*
X117552929Y-41381691D01*
X117554000Y-41403500D01*
X117554000Y-41848500D01*
X117552929Y-41870309D01*
X117549725Y-41891908D01*
X117544419Y-41913088D01*
X117537063Y-41933647D01*
X117527727Y-41953386D01*
X117516502Y-41972114D01*
X117503495Y-41989653D01*
X117488831Y-42005831D01*
X117472653Y-42020495D01*
X117455114Y-42033502D01*
X117436386Y-42044727D01*
X117416647Y-42054063D01*
X117396088Y-42061419D01*
X117374908Y-42066725D01*
X117353309Y-42069929D01*
X117331500Y-42071000D01*
X116856500Y-42071000D01*
X116834691Y-42069929D01*
X116813092Y-42066725D01*
X116791912Y-42061419D01*
X116771353Y-42054063D01*
X116751614Y-42044727D01*
X116732886Y-42033502D01*
X116715347Y-42020495D01*
X116699169Y-42005831D01*
X116684505Y-41989653D01*
X116671498Y-41972114D01*
X116660273Y-41953386D01*
X116650937Y-41933647D01*
X116643581Y-41913088D01*
X116638275Y-41891908D01*
X116635071Y-41870309D01*
X116634000Y-41848500D01*
X116634000Y-41403500D01*
X116635071Y-41381691D01*
X116638275Y-41360092D01*
X116643581Y-41338912D01*
X116650937Y-41318353D01*
X116660273Y-41298614D01*
X116671498Y-41279886D01*
X116684505Y-41262347D01*
X116699169Y-41246169D01*
X116715347Y-41231505D01*
X116732886Y-41218498D01*
X116751614Y-41207273D01*
X116771353Y-41197937D01*
X116791912Y-41190581D01*
X116813092Y-41185275D01*
X116834691Y-41182071D01*
X116856500Y-41181000D01*
X117331500Y-41181000D01*
X117353309Y-41182071D01*
G37*
G36*
X117353309Y-42512071D02*
G01*
X117374908Y-42515275D01*
X117396088Y-42520581D01*
X117416647Y-42527937D01*
X117436386Y-42537273D01*
X117455114Y-42548498D01*
X117472653Y-42561505D01*
X117488831Y-42576169D01*
X117503495Y-42592347D01*
X117516502Y-42609886D01*
X117527727Y-42628614D01*
X117537063Y-42648353D01*
X117544419Y-42668912D01*
X117549725Y-42690092D01*
X117552929Y-42711691D01*
X117554000Y-42733500D01*
X117554000Y-43178500D01*
X117552929Y-43200309D01*
X117549725Y-43221908D01*
X117544419Y-43243088D01*
X117537063Y-43263647D01*
X117527727Y-43283386D01*
X117516502Y-43302114D01*
X117503495Y-43319653D01*
X117488831Y-43335831D01*
X117472653Y-43350495D01*
X117455114Y-43363502D01*
X117436386Y-43374727D01*
X117416647Y-43384063D01*
X117396088Y-43391419D01*
X117374908Y-43396725D01*
X117353309Y-43399929D01*
X117331500Y-43401000D01*
X116856500Y-43401000D01*
X116834691Y-43399929D01*
X116813092Y-43396725D01*
X116791912Y-43391419D01*
X116771353Y-43384063D01*
X116751614Y-43374727D01*
X116732886Y-43363502D01*
X116715347Y-43350495D01*
X116699169Y-43335831D01*
X116684505Y-43319653D01*
X116671498Y-43302114D01*
X116660273Y-43283386D01*
X116650937Y-43263647D01*
X116643581Y-43243088D01*
X116638275Y-43221908D01*
X116635071Y-43200309D01*
X116634000Y-43178500D01*
X116634000Y-42733500D01*
X116635071Y-42711691D01*
X116638275Y-42690092D01*
X116643581Y-42668912D01*
X116650937Y-42648353D01*
X116660273Y-42628614D01*
X116671498Y-42609886D01*
X116684505Y-42592347D01*
X116699169Y-42576169D01*
X116715347Y-42561505D01*
X116732886Y-42548498D01*
X116751614Y-42537273D01*
X116771353Y-42527937D01*
X116791912Y-42520581D01*
X116813092Y-42515275D01*
X116834691Y-42512071D01*
X116856500Y-42511000D01*
X117331500Y-42511000D01*
X117353309Y-42512071D01*
G37*
D20*
X123876800Y-32410400D03*
X120826800Y-32410400D03*
D11*
G36*
X118420109Y-36000471D02*
G01*
X118441708Y-36003675D01*
X118462888Y-36008981D01*
X118483447Y-36016337D01*
X118503186Y-36025673D01*
X118521914Y-36036898D01*
X118539453Y-36049905D01*
X118555631Y-36064569D01*
X118570295Y-36080747D01*
X118583302Y-36098286D01*
X118594527Y-36117014D01*
X118603863Y-36136753D01*
X118611219Y-36157312D01*
X118616525Y-36178492D01*
X118619729Y-36200091D01*
X118620800Y-36221900D01*
X118620800Y-36666900D01*
X118619729Y-36688709D01*
X118616525Y-36710308D01*
X118611219Y-36731488D01*
X118603863Y-36752047D01*
X118594527Y-36771786D01*
X118583302Y-36790514D01*
X118570295Y-36808053D01*
X118555631Y-36824231D01*
X118539453Y-36838895D01*
X118521914Y-36851902D01*
X118503186Y-36863127D01*
X118483447Y-36872463D01*
X118462888Y-36879819D01*
X118441708Y-36885125D01*
X118420109Y-36888329D01*
X118398300Y-36889400D01*
X117923300Y-36889400D01*
X117901491Y-36888329D01*
X117879892Y-36885125D01*
X117858712Y-36879819D01*
X117838153Y-36872463D01*
X117818414Y-36863127D01*
X117799686Y-36851902D01*
X117782147Y-36838895D01*
X117765969Y-36824231D01*
X117751305Y-36808053D01*
X117738298Y-36790514D01*
X117727073Y-36771786D01*
X117717737Y-36752047D01*
X117710381Y-36731488D01*
X117705075Y-36710308D01*
X117701871Y-36688709D01*
X117700800Y-36666900D01*
X117700800Y-36221900D01*
X117701871Y-36200091D01*
X117705075Y-36178492D01*
X117710381Y-36157312D01*
X117717737Y-36136753D01*
X117727073Y-36117014D01*
X117738298Y-36098286D01*
X117751305Y-36080747D01*
X117765969Y-36064569D01*
X117782147Y-36049905D01*
X117799686Y-36036898D01*
X117818414Y-36025673D01*
X117838153Y-36016337D01*
X117858712Y-36008981D01*
X117879892Y-36003675D01*
X117901491Y-36000471D01*
X117923300Y-35999400D01*
X118398300Y-35999400D01*
X118420109Y-36000471D01*
G37*
G36*
X118420109Y-37330471D02*
G01*
X118441708Y-37333675D01*
X118462888Y-37338981D01*
X118483447Y-37346337D01*
X118503186Y-37355673D01*
X118521914Y-37366898D01*
X118539453Y-37379905D01*
X118555631Y-37394569D01*
X118570295Y-37410747D01*
X118583302Y-37428286D01*
X118594527Y-37447014D01*
X118603863Y-37466753D01*
X118611219Y-37487312D01*
X118616525Y-37508492D01*
X118619729Y-37530091D01*
X118620800Y-37551900D01*
X118620800Y-37996900D01*
X118619729Y-38018709D01*
X118616525Y-38040308D01*
X118611219Y-38061488D01*
X118603863Y-38082047D01*
X118594527Y-38101786D01*
X118583302Y-38120514D01*
X118570295Y-38138053D01*
X118555631Y-38154231D01*
X118539453Y-38168895D01*
X118521914Y-38181902D01*
X118503186Y-38193127D01*
X118483447Y-38202463D01*
X118462888Y-38209819D01*
X118441708Y-38215125D01*
X118420109Y-38218329D01*
X118398300Y-38219400D01*
X117923300Y-38219400D01*
X117901491Y-38218329D01*
X117879892Y-38215125D01*
X117858712Y-38209819D01*
X117838153Y-38202463D01*
X117818414Y-38193127D01*
X117799686Y-38181902D01*
X117782147Y-38168895D01*
X117765969Y-38154231D01*
X117751305Y-38138053D01*
X117738298Y-38120514D01*
X117727073Y-38101786D01*
X117717737Y-38082047D01*
X117710381Y-38061488D01*
X117705075Y-38040308D01*
X117701871Y-38018709D01*
X117700800Y-37996900D01*
X117700800Y-37551900D01*
X117701871Y-37530091D01*
X117705075Y-37508492D01*
X117710381Y-37487312D01*
X117717737Y-37466753D01*
X117727073Y-37447014D01*
X117738298Y-37428286D01*
X117751305Y-37410747D01*
X117765969Y-37394569D01*
X117782147Y-37379905D01*
X117799686Y-37366898D01*
X117818414Y-37355673D01*
X117838153Y-37346337D01*
X117858712Y-37338981D01*
X117879892Y-37333675D01*
X117901491Y-37330471D01*
X117923300Y-37329400D01*
X118398300Y-37329400D01*
X118420109Y-37330471D01*
G37*
G36*
X121207400Y-39480000D02*
G01*
X121347400Y-39620000D01*
X121502400Y-39745000D01*
X121672400Y-39855000D01*
X121847400Y-39950000D01*
X122032400Y-40025000D01*
X122227400Y-40080000D01*
X122427400Y-40120000D01*
X122622400Y-40135000D01*
X122792400Y-40135000D01*
X122987400Y-40120000D01*
X123187400Y-40080000D01*
X123382400Y-40025000D01*
X123567400Y-39950000D01*
X123742400Y-39855000D01*
X123912400Y-39745000D01*
X124067400Y-39620000D01*
X124207400Y-39480000D01*
X124352400Y-39305000D01*
X126262400Y-39305000D01*
X126262400Y-41655000D01*
X119152400Y-41655000D01*
X119152400Y-39305000D01*
X121062400Y-39305000D01*
X121207400Y-39480000D01*
G37*
G36*
X124207400Y-36720000D02*
G01*
X124067400Y-36580000D01*
X123912400Y-36455000D01*
X123742400Y-36345000D01*
X123567400Y-36250000D01*
X123382400Y-36175000D01*
X123187400Y-36120000D01*
X122987400Y-36080000D01*
X122792400Y-36065000D01*
X122622400Y-36065000D01*
X122427400Y-36080000D01*
X122227400Y-36120000D01*
X122032400Y-36175000D01*
X121847400Y-36250000D01*
X121672400Y-36345000D01*
X121502400Y-36455000D01*
X121347400Y-36580000D01*
X121207400Y-36720000D01*
X121062400Y-36895000D01*
X119152400Y-36895000D01*
X119152400Y-36055000D01*
X119152399Y-36055000D01*
X119152399Y-34545000D01*
X126262400Y-34545000D01*
X126262400Y-36895000D01*
X124352400Y-36895000D01*
X124207400Y-36720000D01*
G37*
D21*
X122707400Y-38100000D03*
D11*
G36*
X115716012Y-46802698D02*
G01*
X115730088Y-46804786D01*
X115743891Y-46808244D01*
X115757289Y-46813037D01*
X115770153Y-46819121D01*
X115782358Y-46826437D01*
X115793787Y-46834913D01*
X115804330Y-46844470D01*
X115813887Y-46855013D01*
X115822363Y-46866442D01*
X115829679Y-46878647D01*
X115835763Y-46891511D01*
X115840556Y-46904909D01*
X115844014Y-46918712D01*
X115846102Y-46932788D01*
X115846800Y-46947000D01*
X115846800Y-47287000D01*
X115846102Y-47301212D01*
X115844014Y-47315288D01*
X115840556Y-47329091D01*
X115835763Y-47342489D01*
X115829679Y-47355353D01*
X115822363Y-47367558D01*
X115813887Y-47378987D01*
X115804330Y-47389530D01*
X115793787Y-47399087D01*
X115782358Y-47407563D01*
X115770153Y-47414879D01*
X115757289Y-47420963D01*
X115743891Y-47425756D01*
X115730088Y-47429214D01*
X115716012Y-47431302D01*
X115701800Y-47432000D01*
X115411800Y-47432000D01*
X115397588Y-47431302D01*
X115383512Y-47429214D01*
X115369709Y-47425756D01*
X115356311Y-47420963D01*
X115343447Y-47414879D01*
X115331242Y-47407563D01*
X115319813Y-47399087D01*
X115309270Y-47389530D01*
X115299713Y-47378987D01*
X115291237Y-47367558D01*
X115283921Y-47355353D01*
X115277837Y-47342489D01*
X115273044Y-47329091D01*
X115269586Y-47315288D01*
X115267498Y-47301212D01*
X115266800Y-47287000D01*
X115266800Y-46947000D01*
X115267498Y-46932788D01*
X115269586Y-46918712D01*
X115273044Y-46904909D01*
X115277837Y-46891511D01*
X115283921Y-46878647D01*
X115291237Y-46866442D01*
X115299713Y-46855013D01*
X115309270Y-46844470D01*
X115319813Y-46834913D01*
X115331242Y-46826437D01*
X115343447Y-46819121D01*
X115356311Y-46813037D01*
X115369709Y-46808244D01*
X115383512Y-46804786D01*
X115397588Y-46802698D01*
X115411800Y-46802000D01*
X115701800Y-46802000D01*
X115716012Y-46802698D01*
G37*
G36*
X116606012Y-46802698D02*
G01*
X116620088Y-46804786D01*
X116633891Y-46808244D01*
X116647289Y-46813037D01*
X116660153Y-46819121D01*
X116672358Y-46826437D01*
X116683787Y-46834913D01*
X116694330Y-46844470D01*
X116703887Y-46855013D01*
X116712363Y-46866442D01*
X116719679Y-46878647D01*
X116725763Y-46891511D01*
X116730556Y-46904909D01*
X116734014Y-46918712D01*
X116736102Y-46932788D01*
X116736800Y-46947000D01*
X116736800Y-47287000D01*
X116736102Y-47301212D01*
X116734014Y-47315288D01*
X116730556Y-47329091D01*
X116725763Y-47342489D01*
X116719679Y-47355353D01*
X116712363Y-47367558D01*
X116703887Y-47378987D01*
X116694330Y-47389530D01*
X116683787Y-47399087D01*
X116672358Y-47407563D01*
X116660153Y-47414879D01*
X116647289Y-47420963D01*
X116633891Y-47425756D01*
X116620088Y-47429214D01*
X116606012Y-47431302D01*
X116591800Y-47432000D01*
X116301800Y-47432000D01*
X116287588Y-47431302D01*
X116273512Y-47429214D01*
X116259709Y-47425756D01*
X116246311Y-47420963D01*
X116233447Y-47414879D01*
X116221242Y-47407563D01*
X116209813Y-47399087D01*
X116199270Y-47389530D01*
X116189713Y-47378987D01*
X116181237Y-47367558D01*
X116173921Y-47355353D01*
X116167837Y-47342489D01*
X116163044Y-47329091D01*
X116159586Y-47315288D01*
X116157498Y-47301212D01*
X116156800Y-47287000D01*
X116156800Y-46947000D01*
X116157498Y-46932788D01*
X116159586Y-46918712D01*
X116163044Y-46904909D01*
X116167837Y-46891511D01*
X116173921Y-46878647D01*
X116181237Y-46866442D01*
X116189713Y-46855013D01*
X116199270Y-46844470D01*
X116209813Y-46834913D01*
X116221242Y-46826437D01*
X116233447Y-46819121D01*
X116246311Y-46813037D01*
X116259709Y-46808244D01*
X116273512Y-46804786D01*
X116287588Y-46802698D01*
X116301800Y-46802000D01*
X116591800Y-46802000D01*
X116606012Y-46802698D01*
G37*
G36*
X104820412Y-42789498D02*
G01*
X104834488Y-42791586D01*
X104848291Y-42795044D01*
X104861689Y-42799837D01*
X104874553Y-42805921D01*
X104886758Y-42813237D01*
X104898187Y-42821713D01*
X104908730Y-42831270D01*
X104918287Y-42841813D01*
X104926763Y-42853242D01*
X104934079Y-42865447D01*
X104940163Y-42878311D01*
X104944956Y-42891709D01*
X104948414Y-42905512D01*
X104950502Y-42919588D01*
X104951200Y-42933800D01*
X104951200Y-43273800D01*
X104950502Y-43288012D01*
X104948414Y-43302088D01*
X104944956Y-43315891D01*
X104940163Y-43329289D01*
X104934079Y-43342153D01*
X104926763Y-43354358D01*
X104918287Y-43365787D01*
X104908730Y-43376330D01*
X104898187Y-43385887D01*
X104886758Y-43394363D01*
X104874553Y-43401679D01*
X104861689Y-43407763D01*
X104848291Y-43412556D01*
X104834488Y-43416014D01*
X104820412Y-43418102D01*
X104806200Y-43418800D01*
X104516200Y-43418800D01*
X104501988Y-43418102D01*
X104487912Y-43416014D01*
X104474109Y-43412556D01*
X104460711Y-43407763D01*
X104447847Y-43401679D01*
X104435642Y-43394363D01*
X104424213Y-43385887D01*
X104413670Y-43376330D01*
X104404113Y-43365787D01*
X104395637Y-43354358D01*
X104388321Y-43342153D01*
X104382237Y-43329289D01*
X104377444Y-43315891D01*
X104373986Y-43302088D01*
X104371898Y-43288012D01*
X104371200Y-43273800D01*
X104371200Y-42933800D01*
X104371898Y-42919588D01*
X104373986Y-42905512D01*
X104377444Y-42891709D01*
X104382237Y-42878311D01*
X104388321Y-42865447D01*
X104395637Y-42853242D01*
X104404113Y-42841813D01*
X104413670Y-42831270D01*
X104424213Y-42821713D01*
X104435642Y-42813237D01*
X104447847Y-42805921D01*
X104460711Y-42799837D01*
X104474109Y-42795044D01*
X104487912Y-42791586D01*
X104501988Y-42789498D01*
X104516200Y-42788800D01*
X104806200Y-42788800D01*
X104820412Y-42789498D01*
G37*
G36*
X103930412Y-42789498D02*
G01*
X103944488Y-42791586D01*
X103958291Y-42795044D01*
X103971689Y-42799837D01*
X103984553Y-42805921D01*
X103996758Y-42813237D01*
X104008187Y-42821713D01*
X104018730Y-42831270D01*
X104028287Y-42841813D01*
X104036763Y-42853242D01*
X104044079Y-42865447D01*
X104050163Y-42878311D01*
X104054956Y-42891709D01*
X104058414Y-42905512D01*
X104060502Y-42919588D01*
X104061200Y-42933800D01*
X104061200Y-43273800D01*
X104060502Y-43288012D01*
X104058414Y-43302088D01*
X104054956Y-43315891D01*
X104050163Y-43329289D01*
X104044079Y-43342153D01*
X104036763Y-43354358D01*
X104028287Y-43365787D01*
X104018730Y-43376330D01*
X104008187Y-43385887D01*
X103996758Y-43394363D01*
X103984553Y-43401679D01*
X103971689Y-43407763D01*
X103958291Y-43412556D01*
X103944488Y-43416014D01*
X103930412Y-43418102D01*
X103916200Y-43418800D01*
X103626200Y-43418800D01*
X103611988Y-43418102D01*
X103597912Y-43416014D01*
X103584109Y-43412556D01*
X103570711Y-43407763D01*
X103557847Y-43401679D01*
X103545642Y-43394363D01*
X103534213Y-43385887D01*
X103523670Y-43376330D01*
X103514113Y-43365787D01*
X103505637Y-43354358D01*
X103498321Y-43342153D01*
X103492237Y-43329289D01*
X103487444Y-43315891D01*
X103483986Y-43302088D01*
X103481898Y-43288012D01*
X103481200Y-43273800D01*
X103481200Y-42933800D01*
X103481898Y-42919588D01*
X103483986Y-42905512D01*
X103487444Y-42891709D01*
X103492237Y-42878311D01*
X103498321Y-42865447D01*
X103505637Y-42853242D01*
X103514113Y-42841813D01*
X103523670Y-42831270D01*
X103534213Y-42821713D01*
X103545642Y-42813237D01*
X103557847Y-42805921D01*
X103570711Y-42799837D01*
X103584109Y-42795044D01*
X103597912Y-42791586D01*
X103611988Y-42789498D01*
X103626200Y-42788800D01*
X103916200Y-42788800D01*
X103930412Y-42789498D01*
G37*
G36*
X119374612Y-43805498D02*
G01*
X119388688Y-43807586D01*
X119402491Y-43811044D01*
X119415889Y-43815837D01*
X119428753Y-43821921D01*
X119440958Y-43829237D01*
X119452387Y-43837713D01*
X119462930Y-43847270D01*
X119472487Y-43857813D01*
X119480963Y-43869242D01*
X119488279Y-43881447D01*
X119494363Y-43894311D01*
X119499156Y-43907709D01*
X119502614Y-43921512D01*
X119504702Y-43935588D01*
X119505400Y-43949800D01*
X119505400Y-44289800D01*
X119504702Y-44304012D01*
X119502614Y-44318088D01*
X119499156Y-44331891D01*
X119494363Y-44345289D01*
X119488279Y-44358153D01*
X119480963Y-44370358D01*
X119472487Y-44381787D01*
X119462930Y-44392330D01*
X119452387Y-44401887D01*
X119440958Y-44410363D01*
X119428753Y-44417679D01*
X119415889Y-44423763D01*
X119402491Y-44428556D01*
X119388688Y-44432014D01*
X119374612Y-44434102D01*
X119360400Y-44434800D01*
X119070400Y-44434800D01*
X119056188Y-44434102D01*
X119042112Y-44432014D01*
X119028309Y-44428556D01*
X119014911Y-44423763D01*
X119002047Y-44417679D01*
X118989842Y-44410363D01*
X118978413Y-44401887D01*
X118967870Y-44392330D01*
X118958313Y-44381787D01*
X118949837Y-44370358D01*
X118942521Y-44358153D01*
X118936437Y-44345289D01*
X118931644Y-44331891D01*
X118928186Y-44318088D01*
X118926098Y-44304012D01*
X118925400Y-44289800D01*
X118925400Y-43949800D01*
X118926098Y-43935588D01*
X118928186Y-43921512D01*
X118931644Y-43907709D01*
X118936437Y-43894311D01*
X118942521Y-43881447D01*
X118949837Y-43869242D01*
X118958313Y-43857813D01*
X118967870Y-43847270D01*
X118978413Y-43837713D01*
X118989842Y-43829237D01*
X119002047Y-43821921D01*
X119014911Y-43815837D01*
X119028309Y-43811044D01*
X119042112Y-43807586D01*
X119056188Y-43805498D01*
X119070400Y-43804800D01*
X119360400Y-43804800D01*
X119374612Y-43805498D01*
G37*
G36*
X118484612Y-43805498D02*
G01*
X118498688Y-43807586D01*
X118512491Y-43811044D01*
X118525889Y-43815837D01*
X118538753Y-43821921D01*
X118550958Y-43829237D01*
X118562387Y-43837713D01*
X118572930Y-43847270D01*
X118582487Y-43857813D01*
X118590963Y-43869242D01*
X118598279Y-43881447D01*
X118604363Y-43894311D01*
X118609156Y-43907709D01*
X118612614Y-43921512D01*
X118614702Y-43935588D01*
X118615400Y-43949800D01*
X118615400Y-44289800D01*
X118614702Y-44304012D01*
X118612614Y-44318088D01*
X118609156Y-44331891D01*
X118604363Y-44345289D01*
X118598279Y-44358153D01*
X118590963Y-44370358D01*
X118582487Y-44381787D01*
X118572930Y-44392330D01*
X118562387Y-44401887D01*
X118550958Y-44410363D01*
X118538753Y-44417679D01*
X118525889Y-44423763D01*
X118512491Y-44428556D01*
X118498688Y-44432014D01*
X118484612Y-44434102D01*
X118470400Y-44434800D01*
X118180400Y-44434800D01*
X118166188Y-44434102D01*
X118152112Y-44432014D01*
X118138309Y-44428556D01*
X118124911Y-44423763D01*
X118112047Y-44417679D01*
X118099842Y-44410363D01*
X118088413Y-44401887D01*
X118077870Y-44392330D01*
X118068313Y-44381787D01*
X118059837Y-44370358D01*
X118052521Y-44358153D01*
X118046437Y-44345289D01*
X118041644Y-44331891D01*
X118038186Y-44318088D01*
X118036098Y-44304012D01*
X118035400Y-44289800D01*
X118035400Y-43949800D01*
X118036098Y-43935588D01*
X118038186Y-43921512D01*
X118041644Y-43907709D01*
X118046437Y-43894311D01*
X118052521Y-43881447D01*
X118059837Y-43869242D01*
X118068313Y-43857813D01*
X118077870Y-43847270D01*
X118088413Y-43837713D01*
X118099842Y-43829237D01*
X118112047Y-43821921D01*
X118124911Y-43815837D01*
X118138309Y-43811044D01*
X118152112Y-43807586D01*
X118166188Y-43805498D01*
X118180400Y-43804800D01*
X118470400Y-43804800D01*
X118484612Y-43805498D01*
G37*
G36*
X105746612Y-36705298D02*
G01*
X105760688Y-36707386D01*
X105774491Y-36710844D01*
X105787889Y-36715637D01*
X105800753Y-36721721D01*
X105812958Y-36729037D01*
X105824387Y-36737513D01*
X105834930Y-36747070D01*
X105844487Y-36757613D01*
X105852963Y-36769042D01*
X105860279Y-36781247D01*
X105866363Y-36794111D01*
X105871156Y-36807509D01*
X105874614Y-36821312D01*
X105876702Y-36835388D01*
X105877400Y-36849600D01*
X105877400Y-37139600D01*
X105876702Y-37153812D01*
X105874614Y-37167888D01*
X105871156Y-37181691D01*
X105866363Y-37195089D01*
X105860279Y-37207953D01*
X105852963Y-37220158D01*
X105844487Y-37231587D01*
X105834930Y-37242130D01*
X105824387Y-37251687D01*
X105812958Y-37260163D01*
X105800753Y-37267479D01*
X105787889Y-37273563D01*
X105774491Y-37278356D01*
X105760688Y-37281814D01*
X105746612Y-37283902D01*
X105732400Y-37284600D01*
X105392400Y-37284600D01*
X105378188Y-37283902D01*
X105364112Y-37281814D01*
X105350309Y-37278356D01*
X105336911Y-37273563D01*
X105324047Y-37267479D01*
X105311842Y-37260163D01*
X105300413Y-37251687D01*
X105289870Y-37242130D01*
X105280313Y-37231587D01*
X105271837Y-37220158D01*
X105264521Y-37207953D01*
X105258437Y-37195089D01*
X105253644Y-37181691D01*
X105250186Y-37167888D01*
X105248098Y-37153812D01*
X105247400Y-37139600D01*
X105247400Y-36849600D01*
X105248098Y-36835388D01*
X105250186Y-36821312D01*
X105253644Y-36807509D01*
X105258437Y-36794111D01*
X105264521Y-36781247D01*
X105271837Y-36769042D01*
X105280313Y-36757613D01*
X105289870Y-36747070D01*
X105300413Y-36737513D01*
X105311842Y-36729037D01*
X105324047Y-36721721D01*
X105336911Y-36715637D01*
X105350309Y-36710844D01*
X105364112Y-36707386D01*
X105378188Y-36705298D01*
X105392400Y-36704600D01*
X105732400Y-36704600D01*
X105746612Y-36705298D01*
G37*
G36*
X105746612Y-37595298D02*
G01*
X105760688Y-37597386D01*
X105774491Y-37600844D01*
X105787889Y-37605637D01*
X105800753Y-37611721D01*
X105812958Y-37619037D01*
X105824387Y-37627513D01*
X105834930Y-37637070D01*
X105844487Y-37647613D01*
X105852963Y-37659042D01*
X105860279Y-37671247D01*
X105866363Y-37684111D01*
X105871156Y-37697509D01*
X105874614Y-37711312D01*
X105876702Y-37725388D01*
X105877400Y-37739600D01*
X105877400Y-38029600D01*
X105876702Y-38043812D01*
X105874614Y-38057888D01*
X105871156Y-38071691D01*
X105866363Y-38085089D01*
X105860279Y-38097953D01*
X105852963Y-38110158D01*
X105844487Y-38121587D01*
X105834930Y-38132130D01*
X105824387Y-38141687D01*
X105812958Y-38150163D01*
X105800753Y-38157479D01*
X105787889Y-38163563D01*
X105774491Y-38168356D01*
X105760688Y-38171814D01*
X105746612Y-38173902D01*
X105732400Y-38174600D01*
X105392400Y-38174600D01*
X105378188Y-38173902D01*
X105364112Y-38171814D01*
X105350309Y-38168356D01*
X105336911Y-38163563D01*
X105324047Y-38157479D01*
X105311842Y-38150163D01*
X105300413Y-38141687D01*
X105289870Y-38132130D01*
X105280313Y-38121587D01*
X105271837Y-38110158D01*
X105264521Y-38097953D01*
X105258437Y-38085089D01*
X105253644Y-38071691D01*
X105250186Y-38057888D01*
X105248098Y-38043812D01*
X105247400Y-38029600D01*
X105247400Y-37739600D01*
X105248098Y-37725388D01*
X105250186Y-37711312D01*
X105253644Y-37697509D01*
X105258437Y-37684111D01*
X105264521Y-37671247D01*
X105271837Y-37659042D01*
X105280313Y-37647613D01*
X105289870Y-37637070D01*
X105300413Y-37627513D01*
X105311842Y-37619037D01*
X105324047Y-37611721D01*
X105336911Y-37605637D01*
X105350309Y-37600844D01*
X105364112Y-37597386D01*
X105378188Y-37595298D01*
X105392400Y-37594600D01*
X105732400Y-37594600D01*
X105746612Y-37595298D01*
G37*
G36*
X104806812Y-36705298D02*
G01*
X104820888Y-36707386D01*
X104834691Y-36710844D01*
X104848089Y-36715637D01*
X104860953Y-36721721D01*
X104873158Y-36729037D01*
X104884587Y-36737513D01*
X104895130Y-36747070D01*
X104904687Y-36757613D01*
X104913163Y-36769042D01*
X104920479Y-36781247D01*
X104926563Y-36794111D01*
X104931356Y-36807509D01*
X104934814Y-36821312D01*
X104936902Y-36835388D01*
X104937600Y-36849600D01*
X104937600Y-37139600D01*
X104936902Y-37153812D01*
X104934814Y-37167888D01*
X104931356Y-37181691D01*
X104926563Y-37195089D01*
X104920479Y-37207953D01*
X104913163Y-37220158D01*
X104904687Y-37231587D01*
X104895130Y-37242130D01*
X104884587Y-37251687D01*
X104873158Y-37260163D01*
X104860953Y-37267479D01*
X104848089Y-37273563D01*
X104834691Y-37278356D01*
X104820888Y-37281814D01*
X104806812Y-37283902D01*
X104792600Y-37284600D01*
X104452600Y-37284600D01*
X104438388Y-37283902D01*
X104424312Y-37281814D01*
X104410509Y-37278356D01*
X104397111Y-37273563D01*
X104384247Y-37267479D01*
X104372042Y-37260163D01*
X104360613Y-37251687D01*
X104350070Y-37242130D01*
X104340513Y-37231587D01*
X104332037Y-37220158D01*
X104324721Y-37207953D01*
X104318637Y-37195089D01*
X104313844Y-37181691D01*
X104310386Y-37167888D01*
X104308298Y-37153812D01*
X104307600Y-37139600D01*
X104307600Y-36849600D01*
X104308298Y-36835388D01*
X104310386Y-36821312D01*
X104313844Y-36807509D01*
X104318637Y-36794111D01*
X104324721Y-36781247D01*
X104332037Y-36769042D01*
X104340513Y-36757613D01*
X104350070Y-36747070D01*
X104360613Y-36737513D01*
X104372042Y-36729037D01*
X104384247Y-36721721D01*
X104397111Y-36715637D01*
X104410509Y-36710844D01*
X104424312Y-36707386D01*
X104438388Y-36705298D01*
X104452600Y-36704600D01*
X104792600Y-36704600D01*
X104806812Y-36705298D01*
G37*
G36*
X104806812Y-37595298D02*
G01*
X104820888Y-37597386D01*
X104834691Y-37600844D01*
X104848089Y-37605637D01*
X104860953Y-37611721D01*
X104873158Y-37619037D01*
X104884587Y-37627513D01*
X104895130Y-37637070D01*
X104904687Y-37647613D01*
X104913163Y-37659042D01*
X104920479Y-37671247D01*
X104926563Y-37684111D01*
X104931356Y-37697509D01*
X104934814Y-37711312D01*
X104936902Y-37725388D01*
X104937600Y-37739600D01*
X104937600Y-38029600D01*
X104936902Y-38043812D01*
X104934814Y-38057888D01*
X104931356Y-38071691D01*
X104926563Y-38085089D01*
X104920479Y-38097953D01*
X104913163Y-38110158D01*
X104904687Y-38121587D01*
X104895130Y-38132130D01*
X104884587Y-38141687D01*
X104873158Y-38150163D01*
X104860953Y-38157479D01*
X104848089Y-38163563D01*
X104834691Y-38168356D01*
X104820888Y-38171814D01*
X104806812Y-38173902D01*
X104792600Y-38174600D01*
X104452600Y-38174600D01*
X104438388Y-38173902D01*
X104424312Y-38171814D01*
X104410509Y-38168356D01*
X104397111Y-38163563D01*
X104384247Y-38157479D01*
X104372042Y-38150163D01*
X104360613Y-38141687D01*
X104350070Y-38132130D01*
X104340513Y-38121587D01*
X104332037Y-38110158D01*
X104324721Y-38097953D01*
X104318637Y-38085089D01*
X104313844Y-38071691D01*
X104310386Y-38057888D01*
X104308298Y-38043812D01*
X104307600Y-38029600D01*
X104307600Y-37739600D01*
X104308298Y-37725388D01*
X104310386Y-37711312D01*
X104313844Y-37697509D01*
X104318637Y-37684111D01*
X104324721Y-37671247D01*
X104332037Y-37659042D01*
X104340513Y-37647613D01*
X104350070Y-37637070D01*
X104360613Y-37627513D01*
X104372042Y-37619037D01*
X104384247Y-37611721D01*
X104397111Y-37605637D01*
X104410509Y-37600844D01*
X104424312Y-37597386D01*
X104438388Y-37595298D01*
X104452600Y-37594600D01*
X104792600Y-37594600D01*
X104806812Y-37595298D01*
G37*
G36*
X108121512Y-32526998D02*
G01*
X108135588Y-32529086D01*
X108149391Y-32532544D01*
X108162789Y-32537337D01*
X108175653Y-32543421D01*
X108187858Y-32550737D01*
X108199287Y-32559213D01*
X108209830Y-32568770D01*
X108219387Y-32579313D01*
X108227863Y-32590742D01*
X108235179Y-32602947D01*
X108241263Y-32615811D01*
X108246056Y-32629209D01*
X108249514Y-32643012D01*
X108251602Y-32657088D01*
X108252300Y-32671300D01*
X108252300Y-32961300D01*
X108251602Y-32975512D01*
X108249514Y-32989588D01*
X108246056Y-33003391D01*
X108241263Y-33016789D01*
X108235179Y-33029653D01*
X108227863Y-33041858D01*
X108219387Y-33053287D01*
X108209830Y-33063830D01*
X108199287Y-33073387D01*
X108187858Y-33081863D01*
X108175653Y-33089179D01*
X108162789Y-33095263D01*
X108149391Y-33100056D01*
X108135588Y-33103514D01*
X108121512Y-33105602D01*
X108107300Y-33106300D01*
X107767300Y-33106300D01*
X107753088Y-33105602D01*
X107739012Y-33103514D01*
X107725209Y-33100056D01*
X107711811Y-33095263D01*
X107698947Y-33089179D01*
X107686742Y-33081863D01*
X107675313Y-33073387D01*
X107664770Y-33063830D01*
X107655213Y-33053287D01*
X107646737Y-33041858D01*
X107639421Y-33029653D01*
X107633337Y-33016789D01*
X107628544Y-33003391D01*
X107625086Y-32989588D01*
X107622998Y-32975512D01*
X107622300Y-32961300D01*
X107622300Y-32671300D01*
X107622998Y-32657088D01*
X107625086Y-32643012D01*
X107628544Y-32629209D01*
X107633337Y-32615811D01*
X107639421Y-32602947D01*
X107646737Y-32590742D01*
X107655213Y-32579313D01*
X107664770Y-32568770D01*
X107675313Y-32559213D01*
X107686742Y-32550737D01*
X107698947Y-32543421D01*
X107711811Y-32537337D01*
X107725209Y-32532544D01*
X107739012Y-32529086D01*
X107753088Y-32526998D01*
X107767300Y-32526300D01*
X108107300Y-32526300D01*
X108121512Y-32526998D01*
G37*
G36*
X108121512Y-33416998D02*
G01*
X108135588Y-33419086D01*
X108149391Y-33422544D01*
X108162789Y-33427337D01*
X108175653Y-33433421D01*
X108187858Y-33440737D01*
X108199287Y-33449213D01*
X108209830Y-33458770D01*
X108219387Y-33469313D01*
X108227863Y-33480742D01*
X108235179Y-33492947D01*
X108241263Y-33505811D01*
X108246056Y-33519209D01*
X108249514Y-33533012D01*
X108251602Y-33547088D01*
X108252300Y-33561300D01*
X108252300Y-33851300D01*
X108251602Y-33865512D01*
X108249514Y-33879588D01*
X108246056Y-33893391D01*
X108241263Y-33906789D01*
X108235179Y-33919653D01*
X108227863Y-33931858D01*
X108219387Y-33943287D01*
X108209830Y-33953830D01*
X108199287Y-33963387D01*
X108187858Y-33971863D01*
X108175653Y-33979179D01*
X108162789Y-33985263D01*
X108149391Y-33990056D01*
X108135588Y-33993514D01*
X108121512Y-33995602D01*
X108107300Y-33996300D01*
X107767300Y-33996300D01*
X107753088Y-33995602D01*
X107739012Y-33993514D01*
X107725209Y-33990056D01*
X107711811Y-33985263D01*
X107698947Y-33979179D01*
X107686742Y-33971863D01*
X107675313Y-33963387D01*
X107664770Y-33953830D01*
X107655213Y-33943287D01*
X107646737Y-33931858D01*
X107639421Y-33919653D01*
X107633337Y-33906789D01*
X107628544Y-33893391D01*
X107625086Y-33879588D01*
X107622998Y-33865512D01*
X107622300Y-33851300D01*
X107622300Y-33561300D01*
X107622998Y-33547088D01*
X107625086Y-33533012D01*
X107628544Y-33519209D01*
X107633337Y-33505811D01*
X107639421Y-33492947D01*
X107646737Y-33480742D01*
X107655213Y-33469313D01*
X107664770Y-33458770D01*
X107675313Y-33449213D01*
X107686742Y-33440737D01*
X107698947Y-33433421D01*
X107711811Y-33427337D01*
X107725209Y-33422544D01*
X107739012Y-33419086D01*
X107753088Y-33416998D01*
X107767300Y-33416300D01*
X108107300Y-33416300D01*
X108121512Y-33416998D01*
G37*
G36*
X107181712Y-32526998D02*
G01*
X107195788Y-32529086D01*
X107209591Y-32532544D01*
X107222989Y-32537337D01*
X107235853Y-32543421D01*
X107248058Y-32550737D01*
X107259487Y-32559213D01*
X107270030Y-32568770D01*
X107279587Y-32579313D01*
X107288063Y-32590742D01*
X107295379Y-32602947D01*
X107301463Y-32615811D01*
X107306256Y-32629209D01*
X107309714Y-32643012D01*
X107311802Y-32657088D01*
X107312500Y-32671300D01*
X107312500Y-32961300D01*
X107311802Y-32975512D01*
X107309714Y-32989588D01*
X107306256Y-33003391D01*
X107301463Y-33016789D01*
X107295379Y-33029653D01*
X107288063Y-33041858D01*
X107279587Y-33053287D01*
X107270030Y-33063830D01*
X107259487Y-33073387D01*
X107248058Y-33081863D01*
X107235853Y-33089179D01*
X107222989Y-33095263D01*
X107209591Y-33100056D01*
X107195788Y-33103514D01*
X107181712Y-33105602D01*
X107167500Y-33106300D01*
X106827500Y-33106300D01*
X106813288Y-33105602D01*
X106799212Y-33103514D01*
X106785409Y-33100056D01*
X106772011Y-33095263D01*
X106759147Y-33089179D01*
X106746942Y-33081863D01*
X106735513Y-33073387D01*
X106724970Y-33063830D01*
X106715413Y-33053287D01*
X106706937Y-33041858D01*
X106699621Y-33029653D01*
X106693537Y-33016789D01*
X106688744Y-33003391D01*
X106685286Y-32989588D01*
X106683198Y-32975512D01*
X106682500Y-32961300D01*
X106682500Y-32671300D01*
X106683198Y-32657088D01*
X106685286Y-32643012D01*
X106688744Y-32629209D01*
X106693537Y-32615811D01*
X106699621Y-32602947D01*
X106706937Y-32590742D01*
X106715413Y-32579313D01*
X106724970Y-32568770D01*
X106735513Y-32559213D01*
X106746942Y-32550737D01*
X106759147Y-32543421D01*
X106772011Y-32537337D01*
X106785409Y-32532544D01*
X106799212Y-32529086D01*
X106813288Y-32526998D01*
X106827500Y-32526300D01*
X107167500Y-32526300D01*
X107181712Y-32526998D01*
G37*
G36*
X107181712Y-33416998D02*
G01*
X107195788Y-33419086D01*
X107209591Y-33422544D01*
X107222989Y-33427337D01*
X107235853Y-33433421D01*
X107248058Y-33440737D01*
X107259487Y-33449213D01*
X107270030Y-33458770D01*
X107279587Y-33469313D01*
X107288063Y-33480742D01*
X107295379Y-33492947D01*
X107301463Y-33505811D01*
X107306256Y-33519209D01*
X107309714Y-33533012D01*
X107311802Y-33547088D01*
X107312500Y-33561300D01*
X107312500Y-33851300D01*
X107311802Y-33865512D01*
X107309714Y-33879588D01*
X107306256Y-33893391D01*
X107301463Y-33906789D01*
X107295379Y-33919653D01*
X107288063Y-33931858D01*
X107279587Y-33943287D01*
X107270030Y-33953830D01*
X107259487Y-33963387D01*
X107248058Y-33971863D01*
X107235853Y-33979179D01*
X107222989Y-33985263D01*
X107209591Y-33990056D01*
X107195788Y-33993514D01*
X107181712Y-33995602D01*
X107167500Y-33996300D01*
X106827500Y-33996300D01*
X106813288Y-33995602D01*
X106799212Y-33993514D01*
X106785409Y-33990056D01*
X106772011Y-33985263D01*
X106759147Y-33979179D01*
X106746942Y-33971863D01*
X106735513Y-33963387D01*
X106724970Y-33953830D01*
X106715413Y-33943287D01*
X106706937Y-33931858D01*
X106699621Y-33919653D01*
X106693537Y-33906789D01*
X106688744Y-33893391D01*
X106685286Y-33879588D01*
X106683198Y-33865512D01*
X106682500Y-33851300D01*
X106682500Y-33561300D01*
X106683198Y-33547088D01*
X106685286Y-33533012D01*
X106688744Y-33519209D01*
X106693537Y-33505811D01*
X106699621Y-33492947D01*
X106706937Y-33480742D01*
X106715413Y-33469313D01*
X106724970Y-33458770D01*
X106735513Y-33449213D01*
X106746942Y-33440737D01*
X106759147Y-33433421D01*
X106772011Y-33427337D01*
X106785409Y-33422544D01*
X106799212Y-33419086D01*
X106813288Y-33416998D01*
X106827500Y-33416300D01*
X107167500Y-33416300D01*
X107181712Y-33416998D01*
G37*
G36*
X115271612Y-33962098D02*
G01*
X115285688Y-33964186D01*
X115299491Y-33967644D01*
X115312889Y-33972437D01*
X115325753Y-33978521D01*
X115337958Y-33985837D01*
X115349387Y-33994313D01*
X115359930Y-34003870D01*
X115369487Y-34014413D01*
X115377963Y-34025842D01*
X115385279Y-34038047D01*
X115391363Y-34050911D01*
X115396156Y-34064309D01*
X115399614Y-34078112D01*
X115401702Y-34092188D01*
X115402400Y-34106400D01*
X115402400Y-34396400D01*
X115401702Y-34410612D01*
X115399614Y-34424688D01*
X115396156Y-34438491D01*
X115391363Y-34451889D01*
X115385279Y-34464753D01*
X115377963Y-34476958D01*
X115369487Y-34488387D01*
X115359930Y-34498930D01*
X115349387Y-34508487D01*
X115337958Y-34516963D01*
X115325753Y-34524279D01*
X115312889Y-34530363D01*
X115299491Y-34535156D01*
X115285688Y-34538614D01*
X115271612Y-34540702D01*
X115257400Y-34541400D01*
X114917400Y-34541400D01*
X114903188Y-34540702D01*
X114889112Y-34538614D01*
X114875309Y-34535156D01*
X114861911Y-34530363D01*
X114849047Y-34524279D01*
X114836842Y-34516963D01*
X114825413Y-34508487D01*
X114814870Y-34498930D01*
X114805313Y-34488387D01*
X114796837Y-34476958D01*
X114789521Y-34464753D01*
X114783437Y-34451889D01*
X114778644Y-34438491D01*
X114775186Y-34424688D01*
X114773098Y-34410612D01*
X114772400Y-34396400D01*
X114772400Y-34106400D01*
X114773098Y-34092188D01*
X114775186Y-34078112D01*
X114778644Y-34064309D01*
X114783437Y-34050911D01*
X114789521Y-34038047D01*
X114796837Y-34025842D01*
X114805313Y-34014413D01*
X114814870Y-34003870D01*
X114825413Y-33994313D01*
X114836842Y-33985837D01*
X114849047Y-33978521D01*
X114861911Y-33972437D01*
X114875309Y-33967644D01*
X114889112Y-33964186D01*
X114903188Y-33962098D01*
X114917400Y-33961400D01*
X115257400Y-33961400D01*
X115271612Y-33962098D01*
G37*
G36*
X115271612Y-34852098D02*
G01*
X115285688Y-34854186D01*
X115299491Y-34857644D01*
X115312889Y-34862437D01*
X115325753Y-34868521D01*
X115337958Y-34875837D01*
X115349387Y-34884313D01*
X115359930Y-34893870D01*
X115369487Y-34904413D01*
X115377963Y-34915842D01*
X115385279Y-34928047D01*
X115391363Y-34940911D01*
X115396156Y-34954309D01*
X115399614Y-34968112D01*
X115401702Y-34982188D01*
X115402400Y-34996400D01*
X115402400Y-35286400D01*
X115401702Y-35300612D01*
X115399614Y-35314688D01*
X115396156Y-35328491D01*
X115391363Y-35341889D01*
X115385279Y-35354753D01*
X115377963Y-35366958D01*
X115369487Y-35378387D01*
X115359930Y-35388930D01*
X115349387Y-35398487D01*
X115337958Y-35406963D01*
X115325753Y-35414279D01*
X115312889Y-35420363D01*
X115299491Y-35425156D01*
X115285688Y-35428614D01*
X115271612Y-35430702D01*
X115257400Y-35431400D01*
X114917400Y-35431400D01*
X114903188Y-35430702D01*
X114889112Y-35428614D01*
X114875309Y-35425156D01*
X114861911Y-35420363D01*
X114849047Y-35414279D01*
X114836842Y-35406963D01*
X114825413Y-35398487D01*
X114814870Y-35388930D01*
X114805313Y-35378387D01*
X114796837Y-35366958D01*
X114789521Y-35354753D01*
X114783437Y-35341889D01*
X114778644Y-35328491D01*
X114775186Y-35314688D01*
X114773098Y-35300612D01*
X114772400Y-35286400D01*
X114772400Y-34996400D01*
X114773098Y-34982188D01*
X114775186Y-34968112D01*
X114778644Y-34954309D01*
X114783437Y-34940911D01*
X114789521Y-34928047D01*
X114796837Y-34915842D01*
X114805313Y-34904413D01*
X114814870Y-34893870D01*
X114825413Y-34884313D01*
X114836842Y-34875837D01*
X114849047Y-34868521D01*
X114861911Y-34862437D01*
X114875309Y-34857644D01*
X114889112Y-34854186D01*
X114903188Y-34852098D01*
X114917400Y-34851400D01*
X115257400Y-34851400D01*
X115271612Y-34852098D01*
G37*
G36*
X115297012Y-35714698D02*
G01*
X115311088Y-35716786D01*
X115324891Y-35720244D01*
X115338289Y-35725037D01*
X115351153Y-35731121D01*
X115363358Y-35738437D01*
X115374787Y-35746913D01*
X115385330Y-35756470D01*
X115394887Y-35767013D01*
X115403363Y-35778442D01*
X115410679Y-35790647D01*
X115416763Y-35803511D01*
X115421556Y-35816909D01*
X115425014Y-35830712D01*
X115427102Y-35844788D01*
X115427800Y-35859000D01*
X115427800Y-36149000D01*
X115427102Y-36163212D01*
X115425014Y-36177288D01*
X115421556Y-36191091D01*
X115416763Y-36204489D01*
X115410679Y-36217353D01*
X115403363Y-36229558D01*
X115394887Y-36240987D01*
X115385330Y-36251530D01*
X115374787Y-36261087D01*
X115363358Y-36269563D01*
X115351153Y-36276879D01*
X115338289Y-36282963D01*
X115324891Y-36287756D01*
X115311088Y-36291214D01*
X115297012Y-36293302D01*
X115282800Y-36294000D01*
X114942800Y-36294000D01*
X114928588Y-36293302D01*
X114914512Y-36291214D01*
X114900709Y-36287756D01*
X114887311Y-36282963D01*
X114874447Y-36276879D01*
X114862242Y-36269563D01*
X114850813Y-36261087D01*
X114840270Y-36251530D01*
X114830713Y-36240987D01*
X114822237Y-36229558D01*
X114814921Y-36217353D01*
X114808837Y-36204489D01*
X114804044Y-36191091D01*
X114800586Y-36177288D01*
X114798498Y-36163212D01*
X114797800Y-36149000D01*
X114797800Y-35859000D01*
X114798498Y-35844788D01*
X114800586Y-35830712D01*
X114804044Y-35816909D01*
X114808837Y-35803511D01*
X114814921Y-35790647D01*
X114822237Y-35778442D01*
X114830713Y-35767013D01*
X114840270Y-35756470D01*
X114850813Y-35746913D01*
X114862242Y-35738437D01*
X114874447Y-35731121D01*
X114887311Y-35725037D01*
X114900709Y-35720244D01*
X114914512Y-35716786D01*
X114928588Y-35714698D01*
X114942800Y-35714000D01*
X115282800Y-35714000D01*
X115297012Y-35714698D01*
G37*
G36*
X115297012Y-36604698D02*
G01*
X115311088Y-36606786D01*
X115324891Y-36610244D01*
X115338289Y-36615037D01*
X115351153Y-36621121D01*
X115363358Y-36628437D01*
X115374787Y-36636913D01*
X115385330Y-36646470D01*
X115394887Y-36657013D01*
X115403363Y-36668442D01*
X115410679Y-36680647D01*
X115416763Y-36693511D01*
X115421556Y-36706909D01*
X115425014Y-36720712D01*
X115427102Y-36734788D01*
X115427800Y-36749000D01*
X115427800Y-37039000D01*
X115427102Y-37053212D01*
X115425014Y-37067288D01*
X115421556Y-37081091D01*
X115416763Y-37094489D01*
X115410679Y-37107353D01*
X115403363Y-37119558D01*
X115394887Y-37130987D01*
X115385330Y-37141530D01*
X115374787Y-37151087D01*
X115363358Y-37159563D01*
X115351153Y-37166879D01*
X115338289Y-37172963D01*
X115324891Y-37177756D01*
X115311088Y-37181214D01*
X115297012Y-37183302D01*
X115282800Y-37184000D01*
X114942800Y-37184000D01*
X114928588Y-37183302D01*
X114914512Y-37181214D01*
X114900709Y-37177756D01*
X114887311Y-37172963D01*
X114874447Y-37166879D01*
X114862242Y-37159563D01*
X114850813Y-37151087D01*
X114840270Y-37141530D01*
X114830713Y-37130987D01*
X114822237Y-37119558D01*
X114814921Y-37107353D01*
X114808837Y-37094489D01*
X114804044Y-37081091D01*
X114800586Y-37067288D01*
X114798498Y-37053212D01*
X114797800Y-37039000D01*
X114797800Y-36749000D01*
X114798498Y-36734788D01*
X114800586Y-36720712D01*
X114804044Y-36706909D01*
X114808837Y-36693511D01*
X114814921Y-36680647D01*
X114822237Y-36668442D01*
X114830713Y-36657013D01*
X114840270Y-36646470D01*
X114850813Y-36636913D01*
X114862242Y-36628437D01*
X114874447Y-36621121D01*
X114887311Y-36615037D01*
X114900709Y-36610244D01*
X114914512Y-36606786D01*
X114928588Y-36604698D01*
X114942800Y-36604000D01*
X115282800Y-36604000D01*
X115297012Y-36604698D01*
G37*
G36*
X114357212Y-35714698D02*
G01*
X114371288Y-35716786D01*
X114385091Y-35720244D01*
X114398489Y-35725037D01*
X114411353Y-35731121D01*
X114423558Y-35738437D01*
X114434987Y-35746913D01*
X114445530Y-35756470D01*
X114455087Y-35767013D01*
X114463563Y-35778442D01*
X114470879Y-35790647D01*
X114476963Y-35803511D01*
X114481756Y-35816909D01*
X114485214Y-35830712D01*
X114487302Y-35844788D01*
X114488000Y-35859000D01*
X114488000Y-36149000D01*
X114487302Y-36163212D01*
X114485214Y-36177288D01*
X114481756Y-36191091D01*
X114476963Y-36204489D01*
X114470879Y-36217353D01*
X114463563Y-36229558D01*
X114455087Y-36240987D01*
X114445530Y-36251530D01*
X114434987Y-36261087D01*
X114423558Y-36269563D01*
X114411353Y-36276879D01*
X114398489Y-36282963D01*
X114385091Y-36287756D01*
X114371288Y-36291214D01*
X114357212Y-36293302D01*
X114343000Y-36294000D01*
X114003000Y-36294000D01*
X113988788Y-36293302D01*
X113974712Y-36291214D01*
X113960909Y-36287756D01*
X113947511Y-36282963D01*
X113934647Y-36276879D01*
X113922442Y-36269563D01*
X113911013Y-36261087D01*
X113900470Y-36251530D01*
X113890913Y-36240987D01*
X113882437Y-36229558D01*
X113875121Y-36217353D01*
X113869037Y-36204489D01*
X113864244Y-36191091D01*
X113860786Y-36177288D01*
X113858698Y-36163212D01*
X113858000Y-36149000D01*
X113858000Y-35859000D01*
X113858698Y-35844788D01*
X113860786Y-35830712D01*
X113864244Y-35816909D01*
X113869037Y-35803511D01*
X113875121Y-35790647D01*
X113882437Y-35778442D01*
X113890913Y-35767013D01*
X113900470Y-35756470D01*
X113911013Y-35746913D01*
X113922442Y-35738437D01*
X113934647Y-35731121D01*
X113947511Y-35725037D01*
X113960909Y-35720244D01*
X113974712Y-35716786D01*
X113988788Y-35714698D01*
X114003000Y-35714000D01*
X114343000Y-35714000D01*
X114357212Y-35714698D01*
G37*
G36*
X114357212Y-36604698D02*
G01*
X114371288Y-36606786D01*
X114385091Y-36610244D01*
X114398489Y-36615037D01*
X114411353Y-36621121D01*
X114423558Y-36628437D01*
X114434987Y-36636913D01*
X114445530Y-36646470D01*
X114455087Y-36657013D01*
X114463563Y-36668442D01*
X114470879Y-36680647D01*
X114476963Y-36693511D01*
X114481756Y-36706909D01*
X114485214Y-36720712D01*
X114487302Y-36734788D01*
X114488000Y-36749000D01*
X114488000Y-37039000D01*
X114487302Y-37053212D01*
X114485214Y-37067288D01*
X114481756Y-37081091D01*
X114476963Y-37094489D01*
X114470879Y-37107353D01*
X114463563Y-37119558D01*
X114455087Y-37130987D01*
X114445530Y-37141530D01*
X114434987Y-37151087D01*
X114423558Y-37159563D01*
X114411353Y-37166879D01*
X114398489Y-37172963D01*
X114385091Y-37177756D01*
X114371288Y-37181214D01*
X114357212Y-37183302D01*
X114343000Y-37184000D01*
X114003000Y-37184000D01*
X113988788Y-37183302D01*
X113974712Y-37181214D01*
X113960909Y-37177756D01*
X113947511Y-37172963D01*
X113934647Y-37166879D01*
X113922442Y-37159563D01*
X113911013Y-37151087D01*
X113900470Y-37141530D01*
X113890913Y-37130987D01*
X113882437Y-37119558D01*
X113875121Y-37107353D01*
X113869037Y-37094489D01*
X113864244Y-37081091D01*
X113860786Y-37067288D01*
X113858698Y-37053212D01*
X113858000Y-37039000D01*
X113858000Y-36749000D01*
X113858698Y-36734788D01*
X113860786Y-36720712D01*
X113864244Y-36706909D01*
X113869037Y-36693511D01*
X113875121Y-36680647D01*
X113882437Y-36668442D01*
X113890913Y-36657013D01*
X113900470Y-36646470D01*
X113911013Y-36636913D01*
X113922442Y-36628437D01*
X113934647Y-36621121D01*
X113947511Y-36615037D01*
X113960909Y-36610244D01*
X113974712Y-36606786D01*
X113988788Y-36604698D01*
X114003000Y-36604000D01*
X114343000Y-36604000D01*
X114357212Y-36604698D01*
G37*
G36*
X115183612Y-38395298D02*
G01*
X115197688Y-38397386D01*
X115211491Y-38400844D01*
X115224889Y-38405637D01*
X115237753Y-38411721D01*
X115249958Y-38419037D01*
X115261387Y-38427513D01*
X115271930Y-38437070D01*
X115281487Y-38447613D01*
X115289963Y-38459042D01*
X115297279Y-38471247D01*
X115303363Y-38484111D01*
X115308156Y-38497509D01*
X115311614Y-38511312D01*
X115313702Y-38525388D01*
X115314400Y-38539600D01*
X115314400Y-38879600D01*
X115313702Y-38893812D01*
X115311614Y-38907888D01*
X115308156Y-38921691D01*
X115303363Y-38935089D01*
X115297279Y-38947953D01*
X115289963Y-38960158D01*
X115281487Y-38971587D01*
X115271930Y-38982130D01*
X115261387Y-38991687D01*
X115249958Y-39000163D01*
X115237753Y-39007479D01*
X115224889Y-39013563D01*
X115211491Y-39018356D01*
X115197688Y-39021814D01*
X115183612Y-39023902D01*
X115169400Y-39024600D01*
X114879400Y-39024600D01*
X114865188Y-39023902D01*
X114851112Y-39021814D01*
X114837309Y-39018356D01*
X114823911Y-39013563D01*
X114811047Y-39007479D01*
X114798842Y-39000163D01*
X114787413Y-38991687D01*
X114776870Y-38982130D01*
X114767313Y-38971587D01*
X114758837Y-38960158D01*
X114751521Y-38947953D01*
X114745437Y-38935089D01*
X114740644Y-38921691D01*
X114737186Y-38907888D01*
X114735098Y-38893812D01*
X114734400Y-38879600D01*
X114734400Y-38539600D01*
X114735098Y-38525388D01*
X114737186Y-38511312D01*
X114740644Y-38497509D01*
X114745437Y-38484111D01*
X114751521Y-38471247D01*
X114758837Y-38459042D01*
X114767313Y-38447613D01*
X114776870Y-38437070D01*
X114787413Y-38427513D01*
X114798842Y-38419037D01*
X114811047Y-38411721D01*
X114823911Y-38405637D01*
X114837309Y-38400844D01*
X114851112Y-38397386D01*
X114865188Y-38395298D01*
X114879400Y-38394600D01*
X115169400Y-38394600D01*
X115183612Y-38395298D01*
G37*
G36*
X114293612Y-38395298D02*
G01*
X114307688Y-38397386D01*
X114321491Y-38400844D01*
X114334889Y-38405637D01*
X114347753Y-38411721D01*
X114359958Y-38419037D01*
X114371387Y-38427513D01*
X114381930Y-38437070D01*
X114391487Y-38447613D01*
X114399963Y-38459042D01*
X114407279Y-38471247D01*
X114413363Y-38484111D01*
X114418156Y-38497509D01*
X114421614Y-38511312D01*
X114423702Y-38525388D01*
X114424400Y-38539600D01*
X114424400Y-38879600D01*
X114423702Y-38893812D01*
X114421614Y-38907888D01*
X114418156Y-38921691D01*
X114413363Y-38935089D01*
X114407279Y-38947953D01*
X114399963Y-38960158D01*
X114391487Y-38971587D01*
X114381930Y-38982130D01*
X114371387Y-38991687D01*
X114359958Y-39000163D01*
X114347753Y-39007479D01*
X114334889Y-39013563D01*
X114321491Y-39018356D01*
X114307688Y-39021814D01*
X114293612Y-39023902D01*
X114279400Y-39024600D01*
X113989400Y-39024600D01*
X113975188Y-39023902D01*
X113961112Y-39021814D01*
X113947309Y-39018356D01*
X113933911Y-39013563D01*
X113921047Y-39007479D01*
X113908842Y-39000163D01*
X113897413Y-38991687D01*
X113886870Y-38982130D01*
X113877313Y-38971587D01*
X113868837Y-38960158D01*
X113861521Y-38947953D01*
X113855437Y-38935089D01*
X113850644Y-38921691D01*
X113847186Y-38907888D01*
X113845098Y-38893812D01*
X113844400Y-38879600D01*
X113844400Y-38539600D01*
X113845098Y-38525388D01*
X113847186Y-38511312D01*
X113850644Y-38497509D01*
X113855437Y-38484111D01*
X113861521Y-38471247D01*
X113868837Y-38459042D01*
X113877313Y-38447613D01*
X113886870Y-38437070D01*
X113897413Y-38427513D01*
X113908842Y-38419037D01*
X113921047Y-38411721D01*
X113933911Y-38405637D01*
X113947309Y-38400844D01*
X113961112Y-38397386D01*
X113975188Y-38395298D01*
X113989400Y-38394600D01*
X114279400Y-38394600D01*
X114293612Y-38395298D01*
G37*
G36*
X115171412Y-37480898D02*
G01*
X115185488Y-37482986D01*
X115199291Y-37486444D01*
X115212689Y-37491237D01*
X115225553Y-37497321D01*
X115237758Y-37504637D01*
X115249187Y-37513113D01*
X115259730Y-37522670D01*
X115269287Y-37533213D01*
X115277763Y-37544642D01*
X115285079Y-37556847D01*
X115291163Y-37569711D01*
X115295956Y-37583109D01*
X115299414Y-37596912D01*
X115301502Y-37610988D01*
X115302200Y-37625200D01*
X115302200Y-37965200D01*
X115301502Y-37979412D01*
X115299414Y-37993488D01*
X115295956Y-38007291D01*
X115291163Y-38020689D01*
X115285079Y-38033553D01*
X115277763Y-38045758D01*
X115269287Y-38057187D01*
X115259730Y-38067730D01*
X115249187Y-38077287D01*
X115237758Y-38085763D01*
X115225553Y-38093079D01*
X115212689Y-38099163D01*
X115199291Y-38103956D01*
X115185488Y-38107414D01*
X115171412Y-38109502D01*
X115157200Y-38110200D01*
X114867200Y-38110200D01*
X114852988Y-38109502D01*
X114838912Y-38107414D01*
X114825109Y-38103956D01*
X114811711Y-38099163D01*
X114798847Y-38093079D01*
X114786642Y-38085763D01*
X114775213Y-38077287D01*
X114764670Y-38067730D01*
X114755113Y-38057187D01*
X114746637Y-38045758D01*
X114739321Y-38033553D01*
X114733237Y-38020689D01*
X114728444Y-38007291D01*
X114724986Y-37993488D01*
X114722898Y-37979412D01*
X114722200Y-37965200D01*
X114722200Y-37625200D01*
X114722898Y-37610988D01*
X114724986Y-37596912D01*
X114728444Y-37583109D01*
X114733237Y-37569711D01*
X114739321Y-37556847D01*
X114746637Y-37544642D01*
X114755113Y-37533213D01*
X114764670Y-37522670D01*
X114775213Y-37513113D01*
X114786642Y-37504637D01*
X114798847Y-37497321D01*
X114811711Y-37491237D01*
X114825109Y-37486444D01*
X114838912Y-37482986D01*
X114852988Y-37480898D01*
X114867200Y-37480200D01*
X115157200Y-37480200D01*
X115171412Y-37480898D01*
G37*
G36*
X114281412Y-37480898D02*
G01*
X114295488Y-37482986D01*
X114309291Y-37486444D01*
X114322689Y-37491237D01*
X114335553Y-37497321D01*
X114347758Y-37504637D01*
X114359187Y-37513113D01*
X114369730Y-37522670D01*
X114379287Y-37533213D01*
X114387763Y-37544642D01*
X114395079Y-37556847D01*
X114401163Y-37569711D01*
X114405956Y-37583109D01*
X114409414Y-37596912D01*
X114411502Y-37610988D01*
X114412200Y-37625200D01*
X114412200Y-37965200D01*
X114411502Y-37979412D01*
X114409414Y-37993488D01*
X114405956Y-38007291D01*
X114401163Y-38020689D01*
X114395079Y-38033553D01*
X114387763Y-38045758D01*
X114379287Y-38057187D01*
X114369730Y-38067730D01*
X114359187Y-38077287D01*
X114347758Y-38085763D01*
X114335553Y-38093079D01*
X114322689Y-38099163D01*
X114309291Y-38103956D01*
X114295488Y-38107414D01*
X114281412Y-38109502D01*
X114267200Y-38110200D01*
X113977200Y-38110200D01*
X113962988Y-38109502D01*
X113948912Y-38107414D01*
X113935109Y-38103956D01*
X113921711Y-38099163D01*
X113908847Y-38093079D01*
X113896642Y-38085763D01*
X113885213Y-38077287D01*
X113874670Y-38067730D01*
X113865113Y-38057187D01*
X113856637Y-38045758D01*
X113849321Y-38033553D01*
X113843237Y-38020689D01*
X113838444Y-38007291D01*
X113834986Y-37993488D01*
X113832898Y-37979412D01*
X113832200Y-37965200D01*
X113832200Y-37625200D01*
X113832898Y-37610988D01*
X113834986Y-37596912D01*
X113838444Y-37583109D01*
X113843237Y-37569711D01*
X113849321Y-37556847D01*
X113856637Y-37544642D01*
X113865113Y-37533213D01*
X113874670Y-37522670D01*
X113885213Y-37513113D01*
X113896642Y-37504637D01*
X113908847Y-37497321D01*
X113921711Y-37491237D01*
X113935109Y-37486444D01*
X113948912Y-37482986D01*
X113962988Y-37480898D01*
X113977200Y-37480200D01*
X114267200Y-37480200D01*
X114281412Y-37480898D01*
G37*
G36*
X115209012Y-42992698D02*
G01*
X115223088Y-42994786D01*
X115236891Y-42998244D01*
X115250289Y-43003037D01*
X115263153Y-43009121D01*
X115275358Y-43016437D01*
X115286787Y-43024913D01*
X115297330Y-43034470D01*
X115306887Y-43045013D01*
X115315363Y-43056442D01*
X115322679Y-43068647D01*
X115328763Y-43081511D01*
X115333556Y-43094909D01*
X115337014Y-43108712D01*
X115339102Y-43122788D01*
X115339800Y-43137000D01*
X115339800Y-43477000D01*
X115339102Y-43491212D01*
X115337014Y-43505288D01*
X115333556Y-43519091D01*
X115328763Y-43532489D01*
X115322679Y-43545353D01*
X115315363Y-43557558D01*
X115306887Y-43568987D01*
X115297330Y-43579530D01*
X115286787Y-43589087D01*
X115275358Y-43597563D01*
X115263153Y-43604879D01*
X115250289Y-43610963D01*
X115236891Y-43615756D01*
X115223088Y-43619214D01*
X115209012Y-43621302D01*
X115194800Y-43622000D01*
X114904800Y-43622000D01*
X114890588Y-43621302D01*
X114876512Y-43619214D01*
X114862709Y-43615756D01*
X114849311Y-43610963D01*
X114836447Y-43604879D01*
X114824242Y-43597563D01*
X114812813Y-43589087D01*
X114802270Y-43579530D01*
X114792713Y-43568987D01*
X114784237Y-43557558D01*
X114776921Y-43545353D01*
X114770837Y-43532489D01*
X114766044Y-43519091D01*
X114762586Y-43505288D01*
X114760498Y-43491212D01*
X114759800Y-43477000D01*
X114759800Y-43137000D01*
X114760498Y-43122788D01*
X114762586Y-43108712D01*
X114766044Y-43094909D01*
X114770837Y-43081511D01*
X114776921Y-43068647D01*
X114784237Y-43056442D01*
X114792713Y-43045013D01*
X114802270Y-43034470D01*
X114812813Y-43024913D01*
X114824242Y-43016437D01*
X114836447Y-43009121D01*
X114849311Y-43003037D01*
X114862709Y-42998244D01*
X114876512Y-42994786D01*
X114890588Y-42992698D01*
X114904800Y-42992000D01*
X115194800Y-42992000D01*
X115209012Y-42992698D01*
G37*
G36*
X114319012Y-42992698D02*
G01*
X114333088Y-42994786D01*
X114346891Y-42998244D01*
X114360289Y-43003037D01*
X114373153Y-43009121D01*
X114385358Y-43016437D01*
X114396787Y-43024913D01*
X114407330Y-43034470D01*
X114416887Y-43045013D01*
X114425363Y-43056442D01*
X114432679Y-43068647D01*
X114438763Y-43081511D01*
X114443556Y-43094909D01*
X114447014Y-43108712D01*
X114449102Y-43122788D01*
X114449800Y-43137000D01*
X114449800Y-43477000D01*
X114449102Y-43491212D01*
X114447014Y-43505288D01*
X114443556Y-43519091D01*
X114438763Y-43532489D01*
X114432679Y-43545353D01*
X114425363Y-43557558D01*
X114416887Y-43568987D01*
X114407330Y-43579530D01*
X114396787Y-43589087D01*
X114385358Y-43597563D01*
X114373153Y-43604879D01*
X114360289Y-43610963D01*
X114346891Y-43615756D01*
X114333088Y-43619214D01*
X114319012Y-43621302D01*
X114304800Y-43622000D01*
X114014800Y-43622000D01*
X114000588Y-43621302D01*
X113986512Y-43619214D01*
X113972709Y-43615756D01*
X113959311Y-43610963D01*
X113946447Y-43604879D01*
X113934242Y-43597563D01*
X113922813Y-43589087D01*
X113912270Y-43579530D01*
X113902713Y-43568987D01*
X113894237Y-43557558D01*
X113886921Y-43545353D01*
X113880837Y-43532489D01*
X113876044Y-43519091D01*
X113872586Y-43505288D01*
X113870498Y-43491212D01*
X113869800Y-43477000D01*
X113869800Y-43137000D01*
X113870498Y-43122788D01*
X113872586Y-43108712D01*
X113876044Y-43094909D01*
X113880837Y-43081511D01*
X113886921Y-43068647D01*
X113894237Y-43056442D01*
X113902713Y-43045013D01*
X113912270Y-43034470D01*
X113922813Y-43024913D01*
X113934242Y-43016437D01*
X113946447Y-43009121D01*
X113959311Y-43003037D01*
X113972709Y-42998244D01*
X113986512Y-42994786D01*
X114000588Y-42992698D01*
X114014800Y-42992000D01*
X114304800Y-42992000D01*
X114319012Y-42992698D01*
G37*
G36*
X115209012Y-42052898D02*
G01*
X115223088Y-42054986D01*
X115236891Y-42058444D01*
X115250289Y-42063237D01*
X115263153Y-42069321D01*
X115275358Y-42076637D01*
X115286787Y-42085113D01*
X115297330Y-42094670D01*
X115306887Y-42105213D01*
X115315363Y-42116642D01*
X115322679Y-42128847D01*
X115328763Y-42141711D01*
X115333556Y-42155109D01*
X115337014Y-42168912D01*
X115339102Y-42182988D01*
X115339800Y-42197200D01*
X115339800Y-42537200D01*
X115339102Y-42551412D01*
X115337014Y-42565488D01*
X115333556Y-42579291D01*
X115328763Y-42592689D01*
X115322679Y-42605553D01*
X115315363Y-42617758D01*
X115306887Y-42629187D01*
X115297330Y-42639730D01*
X115286787Y-42649287D01*
X115275358Y-42657763D01*
X115263153Y-42665079D01*
X115250289Y-42671163D01*
X115236891Y-42675956D01*
X115223088Y-42679414D01*
X115209012Y-42681502D01*
X115194800Y-42682200D01*
X114904800Y-42682200D01*
X114890588Y-42681502D01*
X114876512Y-42679414D01*
X114862709Y-42675956D01*
X114849311Y-42671163D01*
X114836447Y-42665079D01*
X114824242Y-42657763D01*
X114812813Y-42649287D01*
X114802270Y-42639730D01*
X114792713Y-42629187D01*
X114784237Y-42617758D01*
X114776921Y-42605553D01*
X114770837Y-42592689D01*
X114766044Y-42579291D01*
X114762586Y-42565488D01*
X114760498Y-42551412D01*
X114759800Y-42537200D01*
X114759800Y-42197200D01*
X114760498Y-42182988D01*
X114762586Y-42168912D01*
X114766044Y-42155109D01*
X114770837Y-42141711D01*
X114776921Y-42128847D01*
X114784237Y-42116642D01*
X114792713Y-42105213D01*
X114802270Y-42094670D01*
X114812813Y-42085113D01*
X114824242Y-42076637D01*
X114836447Y-42069321D01*
X114849311Y-42063237D01*
X114862709Y-42058444D01*
X114876512Y-42054986D01*
X114890588Y-42052898D01*
X114904800Y-42052200D01*
X115194800Y-42052200D01*
X115209012Y-42052898D01*
G37*
G36*
X114319012Y-42052898D02*
G01*
X114333088Y-42054986D01*
X114346891Y-42058444D01*
X114360289Y-42063237D01*
X114373153Y-42069321D01*
X114385358Y-42076637D01*
X114396787Y-42085113D01*
X114407330Y-42094670D01*
X114416887Y-42105213D01*
X114425363Y-42116642D01*
X114432679Y-42128847D01*
X114438763Y-42141711D01*
X114443556Y-42155109D01*
X114447014Y-42168912D01*
X114449102Y-42182988D01*
X114449800Y-42197200D01*
X114449800Y-42537200D01*
X114449102Y-42551412D01*
X114447014Y-42565488D01*
X114443556Y-42579291D01*
X114438763Y-42592689D01*
X114432679Y-42605553D01*
X114425363Y-42617758D01*
X114416887Y-42629187D01*
X114407330Y-42639730D01*
X114396787Y-42649287D01*
X114385358Y-42657763D01*
X114373153Y-42665079D01*
X114360289Y-42671163D01*
X114346891Y-42675956D01*
X114333088Y-42679414D01*
X114319012Y-42681502D01*
X114304800Y-42682200D01*
X114014800Y-42682200D01*
X114000588Y-42681502D01*
X113986512Y-42679414D01*
X113972709Y-42675956D01*
X113959311Y-42671163D01*
X113946447Y-42665079D01*
X113934242Y-42657763D01*
X113922813Y-42649287D01*
X113912270Y-42639730D01*
X113902713Y-42629187D01*
X113894237Y-42617758D01*
X113886921Y-42605553D01*
X113880837Y-42592689D01*
X113876044Y-42579291D01*
X113872586Y-42565488D01*
X113870498Y-42551412D01*
X113869800Y-42537200D01*
X113869800Y-42197200D01*
X113870498Y-42182988D01*
X113872586Y-42168912D01*
X113876044Y-42155109D01*
X113880837Y-42141711D01*
X113886921Y-42128847D01*
X113894237Y-42116642D01*
X113902713Y-42105213D01*
X113912270Y-42094670D01*
X113922813Y-42085113D01*
X113934242Y-42076637D01*
X113946447Y-42069321D01*
X113959311Y-42063237D01*
X113972709Y-42058444D01*
X113986512Y-42054986D01*
X114000588Y-42052898D01*
X114014800Y-42052200D01*
X114304800Y-42052200D01*
X114319012Y-42052898D01*
G37*
G36*
X115209012Y-41113098D02*
G01*
X115223088Y-41115186D01*
X115236891Y-41118644D01*
X115250289Y-41123437D01*
X115263153Y-41129521D01*
X115275358Y-41136837D01*
X115286787Y-41145313D01*
X115297330Y-41154870D01*
X115306887Y-41165413D01*
X115315363Y-41176842D01*
X115322679Y-41189047D01*
X115328763Y-41201911D01*
X115333556Y-41215309D01*
X115337014Y-41229112D01*
X115339102Y-41243188D01*
X115339800Y-41257400D01*
X115339800Y-41597400D01*
X115339102Y-41611612D01*
X115337014Y-41625688D01*
X115333556Y-41639491D01*
X115328763Y-41652889D01*
X115322679Y-41665753D01*
X115315363Y-41677958D01*
X115306887Y-41689387D01*
X115297330Y-41699930D01*
X115286787Y-41709487D01*
X115275358Y-41717963D01*
X115263153Y-41725279D01*
X115250289Y-41731363D01*
X115236891Y-41736156D01*
X115223088Y-41739614D01*
X115209012Y-41741702D01*
X115194800Y-41742400D01*
X114904800Y-41742400D01*
X114890588Y-41741702D01*
X114876512Y-41739614D01*
X114862709Y-41736156D01*
X114849311Y-41731363D01*
X114836447Y-41725279D01*
X114824242Y-41717963D01*
X114812813Y-41709487D01*
X114802270Y-41699930D01*
X114792713Y-41689387D01*
X114784237Y-41677958D01*
X114776921Y-41665753D01*
X114770837Y-41652889D01*
X114766044Y-41639491D01*
X114762586Y-41625688D01*
X114760498Y-41611612D01*
X114759800Y-41597400D01*
X114759800Y-41257400D01*
X114760498Y-41243188D01*
X114762586Y-41229112D01*
X114766044Y-41215309D01*
X114770837Y-41201911D01*
X114776921Y-41189047D01*
X114784237Y-41176842D01*
X114792713Y-41165413D01*
X114802270Y-41154870D01*
X114812813Y-41145313D01*
X114824242Y-41136837D01*
X114836447Y-41129521D01*
X114849311Y-41123437D01*
X114862709Y-41118644D01*
X114876512Y-41115186D01*
X114890588Y-41113098D01*
X114904800Y-41112400D01*
X115194800Y-41112400D01*
X115209012Y-41113098D01*
G37*
G36*
X114319012Y-41113098D02*
G01*
X114333088Y-41115186D01*
X114346891Y-41118644D01*
X114360289Y-41123437D01*
X114373153Y-41129521D01*
X114385358Y-41136837D01*
X114396787Y-41145313D01*
X114407330Y-41154870D01*
X114416887Y-41165413D01*
X114425363Y-41176842D01*
X114432679Y-41189047D01*
X114438763Y-41201911D01*
X114443556Y-41215309D01*
X114447014Y-41229112D01*
X114449102Y-41243188D01*
X114449800Y-41257400D01*
X114449800Y-41597400D01*
X114449102Y-41611612D01*
X114447014Y-41625688D01*
X114443556Y-41639491D01*
X114438763Y-41652889D01*
X114432679Y-41665753D01*
X114425363Y-41677958D01*
X114416887Y-41689387D01*
X114407330Y-41699930D01*
X114396787Y-41709487D01*
X114385358Y-41717963D01*
X114373153Y-41725279D01*
X114360289Y-41731363D01*
X114346891Y-41736156D01*
X114333088Y-41739614D01*
X114319012Y-41741702D01*
X114304800Y-41742400D01*
X114014800Y-41742400D01*
X114000588Y-41741702D01*
X113986512Y-41739614D01*
X113972709Y-41736156D01*
X113959311Y-41731363D01*
X113946447Y-41725279D01*
X113934242Y-41717963D01*
X113922813Y-41709487D01*
X113912270Y-41699930D01*
X113902713Y-41689387D01*
X113894237Y-41677958D01*
X113886921Y-41665753D01*
X113880837Y-41652889D01*
X113876044Y-41639491D01*
X113872586Y-41625688D01*
X113870498Y-41611612D01*
X113869800Y-41597400D01*
X113869800Y-41257400D01*
X113870498Y-41243188D01*
X113872586Y-41229112D01*
X113876044Y-41215309D01*
X113880837Y-41201911D01*
X113886921Y-41189047D01*
X113894237Y-41176842D01*
X113902713Y-41165413D01*
X113912270Y-41154870D01*
X113922813Y-41145313D01*
X113934242Y-41136837D01*
X113946447Y-41129521D01*
X113959311Y-41123437D01*
X113972709Y-41118644D01*
X113986512Y-41115186D01*
X114000588Y-41113098D01*
X114014800Y-41112400D01*
X114304800Y-41112400D01*
X114319012Y-41113098D01*
G37*
G36*
X116186012Y-42065698D02*
G01*
X116200088Y-42067786D01*
X116213891Y-42071244D01*
X116227289Y-42076037D01*
X116240153Y-42082121D01*
X116252358Y-42089437D01*
X116263787Y-42097913D01*
X116274330Y-42107470D01*
X116283887Y-42118013D01*
X116292363Y-42129442D01*
X116299679Y-42141647D01*
X116305763Y-42154511D01*
X116310556Y-42167909D01*
X116314014Y-42181712D01*
X116316102Y-42195788D01*
X116316800Y-42210000D01*
X116316800Y-42500000D01*
X116316102Y-42514212D01*
X116314014Y-42528288D01*
X116310556Y-42542091D01*
X116305763Y-42555489D01*
X116299679Y-42568353D01*
X116292363Y-42580558D01*
X116283887Y-42591987D01*
X116274330Y-42602530D01*
X116263787Y-42612087D01*
X116252358Y-42620563D01*
X116240153Y-42627879D01*
X116227289Y-42633963D01*
X116213891Y-42638756D01*
X116200088Y-42642214D01*
X116186012Y-42644302D01*
X116171800Y-42645000D01*
X115831800Y-42645000D01*
X115817588Y-42644302D01*
X115803512Y-42642214D01*
X115789709Y-42638756D01*
X115776311Y-42633963D01*
X115763447Y-42627879D01*
X115751242Y-42620563D01*
X115739813Y-42612087D01*
X115729270Y-42602530D01*
X115719713Y-42591987D01*
X115711237Y-42580558D01*
X115703921Y-42568353D01*
X115697837Y-42555489D01*
X115693044Y-42542091D01*
X115689586Y-42528288D01*
X115687498Y-42514212D01*
X115686800Y-42500000D01*
X115686800Y-42210000D01*
X115687498Y-42195788D01*
X115689586Y-42181712D01*
X115693044Y-42167909D01*
X115697837Y-42154511D01*
X115703921Y-42141647D01*
X115711237Y-42129442D01*
X115719713Y-42118013D01*
X115729270Y-42107470D01*
X115739813Y-42097913D01*
X115751242Y-42089437D01*
X115763447Y-42082121D01*
X115776311Y-42076037D01*
X115789709Y-42071244D01*
X115803512Y-42067786D01*
X115817588Y-42065698D01*
X115831800Y-42065000D01*
X116171800Y-42065000D01*
X116186012Y-42065698D01*
G37*
G36*
X116186012Y-41175698D02*
G01*
X116200088Y-41177786D01*
X116213891Y-41181244D01*
X116227289Y-41186037D01*
X116240153Y-41192121D01*
X116252358Y-41199437D01*
X116263787Y-41207913D01*
X116274330Y-41217470D01*
X116283887Y-41228013D01*
X116292363Y-41239442D01*
X116299679Y-41251647D01*
X116305763Y-41264511D01*
X116310556Y-41277909D01*
X116314014Y-41291712D01*
X116316102Y-41305788D01*
X116316800Y-41320000D01*
X116316800Y-41610000D01*
X116316102Y-41624212D01*
X116314014Y-41638288D01*
X116310556Y-41652091D01*
X116305763Y-41665489D01*
X116299679Y-41678353D01*
X116292363Y-41690558D01*
X116283887Y-41701987D01*
X116274330Y-41712530D01*
X116263787Y-41722087D01*
X116252358Y-41730563D01*
X116240153Y-41737879D01*
X116227289Y-41743963D01*
X116213891Y-41748756D01*
X116200088Y-41752214D01*
X116186012Y-41754302D01*
X116171800Y-41755000D01*
X115831800Y-41755000D01*
X115817588Y-41754302D01*
X115803512Y-41752214D01*
X115789709Y-41748756D01*
X115776311Y-41743963D01*
X115763447Y-41737879D01*
X115751242Y-41730563D01*
X115739813Y-41722087D01*
X115729270Y-41712530D01*
X115719713Y-41701987D01*
X115711237Y-41690558D01*
X115703921Y-41678353D01*
X115697837Y-41665489D01*
X115693044Y-41652091D01*
X115689586Y-41638288D01*
X115687498Y-41624212D01*
X115686800Y-41610000D01*
X115686800Y-41320000D01*
X115687498Y-41305788D01*
X115689586Y-41291712D01*
X115693044Y-41277909D01*
X115697837Y-41264511D01*
X115703921Y-41251647D01*
X115711237Y-41239442D01*
X115719713Y-41228013D01*
X115729270Y-41217470D01*
X115739813Y-41207913D01*
X115751242Y-41199437D01*
X115763447Y-41192121D01*
X115776311Y-41186037D01*
X115789709Y-41181244D01*
X115803512Y-41177786D01*
X115817588Y-41175698D01*
X115831800Y-41175000D01*
X116171800Y-41175000D01*
X116186012Y-41175698D01*
G37*
G36*
X115297012Y-40236898D02*
G01*
X115311088Y-40238986D01*
X115324891Y-40242444D01*
X115338289Y-40247237D01*
X115351153Y-40253321D01*
X115363358Y-40260637D01*
X115374787Y-40269113D01*
X115385330Y-40278670D01*
X115394887Y-40289213D01*
X115403363Y-40300642D01*
X115410679Y-40312847D01*
X115416763Y-40325711D01*
X115421556Y-40339109D01*
X115425014Y-40352912D01*
X115427102Y-40366988D01*
X115427800Y-40381200D01*
X115427800Y-40671200D01*
X115427102Y-40685412D01*
X115425014Y-40699488D01*
X115421556Y-40713291D01*
X115416763Y-40726689D01*
X115410679Y-40739553D01*
X115403363Y-40751758D01*
X115394887Y-40763187D01*
X115385330Y-40773730D01*
X115374787Y-40783287D01*
X115363358Y-40791763D01*
X115351153Y-40799079D01*
X115338289Y-40805163D01*
X115324891Y-40809956D01*
X115311088Y-40813414D01*
X115297012Y-40815502D01*
X115282800Y-40816200D01*
X114942800Y-40816200D01*
X114928588Y-40815502D01*
X114914512Y-40813414D01*
X114900709Y-40809956D01*
X114887311Y-40805163D01*
X114874447Y-40799079D01*
X114862242Y-40791763D01*
X114850813Y-40783287D01*
X114840270Y-40773730D01*
X114830713Y-40763187D01*
X114822237Y-40751758D01*
X114814921Y-40739553D01*
X114808837Y-40726689D01*
X114804044Y-40713291D01*
X114800586Y-40699488D01*
X114798498Y-40685412D01*
X114797800Y-40671200D01*
X114797800Y-40381200D01*
X114798498Y-40366988D01*
X114800586Y-40352912D01*
X114804044Y-40339109D01*
X114808837Y-40325711D01*
X114814921Y-40312847D01*
X114822237Y-40300642D01*
X114830713Y-40289213D01*
X114840270Y-40278670D01*
X114850813Y-40269113D01*
X114862242Y-40260637D01*
X114874447Y-40253321D01*
X114887311Y-40247237D01*
X114900709Y-40242444D01*
X114914512Y-40238986D01*
X114928588Y-40236898D01*
X114942800Y-40236200D01*
X115282800Y-40236200D01*
X115297012Y-40236898D01*
G37*
G36*
X115297012Y-39346898D02*
G01*
X115311088Y-39348986D01*
X115324891Y-39352444D01*
X115338289Y-39357237D01*
X115351153Y-39363321D01*
X115363358Y-39370637D01*
X115374787Y-39379113D01*
X115385330Y-39388670D01*
X115394887Y-39399213D01*
X115403363Y-39410642D01*
X115410679Y-39422847D01*
X115416763Y-39435711D01*
X115421556Y-39449109D01*
X115425014Y-39462912D01*
X115427102Y-39476988D01*
X115427800Y-39491200D01*
X115427800Y-39781200D01*
X115427102Y-39795412D01*
X115425014Y-39809488D01*
X115421556Y-39823291D01*
X115416763Y-39836689D01*
X115410679Y-39849553D01*
X115403363Y-39861758D01*
X115394887Y-39873187D01*
X115385330Y-39883730D01*
X115374787Y-39893287D01*
X115363358Y-39901763D01*
X115351153Y-39909079D01*
X115338289Y-39915163D01*
X115324891Y-39919956D01*
X115311088Y-39923414D01*
X115297012Y-39925502D01*
X115282800Y-39926200D01*
X114942800Y-39926200D01*
X114928588Y-39925502D01*
X114914512Y-39923414D01*
X114900709Y-39919956D01*
X114887311Y-39915163D01*
X114874447Y-39909079D01*
X114862242Y-39901763D01*
X114850813Y-39893287D01*
X114840270Y-39883730D01*
X114830713Y-39873187D01*
X114822237Y-39861758D01*
X114814921Y-39849553D01*
X114808837Y-39836689D01*
X114804044Y-39823291D01*
X114800586Y-39809488D01*
X114798498Y-39795412D01*
X114797800Y-39781200D01*
X114797800Y-39491200D01*
X114798498Y-39476988D01*
X114800586Y-39462912D01*
X114804044Y-39449109D01*
X114808837Y-39435711D01*
X114814921Y-39422847D01*
X114822237Y-39410642D01*
X114830713Y-39399213D01*
X114840270Y-39388670D01*
X114850813Y-39379113D01*
X114862242Y-39370637D01*
X114874447Y-39363321D01*
X114887311Y-39357237D01*
X114900709Y-39352444D01*
X114914512Y-39348986D01*
X114928588Y-39346898D01*
X114942800Y-39346200D01*
X115282800Y-39346200D01*
X115297012Y-39346898D01*
G37*
G36*
X114357212Y-40224698D02*
G01*
X114371288Y-40226786D01*
X114385091Y-40230244D01*
X114398489Y-40235037D01*
X114411353Y-40241121D01*
X114423558Y-40248437D01*
X114434987Y-40256913D01*
X114445530Y-40266470D01*
X114455087Y-40277013D01*
X114463563Y-40288442D01*
X114470879Y-40300647D01*
X114476963Y-40313511D01*
X114481756Y-40326909D01*
X114485214Y-40340712D01*
X114487302Y-40354788D01*
X114488000Y-40369000D01*
X114488000Y-40659000D01*
X114487302Y-40673212D01*
X114485214Y-40687288D01*
X114481756Y-40701091D01*
X114476963Y-40714489D01*
X114470879Y-40727353D01*
X114463563Y-40739558D01*
X114455087Y-40750987D01*
X114445530Y-40761530D01*
X114434987Y-40771087D01*
X114423558Y-40779563D01*
X114411353Y-40786879D01*
X114398489Y-40792963D01*
X114385091Y-40797756D01*
X114371288Y-40801214D01*
X114357212Y-40803302D01*
X114343000Y-40804000D01*
X114003000Y-40804000D01*
X113988788Y-40803302D01*
X113974712Y-40801214D01*
X113960909Y-40797756D01*
X113947511Y-40792963D01*
X113934647Y-40786879D01*
X113922442Y-40779563D01*
X113911013Y-40771087D01*
X113900470Y-40761530D01*
X113890913Y-40750987D01*
X113882437Y-40739558D01*
X113875121Y-40727353D01*
X113869037Y-40714489D01*
X113864244Y-40701091D01*
X113860786Y-40687288D01*
X113858698Y-40673212D01*
X113858000Y-40659000D01*
X113858000Y-40369000D01*
X113858698Y-40354788D01*
X113860786Y-40340712D01*
X113864244Y-40326909D01*
X113869037Y-40313511D01*
X113875121Y-40300647D01*
X113882437Y-40288442D01*
X113890913Y-40277013D01*
X113900470Y-40266470D01*
X113911013Y-40256913D01*
X113922442Y-40248437D01*
X113934647Y-40241121D01*
X113947511Y-40235037D01*
X113960909Y-40230244D01*
X113974712Y-40226786D01*
X113988788Y-40224698D01*
X114003000Y-40224000D01*
X114343000Y-40224000D01*
X114357212Y-40224698D01*
G37*
G36*
X114357212Y-39334698D02*
G01*
X114371288Y-39336786D01*
X114385091Y-39340244D01*
X114398489Y-39345037D01*
X114411353Y-39351121D01*
X114423558Y-39358437D01*
X114434987Y-39366913D01*
X114445530Y-39376470D01*
X114455087Y-39387013D01*
X114463563Y-39398442D01*
X114470879Y-39410647D01*
X114476963Y-39423511D01*
X114481756Y-39436909D01*
X114485214Y-39450712D01*
X114487302Y-39464788D01*
X114488000Y-39479000D01*
X114488000Y-39769000D01*
X114487302Y-39783212D01*
X114485214Y-39797288D01*
X114481756Y-39811091D01*
X114476963Y-39824489D01*
X114470879Y-39837353D01*
X114463563Y-39849558D01*
X114455087Y-39860987D01*
X114445530Y-39871530D01*
X114434987Y-39881087D01*
X114423558Y-39889563D01*
X114411353Y-39896879D01*
X114398489Y-39902963D01*
X114385091Y-39907756D01*
X114371288Y-39911214D01*
X114357212Y-39913302D01*
X114343000Y-39914000D01*
X114003000Y-39914000D01*
X113988788Y-39913302D01*
X113974712Y-39911214D01*
X113960909Y-39907756D01*
X113947511Y-39902963D01*
X113934647Y-39896879D01*
X113922442Y-39889563D01*
X113911013Y-39881087D01*
X113900470Y-39871530D01*
X113890913Y-39860987D01*
X113882437Y-39849558D01*
X113875121Y-39837353D01*
X113869037Y-39824489D01*
X113864244Y-39811091D01*
X113860786Y-39797288D01*
X113858698Y-39783212D01*
X113858000Y-39769000D01*
X113858000Y-39479000D01*
X113858698Y-39464788D01*
X113860786Y-39450712D01*
X113864244Y-39436909D01*
X113869037Y-39423511D01*
X113875121Y-39410647D01*
X113882437Y-39398442D01*
X113890913Y-39387013D01*
X113900470Y-39376470D01*
X113911013Y-39366913D01*
X113922442Y-39358437D01*
X113934647Y-39351121D01*
X113947511Y-39345037D01*
X113960909Y-39340244D01*
X113974712Y-39336786D01*
X113988788Y-39334698D01*
X114003000Y-39334000D01*
X114343000Y-39334000D01*
X114357212Y-39334698D01*
G37*
G36*
X117202012Y-40287698D02*
G01*
X117216088Y-40289786D01*
X117229891Y-40293244D01*
X117243289Y-40298037D01*
X117256153Y-40304121D01*
X117268358Y-40311437D01*
X117279787Y-40319913D01*
X117290330Y-40329470D01*
X117299887Y-40340013D01*
X117308363Y-40351442D01*
X117315679Y-40363647D01*
X117321763Y-40376511D01*
X117326556Y-40389909D01*
X117330014Y-40403712D01*
X117332102Y-40417788D01*
X117332800Y-40432000D01*
X117332800Y-40722000D01*
X117332102Y-40736212D01*
X117330014Y-40750288D01*
X117326556Y-40764091D01*
X117321763Y-40777489D01*
X117315679Y-40790353D01*
X117308363Y-40802558D01*
X117299887Y-40813987D01*
X117290330Y-40824530D01*
X117279787Y-40834087D01*
X117268358Y-40842563D01*
X117256153Y-40849879D01*
X117243289Y-40855963D01*
X117229891Y-40860756D01*
X117216088Y-40864214D01*
X117202012Y-40866302D01*
X117187800Y-40867000D01*
X116847800Y-40867000D01*
X116833588Y-40866302D01*
X116819512Y-40864214D01*
X116805709Y-40860756D01*
X116792311Y-40855963D01*
X116779447Y-40849879D01*
X116767242Y-40842563D01*
X116755813Y-40834087D01*
X116745270Y-40824530D01*
X116735713Y-40813987D01*
X116727237Y-40802558D01*
X116719921Y-40790353D01*
X116713837Y-40777489D01*
X116709044Y-40764091D01*
X116705586Y-40750288D01*
X116703498Y-40736212D01*
X116702800Y-40722000D01*
X116702800Y-40432000D01*
X116703498Y-40417788D01*
X116705586Y-40403712D01*
X116709044Y-40389909D01*
X116713837Y-40376511D01*
X116719921Y-40363647D01*
X116727237Y-40351442D01*
X116735713Y-40340013D01*
X116745270Y-40329470D01*
X116755813Y-40319913D01*
X116767242Y-40311437D01*
X116779447Y-40304121D01*
X116792311Y-40298037D01*
X116805709Y-40293244D01*
X116819512Y-40289786D01*
X116833588Y-40287698D01*
X116847800Y-40287000D01*
X117187800Y-40287000D01*
X117202012Y-40287698D01*
G37*
G36*
X117202012Y-39397698D02*
G01*
X117216088Y-39399786D01*
X117229891Y-39403244D01*
X117243289Y-39408037D01*
X117256153Y-39414121D01*
X117268358Y-39421437D01*
X117279787Y-39429913D01*
X117290330Y-39439470D01*
X117299887Y-39450013D01*
X117308363Y-39461442D01*
X117315679Y-39473647D01*
X117321763Y-39486511D01*
X117326556Y-39499909D01*
X117330014Y-39513712D01*
X117332102Y-39527788D01*
X117332800Y-39542000D01*
X117332800Y-39832000D01*
X117332102Y-39846212D01*
X117330014Y-39860288D01*
X117326556Y-39874091D01*
X117321763Y-39887489D01*
X117315679Y-39900353D01*
X117308363Y-39912558D01*
X117299887Y-39923987D01*
X117290330Y-39934530D01*
X117279787Y-39944087D01*
X117268358Y-39952563D01*
X117256153Y-39959879D01*
X117243289Y-39965963D01*
X117229891Y-39970756D01*
X117216088Y-39974214D01*
X117202012Y-39976302D01*
X117187800Y-39977000D01*
X116847800Y-39977000D01*
X116833588Y-39976302D01*
X116819512Y-39974214D01*
X116805709Y-39970756D01*
X116792311Y-39965963D01*
X116779447Y-39959879D01*
X116767242Y-39952563D01*
X116755813Y-39944087D01*
X116745270Y-39934530D01*
X116735713Y-39923987D01*
X116727237Y-39912558D01*
X116719921Y-39900353D01*
X116713837Y-39887489D01*
X116709044Y-39874091D01*
X116705586Y-39860288D01*
X116703498Y-39846212D01*
X116702800Y-39832000D01*
X116702800Y-39542000D01*
X116703498Y-39527788D01*
X116705586Y-39513712D01*
X116709044Y-39499909D01*
X116713837Y-39486511D01*
X116719921Y-39473647D01*
X116727237Y-39461442D01*
X116735713Y-39450013D01*
X116745270Y-39439470D01*
X116755813Y-39429913D01*
X116767242Y-39421437D01*
X116779447Y-39414121D01*
X116792311Y-39408037D01*
X116805709Y-39403244D01*
X116819512Y-39399786D01*
X116833588Y-39397698D01*
X116847800Y-39397000D01*
X117187800Y-39397000D01*
X117202012Y-39397698D01*
G37*
G36*
X108985012Y-33340698D02*
G01*
X108999088Y-33342786D01*
X109012891Y-33346244D01*
X109026289Y-33351037D01*
X109039153Y-33357121D01*
X109051358Y-33364437D01*
X109062787Y-33372913D01*
X109073330Y-33382470D01*
X109082887Y-33393013D01*
X109091363Y-33404442D01*
X109098679Y-33416647D01*
X109104763Y-33429511D01*
X109109556Y-33442909D01*
X109113014Y-33456712D01*
X109115102Y-33470788D01*
X109115800Y-33485000D01*
X109115800Y-33825000D01*
X109115102Y-33839212D01*
X109113014Y-33853288D01*
X109109556Y-33867091D01*
X109104763Y-33880489D01*
X109098679Y-33893353D01*
X109091363Y-33905558D01*
X109082887Y-33916987D01*
X109073330Y-33927530D01*
X109062787Y-33937087D01*
X109051358Y-33945563D01*
X109039153Y-33952879D01*
X109026289Y-33958963D01*
X109012891Y-33963756D01*
X108999088Y-33967214D01*
X108985012Y-33969302D01*
X108970800Y-33970000D01*
X108680800Y-33970000D01*
X108666588Y-33969302D01*
X108652512Y-33967214D01*
X108638709Y-33963756D01*
X108625311Y-33958963D01*
X108612447Y-33952879D01*
X108600242Y-33945563D01*
X108588813Y-33937087D01*
X108578270Y-33927530D01*
X108568713Y-33916987D01*
X108560237Y-33905558D01*
X108552921Y-33893353D01*
X108546837Y-33880489D01*
X108542044Y-33867091D01*
X108538586Y-33853288D01*
X108536498Y-33839212D01*
X108535800Y-33825000D01*
X108535800Y-33485000D01*
X108536498Y-33470788D01*
X108538586Y-33456712D01*
X108542044Y-33442909D01*
X108546837Y-33429511D01*
X108552921Y-33416647D01*
X108560237Y-33404442D01*
X108568713Y-33393013D01*
X108578270Y-33382470D01*
X108588813Y-33372913D01*
X108600242Y-33364437D01*
X108612447Y-33357121D01*
X108625311Y-33351037D01*
X108638709Y-33346244D01*
X108652512Y-33342786D01*
X108666588Y-33340698D01*
X108680800Y-33340000D01*
X108970800Y-33340000D01*
X108985012Y-33340698D01*
G37*
G36*
X109875012Y-33340698D02*
G01*
X109889088Y-33342786D01*
X109902891Y-33346244D01*
X109916289Y-33351037D01*
X109929153Y-33357121D01*
X109941358Y-33364437D01*
X109952787Y-33372913D01*
X109963330Y-33382470D01*
X109972887Y-33393013D01*
X109981363Y-33404442D01*
X109988679Y-33416647D01*
X109994763Y-33429511D01*
X109999556Y-33442909D01*
X110003014Y-33456712D01*
X110005102Y-33470788D01*
X110005800Y-33485000D01*
X110005800Y-33825000D01*
X110005102Y-33839212D01*
X110003014Y-33853288D01*
X109999556Y-33867091D01*
X109994763Y-33880489D01*
X109988679Y-33893353D01*
X109981363Y-33905558D01*
X109972887Y-33916987D01*
X109963330Y-33927530D01*
X109952787Y-33937087D01*
X109941358Y-33945563D01*
X109929153Y-33952879D01*
X109916289Y-33958963D01*
X109902891Y-33963756D01*
X109889088Y-33967214D01*
X109875012Y-33969302D01*
X109860800Y-33970000D01*
X109570800Y-33970000D01*
X109556588Y-33969302D01*
X109542512Y-33967214D01*
X109528709Y-33963756D01*
X109515311Y-33958963D01*
X109502447Y-33952879D01*
X109490242Y-33945563D01*
X109478813Y-33937087D01*
X109468270Y-33927530D01*
X109458713Y-33916987D01*
X109450237Y-33905558D01*
X109442921Y-33893353D01*
X109436837Y-33880489D01*
X109432044Y-33867091D01*
X109428586Y-33853288D01*
X109426498Y-33839212D01*
X109425800Y-33825000D01*
X109425800Y-33485000D01*
X109426498Y-33470788D01*
X109428586Y-33456712D01*
X109432044Y-33442909D01*
X109436837Y-33429511D01*
X109442921Y-33416647D01*
X109450237Y-33404442D01*
X109458713Y-33393013D01*
X109468270Y-33382470D01*
X109478813Y-33372913D01*
X109490242Y-33364437D01*
X109502447Y-33357121D01*
X109515311Y-33351037D01*
X109528709Y-33346244D01*
X109542512Y-33342786D01*
X109556588Y-33340698D01*
X109570800Y-33340000D01*
X109860800Y-33340000D01*
X109875012Y-33340698D01*
G37*
G36*
X126464948Y-29586775D02*
G01*
X126484606Y-29589691D01*
X126503883Y-29594520D01*
X126522593Y-29601214D01*
X126540558Y-29609711D01*
X126557603Y-29619927D01*
X126573565Y-29631765D01*
X126588289Y-29645111D01*
X126601635Y-29659835D01*
X126613473Y-29675797D01*
X126623689Y-29692842D01*
X126632186Y-29710807D01*
X126638880Y-29729517D01*
X126643709Y-29748794D01*
X126646625Y-29768452D01*
X126647600Y-29788300D01*
X126647600Y-30193300D01*
X126646625Y-30213148D01*
X126643709Y-30232806D01*
X126638880Y-30252083D01*
X126632186Y-30270793D01*
X126623689Y-30288758D01*
X126613473Y-30305803D01*
X126601635Y-30321765D01*
X126588289Y-30336489D01*
X126573565Y-30349835D01*
X126557603Y-30361673D01*
X126540558Y-30371889D01*
X126522593Y-30380386D01*
X126503883Y-30387080D01*
X126484606Y-30391909D01*
X126464948Y-30394825D01*
X126445100Y-30395800D01*
X125980100Y-30395800D01*
X125960252Y-30394825D01*
X125940594Y-30391909D01*
X125921317Y-30387080D01*
X125902607Y-30380386D01*
X125884642Y-30371889D01*
X125867597Y-30361673D01*
X125851635Y-30349835D01*
X125836911Y-30336489D01*
X125823565Y-30321765D01*
X125811727Y-30305803D01*
X125801511Y-30288758D01*
X125793014Y-30270793D01*
X125786320Y-30252083D01*
X125781491Y-30232806D01*
X125778575Y-30213148D01*
X125777600Y-30193300D01*
X125777600Y-29788300D01*
X125778575Y-29768452D01*
X125781491Y-29748794D01*
X125786320Y-29729517D01*
X125793014Y-29710807D01*
X125801511Y-29692842D01*
X125811727Y-29675797D01*
X125823565Y-29659835D01*
X125836911Y-29645111D01*
X125851635Y-29631765D01*
X125867597Y-29619927D01*
X125884642Y-29609711D01*
X125902607Y-29601214D01*
X125921317Y-29594520D01*
X125940594Y-29589691D01*
X125960252Y-29586775D01*
X125980100Y-29585800D01*
X126445100Y-29585800D01*
X126464948Y-29586775D01*
G37*
G36*
X126464948Y-30946775D02*
G01*
X126484606Y-30949691D01*
X126503883Y-30954520D01*
X126522593Y-30961214D01*
X126540558Y-30969711D01*
X126557603Y-30979927D01*
X126573565Y-30991765D01*
X126588289Y-31005111D01*
X126601635Y-31019835D01*
X126613473Y-31035797D01*
X126623689Y-31052842D01*
X126632186Y-31070807D01*
X126638880Y-31089517D01*
X126643709Y-31108794D01*
X126646625Y-31128452D01*
X126647600Y-31148300D01*
X126647600Y-31553300D01*
X126646625Y-31573148D01*
X126643709Y-31592806D01*
X126638880Y-31612083D01*
X126632186Y-31630793D01*
X126623689Y-31648758D01*
X126613473Y-31665803D01*
X126601635Y-31681765D01*
X126588289Y-31696489D01*
X126573565Y-31709835D01*
X126557603Y-31721673D01*
X126540558Y-31731889D01*
X126522593Y-31740386D01*
X126503883Y-31747080D01*
X126484606Y-31751909D01*
X126464948Y-31754825D01*
X126445100Y-31755800D01*
X125980100Y-31755800D01*
X125960252Y-31754825D01*
X125940594Y-31751909D01*
X125921317Y-31747080D01*
X125902607Y-31740386D01*
X125884642Y-31731889D01*
X125867597Y-31721673D01*
X125851635Y-31709835D01*
X125836911Y-31696489D01*
X125823565Y-31681765D01*
X125811727Y-31665803D01*
X125801511Y-31648758D01*
X125793014Y-31630793D01*
X125786320Y-31612083D01*
X125781491Y-31592806D01*
X125778575Y-31573148D01*
X125777600Y-31553300D01*
X125777600Y-31148300D01*
X125778575Y-31128452D01*
X125781491Y-31108794D01*
X125786320Y-31089517D01*
X125793014Y-31070807D01*
X125801511Y-31052842D01*
X125811727Y-31035797D01*
X125823565Y-31019835D01*
X125836911Y-31005111D01*
X125851635Y-30991765D01*
X125867597Y-30979927D01*
X125884642Y-30969711D01*
X125902607Y-30961214D01*
X125921317Y-30954520D01*
X125940594Y-30949691D01*
X125960252Y-30946775D01*
X125980100Y-30945800D01*
X126445100Y-30945800D01*
X126464948Y-30946775D01*
G37*
G36*
X112643612Y-32400898D02*
G01*
X112657688Y-32402986D01*
X112671491Y-32406444D01*
X112684889Y-32411237D01*
X112697753Y-32417321D01*
X112709958Y-32424637D01*
X112721387Y-32433113D01*
X112731930Y-32442670D01*
X112741487Y-32453213D01*
X112749963Y-32464642D01*
X112757279Y-32476847D01*
X112763363Y-32489711D01*
X112768156Y-32503109D01*
X112771614Y-32516912D01*
X112773702Y-32530988D01*
X112774400Y-32545200D01*
X112774400Y-32885200D01*
X112773702Y-32899412D01*
X112771614Y-32913488D01*
X112768156Y-32927291D01*
X112763363Y-32940689D01*
X112757279Y-32953553D01*
X112749963Y-32965758D01*
X112741487Y-32977187D01*
X112731930Y-32987730D01*
X112721387Y-32997287D01*
X112709958Y-33005763D01*
X112697753Y-33013079D01*
X112684889Y-33019163D01*
X112671491Y-33023956D01*
X112657688Y-33027414D01*
X112643612Y-33029502D01*
X112629400Y-33030200D01*
X112339400Y-33030200D01*
X112325188Y-33029502D01*
X112311112Y-33027414D01*
X112297309Y-33023956D01*
X112283911Y-33019163D01*
X112271047Y-33013079D01*
X112258842Y-33005763D01*
X112247413Y-32997287D01*
X112236870Y-32987730D01*
X112227313Y-32977187D01*
X112218837Y-32965758D01*
X112211521Y-32953553D01*
X112205437Y-32940689D01*
X112200644Y-32927291D01*
X112197186Y-32913488D01*
X112195098Y-32899412D01*
X112194400Y-32885200D01*
X112194400Y-32545200D01*
X112195098Y-32530988D01*
X112197186Y-32516912D01*
X112200644Y-32503109D01*
X112205437Y-32489711D01*
X112211521Y-32476847D01*
X112218837Y-32464642D01*
X112227313Y-32453213D01*
X112236870Y-32442670D01*
X112247413Y-32433113D01*
X112258842Y-32424637D01*
X112271047Y-32417321D01*
X112283911Y-32411237D01*
X112297309Y-32406444D01*
X112311112Y-32402986D01*
X112325188Y-32400898D01*
X112339400Y-32400200D01*
X112629400Y-32400200D01*
X112643612Y-32400898D01*
G37*
G36*
X111753612Y-32400898D02*
G01*
X111767688Y-32402986D01*
X111781491Y-32406444D01*
X111794889Y-32411237D01*
X111807753Y-32417321D01*
X111819958Y-32424637D01*
X111831387Y-32433113D01*
X111841930Y-32442670D01*
X111851487Y-32453213D01*
X111859963Y-32464642D01*
X111867279Y-32476847D01*
X111873363Y-32489711D01*
X111878156Y-32503109D01*
X111881614Y-32516912D01*
X111883702Y-32530988D01*
X111884400Y-32545200D01*
X111884400Y-32885200D01*
X111883702Y-32899412D01*
X111881614Y-32913488D01*
X111878156Y-32927291D01*
X111873363Y-32940689D01*
X111867279Y-32953553D01*
X111859963Y-32965758D01*
X111851487Y-32977187D01*
X111841930Y-32987730D01*
X111831387Y-32997287D01*
X111819958Y-33005763D01*
X111807753Y-33013079D01*
X111794889Y-33019163D01*
X111781491Y-33023956D01*
X111767688Y-33027414D01*
X111753612Y-33029502D01*
X111739400Y-33030200D01*
X111449400Y-33030200D01*
X111435188Y-33029502D01*
X111421112Y-33027414D01*
X111407309Y-33023956D01*
X111393911Y-33019163D01*
X111381047Y-33013079D01*
X111368842Y-33005763D01*
X111357413Y-32997287D01*
X111346870Y-32987730D01*
X111337313Y-32977187D01*
X111328837Y-32965758D01*
X111321521Y-32953553D01*
X111315437Y-32940689D01*
X111310644Y-32927291D01*
X111307186Y-32913488D01*
X111305098Y-32899412D01*
X111304400Y-32885200D01*
X111304400Y-32545200D01*
X111305098Y-32530988D01*
X111307186Y-32516912D01*
X111310644Y-32503109D01*
X111315437Y-32489711D01*
X111321521Y-32476847D01*
X111328837Y-32464642D01*
X111337313Y-32453213D01*
X111346870Y-32442670D01*
X111357413Y-32433113D01*
X111368842Y-32424637D01*
X111381047Y-32417321D01*
X111393911Y-32411237D01*
X111407309Y-32406444D01*
X111421112Y-32402986D01*
X111435188Y-32400898D01*
X111449400Y-32400200D01*
X111739400Y-32400200D01*
X111753612Y-32400898D01*
G37*
G36*
X109340612Y-43348298D02*
G01*
X109354688Y-43350386D01*
X109368491Y-43353844D01*
X109381889Y-43358637D01*
X109394753Y-43364721D01*
X109406958Y-43372037D01*
X109418387Y-43380513D01*
X109428930Y-43390070D01*
X109438487Y-43400613D01*
X109446963Y-43412042D01*
X109454279Y-43424247D01*
X109460363Y-43437111D01*
X109465156Y-43450509D01*
X109468614Y-43464312D01*
X109470702Y-43478388D01*
X109471400Y-43492600D01*
X109471400Y-43832600D01*
X109470702Y-43846812D01*
X109468614Y-43860888D01*
X109465156Y-43874691D01*
X109460363Y-43888089D01*
X109454279Y-43900953D01*
X109446963Y-43913158D01*
X109438487Y-43924587D01*
X109428930Y-43935130D01*
X109418387Y-43944687D01*
X109406958Y-43953163D01*
X109394753Y-43960479D01*
X109381889Y-43966563D01*
X109368491Y-43971356D01*
X109354688Y-43974814D01*
X109340612Y-43976902D01*
X109326400Y-43977600D01*
X109036400Y-43977600D01*
X109022188Y-43976902D01*
X109008112Y-43974814D01*
X108994309Y-43971356D01*
X108980911Y-43966563D01*
X108968047Y-43960479D01*
X108955842Y-43953163D01*
X108944413Y-43944687D01*
X108933870Y-43935130D01*
X108924313Y-43924587D01*
X108915837Y-43913158D01*
X108908521Y-43900953D01*
X108902437Y-43888089D01*
X108897644Y-43874691D01*
X108894186Y-43860888D01*
X108892098Y-43846812D01*
X108891400Y-43832600D01*
X108891400Y-43492600D01*
X108892098Y-43478388D01*
X108894186Y-43464312D01*
X108897644Y-43450509D01*
X108902437Y-43437111D01*
X108908521Y-43424247D01*
X108915837Y-43412042D01*
X108924313Y-43400613D01*
X108933870Y-43390070D01*
X108944413Y-43380513D01*
X108955842Y-43372037D01*
X108968047Y-43364721D01*
X108980911Y-43358637D01*
X108994309Y-43353844D01*
X109008112Y-43350386D01*
X109022188Y-43348298D01*
X109036400Y-43347600D01*
X109326400Y-43347600D01*
X109340612Y-43348298D01*
G37*
G36*
X110230612Y-43348298D02*
G01*
X110244688Y-43350386D01*
X110258491Y-43353844D01*
X110271889Y-43358637D01*
X110284753Y-43364721D01*
X110296958Y-43372037D01*
X110308387Y-43380513D01*
X110318930Y-43390070D01*
X110328487Y-43400613D01*
X110336963Y-43412042D01*
X110344279Y-43424247D01*
X110350363Y-43437111D01*
X110355156Y-43450509D01*
X110358614Y-43464312D01*
X110360702Y-43478388D01*
X110361400Y-43492600D01*
X110361400Y-43832600D01*
X110360702Y-43846812D01*
X110358614Y-43860888D01*
X110355156Y-43874691D01*
X110350363Y-43888089D01*
X110344279Y-43900953D01*
X110336963Y-43913158D01*
X110328487Y-43924587D01*
X110318930Y-43935130D01*
X110308387Y-43944687D01*
X110296958Y-43953163D01*
X110284753Y-43960479D01*
X110271889Y-43966563D01*
X110258491Y-43971356D01*
X110244688Y-43974814D01*
X110230612Y-43976902D01*
X110216400Y-43977600D01*
X109926400Y-43977600D01*
X109912188Y-43976902D01*
X109898112Y-43974814D01*
X109884309Y-43971356D01*
X109870911Y-43966563D01*
X109858047Y-43960479D01*
X109845842Y-43953163D01*
X109834413Y-43944687D01*
X109823870Y-43935130D01*
X109814313Y-43924587D01*
X109805837Y-43913158D01*
X109798521Y-43900953D01*
X109792437Y-43888089D01*
X109787644Y-43874691D01*
X109784186Y-43860888D01*
X109782098Y-43846812D01*
X109781400Y-43832600D01*
X109781400Y-43492600D01*
X109782098Y-43478388D01*
X109784186Y-43464312D01*
X109787644Y-43450509D01*
X109792437Y-43437111D01*
X109798521Y-43424247D01*
X109805837Y-43412042D01*
X109814313Y-43400613D01*
X109823870Y-43390070D01*
X109834413Y-43380513D01*
X109845842Y-43372037D01*
X109858047Y-43364721D01*
X109870911Y-43358637D01*
X109884309Y-43353844D01*
X109898112Y-43350386D01*
X109912188Y-43348298D01*
X109926400Y-43347600D01*
X110216400Y-43347600D01*
X110230612Y-43348298D01*
G37*
G36*
X112643612Y-31461098D02*
G01*
X112657688Y-31463186D01*
X112671491Y-31466644D01*
X112684889Y-31471437D01*
X112697753Y-31477521D01*
X112709958Y-31484837D01*
X112721387Y-31493313D01*
X112731930Y-31502870D01*
X112741487Y-31513413D01*
X112749963Y-31524842D01*
X112757279Y-31537047D01*
X112763363Y-31549911D01*
X112768156Y-31563309D01*
X112771614Y-31577112D01*
X112773702Y-31591188D01*
X112774400Y-31605400D01*
X112774400Y-31945400D01*
X112773702Y-31959612D01*
X112771614Y-31973688D01*
X112768156Y-31987491D01*
X112763363Y-32000889D01*
X112757279Y-32013753D01*
X112749963Y-32025958D01*
X112741487Y-32037387D01*
X112731930Y-32047930D01*
X112721387Y-32057487D01*
X112709958Y-32065963D01*
X112697753Y-32073279D01*
X112684889Y-32079363D01*
X112671491Y-32084156D01*
X112657688Y-32087614D01*
X112643612Y-32089702D01*
X112629400Y-32090400D01*
X112339400Y-32090400D01*
X112325188Y-32089702D01*
X112311112Y-32087614D01*
X112297309Y-32084156D01*
X112283911Y-32079363D01*
X112271047Y-32073279D01*
X112258842Y-32065963D01*
X112247413Y-32057487D01*
X112236870Y-32047930D01*
X112227313Y-32037387D01*
X112218837Y-32025958D01*
X112211521Y-32013753D01*
X112205437Y-32000889D01*
X112200644Y-31987491D01*
X112197186Y-31973688D01*
X112195098Y-31959612D01*
X112194400Y-31945400D01*
X112194400Y-31605400D01*
X112195098Y-31591188D01*
X112197186Y-31577112D01*
X112200644Y-31563309D01*
X112205437Y-31549911D01*
X112211521Y-31537047D01*
X112218837Y-31524842D01*
X112227313Y-31513413D01*
X112236870Y-31502870D01*
X112247413Y-31493313D01*
X112258842Y-31484837D01*
X112271047Y-31477521D01*
X112283911Y-31471437D01*
X112297309Y-31466644D01*
X112311112Y-31463186D01*
X112325188Y-31461098D01*
X112339400Y-31460400D01*
X112629400Y-31460400D01*
X112643612Y-31461098D01*
G37*
G36*
X111753612Y-31461098D02*
G01*
X111767688Y-31463186D01*
X111781491Y-31466644D01*
X111794889Y-31471437D01*
X111807753Y-31477521D01*
X111819958Y-31484837D01*
X111831387Y-31493313D01*
X111841930Y-31502870D01*
X111851487Y-31513413D01*
X111859963Y-31524842D01*
X111867279Y-31537047D01*
X111873363Y-31549911D01*
X111878156Y-31563309D01*
X111881614Y-31577112D01*
X111883702Y-31591188D01*
X111884400Y-31605400D01*
X111884400Y-31945400D01*
X111883702Y-31959612D01*
X111881614Y-31973688D01*
X111878156Y-31987491D01*
X111873363Y-32000889D01*
X111867279Y-32013753D01*
X111859963Y-32025958D01*
X111851487Y-32037387D01*
X111841930Y-32047930D01*
X111831387Y-32057487D01*
X111819958Y-32065963D01*
X111807753Y-32073279D01*
X111794889Y-32079363D01*
X111781491Y-32084156D01*
X111767688Y-32087614D01*
X111753612Y-32089702D01*
X111739400Y-32090400D01*
X111449400Y-32090400D01*
X111435188Y-32089702D01*
X111421112Y-32087614D01*
X111407309Y-32084156D01*
X111393911Y-32079363D01*
X111381047Y-32073279D01*
X111368842Y-32065963D01*
X111357413Y-32057487D01*
X111346870Y-32047930D01*
X111337313Y-32037387D01*
X111328837Y-32025958D01*
X111321521Y-32013753D01*
X111315437Y-32000889D01*
X111310644Y-31987491D01*
X111307186Y-31973688D01*
X111305098Y-31959612D01*
X111304400Y-31945400D01*
X111304400Y-31605400D01*
X111305098Y-31591188D01*
X111307186Y-31577112D01*
X111310644Y-31563309D01*
X111315437Y-31549911D01*
X111321521Y-31537047D01*
X111328837Y-31524842D01*
X111337313Y-31513413D01*
X111346870Y-31502870D01*
X111357413Y-31493313D01*
X111368842Y-31484837D01*
X111381047Y-31477521D01*
X111393911Y-31471437D01*
X111407309Y-31466644D01*
X111421112Y-31463186D01*
X111435188Y-31461098D01*
X111449400Y-31460400D01*
X111739400Y-31460400D01*
X111753612Y-31461098D01*
G37*
G36*
X112592812Y-43678498D02*
G01*
X112606888Y-43680586D01*
X112620691Y-43684044D01*
X112634089Y-43688837D01*
X112646953Y-43694921D01*
X112659158Y-43702237D01*
X112670587Y-43710713D01*
X112681130Y-43720270D01*
X112690687Y-43730813D01*
X112699163Y-43742242D01*
X112706479Y-43754447D01*
X112712563Y-43767311D01*
X112717356Y-43780709D01*
X112720814Y-43794512D01*
X112722902Y-43808588D01*
X112723600Y-43822800D01*
X112723600Y-44162800D01*
X112722902Y-44177012D01*
X112720814Y-44191088D01*
X112717356Y-44204891D01*
X112712563Y-44218289D01*
X112706479Y-44231153D01*
X112699163Y-44243358D01*
X112690687Y-44254787D01*
X112681130Y-44265330D01*
X112670587Y-44274887D01*
X112659158Y-44283363D01*
X112646953Y-44290679D01*
X112634089Y-44296763D01*
X112620691Y-44301556D01*
X112606888Y-44305014D01*
X112592812Y-44307102D01*
X112578600Y-44307800D01*
X112288600Y-44307800D01*
X112274388Y-44307102D01*
X112260312Y-44305014D01*
X112246509Y-44301556D01*
X112233111Y-44296763D01*
X112220247Y-44290679D01*
X112208042Y-44283363D01*
X112196613Y-44274887D01*
X112186070Y-44265330D01*
X112176513Y-44254787D01*
X112168037Y-44243358D01*
X112160721Y-44231153D01*
X112154637Y-44218289D01*
X112149844Y-44204891D01*
X112146386Y-44191088D01*
X112144298Y-44177012D01*
X112143600Y-44162800D01*
X112143600Y-43822800D01*
X112144298Y-43808588D01*
X112146386Y-43794512D01*
X112149844Y-43780709D01*
X112154637Y-43767311D01*
X112160721Y-43754447D01*
X112168037Y-43742242D01*
X112176513Y-43730813D01*
X112186070Y-43720270D01*
X112196613Y-43710713D01*
X112208042Y-43702237D01*
X112220247Y-43694921D01*
X112233111Y-43688837D01*
X112246509Y-43684044D01*
X112260312Y-43680586D01*
X112274388Y-43678498D01*
X112288600Y-43677800D01*
X112578600Y-43677800D01*
X112592812Y-43678498D01*
G37*
G36*
X111702812Y-43678498D02*
G01*
X111716888Y-43680586D01*
X111730691Y-43684044D01*
X111744089Y-43688837D01*
X111756953Y-43694921D01*
X111769158Y-43702237D01*
X111780587Y-43710713D01*
X111791130Y-43720270D01*
X111800687Y-43730813D01*
X111809163Y-43742242D01*
X111816479Y-43754447D01*
X111822563Y-43767311D01*
X111827356Y-43780709D01*
X111830814Y-43794512D01*
X111832902Y-43808588D01*
X111833600Y-43822800D01*
X111833600Y-44162800D01*
X111832902Y-44177012D01*
X111830814Y-44191088D01*
X111827356Y-44204891D01*
X111822563Y-44218289D01*
X111816479Y-44231153D01*
X111809163Y-44243358D01*
X111800687Y-44254787D01*
X111791130Y-44265330D01*
X111780587Y-44274887D01*
X111769158Y-44283363D01*
X111756953Y-44290679D01*
X111744089Y-44296763D01*
X111730691Y-44301556D01*
X111716888Y-44305014D01*
X111702812Y-44307102D01*
X111688600Y-44307800D01*
X111398600Y-44307800D01*
X111384388Y-44307102D01*
X111370312Y-44305014D01*
X111356509Y-44301556D01*
X111343111Y-44296763D01*
X111330247Y-44290679D01*
X111318042Y-44283363D01*
X111306613Y-44274887D01*
X111296070Y-44265330D01*
X111286513Y-44254787D01*
X111278037Y-44243358D01*
X111270721Y-44231153D01*
X111264637Y-44218289D01*
X111259844Y-44204891D01*
X111256386Y-44191088D01*
X111254298Y-44177012D01*
X111253600Y-44162800D01*
X111253600Y-43822800D01*
X111254298Y-43808588D01*
X111256386Y-43794512D01*
X111259844Y-43780709D01*
X111264637Y-43767311D01*
X111270721Y-43754447D01*
X111278037Y-43742242D01*
X111286513Y-43730813D01*
X111296070Y-43720270D01*
X111306613Y-43710713D01*
X111318042Y-43702237D01*
X111330247Y-43694921D01*
X111343111Y-43688837D01*
X111356509Y-43684044D01*
X111370312Y-43680586D01*
X111384388Y-43678498D01*
X111398600Y-43677800D01*
X111688600Y-43677800D01*
X111702812Y-43678498D01*
G37*
G36*
X112592812Y-44618298D02*
G01*
X112606888Y-44620386D01*
X112620691Y-44623844D01*
X112634089Y-44628637D01*
X112646953Y-44634721D01*
X112659158Y-44642037D01*
X112670587Y-44650513D01*
X112681130Y-44660070D01*
X112690687Y-44670613D01*
X112699163Y-44682042D01*
X112706479Y-44694247D01*
X112712563Y-44707111D01*
X112717356Y-44720509D01*
X112720814Y-44734312D01*
X112722902Y-44748388D01*
X112723600Y-44762600D01*
X112723600Y-45102600D01*
X112722902Y-45116812D01*
X112720814Y-45130888D01*
X112717356Y-45144691D01*
X112712563Y-45158089D01*
X112706479Y-45170953D01*
X112699163Y-45183158D01*
X112690687Y-45194587D01*
X112681130Y-45205130D01*
X112670587Y-45214687D01*
X112659158Y-45223163D01*
X112646953Y-45230479D01*
X112634089Y-45236563D01*
X112620691Y-45241356D01*
X112606888Y-45244814D01*
X112592812Y-45246902D01*
X112578600Y-45247600D01*
X112288600Y-45247600D01*
X112274388Y-45246902D01*
X112260312Y-45244814D01*
X112246509Y-45241356D01*
X112233111Y-45236563D01*
X112220247Y-45230479D01*
X112208042Y-45223163D01*
X112196613Y-45214687D01*
X112186070Y-45205130D01*
X112176513Y-45194587D01*
X112168037Y-45183158D01*
X112160721Y-45170953D01*
X112154637Y-45158089D01*
X112149844Y-45144691D01*
X112146386Y-45130888D01*
X112144298Y-45116812D01*
X112143600Y-45102600D01*
X112143600Y-44762600D01*
X112144298Y-44748388D01*
X112146386Y-44734312D01*
X112149844Y-44720509D01*
X112154637Y-44707111D01*
X112160721Y-44694247D01*
X112168037Y-44682042D01*
X112176513Y-44670613D01*
X112186070Y-44660070D01*
X112196613Y-44650513D01*
X112208042Y-44642037D01*
X112220247Y-44634721D01*
X112233111Y-44628637D01*
X112246509Y-44623844D01*
X112260312Y-44620386D01*
X112274388Y-44618298D01*
X112288600Y-44617600D01*
X112578600Y-44617600D01*
X112592812Y-44618298D01*
G37*
G36*
X111702812Y-44618298D02*
G01*
X111716888Y-44620386D01*
X111730691Y-44623844D01*
X111744089Y-44628637D01*
X111756953Y-44634721D01*
X111769158Y-44642037D01*
X111780587Y-44650513D01*
X111791130Y-44660070D01*
X111800687Y-44670613D01*
X111809163Y-44682042D01*
X111816479Y-44694247D01*
X111822563Y-44707111D01*
X111827356Y-44720509D01*
X111830814Y-44734312D01*
X111832902Y-44748388D01*
X111833600Y-44762600D01*
X111833600Y-45102600D01*
X111832902Y-45116812D01*
X111830814Y-45130888D01*
X111827356Y-45144691D01*
X111822563Y-45158089D01*
X111816479Y-45170953D01*
X111809163Y-45183158D01*
X111800687Y-45194587D01*
X111791130Y-45205130D01*
X111780587Y-45214687D01*
X111769158Y-45223163D01*
X111756953Y-45230479D01*
X111744089Y-45236563D01*
X111730691Y-45241356D01*
X111716888Y-45244814D01*
X111702812Y-45246902D01*
X111688600Y-45247600D01*
X111398600Y-45247600D01*
X111384388Y-45246902D01*
X111370312Y-45244814D01*
X111356509Y-45241356D01*
X111343111Y-45236563D01*
X111330247Y-45230479D01*
X111318042Y-45223163D01*
X111306613Y-45214687D01*
X111296070Y-45205130D01*
X111286513Y-45194587D01*
X111278037Y-45183158D01*
X111270721Y-45170953D01*
X111264637Y-45158089D01*
X111259844Y-45144691D01*
X111256386Y-45130888D01*
X111254298Y-45116812D01*
X111253600Y-45102600D01*
X111253600Y-44762600D01*
X111254298Y-44748388D01*
X111256386Y-44734312D01*
X111259844Y-44720509D01*
X111264637Y-44707111D01*
X111270721Y-44694247D01*
X111278037Y-44682042D01*
X111286513Y-44670613D01*
X111296070Y-44660070D01*
X111306613Y-44650513D01*
X111318042Y-44642037D01*
X111330247Y-44634721D01*
X111343111Y-44628637D01*
X111356509Y-44623844D01*
X111370312Y-44620386D01*
X111384388Y-44618298D01*
X111398600Y-44617600D01*
X111688600Y-44617600D01*
X111702812Y-44618298D01*
G37*
G36*
X117252812Y-35816298D02*
G01*
X117266888Y-35818386D01*
X117280691Y-35821844D01*
X117294089Y-35826637D01*
X117306953Y-35832721D01*
X117319158Y-35840037D01*
X117330587Y-35848513D01*
X117341130Y-35858070D01*
X117350687Y-35868613D01*
X117359163Y-35880042D01*
X117366479Y-35892247D01*
X117372563Y-35905111D01*
X117377356Y-35918509D01*
X117380814Y-35932312D01*
X117382902Y-35946388D01*
X117383600Y-35960600D01*
X117383600Y-36250600D01*
X117382902Y-36264812D01*
X117380814Y-36278888D01*
X117377356Y-36292691D01*
X117372563Y-36306089D01*
X117366479Y-36318953D01*
X117359163Y-36331158D01*
X117350687Y-36342587D01*
X117341130Y-36353130D01*
X117330587Y-36362687D01*
X117319158Y-36371163D01*
X117306953Y-36378479D01*
X117294089Y-36384563D01*
X117280691Y-36389356D01*
X117266888Y-36392814D01*
X117252812Y-36394902D01*
X117238600Y-36395600D01*
X116898600Y-36395600D01*
X116884388Y-36394902D01*
X116870312Y-36392814D01*
X116856509Y-36389356D01*
X116843111Y-36384563D01*
X116830247Y-36378479D01*
X116818042Y-36371163D01*
X116806613Y-36362687D01*
X116796070Y-36353130D01*
X116786513Y-36342587D01*
X116778037Y-36331158D01*
X116770721Y-36318953D01*
X116764637Y-36306089D01*
X116759844Y-36292691D01*
X116756386Y-36278888D01*
X116754298Y-36264812D01*
X116753600Y-36250600D01*
X116753600Y-35960600D01*
X116754298Y-35946388D01*
X116756386Y-35932312D01*
X116759844Y-35918509D01*
X116764637Y-35905111D01*
X116770721Y-35892247D01*
X116778037Y-35880042D01*
X116786513Y-35868613D01*
X116796070Y-35858070D01*
X116806613Y-35848513D01*
X116818042Y-35840037D01*
X116830247Y-35832721D01*
X116843111Y-35826637D01*
X116856509Y-35821844D01*
X116870312Y-35818386D01*
X116884388Y-35816298D01*
X116898600Y-35815600D01*
X117238600Y-35815600D01*
X117252812Y-35816298D01*
G37*
G36*
X117252812Y-36706298D02*
G01*
X117266888Y-36708386D01*
X117280691Y-36711844D01*
X117294089Y-36716637D01*
X117306953Y-36722721D01*
X117319158Y-36730037D01*
X117330587Y-36738513D01*
X117341130Y-36748070D01*
X117350687Y-36758613D01*
X117359163Y-36770042D01*
X117366479Y-36782247D01*
X117372563Y-36795111D01*
X117377356Y-36808509D01*
X117380814Y-36822312D01*
X117382902Y-36836388D01*
X117383600Y-36850600D01*
X117383600Y-37140600D01*
X117382902Y-37154812D01*
X117380814Y-37168888D01*
X117377356Y-37182691D01*
X117372563Y-37196089D01*
X117366479Y-37208953D01*
X117359163Y-37221158D01*
X117350687Y-37232587D01*
X117341130Y-37243130D01*
X117330587Y-37252687D01*
X117319158Y-37261163D01*
X117306953Y-37268479D01*
X117294089Y-37274563D01*
X117280691Y-37279356D01*
X117266888Y-37282814D01*
X117252812Y-37284902D01*
X117238600Y-37285600D01*
X116898600Y-37285600D01*
X116884388Y-37284902D01*
X116870312Y-37282814D01*
X116856509Y-37279356D01*
X116843111Y-37274563D01*
X116830247Y-37268479D01*
X116818042Y-37261163D01*
X116806613Y-37252687D01*
X116796070Y-37243130D01*
X116786513Y-37232587D01*
X116778037Y-37221158D01*
X116770721Y-37208953D01*
X116764637Y-37196089D01*
X116759844Y-37182691D01*
X116756386Y-37168888D01*
X116754298Y-37154812D01*
X116753600Y-37140600D01*
X116753600Y-36850600D01*
X116754298Y-36836388D01*
X116756386Y-36822312D01*
X116759844Y-36808509D01*
X116764637Y-36795111D01*
X116770721Y-36782247D01*
X116778037Y-36770042D01*
X116786513Y-36758613D01*
X116796070Y-36748070D01*
X116806613Y-36738513D01*
X116818042Y-36730037D01*
X116830247Y-36722721D01*
X116843111Y-36716637D01*
X116856509Y-36711844D01*
X116870312Y-36708386D01*
X116884388Y-36706298D01*
X116898600Y-36705600D01*
X117238600Y-36705600D01*
X117252812Y-36706298D01*
G37*
G36*
X105746612Y-34952698D02*
G01*
X105760688Y-34954786D01*
X105774491Y-34958244D01*
X105787889Y-34963037D01*
X105800753Y-34969121D01*
X105812958Y-34976437D01*
X105824387Y-34984913D01*
X105834930Y-34994470D01*
X105844487Y-35005013D01*
X105852963Y-35016442D01*
X105860279Y-35028647D01*
X105866363Y-35041511D01*
X105871156Y-35054909D01*
X105874614Y-35068712D01*
X105876702Y-35082788D01*
X105877400Y-35097000D01*
X105877400Y-35387000D01*
X105876702Y-35401212D01*
X105874614Y-35415288D01*
X105871156Y-35429091D01*
X105866363Y-35442489D01*
X105860279Y-35455353D01*
X105852963Y-35467558D01*
X105844487Y-35478987D01*
X105834930Y-35489530D01*
X105824387Y-35499087D01*
X105812958Y-35507563D01*
X105800753Y-35514879D01*
X105787889Y-35520963D01*
X105774491Y-35525756D01*
X105760688Y-35529214D01*
X105746612Y-35531302D01*
X105732400Y-35532000D01*
X105392400Y-35532000D01*
X105378188Y-35531302D01*
X105364112Y-35529214D01*
X105350309Y-35525756D01*
X105336911Y-35520963D01*
X105324047Y-35514879D01*
X105311842Y-35507563D01*
X105300413Y-35499087D01*
X105289870Y-35489530D01*
X105280313Y-35478987D01*
X105271837Y-35467558D01*
X105264521Y-35455353D01*
X105258437Y-35442489D01*
X105253644Y-35429091D01*
X105250186Y-35415288D01*
X105248098Y-35401212D01*
X105247400Y-35387000D01*
X105247400Y-35097000D01*
X105248098Y-35082788D01*
X105250186Y-35068712D01*
X105253644Y-35054909D01*
X105258437Y-35041511D01*
X105264521Y-35028647D01*
X105271837Y-35016442D01*
X105280313Y-35005013D01*
X105289870Y-34994470D01*
X105300413Y-34984913D01*
X105311842Y-34976437D01*
X105324047Y-34969121D01*
X105336911Y-34963037D01*
X105350309Y-34958244D01*
X105364112Y-34954786D01*
X105378188Y-34952698D01*
X105392400Y-34952000D01*
X105732400Y-34952000D01*
X105746612Y-34952698D01*
G37*
G36*
X105746612Y-35842698D02*
G01*
X105760688Y-35844786D01*
X105774491Y-35848244D01*
X105787889Y-35853037D01*
X105800753Y-35859121D01*
X105812958Y-35866437D01*
X105824387Y-35874913D01*
X105834930Y-35884470D01*
X105844487Y-35895013D01*
X105852963Y-35906442D01*
X105860279Y-35918647D01*
X105866363Y-35931511D01*
X105871156Y-35944909D01*
X105874614Y-35958712D01*
X105876702Y-35972788D01*
X105877400Y-35987000D01*
X105877400Y-36277000D01*
X105876702Y-36291212D01*
X105874614Y-36305288D01*
X105871156Y-36319091D01*
X105866363Y-36332489D01*
X105860279Y-36345353D01*
X105852963Y-36357558D01*
X105844487Y-36368987D01*
X105834930Y-36379530D01*
X105824387Y-36389087D01*
X105812958Y-36397563D01*
X105800753Y-36404879D01*
X105787889Y-36410963D01*
X105774491Y-36415756D01*
X105760688Y-36419214D01*
X105746612Y-36421302D01*
X105732400Y-36422000D01*
X105392400Y-36422000D01*
X105378188Y-36421302D01*
X105364112Y-36419214D01*
X105350309Y-36415756D01*
X105336911Y-36410963D01*
X105324047Y-36404879D01*
X105311842Y-36397563D01*
X105300413Y-36389087D01*
X105289870Y-36379530D01*
X105280313Y-36368987D01*
X105271837Y-36357558D01*
X105264521Y-36345353D01*
X105258437Y-36332489D01*
X105253644Y-36319091D01*
X105250186Y-36305288D01*
X105248098Y-36291212D01*
X105247400Y-36277000D01*
X105247400Y-35987000D01*
X105248098Y-35972788D01*
X105250186Y-35958712D01*
X105253644Y-35944909D01*
X105258437Y-35931511D01*
X105264521Y-35918647D01*
X105271837Y-35906442D01*
X105280313Y-35895013D01*
X105289870Y-35884470D01*
X105300413Y-35874913D01*
X105311842Y-35866437D01*
X105324047Y-35859121D01*
X105336911Y-35853037D01*
X105350309Y-35848244D01*
X105364112Y-35844786D01*
X105378188Y-35842698D01*
X105392400Y-35842000D01*
X105732400Y-35842000D01*
X105746612Y-35842698D01*
G37*
G36*
X118218012Y-29645098D02*
G01*
X118232088Y-29647186D01*
X118245891Y-29650644D01*
X118259289Y-29655437D01*
X118272153Y-29661521D01*
X118284358Y-29668837D01*
X118295787Y-29677313D01*
X118306330Y-29686870D01*
X118315887Y-29697413D01*
X118324363Y-29708842D01*
X118331679Y-29721047D01*
X118337763Y-29733911D01*
X118342556Y-29747309D01*
X118346014Y-29761112D01*
X118348102Y-29775188D01*
X118348800Y-29789400D01*
X118348800Y-30079400D01*
X118348102Y-30093612D01*
X118346014Y-30107688D01*
X118342556Y-30121491D01*
X118337763Y-30134889D01*
X118331679Y-30147753D01*
X118324363Y-30159958D01*
X118315887Y-30171387D01*
X118306330Y-30181930D01*
X118295787Y-30191487D01*
X118284358Y-30199963D01*
X118272153Y-30207279D01*
X118259289Y-30213363D01*
X118245891Y-30218156D01*
X118232088Y-30221614D01*
X118218012Y-30223702D01*
X118203800Y-30224400D01*
X117863800Y-30224400D01*
X117849588Y-30223702D01*
X117835512Y-30221614D01*
X117821709Y-30218156D01*
X117808311Y-30213363D01*
X117795447Y-30207279D01*
X117783242Y-30199963D01*
X117771813Y-30191487D01*
X117761270Y-30181930D01*
X117751713Y-30171387D01*
X117743237Y-30159958D01*
X117735921Y-30147753D01*
X117729837Y-30134889D01*
X117725044Y-30121491D01*
X117721586Y-30107688D01*
X117719498Y-30093612D01*
X117718800Y-30079400D01*
X117718800Y-29789400D01*
X117719498Y-29775188D01*
X117721586Y-29761112D01*
X117725044Y-29747309D01*
X117729837Y-29733911D01*
X117735921Y-29721047D01*
X117743237Y-29708842D01*
X117751713Y-29697413D01*
X117761270Y-29686870D01*
X117771813Y-29677313D01*
X117783242Y-29668837D01*
X117795447Y-29661521D01*
X117808311Y-29655437D01*
X117821709Y-29650644D01*
X117835512Y-29647186D01*
X117849588Y-29645098D01*
X117863800Y-29644400D01*
X118203800Y-29644400D01*
X118218012Y-29645098D01*
G37*
G36*
X118218012Y-28755098D02*
G01*
X118232088Y-28757186D01*
X118245891Y-28760644D01*
X118259289Y-28765437D01*
X118272153Y-28771521D01*
X118284358Y-28778837D01*
X118295787Y-28787313D01*
X118306330Y-28796870D01*
X118315887Y-28807413D01*
X118324363Y-28818842D01*
X118331679Y-28831047D01*
X118337763Y-28843911D01*
X118342556Y-28857309D01*
X118346014Y-28871112D01*
X118348102Y-28885188D01*
X118348800Y-28899400D01*
X118348800Y-29189400D01*
X118348102Y-29203612D01*
X118346014Y-29217688D01*
X118342556Y-29231491D01*
X118337763Y-29244889D01*
X118331679Y-29257753D01*
X118324363Y-29269958D01*
X118315887Y-29281387D01*
X118306330Y-29291930D01*
X118295787Y-29301487D01*
X118284358Y-29309963D01*
X118272153Y-29317279D01*
X118259289Y-29323363D01*
X118245891Y-29328156D01*
X118232088Y-29331614D01*
X118218012Y-29333702D01*
X118203800Y-29334400D01*
X117863800Y-29334400D01*
X117849588Y-29333702D01*
X117835512Y-29331614D01*
X117821709Y-29328156D01*
X117808311Y-29323363D01*
X117795447Y-29317279D01*
X117783242Y-29309963D01*
X117771813Y-29301487D01*
X117761270Y-29291930D01*
X117751713Y-29281387D01*
X117743237Y-29269958D01*
X117735921Y-29257753D01*
X117729837Y-29244889D01*
X117725044Y-29231491D01*
X117721586Y-29217688D01*
X117719498Y-29203612D01*
X117718800Y-29189400D01*
X117718800Y-28899400D01*
X117719498Y-28885188D01*
X117721586Y-28871112D01*
X117725044Y-28857309D01*
X117729837Y-28843911D01*
X117735921Y-28831047D01*
X117743237Y-28818842D01*
X117751713Y-28807413D01*
X117761270Y-28796870D01*
X117771813Y-28787313D01*
X117783242Y-28778837D01*
X117795447Y-28771521D01*
X117808311Y-28765437D01*
X117821709Y-28760644D01*
X117835512Y-28757186D01*
X117849588Y-28755098D01*
X117863800Y-28754400D01*
X118203800Y-28754400D01*
X118218012Y-28755098D01*
G37*
G36*
X120136612Y-26050898D02*
G01*
X120150688Y-26052986D01*
X120164491Y-26056444D01*
X120177889Y-26061237D01*
X120190753Y-26067321D01*
X120202958Y-26074637D01*
X120214387Y-26083113D01*
X120224930Y-26092670D01*
X120234487Y-26103213D01*
X120242963Y-26114642D01*
X120250279Y-26126847D01*
X120256363Y-26139711D01*
X120261156Y-26153109D01*
X120264614Y-26166912D01*
X120266702Y-26180988D01*
X120267400Y-26195200D01*
X120267400Y-26535200D01*
X120266702Y-26549412D01*
X120264614Y-26563488D01*
X120261156Y-26577291D01*
X120256363Y-26590689D01*
X120250279Y-26603553D01*
X120242963Y-26615758D01*
X120234487Y-26627187D01*
X120224930Y-26637730D01*
X120214387Y-26647287D01*
X120202958Y-26655763D01*
X120190753Y-26663079D01*
X120177889Y-26669163D01*
X120164491Y-26673956D01*
X120150688Y-26677414D01*
X120136612Y-26679502D01*
X120122400Y-26680200D01*
X119832400Y-26680200D01*
X119818188Y-26679502D01*
X119804112Y-26677414D01*
X119790309Y-26673956D01*
X119776911Y-26669163D01*
X119764047Y-26663079D01*
X119751842Y-26655763D01*
X119740413Y-26647287D01*
X119729870Y-26637730D01*
X119720313Y-26627187D01*
X119711837Y-26615758D01*
X119704521Y-26603553D01*
X119698437Y-26590689D01*
X119693644Y-26577291D01*
X119690186Y-26563488D01*
X119688098Y-26549412D01*
X119687400Y-26535200D01*
X119687400Y-26195200D01*
X119688098Y-26180988D01*
X119690186Y-26166912D01*
X119693644Y-26153109D01*
X119698437Y-26139711D01*
X119704521Y-26126847D01*
X119711837Y-26114642D01*
X119720313Y-26103213D01*
X119729870Y-26092670D01*
X119740413Y-26083113D01*
X119751842Y-26074637D01*
X119764047Y-26067321D01*
X119776911Y-26061237D01*
X119790309Y-26056444D01*
X119804112Y-26052986D01*
X119818188Y-26050898D01*
X119832400Y-26050200D01*
X120122400Y-26050200D01*
X120136612Y-26050898D01*
G37*
G36*
X119246612Y-26050898D02*
G01*
X119260688Y-26052986D01*
X119274491Y-26056444D01*
X119287889Y-26061237D01*
X119300753Y-26067321D01*
X119312958Y-26074637D01*
X119324387Y-26083113D01*
X119334930Y-26092670D01*
X119344487Y-26103213D01*
X119352963Y-26114642D01*
X119360279Y-26126847D01*
X119366363Y-26139711D01*
X119371156Y-26153109D01*
X119374614Y-26166912D01*
X119376702Y-26180988D01*
X119377400Y-26195200D01*
X119377400Y-26535200D01*
X119376702Y-26549412D01*
X119374614Y-26563488D01*
X119371156Y-26577291D01*
X119366363Y-26590689D01*
X119360279Y-26603553D01*
X119352963Y-26615758D01*
X119344487Y-26627187D01*
X119334930Y-26637730D01*
X119324387Y-26647287D01*
X119312958Y-26655763D01*
X119300753Y-26663079D01*
X119287889Y-26669163D01*
X119274491Y-26673956D01*
X119260688Y-26677414D01*
X119246612Y-26679502D01*
X119232400Y-26680200D01*
X118942400Y-26680200D01*
X118928188Y-26679502D01*
X118914112Y-26677414D01*
X118900309Y-26673956D01*
X118886911Y-26669163D01*
X118874047Y-26663079D01*
X118861842Y-26655763D01*
X118850413Y-26647287D01*
X118839870Y-26637730D01*
X118830313Y-26627187D01*
X118821837Y-26615758D01*
X118814521Y-26603553D01*
X118808437Y-26590689D01*
X118803644Y-26577291D01*
X118800186Y-26563488D01*
X118798098Y-26549412D01*
X118797400Y-26535200D01*
X118797400Y-26195200D01*
X118798098Y-26180988D01*
X118800186Y-26166912D01*
X118803644Y-26153109D01*
X118808437Y-26139711D01*
X118814521Y-26126847D01*
X118821837Y-26114642D01*
X118830313Y-26103213D01*
X118839870Y-26092670D01*
X118850413Y-26083113D01*
X118861842Y-26074637D01*
X118874047Y-26067321D01*
X118886911Y-26061237D01*
X118900309Y-26056444D01*
X118914112Y-26052986D01*
X118928188Y-26050898D01*
X118942400Y-26050200D01*
X119232400Y-26050200D01*
X119246612Y-26050898D01*
G37*
G36*
X121202412Y-26050898D02*
G01*
X121216488Y-26052986D01*
X121230291Y-26056444D01*
X121243689Y-26061237D01*
X121256553Y-26067321D01*
X121268758Y-26074637D01*
X121280187Y-26083113D01*
X121290730Y-26092670D01*
X121300287Y-26103213D01*
X121308763Y-26114642D01*
X121316079Y-26126847D01*
X121322163Y-26139711D01*
X121326956Y-26153109D01*
X121330414Y-26166912D01*
X121332502Y-26180988D01*
X121333200Y-26195200D01*
X121333200Y-26535200D01*
X121332502Y-26549412D01*
X121330414Y-26563488D01*
X121326956Y-26577291D01*
X121322163Y-26590689D01*
X121316079Y-26603553D01*
X121308763Y-26615758D01*
X121300287Y-26627187D01*
X121290730Y-26637730D01*
X121280187Y-26647287D01*
X121268758Y-26655763D01*
X121256553Y-26663079D01*
X121243689Y-26669163D01*
X121230291Y-26673956D01*
X121216488Y-26677414D01*
X121202412Y-26679502D01*
X121188200Y-26680200D01*
X120898200Y-26680200D01*
X120883988Y-26679502D01*
X120869912Y-26677414D01*
X120856109Y-26673956D01*
X120842711Y-26669163D01*
X120829847Y-26663079D01*
X120817642Y-26655763D01*
X120806213Y-26647287D01*
X120795670Y-26637730D01*
X120786113Y-26627187D01*
X120777637Y-26615758D01*
X120770321Y-26603553D01*
X120764237Y-26590689D01*
X120759444Y-26577291D01*
X120755986Y-26563488D01*
X120753898Y-26549412D01*
X120753200Y-26535200D01*
X120753200Y-26195200D01*
X120753898Y-26180988D01*
X120755986Y-26166912D01*
X120759444Y-26153109D01*
X120764237Y-26139711D01*
X120770321Y-26126847D01*
X120777637Y-26114642D01*
X120786113Y-26103213D01*
X120795670Y-26092670D01*
X120806213Y-26083113D01*
X120817642Y-26074637D01*
X120829847Y-26067321D01*
X120842711Y-26061237D01*
X120856109Y-26056444D01*
X120869912Y-26052986D01*
X120883988Y-26050898D01*
X120898200Y-26050200D01*
X121188200Y-26050200D01*
X121202412Y-26050898D01*
G37*
G36*
X122092412Y-26050898D02*
G01*
X122106488Y-26052986D01*
X122120291Y-26056444D01*
X122133689Y-26061237D01*
X122146553Y-26067321D01*
X122158758Y-26074637D01*
X122170187Y-26083113D01*
X122180730Y-26092670D01*
X122190287Y-26103213D01*
X122198763Y-26114642D01*
X122206079Y-26126847D01*
X122212163Y-26139711D01*
X122216956Y-26153109D01*
X122220414Y-26166912D01*
X122222502Y-26180988D01*
X122223200Y-26195200D01*
X122223200Y-26535200D01*
X122222502Y-26549412D01*
X122220414Y-26563488D01*
X122216956Y-26577291D01*
X122212163Y-26590689D01*
X122206079Y-26603553D01*
X122198763Y-26615758D01*
X122190287Y-26627187D01*
X122180730Y-26637730D01*
X122170187Y-26647287D01*
X122158758Y-26655763D01*
X122146553Y-26663079D01*
X122133689Y-26669163D01*
X122120291Y-26673956D01*
X122106488Y-26677414D01*
X122092412Y-26679502D01*
X122078200Y-26680200D01*
X121788200Y-26680200D01*
X121773988Y-26679502D01*
X121759912Y-26677414D01*
X121746109Y-26673956D01*
X121732711Y-26669163D01*
X121719847Y-26663079D01*
X121707642Y-26655763D01*
X121696213Y-26647287D01*
X121685670Y-26637730D01*
X121676113Y-26627187D01*
X121667637Y-26615758D01*
X121660321Y-26603553D01*
X121654237Y-26590689D01*
X121649444Y-26577291D01*
X121645986Y-26563488D01*
X121643898Y-26549412D01*
X121643200Y-26535200D01*
X121643200Y-26195200D01*
X121643898Y-26180988D01*
X121645986Y-26166912D01*
X121649444Y-26153109D01*
X121654237Y-26139711D01*
X121660321Y-26126847D01*
X121667637Y-26114642D01*
X121676113Y-26103213D01*
X121685670Y-26092670D01*
X121696213Y-26083113D01*
X121707642Y-26074637D01*
X121719847Y-26067321D01*
X121732711Y-26061237D01*
X121746109Y-26056444D01*
X121759912Y-26052986D01*
X121773988Y-26050898D01*
X121788200Y-26050200D01*
X122078200Y-26050200D01*
X122092412Y-26050898D01*
G37*
M02*
