G04 #@! TF.GenerationSoftware,KiCad,Pcbnew,(5.1.5)-3*
G04 #@! TF.CreationDate,2020-07-21T22:53:20-07:00*
G04 #@! TF.ProjectId,MiniCAM,4d696e69-4341-44d2-9e6b-696361645f70,rev?*
G04 #@! TF.SameCoordinates,Original*
G04 #@! TF.FileFunction,Copper,L3,Inr*
G04 #@! TF.FilePolarity,Positive*
%FSLAX46Y46*%
G04 Gerber Fmt 4.6, Leading zero omitted, Abs format (unit mm)*
G04 Created by KiCad (PCBNEW (5.1.5)-3) date 2020-07-21 22:53:20*
%MOMM*%
%LPD*%
G04 APERTURE LIST*
%ADD10O,1.000000X1.000000*%
%ADD11R,1.000000X1.000000*%
%ADD12C,0.450000*%
%ADD13C,0.700000*%
%ADD14C,0.635000*%
%ADD15C,0.203200*%
%ADD16C,0.508000*%
%ADD17C,0.152400*%
G04 APERTURE END LIST*
D10*
X117030000Y-27113000D03*
X115760000Y-27113000D03*
D11*
X114490000Y-27113000D03*
X114490000Y-49113000D03*
D10*
X115760000Y-49113000D03*
X122402600Y-47193200D03*
X122402600Y-45923200D03*
X121132600Y-47193200D03*
X121132600Y-45923200D03*
X119862600Y-47193200D03*
D11*
X119862600Y-45923200D03*
D12*
X109194600Y-36817600D03*
X111785400Y-36817600D03*
X111785400Y-38087600D03*
X110490000Y-38087600D03*
X109169200Y-39433800D03*
X110490000Y-39408400D03*
X111785400Y-39408400D03*
X115849400Y-40538400D03*
X116001800Y-43154600D03*
X115036600Y-33401000D03*
X109169200Y-44500800D03*
X112547400Y-45796200D03*
X119938800Y-44119800D03*
X104673400Y-35255200D03*
X103809800Y-36982400D03*
X107924600Y-32105600D03*
X104838500Y-44818300D03*
D13*
X120523000Y-29235400D03*
X120523000Y-27863800D03*
D12*
X112522000Y-31013400D03*
D13*
X125831600Y-28879800D03*
D12*
X118338601Y-41198800D03*
D13*
X124460000Y-43680000D03*
X123190000Y-43680000D03*
X121920000Y-43680000D03*
X116840000Y-30480000D03*
X119380000Y-30480000D03*
X120650000Y-30480000D03*
D12*
X118567200Y-30784800D03*
X102565200Y-39573200D03*
X111252000Y-41452800D03*
D13*
X122428000Y-33261600D03*
D12*
X106070400Y-47206200D03*
X113080800Y-27876800D03*
X113741200Y-47917400D03*
X115544600Y-47993600D03*
X117246400Y-35229800D03*
X115976400Y-35991800D03*
X117503957Y-38684200D03*
X102768400Y-34696400D03*
D13*
X125044200Y-32410400D03*
X126111000Y-33197800D03*
X123190000Y-27940000D03*
X123190000Y-29210000D03*
D12*
X107315000Y-37846000D03*
X116264305Y-39564695D03*
X117221000Y-33655000D03*
X103759000Y-37896800D03*
X109423200Y-32689800D03*
D13*
X118211600Y-26822400D03*
D12*
X116459000Y-43764200D03*
D13*
X106921600Y-45516800D03*
D12*
X114833400Y-47079200D03*
X110134400Y-44475400D03*
X110845600Y-43967400D03*
X119913400Y-43230800D03*
X104622600Y-36169600D03*
X110845600Y-32689800D03*
X110794800Y-32029400D03*
X103784400Y-42341800D03*
D13*
X116916200Y-28905200D03*
D12*
X110871000Y-44729400D03*
X104089200Y-38735000D03*
X113411000Y-31102600D03*
X104470200Y-33541000D03*
X114858800Y-46063202D03*
X116001800Y-37058600D03*
X113292512Y-41740712D03*
X106807000Y-40233600D03*
X107289600Y-39649400D03*
X108381800Y-43510200D03*
X118598188Y-31716447D03*
X118189473Y-32158985D03*
X117718084Y-32534059D03*
X117271800Y-32969200D03*
X117322600Y-45656800D03*
X108203998Y-41148000D03*
X109245400Y-41173400D03*
X108712000Y-41605200D03*
X117187432Y-34514368D03*
X105867200Y-42697400D03*
X105156000Y-33528000D03*
X105892600Y-33528000D03*
X107162600Y-34518600D03*
X107594400Y-35030200D03*
X108737400Y-34620200D03*
X109245400Y-35052000D03*
X109728000Y-34594800D03*
X110242532Y-35062459D03*
X110769400Y-34770402D03*
X111353600Y-35052000D03*
D14*
X125323600Y-32410400D02*
X126111000Y-33197800D01*
X125044200Y-32410400D02*
X125323600Y-32410400D01*
X126111000Y-33197800D02*
X126111000Y-44297600D01*
X126111000Y-44297600D02*
X124485400Y-45923200D01*
X124485400Y-45923200D02*
X122402600Y-45923200D01*
D15*
X102768400Y-33109200D02*
X102768400Y-34696400D01*
X112217200Y-29718000D02*
X111074200Y-30861000D01*
X115760000Y-26822200D02*
X115125200Y-26187400D01*
X115125200Y-26187400D02*
X113588800Y-26187400D01*
X113588800Y-26187400D02*
X112217200Y-27559000D01*
X105016600Y-30861000D02*
X102768400Y-33109200D01*
X115760000Y-27113000D02*
X115760000Y-26822200D01*
X111074200Y-30861000D02*
X105016600Y-30861000D01*
X112217200Y-27559000D02*
X112217200Y-29718000D01*
X107315000Y-37846000D02*
X103809800Y-37846000D01*
X103809800Y-37846000D02*
X103759000Y-37896800D01*
D16*
X103381599Y-38274201D02*
X103534001Y-38121799D01*
X103381599Y-40046875D02*
X103381599Y-38274201D01*
X102895400Y-40533074D02*
X103381599Y-40046875D01*
X103534001Y-38121799D02*
X103759000Y-37896800D01*
X102895400Y-44323000D02*
X102895400Y-40533074D01*
X104089200Y-45516800D02*
X102895400Y-44323000D01*
X106921600Y-45516800D02*
X104089200Y-45516800D01*
X116902802Y-33655000D02*
X117221000Y-33655000D01*
X116640399Y-33392597D02*
X116902802Y-33655000D01*
X116640399Y-32292801D02*
X116640399Y-33392597D01*
X118237000Y-26847800D02*
X118237000Y-29985000D01*
X118211600Y-26822400D02*
X118237000Y-26847800D01*
X118237000Y-29985000D02*
X117779800Y-30442200D01*
X117779800Y-30442200D02*
X117779800Y-31153400D01*
X117779800Y-31153400D02*
X116640399Y-32292801D01*
X105470201Y-31474199D02*
X108207599Y-31474199D01*
X103530400Y-33414000D02*
X105470201Y-31474199D01*
X103440802Y-37896800D02*
X102971600Y-37427598D01*
X102971600Y-37427598D02*
X102971600Y-36626800D01*
X109198201Y-32464801D02*
X109423200Y-32689800D01*
X102971600Y-36626800D02*
X103530400Y-36068000D01*
X108207599Y-31474199D02*
X109198201Y-32464801D01*
X103759000Y-37896800D02*
X103440802Y-37896800D01*
X103530400Y-36068000D02*
X103530400Y-33414000D01*
X116459000Y-45453600D02*
X114833400Y-47079200D01*
X116459000Y-43764200D02*
X116459000Y-45453600D01*
X111544400Y-45516800D02*
X106921600Y-45516800D01*
X112039400Y-45021800D02*
X111544400Y-45516800D01*
X114147600Y-47079200D02*
X113665000Y-46596600D01*
X113665000Y-45580600D02*
X113106200Y-45021800D01*
X114833400Y-47079200D02*
X114147600Y-47079200D01*
X113665000Y-46596600D02*
X113665000Y-45580600D01*
X113106200Y-45021800D02*
X112039400Y-45021800D01*
X118135358Y-34569358D02*
X118135358Y-38987273D01*
X118135358Y-38987273D02*
X117557936Y-39564695D01*
X117221000Y-33655000D02*
X118135358Y-34569358D01*
X117557936Y-39564695D02*
X116582503Y-39564695D01*
X116582503Y-39564695D02*
X116264305Y-39564695D01*
D17*
X107289600Y-39649400D02*
X107289600Y-42418000D01*
X107289600Y-42418000D02*
X108381800Y-43510200D01*
D15*
G36*
X125520508Y-25783829D02*
G01*
X125780714Y-25862389D01*
X126020706Y-25989996D01*
X126231341Y-26161784D01*
X126404596Y-26371213D01*
X126533874Y-26610309D01*
X126614249Y-26869959D01*
X126644400Y-27156827D01*
X126644400Y-32817482D01*
X126619616Y-32780390D01*
X126528410Y-32689184D01*
X126421164Y-32617524D01*
X126403452Y-32610188D01*
X125785257Y-31991993D01*
X125765762Y-31968238D01*
X125671004Y-31890473D01*
X125562896Y-31832688D01*
X125445592Y-31797104D01*
X125354172Y-31788100D01*
X125354169Y-31788100D01*
X125323600Y-31785089D01*
X125293031Y-31788100D01*
X125252909Y-31788100D01*
X125235198Y-31780764D01*
X125108692Y-31755600D01*
X124979708Y-31755600D01*
X124853202Y-31780764D01*
X124734036Y-31830124D01*
X124626790Y-31901784D01*
X124535584Y-31992990D01*
X124463924Y-32100236D01*
X124414564Y-32219402D01*
X124389400Y-32345908D01*
X124389400Y-32474892D01*
X124414564Y-32601398D01*
X124463924Y-32720564D01*
X124535584Y-32827810D01*
X124626790Y-32919016D01*
X124734036Y-32990676D01*
X124853202Y-33040036D01*
X124979708Y-33065200D01*
X125098336Y-33065200D01*
X125488700Y-33455565D01*
X125488701Y-44039834D01*
X124227636Y-45300900D01*
X122918459Y-45300900D01*
X122915630Y-45298071D01*
X122783816Y-45209996D01*
X122637351Y-45149328D01*
X122481866Y-45118400D01*
X122323334Y-45118400D01*
X122167849Y-45149328D01*
X122021384Y-45209996D01*
X121889570Y-45298071D01*
X121777471Y-45410170D01*
X121767600Y-45424943D01*
X121757729Y-45410170D01*
X121645630Y-45298071D01*
X121513816Y-45209996D01*
X121367351Y-45149328D01*
X121211866Y-45118400D01*
X121053334Y-45118400D01*
X120897849Y-45149328D01*
X120751384Y-45209996D01*
X120635600Y-45287360D01*
X120617258Y-45253043D01*
X120579168Y-45206632D01*
X120532757Y-45168542D01*
X120479806Y-45140240D01*
X120422351Y-45122811D01*
X120362600Y-45116926D01*
X119362600Y-45116926D01*
X119302849Y-45122811D01*
X119245394Y-45140240D01*
X119192443Y-45168542D01*
X119146032Y-45206632D01*
X119107942Y-45253043D01*
X119079640Y-45305994D01*
X119062211Y-45363449D01*
X119056326Y-45423200D01*
X119056326Y-46423200D01*
X119062211Y-46482951D01*
X119079640Y-46540406D01*
X119107942Y-46593357D01*
X119146032Y-46639768D01*
X119192443Y-46677858D01*
X119226760Y-46696200D01*
X119149396Y-46811984D01*
X119088728Y-46958449D01*
X119057800Y-47113934D01*
X119057800Y-47272466D01*
X119088728Y-47427951D01*
X119149396Y-47574416D01*
X119237471Y-47706230D01*
X119349570Y-47818329D01*
X119481384Y-47906404D01*
X119627849Y-47967072D01*
X119783334Y-47998000D01*
X119941866Y-47998000D01*
X120097351Y-47967072D01*
X120243816Y-47906404D01*
X120375630Y-47818329D01*
X120487729Y-47706230D01*
X120497600Y-47691457D01*
X120507471Y-47706230D01*
X120619570Y-47818329D01*
X120751384Y-47906404D01*
X120897849Y-47967072D01*
X121053334Y-47998000D01*
X121211866Y-47998000D01*
X121367351Y-47967072D01*
X121513816Y-47906404D01*
X121645630Y-47818329D01*
X121757729Y-47706230D01*
X121767600Y-47691457D01*
X121777471Y-47706230D01*
X121889570Y-47818329D01*
X122021384Y-47906404D01*
X122167849Y-47967072D01*
X122323334Y-47998000D01*
X122481866Y-47998000D01*
X122637351Y-47967072D01*
X122783816Y-47906404D01*
X122915630Y-47818329D01*
X123027729Y-47706230D01*
X123115804Y-47574416D01*
X123176472Y-47427951D01*
X123207400Y-47272466D01*
X123207400Y-47113934D01*
X123176472Y-46958449D01*
X123115804Y-46811984D01*
X123027729Y-46680170D01*
X122915630Y-46568071D01*
X122900857Y-46558200D01*
X122915630Y-46548329D01*
X122918459Y-46545500D01*
X124454831Y-46545500D01*
X124485400Y-46548511D01*
X124515969Y-46545500D01*
X124515972Y-46545500D01*
X124607392Y-46536496D01*
X124724696Y-46500912D01*
X124832804Y-46443127D01*
X124927562Y-46365362D01*
X124947057Y-46341607D01*
X126529412Y-44759253D01*
X126553162Y-44739762D01*
X126592945Y-44691286D01*
X126630927Y-44645005D01*
X126644400Y-44619798D01*
X126644400Y-49032608D01*
X126616171Y-49320508D01*
X126537610Y-49580716D01*
X126410005Y-49820705D01*
X126238213Y-50031343D01*
X126028787Y-50204596D01*
X125789691Y-50333874D01*
X125530040Y-50414250D01*
X125243172Y-50444400D01*
X103367392Y-50444400D01*
X103079492Y-50416171D01*
X102819284Y-50337610D01*
X102579295Y-50210005D01*
X102368657Y-50038213D01*
X102195404Y-49828787D01*
X102066126Y-49589691D01*
X101985750Y-49330040D01*
X101955600Y-49043172D01*
X101955600Y-48921488D01*
X102045200Y-48921488D01*
X102045200Y-49178512D01*
X102095343Y-49430596D01*
X102193702Y-49668054D01*
X102336496Y-49881761D01*
X102518239Y-50063504D01*
X102731946Y-50206298D01*
X102969404Y-50304657D01*
X103221488Y-50354800D01*
X103478512Y-50354800D01*
X103730596Y-50304657D01*
X103968054Y-50206298D01*
X104181761Y-50063504D01*
X104363504Y-49881761D01*
X104506298Y-49668054D01*
X104604657Y-49430596D01*
X104654800Y-49178512D01*
X104654800Y-48921488D01*
X104604657Y-48669404D01*
X104506298Y-48431946D01*
X104363504Y-48218239D01*
X104181761Y-48036496D01*
X103968054Y-47893702D01*
X103730596Y-47795343D01*
X103478512Y-47745200D01*
X103221488Y-47745200D01*
X102969404Y-47795343D01*
X102731946Y-47893702D01*
X102518239Y-48036496D01*
X102336496Y-48218239D01*
X102193702Y-48431946D01*
X102095343Y-48669404D01*
X102045200Y-48921488D01*
X101955600Y-48921488D01*
X101955600Y-47154019D01*
X105540600Y-47154019D01*
X105540600Y-47258381D01*
X105560960Y-47360737D01*
X105600898Y-47457154D01*
X105658878Y-47543928D01*
X105732672Y-47617722D01*
X105819446Y-47675702D01*
X105915863Y-47715640D01*
X106018219Y-47736000D01*
X106122581Y-47736000D01*
X106224937Y-47715640D01*
X106321354Y-47675702D01*
X106408128Y-47617722D01*
X106481922Y-47543928D01*
X106539902Y-47457154D01*
X106579840Y-47360737D01*
X106600200Y-47258381D01*
X106600200Y-47154019D01*
X106579840Y-47051663D01*
X106539902Y-46955246D01*
X106481922Y-46868472D01*
X106408128Y-46794678D01*
X106321354Y-46736698D01*
X106224937Y-46696760D01*
X106122581Y-46676400D01*
X106018219Y-46676400D01*
X105915863Y-46696760D01*
X105819446Y-46736698D01*
X105732672Y-46794678D01*
X105658878Y-46868472D01*
X105600898Y-46955246D01*
X105560960Y-47051663D01*
X105540600Y-47154019D01*
X101955600Y-47154019D01*
X101955600Y-39521019D01*
X102035400Y-39521019D01*
X102035400Y-39625381D01*
X102055760Y-39727737D01*
X102095698Y-39824154D01*
X102153678Y-39910928D01*
X102227472Y-39984722D01*
X102314246Y-40042702D01*
X102410663Y-40082640D01*
X102513019Y-40103000D01*
X102535212Y-40103000D01*
X102519676Y-40118536D01*
X102498358Y-40136031D01*
X102461109Y-40181419D01*
X102428528Y-40221120D01*
X102376639Y-40318197D01*
X102344687Y-40423530D01*
X102333897Y-40533074D01*
X102336601Y-40560526D01*
X102336600Y-44295558D01*
X102333897Y-44323000D01*
X102336600Y-44350442D01*
X102336600Y-44350443D01*
X102344686Y-44432543D01*
X102376639Y-44537877D01*
X102428527Y-44634954D01*
X102498357Y-44720043D01*
X102519681Y-44737543D01*
X103674662Y-45892525D01*
X103692157Y-45913843D01*
X103777246Y-45983673D01*
X103874322Y-46035561D01*
X103979656Y-46067514D01*
X104061756Y-46075600D01*
X104061757Y-46075600D01*
X104089199Y-46078303D01*
X104116641Y-46075600D01*
X106579295Y-46075600D01*
X106611436Y-46097076D01*
X106730602Y-46146436D01*
X106857108Y-46171600D01*
X106986092Y-46171600D01*
X107112598Y-46146436D01*
X107231764Y-46097076D01*
X107263905Y-46075600D01*
X109681467Y-46075600D01*
X109562903Y-46172903D01*
X109399849Y-46371586D01*
X109278690Y-46598260D01*
X109204080Y-46844216D01*
X109185200Y-47035905D01*
X109185201Y-49164096D01*
X109204081Y-49355785D01*
X109278691Y-49601741D01*
X109399850Y-49828415D01*
X109562904Y-50027097D01*
X109761586Y-50190151D01*
X109988260Y-50311310D01*
X110234216Y-50385920D01*
X110490000Y-50411113D01*
X110745785Y-50385920D01*
X110991741Y-50311310D01*
X111218415Y-50190151D01*
X111417097Y-50027097D01*
X111580151Y-49828415D01*
X111701310Y-49601741D01*
X111775920Y-49355785D01*
X111794800Y-49164096D01*
X111794800Y-47035904D01*
X111775920Y-46844215D01*
X111701310Y-46598259D01*
X111580151Y-46371585D01*
X111417097Y-46172903D01*
X111298532Y-46075600D01*
X111516958Y-46075600D01*
X111544400Y-46078303D01*
X111571842Y-46075600D01*
X111571844Y-46075600D01*
X111653944Y-46067514D01*
X111759278Y-46035561D01*
X111856354Y-45983673D01*
X111941443Y-45913843D01*
X111958942Y-45892520D01*
X112017600Y-45833862D01*
X112017600Y-45848381D01*
X112037960Y-45950737D01*
X112077898Y-46047154D01*
X112135878Y-46133928D01*
X112209672Y-46207722D01*
X112296446Y-46265702D01*
X112392863Y-46305640D01*
X112495219Y-46326000D01*
X112599581Y-46326000D01*
X112701937Y-46305640D01*
X112798354Y-46265702D01*
X112885128Y-46207722D01*
X112958922Y-46133928D01*
X113016902Y-46047154D01*
X113056840Y-45950737D01*
X113077200Y-45848381D01*
X113077200Y-45783063D01*
X113106201Y-45812063D01*
X113106200Y-46569158D01*
X113103497Y-46596600D01*
X113106200Y-46624042D01*
X113106200Y-46624043D01*
X113114286Y-46706143D01*
X113146239Y-46811477D01*
X113198127Y-46908554D01*
X113267957Y-46993643D01*
X113289281Y-47011143D01*
X113669601Y-47391463D01*
X113586663Y-47407960D01*
X113490246Y-47447898D01*
X113403472Y-47505878D01*
X113329678Y-47579672D01*
X113271698Y-47666446D01*
X113231760Y-47762863D01*
X113211400Y-47865219D01*
X113211400Y-47969581D01*
X113231760Y-48071937D01*
X113271698Y-48168354D01*
X113329678Y-48255128D01*
X113403472Y-48328922D01*
X113490246Y-48386902D01*
X113586663Y-48426840D01*
X113689019Y-48447200D01*
X113733013Y-48447200D01*
X113707040Y-48495794D01*
X113689611Y-48553249D01*
X113683726Y-48613000D01*
X113683726Y-49613000D01*
X113689611Y-49672751D01*
X113707040Y-49730206D01*
X113735342Y-49783157D01*
X113773432Y-49829568D01*
X113819843Y-49867658D01*
X113872794Y-49895960D01*
X113930249Y-49913389D01*
X113990000Y-49919274D01*
X114990000Y-49919274D01*
X115049751Y-49913389D01*
X115107206Y-49895960D01*
X115160157Y-49867658D01*
X115206568Y-49829568D01*
X115244658Y-49783157D01*
X115263000Y-49748840D01*
X115378784Y-49826204D01*
X115525249Y-49886872D01*
X115680734Y-49917800D01*
X115839266Y-49917800D01*
X115994751Y-49886872D01*
X116141216Y-49826204D01*
X116273030Y-49738129D01*
X116385129Y-49626030D01*
X116473204Y-49494216D01*
X116533872Y-49347751D01*
X116564800Y-49192266D01*
X116564800Y-49033734D01*
X116542473Y-48921488D01*
X123945200Y-48921488D01*
X123945200Y-49178512D01*
X123995343Y-49430596D01*
X124093702Y-49668054D01*
X124236496Y-49881761D01*
X124418239Y-50063504D01*
X124631946Y-50206298D01*
X124869404Y-50304657D01*
X125121488Y-50354800D01*
X125378512Y-50354800D01*
X125630596Y-50304657D01*
X125868054Y-50206298D01*
X126081761Y-50063504D01*
X126263504Y-49881761D01*
X126406298Y-49668054D01*
X126504657Y-49430596D01*
X126554800Y-49178512D01*
X126554800Y-48921488D01*
X126504657Y-48669404D01*
X126406298Y-48431946D01*
X126263504Y-48218239D01*
X126081761Y-48036496D01*
X125868054Y-47893702D01*
X125630596Y-47795343D01*
X125378512Y-47745200D01*
X125121488Y-47745200D01*
X124869404Y-47795343D01*
X124631946Y-47893702D01*
X124418239Y-48036496D01*
X124236496Y-48218239D01*
X124093702Y-48431946D01*
X123995343Y-48669404D01*
X123945200Y-48921488D01*
X116542473Y-48921488D01*
X116533872Y-48878249D01*
X116473204Y-48731784D01*
X116385129Y-48599970D01*
X116273030Y-48487871D01*
X116141216Y-48399796D01*
X115994751Y-48339128D01*
X115956025Y-48331425D01*
X115956122Y-48331328D01*
X116014102Y-48244554D01*
X116054040Y-48148137D01*
X116074400Y-48045781D01*
X116074400Y-47941419D01*
X116054040Y-47839063D01*
X116014102Y-47742646D01*
X115956122Y-47655872D01*
X115882328Y-47582078D01*
X115795554Y-47524098D01*
X115699137Y-47484160D01*
X115596781Y-47463800D01*
X115492419Y-47463800D01*
X115390063Y-47484160D01*
X115293646Y-47524098D01*
X115206872Y-47582078D01*
X115133078Y-47655872D01*
X115075098Y-47742646D01*
X115035160Y-47839063D01*
X115014800Y-47941419D01*
X115014800Y-48045781D01*
X115035160Y-48148137D01*
X115075098Y-48244554D01*
X115133078Y-48331328D01*
X115160017Y-48358267D01*
X115107206Y-48330040D01*
X115049751Y-48312611D01*
X114990000Y-48306726D01*
X114101124Y-48306726D01*
X114152722Y-48255128D01*
X114210702Y-48168354D01*
X114250640Y-48071937D01*
X114271000Y-47969581D01*
X114271000Y-47865219D01*
X114250640Y-47762863D01*
X114210702Y-47666446D01*
X114191695Y-47638000D01*
X114805958Y-47638000D01*
X114833400Y-47640703D01*
X114860842Y-47638000D01*
X114860844Y-47638000D01*
X114942944Y-47629914D01*
X115048278Y-47597961D01*
X115145354Y-47546073D01*
X115230443Y-47476243D01*
X115247943Y-47454919D01*
X116834725Y-45868138D01*
X116836190Y-45866936D01*
X116853098Y-45907754D01*
X116911078Y-45994528D01*
X116984872Y-46068322D01*
X117071646Y-46126302D01*
X117168063Y-46166240D01*
X117270419Y-46186600D01*
X117374781Y-46186600D01*
X117477137Y-46166240D01*
X117573554Y-46126302D01*
X117660328Y-46068322D01*
X117734122Y-45994528D01*
X117792102Y-45907754D01*
X117832040Y-45811337D01*
X117852400Y-45708981D01*
X117852400Y-45604619D01*
X117832040Y-45502263D01*
X117792102Y-45405846D01*
X117734122Y-45319072D01*
X117660328Y-45245278D01*
X117573554Y-45187298D01*
X117477137Y-45147360D01*
X117374781Y-45127000D01*
X117270419Y-45127000D01*
X117168063Y-45147360D01*
X117071646Y-45187298D01*
X117017800Y-45223276D01*
X117017800Y-44067619D01*
X119409000Y-44067619D01*
X119409000Y-44171981D01*
X119429360Y-44274337D01*
X119469298Y-44370754D01*
X119527278Y-44457528D01*
X119601072Y-44531322D01*
X119687846Y-44589302D01*
X119784263Y-44629240D01*
X119886619Y-44649600D01*
X119990981Y-44649600D01*
X120093337Y-44629240D01*
X120189754Y-44589302D01*
X120276528Y-44531322D01*
X120350322Y-44457528D01*
X120408302Y-44370754D01*
X120448240Y-44274337D01*
X120468600Y-44171981D01*
X120468600Y-44067619D01*
X120448240Y-43965263D01*
X120408302Y-43868846D01*
X120350322Y-43782072D01*
X120276528Y-43708278D01*
X120189754Y-43650298D01*
X120105766Y-43615508D01*
X121265200Y-43615508D01*
X121265200Y-43744492D01*
X121290364Y-43870998D01*
X121339724Y-43990164D01*
X121411384Y-44097410D01*
X121502590Y-44188616D01*
X121609836Y-44260276D01*
X121729002Y-44309636D01*
X121855508Y-44334800D01*
X121984492Y-44334800D01*
X122110998Y-44309636D01*
X122230164Y-44260276D01*
X122337410Y-44188616D01*
X122428616Y-44097410D01*
X122500276Y-43990164D01*
X122549636Y-43870998D01*
X122555000Y-43844032D01*
X122560364Y-43870998D01*
X122609724Y-43990164D01*
X122681384Y-44097410D01*
X122772590Y-44188616D01*
X122879836Y-44260276D01*
X122999002Y-44309636D01*
X123125508Y-44334800D01*
X123254492Y-44334800D01*
X123380998Y-44309636D01*
X123500164Y-44260276D01*
X123607410Y-44188616D01*
X123698616Y-44097410D01*
X123770276Y-43990164D01*
X123819636Y-43870998D01*
X123825000Y-43844032D01*
X123830364Y-43870998D01*
X123879724Y-43990164D01*
X123951384Y-44097410D01*
X124042590Y-44188616D01*
X124149836Y-44260276D01*
X124269002Y-44309636D01*
X124395508Y-44334800D01*
X124524492Y-44334800D01*
X124650998Y-44309636D01*
X124770164Y-44260276D01*
X124877410Y-44188616D01*
X124968616Y-44097410D01*
X125040276Y-43990164D01*
X125089636Y-43870998D01*
X125114800Y-43744492D01*
X125114800Y-43615508D01*
X125089636Y-43489002D01*
X125040276Y-43369836D01*
X124968616Y-43262590D01*
X124877410Y-43171384D01*
X124770164Y-43099724D01*
X124650998Y-43050364D01*
X124524492Y-43025200D01*
X124395508Y-43025200D01*
X124269002Y-43050364D01*
X124149836Y-43099724D01*
X124042590Y-43171384D01*
X123951384Y-43262590D01*
X123879724Y-43369836D01*
X123830364Y-43489002D01*
X123825000Y-43515968D01*
X123819636Y-43489002D01*
X123770276Y-43369836D01*
X123698616Y-43262590D01*
X123607410Y-43171384D01*
X123500164Y-43099724D01*
X123380998Y-43050364D01*
X123254492Y-43025200D01*
X123125508Y-43025200D01*
X122999002Y-43050364D01*
X122879836Y-43099724D01*
X122772590Y-43171384D01*
X122681384Y-43262590D01*
X122609724Y-43369836D01*
X122560364Y-43489002D01*
X122555000Y-43515968D01*
X122549636Y-43489002D01*
X122500276Y-43369836D01*
X122428616Y-43262590D01*
X122337410Y-43171384D01*
X122230164Y-43099724D01*
X122110998Y-43050364D01*
X121984492Y-43025200D01*
X121855508Y-43025200D01*
X121729002Y-43050364D01*
X121609836Y-43099724D01*
X121502590Y-43171384D01*
X121411384Y-43262590D01*
X121339724Y-43369836D01*
X121290364Y-43489002D01*
X121265200Y-43615508D01*
X120105766Y-43615508D01*
X120093337Y-43610360D01*
X119990981Y-43590000D01*
X119886619Y-43590000D01*
X119784263Y-43610360D01*
X119687846Y-43650298D01*
X119601072Y-43708278D01*
X119527278Y-43782072D01*
X119469298Y-43868846D01*
X119429360Y-43965263D01*
X119409000Y-44067619D01*
X117017800Y-44067619D01*
X117017800Y-43736756D01*
X117009714Y-43654656D01*
X116977761Y-43549322D01*
X116925873Y-43452246D01*
X116856043Y-43367157D01*
X116770954Y-43297327D01*
X116673877Y-43245439D01*
X116568543Y-43213486D01*
X116531002Y-43209789D01*
X116531600Y-43206781D01*
X116531600Y-43102419D01*
X116511240Y-43000063D01*
X116471302Y-42903646D01*
X116413322Y-42816872D01*
X116339528Y-42743078D01*
X116252754Y-42685098D01*
X116156337Y-42645160D01*
X116053981Y-42624800D01*
X115949619Y-42624800D01*
X115847263Y-42645160D01*
X115750846Y-42685098D01*
X115664072Y-42743078D01*
X115590278Y-42816872D01*
X115532298Y-42903646D01*
X115492360Y-43000063D01*
X115472000Y-43102419D01*
X115472000Y-43206781D01*
X115492360Y-43309137D01*
X115532298Y-43405554D01*
X115590278Y-43492328D01*
X115664072Y-43566122D01*
X115750846Y-43624102D01*
X115847263Y-43664040D01*
X115906207Y-43675765D01*
X115900200Y-43736757D01*
X115900201Y-45222136D01*
X114601938Y-46520400D01*
X114379062Y-46520400D01*
X114223800Y-46365138D01*
X114223800Y-45608044D01*
X114226503Y-45580600D01*
X114215714Y-45471056D01*
X114183761Y-45365722D01*
X114131873Y-45268646D01*
X114119068Y-45253043D01*
X114062043Y-45183557D01*
X114040724Y-45166061D01*
X113520743Y-44646080D01*
X113503243Y-44624757D01*
X113418154Y-44554927D01*
X113321078Y-44503039D01*
X113215744Y-44471086D01*
X113133644Y-44463000D01*
X113133642Y-44463000D01*
X113106200Y-44460297D01*
X113078758Y-44463000D01*
X112066844Y-44463000D01*
X112039400Y-44460297D01*
X111929855Y-44471086D01*
X111824522Y-44503039D01*
X111727445Y-44554927D01*
X111712313Y-44567346D01*
X111642357Y-44624757D01*
X111624861Y-44646076D01*
X111312938Y-44958000D01*
X109438565Y-44958000D01*
X109506928Y-44912322D01*
X109580722Y-44838528D01*
X109638702Y-44751754D01*
X109678640Y-44655337D01*
X109699000Y-44552981D01*
X109699000Y-44448619D01*
X109678640Y-44346263D01*
X109638702Y-44249846D01*
X109580722Y-44163072D01*
X109506928Y-44089278D01*
X109420154Y-44031298D01*
X109323737Y-43991360D01*
X109221381Y-43971000D01*
X109117019Y-43971000D01*
X109014663Y-43991360D01*
X108918246Y-44031298D01*
X108831472Y-44089278D01*
X108757678Y-44163072D01*
X108699698Y-44249846D01*
X108659760Y-44346263D01*
X108639400Y-44448619D01*
X108639400Y-44552981D01*
X108659760Y-44655337D01*
X108699698Y-44751754D01*
X108757678Y-44838528D01*
X108831472Y-44912322D01*
X108899835Y-44958000D01*
X107263905Y-44958000D01*
X107231764Y-44936524D01*
X107112598Y-44887164D01*
X106986092Y-44862000D01*
X106857108Y-44862000D01*
X106730602Y-44887164D01*
X106611436Y-44936524D01*
X106579295Y-44958000D01*
X105350891Y-44958000D01*
X105368300Y-44870481D01*
X105368300Y-44766119D01*
X105347940Y-44663763D01*
X105308002Y-44567346D01*
X105250022Y-44480572D01*
X105176228Y-44406778D01*
X105089454Y-44348798D01*
X104993037Y-44308860D01*
X104890681Y-44288500D01*
X104786319Y-44288500D01*
X104683963Y-44308860D01*
X104587546Y-44348798D01*
X104500772Y-44406778D01*
X104426978Y-44480572D01*
X104368998Y-44567346D01*
X104329060Y-44663763D01*
X104308700Y-44766119D01*
X104308700Y-44870481D01*
X104326109Y-44958000D01*
X104320663Y-44958000D01*
X103454200Y-44091538D01*
X103454200Y-42645219D01*
X105337400Y-42645219D01*
X105337400Y-42749581D01*
X105357760Y-42851937D01*
X105397698Y-42948354D01*
X105455678Y-43035128D01*
X105529472Y-43108922D01*
X105616246Y-43166902D01*
X105712663Y-43206840D01*
X105815019Y-43227200D01*
X105919381Y-43227200D01*
X106021737Y-43206840D01*
X106118154Y-43166902D01*
X106204928Y-43108922D01*
X106278722Y-43035128D01*
X106336702Y-42948354D01*
X106376640Y-42851937D01*
X106397000Y-42749581D01*
X106397000Y-42645219D01*
X106376640Y-42542863D01*
X106336702Y-42446446D01*
X106278722Y-42359672D01*
X106204928Y-42285878D01*
X106118154Y-42227898D01*
X106021737Y-42187960D01*
X105919381Y-42167600D01*
X105815019Y-42167600D01*
X105712663Y-42187960D01*
X105616246Y-42227898D01*
X105529472Y-42285878D01*
X105455678Y-42359672D01*
X105397698Y-42446446D01*
X105357760Y-42542863D01*
X105337400Y-42645219D01*
X103454200Y-42645219D01*
X103454200Y-40764536D01*
X103757318Y-40461418D01*
X103778642Y-40443918D01*
X103848472Y-40358829D01*
X103900360Y-40261753D01*
X103924729Y-40181419D01*
X106277200Y-40181419D01*
X106277200Y-40285781D01*
X106297560Y-40388137D01*
X106337498Y-40484554D01*
X106395478Y-40571328D01*
X106469272Y-40645122D01*
X106556046Y-40703102D01*
X106652463Y-40743040D01*
X106754819Y-40763400D01*
X106859181Y-40763400D01*
X106908600Y-40753570D01*
X106908601Y-42399280D01*
X106906757Y-42418000D01*
X106914114Y-42492688D01*
X106935899Y-42564507D01*
X106971278Y-42630696D01*
X107000610Y-42666437D01*
X107018890Y-42688711D01*
X107033427Y-42700641D01*
X107852000Y-43519215D01*
X107852000Y-43562381D01*
X107872360Y-43664737D01*
X107912298Y-43761154D01*
X107970278Y-43847928D01*
X108044072Y-43921722D01*
X108130846Y-43979702D01*
X108227263Y-44019640D01*
X108329619Y-44040000D01*
X108433981Y-44040000D01*
X108536337Y-44019640D01*
X108632754Y-43979702D01*
X108719528Y-43921722D01*
X108793322Y-43847928D01*
X108851302Y-43761154D01*
X108891240Y-43664737D01*
X108911600Y-43562381D01*
X108911600Y-43458019D01*
X108891240Y-43355663D01*
X108851302Y-43259246D01*
X108793322Y-43172472D01*
X108719528Y-43098678D01*
X108632754Y-43040698D01*
X108536337Y-43000760D01*
X108433981Y-42980400D01*
X108390815Y-42980400D01*
X107670600Y-42260186D01*
X107670600Y-41095819D01*
X107674198Y-41095819D01*
X107674198Y-41200181D01*
X107694558Y-41302537D01*
X107734496Y-41398954D01*
X107792476Y-41485728D01*
X107866270Y-41559522D01*
X107953044Y-41617502D01*
X108049461Y-41657440D01*
X108151817Y-41677800D01*
X108186262Y-41677800D01*
X108202560Y-41759737D01*
X108242498Y-41856154D01*
X108300478Y-41942928D01*
X108374272Y-42016722D01*
X108461046Y-42074702D01*
X108557463Y-42114640D01*
X108659819Y-42135000D01*
X108764181Y-42135000D01*
X108866537Y-42114640D01*
X108962954Y-42074702D01*
X109049728Y-42016722D01*
X109123522Y-41942928D01*
X109181502Y-41856154D01*
X109221440Y-41759737D01*
X109232686Y-41703200D01*
X109297581Y-41703200D01*
X109399937Y-41682840D01*
X109496354Y-41642902D01*
X109583128Y-41584922D01*
X109656922Y-41511128D01*
X109714902Y-41424354D01*
X109724733Y-41400619D01*
X110722200Y-41400619D01*
X110722200Y-41504981D01*
X110742560Y-41607337D01*
X110782498Y-41703754D01*
X110840478Y-41790528D01*
X110914272Y-41864322D01*
X111001046Y-41922302D01*
X111097463Y-41962240D01*
X111199819Y-41982600D01*
X111304181Y-41982600D01*
X111406537Y-41962240D01*
X111502954Y-41922302D01*
X111589728Y-41864322D01*
X111663522Y-41790528D01*
X111721502Y-41703754D01*
X111727807Y-41688531D01*
X112762712Y-41688531D01*
X112762712Y-41792893D01*
X112783072Y-41895249D01*
X112823010Y-41991666D01*
X112880990Y-42078440D01*
X112954784Y-42152234D01*
X113041558Y-42210214D01*
X113137975Y-42250152D01*
X113240331Y-42270512D01*
X113344693Y-42270512D01*
X113447049Y-42250152D01*
X113543466Y-42210214D01*
X113630240Y-42152234D01*
X113704034Y-42078440D01*
X113762014Y-41991666D01*
X113801952Y-41895249D01*
X113822312Y-41792893D01*
X113822312Y-41688531D01*
X113801952Y-41586175D01*
X113762014Y-41489758D01*
X113704034Y-41402984D01*
X113630240Y-41329190D01*
X113543466Y-41271210D01*
X113447049Y-41231272D01*
X113344693Y-41210912D01*
X113240331Y-41210912D01*
X113137975Y-41231272D01*
X113041558Y-41271210D01*
X112954784Y-41329190D01*
X112880990Y-41402984D01*
X112823010Y-41489758D01*
X112783072Y-41586175D01*
X112762712Y-41688531D01*
X111727807Y-41688531D01*
X111761440Y-41607337D01*
X111781800Y-41504981D01*
X111781800Y-41400619D01*
X111761440Y-41298263D01*
X111721502Y-41201846D01*
X111684601Y-41146619D01*
X117808801Y-41146619D01*
X117808801Y-41250981D01*
X117829161Y-41353337D01*
X117869099Y-41449754D01*
X117927079Y-41536528D01*
X118000873Y-41610322D01*
X118087647Y-41668302D01*
X118184064Y-41708240D01*
X118286420Y-41728600D01*
X118390782Y-41728600D01*
X118493138Y-41708240D01*
X118589555Y-41668302D01*
X118676329Y-41610322D01*
X118750123Y-41536528D01*
X118808103Y-41449754D01*
X118848041Y-41353337D01*
X118868401Y-41250981D01*
X118868401Y-41146619D01*
X118848041Y-41044263D01*
X118808103Y-40947846D01*
X118750123Y-40861072D01*
X118676329Y-40787278D01*
X118589555Y-40729298D01*
X118493138Y-40689360D01*
X118390782Y-40669000D01*
X118286420Y-40669000D01*
X118184064Y-40689360D01*
X118087647Y-40729298D01*
X118000873Y-40787278D01*
X117927079Y-40861072D01*
X117869099Y-40947846D01*
X117829161Y-41044263D01*
X117808801Y-41146619D01*
X111684601Y-41146619D01*
X111663522Y-41115072D01*
X111589728Y-41041278D01*
X111502954Y-40983298D01*
X111406537Y-40943360D01*
X111304181Y-40923000D01*
X111199819Y-40923000D01*
X111097463Y-40943360D01*
X111001046Y-40983298D01*
X110914272Y-41041278D01*
X110840478Y-41115072D01*
X110782498Y-41201846D01*
X110742560Y-41298263D01*
X110722200Y-41400619D01*
X109724733Y-41400619D01*
X109754840Y-41327937D01*
X109775200Y-41225581D01*
X109775200Y-41121219D01*
X109754840Y-41018863D01*
X109714902Y-40922446D01*
X109656922Y-40835672D01*
X109583128Y-40761878D01*
X109496354Y-40703898D01*
X109399937Y-40663960D01*
X109297581Y-40643600D01*
X109193219Y-40643600D01*
X109090863Y-40663960D01*
X108994446Y-40703898D01*
X108907672Y-40761878D01*
X108833878Y-40835672D01*
X108775898Y-40922446D01*
X108735960Y-41018863D01*
X108727225Y-41062776D01*
X108713438Y-40993463D01*
X108673500Y-40897046D01*
X108615520Y-40810272D01*
X108541726Y-40736478D01*
X108454952Y-40678498D01*
X108358535Y-40638560D01*
X108256179Y-40618200D01*
X108151817Y-40618200D01*
X108049461Y-40638560D01*
X107953044Y-40678498D01*
X107866270Y-40736478D01*
X107792476Y-40810272D01*
X107734496Y-40897046D01*
X107694558Y-40993463D01*
X107674198Y-41095819D01*
X107670600Y-41095819D01*
X107670600Y-40017650D01*
X107701122Y-39987128D01*
X107759102Y-39900354D01*
X107799040Y-39803937D01*
X107819400Y-39701581D01*
X107819400Y-39597219D01*
X107799040Y-39494863D01*
X107759102Y-39398446D01*
X107747859Y-39381619D01*
X108639400Y-39381619D01*
X108639400Y-39485981D01*
X108659760Y-39588337D01*
X108699698Y-39684754D01*
X108757678Y-39771528D01*
X108831472Y-39845322D01*
X108918246Y-39903302D01*
X109014663Y-39943240D01*
X109117019Y-39963600D01*
X109221381Y-39963600D01*
X109323737Y-39943240D01*
X109420154Y-39903302D01*
X109506928Y-39845322D01*
X109580722Y-39771528D01*
X109638702Y-39684754D01*
X109678640Y-39588337D01*
X109699000Y-39485981D01*
X109699000Y-39381619D01*
X109693948Y-39356219D01*
X109960200Y-39356219D01*
X109960200Y-39460581D01*
X109980560Y-39562937D01*
X110020498Y-39659354D01*
X110078478Y-39746128D01*
X110152272Y-39819922D01*
X110239046Y-39877902D01*
X110335463Y-39917840D01*
X110437819Y-39938200D01*
X110542181Y-39938200D01*
X110644537Y-39917840D01*
X110740954Y-39877902D01*
X110827728Y-39819922D01*
X110901522Y-39746128D01*
X110959502Y-39659354D01*
X110999440Y-39562937D01*
X111019800Y-39460581D01*
X111019800Y-39356219D01*
X111255600Y-39356219D01*
X111255600Y-39460581D01*
X111275960Y-39562937D01*
X111315898Y-39659354D01*
X111373878Y-39746128D01*
X111447672Y-39819922D01*
X111534446Y-39877902D01*
X111630863Y-39917840D01*
X111733219Y-39938200D01*
X111837581Y-39938200D01*
X111939937Y-39917840D01*
X112036354Y-39877902D01*
X112123128Y-39819922D01*
X112196922Y-39746128D01*
X112254902Y-39659354D01*
X112294840Y-39562937D01*
X112315200Y-39460581D01*
X112315200Y-39356219D01*
X112294840Y-39253863D01*
X112254902Y-39157446D01*
X112196922Y-39070672D01*
X112123128Y-38996878D01*
X112036354Y-38938898D01*
X111939937Y-38898960D01*
X111837581Y-38878600D01*
X111733219Y-38878600D01*
X111630863Y-38898960D01*
X111534446Y-38938898D01*
X111447672Y-38996878D01*
X111373878Y-39070672D01*
X111315898Y-39157446D01*
X111275960Y-39253863D01*
X111255600Y-39356219D01*
X111019800Y-39356219D01*
X110999440Y-39253863D01*
X110959502Y-39157446D01*
X110901522Y-39070672D01*
X110827728Y-38996878D01*
X110740954Y-38938898D01*
X110644537Y-38898960D01*
X110542181Y-38878600D01*
X110437819Y-38878600D01*
X110335463Y-38898960D01*
X110239046Y-38938898D01*
X110152272Y-38996878D01*
X110078478Y-39070672D01*
X110020498Y-39157446D01*
X109980560Y-39253863D01*
X109960200Y-39356219D01*
X109693948Y-39356219D01*
X109678640Y-39279263D01*
X109638702Y-39182846D01*
X109580722Y-39096072D01*
X109506928Y-39022278D01*
X109420154Y-38964298D01*
X109323737Y-38924360D01*
X109221381Y-38904000D01*
X109117019Y-38904000D01*
X109014663Y-38924360D01*
X108918246Y-38964298D01*
X108831472Y-39022278D01*
X108757678Y-39096072D01*
X108699698Y-39182846D01*
X108659760Y-39279263D01*
X108639400Y-39381619D01*
X107747859Y-39381619D01*
X107701122Y-39311672D01*
X107627328Y-39237878D01*
X107540554Y-39179898D01*
X107444137Y-39139960D01*
X107341781Y-39119600D01*
X107237419Y-39119600D01*
X107135063Y-39139960D01*
X107038646Y-39179898D01*
X106951872Y-39237878D01*
X106878078Y-39311672D01*
X106820098Y-39398446D01*
X106780160Y-39494863D01*
X106759800Y-39597219D01*
X106759800Y-39701581D01*
X106760241Y-39703800D01*
X106754819Y-39703800D01*
X106652463Y-39724160D01*
X106556046Y-39764098D01*
X106469272Y-39822078D01*
X106395478Y-39895872D01*
X106337498Y-39982646D01*
X106297560Y-40079063D01*
X106277200Y-40181419D01*
X103924729Y-40181419D01*
X103932313Y-40156419D01*
X103940399Y-40074319D01*
X103940399Y-40074318D01*
X103943102Y-40046876D01*
X103940399Y-40019434D01*
X103940399Y-38505663D01*
X104134719Y-38311343D01*
X104156043Y-38293843D01*
X104190054Y-38252400D01*
X106972150Y-38252400D01*
X106977272Y-38257522D01*
X107064046Y-38315502D01*
X107160463Y-38355440D01*
X107262819Y-38375800D01*
X107367181Y-38375800D01*
X107469537Y-38355440D01*
X107565954Y-38315502D01*
X107652728Y-38257522D01*
X107726522Y-38183728D01*
X107784502Y-38096954D01*
X107809991Y-38035419D01*
X109960200Y-38035419D01*
X109960200Y-38139781D01*
X109980560Y-38242137D01*
X110020498Y-38338554D01*
X110078478Y-38425328D01*
X110152272Y-38499122D01*
X110239046Y-38557102D01*
X110335463Y-38597040D01*
X110437819Y-38617400D01*
X110542181Y-38617400D01*
X110644537Y-38597040D01*
X110740954Y-38557102D01*
X110827728Y-38499122D01*
X110901522Y-38425328D01*
X110959502Y-38338554D01*
X110999440Y-38242137D01*
X111019800Y-38139781D01*
X111019800Y-38035419D01*
X111255600Y-38035419D01*
X111255600Y-38139781D01*
X111275960Y-38242137D01*
X111315898Y-38338554D01*
X111373878Y-38425328D01*
X111447672Y-38499122D01*
X111534446Y-38557102D01*
X111630863Y-38597040D01*
X111733219Y-38617400D01*
X111837581Y-38617400D01*
X111939937Y-38597040D01*
X112036354Y-38557102D01*
X112123128Y-38499122D01*
X112196922Y-38425328D01*
X112254902Y-38338554D01*
X112294840Y-38242137D01*
X112315200Y-38139781D01*
X112315200Y-38035419D01*
X112294840Y-37933063D01*
X112254902Y-37836646D01*
X112196922Y-37749872D01*
X112123128Y-37676078D01*
X112036354Y-37618098D01*
X111939937Y-37578160D01*
X111837581Y-37557800D01*
X111733219Y-37557800D01*
X111630863Y-37578160D01*
X111534446Y-37618098D01*
X111447672Y-37676078D01*
X111373878Y-37749872D01*
X111315898Y-37836646D01*
X111275960Y-37933063D01*
X111255600Y-38035419D01*
X111019800Y-38035419D01*
X110999440Y-37933063D01*
X110959502Y-37836646D01*
X110901522Y-37749872D01*
X110827728Y-37676078D01*
X110740954Y-37618098D01*
X110644537Y-37578160D01*
X110542181Y-37557800D01*
X110437819Y-37557800D01*
X110335463Y-37578160D01*
X110239046Y-37618098D01*
X110152272Y-37676078D01*
X110078478Y-37749872D01*
X110020498Y-37836646D01*
X109980560Y-37933063D01*
X109960200Y-38035419D01*
X107809991Y-38035419D01*
X107824440Y-38000537D01*
X107844800Y-37898181D01*
X107844800Y-37793819D01*
X107824440Y-37691463D01*
X107784502Y-37595046D01*
X107726522Y-37508272D01*
X107652728Y-37434478D01*
X107565954Y-37376498D01*
X107469537Y-37336560D01*
X107367181Y-37316200D01*
X107262819Y-37316200D01*
X107160463Y-37336560D01*
X107064046Y-37376498D01*
X106977272Y-37434478D01*
X106972150Y-37439600D01*
X104082741Y-37439600D01*
X104081136Y-37438283D01*
X104147528Y-37393922D01*
X104221322Y-37320128D01*
X104279302Y-37233354D01*
X104319240Y-37136937D01*
X104339600Y-37034581D01*
X104339600Y-36930219D01*
X104319240Y-36827863D01*
X104293375Y-36765419D01*
X108664800Y-36765419D01*
X108664800Y-36869781D01*
X108685160Y-36972137D01*
X108725098Y-37068554D01*
X108783078Y-37155328D01*
X108856872Y-37229122D01*
X108943646Y-37287102D01*
X109040063Y-37327040D01*
X109142419Y-37347400D01*
X109246781Y-37347400D01*
X109349137Y-37327040D01*
X109445554Y-37287102D01*
X109532328Y-37229122D01*
X109606122Y-37155328D01*
X109664102Y-37068554D01*
X109704040Y-36972137D01*
X109724400Y-36869781D01*
X109724400Y-36765419D01*
X111255600Y-36765419D01*
X111255600Y-36869781D01*
X111275960Y-36972137D01*
X111315898Y-37068554D01*
X111373878Y-37155328D01*
X111447672Y-37229122D01*
X111534446Y-37287102D01*
X111630863Y-37327040D01*
X111733219Y-37347400D01*
X111837581Y-37347400D01*
X111939937Y-37327040D01*
X112036354Y-37287102D01*
X112123128Y-37229122D01*
X112196922Y-37155328D01*
X112254902Y-37068554D01*
X112294840Y-36972137D01*
X112315200Y-36869781D01*
X112315200Y-36765419D01*
X112294840Y-36663063D01*
X112254902Y-36566646D01*
X112196922Y-36479872D01*
X112123128Y-36406078D01*
X112036354Y-36348098D01*
X111939937Y-36308160D01*
X111837581Y-36287800D01*
X111733219Y-36287800D01*
X111630863Y-36308160D01*
X111534446Y-36348098D01*
X111447672Y-36406078D01*
X111373878Y-36479872D01*
X111315898Y-36566646D01*
X111275960Y-36663063D01*
X111255600Y-36765419D01*
X109724400Y-36765419D01*
X109704040Y-36663063D01*
X109664102Y-36566646D01*
X109606122Y-36479872D01*
X109532328Y-36406078D01*
X109445554Y-36348098D01*
X109349137Y-36308160D01*
X109246781Y-36287800D01*
X109142419Y-36287800D01*
X109040063Y-36308160D01*
X108943646Y-36348098D01*
X108856872Y-36406078D01*
X108783078Y-36479872D01*
X108725098Y-36566646D01*
X108685160Y-36663063D01*
X108664800Y-36765419D01*
X104293375Y-36765419D01*
X104279302Y-36731446D01*
X104221322Y-36644672D01*
X104147528Y-36570878D01*
X104060754Y-36512898D01*
X103964337Y-36472960D01*
X103926876Y-36465508D01*
X103927443Y-36465043D01*
X103997273Y-36379954D01*
X104049161Y-36282878D01*
X104081114Y-36177544D01*
X104089200Y-36095444D01*
X104089200Y-36095443D01*
X104091903Y-36068000D01*
X104089200Y-36040556D01*
X104089200Y-35939619D01*
X115446600Y-35939619D01*
X115446600Y-36043981D01*
X115466960Y-36146337D01*
X115506898Y-36242754D01*
X115564878Y-36329528D01*
X115638672Y-36403322D01*
X115725446Y-36461302D01*
X115821863Y-36501240D01*
X115924219Y-36521600D01*
X116028581Y-36521600D01*
X116130937Y-36501240D01*
X116227354Y-36461302D01*
X116314128Y-36403322D01*
X116387922Y-36329528D01*
X116445902Y-36242754D01*
X116485840Y-36146337D01*
X116506200Y-36043981D01*
X116506200Y-35939619D01*
X116485840Y-35837263D01*
X116445902Y-35740846D01*
X116387922Y-35654072D01*
X116314128Y-35580278D01*
X116227354Y-35522298D01*
X116130937Y-35482360D01*
X116028581Y-35462000D01*
X115924219Y-35462000D01*
X115821863Y-35482360D01*
X115725446Y-35522298D01*
X115638672Y-35580278D01*
X115564878Y-35654072D01*
X115506898Y-35740846D01*
X115466960Y-35837263D01*
X115446600Y-35939619D01*
X104089200Y-35939619D01*
X104089200Y-35203019D01*
X104143600Y-35203019D01*
X104143600Y-35307381D01*
X104163960Y-35409737D01*
X104203898Y-35506154D01*
X104261878Y-35592928D01*
X104335672Y-35666722D01*
X104422446Y-35724702D01*
X104518863Y-35764640D01*
X104621219Y-35785000D01*
X104725581Y-35785000D01*
X104827937Y-35764640D01*
X104924354Y-35724702D01*
X105011128Y-35666722D01*
X105084922Y-35592928D01*
X105142902Y-35506154D01*
X105182840Y-35409737D01*
X105203200Y-35307381D01*
X105203200Y-35203019D01*
X105182840Y-35100663D01*
X105142902Y-35004246D01*
X105084922Y-34917472D01*
X105011128Y-34843678D01*
X104924354Y-34785698D01*
X104827937Y-34745760D01*
X104725581Y-34725400D01*
X104621219Y-34725400D01*
X104518863Y-34745760D01*
X104422446Y-34785698D01*
X104335672Y-34843678D01*
X104261878Y-34917472D01*
X104203898Y-35004246D01*
X104163960Y-35100663D01*
X104143600Y-35203019D01*
X104089200Y-35203019D01*
X104089200Y-34466419D01*
X106632800Y-34466419D01*
X106632800Y-34570781D01*
X106653160Y-34673137D01*
X106693098Y-34769554D01*
X106751078Y-34856328D01*
X106824872Y-34930122D01*
X106911646Y-34988102D01*
X107008063Y-35028040D01*
X107064600Y-35039286D01*
X107064600Y-35082381D01*
X107084960Y-35184737D01*
X107124898Y-35281154D01*
X107182878Y-35367928D01*
X107256672Y-35441722D01*
X107343446Y-35499702D01*
X107439863Y-35539640D01*
X107542219Y-35560000D01*
X107646581Y-35560000D01*
X107748937Y-35539640D01*
X107845354Y-35499702D01*
X107932128Y-35441722D01*
X108005922Y-35367928D01*
X108063902Y-35281154D01*
X108103840Y-35184737D01*
X108124200Y-35082381D01*
X108124200Y-34978019D01*
X108103840Y-34875663D01*
X108063902Y-34779246D01*
X108005922Y-34692472D01*
X107932128Y-34618678D01*
X107856311Y-34568019D01*
X108207600Y-34568019D01*
X108207600Y-34672381D01*
X108227960Y-34774737D01*
X108267898Y-34871154D01*
X108325878Y-34957928D01*
X108399672Y-35031722D01*
X108486446Y-35089702D01*
X108582863Y-35129640D01*
X108685219Y-35150000D01*
X108724714Y-35150000D01*
X108735960Y-35206537D01*
X108775898Y-35302954D01*
X108833878Y-35389728D01*
X108907672Y-35463522D01*
X108994446Y-35521502D01*
X109090863Y-35561440D01*
X109193219Y-35581800D01*
X109297581Y-35581800D01*
X109399937Y-35561440D01*
X109496354Y-35521502D01*
X109583128Y-35463522D01*
X109656922Y-35389728D01*
X109714902Y-35302954D01*
X109741800Y-35238018D01*
X109773030Y-35313413D01*
X109831010Y-35400187D01*
X109904804Y-35473981D01*
X109991578Y-35531961D01*
X110087995Y-35571899D01*
X110190351Y-35592259D01*
X110294713Y-35592259D01*
X110397069Y-35571899D01*
X110493486Y-35531961D01*
X110580260Y-35473981D01*
X110654054Y-35400187D01*
X110712034Y-35313413D01*
X110717506Y-35300202D01*
X110821581Y-35300202D01*
X110878286Y-35288923D01*
X110884098Y-35302954D01*
X110942078Y-35389728D01*
X111015872Y-35463522D01*
X111102646Y-35521502D01*
X111199063Y-35561440D01*
X111301419Y-35581800D01*
X111405781Y-35581800D01*
X111508137Y-35561440D01*
X111604554Y-35521502D01*
X111691328Y-35463522D01*
X111765122Y-35389728D01*
X111823102Y-35302954D01*
X111863040Y-35206537D01*
X111883400Y-35104181D01*
X111883400Y-34999819D01*
X111863040Y-34897463D01*
X111823102Y-34801046D01*
X111765122Y-34714272D01*
X111691328Y-34640478D01*
X111604554Y-34582498D01*
X111508137Y-34542560D01*
X111405781Y-34522200D01*
X111301419Y-34522200D01*
X111244714Y-34533479D01*
X111238902Y-34519448D01*
X111180922Y-34432674D01*
X111107128Y-34358880D01*
X111020354Y-34300900D01*
X110923937Y-34260962D01*
X110821581Y-34240602D01*
X110717219Y-34240602D01*
X110614863Y-34260962D01*
X110518446Y-34300900D01*
X110431672Y-34358880D01*
X110357878Y-34432674D01*
X110299898Y-34519448D01*
X110294426Y-34532659D01*
X110255819Y-34532659D01*
X110237440Y-34440263D01*
X110197502Y-34343846D01*
X110139522Y-34257072D01*
X110065728Y-34183278D01*
X109978954Y-34125298D01*
X109882537Y-34085360D01*
X109780181Y-34065000D01*
X109675819Y-34065000D01*
X109573463Y-34085360D01*
X109477046Y-34125298D01*
X109390272Y-34183278D01*
X109316478Y-34257072D01*
X109258498Y-34343846D01*
X109227439Y-34418827D01*
X109206902Y-34369246D01*
X109148922Y-34282472D01*
X109075128Y-34208678D01*
X108988354Y-34150698D01*
X108891937Y-34110760D01*
X108789581Y-34090400D01*
X108685219Y-34090400D01*
X108582863Y-34110760D01*
X108486446Y-34150698D01*
X108399672Y-34208678D01*
X108325878Y-34282472D01*
X108267898Y-34369246D01*
X108227960Y-34465663D01*
X108207600Y-34568019D01*
X107856311Y-34568019D01*
X107845354Y-34560698D01*
X107748937Y-34520760D01*
X107692400Y-34509514D01*
X107692400Y-34466419D01*
X107672040Y-34364063D01*
X107632102Y-34267646D01*
X107574122Y-34180872D01*
X107500328Y-34107078D01*
X107413554Y-34049098D01*
X107317137Y-34009160D01*
X107214781Y-33988800D01*
X107110419Y-33988800D01*
X107008063Y-34009160D01*
X106911646Y-34049098D01*
X106824872Y-34107078D01*
X106751078Y-34180872D01*
X106693098Y-34267646D01*
X106653160Y-34364063D01*
X106632800Y-34466419D01*
X104089200Y-34466419D01*
X104089200Y-33645462D01*
X104258843Y-33475819D01*
X104626200Y-33475819D01*
X104626200Y-33580181D01*
X104646560Y-33682537D01*
X104686498Y-33778954D01*
X104744478Y-33865728D01*
X104818272Y-33939522D01*
X104905046Y-33997502D01*
X105001463Y-34037440D01*
X105103819Y-34057800D01*
X105208181Y-34057800D01*
X105310537Y-34037440D01*
X105406954Y-33997502D01*
X105493728Y-33939522D01*
X105524300Y-33908950D01*
X105554872Y-33939522D01*
X105641646Y-33997502D01*
X105738063Y-34037440D01*
X105840419Y-34057800D01*
X105944781Y-34057800D01*
X106047137Y-34037440D01*
X106143554Y-33997502D01*
X106230328Y-33939522D01*
X106304122Y-33865728D01*
X106362102Y-33778954D01*
X106402040Y-33682537D01*
X106422400Y-33580181D01*
X106422400Y-33475819D01*
X106402040Y-33373463D01*
X106391832Y-33348819D01*
X114506800Y-33348819D01*
X114506800Y-33453181D01*
X114527160Y-33555537D01*
X114567098Y-33651954D01*
X114625078Y-33738728D01*
X114698872Y-33812522D01*
X114785646Y-33870502D01*
X114882063Y-33910440D01*
X114984419Y-33930800D01*
X115088781Y-33930800D01*
X115191137Y-33910440D01*
X115287554Y-33870502D01*
X115374328Y-33812522D01*
X115448122Y-33738728D01*
X115506102Y-33651954D01*
X115546040Y-33555537D01*
X115566400Y-33453181D01*
X115566400Y-33348819D01*
X115546040Y-33246463D01*
X115506102Y-33150046D01*
X115448122Y-33063272D01*
X115374328Y-32989478D01*
X115287554Y-32931498D01*
X115191137Y-32891560D01*
X115088781Y-32871200D01*
X114984419Y-32871200D01*
X114882063Y-32891560D01*
X114785646Y-32931498D01*
X114698872Y-32989478D01*
X114625078Y-33063272D01*
X114567098Y-33150046D01*
X114527160Y-33246463D01*
X114506800Y-33348819D01*
X106391832Y-33348819D01*
X106362102Y-33277046D01*
X106304122Y-33190272D01*
X106230328Y-33116478D01*
X106143554Y-33058498D01*
X106047137Y-33018560D01*
X105944781Y-32998200D01*
X105840419Y-32998200D01*
X105738063Y-33018560D01*
X105641646Y-33058498D01*
X105554872Y-33116478D01*
X105524300Y-33147050D01*
X105493728Y-33116478D01*
X105406954Y-33058498D01*
X105310537Y-33018560D01*
X105208181Y-32998200D01*
X105103819Y-32998200D01*
X105001463Y-33018560D01*
X104905046Y-33058498D01*
X104818272Y-33116478D01*
X104744478Y-33190272D01*
X104686498Y-33277046D01*
X104646560Y-33373463D01*
X104626200Y-33475819D01*
X104258843Y-33475819D01*
X105701664Y-32032999D01*
X107398862Y-32032999D01*
X107394800Y-32053419D01*
X107394800Y-32157781D01*
X107415160Y-32260137D01*
X107455098Y-32356554D01*
X107513078Y-32443328D01*
X107586872Y-32517122D01*
X107673646Y-32575102D01*
X107770063Y-32615040D01*
X107872419Y-32635400D01*
X107976781Y-32635400D01*
X108079137Y-32615040D01*
X108175554Y-32575102D01*
X108262328Y-32517122D01*
X108336122Y-32443328D01*
X108356287Y-32413149D01*
X108822475Y-32879338D01*
X108822481Y-32879343D01*
X109047475Y-33104337D01*
X109111246Y-33156673D01*
X109208322Y-33208561D01*
X109313655Y-33240514D01*
X109423200Y-33251303D01*
X109532744Y-33240514D01*
X109638077Y-33208561D01*
X109735154Y-33156673D01*
X109820242Y-33086842D01*
X109890073Y-33001754D01*
X109941961Y-32904677D01*
X109973914Y-32799344D01*
X109984703Y-32689800D01*
X109973914Y-32580255D01*
X109941961Y-32474922D01*
X109890073Y-32377846D01*
X109837737Y-32314075D01*
X109612743Y-32089081D01*
X109612738Y-32089075D01*
X108791062Y-31267400D01*
X111054247Y-31267400D01*
X111074200Y-31269365D01*
X111094153Y-31267400D01*
X111094160Y-31267400D01*
X111153868Y-31261519D01*
X111230475Y-31238281D01*
X111301076Y-31200544D01*
X111362958Y-31149758D01*
X111375682Y-31134254D01*
X111548717Y-30961219D01*
X111992200Y-30961219D01*
X111992200Y-31065581D01*
X112012560Y-31167937D01*
X112052498Y-31264354D01*
X112110478Y-31351128D01*
X112184272Y-31424922D01*
X112271046Y-31482902D01*
X112367463Y-31522840D01*
X112469819Y-31543200D01*
X112574181Y-31543200D01*
X112676537Y-31522840D01*
X112772954Y-31482902D01*
X112859728Y-31424922D01*
X112933522Y-31351128D01*
X112991502Y-31264354D01*
X113031440Y-31167937D01*
X113051800Y-31065581D01*
X113051800Y-30961219D01*
X113031440Y-30858863D01*
X112991502Y-30762446D01*
X112933522Y-30675672D01*
X112859728Y-30601878D01*
X112772954Y-30543898D01*
X112676537Y-30503960D01*
X112574181Y-30483600D01*
X112469819Y-30483600D01*
X112367463Y-30503960D01*
X112271046Y-30543898D01*
X112184272Y-30601878D01*
X112110478Y-30675672D01*
X112052498Y-30762446D01*
X112012560Y-30858863D01*
X111992200Y-30961219D01*
X111548717Y-30961219D01*
X112490454Y-30019482D01*
X112505958Y-30006758D01*
X112556744Y-29944876D01*
X112594481Y-29874275D01*
X112617719Y-29797668D01*
X112623600Y-29737960D01*
X112623600Y-29737954D01*
X112625565Y-29718001D01*
X112623600Y-29698048D01*
X112623600Y-28146165D01*
X112669278Y-28214528D01*
X112743072Y-28288322D01*
X112829846Y-28346302D01*
X112926263Y-28386240D01*
X113028619Y-28406600D01*
X113132981Y-28406600D01*
X113235337Y-28386240D01*
X113331754Y-28346302D01*
X113418528Y-28288322D01*
X113492322Y-28214528D01*
X113550302Y-28127754D01*
X113590240Y-28031337D01*
X113610600Y-27928981D01*
X113610600Y-27824619D01*
X113590240Y-27722263D01*
X113550302Y-27625846D01*
X113492322Y-27539072D01*
X113418528Y-27465278D01*
X113331754Y-27407298D01*
X113235337Y-27367360D01*
X113132981Y-27347000D01*
X113028619Y-27347000D01*
X112997807Y-27353129D01*
X113757136Y-26593800D01*
X114956864Y-26593800D01*
X115066043Y-26702979D01*
X115046796Y-26731784D01*
X114986128Y-26878249D01*
X114955200Y-27033734D01*
X114955200Y-27192266D01*
X114986128Y-27347751D01*
X115046796Y-27494216D01*
X115134871Y-27626030D01*
X115246970Y-27738129D01*
X115378784Y-27826204D01*
X115525249Y-27886872D01*
X115680734Y-27917800D01*
X115839266Y-27917800D01*
X115994751Y-27886872D01*
X116141216Y-27826204D01*
X116273030Y-27738129D01*
X116385129Y-27626030D01*
X116395000Y-27611257D01*
X116404871Y-27626030D01*
X116516970Y-27738129D01*
X116648784Y-27826204D01*
X116795249Y-27886872D01*
X116950734Y-27917800D01*
X117109266Y-27917800D01*
X117264751Y-27886872D01*
X117411216Y-27826204D01*
X117543030Y-27738129D01*
X117655129Y-27626030D01*
X117678200Y-27591501D01*
X117678201Y-29753537D01*
X117404081Y-30027657D01*
X117382757Y-30045157D01*
X117357517Y-30075912D01*
X117348616Y-30062590D01*
X117257410Y-29971384D01*
X117150164Y-29899724D01*
X117030998Y-29850364D01*
X116904492Y-29825200D01*
X116775508Y-29825200D01*
X116649002Y-29850364D01*
X116529836Y-29899724D01*
X116422590Y-29971384D01*
X116331384Y-30062590D01*
X116259724Y-30169836D01*
X116210364Y-30289002D01*
X116185200Y-30415508D01*
X116185200Y-30544492D01*
X116210364Y-30670998D01*
X116259724Y-30790164D01*
X116331384Y-30897410D01*
X116422590Y-30988616D01*
X116529836Y-31060276D01*
X116649002Y-31109636D01*
X116775508Y-31134800D01*
X116904492Y-31134800D01*
X117030998Y-31109636D01*
X117034931Y-31108007D01*
X116264680Y-31878258D01*
X116243356Y-31895758D01*
X116173526Y-31980847D01*
X116121638Y-32077924D01*
X116089685Y-32183258D01*
X116083119Y-32249923D01*
X116078896Y-32292801D01*
X116081599Y-32320243D01*
X116081600Y-33365145D01*
X116078896Y-33392597D01*
X116089686Y-33502141D01*
X116121638Y-33607474D01*
X116149420Y-33659450D01*
X116173527Y-33704551D01*
X116243357Y-33789640D01*
X116264675Y-33807135D01*
X116488259Y-34030719D01*
X116505759Y-34052043D01*
X116590848Y-34121873D01*
X116687924Y-34173761D01*
X116762681Y-34196439D01*
X116717930Y-34263414D01*
X116677992Y-34359831D01*
X116657632Y-34462187D01*
X116657632Y-34566549D01*
X116677992Y-34668905D01*
X116717930Y-34765322D01*
X116775910Y-34852096D01*
X116827271Y-34903457D01*
X116776898Y-34978846D01*
X116736960Y-35075263D01*
X116716600Y-35177619D01*
X116716600Y-35281981D01*
X116736960Y-35384337D01*
X116776898Y-35480754D01*
X116834878Y-35567528D01*
X116908672Y-35641322D01*
X116995446Y-35699302D01*
X117091863Y-35739240D01*
X117194219Y-35759600D01*
X117298581Y-35759600D01*
X117400937Y-35739240D01*
X117497354Y-35699302D01*
X117576558Y-35646380D01*
X117576559Y-38158462D01*
X117556138Y-38154400D01*
X117451776Y-38154400D01*
X117349420Y-38174760D01*
X117253003Y-38214698D01*
X117166229Y-38272678D01*
X117092435Y-38346472D01*
X117034455Y-38433246D01*
X116994517Y-38529663D01*
X116974157Y-38632019D01*
X116974157Y-38736381D01*
X116994517Y-38838737D01*
X117034455Y-38935154D01*
X117081722Y-39005895D01*
X116236861Y-39005895D01*
X116154761Y-39013981D01*
X116049427Y-39045934D01*
X115952351Y-39097822D01*
X115867262Y-39167652D01*
X115797432Y-39252741D01*
X115745544Y-39349817D01*
X115713591Y-39455151D01*
X115702802Y-39564695D01*
X115713591Y-39674239D01*
X115745544Y-39779573D01*
X115797432Y-39876649D01*
X115867262Y-39961738D01*
X115931653Y-40014582D01*
X115901581Y-40008600D01*
X115797219Y-40008600D01*
X115694863Y-40028960D01*
X115598446Y-40068898D01*
X115511672Y-40126878D01*
X115437878Y-40200672D01*
X115379898Y-40287446D01*
X115339960Y-40383863D01*
X115319600Y-40486219D01*
X115319600Y-40590581D01*
X115339960Y-40692937D01*
X115379898Y-40789354D01*
X115437878Y-40876128D01*
X115511672Y-40949922D01*
X115598446Y-41007902D01*
X115694863Y-41047840D01*
X115797219Y-41068200D01*
X115901581Y-41068200D01*
X116003937Y-41047840D01*
X116100354Y-41007902D01*
X116187128Y-40949922D01*
X116260922Y-40876128D01*
X116318902Y-40789354D01*
X116358840Y-40692937D01*
X116379200Y-40590581D01*
X116379200Y-40486219D01*
X116358840Y-40383863D01*
X116318902Y-40287446D01*
X116260922Y-40200672D01*
X116187128Y-40126878D01*
X116172592Y-40117165D01*
X116236861Y-40123495D01*
X117530494Y-40123495D01*
X117557936Y-40126198D01*
X117585378Y-40123495D01*
X117585380Y-40123495D01*
X117667480Y-40115409D01*
X117772814Y-40083456D01*
X117869890Y-40031568D01*
X117954979Y-39961738D01*
X117972479Y-39940415D01*
X118511082Y-39401812D01*
X118532401Y-39384316D01*
X118602231Y-39299227D01*
X118654119Y-39202151D01*
X118686072Y-39096817D01*
X118694158Y-39014717D01*
X118694158Y-39014716D01*
X118696861Y-38987274D01*
X118694158Y-38959832D01*
X118694158Y-34596799D01*
X118696861Y-34569357D01*
X118692216Y-34522200D01*
X118686072Y-34459814D01*
X118654119Y-34354480D01*
X118602231Y-34257404D01*
X118532401Y-34172315D01*
X118511077Y-34154815D01*
X117673256Y-33316994D01*
X117683322Y-33306928D01*
X117741302Y-33220154D01*
X117750848Y-33197108D01*
X121773200Y-33197108D01*
X121773200Y-33326092D01*
X121798364Y-33452598D01*
X121847724Y-33571764D01*
X121919384Y-33679010D01*
X122010590Y-33770216D01*
X122117836Y-33841876D01*
X122237002Y-33891236D01*
X122363508Y-33916400D01*
X122492492Y-33916400D01*
X122618998Y-33891236D01*
X122738164Y-33841876D01*
X122845410Y-33770216D01*
X122936616Y-33679010D01*
X123008276Y-33571764D01*
X123057636Y-33452598D01*
X123082800Y-33326092D01*
X123082800Y-33197108D01*
X123057636Y-33070602D01*
X123008276Y-32951436D01*
X122936616Y-32844190D01*
X122845410Y-32752984D01*
X122738164Y-32681324D01*
X122618998Y-32631964D01*
X122492492Y-32606800D01*
X122363508Y-32606800D01*
X122237002Y-32631964D01*
X122117836Y-32681324D01*
X122010590Y-32752984D01*
X121919384Y-32844190D01*
X121847724Y-32951436D01*
X121798364Y-33070602D01*
X121773200Y-33197108D01*
X117750848Y-33197108D01*
X117781240Y-33123737D01*
X117794093Y-33059119D01*
X117872621Y-33043499D01*
X117969038Y-33003561D01*
X118055812Y-32945581D01*
X118129606Y-32871787D01*
X118187586Y-32785013D01*
X118227446Y-32688785D01*
X118241654Y-32688785D01*
X118344010Y-32668425D01*
X118440427Y-32628487D01*
X118527201Y-32570507D01*
X118600995Y-32496713D01*
X118658975Y-32409939D01*
X118698913Y-32313522D01*
X118714846Y-32233422D01*
X118752725Y-32225887D01*
X118849142Y-32185949D01*
X118935916Y-32127969D01*
X119009710Y-32054175D01*
X119067690Y-31967401D01*
X119107628Y-31870984D01*
X119127988Y-31768628D01*
X119127988Y-31664266D01*
X119107628Y-31561910D01*
X119067690Y-31465493D01*
X119009710Y-31378719D01*
X118935916Y-31304925D01*
X118849142Y-31246945D01*
X118836810Y-31241837D01*
X118904928Y-31196322D01*
X118978722Y-31122528D01*
X119035601Y-31037401D01*
X119069836Y-31060276D01*
X119189002Y-31109636D01*
X119315508Y-31134800D01*
X119444492Y-31134800D01*
X119570998Y-31109636D01*
X119690164Y-31060276D01*
X119797410Y-30988616D01*
X119888616Y-30897410D01*
X119960276Y-30790164D01*
X120009636Y-30670998D01*
X120015000Y-30644032D01*
X120020364Y-30670998D01*
X120069724Y-30790164D01*
X120141384Y-30897410D01*
X120232590Y-30988616D01*
X120339836Y-31060276D01*
X120459002Y-31109636D01*
X120585508Y-31134800D01*
X120714492Y-31134800D01*
X120840998Y-31109636D01*
X120960164Y-31060276D01*
X121067410Y-30988616D01*
X121158616Y-30897410D01*
X121230276Y-30790164D01*
X121279636Y-30670998D01*
X121304800Y-30544492D01*
X121304800Y-30415508D01*
X121279636Y-30289002D01*
X121230276Y-30169836D01*
X121158616Y-30062590D01*
X121067410Y-29971384D01*
X120960164Y-29899724D01*
X120840998Y-29850364D01*
X120779130Y-29838058D01*
X120833164Y-29815676D01*
X120940410Y-29744016D01*
X121031616Y-29652810D01*
X121103276Y-29545564D01*
X121152636Y-29426398D01*
X121177800Y-29299892D01*
X121177800Y-29170908D01*
X121152636Y-29044402D01*
X121103276Y-28925236D01*
X121031616Y-28817990D01*
X120940410Y-28726784D01*
X120833164Y-28655124D01*
X120713998Y-28605764D01*
X120587492Y-28580600D01*
X120458508Y-28580600D01*
X120332002Y-28605764D01*
X120212836Y-28655124D01*
X120105590Y-28726784D01*
X120014384Y-28817990D01*
X119942724Y-28925236D01*
X119893364Y-29044402D01*
X119868200Y-29170908D01*
X119868200Y-29299892D01*
X119893364Y-29426398D01*
X119942724Y-29545564D01*
X120014384Y-29652810D01*
X120105590Y-29744016D01*
X120212836Y-29815676D01*
X120332002Y-29865036D01*
X120393870Y-29877342D01*
X120339836Y-29899724D01*
X120232590Y-29971384D01*
X120141384Y-30062590D01*
X120069724Y-30169836D01*
X120020364Y-30289002D01*
X120015000Y-30315968D01*
X120009636Y-30289002D01*
X119960276Y-30169836D01*
X119888616Y-30062590D01*
X119797410Y-29971384D01*
X119690164Y-29899724D01*
X119570998Y-29850364D01*
X119444492Y-29825200D01*
X119315508Y-29825200D01*
X119189002Y-29850364D01*
X119069836Y-29899724D01*
X118962590Y-29971384D01*
X118871384Y-30062590D01*
X118799724Y-30169836D01*
X118750995Y-30287479D01*
X118721737Y-30275360D01*
X118716023Y-30274223D01*
X118755761Y-30199878D01*
X118787714Y-30094544D01*
X118795800Y-30012444D01*
X118795800Y-30012443D01*
X118798503Y-29985001D01*
X118795800Y-29957559D01*
X118795800Y-27799308D01*
X119868200Y-27799308D01*
X119868200Y-27928292D01*
X119893364Y-28054798D01*
X119942724Y-28173964D01*
X120014384Y-28281210D01*
X120105590Y-28372416D01*
X120212836Y-28444076D01*
X120332002Y-28493436D01*
X120458508Y-28518600D01*
X120587492Y-28518600D01*
X120713998Y-28493436D01*
X120833164Y-28444076D01*
X120940410Y-28372416D01*
X121031616Y-28281210D01*
X121103276Y-28173964D01*
X121152636Y-28054798D01*
X121177800Y-27928292D01*
X121177800Y-27875508D01*
X122535200Y-27875508D01*
X122535200Y-28004492D01*
X122560364Y-28130998D01*
X122609724Y-28250164D01*
X122681384Y-28357410D01*
X122772590Y-28448616D01*
X122879836Y-28520276D01*
X122999002Y-28569636D01*
X123025968Y-28575000D01*
X122999002Y-28580364D01*
X122879836Y-28629724D01*
X122772590Y-28701384D01*
X122681384Y-28792590D01*
X122609724Y-28899836D01*
X122560364Y-29019002D01*
X122535200Y-29145508D01*
X122535200Y-29274492D01*
X122560364Y-29400998D01*
X122609724Y-29520164D01*
X122681384Y-29627410D01*
X122772590Y-29718616D01*
X122879836Y-29790276D01*
X122999002Y-29839636D01*
X123125508Y-29864800D01*
X123254492Y-29864800D01*
X123380998Y-29839636D01*
X123500164Y-29790276D01*
X123607410Y-29718616D01*
X123698616Y-29627410D01*
X123770276Y-29520164D01*
X123819636Y-29400998D01*
X123844800Y-29274492D01*
X123844800Y-29145508D01*
X123819636Y-29019002D01*
X123770276Y-28899836D01*
X123698616Y-28792590D01*
X123607410Y-28701384D01*
X123500164Y-28629724D01*
X123380998Y-28580364D01*
X123354032Y-28575000D01*
X123380998Y-28569636D01*
X123500164Y-28520276D01*
X123607410Y-28448616D01*
X123698616Y-28357410D01*
X123770276Y-28250164D01*
X123819636Y-28130998D01*
X123844800Y-28004492D01*
X123844800Y-27875508D01*
X123819636Y-27749002D01*
X123770276Y-27629836D01*
X123698616Y-27522590D01*
X123607410Y-27431384D01*
X123500164Y-27359724D01*
X123380998Y-27310364D01*
X123254492Y-27285200D01*
X123125508Y-27285200D01*
X122999002Y-27310364D01*
X122879836Y-27359724D01*
X122772590Y-27431384D01*
X122681384Y-27522590D01*
X122609724Y-27629836D01*
X122560364Y-27749002D01*
X122535200Y-27875508D01*
X121177800Y-27875508D01*
X121177800Y-27799308D01*
X121152636Y-27672802D01*
X121103276Y-27553636D01*
X121031616Y-27446390D01*
X120940410Y-27355184D01*
X120833164Y-27283524D01*
X120713998Y-27234164D01*
X120587492Y-27209000D01*
X120458508Y-27209000D01*
X120332002Y-27234164D01*
X120212836Y-27283524D01*
X120105590Y-27355184D01*
X120014384Y-27446390D01*
X119942724Y-27553636D01*
X119893364Y-27672802D01*
X119868200Y-27799308D01*
X118795800Y-27799308D01*
X118795800Y-27123091D01*
X118837885Y-27021488D01*
X123945200Y-27021488D01*
X123945200Y-27278512D01*
X123995343Y-27530596D01*
X124093702Y-27768054D01*
X124236496Y-27981761D01*
X124418239Y-28163504D01*
X124631946Y-28306298D01*
X124869404Y-28404657D01*
X125121488Y-28454800D01*
X125330574Y-28454800D01*
X125322984Y-28462390D01*
X125251324Y-28569636D01*
X125201964Y-28688802D01*
X125176800Y-28815308D01*
X125176800Y-28944292D01*
X125201964Y-29070798D01*
X125251324Y-29189964D01*
X125322984Y-29297210D01*
X125414190Y-29388416D01*
X125521436Y-29460076D01*
X125640602Y-29509436D01*
X125767108Y-29534600D01*
X125896092Y-29534600D01*
X126022598Y-29509436D01*
X126141764Y-29460076D01*
X126249010Y-29388416D01*
X126340216Y-29297210D01*
X126411876Y-29189964D01*
X126461236Y-29070798D01*
X126486400Y-28944292D01*
X126486400Y-28815308D01*
X126461236Y-28688802D01*
X126411876Y-28569636D01*
X126340216Y-28462390D01*
X126249010Y-28371184D01*
X126141764Y-28299524D01*
X126022598Y-28250164D01*
X125968245Y-28239352D01*
X126081761Y-28163504D01*
X126263504Y-27981761D01*
X126406298Y-27768054D01*
X126504657Y-27530596D01*
X126554800Y-27278512D01*
X126554800Y-27021488D01*
X126504657Y-26769404D01*
X126406298Y-26531946D01*
X126263504Y-26318239D01*
X126081761Y-26136496D01*
X125868054Y-25993702D01*
X125630596Y-25895343D01*
X125378512Y-25845200D01*
X125121488Y-25845200D01*
X124869404Y-25895343D01*
X124631946Y-25993702D01*
X124418239Y-26136496D01*
X124236496Y-26318239D01*
X124093702Y-26531946D01*
X123995343Y-26769404D01*
X123945200Y-27021488D01*
X118837885Y-27021488D01*
X118841236Y-27013398D01*
X118866400Y-26886892D01*
X118866400Y-26757908D01*
X118841236Y-26631402D01*
X118791876Y-26512236D01*
X118720216Y-26404990D01*
X118629010Y-26313784D01*
X118521764Y-26242124D01*
X118402598Y-26192764D01*
X118276092Y-26167600D01*
X118147108Y-26167600D01*
X118020602Y-26192764D01*
X117901436Y-26242124D01*
X117794190Y-26313784D01*
X117702984Y-26404990D01*
X117631324Y-26512236D01*
X117612600Y-26557441D01*
X117543030Y-26487871D01*
X117411216Y-26399796D01*
X117264751Y-26339128D01*
X117109266Y-26308200D01*
X116950734Y-26308200D01*
X116795249Y-26339128D01*
X116648784Y-26399796D01*
X116516970Y-26487871D01*
X116404871Y-26599970D01*
X116395000Y-26614743D01*
X116385129Y-26599970D01*
X116273030Y-26487871D01*
X116141216Y-26399796D01*
X115994751Y-26339128D01*
X115839266Y-26308200D01*
X115820737Y-26308200D01*
X115426682Y-25914146D01*
X115413958Y-25898642D01*
X115352076Y-25847856D01*
X115281475Y-25810119D01*
X115204868Y-25786881D01*
X115145160Y-25781000D01*
X115145153Y-25781000D01*
X115125200Y-25779035D01*
X115105247Y-25781000D01*
X113608752Y-25781000D01*
X113588799Y-25779035D01*
X113568846Y-25781000D01*
X113568840Y-25781000D01*
X113517135Y-25786093D01*
X113509131Y-25786881D01*
X113485893Y-25793930D01*
X113432525Y-25810119D01*
X113361924Y-25847856D01*
X113300042Y-25898642D01*
X113287318Y-25914146D01*
X111943946Y-27257518D01*
X111928442Y-27270242D01*
X111877656Y-27332125D01*
X111852828Y-27378575D01*
X111839919Y-27402726D01*
X111826530Y-27446866D01*
X111816681Y-27479333D01*
X111810800Y-27539041D01*
X111810800Y-27539047D01*
X111808835Y-27559000D01*
X111810800Y-27578953D01*
X111810801Y-29549663D01*
X111635385Y-29725079D01*
X111701310Y-29601741D01*
X111775920Y-29355785D01*
X111794800Y-29164096D01*
X111794800Y-27035904D01*
X111775920Y-26844215D01*
X111701310Y-26598259D01*
X111580151Y-26371585D01*
X111417097Y-26172903D01*
X111218414Y-26009849D01*
X110991740Y-25888690D01*
X110745784Y-25814080D01*
X110490000Y-25788887D01*
X110234215Y-25814080D01*
X109988259Y-25888690D01*
X109761585Y-26009849D01*
X109562903Y-26172903D01*
X109399849Y-26371586D01*
X109278690Y-26598260D01*
X109204080Y-26844216D01*
X109185200Y-27035905D01*
X109185201Y-29164096D01*
X109204081Y-29355785D01*
X109278691Y-29601741D01*
X109399850Y-29828415D01*
X109562904Y-30027097D01*
X109761586Y-30190151D01*
X109988260Y-30311310D01*
X110234216Y-30385920D01*
X110490000Y-30411113D01*
X110745785Y-30385920D01*
X110991741Y-30311310D01*
X111115079Y-30245385D01*
X110905864Y-30454600D01*
X105036553Y-30454600D01*
X105016600Y-30452635D01*
X104996647Y-30454600D01*
X104996640Y-30454600D01*
X104944204Y-30459765D01*
X104936931Y-30460481D01*
X104860717Y-30483600D01*
X104860325Y-30483719D01*
X104789724Y-30521456D01*
X104774627Y-30533846D01*
X104743345Y-30559518D01*
X104743340Y-30559523D01*
X104727842Y-30572242D01*
X104715123Y-30587740D01*
X102495146Y-32807718D01*
X102479642Y-32820442D01*
X102466919Y-32835945D01*
X102466918Y-32835946D01*
X102462045Y-32841884D01*
X102428856Y-32882325D01*
X102397625Y-32940754D01*
X102391119Y-32952926D01*
X102369652Y-33023696D01*
X102367881Y-33029533D01*
X102362000Y-33089241D01*
X102362000Y-33089247D01*
X102360035Y-33109200D01*
X102362000Y-33129153D01*
X102362001Y-34353549D01*
X102356878Y-34358672D01*
X102298898Y-34445446D01*
X102258960Y-34541863D01*
X102238600Y-34644219D01*
X102238600Y-34748581D01*
X102258960Y-34850937D01*
X102298898Y-34947354D01*
X102356878Y-35034128D01*
X102430672Y-35107922D01*
X102517446Y-35165902D01*
X102613863Y-35205840D01*
X102716219Y-35226200D01*
X102820581Y-35226200D01*
X102922937Y-35205840D01*
X102971600Y-35185683D01*
X102971600Y-35836537D01*
X102595876Y-36212262D01*
X102574558Y-36229757D01*
X102557063Y-36251075D01*
X102504728Y-36314846D01*
X102452839Y-36411923D01*
X102443192Y-36443726D01*
X102420886Y-36517256D01*
X102412800Y-36599356D01*
X102410097Y-36626800D01*
X102412800Y-36654242D01*
X102412800Y-37400156D01*
X102410097Y-37427598D01*
X102412800Y-37455040D01*
X102412800Y-37455041D01*
X102420886Y-37537141D01*
X102452839Y-37642475D01*
X102504727Y-37739552D01*
X102574557Y-37824641D01*
X102595880Y-37842140D01*
X102851253Y-38097514D01*
X102830886Y-38164657D01*
X102820096Y-38274201D01*
X102822800Y-38301653D01*
X102822800Y-39108138D01*
X102816154Y-39103698D01*
X102719737Y-39063760D01*
X102617381Y-39043400D01*
X102513019Y-39043400D01*
X102410663Y-39063760D01*
X102314246Y-39103698D01*
X102227472Y-39161678D01*
X102153678Y-39235472D01*
X102095698Y-39322246D01*
X102055760Y-39418663D01*
X102035400Y-39521019D01*
X101955600Y-39521019D01*
X101955600Y-27167392D01*
X101969906Y-27021488D01*
X102045200Y-27021488D01*
X102045200Y-27278512D01*
X102095343Y-27530596D01*
X102193702Y-27768054D01*
X102336496Y-27981761D01*
X102518239Y-28163504D01*
X102731946Y-28306298D01*
X102969404Y-28404657D01*
X103221488Y-28454800D01*
X103478512Y-28454800D01*
X103730596Y-28404657D01*
X103968054Y-28306298D01*
X104181761Y-28163504D01*
X104363504Y-27981761D01*
X104506298Y-27768054D01*
X104604657Y-27530596D01*
X104654800Y-27278512D01*
X104654800Y-27021488D01*
X104604657Y-26769404D01*
X104506298Y-26531946D01*
X104363504Y-26318239D01*
X104181761Y-26136496D01*
X103968054Y-25993702D01*
X103730596Y-25895343D01*
X103478512Y-25845200D01*
X103221488Y-25845200D01*
X102969404Y-25895343D01*
X102731946Y-25993702D01*
X102518239Y-26136496D01*
X102336496Y-26318239D01*
X102193702Y-26531946D01*
X102095343Y-26769404D01*
X102045200Y-27021488D01*
X101969906Y-27021488D01*
X101983829Y-26879492D01*
X102062389Y-26619286D01*
X102189996Y-26379294D01*
X102361784Y-26168659D01*
X102571213Y-25995404D01*
X102810309Y-25866126D01*
X103069959Y-25785751D01*
X103356828Y-25755600D01*
X125232608Y-25755600D01*
X125520508Y-25783829D01*
G37*
X125520508Y-25783829D02*
X125780714Y-25862389D01*
X126020706Y-25989996D01*
X126231341Y-26161784D01*
X126404596Y-26371213D01*
X126533874Y-26610309D01*
X126614249Y-26869959D01*
X126644400Y-27156827D01*
X126644400Y-32817482D01*
X126619616Y-32780390D01*
X126528410Y-32689184D01*
X126421164Y-32617524D01*
X126403452Y-32610188D01*
X125785257Y-31991993D01*
X125765762Y-31968238D01*
X125671004Y-31890473D01*
X125562896Y-31832688D01*
X125445592Y-31797104D01*
X125354172Y-31788100D01*
X125354169Y-31788100D01*
X125323600Y-31785089D01*
X125293031Y-31788100D01*
X125252909Y-31788100D01*
X125235198Y-31780764D01*
X125108692Y-31755600D01*
X124979708Y-31755600D01*
X124853202Y-31780764D01*
X124734036Y-31830124D01*
X124626790Y-31901784D01*
X124535584Y-31992990D01*
X124463924Y-32100236D01*
X124414564Y-32219402D01*
X124389400Y-32345908D01*
X124389400Y-32474892D01*
X124414564Y-32601398D01*
X124463924Y-32720564D01*
X124535584Y-32827810D01*
X124626790Y-32919016D01*
X124734036Y-32990676D01*
X124853202Y-33040036D01*
X124979708Y-33065200D01*
X125098336Y-33065200D01*
X125488700Y-33455565D01*
X125488701Y-44039834D01*
X124227636Y-45300900D01*
X122918459Y-45300900D01*
X122915630Y-45298071D01*
X122783816Y-45209996D01*
X122637351Y-45149328D01*
X122481866Y-45118400D01*
X122323334Y-45118400D01*
X122167849Y-45149328D01*
X122021384Y-45209996D01*
X121889570Y-45298071D01*
X121777471Y-45410170D01*
X121767600Y-45424943D01*
X121757729Y-45410170D01*
X121645630Y-45298071D01*
X121513816Y-45209996D01*
X121367351Y-45149328D01*
X121211866Y-45118400D01*
X121053334Y-45118400D01*
X120897849Y-45149328D01*
X120751384Y-45209996D01*
X120635600Y-45287360D01*
X120617258Y-45253043D01*
X120579168Y-45206632D01*
X120532757Y-45168542D01*
X120479806Y-45140240D01*
X120422351Y-45122811D01*
X120362600Y-45116926D01*
X119362600Y-45116926D01*
X119302849Y-45122811D01*
X119245394Y-45140240D01*
X119192443Y-45168542D01*
X119146032Y-45206632D01*
X119107942Y-45253043D01*
X119079640Y-45305994D01*
X119062211Y-45363449D01*
X119056326Y-45423200D01*
X119056326Y-46423200D01*
X119062211Y-46482951D01*
X119079640Y-46540406D01*
X119107942Y-46593357D01*
X119146032Y-46639768D01*
X119192443Y-46677858D01*
X119226760Y-46696200D01*
X119149396Y-46811984D01*
X119088728Y-46958449D01*
X119057800Y-47113934D01*
X119057800Y-47272466D01*
X119088728Y-47427951D01*
X119149396Y-47574416D01*
X119237471Y-47706230D01*
X119349570Y-47818329D01*
X119481384Y-47906404D01*
X119627849Y-47967072D01*
X119783334Y-47998000D01*
X119941866Y-47998000D01*
X120097351Y-47967072D01*
X120243816Y-47906404D01*
X120375630Y-47818329D01*
X120487729Y-47706230D01*
X120497600Y-47691457D01*
X120507471Y-47706230D01*
X120619570Y-47818329D01*
X120751384Y-47906404D01*
X120897849Y-47967072D01*
X121053334Y-47998000D01*
X121211866Y-47998000D01*
X121367351Y-47967072D01*
X121513816Y-47906404D01*
X121645630Y-47818329D01*
X121757729Y-47706230D01*
X121767600Y-47691457D01*
X121777471Y-47706230D01*
X121889570Y-47818329D01*
X122021384Y-47906404D01*
X122167849Y-47967072D01*
X122323334Y-47998000D01*
X122481866Y-47998000D01*
X122637351Y-47967072D01*
X122783816Y-47906404D01*
X122915630Y-47818329D01*
X123027729Y-47706230D01*
X123115804Y-47574416D01*
X123176472Y-47427951D01*
X123207400Y-47272466D01*
X123207400Y-47113934D01*
X123176472Y-46958449D01*
X123115804Y-46811984D01*
X123027729Y-46680170D01*
X122915630Y-46568071D01*
X122900857Y-46558200D01*
X122915630Y-46548329D01*
X122918459Y-46545500D01*
X124454831Y-46545500D01*
X124485400Y-46548511D01*
X124515969Y-46545500D01*
X124515972Y-46545500D01*
X124607392Y-46536496D01*
X124724696Y-46500912D01*
X124832804Y-46443127D01*
X124927562Y-46365362D01*
X124947057Y-46341607D01*
X126529412Y-44759253D01*
X126553162Y-44739762D01*
X126592945Y-44691286D01*
X126630927Y-44645005D01*
X126644400Y-44619798D01*
X126644400Y-49032608D01*
X126616171Y-49320508D01*
X126537610Y-49580716D01*
X126410005Y-49820705D01*
X126238213Y-50031343D01*
X126028787Y-50204596D01*
X125789691Y-50333874D01*
X125530040Y-50414250D01*
X125243172Y-50444400D01*
X103367392Y-50444400D01*
X103079492Y-50416171D01*
X102819284Y-50337610D01*
X102579295Y-50210005D01*
X102368657Y-50038213D01*
X102195404Y-49828787D01*
X102066126Y-49589691D01*
X101985750Y-49330040D01*
X101955600Y-49043172D01*
X101955600Y-48921488D01*
X102045200Y-48921488D01*
X102045200Y-49178512D01*
X102095343Y-49430596D01*
X102193702Y-49668054D01*
X102336496Y-49881761D01*
X102518239Y-50063504D01*
X102731946Y-50206298D01*
X102969404Y-50304657D01*
X103221488Y-50354800D01*
X103478512Y-50354800D01*
X103730596Y-50304657D01*
X103968054Y-50206298D01*
X104181761Y-50063504D01*
X104363504Y-49881761D01*
X104506298Y-49668054D01*
X104604657Y-49430596D01*
X104654800Y-49178512D01*
X104654800Y-48921488D01*
X104604657Y-48669404D01*
X104506298Y-48431946D01*
X104363504Y-48218239D01*
X104181761Y-48036496D01*
X103968054Y-47893702D01*
X103730596Y-47795343D01*
X103478512Y-47745200D01*
X103221488Y-47745200D01*
X102969404Y-47795343D01*
X102731946Y-47893702D01*
X102518239Y-48036496D01*
X102336496Y-48218239D01*
X102193702Y-48431946D01*
X102095343Y-48669404D01*
X102045200Y-48921488D01*
X101955600Y-48921488D01*
X101955600Y-47154019D01*
X105540600Y-47154019D01*
X105540600Y-47258381D01*
X105560960Y-47360737D01*
X105600898Y-47457154D01*
X105658878Y-47543928D01*
X105732672Y-47617722D01*
X105819446Y-47675702D01*
X105915863Y-47715640D01*
X106018219Y-47736000D01*
X106122581Y-47736000D01*
X106224937Y-47715640D01*
X106321354Y-47675702D01*
X106408128Y-47617722D01*
X106481922Y-47543928D01*
X106539902Y-47457154D01*
X106579840Y-47360737D01*
X106600200Y-47258381D01*
X106600200Y-47154019D01*
X106579840Y-47051663D01*
X106539902Y-46955246D01*
X106481922Y-46868472D01*
X106408128Y-46794678D01*
X106321354Y-46736698D01*
X106224937Y-46696760D01*
X106122581Y-46676400D01*
X106018219Y-46676400D01*
X105915863Y-46696760D01*
X105819446Y-46736698D01*
X105732672Y-46794678D01*
X105658878Y-46868472D01*
X105600898Y-46955246D01*
X105560960Y-47051663D01*
X105540600Y-47154019D01*
X101955600Y-47154019D01*
X101955600Y-39521019D01*
X102035400Y-39521019D01*
X102035400Y-39625381D01*
X102055760Y-39727737D01*
X102095698Y-39824154D01*
X102153678Y-39910928D01*
X102227472Y-39984722D01*
X102314246Y-40042702D01*
X102410663Y-40082640D01*
X102513019Y-40103000D01*
X102535212Y-40103000D01*
X102519676Y-40118536D01*
X102498358Y-40136031D01*
X102461109Y-40181419D01*
X102428528Y-40221120D01*
X102376639Y-40318197D01*
X102344687Y-40423530D01*
X102333897Y-40533074D01*
X102336601Y-40560526D01*
X102336600Y-44295558D01*
X102333897Y-44323000D01*
X102336600Y-44350442D01*
X102336600Y-44350443D01*
X102344686Y-44432543D01*
X102376639Y-44537877D01*
X102428527Y-44634954D01*
X102498357Y-44720043D01*
X102519681Y-44737543D01*
X103674662Y-45892525D01*
X103692157Y-45913843D01*
X103777246Y-45983673D01*
X103874322Y-46035561D01*
X103979656Y-46067514D01*
X104061756Y-46075600D01*
X104061757Y-46075600D01*
X104089199Y-46078303D01*
X104116641Y-46075600D01*
X106579295Y-46075600D01*
X106611436Y-46097076D01*
X106730602Y-46146436D01*
X106857108Y-46171600D01*
X106986092Y-46171600D01*
X107112598Y-46146436D01*
X107231764Y-46097076D01*
X107263905Y-46075600D01*
X109681467Y-46075600D01*
X109562903Y-46172903D01*
X109399849Y-46371586D01*
X109278690Y-46598260D01*
X109204080Y-46844216D01*
X109185200Y-47035905D01*
X109185201Y-49164096D01*
X109204081Y-49355785D01*
X109278691Y-49601741D01*
X109399850Y-49828415D01*
X109562904Y-50027097D01*
X109761586Y-50190151D01*
X109988260Y-50311310D01*
X110234216Y-50385920D01*
X110490000Y-50411113D01*
X110745785Y-50385920D01*
X110991741Y-50311310D01*
X111218415Y-50190151D01*
X111417097Y-50027097D01*
X111580151Y-49828415D01*
X111701310Y-49601741D01*
X111775920Y-49355785D01*
X111794800Y-49164096D01*
X111794800Y-47035904D01*
X111775920Y-46844215D01*
X111701310Y-46598259D01*
X111580151Y-46371585D01*
X111417097Y-46172903D01*
X111298532Y-46075600D01*
X111516958Y-46075600D01*
X111544400Y-46078303D01*
X111571842Y-46075600D01*
X111571844Y-46075600D01*
X111653944Y-46067514D01*
X111759278Y-46035561D01*
X111856354Y-45983673D01*
X111941443Y-45913843D01*
X111958942Y-45892520D01*
X112017600Y-45833862D01*
X112017600Y-45848381D01*
X112037960Y-45950737D01*
X112077898Y-46047154D01*
X112135878Y-46133928D01*
X112209672Y-46207722D01*
X112296446Y-46265702D01*
X112392863Y-46305640D01*
X112495219Y-46326000D01*
X112599581Y-46326000D01*
X112701937Y-46305640D01*
X112798354Y-46265702D01*
X112885128Y-46207722D01*
X112958922Y-46133928D01*
X113016902Y-46047154D01*
X113056840Y-45950737D01*
X113077200Y-45848381D01*
X113077200Y-45783063D01*
X113106201Y-45812063D01*
X113106200Y-46569158D01*
X113103497Y-46596600D01*
X113106200Y-46624042D01*
X113106200Y-46624043D01*
X113114286Y-46706143D01*
X113146239Y-46811477D01*
X113198127Y-46908554D01*
X113267957Y-46993643D01*
X113289281Y-47011143D01*
X113669601Y-47391463D01*
X113586663Y-47407960D01*
X113490246Y-47447898D01*
X113403472Y-47505878D01*
X113329678Y-47579672D01*
X113271698Y-47666446D01*
X113231760Y-47762863D01*
X113211400Y-47865219D01*
X113211400Y-47969581D01*
X113231760Y-48071937D01*
X113271698Y-48168354D01*
X113329678Y-48255128D01*
X113403472Y-48328922D01*
X113490246Y-48386902D01*
X113586663Y-48426840D01*
X113689019Y-48447200D01*
X113733013Y-48447200D01*
X113707040Y-48495794D01*
X113689611Y-48553249D01*
X113683726Y-48613000D01*
X113683726Y-49613000D01*
X113689611Y-49672751D01*
X113707040Y-49730206D01*
X113735342Y-49783157D01*
X113773432Y-49829568D01*
X113819843Y-49867658D01*
X113872794Y-49895960D01*
X113930249Y-49913389D01*
X113990000Y-49919274D01*
X114990000Y-49919274D01*
X115049751Y-49913389D01*
X115107206Y-49895960D01*
X115160157Y-49867658D01*
X115206568Y-49829568D01*
X115244658Y-49783157D01*
X115263000Y-49748840D01*
X115378784Y-49826204D01*
X115525249Y-49886872D01*
X115680734Y-49917800D01*
X115839266Y-49917800D01*
X115994751Y-49886872D01*
X116141216Y-49826204D01*
X116273030Y-49738129D01*
X116385129Y-49626030D01*
X116473204Y-49494216D01*
X116533872Y-49347751D01*
X116564800Y-49192266D01*
X116564800Y-49033734D01*
X116542473Y-48921488D01*
X123945200Y-48921488D01*
X123945200Y-49178512D01*
X123995343Y-49430596D01*
X124093702Y-49668054D01*
X124236496Y-49881761D01*
X124418239Y-50063504D01*
X124631946Y-50206298D01*
X124869404Y-50304657D01*
X125121488Y-50354800D01*
X125378512Y-50354800D01*
X125630596Y-50304657D01*
X125868054Y-50206298D01*
X126081761Y-50063504D01*
X126263504Y-49881761D01*
X126406298Y-49668054D01*
X126504657Y-49430596D01*
X126554800Y-49178512D01*
X126554800Y-48921488D01*
X126504657Y-48669404D01*
X126406298Y-48431946D01*
X126263504Y-48218239D01*
X126081761Y-48036496D01*
X125868054Y-47893702D01*
X125630596Y-47795343D01*
X125378512Y-47745200D01*
X125121488Y-47745200D01*
X124869404Y-47795343D01*
X124631946Y-47893702D01*
X124418239Y-48036496D01*
X124236496Y-48218239D01*
X124093702Y-48431946D01*
X123995343Y-48669404D01*
X123945200Y-48921488D01*
X116542473Y-48921488D01*
X116533872Y-48878249D01*
X116473204Y-48731784D01*
X116385129Y-48599970D01*
X116273030Y-48487871D01*
X116141216Y-48399796D01*
X115994751Y-48339128D01*
X115956025Y-48331425D01*
X115956122Y-48331328D01*
X116014102Y-48244554D01*
X116054040Y-48148137D01*
X116074400Y-48045781D01*
X116074400Y-47941419D01*
X116054040Y-47839063D01*
X116014102Y-47742646D01*
X115956122Y-47655872D01*
X115882328Y-47582078D01*
X115795554Y-47524098D01*
X115699137Y-47484160D01*
X115596781Y-47463800D01*
X115492419Y-47463800D01*
X115390063Y-47484160D01*
X115293646Y-47524098D01*
X115206872Y-47582078D01*
X115133078Y-47655872D01*
X115075098Y-47742646D01*
X115035160Y-47839063D01*
X115014800Y-47941419D01*
X115014800Y-48045781D01*
X115035160Y-48148137D01*
X115075098Y-48244554D01*
X115133078Y-48331328D01*
X115160017Y-48358267D01*
X115107206Y-48330040D01*
X115049751Y-48312611D01*
X114990000Y-48306726D01*
X114101124Y-48306726D01*
X114152722Y-48255128D01*
X114210702Y-48168354D01*
X114250640Y-48071937D01*
X114271000Y-47969581D01*
X114271000Y-47865219D01*
X114250640Y-47762863D01*
X114210702Y-47666446D01*
X114191695Y-47638000D01*
X114805958Y-47638000D01*
X114833400Y-47640703D01*
X114860842Y-47638000D01*
X114860844Y-47638000D01*
X114942944Y-47629914D01*
X115048278Y-47597961D01*
X115145354Y-47546073D01*
X115230443Y-47476243D01*
X115247943Y-47454919D01*
X116834725Y-45868138D01*
X116836190Y-45866936D01*
X116853098Y-45907754D01*
X116911078Y-45994528D01*
X116984872Y-46068322D01*
X117071646Y-46126302D01*
X117168063Y-46166240D01*
X117270419Y-46186600D01*
X117374781Y-46186600D01*
X117477137Y-46166240D01*
X117573554Y-46126302D01*
X117660328Y-46068322D01*
X117734122Y-45994528D01*
X117792102Y-45907754D01*
X117832040Y-45811337D01*
X117852400Y-45708981D01*
X117852400Y-45604619D01*
X117832040Y-45502263D01*
X117792102Y-45405846D01*
X117734122Y-45319072D01*
X117660328Y-45245278D01*
X117573554Y-45187298D01*
X117477137Y-45147360D01*
X117374781Y-45127000D01*
X117270419Y-45127000D01*
X117168063Y-45147360D01*
X117071646Y-45187298D01*
X117017800Y-45223276D01*
X117017800Y-44067619D01*
X119409000Y-44067619D01*
X119409000Y-44171981D01*
X119429360Y-44274337D01*
X119469298Y-44370754D01*
X119527278Y-44457528D01*
X119601072Y-44531322D01*
X119687846Y-44589302D01*
X119784263Y-44629240D01*
X119886619Y-44649600D01*
X119990981Y-44649600D01*
X120093337Y-44629240D01*
X120189754Y-44589302D01*
X120276528Y-44531322D01*
X120350322Y-44457528D01*
X120408302Y-44370754D01*
X120448240Y-44274337D01*
X120468600Y-44171981D01*
X120468600Y-44067619D01*
X120448240Y-43965263D01*
X120408302Y-43868846D01*
X120350322Y-43782072D01*
X120276528Y-43708278D01*
X120189754Y-43650298D01*
X120105766Y-43615508D01*
X121265200Y-43615508D01*
X121265200Y-43744492D01*
X121290364Y-43870998D01*
X121339724Y-43990164D01*
X121411384Y-44097410D01*
X121502590Y-44188616D01*
X121609836Y-44260276D01*
X121729002Y-44309636D01*
X121855508Y-44334800D01*
X121984492Y-44334800D01*
X122110998Y-44309636D01*
X122230164Y-44260276D01*
X122337410Y-44188616D01*
X122428616Y-44097410D01*
X122500276Y-43990164D01*
X122549636Y-43870998D01*
X122555000Y-43844032D01*
X122560364Y-43870998D01*
X122609724Y-43990164D01*
X122681384Y-44097410D01*
X122772590Y-44188616D01*
X122879836Y-44260276D01*
X122999002Y-44309636D01*
X123125508Y-44334800D01*
X123254492Y-44334800D01*
X123380998Y-44309636D01*
X123500164Y-44260276D01*
X123607410Y-44188616D01*
X123698616Y-44097410D01*
X123770276Y-43990164D01*
X123819636Y-43870998D01*
X123825000Y-43844032D01*
X123830364Y-43870998D01*
X123879724Y-43990164D01*
X123951384Y-44097410D01*
X124042590Y-44188616D01*
X124149836Y-44260276D01*
X124269002Y-44309636D01*
X124395508Y-44334800D01*
X124524492Y-44334800D01*
X124650998Y-44309636D01*
X124770164Y-44260276D01*
X124877410Y-44188616D01*
X124968616Y-44097410D01*
X125040276Y-43990164D01*
X125089636Y-43870998D01*
X125114800Y-43744492D01*
X125114800Y-43615508D01*
X125089636Y-43489002D01*
X125040276Y-43369836D01*
X124968616Y-43262590D01*
X124877410Y-43171384D01*
X124770164Y-43099724D01*
X124650998Y-43050364D01*
X124524492Y-43025200D01*
X124395508Y-43025200D01*
X124269002Y-43050364D01*
X124149836Y-43099724D01*
X124042590Y-43171384D01*
X123951384Y-43262590D01*
X123879724Y-43369836D01*
X123830364Y-43489002D01*
X123825000Y-43515968D01*
X123819636Y-43489002D01*
X123770276Y-43369836D01*
X123698616Y-43262590D01*
X123607410Y-43171384D01*
X123500164Y-43099724D01*
X123380998Y-43050364D01*
X123254492Y-43025200D01*
X123125508Y-43025200D01*
X122999002Y-43050364D01*
X122879836Y-43099724D01*
X122772590Y-43171384D01*
X122681384Y-43262590D01*
X122609724Y-43369836D01*
X122560364Y-43489002D01*
X122555000Y-43515968D01*
X122549636Y-43489002D01*
X122500276Y-43369836D01*
X122428616Y-43262590D01*
X122337410Y-43171384D01*
X122230164Y-43099724D01*
X122110998Y-43050364D01*
X121984492Y-43025200D01*
X121855508Y-43025200D01*
X121729002Y-43050364D01*
X121609836Y-43099724D01*
X121502590Y-43171384D01*
X121411384Y-43262590D01*
X121339724Y-43369836D01*
X121290364Y-43489002D01*
X121265200Y-43615508D01*
X120105766Y-43615508D01*
X120093337Y-43610360D01*
X119990981Y-43590000D01*
X119886619Y-43590000D01*
X119784263Y-43610360D01*
X119687846Y-43650298D01*
X119601072Y-43708278D01*
X119527278Y-43782072D01*
X119469298Y-43868846D01*
X119429360Y-43965263D01*
X119409000Y-44067619D01*
X117017800Y-44067619D01*
X117017800Y-43736756D01*
X117009714Y-43654656D01*
X116977761Y-43549322D01*
X116925873Y-43452246D01*
X116856043Y-43367157D01*
X116770954Y-43297327D01*
X116673877Y-43245439D01*
X116568543Y-43213486D01*
X116531002Y-43209789D01*
X116531600Y-43206781D01*
X116531600Y-43102419D01*
X116511240Y-43000063D01*
X116471302Y-42903646D01*
X116413322Y-42816872D01*
X116339528Y-42743078D01*
X116252754Y-42685098D01*
X116156337Y-42645160D01*
X116053981Y-42624800D01*
X115949619Y-42624800D01*
X115847263Y-42645160D01*
X115750846Y-42685098D01*
X115664072Y-42743078D01*
X115590278Y-42816872D01*
X115532298Y-42903646D01*
X115492360Y-43000063D01*
X115472000Y-43102419D01*
X115472000Y-43206781D01*
X115492360Y-43309137D01*
X115532298Y-43405554D01*
X115590278Y-43492328D01*
X115664072Y-43566122D01*
X115750846Y-43624102D01*
X115847263Y-43664040D01*
X115906207Y-43675765D01*
X115900200Y-43736757D01*
X115900201Y-45222136D01*
X114601938Y-46520400D01*
X114379062Y-46520400D01*
X114223800Y-46365138D01*
X114223800Y-45608044D01*
X114226503Y-45580600D01*
X114215714Y-45471056D01*
X114183761Y-45365722D01*
X114131873Y-45268646D01*
X114119068Y-45253043D01*
X114062043Y-45183557D01*
X114040724Y-45166061D01*
X113520743Y-44646080D01*
X113503243Y-44624757D01*
X113418154Y-44554927D01*
X113321078Y-44503039D01*
X113215744Y-44471086D01*
X113133644Y-44463000D01*
X113133642Y-44463000D01*
X113106200Y-44460297D01*
X113078758Y-44463000D01*
X112066844Y-44463000D01*
X112039400Y-44460297D01*
X111929855Y-44471086D01*
X111824522Y-44503039D01*
X111727445Y-44554927D01*
X111712313Y-44567346D01*
X111642357Y-44624757D01*
X111624861Y-44646076D01*
X111312938Y-44958000D01*
X109438565Y-44958000D01*
X109506928Y-44912322D01*
X109580722Y-44838528D01*
X109638702Y-44751754D01*
X109678640Y-44655337D01*
X109699000Y-44552981D01*
X109699000Y-44448619D01*
X109678640Y-44346263D01*
X109638702Y-44249846D01*
X109580722Y-44163072D01*
X109506928Y-44089278D01*
X109420154Y-44031298D01*
X109323737Y-43991360D01*
X109221381Y-43971000D01*
X109117019Y-43971000D01*
X109014663Y-43991360D01*
X108918246Y-44031298D01*
X108831472Y-44089278D01*
X108757678Y-44163072D01*
X108699698Y-44249846D01*
X108659760Y-44346263D01*
X108639400Y-44448619D01*
X108639400Y-44552981D01*
X108659760Y-44655337D01*
X108699698Y-44751754D01*
X108757678Y-44838528D01*
X108831472Y-44912322D01*
X108899835Y-44958000D01*
X107263905Y-44958000D01*
X107231764Y-44936524D01*
X107112598Y-44887164D01*
X106986092Y-44862000D01*
X106857108Y-44862000D01*
X106730602Y-44887164D01*
X106611436Y-44936524D01*
X106579295Y-44958000D01*
X105350891Y-44958000D01*
X105368300Y-44870481D01*
X105368300Y-44766119D01*
X105347940Y-44663763D01*
X105308002Y-44567346D01*
X105250022Y-44480572D01*
X105176228Y-44406778D01*
X105089454Y-44348798D01*
X104993037Y-44308860D01*
X104890681Y-44288500D01*
X104786319Y-44288500D01*
X104683963Y-44308860D01*
X104587546Y-44348798D01*
X104500772Y-44406778D01*
X104426978Y-44480572D01*
X104368998Y-44567346D01*
X104329060Y-44663763D01*
X104308700Y-44766119D01*
X104308700Y-44870481D01*
X104326109Y-44958000D01*
X104320663Y-44958000D01*
X103454200Y-44091538D01*
X103454200Y-42645219D01*
X105337400Y-42645219D01*
X105337400Y-42749581D01*
X105357760Y-42851937D01*
X105397698Y-42948354D01*
X105455678Y-43035128D01*
X105529472Y-43108922D01*
X105616246Y-43166902D01*
X105712663Y-43206840D01*
X105815019Y-43227200D01*
X105919381Y-43227200D01*
X106021737Y-43206840D01*
X106118154Y-43166902D01*
X106204928Y-43108922D01*
X106278722Y-43035128D01*
X106336702Y-42948354D01*
X106376640Y-42851937D01*
X106397000Y-42749581D01*
X106397000Y-42645219D01*
X106376640Y-42542863D01*
X106336702Y-42446446D01*
X106278722Y-42359672D01*
X106204928Y-42285878D01*
X106118154Y-42227898D01*
X106021737Y-42187960D01*
X105919381Y-42167600D01*
X105815019Y-42167600D01*
X105712663Y-42187960D01*
X105616246Y-42227898D01*
X105529472Y-42285878D01*
X105455678Y-42359672D01*
X105397698Y-42446446D01*
X105357760Y-42542863D01*
X105337400Y-42645219D01*
X103454200Y-42645219D01*
X103454200Y-40764536D01*
X103757318Y-40461418D01*
X103778642Y-40443918D01*
X103848472Y-40358829D01*
X103900360Y-40261753D01*
X103924729Y-40181419D01*
X106277200Y-40181419D01*
X106277200Y-40285781D01*
X106297560Y-40388137D01*
X106337498Y-40484554D01*
X106395478Y-40571328D01*
X106469272Y-40645122D01*
X106556046Y-40703102D01*
X106652463Y-40743040D01*
X106754819Y-40763400D01*
X106859181Y-40763400D01*
X106908600Y-40753570D01*
X106908601Y-42399280D01*
X106906757Y-42418000D01*
X106914114Y-42492688D01*
X106935899Y-42564507D01*
X106971278Y-42630696D01*
X107000610Y-42666437D01*
X107018890Y-42688711D01*
X107033427Y-42700641D01*
X107852000Y-43519215D01*
X107852000Y-43562381D01*
X107872360Y-43664737D01*
X107912298Y-43761154D01*
X107970278Y-43847928D01*
X108044072Y-43921722D01*
X108130846Y-43979702D01*
X108227263Y-44019640D01*
X108329619Y-44040000D01*
X108433981Y-44040000D01*
X108536337Y-44019640D01*
X108632754Y-43979702D01*
X108719528Y-43921722D01*
X108793322Y-43847928D01*
X108851302Y-43761154D01*
X108891240Y-43664737D01*
X108911600Y-43562381D01*
X108911600Y-43458019D01*
X108891240Y-43355663D01*
X108851302Y-43259246D01*
X108793322Y-43172472D01*
X108719528Y-43098678D01*
X108632754Y-43040698D01*
X108536337Y-43000760D01*
X108433981Y-42980400D01*
X108390815Y-42980400D01*
X107670600Y-42260186D01*
X107670600Y-41095819D01*
X107674198Y-41095819D01*
X107674198Y-41200181D01*
X107694558Y-41302537D01*
X107734496Y-41398954D01*
X107792476Y-41485728D01*
X107866270Y-41559522D01*
X107953044Y-41617502D01*
X108049461Y-41657440D01*
X108151817Y-41677800D01*
X108186262Y-41677800D01*
X108202560Y-41759737D01*
X108242498Y-41856154D01*
X108300478Y-41942928D01*
X108374272Y-42016722D01*
X108461046Y-42074702D01*
X108557463Y-42114640D01*
X108659819Y-42135000D01*
X108764181Y-42135000D01*
X108866537Y-42114640D01*
X108962954Y-42074702D01*
X109049728Y-42016722D01*
X109123522Y-41942928D01*
X109181502Y-41856154D01*
X109221440Y-41759737D01*
X109232686Y-41703200D01*
X109297581Y-41703200D01*
X109399937Y-41682840D01*
X109496354Y-41642902D01*
X109583128Y-41584922D01*
X109656922Y-41511128D01*
X109714902Y-41424354D01*
X109724733Y-41400619D01*
X110722200Y-41400619D01*
X110722200Y-41504981D01*
X110742560Y-41607337D01*
X110782498Y-41703754D01*
X110840478Y-41790528D01*
X110914272Y-41864322D01*
X111001046Y-41922302D01*
X111097463Y-41962240D01*
X111199819Y-41982600D01*
X111304181Y-41982600D01*
X111406537Y-41962240D01*
X111502954Y-41922302D01*
X111589728Y-41864322D01*
X111663522Y-41790528D01*
X111721502Y-41703754D01*
X111727807Y-41688531D01*
X112762712Y-41688531D01*
X112762712Y-41792893D01*
X112783072Y-41895249D01*
X112823010Y-41991666D01*
X112880990Y-42078440D01*
X112954784Y-42152234D01*
X113041558Y-42210214D01*
X113137975Y-42250152D01*
X113240331Y-42270512D01*
X113344693Y-42270512D01*
X113447049Y-42250152D01*
X113543466Y-42210214D01*
X113630240Y-42152234D01*
X113704034Y-42078440D01*
X113762014Y-41991666D01*
X113801952Y-41895249D01*
X113822312Y-41792893D01*
X113822312Y-41688531D01*
X113801952Y-41586175D01*
X113762014Y-41489758D01*
X113704034Y-41402984D01*
X113630240Y-41329190D01*
X113543466Y-41271210D01*
X113447049Y-41231272D01*
X113344693Y-41210912D01*
X113240331Y-41210912D01*
X113137975Y-41231272D01*
X113041558Y-41271210D01*
X112954784Y-41329190D01*
X112880990Y-41402984D01*
X112823010Y-41489758D01*
X112783072Y-41586175D01*
X112762712Y-41688531D01*
X111727807Y-41688531D01*
X111761440Y-41607337D01*
X111781800Y-41504981D01*
X111781800Y-41400619D01*
X111761440Y-41298263D01*
X111721502Y-41201846D01*
X111684601Y-41146619D01*
X117808801Y-41146619D01*
X117808801Y-41250981D01*
X117829161Y-41353337D01*
X117869099Y-41449754D01*
X117927079Y-41536528D01*
X118000873Y-41610322D01*
X118087647Y-41668302D01*
X118184064Y-41708240D01*
X118286420Y-41728600D01*
X118390782Y-41728600D01*
X118493138Y-41708240D01*
X118589555Y-41668302D01*
X118676329Y-41610322D01*
X118750123Y-41536528D01*
X118808103Y-41449754D01*
X118848041Y-41353337D01*
X118868401Y-41250981D01*
X118868401Y-41146619D01*
X118848041Y-41044263D01*
X118808103Y-40947846D01*
X118750123Y-40861072D01*
X118676329Y-40787278D01*
X118589555Y-40729298D01*
X118493138Y-40689360D01*
X118390782Y-40669000D01*
X118286420Y-40669000D01*
X118184064Y-40689360D01*
X118087647Y-40729298D01*
X118000873Y-40787278D01*
X117927079Y-40861072D01*
X117869099Y-40947846D01*
X117829161Y-41044263D01*
X117808801Y-41146619D01*
X111684601Y-41146619D01*
X111663522Y-41115072D01*
X111589728Y-41041278D01*
X111502954Y-40983298D01*
X111406537Y-40943360D01*
X111304181Y-40923000D01*
X111199819Y-40923000D01*
X111097463Y-40943360D01*
X111001046Y-40983298D01*
X110914272Y-41041278D01*
X110840478Y-41115072D01*
X110782498Y-41201846D01*
X110742560Y-41298263D01*
X110722200Y-41400619D01*
X109724733Y-41400619D01*
X109754840Y-41327937D01*
X109775200Y-41225581D01*
X109775200Y-41121219D01*
X109754840Y-41018863D01*
X109714902Y-40922446D01*
X109656922Y-40835672D01*
X109583128Y-40761878D01*
X109496354Y-40703898D01*
X109399937Y-40663960D01*
X109297581Y-40643600D01*
X109193219Y-40643600D01*
X109090863Y-40663960D01*
X108994446Y-40703898D01*
X108907672Y-40761878D01*
X108833878Y-40835672D01*
X108775898Y-40922446D01*
X108735960Y-41018863D01*
X108727225Y-41062776D01*
X108713438Y-40993463D01*
X108673500Y-40897046D01*
X108615520Y-40810272D01*
X108541726Y-40736478D01*
X108454952Y-40678498D01*
X108358535Y-40638560D01*
X108256179Y-40618200D01*
X108151817Y-40618200D01*
X108049461Y-40638560D01*
X107953044Y-40678498D01*
X107866270Y-40736478D01*
X107792476Y-40810272D01*
X107734496Y-40897046D01*
X107694558Y-40993463D01*
X107674198Y-41095819D01*
X107670600Y-41095819D01*
X107670600Y-40017650D01*
X107701122Y-39987128D01*
X107759102Y-39900354D01*
X107799040Y-39803937D01*
X107819400Y-39701581D01*
X107819400Y-39597219D01*
X107799040Y-39494863D01*
X107759102Y-39398446D01*
X107747859Y-39381619D01*
X108639400Y-39381619D01*
X108639400Y-39485981D01*
X108659760Y-39588337D01*
X108699698Y-39684754D01*
X108757678Y-39771528D01*
X108831472Y-39845322D01*
X108918246Y-39903302D01*
X109014663Y-39943240D01*
X109117019Y-39963600D01*
X109221381Y-39963600D01*
X109323737Y-39943240D01*
X109420154Y-39903302D01*
X109506928Y-39845322D01*
X109580722Y-39771528D01*
X109638702Y-39684754D01*
X109678640Y-39588337D01*
X109699000Y-39485981D01*
X109699000Y-39381619D01*
X109693948Y-39356219D01*
X109960200Y-39356219D01*
X109960200Y-39460581D01*
X109980560Y-39562937D01*
X110020498Y-39659354D01*
X110078478Y-39746128D01*
X110152272Y-39819922D01*
X110239046Y-39877902D01*
X110335463Y-39917840D01*
X110437819Y-39938200D01*
X110542181Y-39938200D01*
X110644537Y-39917840D01*
X110740954Y-39877902D01*
X110827728Y-39819922D01*
X110901522Y-39746128D01*
X110959502Y-39659354D01*
X110999440Y-39562937D01*
X111019800Y-39460581D01*
X111019800Y-39356219D01*
X111255600Y-39356219D01*
X111255600Y-39460581D01*
X111275960Y-39562937D01*
X111315898Y-39659354D01*
X111373878Y-39746128D01*
X111447672Y-39819922D01*
X111534446Y-39877902D01*
X111630863Y-39917840D01*
X111733219Y-39938200D01*
X111837581Y-39938200D01*
X111939937Y-39917840D01*
X112036354Y-39877902D01*
X112123128Y-39819922D01*
X112196922Y-39746128D01*
X112254902Y-39659354D01*
X112294840Y-39562937D01*
X112315200Y-39460581D01*
X112315200Y-39356219D01*
X112294840Y-39253863D01*
X112254902Y-39157446D01*
X112196922Y-39070672D01*
X112123128Y-38996878D01*
X112036354Y-38938898D01*
X111939937Y-38898960D01*
X111837581Y-38878600D01*
X111733219Y-38878600D01*
X111630863Y-38898960D01*
X111534446Y-38938898D01*
X111447672Y-38996878D01*
X111373878Y-39070672D01*
X111315898Y-39157446D01*
X111275960Y-39253863D01*
X111255600Y-39356219D01*
X111019800Y-39356219D01*
X110999440Y-39253863D01*
X110959502Y-39157446D01*
X110901522Y-39070672D01*
X110827728Y-38996878D01*
X110740954Y-38938898D01*
X110644537Y-38898960D01*
X110542181Y-38878600D01*
X110437819Y-38878600D01*
X110335463Y-38898960D01*
X110239046Y-38938898D01*
X110152272Y-38996878D01*
X110078478Y-39070672D01*
X110020498Y-39157446D01*
X109980560Y-39253863D01*
X109960200Y-39356219D01*
X109693948Y-39356219D01*
X109678640Y-39279263D01*
X109638702Y-39182846D01*
X109580722Y-39096072D01*
X109506928Y-39022278D01*
X109420154Y-38964298D01*
X109323737Y-38924360D01*
X109221381Y-38904000D01*
X109117019Y-38904000D01*
X109014663Y-38924360D01*
X108918246Y-38964298D01*
X108831472Y-39022278D01*
X108757678Y-39096072D01*
X108699698Y-39182846D01*
X108659760Y-39279263D01*
X108639400Y-39381619D01*
X107747859Y-39381619D01*
X107701122Y-39311672D01*
X107627328Y-39237878D01*
X107540554Y-39179898D01*
X107444137Y-39139960D01*
X107341781Y-39119600D01*
X107237419Y-39119600D01*
X107135063Y-39139960D01*
X107038646Y-39179898D01*
X106951872Y-39237878D01*
X106878078Y-39311672D01*
X106820098Y-39398446D01*
X106780160Y-39494863D01*
X106759800Y-39597219D01*
X106759800Y-39701581D01*
X106760241Y-39703800D01*
X106754819Y-39703800D01*
X106652463Y-39724160D01*
X106556046Y-39764098D01*
X106469272Y-39822078D01*
X106395478Y-39895872D01*
X106337498Y-39982646D01*
X106297560Y-40079063D01*
X106277200Y-40181419D01*
X103924729Y-40181419D01*
X103932313Y-40156419D01*
X103940399Y-40074319D01*
X103940399Y-40074318D01*
X103943102Y-40046876D01*
X103940399Y-40019434D01*
X103940399Y-38505663D01*
X104134719Y-38311343D01*
X104156043Y-38293843D01*
X104190054Y-38252400D01*
X106972150Y-38252400D01*
X106977272Y-38257522D01*
X107064046Y-38315502D01*
X107160463Y-38355440D01*
X107262819Y-38375800D01*
X107367181Y-38375800D01*
X107469537Y-38355440D01*
X107565954Y-38315502D01*
X107652728Y-38257522D01*
X107726522Y-38183728D01*
X107784502Y-38096954D01*
X107809991Y-38035419D01*
X109960200Y-38035419D01*
X109960200Y-38139781D01*
X109980560Y-38242137D01*
X110020498Y-38338554D01*
X110078478Y-38425328D01*
X110152272Y-38499122D01*
X110239046Y-38557102D01*
X110335463Y-38597040D01*
X110437819Y-38617400D01*
X110542181Y-38617400D01*
X110644537Y-38597040D01*
X110740954Y-38557102D01*
X110827728Y-38499122D01*
X110901522Y-38425328D01*
X110959502Y-38338554D01*
X110999440Y-38242137D01*
X111019800Y-38139781D01*
X111019800Y-38035419D01*
X111255600Y-38035419D01*
X111255600Y-38139781D01*
X111275960Y-38242137D01*
X111315898Y-38338554D01*
X111373878Y-38425328D01*
X111447672Y-38499122D01*
X111534446Y-38557102D01*
X111630863Y-38597040D01*
X111733219Y-38617400D01*
X111837581Y-38617400D01*
X111939937Y-38597040D01*
X112036354Y-38557102D01*
X112123128Y-38499122D01*
X112196922Y-38425328D01*
X112254902Y-38338554D01*
X112294840Y-38242137D01*
X112315200Y-38139781D01*
X112315200Y-38035419D01*
X112294840Y-37933063D01*
X112254902Y-37836646D01*
X112196922Y-37749872D01*
X112123128Y-37676078D01*
X112036354Y-37618098D01*
X111939937Y-37578160D01*
X111837581Y-37557800D01*
X111733219Y-37557800D01*
X111630863Y-37578160D01*
X111534446Y-37618098D01*
X111447672Y-37676078D01*
X111373878Y-37749872D01*
X111315898Y-37836646D01*
X111275960Y-37933063D01*
X111255600Y-38035419D01*
X111019800Y-38035419D01*
X110999440Y-37933063D01*
X110959502Y-37836646D01*
X110901522Y-37749872D01*
X110827728Y-37676078D01*
X110740954Y-37618098D01*
X110644537Y-37578160D01*
X110542181Y-37557800D01*
X110437819Y-37557800D01*
X110335463Y-37578160D01*
X110239046Y-37618098D01*
X110152272Y-37676078D01*
X110078478Y-37749872D01*
X110020498Y-37836646D01*
X109980560Y-37933063D01*
X109960200Y-38035419D01*
X107809991Y-38035419D01*
X107824440Y-38000537D01*
X107844800Y-37898181D01*
X107844800Y-37793819D01*
X107824440Y-37691463D01*
X107784502Y-37595046D01*
X107726522Y-37508272D01*
X107652728Y-37434478D01*
X107565954Y-37376498D01*
X107469537Y-37336560D01*
X107367181Y-37316200D01*
X107262819Y-37316200D01*
X107160463Y-37336560D01*
X107064046Y-37376498D01*
X106977272Y-37434478D01*
X106972150Y-37439600D01*
X104082741Y-37439600D01*
X104081136Y-37438283D01*
X104147528Y-37393922D01*
X104221322Y-37320128D01*
X104279302Y-37233354D01*
X104319240Y-37136937D01*
X104339600Y-37034581D01*
X104339600Y-36930219D01*
X104319240Y-36827863D01*
X104293375Y-36765419D01*
X108664800Y-36765419D01*
X108664800Y-36869781D01*
X108685160Y-36972137D01*
X108725098Y-37068554D01*
X108783078Y-37155328D01*
X108856872Y-37229122D01*
X108943646Y-37287102D01*
X109040063Y-37327040D01*
X109142419Y-37347400D01*
X109246781Y-37347400D01*
X109349137Y-37327040D01*
X109445554Y-37287102D01*
X109532328Y-37229122D01*
X109606122Y-37155328D01*
X109664102Y-37068554D01*
X109704040Y-36972137D01*
X109724400Y-36869781D01*
X109724400Y-36765419D01*
X111255600Y-36765419D01*
X111255600Y-36869781D01*
X111275960Y-36972137D01*
X111315898Y-37068554D01*
X111373878Y-37155328D01*
X111447672Y-37229122D01*
X111534446Y-37287102D01*
X111630863Y-37327040D01*
X111733219Y-37347400D01*
X111837581Y-37347400D01*
X111939937Y-37327040D01*
X112036354Y-37287102D01*
X112123128Y-37229122D01*
X112196922Y-37155328D01*
X112254902Y-37068554D01*
X112294840Y-36972137D01*
X112315200Y-36869781D01*
X112315200Y-36765419D01*
X112294840Y-36663063D01*
X112254902Y-36566646D01*
X112196922Y-36479872D01*
X112123128Y-36406078D01*
X112036354Y-36348098D01*
X111939937Y-36308160D01*
X111837581Y-36287800D01*
X111733219Y-36287800D01*
X111630863Y-36308160D01*
X111534446Y-36348098D01*
X111447672Y-36406078D01*
X111373878Y-36479872D01*
X111315898Y-36566646D01*
X111275960Y-36663063D01*
X111255600Y-36765419D01*
X109724400Y-36765419D01*
X109704040Y-36663063D01*
X109664102Y-36566646D01*
X109606122Y-36479872D01*
X109532328Y-36406078D01*
X109445554Y-36348098D01*
X109349137Y-36308160D01*
X109246781Y-36287800D01*
X109142419Y-36287800D01*
X109040063Y-36308160D01*
X108943646Y-36348098D01*
X108856872Y-36406078D01*
X108783078Y-36479872D01*
X108725098Y-36566646D01*
X108685160Y-36663063D01*
X108664800Y-36765419D01*
X104293375Y-36765419D01*
X104279302Y-36731446D01*
X104221322Y-36644672D01*
X104147528Y-36570878D01*
X104060754Y-36512898D01*
X103964337Y-36472960D01*
X103926876Y-36465508D01*
X103927443Y-36465043D01*
X103997273Y-36379954D01*
X104049161Y-36282878D01*
X104081114Y-36177544D01*
X104089200Y-36095444D01*
X104089200Y-36095443D01*
X104091903Y-36068000D01*
X104089200Y-36040556D01*
X104089200Y-35939619D01*
X115446600Y-35939619D01*
X115446600Y-36043981D01*
X115466960Y-36146337D01*
X115506898Y-36242754D01*
X115564878Y-36329528D01*
X115638672Y-36403322D01*
X115725446Y-36461302D01*
X115821863Y-36501240D01*
X115924219Y-36521600D01*
X116028581Y-36521600D01*
X116130937Y-36501240D01*
X116227354Y-36461302D01*
X116314128Y-36403322D01*
X116387922Y-36329528D01*
X116445902Y-36242754D01*
X116485840Y-36146337D01*
X116506200Y-36043981D01*
X116506200Y-35939619D01*
X116485840Y-35837263D01*
X116445902Y-35740846D01*
X116387922Y-35654072D01*
X116314128Y-35580278D01*
X116227354Y-35522298D01*
X116130937Y-35482360D01*
X116028581Y-35462000D01*
X115924219Y-35462000D01*
X115821863Y-35482360D01*
X115725446Y-35522298D01*
X115638672Y-35580278D01*
X115564878Y-35654072D01*
X115506898Y-35740846D01*
X115466960Y-35837263D01*
X115446600Y-35939619D01*
X104089200Y-35939619D01*
X104089200Y-35203019D01*
X104143600Y-35203019D01*
X104143600Y-35307381D01*
X104163960Y-35409737D01*
X104203898Y-35506154D01*
X104261878Y-35592928D01*
X104335672Y-35666722D01*
X104422446Y-35724702D01*
X104518863Y-35764640D01*
X104621219Y-35785000D01*
X104725581Y-35785000D01*
X104827937Y-35764640D01*
X104924354Y-35724702D01*
X105011128Y-35666722D01*
X105084922Y-35592928D01*
X105142902Y-35506154D01*
X105182840Y-35409737D01*
X105203200Y-35307381D01*
X105203200Y-35203019D01*
X105182840Y-35100663D01*
X105142902Y-35004246D01*
X105084922Y-34917472D01*
X105011128Y-34843678D01*
X104924354Y-34785698D01*
X104827937Y-34745760D01*
X104725581Y-34725400D01*
X104621219Y-34725400D01*
X104518863Y-34745760D01*
X104422446Y-34785698D01*
X104335672Y-34843678D01*
X104261878Y-34917472D01*
X104203898Y-35004246D01*
X104163960Y-35100663D01*
X104143600Y-35203019D01*
X104089200Y-35203019D01*
X104089200Y-34466419D01*
X106632800Y-34466419D01*
X106632800Y-34570781D01*
X106653160Y-34673137D01*
X106693098Y-34769554D01*
X106751078Y-34856328D01*
X106824872Y-34930122D01*
X106911646Y-34988102D01*
X107008063Y-35028040D01*
X107064600Y-35039286D01*
X107064600Y-35082381D01*
X107084960Y-35184737D01*
X107124898Y-35281154D01*
X107182878Y-35367928D01*
X107256672Y-35441722D01*
X107343446Y-35499702D01*
X107439863Y-35539640D01*
X107542219Y-35560000D01*
X107646581Y-35560000D01*
X107748937Y-35539640D01*
X107845354Y-35499702D01*
X107932128Y-35441722D01*
X108005922Y-35367928D01*
X108063902Y-35281154D01*
X108103840Y-35184737D01*
X108124200Y-35082381D01*
X108124200Y-34978019D01*
X108103840Y-34875663D01*
X108063902Y-34779246D01*
X108005922Y-34692472D01*
X107932128Y-34618678D01*
X107856311Y-34568019D01*
X108207600Y-34568019D01*
X108207600Y-34672381D01*
X108227960Y-34774737D01*
X108267898Y-34871154D01*
X108325878Y-34957928D01*
X108399672Y-35031722D01*
X108486446Y-35089702D01*
X108582863Y-35129640D01*
X108685219Y-35150000D01*
X108724714Y-35150000D01*
X108735960Y-35206537D01*
X108775898Y-35302954D01*
X108833878Y-35389728D01*
X108907672Y-35463522D01*
X108994446Y-35521502D01*
X109090863Y-35561440D01*
X109193219Y-35581800D01*
X109297581Y-35581800D01*
X109399937Y-35561440D01*
X109496354Y-35521502D01*
X109583128Y-35463522D01*
X109656922Y-35389728D01*
X109714902Y-35302954D01*
X109741800Y-35238018D01*
X109773030Y-35313413D01*
X109831010Y-35400187D01*
X109904804Y-35473981D01*
X109991578Y-35531961D01*
X110087995Y-35571899D01*
X110190351Y-35592259D01*
X110294713Y-35592259D01*
X110397069Y-35571899D01*
X110493486Y-35531961D01*
X110580260Y-35473981D01*
X110654054Y-35400187D01*
X110712034Y-35313413D01*
X110717506Y-35300202D01*
X110821581Y-35300202D01*
X110878286Y-35288923D01*
X110884098Y-35302954D01*
X110942078Y-35389728D01*
X111015872Y-35463522D01*
X111102646Y-35521502D01*
X111199063Y-35561440D01*
X111301419Y-35581800D01*
X111405781Y-35581800D01*
X111508137Y-35561440D01*
X111604554Y-35521502D01*
X111691328Y-35463522D01*
X111765122Y-35389728D01*
X111823102Y-35302954D01*
X111863040Y-35206537D01*
X111883400Y-35104181D01*
X111883400Y-34999819D01*
X111863040Y-34897463D01*
X111823102Y-34801046D01*
X111765122Y-34714272D01*
X111691328Y-34640478D01*
X111604554Y-34582498D01*
X111508137Y-34542560D01*
X111405781Y-34522200D01*
X111301419Y-34522200D01*
X111244714Y-34533479D01*
X111238902Y-34519448D01*
X111180922Y-34432674D01*
X111107128Y-34358880D01*
X111020354Y-34300900D01*
X110923937Y-34260962D01*
X110821581Y-34240602D01*
X110717219Y-34240602D01*
X110614863Y-34260962D01*
X110518446Y-34300900D01*
X110431672Y-34358880D01*
X110357878Y-34432674D01*
X110299898Y-34519448D01*
X110294426Y-34532659D01*
X110255819Y-34532659D01*
X110237440Y-34440263D01*
X110197502Y-34343846D01*
X110139522Y-34257072D01*
X110065728Y-34183278D01*
X109978954Y-34125298D01*
X109882537Y-34085360D01*
X109780181Y-34065000D01*
X109675819Y-34065000D01*
X109573463Y-34085360D01*
X109477046Y-34125298D01*
X109390272Y-34183278D01*
X109316478Y-34257072D01*
X109258498Y-34343846D01*
X109227439Y-34418827D01*
X109206902Y-34369246D01*
X109148922Y-34282472D01*
X109075128Y-34208678D01*
X108988354Y-34150698D01*
X108891937Y-34110760D01*
X108789581Y-34090400D01*
X108685219Y-34090400D01*
X108582863Y-34110760D01*
X108486446Y-34150698D01*
X108399672Y-34208678D01*
X108325878Y-34282472D01*
X108267898Y-34369246D01*
X108227960Y-34465663D01*
X108207600Y-34568019D01*
X107856311Y-34568019D01*
X107845354Y-34560698D01*
X107748937Y-34520760D01*
X107692400Y-34509514D01*
X107692400Y-34466419D01*
X107672040Y-34364063D01*
X107632102Y-34267646D01*
X107574122Y-34180872D01*
X107500328Y-34107078D01*
X107413554Y-34049098D01*
X107317137Y-34009160D01*
X107214781Y-33988800D01*
X107110419Y-33988800D01*
X107008063Y-34009160D01*
X106911646Y-34049098D01*
X106824872Y-34107078D01*
X106751078Y-34180872D01*
X106693098Y-34267646D01*
X106653160Y-34364063D01*
X106632800Y-34466419D01*
X104089200Y-34466419D01*
X104089200Y-33645462D01*
X104258843Y-33475819D01*
X104626200Y-33475819D01*
X104626200Y-33580181D01*
X104646560Y-33682537D01*
X104686498Y-33778954D01*
X104744478Y-33865728D01*
X104818272Y-33939522D01*
X104905046Y-33997502D01*
X105001463Y-34037440D01*
X105103819Y-34057800D01*
X105208181Y-34057800D01*
X105310537Y-34037440D01*
X105406954Y-33997502D01*
X105493728Y-33939522D01*
X105524300Y-33908950D01*
X105554872Y-33939522D01*
X105641646Y-33997502D01*
X105738063Y-34037440D01*
X105840419Y-34057800D01*
X105944781Y-34057800D01*
X106047137Y-34037440D01*
X106143554Y-33997502D01*
X106230328Y-33939522D01*
X106304122Y-33865728D01*
X106362102Y-33778954D01*
X106402040Y-33682537D01*
X106422400Y-33580181D01*
X106422400Y-33475819D01*
X106402040Y-33373463D01*
X106391832Y-33348819D01*
X114506800Y-33348819D01*
X114506800Y-33453181D01*
X114527160Y-33555537D01*
X114567098Y-33651954D01*
X114625078Y-33738728D01*
X114698872Y-33812522D01*
X114785646Y-33870502D01*
X114882063Y-33910440D01*
X114984419Y-33930800D01*
X115088781Y-33930800D01*
X115191137Y-33910440D01*
X115287554Y-33870502D01*
X115374328Y-33812522D01*
X115448122Y-33738728D01*
X115506102Y-33651954D01*
X115546040Y-33555537D01*
X115566400Y-33453181D01*
X115566400Y-33348819D01*
X115546040Y-33246463D01*
X115506102Y-33150046D01*
X115448122Y-33063272D01*
X115374328Y-32989478D01*
X115287554Y-32931498D01*
X115191137Y-32891560D01*
X115088781Y-32871200D01*
X114984419Y-32871200D01*
X114882063Y-32891560D01*
X114785646Y-32931498D01*
X114698872Y-32989478D01*
X114625078Y-33063272D01*
X114567098Y-33150046D01*
X114527160Y-33246463D01*
X114506800Y-33348819D01*
X106391832Y-33348819D01*
X106362102Y-33277046D01*
X106304122Y-33190272D01*
X106230328Y-33116478D01*
X106143554Y-33058498D01*
X106047137Y-33018560D01*
X105944781Y-32998200D01*
X105840419Y-32998200D01*
X105738063Y-33018560D01*
X105641646Y-33058498D01*
X105554872Y-33116478D01*
X105524300Y-33147050D01*
X105493728Y-33116478D01*
X105406954Y-33058498D01*
X105310537Y-33018560D01*
X105208181Y-32998200D01*
X105103819Y-32998200D01*
X105001463Y-33018560D01*
X104905046Y-33058498D01*
X104818272Y-33116478D01*
X104744478Y-33190272D01*
X104686498Y-33277046D01*
X104646560Y-33373463D01*
X104626200Y-33475819D01*
X104258843Y-33475819D01*
X105701664Y-32032999D01*
X107398862Y-32032999D01*
X107394800Y-32053419D01*
X107394800Y-32157781D01*
X107415160Y-32260137D01*
X107455098Y-32356554D01*
X107513078Y-32443328D01*
X107586872Y-32517122D01*
X107673646Y-32575102D01*
X107770063Y-32615040D01*
X107872419Y-32635400D01*
X107976781Y-32635400D01*
X108079137Y-32615040D01*
X108175554Y-32575102D01*
X108262328Y-32517122D01*
X108336122Y-32443328D01*
X108356287Y-32413149D01*
X108822475Y-32879338D01*
X108822481Y-32879343D01*
X109047475Y-33104337D01*
X109111246Y-33156673D01*
X109208322Y-33208561D01*
X109313655Y-33240514D01*
X109423200Y-33251303D01*
X109532744Y-33240514D01*
X109638077Y-33208561D01*
X109735154Y-33156673D01*
X109820242Y-33086842D01*
X109890073Y-33001754D01*
X109941961Y-32904677D01*
X109973914Y-32799344D01*
X109984703Y-32689800D01*
X109973914Y-32580255D01*
X109941961Y-32474922D01*
X109890073Y-32377846D01*
X109837737Y-32314075D01*
X109612743Y-32089081D01*
X109612738Y-32089075D01*
X108791062Y-31267400D01*
X111054247Y-31267400D01*
X111074200Y-31269365D01*
X111094153Y-31267400D01*
X111094160Y-31267400D01*
X111153868Y-31261519D01*
X111230475Y-31238281D01*
X111301076Y-31200544D01*
X111362958Y-31149758D01*
X111375682Y-31134254D01*
X111548717Y-30961219D01*
X111992200Y-30961219D01*
X111992200Y-31065581D01*
X112012560Y-31167937D01*
X112052498Y-31264354D01*
X112110478Y-31351128D01*
X112184272Y-31424922D01*
X112271046Y-31482902D01*
X112367463Y-31522840D01*
X112469819Y-31543200D01*
X112574181Y-31543200D01*
X112676537Y-31522840D01*
X112772954Y-31482902D01*
X112859728Y-31424922D01*
X112933522Y-31351128D01*
X112991502Y-31264354D01*
X113031440Y-31167937D01*
X113051800Y-31065581D01*
X113051800Y-30961219D01*
X113031440Y-30858863D01*
X112991502Y-30762446D01*
X112933522Y-30675672D01*
X112859728Y-30601878D01*
X112772954Y-30543898D01*
X112676537Y-30503960D01*
X112574181Y-30483600D01*
X112469819Y-30483600D01*
X112367463Y-30503960D01*
X112271046Y-30543898D01*
X112184272Y-30601878D01*
X112110478Y-30675672D01*
X112052498Y-30762446D01*
X112012560Y-30858863D01*
X111992200Y-30961219D01*
X111548717Y-30961219D01*
X112490454Y-30019482D01*
X112505958Y-30006758D01*
X112556744Y-29944876D01*
X112594481Y-29874275D01*
X112617719Y-29797668D01*
X112623600Y-29737960D01*
X112623600Y-29737954D01*
X112625565Y-29718001D01*
X112623600Y-29698048D01*
X112623600Y-28146165D01*
X112669278Y-28214528D01*
X112743072Y-28288322D01*
X112829846Y-28346302D01*
X112926263Y-28386240D01*
X113028619Y-28406600D01*
X113132981Y-28406600D01*
X113235337Y-28386240D01*
X113331754Y-28346302D01*
X113418528Y-28288322D01*
X113492322Y-28214528D01*
X113550302Y-28127754D01*
X113590240Y-28031337D01*
X113610600Y-27928981D01*
X113610600Y-27824619D01*
X113590240Y-27722263D01*
X113550302Y-27625846D01*
X113492322Y-27539072D01*
X113418528Y-27465278D01*
X113331754Y-27407298D01*
X113235337Y-27367360D01*
X113132981Y-27347000D01*
X113028619Y-27347000D01*
X112997807Y-27353129D01*
X113757136Y-26593800D01*
X114956864Y-26593800D01*
X115066043Y-26702979D01*
X115046796Y-26731784D01*
X114986128Y-26878249D01*
X114955200Y-27033734D01*
X114955200Y-27192266D01*
X114986128Y-27347751D01*
X115046796Y-27494216D01*
X115134871Y-27626030D01*
X115246970Y-27738129D01*
X115378784Y-27826204D01*
X115525249Y-27886872D01*
X115680734Y-27917800D01*
X115839266Y-27917800D01*
X115994751Y-27886872D01*
X116141216Y-27826204D01*
X116273030Y-27738129D01*
X116385129Y-27626030D01*
X116395000Y-27611257D01*
X116404871Y-27626030D01*
X116516970Y-27738129D01*
X116648784Y-27826204D01*
X116795249Y-27886872D01*
X116950734Y-27917800D01*
X117109266Y-27917800D01*
X117264751Y-27886872D01*
X117411216Y-27826204D01*
X117543030Y-27738129D01*
X117655129Y-27626030D01*
X117678200Y-27591501D01*
X117678201Y-29753537D01*
X117404081Y-30027657D01*
X117382757Y-30045157D01*
X117357517Y-30075912D01*
X117348616Y-30062590D01*
X117257410Y-29971384D01*
X117150164Y-29899724D01*
X117030998Y-29850364D01*
X116904492Y-29825200D01*
X116775508Y-29825200D01*
X116649002Y-29850364D01*
X116529836Y-29899724D01*
X116422590Y-29971384D01*
X116331384Y-30062590D01*
X116259724Y-30169836D01*
X116210364Y-30289002D01*
X116185200Y-30415508D01*
X116185200Y-30544492D01*
X116210364Y-30670998D01*
X116259724Y-30790164D01*
X116331384Y-30897410D01*
X116422590Y-30988616D01*
X116529836Y-31060276D01*
X116649002Y-31109636D01*
X116775508Y-31134800D01*
X116904492Y-31134800D01*
X117030998Y-31109636D01*
X117034931Y-31108007D01*
X116264680Y-31878258D01*
X116243356Y-31895758D01*
X116173526Y-31980847D01*
X116121638Y-32077924D01*
X116089685Y-32183258D01*
X116083119Y-32249923D01*
X116078896Y-32292801D01*
X116081599Y-32320243D01*
X116081600Y-33365145D01*
X116078896Y-33392597D01*
X116089686Y-33502141D01*
X116121638Y-33607474D01*
X116149420Y-33659450D01*
X116173527Y-33704551D01*
X116243357Y-33789640D01*
X116264675Y-33807135D01*
X116488259Y-34030719D01*
X116505759Y-34052043D01*
X116590848Y-34121873D01*
X116687924Y-34173761D01*
X116762681Y-34196439D01*
X116717930Y-34263414D01*
X116677992Y-34359831D01*
X116657632Y-34462187D01*
X116657632Y-34566549D01*
X116677992Y-34668905D01*
X116717930Y-34765322D01*
X116775910Y-34852096D01*
X116827271Y-34903457D01*
X116776898Y-34978846D01*
X116736960Y-35075263D01*
X116716600Y-35177619D01*
X116716600Y-35281981D01*
X116736960Y-35384337D01*
X116776898Y-35480754D01*
X116834878Y-35567528D01*
X116908672Y-35641322D01*
X116995446Y-35699302D01*
X117091863Y-35739240D01*
X117194219Y-35759600D01*
X117298581Y-35759600D01*
X117400937Y-35739240D01*
X117497354Y-35699302D01*
X117576558Y-35646380D01*
X117576559Y-38158462D01*
X117556138Y-38154400D01*
X117451776Y-38154400D01*
X117349420Y-38174760D01*
X117253003Y-38214698D01*
X117166229Y-38272678D01*
X117092435Y-38346472D01*
X117034455Y-38433246D01*
X116994517Y-38529663D01*
X116974157Y-38632019D01*
X116974157Y-38736381D01*
X116994517Y-38838737D01*
X117034455Y-38935154D01*
X117081722Y-39005895D01*
X116236861Y-39005895D01*
X116154761Y-39013981D01*
X116049427Y-39045934D01*
X115952351Y-39097822D01*
X115867262Y-39167652D01*
X115797432Y-39252741D01*
X115745544Y-39349817D01*
X115713591Y-39455151D01*
X115702802Y-39564695D01*
X115713591Y-39674239D01*
X115745544Y-39779573D01*
X115797432Y-39876649D01*
X115867262Y-39961738D01*
X115931653Y-40014582D01*
X115901581Y-40008600D01*
X115797219Y-40008600D01*
X115694863Y-40028960D01*
X115598446Y-40068898D01*
X115511672Y-40126878D01*
X115437878Y-40200672D01*
X115379898Y-40287446D01*
X115339960Y-40383863D01*
X115319600Y-40486219D01*
X115319600Y-40590581D01*
X115339960Y-40692937D01*
X115379898Y-40789354D01*
X115437878Y-40876128D01*
X115511672Y-40949922D01*
X115598446Y-41007902D01*
X115694863Y-41047840D01*
X115797219Y-41068200D01*
X115901581Y-41068200D01*
X116003937Y-41047840D01*
X116100354Y-41007902D01*
X116187128Y-40949922D01*
X116260922Y-40876128D01*
X116318902Y-40789354D01*
X116358840Y-40692937D01*
X116379200Y-40590581D01*
X116379200Y-40486219D01*
X116358840Y-40383863D01*
X116318902Y-40287446D01*
X116260922Y-40200672D01*
X116187128Y-40126878D01*
X116172592Y-40117165D01*
X116236861Y-40123495D01*
X117530494Y-40123495D01*
X117557936Y-40126198D01*
X117585378Y-40123495D01*
X117585380Y-40123495D01*
X117667480Y-40115409D01*
X117772814Y-40083456D01*
X117869890Y-40031568D01*
X117954979Y-39961738D01*
X117972479Y-39940415D01*
X118511082Y-39401812D01*
X118532401Y-39384316D01*
X118602231Y-39299227D01*
X118654119Y-39202151D01*
X118686072Y-39096817D01*
X118694158Y-39014717D01*
X118694158Y-39014716D01*
X118696861Y-38987274D01*
X118694158Y-38959832D01*
X118694158Y-34596799D01*
X118696861Y-34569357D01*
X118692216Y-34522200D01*
X118686072Y-34459814D01*
X118654119Y-34354480D01*
X118602231Y-34257404D01*
X118532401Y-34172315D01*
X118511077Y-34154815D01*
X117673256Y-33316994D01*
X117683322Y-33306928D01*
X117741302Y-33220154D01*
X117750848Y-33197108D01*
X121773200Y-33197108D01*
X121773200Y-33326092D01*
X121798364Y-33452598D01*
X121847724Y-33571764D01*
X121919384Y-33679010D01*
X122010590Y-33770216D01*
X122117836Y-33841876D01*
X122237002Y-33891236D01*
X122363508Y-33916400D01*
X122492492Y-33916400D01*
X122618998Y-33891236D01*
X122738164Y-33841876D01*
X122845410Y-33770216D01*
X122936616Y-33679010D01*
X123008276Y-33571764D01*
X123057636Y-33452598D01*
X123082800Y-33326092D01*
X123082800Y-33197108D01*
X123057636Y-33070602D01*
X123008276Y-32951436D01*
X122936616Y-32844190D01*
X122845410Y-32752984D01*
X122738164Y-32681324D01*
X122618998Y-32631964D01*
X122492492Y-32606800D01*
X122363508Y-32606800D01*
X122237002Y-32631964D01*
X122117836Y-32681324D01*
X122010590Y-32752984D01*
X121919384Y-32844190D01*
X121847724Y-32951436D01*
X121798364Y-33070602D01*
X121773200Y-33197108D01*
X117750848Y-33197108D01*
X117781240Y-33123737D01*
X117794093Y-33059119D01*
X117872621Y-33043499D01*
X117969038Y-33003561D01*
X118055812Y-32945581D01*
X118129606Y-32871787D01*
X118187586Y-32785013D01*
X118227446Y-32688785D01*
X118241654Y-32688785D01*
X118344010Y-32668425D01*
X118440427Y-32628487D01*
X118527201Y-32570507D01*
X118600995Y-32496713D01*
X118658975Y-32409939D01*
X118698913Y-32313522D01*
X118714846Y-32233422D01*
X118752725Y-32225887D01*
X118849142Y-32185949D01*
X118935916Y-32127969D01*
X119009710Y-32054175D01*
X119067690Y-31967401D01*
X119107628Y-31870984D01*
X119127988Y-31768628D01*
X119127988Y-31664266D01*
X119107628Y-31561910D01*
X119067690Y-31465493D01*
X119009710Y-31378719D01*
X118935916Y-31304925D01*
X118849142Y-31246945D01*
X118836810Y-31241837D01*
X118904928Y-31196322D01*
X118978722Y-31122528D01*
X119035601Y-31037401D01*
X119069836Y-31060276D01*
X119189002Y-31109636D01*
X119315508Y-31134800D01*
X119444492Y-31134800D01*
X119570998Y-31109636D01*
X119690164Y-31060276D01*
X119797410Y-30988616D01*
X119888616Y-30897410D01*
X119960276Y-30790164D01*
X120009636Y-30670998D01*
X120015000Y-30644032D01*
X120020364Y-30670998D01*
X120069724Y-30790164D01*
X120141384Y-30897410D01*
X120232590Y-30988616D01*
X120339836Y-31060276D01*
X120459002Y-31109636D01*
X120585508Y-31134800D01*
X120714492Y-31134800D01*
X120840998Y-31109636D01*
X120960164Y-31060276D01*
X121067410Y-30988616D01*
X121158616Y-30897410D01*
X121230276Y-30790164D01*
X121279636Y-30670998D01*
X121304800Y-30544492D01*
X121304800Y-30415508D01*
X121279636Y-30289002D01*
X121230276Y-30169836D01*
X121158616Y-30062590D01*
X121067410Y-29971384D01*
X120960164Y-29899724D01*
X120840998Y-29850364D01*
X120779130Y-29838058D01*
X120833164Y-29815676D01*
X120940410Y-29744016D01*
X121031616Y-29652810D01*
X121103276Y-29545564D01*
X121152636Y-29426398D01*
X121177800Y-29299892D01*
X121177800Y-29170908D01*
X121152636Y-29044402D01*
X121103276Y-28925236D01*
X121031616Y-28817990D01*
X120940410Y-28726784D01*
X120833164Y-28655124D01*
X120713998Y-28605764D01*
X120587492Y-28580600D01*
X120458508Y-28580600D01*
X120332002Y-28605764D01*
X120212836Y-28655124D01*
X120105590Y-28726784D01*
X120014384Y-28817990D01*
X119942724Y-28925236D01*
X119893364Y-29044402D01*
X119868200Y-29170908D01*
X119868200Y-29299892D01*
X119893364Y-29426398D01*
X119942724Y-29545564D01*
X120014384Y-29652810D01*
X120105590Y-29744016D01*
X120212836Y-29815676D01*
X120332002Y-29865036D01*
X120393870Y-29877342D01*
X120339836Y-29899724D01*
X120232590Y-29971384D01*
X120141384Y-30062590D01*
X120069724Y-30169836D01*
X120020364Y-30289002D01*
X120015000Y-30315968D01*
X120009636Y-30289002D01*
X119960276Y-30169836D01*
X119888616Y-30062590D01*
X119797410Y-29971384D01*
X119690164Y-29899724D01*
X119570998Y-29850364D01*
X119444492Y-29825200D01*
X119315508Y-29825200D01*
X119189002Y-29850364D01*
X119069836Y-29899724D01*
X118962590Y-29971384D01*
X118871384Y-30062590D01*
X118799724Y-30169836D01*
X118750995Y-30287479D01*
X118721737Y-30275360D01*
X118716023Y-30274223D01*
X118755761Y-30199878D01*
X118787714Y-30094544D01*
X118795800Y-30012444D01*
X118795800Y-30012443D01*
X118798503Y-29985001D01*
X118795800Y-29957559D01*
X118795800Y-27799308D01*
X119868200Y-27799308D01*
X119868200Y-27928292D01*
X119893364Y-28054798D01*
X119942724Y-28173964D01*
X120014384Y-28281210D01*
X120105590Y-28372416D01*
X120212836Y-28444076D01*
X120332002Y-28493436D01*
X120458508Y-28518600D01*
X120587492Y-28518600D01*
X120713998Y-28493436D01*
X120833164Y-28444076D01*
X120940410Y-28372416D01*
X121031616Y-28281210D01*
X121103276Y-28173964D01*
X121152636Y-28054798D01*
X121177800Y-27928292D01*
X121177800Y-27875508D01*
X122535200Y-27875508D01*
X122535200Y-28004492D01*
X122560364Y-28130998D01*
X122609724Y-28250164D01*
X122681384Y-28357410D01*
X122772590Y-28448616D01*
X122879836Y-28520276D01*
X122999002Y-28569636D01*
X123025968Y-28575000D01*
X122999002Y-28580364D01*
X122879836Y-28629724D01*
X122772590Y-28701384D01*
X122681384Y-28792590D01*
X122609724Y-28899836D01*
X122560364Y-29019002D01*
X122535200Y-29145508D01*
X122535200Y-29274492D01*
X122560364Y-29400998D01*
X122609724Y-29520164D01*
X122681384Y-29627410D01*
X122772590Y-29718616D01*
X122879836Y-29790276D01*
X122999002Y-29839636D01*
X123125508Y-29864800D01*
X123254492Y-29864800D01*
X123380998Y-29839636D01*
X123500164Y-29790276D01*
X123607410Y-29718616D01*
X123698616Y-29627410D01*
X123770276Y-29520164D01*
X123819636Y-29400998D01*
X123844800Y-29274492D01*
X123844800Y-29145508D01*
X123819636Y-29019002D01*
X123770276Y-28899836D01*
X123698616Y-28792590D01*
X123607410Y-28701384D01*
X123500164Y-28629724D01*
X123380998Y-28580364D01*
X123354032Y-28575000D01*
X123380998Y-28569636D01*
X123500164Y-28520276D01*
X123607410Y-28448616D01*
X123698616Y-28357410D01*
X123770276Y-28250164D01*
X123819636Y-28130998D01*
X123844800Y-28004492D01*
X123844800Y-27875508D01*
X123819636Y-27749002D01*
X123770276Y-27629836D01*
X123698616Y-27522590D01*
X123607410Y-27431384D01*
X123500164Y-27359724D01*
X123380998Y-27310364D01*
X123254492Y-27285200D01*
X123125508Y-27285200D01*
X122999002Y-27310364D01*
X122879836Y-27359724D01*
X122772590Y-27431384D01*
X122681384Y-27522590D01*
X122609724Y-27629836D01*
X122560364Y-27749002D01*
X122535200Y-27875508D01*
X121177800Y-27875508D01*
X121177800Y-27799308D01*
X121152636Y-27672802D01*
X121103276Y-27553636D01*
X121031616Y-27446390D01*
X120940410Y-27355184D01*
X120833164Y-27283524D01*
X120713998Y-27234164D01*
X120587492Y-27209000D01*
X120458508Y-27209000D01*
X120332002Y-27234164D01*
X120212836Y-27283524D01*
X120105590Y-27355184D01*
X120014384Y-27446390D01*
X119942724Y-27553636D01*
X119893364Y-27672802D01*
X119868200Y-27799308D01*
X118795800Y-27799308D01*
X118795800Y-27123091D01*
X118837885Y-27021488D01*
X123945200Y-27021488D01*
X123945200Y-27278512D01*
X123995343Y-27530596D01*
X124093702Y-27768054D01*
X124236496Y-27981761D01*
X124418239Y-28163504D01*
X124631946Y-28306298D01*
X124869404Y-28404657D01*
X125121488Y-28454800D01*
X125330574Y-28454800D01*
X125322984Y-28462390D01*
X125251324Y-28569636D01*
X125201964Y-28688802D01*
X125176800Y-28815308D01*
X125176800Y-28944292D01*
X125201964Y-29070798D01*
X125251324Y-29189964D01*
X125322984Y-29297210D01*
X125414190Y-29388416D01*
X125521436Y-29460076D01*
X125640602Y-29509436D01*
X125767108Y-29534600D01*
X125896092Y-29534600D01*
X126022598Y-29509436D01*
X126141764Y-29460076D01*
X126249010Y-29388416D01*
X126340216Y-29297210D01*
X126411876Y-29189964D01*
X126461236Y-29070798D01*
X126486400Y-28944292D01*
X126486400Y-28815308D01*
X126461236Y-28688802D01*
X126411876Y-28569636D01*
X126340216Y-28462390D01*
X126249010Y-28371184D01*
X126141764Y-28299524D01*
X126022598Y-28250164D01*
X125968245Y-28239352D01*
X126081761Y-28163504D01*
X126263504Y-27981761D01*
X126406298Y-27768054D01*
X126504657Y-27530596D01*
X126554800Y-27278512D01*
X126554800Y-27021488D01*
X126504657Y-26769404D01*
X126406298Y-26531946D01*
X126263504Y-26318239D01*
X126081761Y-26136496D01*
X125868054Y-25993702D01*
X125630596Y-25895343D01*
X125378512Y-25845200D01*
X125121488Y-25845200D01*
X124869404Y-25895343D01*
X124631946Y-25993702D01*
X124418239Y-26136496D01*
X124236496Y-26318239D01*
X124093702Y-26531946D01*
X123995343Y-26769404D01*
X123945200Y-27021488D01*
X118837885Y-27021488D01*
X118841236Y-27013398D01*
X118866400Y-26886892D01*
X118866400Y-26757908D01*
X118841236Y-26631402D01*
X118791876Y-26512236D01*
X118720216Y-26404990D01*
X118629010Y-26313784D01*
X118521764Y-26242124D01*
X118402598Y-26192764D01*
X118276092Y-26167600D01*
X118147108Y-26167600D01*
X118020602Y-26192764D01*
X117901436Y-26242124D01*
X117794190Y-26313784D01*
X117702984Y-26404990D01*
X117631324Y-26512236D01*
X117612600Y-26557441D01*
X117543030Y-26487871D01*
X117411216Y-26399796D01*
X117264751Y-26339128D01*
X117109266Y-26308200D01*
X116950734Y-26308200D01*
X116795249Y-26339128D01*
X116648784Y-26399796D01*
X116516970Y-26487871D01*
X116404871Y-26599970D01*
X116395000Y-26614743D01*
X116385129Y-26599970D01*
X116273030Y-26487871D01*
X116141216Y-26399796D01*
X115994751Y-26339128D01*
X115839266Y-26308200D01*
X115820737Y-26308200D01*
X115426682Y-25914146D01*
X115413958Y-25898642D01*
X115352076Y-25847856D01*
X115281475Y-25810119D01*
X115204868Y-25786881D01*
X115145160Y-25781000D01*
X115145153Y-25781000D01*
X115125200Y-25779035D01*
X115105247Y-25781000D01*
X113608752Y-25781000D01*
X113588799Y-25779035D01*
X113568846Y-25781000D01*
X113568840Y-25781000D01*
X113517135Y-25786093D01*
X113509131Y-25786881D01*
X113485893Y-25793930D01*
X113432525Y-25810119D01*
X113361924Y-25847856D01*
X113300042Y-25898642D01*
X113287318Y-25914146D01*
X111943946Y-27257518D01*
X111928442Y-27270242D01*
X111877656Y-27332125D01*
X111852828Y-27378575D01*
X111839919Y-27402726D01*
X111826530Y-27446866D01*
X111816681Y-27479333D01*
X111810800Y-27539041D01*
X111810800Y-27539047D01*
X111808835Y-27559000D01*
X111810800Y-27578953D01*
X111810801Y-29549663D01*
X111635385Y-29725079D01*
X111701310Y-29601741D01*
X111775920Y-29355785D01*
X111794800Y-29164096D01*
X111794800Y-27035904D01*
X111775920Y-26844215D01*
X111701310Y-26598259D01*
X111580151Y-26371585D01*
X111417097Y-26172903D01*
X111218414Y-26009849D01*
X110991740Y-25888690D01*
X110745784Y-25814080D01*
X110490000Y-25788887D01*
X110234215Y-25814080D01*
X109988259Y-25888690D01*
X109761585Y-26009849D01*
X109562903Y-26172903D01*
X109399849Y-26371586D01*
X109278690Y-26598260D01*
X109204080Y-26844216D01*
X109185200Y-27035905D01*
X109185201Y-29164096D01*
X109204081Y-29355785D01*
X109278691Y-29601741D01*
X109399850Y-29828415D01*
X109562904Y-30027097D01*
X109761586Y-30190151D01*
X109988260Y-30311310D01*
X110234216Y-30385920D01*
X110490000Y-30411113D01*
X110745785Y-30385920D01*
X110991741Y-30311310D01*
X111115079Y-30245385D01*
X110905864Y-30454600D01*
X105036553Y-30454600D01*
X105016600Y-30452635D01*
X104996647Y-30454600D01*
X104996640Y-30454600D01*
X104944204Y-30459765D01*
X104936931Y-30460481D01*
X104860717Y-30483600D01*
X104860325Y-30483719D01*
X104789724Y-30521456D01*
X104774627Y-30533846D01*
X104743345Y-30559518D01*
X104743340Y-30559523D01*
X104727842Y-30572242D01*
X104715123Y-30587740D01*
X102495146Y-32807718D01*
X102479642Y-32820442D01*
X102466919Y-32835945D01*
X102466918Y-32835946D01*
X102462045Y-32841884D01*
X102428856Y-32882325D01*
X102397625Y-32940754D01*
X102391119Y-32952926D01*
X102369652Y-33023696D01*
X102367881Y-33029533D01*
X102362000Y-33089241D01*
X102362000Y-33089247D01*
X102360035Y-33109200D01*
X102362000Y-33129153D01*
X102362001Y-34353549D01*
X102356878Y-34358672D01*
X102298898Y-34445446D01*
X102258960Y-34541863D01*
X102238600Y-34644219D01*
X102238600Y-34748581D01*
X102258960Y-34850937D01*
X102298898Y-34947354D01*
X102356878Y-35034128D01*
X102430672Y-35107922D01*
X102517446Y-35165902D01*
X102613863Y-35205840D01*
X102716219Y-35226200D01*
X102820581Y-35226200D01*
X102922937Y-35205840D01*
X102971600Y-35185683D01*
X102971600Y-35836537D01*
X102595876Y-36212262D01*
X102574558Y-36229757D01*
X102557063Y-36251075D01*
X102504728Y-36314846D01*
X102452839Y-36411923D01*
X102443192Y-36443726D01*
X102420886Y-36517256D01*
X102412800Y-36599356D01*
X102410097Y-36626800D01*
X102412800Y-36654242D01*
X102412800Y-37400156D01*
X102410097Y-37427598D01*
X102412800Y-37455040D01*
X102412800Y-37455041D01*
X102420886Y-37537141D01*
X102452839Y-37642475D01*
X102504727Y-37739552D01*
X102574557Y-37824641D01*
X102595880Y-37842140D01*
X102851253Y-38097514D01*
X102830886Y-38164657D01*
X102820096Y-38274201D01*
X102822800Y-38301653D01*
X102822800Y-39108138D01*
X102816154Y-39103698D01*
X102719737Y-39063760D01*
X102617381Y-39043400D01*
X102513019Y-39043400D01*
X102410663Y-39063760D01*
X102314246Y-39103698D01*
X102227472Y-39161678D01*
X102153678Y-39235472D01*
X102095698Y-39322246D01*
X102055760Y-39418663D01*
X102035400Y-39521019D01*
X101955600Y-39521019D01*
X101955600Y-27167392D01*
X101969906Y-27021488D01*
X102045200Y-27021488D01*
X102045200Y-27278512D01*
X102095343Y-27530596D01*
X102193702Y-27768054D01*
X102336496Y-27981761D01*
X102518239Y-28163504D01*
X102731946Y-28306298D01*
X102969404Y-28404657D01*
X103221488Y-28454800D01*
X103478512Y-28454800D01*
X103730596Y-28404657D01*
X103968054Y-28306298D01*
X104181761Y-28163504D01*
X104363504Y-27981761D01*
X104506298Y-27768054D01*
X104604657Y-27530596D01*
X104654800Y-27278512D01*
X104654800Y-27021488D01*
X104604657Y-26769404D01*
X104506298Y-26531946D01*
X104363504Y-26318239D01*
X104181761Y-26136496D01*
X103968054Y-25993702D01*
X103730596Y-25895343D01*
X103478512Y-25845200D01*
X103221488Y-25845200D01*
X102969404Y-25895343D01*
X102731946Y-25993702D01*
X102518239Y-26136496D01*
X102336496Y-26318239D01*
X102193702Y-26531946D01*
X102095343Y-26769404D01*
X102045200Y-27021488D01*
X101969906Y-27021488D01*
X101983829Y-26879492D01*
X102062389Y-26619286D01*
X102189996Y-26379294D01*
X102361784Y-26168659D01*
X102571213Y-25995404D01*
X102810309Y-25866126D01*
X103069959Y-25785751D01*
X103356828Y-25755600D01*
X125232608Y-25755600D01*
X125520508Y-25783829D01*
M02*
