G04 #@! TF.GenerationSoftware,KiCad,Pcbnew,(5.1.6)-1*
G04 #@! TF.CreationDate,2020-09-01T21:36:02-07:00*
G04 #@! TF.ProjectId,MiniCAM,4d696e69-4341-44d2-9e6b-696361645f70,rev?*
G04 #@! TF.SameCoordinates,Original*
G04 #@! TF.FileFunction,Legend,Bot*
G04 #@! TF.FilePolarity,Positive*
%FSLAX46Y46*%
G04 Gerber Fmt 4.6, Leading zero omitted, Abs format (unit mm)*
G04 Created by KiCad (PCBNEW (5.1.6)-1) date 2020-09-01 21:36:02*
%MOMM*%
%LPD*%
G01*
G04 APERTURE LIST*
%ADD10C,0.100000*%
%ADD11C,0.300000*%
%ADD12C,0.127000*%
%ADD13C,0.120000*%
%ADD14C,0.152400*%
%ADD15C,0.150000*%
G04 APERTURE END LIST*
D10*
G36*
X118477000Y-46113000D02*
G01*
X102477000Y-46113000D01*
X102977000Y-45613000D01*
X117977000Y-45613000D01*
X118477000Y-46113000D01*
G37*
X118477000Y-46113000D02*
X102477000Y-46113000D01*
X102977000Y-45613000D01*
X117977000Y-45613000D01*
X118477000Y-46113000D01*
G36*
X102990000Y-30600000D02*
G01*
X102990000Y-45600000D01*
X102490000Y-46100000D01*
X102490000Y-30100000D01*
X102990000Y-30600000D01*
G37*
X102990000Y-30600000D02*
X102990000Y-45600000D01*
X102490000Y-46100000D01*
X102490000Y-30100000D01*
X102990000Y-30600000D01*
G36*
X118003000Y-30613000D02*
G01*
X103003000Y-30613000D01*
X102503000Y-30113000D01*
X118503000Y-30113000D01*
X118003000Y-30613000D01*
G37*
X118003000Y-30613000D02*
X103003000Y-30613000D01*
X102503000Y-30113000D01*
X118503000Y-30113000D01*
X118003000Y-30613000D01*
G36*
X118490000Y-46113000D02*
G01*
X117990000Y-45613000D01*
X117990000Y-30613000D01*
X118490000Y-30113000D01*
X118490000Y-46113000D01*
G37*
X118490000Y-46113000D02*
X117990000Y-45613000D01*
X117990000Y-30613000D01*
X118490000Y-30113000D01*
X118490000Y-46113000D01*
D11*
X119377580Y-38427476D02*
X119377580Y-39697476D01*
X119800914Y-38790333D01*
X120224247Y-39697476D01*
X120224247Y-38427476D01*
X120829009Y-38427476D02*
X120829009Y-39274142D01*
X120829009Y-39697476D02*
X120768533Y-39637000D01*
X120829009Y-39576523D01*
X120889485Y-39637000D01*
X120829009Y-39697476D01*
X120829009Y-39576523D01*
X121433771Y-39274142D02*
X121433771Y-38427476D01*
X121433771Y-39153190D02*
X121494247Y-39213666D01*
X121615200Y-39274142D01*
X121796628Y-39274142D01*
X121917580Y-39213666D01*
X121978057Y-39092714D01*
X121978057Y-38427476D01*
X122582819Y-38427476D02*
X122582819Y-39274142D01*
X122582819Y-39697476D02*
X122522342Y-39637000D01*
X122582819Y-39576523D01*
X122643295Y-39637000D01*
X122582819Y-39697476D01*
X122582819Y-39576523D01*
X123913295Y-38548428D02*
X123852819Y-38487952D01*
X123671390Y-38427476D01*
X123550438Y-38427476D01*
X123369009Y-38487952D01*
X123248057Y-38608904D01*
X123187580Y-38729857D01*
X123127104Y-38971761D01*
X123127104Y-39153190D01*
X123187580Y-39395095D01*
X123248057Y-39516047D01*
X123369009Y-39637000D01*
X123550438Y-39697476D01*
X123671390Y-39697476D01*
X123852819Y-39637000D01*
X123913295Y-39576523D01*
X124397104Y-38790333D02*
X125001866Y-38790333D01*
X124276152Y-38427476D02*
X124699485Y-39697476D01*
X125122819Y-38427476D01*
X125546152Y-38427476D02*
X125546152Y-39697476D01*
X125969485Y-38790333D01*
X126392819Y-39697476D01*
X126392819Y-38427476D01*
D12*
X124841000Y-37819085D02*
X124478142Y-37819085D01*
X124441857Y-37456228D01*
X124478142Y-37492514D01*
X124550714Y-37528800D01*
X124732142Y-37528800D01*
X124804714Y-37492514D01*
X124841000Y-37456228D01*
X124877285Y-37383657D01*
X124877285Y-37202228D01*
X124841000Y-37129657D01*
X124804714Y-37093371D01*
X124732142Y-37057085D01*
X124550714Y-37057085D01*
X124478142Y-37093371D01*
X124441857Y-37129657D01*
X125203857Y-37057085D02*
X125203857Y-37819085D01*
X125457857Y-37274800D01*
X125711857Y-37819085D01*
X125711857Y-37057085D01*
X126074714Y-37057085D02*
X126074714Y-37819085D01*
X126365000Y-37819085D01*
X126437571Y-37782800D01*
X126473857Y-37746514D01*
X126510142Y-37673942D01*
X126510142Y-37565085D01*
X126473857Y-37492514D01*
X126437571Y-37456228D01*
X126365000Y-37419942D01*
X126074714Y-37419942D01*
D13*
X124079000Y-37833600D02*
X119329200Y-37859000D01*
D14*
X112698711Y-38243628D02*
X112698711Y-37481628D01*
X112444711Y-38025914D01*
X112190711Y-37481628D01*
X112190711Y-38243628D01*
X111936711Y-37481628D02*
X111501282Y-37481628D01*
X111718997Y-38243628D02*
X111718997Y-37481628D01*
X111210997Y-38243628D02*
X111065854Y-38243628D01*
X110993282Y-38207342D01*
X110956997Y-38171056D01*
X110884425Y-38062199D01*
X110848140Y-37917056D01*
X110848140Y-37626771D01*
X110884425Y-37554199D01*
X110920711Y-37517914D01*
X110993282Y-37481628D01*
X111138425Y-37481628D01*
X111210997Y-37517914D01*
X111247282Y-37554199D01*
X111283568Y-37626771D01*
X111283568Y-37808199D01*
X111247282Y-37880771D01*
X111210997Y-37917056D01*
X111138425Y-37953342D01*
X110993282Y-37953342D01*
X110920711Y-37917056D01*
X110884425Y-37880771D01*
X110848140Y-37808199D01*
X110521568Y-38243628D02*
X110521568Y-37481628D01*
X110231282Y-37481628D01*
X110158711Y-37517914D01*
X110122425Y-37554199D01*
X110086140Y-37626771D01*
X110086140Y-37735628D01*
X110122425Y-37808199D01*
X110158711Y-37844485D01*
X110231282Y-37880771D01*
X110521568Y-37880771D01*
X109614425Y-37481628D02*
X109541854Y-37481628D01*
X109469282Y-37517914D01*
X109432997Y-37554199D01*
X109396711Y-37626771D01*
X109360425Y-37771914D01*
X109360425Y-37953342D01*
X109396711Y-38098485D01*
X109432997Y-38171056D01*
X109469282Y-38207342D01*
X109541854Y-38243628D01*
X109614425Y-38243628D01*
X109686997Y-38207342D01*
X109723282Y-38171056D01*
X109759568Y-38098485D01*
X109795854Y-37953342D01*
X109795854Y-37771914D01*
X109759568Y-37626771D01*
X109723282Y-37554199D01*
X109686997Y-37517914D01*
X109614425Y-37481628D01*
X109106425Y-37481628D02*
X108634711Y-37481628D01*
X108888711Y-37771914D01*
X108779854Y-37771914D01*
X108707282Y-37808199D01*
X108670997Y-37844485D01*
X108634711Y-37917056D01*
X108634711Y-38098485D01*
X108670997Y-38171056D01*
X108707282Y-38207342D01*
X108779854Y-38243628D01*
X108997568Y-38243628D01*
X109070140Y-38207342D01*
X109106425Y-38171056D01*
X107908997Y-38243628D02*
X108344425Y-38243628D01*
X108126711Y-38243628D02*
X108126711Y-37481628D01*
X108199282Y-37590485D01*
X108271854Y-37663056D01*
X108344425Y-37699342D01*
D13*
X124012563Y-50287437D02*
G75*
G02*
X126487437Y-47812563I1237437J1237437D01*
G01*
X102112563Y-47812563D02*
G75*
G02*
X104587437Y-50287437I1237437J-1237437D01*
G01*
X104587437Y-25912563D02*
G75*
G02*
X102112563Y-28387437I-1237437J-1237437D01*
G01*
X126487437Y-28387437D02*
G75*
G02*
X124012563Y-25912563I-1237437J1237437D01*
G01*
X115125000Y-25783000D02*
X115125000Y-26353000D01*
X115125000Y-27873000D02*
X115125000Y-28443000D01*
X115125000Y-25783000D02*
X117725000Y-25783000D01*
X117725000Y-25783000D02*
X117725000Y-26805470D01*
X117725000Y-27420530D02*
X117725000Y-28443000D01*
X115125000Y-28443000D02*
X117725000Y-28443000D01*
X113730000Y-28443000D02*
X114490000Y-28443000D01*
X113730000Y-27113000D02*
X113730000Y-28443000D01*
X113730000Y-49113000D02*
X113730000Y-50443000D01*
X113730000Y-50443000D02*
X114490000Y-50443000D01*
X115125000Y-50443000D02*
X116455000Y-50443000D01*
X116455000Y-49420530D02*
X116455000Y-50443000D01*
X116455000Y-47783000D02*
X116455000Y-48805470D01*
X115125000Y-47783000D02*
X116455000Y-47783000D01*
X115125000Y-49873000D02*
X115125000Y-50443000D01*
X115125000Y-47783000D02*
X115125000Y-48353000D01*
X114770000Y-43140000D02*
X115530000Y-43140000D01*
X115530000Y-43140000D02*
X115530000Y-42380000D01*
X106210000Y-43140000D02*
X105450000Y-43140000D01*
X105450000Y-43140000D02*
X105450000Y-42380000D01*
X106210000Y-33060000D02*
X105450000Y-33060000D01*
X105450000Y-33060000D02*
X105450000Y-33820000D01*
X114770000Y-33060000D02*
X115530000Y-33060000D01*
X115530000Y-33060000D02*
X115530000Y-33820000D01*
D15*
X112406666Y-27660619D02*
X112406666Y-26946333D01*
X112359047Y-26803476D01*
X112263809Y-26708238D01*
X112120952Y-26660619D01*
X112025714Y-26660619D01*
X112787619Y-27660619D02*
X113406666Y-27660619D01*
X113073333Y-27279666D01*
X113216190Y-27279666D01*
X113311428Y-27232047D01*
X113359047Y-27184428D01*
X113406666Y-27089190D01*
X113406666Y-26851095D01*
X113359047Y-26755857D01*
X113311428Y-26708238D01*
X113216190Y-26660619D01*
X112930476Y-26660619D01*
X112835238Y-26708238D01*
X112787619Y-26755857D01*
X112406666Y-49660619D02*
X112406666Y-48946333D01*
X112359047Y-48803476D01*
X112263809Y-48708238D01*
X112120952Y-48660619D01*
X112025714Y-48660619D01*
X112835238Y-49565380D02*
X112882857Y-49613000D01*
X112978095Y-49660619D01*
X113216190Y-49660619D01*
X113311428Y-49613000D01*
X113359047Y-49565380D01*
X113406666Y-49470142D01*
X113406666Y-49374904D01*
X113359047Y-49232047D01*
X112787619Y-48660619D01*
X113406666Y-48660619D01*
M02*
