G04 #@! TF.GenerationSoftware,KiCad,Pcbnew,(5.1.6)-1*
G04 #@! TF.CreationDate,2020-09-08T11:46:22-07:00*
G04 #@! TF.ProjectId,LED_Ring,4c45445f-5269-46e6-972e-6b696361645f,rev?*
G04 #@! TF.SameCoordinates,Original*
G04 #@! TF.FileFunction,Legend,Bot*
G04 #@! TF.FilePolarity,Positive*
%FSLAX46Y46*%
G04 Gerber Fmt 4.6, Leading zero omitted, Abs format (unit mm)*
G04 Created by KiCad (PCBNEW (5.1.6)-1) date 2020-09-08 11:46:22*
%MOMM*%
%LPD*%
G01*
G04 APERTURE LIST*
%ADD10C,0.010000*%
%ADD11C,0.100000*%
G04 APERTURE END LIST*
D10*
G36*
X100371532Y-82206346D02*
G01*
X100362344Y-82160598D01*
X100348972Y-82078429D01*
X100333831Y-81974991D01*
X100328731Y-81937826D01*
X100298659Y-81714803D01*
X99982236Y-81682898D01*
X99801352Y-81664116D01*
X99666934Y-81648697D01*
X99573626Y-81635751D01*
X99516071Y-81624384D01*
X99488916Y-81613707D01*
X99486802Y-81602827D01*
X99488709Y-81600740D01*
X99519382Y-81584185D01*
X99588996Y-81552539D01*
X99688166Y-81509899D01*
X99807507Y-81460362D01*
X99847799Y-81443975D01*
X99971707Y-81393118D01*
X100078571Y-81347916D01*
X100158952Y-81312462D01*
X100203413Y-81290849D01*
X100208457Y-81287573D01*
X100215160Y-81254484D01*
X100214213Y-81180964D01*
X100206033Y-81077950D01*
X100197702Y-81005552D01*
X100181034Y-80885015D01*
X100166410Y-80808211D01*
X100151428Y-80767070D01*
X100133686Y-80753521D01*
X100123022Y-80754572D01*
X100086429Y-80761220D01*
X100006044Y-80773702D01*
X99889601Y-80790889D01*
X99744834Y-80811650D01*
X99579479Y-80834855D01*
X99470829Y-80849862D01*
X99298485Y-80874070D01*
X99143707Y-80896858D01*
X99013817Y-80917061D01*
X98916136Y-80933516D01*
X98857983Y-80945060D01*
X98844884Y-80949340D01*
X98840283Y-80981657D01*
X98844324Y-81048330D01*
X98851862Y-81106244D01*
X98865049Y-81185131D01*
X98875840Y-81239263D01*
X98880390Y-81254102D01*
X98906903Y-81252606D01*
X98976898Y-81244566D01*
X99082417Y-81231009D01*
X99215500Y-81212961D01*
X99368189Y-81191448D01*
X99385523Y-81188960D01*
X99538476Y-81167682D01*
X99671419Y-81150563D01*
X99776743Y-81138470D01*
X99846842Y-81132266D01*
X99874105Y-81132817D01*
X99874112Y-81133420D01*
X99848045Y-81147810D01*
X99781262Y-81178415D01*
X99681262Y-81221977D01*
X99555540Y-81275237D01*
X99411594Y-81334938D01*
X99391668Y-81343110D01*
X98919210Y-81536641D01*
X98935874Y-81678426D01*
X98946366Y-81757910D01*
X98955773Y-81812761D01*
X98960343Y-81828016D01*
X98987238Y-81833183D01*
X99056079Y-81842620D01*
X99157095Y-81855223D01*
X99280514Y-81869890D01*
X99416564Y-81885519D01*
X99555475Y-81901007D01*
X99687474Y-81915252D01*
X99802790Y-81927151D01*
X99891652Y-81935602D01*
X99944288Y-81939502D01*
X99949624Y-81939639D01*
X99982422Y-81947097D01*
X99981598Y-81957723D01*
X99951307Y-81966909D01*
X99877943Y-81981615D01*
X99769955Y-82000369D01*
X99635794Y-82021701D01*
X99489803Y-82043300D01*
X99015865Y-82111021D01*
X99024416Y-82265810D01*
X99030238Y-82349408D01*
X99036647Y-82408856D01*
X99041234Y-82428866D01*
X99068138Y-82427580D01*
X99139480Y-82419627D01*
X99248259Y-82405912D01*
X99387470Y-82387343D01*
X99550112Y-82364825D01*
X99693016Y-82344488D01*
X99870492Y-82319069D01*
X100031131Y-82296314D01*
X100167699Y-82277227D01*
X100272966Y-82262812D01*
X100339699Y-82254073D01*
X100360396Y-82251842D01*
X100374556Y-82231604D01*
X100371532Y-82206346D01*
G37*
X100371532Y-82206346D02*
X100362344Y-82160598D01*
X100348972Y-82078429D01*
X100333831Y-81974991D01*
X100328731Y-81937826D01*
X100298659Y-81714803D01*
X99982236Y-81682898D01*
X99801352Y-81664116D01*
X99666934Y-81648697D01*
X99573626Y-81635751D01*
X99516071Y-81624384D01*
X99488916Y-81613707D01*
X99486802Y-81602827D01*
X99488709Y-81600740D01*
X99519382Y-81584185D01*
X99588996Y-81552539D01*
X99688166Y-81509899D01*
X99807507Y-81460362D01*
X99847799Y-81443975D01*
X99971707Y-81393118D01*
X100078571Y-81347916D01*
X100158952Y-81312462D01*
X100203413Y-81290849D01*
X100208457Y-81287573D01*
X100215160Y-81254484D01*
X100214213Y-81180964D01*
X100206033Y-81077950D01*
X100197702Y-81005552D01*
X100181034Y-80885015D01*
X100166410Y-80808211D01*
X100151428Y-80767070D01*
X100133686Y-80753521D01*
X100123022Y-80754572D01*
X100086429Y-80761220D01*
X100006044Y-80773702D01*
X99889601Y-80790889D01*
X99744834Y-80811650D01*
X99579479Y-80834855D01*
X99470829Y-80849862D01*
X99298485Y-80874070D01*
X99143707Y-80896858D01*
X99013817Y-80917061D01*
X98916136Y-80933516D01*
X98857983Y-80945060D01*
X98844884Y-80949340D01*
X98840283Y-80981657D01*
X98844324Y-81048330D01*
X98851862Y-81106244D01*
X98865049Y-81185131D01*
X98875840Y-81239263D01*
X98880390Y-81254102D01*
X98906903Y-81252606D01*
X98976898Y-81244566D01*
X99082417Y-81231009D01*
X99215500Y-81212961D01*
X99368189Y-81191448D01*
X99385523Y-81188960D01*
X99538476Y-81167682D01*
X99671419Y-81150563D01*
X99776743Y-81138470D01*
X99846842Y-81132266D01*
X99874105Y-81132817D01*
X99874112Y-81133420D01*
X99848045Y-81147810D01*
X99781262Y-81178415D01*
X99681262Y-81221977D01*
X99555540Y-81275237D01*
X99411594Y-81334938D01*
X99391668Y-81343110D01*
X98919210Y-81536641D01*
X98935874Y-81678426D01*
X98946366Y-81757910D01*
X98955773Y-81812761D01*
X98960343Y-81828016D01*
X98987238Y-81833183D01*
X99056079Y-81842620D01*
X99157095Y-81855223D01*
X99280514Y-81869890D01*
X99416564Y-81885519D01*
X99555475Y-81901007D01*
X99687474Y-81915252D01*
X99802790Y-81927151D01*
X99891652Y-81935602D01*
X99944288Y-81939502D01*
X99949624Y-81939639D01*
X99982422Y-81947097D01*
X99981598Y-81957723D01*
X99951307Y-81966909D01*
X99877943Y-81981615D01*
X99769955Y-82000369D01*
X99635794Y-82021701D01*
X99489803Y-82043300D01*
X99015865Y-82111021D01*
X99024416Y-82265810D01*
X99030238Y-82349408D01*
X99036647Y-82408856D01*
X99041234Y-82428866D01*
X99068138Y-82427580D01*
X99139480Y-82419627D01*
X99248259Y-82405912D01*
X99387470Y-82387343D01*
X99550112Y-82364825D01*
X99693016Y-82344488D01*
X99870492Y-82319069D01*
X100031131Y-82296314D01*
X100167699Y-82277227D01*
X100272966Y-82262812D01*
X100339699Y-82254073D01*
X100360396Y-82251842D01*
X100374556Y-82231604D01*
X100371532Y-82206346D01*
G36*
X99804147Y-79629001D02*
G01*
X99655482Y-79617000D01*
X99515984Y-79604972D01*
X99398176Y-79594053D01*
X99314582Y-79585376D01*
X99293162Y-79582737D01*
X99180490Y-79567495D01*
X99197184Y-79317294D01*
X99205859Y-79200253D01*
X99215144Y-79095883D01*
X99223572Y-79019914D01*
X99226973Y-78997670D01*
X99231329Y-78957984D01*
X99217741Y-78935089D01*
X99174850Y-78921481D01*
X99094280Y-78910033D01*
X99011698Y-78902938D01*
X98951352Y-78903715D01*
X98931005Y-78909304D01*
X98925557Y-78937060D01*
X98916725Y-79006993D01*
X98905419Y-79109461D01*
X98892549Y-79234824D01*
X98879026Y-79373439D01*
X98865759Y-79515666D01*
X98853658Y-79651864D01*
X98843633Y-79772391D01*
X98836595Y-79867605D01*
X98833454Y-79927866D01*
X98833587Y-79941433D01*
X98858177Y-79944379D01*
X98926226Y-79950957D01*
X99029379Y-79960442D01*
X99159282Y-79972108D01*
X99307580Y-79985228D01*
X99465919Y-79999079D01*
X99625944Y-80012933D01*
X99779302Y-80026066D01*
X99917638Y-80037752D01*
X100032597Y-80047265D01*
X100115825Y-80053879D01*
X100158968Y-80056870D01*
X100163112Y-80056906D01*
X100166873Y-80032153D01*
X100173809Y-79968320D01*
X100182560Y-79878123D01*
X100184455Y-79857519D01*
X100202460Y-79660022D01*
X99804147Y-79629001D01*
G37*
X99804147Y-79629001D02*
X99655482Y-79617000D01*
X99515984Y-79604972D01*
X99398176Y-79594053D01*
X99314582Y-79585376D01*
X99293162Y-79582737D01*
X99180490Y-79567495D01*
X99197184Y-79317294D01*
X99205859Y-79200253D01*
X99215144Y-79095883D01*
X99223572Y-79019914D01*
X99226973Y-78997670D01*
X99231329Y-78957984D01*
X99217741Y-78935089D01*
X99174850Y-78921481D01*
X99094280Y-78910033D01*
X99011698Y-78902938D01*
X98951352Y-78903715D01*
X98931005Y-78909304D01*
X98925557Y-78937060D01*
X98916725Y-79006993D01*
X98905419Y-79109461D01*
X98892549Y-79234824D01*
X98879026Y-79373439D01*
X98865759Y-79515666D01*
X98853658Y-79651864D01*
X98843633Y-79772391D01*
X98836595Y-79867605D01*
X98833454Y-79927866D01*
X98833587Y-79941433D01*
X98858177Y-79944379D01*
X98926226Y-79950957D01*
X99029379Y-79960442D01*
X99159282Y-79972108D01*
X99307580Y-79985228D01*
X99465919Y-79999079D01*
X99625944Y-80012933D01*
X99779302Y-80026066D01*
X99917638Y-80037752D01*
X100032597Y-80047265D01*
X100115825Y-80053879D01*
X100158968Y-80056870D01*
X100163112Y-80056906D01*
X100166873Y-80032153D01*
X100173809Y-79968320D01*
X100182560Y-79878123D01*
X100184455Y-79857519D01*
X100202460Y-79660022D01*
X99804147Y-79629001D01*
G36*
X100473512Y-77854616D02*
G01*
X100431574Y-77840064D01*
X100361769Y-77824452D01*
X100340743Y-77820760D01*
X100235734Y-77803474D01*
X100201979Y-77967320D01*
X100176994Y-78085883D01*
X100147931Y-78219964D01*
X100128540Y-78307275D01*
X100088857Y-78483384D01*
X99994326Y-78466609D01*
X99926879Y-78451046D01*
X99883527Y-78434515D01*
X99880160Y-78432053D01*
X99877911Y-78401216D01*
X99886263Y-78330338D01*
X99903635Y-78229925D01*
X99928444Y-78110484D01*
X99928772Y-78109014D01*
X99954397Y-77990308D01*
X99973987Y-77891541D01*
X99985647Y-77822881D01*
X99987481Y-77794496D01*
X99987404Y-77794408D01*
X99958193Y-77785348D01*
X99895290Y-77773152D01*
X99858970Y-77767376D01*
X99740151Y-77749693D01*
X99680154Y-78044422D01*
X99654855Y-78162816D01*
X99631346Y-78262322D01*
X99612381Y-78331909D01*
X99601343Y-78359994D01*
X99567175Y-78366396D01*
X99501646Y-78359099D01*
X99461684Y-78350408D01*
X99380400Y-78322883D01*
X99344232Y-78290881D01*
X99340839Y-78274563D01*
X99346362Y-78231826D01*
X99361336Y-78150735D01*
X99383367Y-78043562D01*
X99405834Y-77941224D01*
X99431792Y-77824165D01*
X99452822Y-77725406D01*
X99466585Y-77656188D01*
X99470829Y-77628648D01*
X99447982Y-77608785D01*
X99391296Y-77590322D01*
X99373336Y-77586717D01*
X99297601Y-77572060D01*
X99239323Y-77558705D01*
X99233777Y-77557162D01*
X99202707Y-77562316D01*
X99182400Y-77606232D01*
X99174781Y-77643041D01*
X99163605Y-77700599D01*
X99143296Y-77798293D01*
X99116110Y-77925530D01*
X99084308Y-78071715D01*
X99058111Y-78190445D01*
X99026801Y-78335761D01*
X99001301Y-78462525D01*
X98983129Y-78562466D01*
X98973799Y-78627311D01*
X98974118Y-78648781D01*
X99006003Y-78658354D01*
X99079340Y-78676217D01*
X99185804Y-78700603D01*
X99317069Y-78729746D01*
X99464809Y-78761878D01*
X99620699Y-78795234D01*
X99776414Y-78828045D01*
X99923627Y-78858546D01*
X100054014Y-78884969D01*
X100159248Y-78905548D01*
X100231005Y-78918515D01*
X100260959Y-78922105D01*
X100261289Y-78921945D01*
X100269817Y-78894417D01*
X100287555Y-78823805D01*
X100312678Y-78717840D01*
X100343362Y-78584250D01*
X100377784Y-78430765D01*
X100386549Y-78391146D01*
X100430298Y-78186086D01*
X100460104Y-78030571D01*
X100476053Y-77924076D01*
X100478229Y-77866078D01*
X100473512Y-77854616D01*
G37*
X100473512Y-77854616D02*
X100431574Y-77840064D01*
X100361769Y-77824452D01*
X100340743Y-77820760D01*
X100235734Y-77803474D01*
X100201979Y-77967320D01*
X100176994Y-78085883D01*
X100147931Y-78219964D01*
X100128540Y-78307275D01*
X100088857Y-78483384D01*
X99994326Y-78466609D01*
X99926879Y-78451046D01*
X99883527Y-78434515D01*
X99880160Y-78432053D01*
X99877911Y-78401216D01*
X99886263Y-78330338D01*
X99903635Y-78229925D01*
X99928444Y-78110484D01*
X99928772Y-78109014D01*
X99954397Y-77990308D01*
X99973987Y-77891541D01*
X99985647Y-77822881D01*
X99987481Y-77794496D01*
X99987404Y-77794408D01*
X99958193Y-77785348D01*
X99895290Y-77773152D01*
X99858970Y-77767376D01*
X99740151Y-77749693D01*
X99680154Y-78044422D01*
X99654855Y-78162816D01*
X99631346Y-78262322D01*
X99612381Y-78331909D01*
X99601343Y-78359994D01*
X99567175Y-78366396D01*
X99501646Y-78359099D01*
X99461684Y-78350408D01*
X99380400Y-78322883D01*
X99344232Y-78290881D01*
X99340839Y-78274563D01*
X99346362Y-78231826D01*
X99361336Y-78150735D01*
X99383367Y-78043562D01*
X99405834Y-77941224D01*
X99431792Y-77824165D01*
X99452822Y-77725406D01*
X99466585Y-77656188D01*
X99470829Y-77628648D01*
X99447982Y-77608785D01*
X99391296Y-77590322D01*
X99373336Y-77586717D01*
X99297601Y-77572060D01*
X99239323Y-77558705D01*
X99233777Y-77557162D01*
X99202707Y-77562316D01*
X99182400Y-77606232D01*
X99174781Y-77643041D01*
X99163605Y-77700599D01*
X99143296Y-77798293D01*
X99116110Y-77925530D01*
X99084308Y-78071715D01*
X99058111Y-78190445D01*
X99026801Y-78335761D01*
X99001301Y-78462525D01*
X98983129Y-78562466D01*
X98973799Y-78627311D01*
X98974118Y-78648781D01*
X99006003Y-78658354D01*
X99079340Y-78676217D01*
X99185804Y-78700603D01*
X99317069Y-78729746D01*
X99464809Y-78761878D01*
X99620699Y-78795234D01*
X99776414Y-78828045D01*
X99923627Y-78858546D01*
X100054014Y-78884969D01*
X100159248Y-78905548D01*
X100231005Y-78918515D01*
X100260959Y-78922105D01*
X100261289Y-78921945D01*
X100269817Y-78894417D01*
X100287555Y-78823805D01*
X100312678Y-78717840D01*
X100343362Y-78584250D01*
X100377784Y-78430765D01*
X100386549Y-78391146D01*
X100430298Y-78186086D01*
X100460104Y-78030571D01*
X100476053Y-77924076D01*
X100478229Y-77866078D01*
X100473512Y-77854616D01*
G36*
X100595716Y-82932655D02*
G01*
X100563654Y-82838325D01*
X100537237Y-82764726D01*
X100521031Y-82724450D01*
X100518939Y-82720852D01*
X100491552Y-82716416D01*
X100420698Y-82709934D01*
X100314842Y-82701914D01*
X100182450Y-82692865D01*
X100031988Y-82683296D01*
X99871921Y-82673714D01*
X99710716Y-82664627D01*
X99556837Y-82656545D01*
X99418751Y-82649975D01*
X99304923Y-82645426D01*
X99230348Y-82643481D01*
X99165225Y-82643805D01*
X99127539Y-82653234D01*
X99114404Y-82681221D01*
X99122933Y-82737218D01*
X99150238Y-82830675D01*
X99161802Y-82867890D01*
X99211883Y-83028974D01*
X99453371Y-83044780D01*
X99527770Y-83265762D01*
X99602168Y-83486745D01*
X99545338Y-83533277D01*
X99488234Y-83576416D01*
X99448735Y-83602067D01*
X99428844Y-83619509D01*
X99423731Y-83649844D01*
X99433964Y-83705569D01*
X99457282Y-83789516D01*
X99484456Y-83879253D01*
X99507807Y-83950823D01*
X99521295Y-83986400D01*
X99546355Y-83980903D01*
X99609412Y-83942876D01*
X99708849Y-83873469D01*
X99843050Y-83773831D01*
X99846370Y-83771278D01*
X99846370Y-83311996D01*
X99829230Y-83279390D01*
X99804747Y-83217305D01*
X99780158Y-83146175D01*
X99762698Y-83086430D01*
X99758638Y-83064278D01*
X99773432Y-83048013D01*
X99824034Y-83037743D01*
X99916467Y-83032670D01*
X100003787Y-83031781D01*
X100109919Y-83032733D01*
X100193205Y-83035292D01*
X100242353Y-83039013D01*
X100250767Y-83041533D01*
X100230968Y-83061298D01*
X100179326Y-83100311D01*
X100107480Y-83150787D01*
X100027066Y-83204945D01*
X99949720Y-83255001D01*
X99887080Y-83293173D01*
X99850781Y-83311679D01*
X99846370Y-83311996D01*
X99846370Y-83771278D01*
X100010397Y-83645111D01*
X100099526Y-83575298D01*
X100662063Y-83132505D01*
X100595716Y-82932655D01*
G37*
X100595716Y-82932655D02*
X100563654Y-82838325D01*
X100537237Y-82764726D01*
X100521031Y-82724450D01*
X100518939Y-82720852D01*
X100491552Y-82716416D01*
X100420698Y-82709934D01*
X100314842Y-82701914D01*
X100182450Y-82692865D01*
X100031988Y-82683296D01*
X99871921Y-82673714D01*
X99710716Y-82664627D01*
X99556837Y-82656545D01*
X99418751Y-82649975D01*
X99304923Y-82645426D01*
X99230348Y-82643481D01*
X99165225Y-82643805D01*
X99127539Y-82653234D01*
X99114404Y-82681221D01*
X99122933Y-82737218D01*
X99150238Y-82830675D01*
X99161802Y-82867890D01*
X99211883Y-83028974D01*
X99453371Y-83044780D01*
X99527770Y-83265762D01*
X99602168Y-83486745D01*
X99545338Y-83533277D01*
X99488234Y-83576416D01*
X99448735Y-83602067D01*
X99428844Y-83619509D01*
X99423731Y-83649844D01*
X99433964Y-83705569D01*
X99457282Y-83789516D01*
X99484456Y-83879253D01*
X99507807Y-83950823D01*
X99521295Y-83986400D01*
X99546355Y-83980903D01*
X99609412Y-83942876D01*
X99708849Y-83873469D01*
X99843050Y-83773831D01*
X99846370Y-83771278D01*
X99846370Y-83311996D01*
X99829230Y-83279390D01*
X99804747Y-83217305D01*
X99780158Y-83146175D01*
X99762698Y-83086430D01*
X99758638Y-83064278D01*
X99773432Y-83048013D01*
X99824034Y-83037743D01*
X99916467Y-83032670D01*
X100003787Y-83031781D01*
X100109919Y-83032733D01*
X100193205Y-83035292D01*
X100242353Y-83039013D01*
X100250767Y-83041533D01*
X100230968Y-83061298D01*
X100179326Y-83100311D01*
X100107480Y-83150787D01*
X100027066Y-83204945D01*
X99949720Y-83255001D01*
X99887080Y-83293173D01*
X99850781Y-83311679D01*
X99846370Y-83311996D01*
X99846370Y-83771278D01*
X100010397Y-83645111D01*
X100099526Y-83575298D01*
X100662063Y-83132505D01*
X100595716Y-82932655D01*
G36*
X100787519Y-76736168D02*
G01*
X100741626Y-76635862D01*
X100665993Y-76544386D01*
X100649557Y-76528653D01*
X100535786Y-76445642D01*
X100389651Y-76371123D01*
X100230705Y-76312830D01*
X100078502Y-76278501D01*
X100002392Y-76272621D01*
X99904481Y-76290819D01*
X99793762Y-76338865D01*
X99689836Y-76405944D01*
X99612300Y-76481244D01*
X99604418Y-76492193D01*
X99572005Y-76550668D01*
X99527330Y-76645561D01*
X99475943Y-76764442D01*
X99423397Y-76894879D01*
X99415933Y-76914217D01*
X99364046Y-77049268D01*
X99328155Y-77143354D01*
X99305938Y-77204170D01*
X99295074Y-77239412D01*
X99293241Y-77256777D01*
X99298116Y-77263961D01*
X99307380Y-77268662D01*
X99308765Y-77269479D01*
X99350594Y-77289260D01*
X99430222Y-77321659D01*
X99539615Y-77363802D01*
X99670737Y-77412816D01*
X99815552Y-77465829D01*
X99966025Y-77519968D01*
X100114120Y-77572360D01*
X100251802Y-77620131D01*
X100371036Y-77660410D01*
X100408656Y-77672542D01*
X100408656Y-77258620D01*
X100232219Y-77193214D01*
X100056427Y-77127768D01*
X99923757Y-77077562D01*
X99828429Y-77040167D01*
X99764662Y-77013156D01*
X99726676Y-76994101D01*
X99708690Y-76980574D01*
X99704810Y-76971701D01*
X99715121Y-76935665D01*
X99741304Y-76871329D01*
X99758520Y-76833430D01*
X99821552Y-76734810D01*
X99900483Y-76682159D01*
X100003203Y-76671970D01*
X100088178Y-76686882D01*
X100225860Y-76733660D01*
X100342263Y-76797089D01*
X100425931Y-76869925D01*
X100458130Y-76920763D01*
X100476870Y-76993197D01*
X100470849Y-77073934D01*
X100438543Y-77179840D01*
X100433496Y-77193286D01*
X100408656Y-77258620D01*
X100408656Y-77672542D01*
X100463786Y-77690323D01*
X100522016Y-77706997D01*
X100538244Y-77709044D01*
X100553569Y-77678502D01*
X100582986Y-77608875D01*
X100622554Y-77509850D01*
X100668335Y-77391111D01*
X100678502Y-77364227D01*
X100749165Y-77159333D01*
X100791049Y-76990977D01*
X100803913Y-76852231D01*
X100787519Y-76736168D01*
G37*
X100787519Y-76736168D02*
X100741626Y-76635862D01*
X100665993Y-76544386D01*
X100649557Y-76528653D01*
X100535786Y-76445642D01*
X100389651Y-76371123D01*
X100230705Y-76312830D01*
X100078502Y-76278501D01*
X100002392Y-76272621D01*
X99904481Y-76290819D01*
X99793762Y-76338865D01*
X99689836Y-76405944D01*
X99612300Y-76481244D01*
X99604418Y-76492193D01*
X99572005Y-76550668D01*
X99527330Y-76645561D01*
X99475943Y-76764442D01*
X99423397Y-76894879D01*
X99415933Y-76914217D01*
X99364046Y-77049268D01*
X99328155Y-77143354D01*
X99305938Y-77204170D01*
X99295074Y-77239412D01*
X99293241Y-77256777D01*
X99298116Y-77263961D01*
X99307380Y-77268662D01*
X99308765Y-77269479D01*
X99350594Y-77289260D01*
X99430222Y-77321659D01*
X99539615Y-77363802D01*
X99670737Y-77412816D01*
X99815552Y-77465829D01*
X99966025Y-77519968D01*
X100114120Y-77572360D01*
X100251802Y-77620131D01*
X100371036Y-77660410D01*
X100408656Y-77672542D01*
X100408656Y-77258620D01*
X100232219Y-77193214D01*
X100056427Y-77127768D01*
X99923757Y-77077562D01*
X99828429Y-77040167D01*
X99764662Y-77013156D01*
X99726676Y-76994101D01*
X99708690Y-76980574D01*
X99704810Y-76971701D01*
X99715121Y-76935665D01*
X99741304Y-76871329D01*
X99758520Y-76833430D01*
X99821552Y-76734810D01*
X99900483Y-76682159D01*
X100003203Y-76671970D01*
X100088178Y-76686882D01*
X100225860Y-76733660D01*
X100342263Y-76797089D01*
X100425931Y-76869925D01*
X100458130Y-76920763D01*
X100476870Y-76993197D01*
X100470849Y-77073934D01*
X100438543Y-77179840D01*
X100433496Y-77193286D01*
X100408656Y-77258620D01*
X100408656Y-77672542D01*
X100463786Y-77690323D01*
X100522016Y-77706997D01*
X100538244Y-77709044D01*
X100553569Y-77678502D01*
X100582986Y-77608875D01*
X100622554Y-77509850D01*
X100668335Y-77391111D01*
X100678502Y-77364227D01*
X100749165Y-77159333D01*
X100791049Y-76990977D01*
X100803913Y-76852231D01*
X100787519Y-76736168D01*
G36*
X101120975Y-84200151D02*
G01*
X101085300Y-84116140D01*
X100984083Y-83950006D01*
X100861375Y-83831114D01*
X100716771Y-83759179D01*
X100549864Y-83733914D01*
X100543244Y-83733870D01*
X100488751Y-83736093D01*
X100464823Y-83751512D01*
X100465480Y-83792882D01*
X100482371Y-83863715D01*
X100503465Y-83948620D01*
X100521610Y-84025719D01*
X100521718Y-84026202D01*
X100546109Y-84080557D01*
X100595115Y-84097515D01*
X100603944Y-84097697D01*
X100706852Y-84119461D01*
X100784182Y-84185986D01*
X100809454Y-84227166D01*
X100845055Y-84334555D01*
X100831584Y-84431431D01*
X100780339Y-84512947D01*
X100697348Y-84587254D01*
X100584113Y-84657640D01*
X100461765Y-84712165D01*
X100391773Y-84732517D01*
X100279935Y-84733570D01*
X100185896Y-84688682D01*
X100116056Y-84602642D01*
X100080209Y-84499306D01*
X100080360Y-84428501D01*
X100114261Y-84351282D01*
X100131993Y-84323780D01*
X100170034Y-84259572D01*
X100180172Y-84208103D01*
X100158944Y-84156365D01*
X100102888Y-84091351D01*
X100058488Y-84047654D01*
X100002218Y-83995783D01*
X99967658Y-83976115D01*
X99939610Y-83984226D01*
X99914021Y-84005593D01*
X99829319Y-84115354D01*
X99777617Y-84254209D01*
X99760648Y-84409706D01*
X99780146Y-84569394D01*
X99819538Y-84683962D01*
X99922208Y-84859344D01*
X100048598Y-84989651D01*
X100195839Y-85073628D01*
X100361063Y-85110019D01*
X100541402Y-85097570D01*
X100676024Y-85058776D01*
X100865948Y-84966576D01*
X101011154Y-84850357D01*
X101110450Y-84712863D01*
X101162646Y-84556836D01*
X101166551Y-84385018D01*
X101120975Y-84200151D01*
G37*
X101120975Y-84200151D02*
X101085300Y-84116140D01*
X100984083Y-83950006D01*
X100861375Y-83831114D01*
X100716771Y-83759179D01*
X100549864Y-83733914D01*
X100543244Y-83733870D01*
X100488751Y-83736093D01*
X100464823Y-83751512D01*
X100465480Y-83792882D01*
X100482371Y-83863715D01*
X100503465Y-83948620D01*
X100521610Y-84025719D01*
X100521718Y-84026202D01*
X100546109Y-84080557D01*
X100595115Y-84097515D01*
X100603944Y-84097697D01*
X100706852Y-84119461D01*
X100784182Y-84185986D01*
X100809454Y-84227166D01*
X100845055Y-84334555D01*
X100831584Y-84431431D01*
X100780339Y-84512947D01*
X100697348Y-84587254D01*
X100584113Y-84657640D01*
X100461765Y-84712165D01*
X100391773Y-84732517D01*
X100279935Y-84733570D01*
X100185896Y-84688682D01*
X100116056Y-84602642D01*
X100080209Y-84499306D01*
X100080360Y-84428501D01*
X100114261Y-84351282D01*
X100131993Y-84323780D01*
X100170034Y-84259572D01*
X100180172Y-84208103D01*
X100158944Y-84156365D01*
X100102888Y-84091351D01*
X100058488Y-84047654D01*
X100002218Y-83995783D01*
X99967658Y-83976115D01*
X99939610Y-83984226D01*
X99914021Y-84005593D01*
X99829319Y-84115354D01*
X99777617Y-84254209D01*
X99760648Y-84409706D01*
X99780146Y-84569394D01*
X99819538Y-84683962D01*
X99922208Y-84859344D01*
X100048598Y-84989651D01*
X100195839Y-85073628D01*
X100361063Y-85110019D01*
X100541402Y-85097570D01*
X100676024Y-85058776D01*
X100865948Y-84966576D01*
X101011154Y-84850357D01*
X101110450Y-84712863D01*
X101162646Y-84556836D01*
X101166551Y-84385018D01*
X101120975Y-84200151D01*
G36*
X101752970Y-74931617D02*
G01*
X101710966Y-74866233D01*
X101672379Y-74822425D01*
X101560507Y-74737699D01*
X101436244Y-74702447D01*
X101304518Y-74717113D01*
X101176994Y-74777660D01*
X101108700Y-74822408D01*
X101108700Y-74732297D01*
X101098833Y-74660833D01*
X101067020Y-74572026D01*
X101009936Y-74458500D01*
X100924262Y-74312877D01*
X100907900Y-74286462D01*
X100828806Y-74159465D01*
X100738717Y-74300298D01*
X100673488Y-74402037D01*
X100632758Y-74474361D01*
X100616347Y-74531566D01*
X100624071Y-74587949D01*
X100655753Y-74657806D01*
X100711209Y-74755433D01*
X100732491Y-74792337D01*
X100800955Y-74914233D01*
X100844631Y-75001239D01*
X100866195Y-75062614D01*
X100868320Y-75107620D01*
X100853682Y-75145517D01*
X100840290Y-75165548D01*
X100821512Y-75185417D01*
X100797248Y-75190374D01*
X100758055Y-75177157D01*
X100694485Y-75142502D01*
X100597093Y-75083146D01*
X100591251Y-75079524D01*
X100497358Y-75022508D01*
X100419829Y-74977697D01*
X100369288Y-74951113D01*
X100356395Y-74946417D01*
X100335689Y-74966513D01*
X100297422Y-75017717D01*
X100250539Y-75086406D01*
X100203986Y-75158955D01*
X100166706Y-75221740D01*
X100147646Y-75261137D01*
X100146776Y-75265688D01*
X100167947Y-75282175D01*
X100227547Y-75322120D01*
X100319705Y-75381758D01*
X100438551Y-75457322D01*
X100578215Y-75545047D01*
X100711969Y-75628257D01*
X101275720Y-75977474D01*
X101275720Y-75488167D01*
X101251023Y-75482398D01*
X101199431Y-75456051D01*
X101136453Y-75418645D01*
X101077597Y-75379694D01*
X101038370Y-75348714D01*
X101030706Y-75337817D01*
X101044800Y-75307088D01*
X101080780Y-75250322D01*
X101107884Y-75211649D01*
X101184237Y-75119109D01*
X101249363Y-75071877D01*
X101310175Y-75066532D01*
X101357424Y-75088158D01*
X101407878Y-75148571D01*
X101413390Y-75233127D01*
X101374260Y-75340347D01*
X101290792Y-75468754D01*
X101275720Y-75488167D01*
X101275720Y-75977474D01*
X101277163Y-75978368D01*
X101495275Y-75625103D01*
X101605991Y-75441553D01*
X101687710Y-75293755D01*
X101741850Y-75175285D01*
X101769829Y-75079720D01*
X101773063Y-75000639D01*
X101752970Y-74931617D01*
G37*
X101752970Y-74931617D02*
X101710966Y-74866233D01*
X101672379Y-74822425D01*
X101560507Y-74737699D01*
X101436244Y-74702447D01*
X101304518Y-74717113D01*
X101176994Y-74777660D01*
X101108700Y-74822408D01*
X101108700Y-74732297D01*
X101098833Y-74660833D01*
X101067020Y-74572026D01*
X101009936Y-74458500D01*
X100924262Y-74312877D01*
X100907900Y-74286462D01*
X100828806Y-74159465D01*
X100738717Y-74300298D01*
X100673488Y-74402037D01*
X100632758Y-74474361D01*
X100616347Y-74531566D01*
X100624071Y-74587949D01*
X100655753Y-74657806D01*
X100711209Y-74755433D01*
X100732491Y-74792337D01*
X100800955Y-74914233D01*
X100844631Y-75001239D01*
X100866195Y-75062614D01*
X100868320Y-75107620D01*
X100853682Y-75145517D01*
X100840290Y-75165548D01*
X100821512Y-75185417D01*
X100797248Y-75190374D01*
X100758055Y-75177157D01*
X100694485Y-75142502D01*
X100597093Y-75083146D01*
X100591251Y-75079524D01*
X100497358Y-75022508D01*
X100419829Y-74977697D01*
X100369288Y-74951113D01*
X100356395Y-74946417D01*
X100335689Y-74966513D01*
X100297422Y-75017717D01*
X100250539Y-75086406D01*
X100203986Y-75158955D01*
X100166706Y-75221740D01*
X100147646Y-75261137D01*
X100146776Y-75265688D01*
X100167947Y-75282175D01*
X100227547Y-75322120D01*
X100319705Y-75381758D01*
X100438551Y-75457322D01*
X100578215Y-75545047D01*
X100711969Y-75628257D01*
X101275720Y-75977474D01*
X101275720Y-75488167D01*
X101251023Y-75482398D01*
X101199431Y-75456051D01*
X101136453Y-75418645D01*
X101077597Y-75379694D01*
X101038370Y-75348714D01*
X101030706Y-75337817D01*
X101044800Y-75307088D01*
X101080780Y-75250322D01*
X101107884Y-75211649D01*
X101184237Y-75119109D01*
X101249363Y-75071877D01*
X101310175Y-75066532D01*
X101357424Y-75088158D01*
X101407878Y-75148571D01*
X101413390Y-75233127D01*
X101374260Y-75340347D01*
X101290792Y-75468754D01*
X101275720Y-75488167D01*
X101275720Y-75977474D01*
X101277163Y-75978368D01*
X101495275Y-75625103D01*
X101605991Y-75441553D01*
X101687710Y-75293755D01*
X101741850Y-75175285D01*
X101769829Y-75079720D01*
X101773063Y-75000639D01*
X101752970Y-74931617D01*
G36*
X101128918Y-85034122D02*
G01*
X101033955Y-85092368D01*
X100976649Y-85127285D01*
X100886157Y-85182155D01*
X100773834Y-85250103D01*
X100651035Y-85324254D01*
X100620877Y-85342444D01*
X100507580Y-85411924D01*
X100412410Y-85472499D01*
X100343241Y-85518985D01*
X100307944Y-85546197D01*
X100305053Y-85550428D01*
X100318743Y-85579612D01*
X100352006Y-85639137D01*
X100389546Y-85702615D01*
X100435430Y-85774266D01*
X100472041Y-85823723D01*
X100489189Y-85839104D01*
X100500097Y-85835983D01*
X100523480Y-85824411D01*
X100564075Y-85801560D01*
X100626621Y-85764605D01*
X100715854Y-85710720D01*
X100836514Y-85637079D01*
X100993336Y-85540857D01*
X101126586Y-85458908D01*
X101313460Y-85343914D01*
X101128918Y-85034122D01*
G37*
X101128918Y-85034122D02*
X101033955Y-85092368D01*
X100976649Y-85127285D01*
X100886157Y-85182155D01*
X100773834Y-85250103D01*
X100651035Y-85324254D01*
X100620877Y-85342444D01*
X100507580Y-85411924D01*
X100412410Y-85472499D01*
X100343241Y-85518985D01*
X100307944Y-85546197D01*
X100305053Y-85550428D01*
X100318743Y-85579612D01*
X100352006Y-85639137D01*
X100389546Y-85702615D01*
X100435430Y-85774266D01*
X100472041Y-85823723D01*
X100489189Y-85839104D01*
X100500097Y-85835983D01*
X100523480Y-85824411D01*
X100564075Y-85801560D01*
X100626621Y-85764605D01*
X100715854Y-85710720D01*
X100836514Y-85637079D01*
X100993336Y-85540857D01*
X101126586Y-85458908D01*
X101313460Y-85343914D01*
X101128918Y-85034122D01*
G36*
X101920355Y-86214427D02*
G01*
X101825147Y-86078186D01*
X101752235Y-86130104D01*
X101679322Y-86182022D01*
X101695884Y-86078453D01*
X101696239Y-85945950D01*
X101658302Y-85828725D01*
X101589705Y-85733635D01*
X101498075Y-85667537D01*
X101391045Y-85637289D01*
X101276243Y-85649747D01*
X101236112Y-85665246D01*
X101190509Y-85691617D01*
X101118276Y-85739164D01*
X101028706Y-85801130D01*
X100931094Y-85870755D01*
X100834736Y-85941283D01*
X100748925Y-86005956D01*
X100682957Y-86058016D01*
X100646126Y-86090705D01*
X100641526Y-86097538D01*
X100656371Y-86124763D01*
X100694053Y-86180026D01*
X100735010Y-86236028D01*
X100788967Y-86302140D01*
X100833832Y-86346955D01*
X100855396Y-86359519D01*
X100887409Y-86344760D01*
X100949363Y-86305321D01*
X101030165Y-86248455D01*
X101067388Y-86220869D01*
X101203718Y-86122090D01*
X101307516Y-86056974D01*
X101384330Y-86023784D01*
X101439713Y-86020783D01*
X101479213Y-86046232D01*
X101502526Y-86084623D01*
X101521481Y-86147557D01*
X101514120Y-86206728D01*
X101475881Y-86269120D01*
X101402201Y-86341712D01*
X101288517Y-86431485D01*
X101263950Y-86449644D01*
X101153063Y-86534941D01*
X101080048Y-86599883D01*
X101047625Y-86641916D01*
X101047294Y-86653232D01*
X101100912Y-86737144D01*
X101157724Y-86812721D01*
X101208647Y-86869180D01*
X101244597Y-86895733D01*
X101251786Y-86896037D01*
X101281457Y-86877717D01*
X101345629Y-86833868D01*
X101436870Y-86769704D01*
X101547750Y-86690443D01*
X101648200Y-86617778D01*
X102015562Y-86350668D01*
X101920355Y-86214427D01*
G37*
X101920355Y-86214427D02*
X101825147Y-86078186D01*
X101752235Y-86130104D01*
X101679322Y-86182022D01*
X101695884Y-86078453D01*
X101696239Y-85945950D01*
X101658302Y-85828725D01*
X101589705Y-85733635D01*
X101498075Y-85667537D01*
X101391045Y-85637289D01*
X101276243Y-85649747D01*
X101236112Y-85665246D01*
X101190509Y-85691617D01*
X101118276Y-85739164D01*
X101028706Y-85801130D01*
X100931094Y-85870755D01*
X100834736Y-85941283D01*
X100748925Y-86005956D01*
X100682957Y-86058016D01*
X100646126Y-86090705D01*
X100641526Y-86097538D01*
X100656371Y-86124763D01*
X100694053Y-86180026D01*
X100735010Y-86236028D01*
X100788967Y-86302140D01*
X100833832Y-86346955D01*
X100855396Y-86359519D01*
X100887409Y-86344760D01*
X100949363Y-86305321D01*
X101030165Y-86248455D01*
X101067388Y-86220869D01*
X101203718Y-86122090D01*
X101307516Y-86056974D01*
X101384330Y-86023784D01*
X101439713Y-86020783D01*
X101479213Y-86046232D01*
X101502526Y-86084623D01*
X101521481Y-86147557D01*
X101514120Y-86206728D01*
X101475881Y-86269120D01*
X101402201Y-86341712D01*
X101288517Y-86431485D01*
X101263950Y-86449644D01*
X101153063Y-86534941D01*
X101080048Y-86599883D01*
X101047625Y-86641916D01*
X101047294Y-86653232D01*
X101100912Y-86737144D01*
X101157724Y-86812721D01*
X101208647Y-86869180D01*
X101244597Y-86895733D01*
X101251786Y-86896037D01*
X101281457Y-86877717D01*
X101345629Y-86833868D01*
X101436870Y-86769704D01*
X101547750Y-86690443D01*
X101648200Y-86617778D01*
X102015562Y-86350668D01*
X101920355Y-86214427D01*
G36*
X101895012Y-74304829D02*
G01*
X101841581Y-74258885D01*
X101762505Y-74194756D01*
X101665948Y-74118695D01*
X101560070Y-74036955D01*
X101453035Y-73955792D01*
X101353005Y-73881458D01*
X101268143Y-73820209D01*
X101206611Y-73778299D01*
X101178910Y-73762609D01*
X101147907Y-73776447D01*
X101098552Y-73825372D01*
X101039167Y-73899839D01*
X100978075Y-73990303D01*
X100972554Y-73999269D01*
X100984784Y-74028701D01*
X101040186Y-74084644D01*
X101137753Y-74166184D01*
X101258532Y-74259014D01*
X101374309Y-74345686D01*
X101481745Y-74426151D01*
X101570804Y-74492892D01*
X101631453Y-74538389D01*
X101643154Y-74547183D01*
X101722643Y-74606982D01*
X101818640Y-74478399D01*
X101869235Y-74407078D01*
X101904016Y-74351260D01*
X101914636Y-74326331D01*
X101895012Y-74304829D01*
G37*
X101895012Y-74304829D02*
X101841581Y-74258885D01*
X101762505Y-74194756D01*
X101665948Y-74118695D01*
X101560070Y-74036955D01*
X101453035Y-73955792D01*
X101353005Y-73881458D01*
X101268143Y-73820209D01*
X101206611Y-73778299D01*
X101178910Y-73762609D01*
X101147907Y-73776447D01*
X101098552Y-73825372D01*
X101039167Y-73899839D01*
X100978075Y-73990303D01*
X100972554Y-73999269D01*
X100984784Y-74028701D01*
X101040186Y-74084644D01*
X101137753Y-74166184D01*
X101258532Y-74259014D01*
X101374309Y-74345686D01*
X101481745Y-74426151D01*
X101570804Y-74492892D01*
X101631453Y-74538389D01*
X101643154Y-74547183D01*
X101722643Y-74606982D01*
X101818640Y-74478399D01*
X101869235Y-74407078D01*
X101904016Y-74351260D01*
X101914636Y-74326331D01*
X101895012Y-74304829D01*
G36*
X101623254Y-85140680D02*
G01*
X101596457Y-85089104D01*
X101557178Y-85020627D01*
X101514063Y-84949391D01*
X101475755Y-84889538D01*
X101450899Y-84855212D01*
X101446673Y-84851797D01*
X101418449Y-84864142D01*
X101362900Y-84895049D01*
X101337337Y-84910266D01*
X101241001Y-84968628D01*
X101320788Y-85098618D01*
X101367157Y-85172480D01*
X101404131Y-85228373D01*
X101419803Y-85249484D01*
X101449678Y-85249597D01*
X101502726Y-85229382D01*
X101561216Y-85198320D01*
X101607415Y-85165897D01*
X101623589Y-85141594D01*
X101623254Y-85140680D01*
G37*
X101623254Y-85140680D02*
X101596457Y-85089104D01*
X101557178Y-85020627D01*
X101514063Y-84949391D01*
X101475755Y-84889538D01*
X101450899Y-84855212D01*
X101446673Y-84851797D01*
X101418449Y-84864142D01*
X101362900Y-84895049D01*
X101337337Y-84910266D01*
X101241001Y-84968628D01*
X101320788Y-85098618D01*
X101367157Y-85172480D01*
X101404131Y-85228373D01*
X101419803Y-85249484D01*
X101449678Y-85249597D01*
X101502726Y-85229382D01*
X101561216Y-85198320D01*
X101607415Y-85165897D01*
X101623589Y-85141594D01*
X101623254Y-85140680D01*
G36*
X102594730Y-73290296D02*
G01*
X102564871Y-73253522D01*
X102502757Y-73189954D01*
X102415740Y-73106492D01*
X102311169Y-73010033D01*
X102196395Y-72907473D01*
X102078770Y-72805710D01*
X102073911Y-72801586D01*
X102012610Y-72749590D01*
X101782904Y-73009570D01*
X102017757Y-73230820D01*
X102130730Y-73341274D01*
X102205199Y-73425749D01*
X102243783Y-73490082D01*
X102249101Y-73540112D01*
X102223774Y-73581677D01*
X102187804Y-73609789D01*
X102135370Y-73634900D01*
X102081270Y-73636834D01*
X102017551Y-73612137D01*
X101936258Y-73557354D01*
X101829437Y-73469033D01*
X101795864Y-73439586D01*
X101709606Y-73364630D01*
X101637651Y-73304553D01*
X101588817Y-73266568D01*
X101572584Y-73256911D01*
X101548349Y-73275148D01*
X101501920Y-73323106D01*
X101448626Y-73384207D01*
X101341746Y-73511864D01*
X101695421Y-73830095D01*
X102049095Y-74148326D01*
X102290615Y-73906806D01*
X102232616Y-73866182D01*
X102183583Y-73821671D01*
X102184314Y-73792066D01*
X102234628Y-73777813D01*
X102269040Y-73776509D01*
X102383624Y-73754280D01*
X102483435Y-73694570D01*
X102561461Y-73607848D01*
X102610691Y-73504579D01*
X102624114Y-73395232D01*
X102594730Y-73290296D01*
G37*
X102594730Y-73290296D02*
X102564871Y-73253522D01*
X102502757Y-73189954D01*
X102415740Y-73106492D01*
X102311169Y-73010033D01*
X102196395Y-72907473D01*
X102078770Y-72805710D01*
X102073911Y-72801586D01*
X102012610Y-72749590D01*
X101782904Y-73009570D01*
X102017757Y-73230820D01*
X102130730Y-73341274D01*
X102205199Y-73425749D01*
X102243783Y-73490082D01*
X102249101Y-73540112D01*
X102223774Y-73581677D01*
X102187804Y-73609789D01*
X102135370Y-73634900D01*
X102081270Y-73636834D01*
X102017551Y-73612137D01*
X101936258Y-73557354D01*
X101829437Y-73469033D01*
X101795864Y-73439586D01*
X101709606Y-73364630D01*
X101637651Y-73304553D01*
X101588817Y-73266568D01*
X101572584Y-73256911D01*
X101548349Y-73275148D01*
X101501920Y-73323106D01*
X101448626Y-73384207D01*
X101341746Y-73511864D01*
X101695421Y-73830095D01*
X102049095Y-74148326D01*
X102290615Y-73906806D01*
X102232616Y-73866182D01*
X102183583Y-73821671D01*
X102184314Y-73792066D01*
X102234628Y-73777813D01*
X102269040Y-73776509D01*
X102383624Y-73754280D01*
X102483435Y-73694570D01*
X102561461Y-73607848D01*
X102610691Y-73504579D01*
X102624114Y-73395232D01*
X102594730Y-73290296D01*
G36*
X102276707Y-86643226D02*
G01*
X102218216Y-86577942D01*
X102171352Y-86533935D01*
X102147221Y-86520943D01*
X102121209Y-86539696D01*
X102063197Y-86586411D01*
X101980516Y-86655035D01*
X101880495Y-86739518D01*
X101823159Y-86788485D01*
X101713819Y-86881991D01*
X101615093Y-86966011D01*
X101535278Y-87033515D01*
X101482671Y-87077473D01*
X101469651Y-87088042D01*
X101444776Y-87111225D01*
X101440032Y-87135514D01*
X101459458Y-87172447D01*
X101507091Y-87233562D01*
X101530545Y-87262041D01*
X101588429Y-87330010D01*
X101633060Y-87378611D01*
X101654657Y-87397245D01*
X101677716Y-87381452D01*
X101732457Y-87337698D01*
X101811447Y-87272283D01*
X101907253Y-87191505D01*
X102012442Y-87101661D01*
X102119581Y-87009050D01*
X102221237Y-86919970D01*
X102286518Y-86861863D01*
X102385421Y-86773072D01*
X102276707Y-86643226D01*
G37*
X102276707Y-86643226D02*
X102218216Y-86577942D01*
X102171352Y-86533935D01*
X102147221Y-86520943D01*
X102121209Y-86539696D01*
X102063197Y-86586411D01*
X101980516Y-86655035D01*
X101880495Y-86739518D01*
X101823159Y-86788485D01*
X101713819Y-86881991D01*
X101615093Y-86966011D01*
X101535278Y-87033515D01*
X101482671Y-87077473D01*
X101469651Y-87088042D01*
X101444776Y-87111225D01*
X101440032Y-87135514D01*
X101459458Y-87172447D01*
X101507091Y-87233562D01*
X101530545Y-87262041D01*
X101588429Y-87330010D01*
X101633060Y-87378611D01*
X101654657Y-87397245D01*
X101677716Y-87381452D01*
X101732457Y-87337698D01*
X101811447Y-87272283D01*
X101907253Y-87191505D01*
X102012442Y-87101661D01*
X102119581Y-87009050D01*
X102221237Y-86919970D01*
X102286518Y-86861863D01*
X102385421Y-86773072D01*
X102276707Y-86643226D01*
G36*
X103674642Y-87534536D02*
G01*
X103486467Y-87347617D01*
X103126525Y-87569852D01*
X103005403Y-87643880D01*
X102900659Y-87706463D01*
X102819815Y-87753223D01*
X102770390Y-87779782D01*
X102758556Y-87784059D01*
X102767928Y-87759934D01*
X102798998Y-87698420D01*
X102847657Y-87607264D01*
X102909795Y-87494217D01*
X102955704Y-87412248D01*
X103160881Y-87048464D01*
X102986920Y-86872978D01*
X102908662Y-86796949D01*
X102841990Y-86737521D01*
X102796442Y-86702937D01*
X102783861Y-86697492D01*
X102758611Y-86715540D01*
X102702783Y-86766320D01*
X102621529Y-86844786D01*
X102519996Y-86945894D01*
X102403337Y-87064597D01*
X102299552Y-87171990D01*
X101844343Y-87646488D01*
X101967775Y-87756660D01*
X102091208Y-87866831D01*
X102435523Y-87502446D01*
X102542469Y-87390260D01*
X102636898Y-87293090D01*
X102713214Y-87216542D01*
X102765820Y-87166219D01*
X102789120Y-87147728D01*
X102789631Y-87147853D01*
X102780340Y-87171905D01*
X102749771Y-87232825D01*
X102702466Y-87322350D01*
X102642969Y-87432217D01*
X102575826Y-87554166D01*
X102505581Y-87679932D01*
X102436776Y-87801254D01*
X102373957Y-87909870D01*
X102328543Y-87986226D01*
X102280133Y-88066054D01*
X102389861Y-88171925D01*
X102499590Y-88277797D01*
X102928556Y-88007999D01*
X103062386Y-87924596D01*
X103181810Y-87851628D01*
X103279657Y-87793359D01*
X103348752Y-87754052D01*
X103381924Y-87737973D01*
X103383033Y-87737805D01*
X103375417Y-87754968D01*
X103336911Y-87802337D01*
X103273317Y-87873277D01*
X103190438Y-87961155D01*
X103161649Y-87990890D01*
X103059712Y-88095956D01*
X102960865Y-88198558D01*
X102875922Y-88287427D01*
X102815692Y-88351298D01*
X102812320Y-88354931D01*
X102709884Y-88465492D01*
X102820705Y-88578411D01*
X102931526Y-88691329D01*
X103249975Y-88363858D01*
X103367200Y-88242946D01*
X103484150Y-88121673D01*
X103590829Y-88010447D01*
X103677242Y-87919678D01*
X103715621Y-87878921D01*
X103862818Y-87721456D01*
X103674642Y-87534536D01*
G37*
X103674642Y-87534536D02*
X103486467Y-87347617D01*
X103126525Y-87569852D01*
X103005403Y-87643880D01*
X102900659Y-87706463D01*
X102819815Y-87753223D01*
X102770390Y-87779782D01*
X102758556Y-87784059D01*
X102767928Y-87759934D01*
X102798998Y-87698420D01*
X102847657Y-87607264D01*
X102909795Y-87494217D01*
X102955704Y-87412248D01*
X103160881Y-87048464D01*
X102986920Y-86872978D01*
X102908662Y-86796949D01*
X102841990Y-86737521D01*
X102796442Y-86702937D01*
X102783861Y-86697492D01*
X102758611Y-86715540D01*
X102702783Y-86766320D01*
X102621529Y-86844786D01*
X102519996Y-86945894D01*
X102403337Y-87064597D01*
X102299552Y-87171990D01*
X101844343Y-87646488D01*
X101967775Y-87756660D01*
X102091208Y-87866831D01*
X102435523Y-87502446D01*
X102542469Y-87390260D01*
X102636898Y-87293090D01*
X102713214Y-87216542D01*
X102765820Y-87166219D01*
X102789120Y-87147728D01*
X102789631Y-87147853D01*
X102780340Y-87171905D01*
X102749771Y-87232825D01*
X102702466Y-87322350D01*
X102642969Y-87432217D01*
X102575826Y-87554166D01*
X102505581Y-87679932D01*
X102436776Y-87801254D01*
X102373957Y-87909870D01*
X102328543Y-87986226D01*
X102280133Y-88066054D01*
X102389861Y-88171925D01*
X102499590Y-88277797D01*
X102928556Y-88007999D01*
X103062386Y-87924596D01*
X103181810Y-87851628D01*
X103279657Y-87793359D01*
X103348752Y-87754052D01*
X103381924Y-87737973D01*
X103383033Y-87737805D01*
X103375417Y-87754968D01*
X103336911Y-87802337D01*
X103273317Y-87873277D01*
X103190438Y-87961155D01*
X103161649Y-87990890D01*
X103059712Y-88095956D01*
X102960865Y-88198558D01*
X102875922Y-88287427D01*
X102815692Y-88351298D01*
X102812320Y-88354931D01*
X102709884Y-88465492D01*
X102820705Y-88578411D01*
X102931526Y-88691329D01*
X103249975Y-88363858D01*
X103367200Y-88242946D01*
X103484150Y-88121673D01*
X103590829Y-88010447D01*
X103677242Y-87919678D01*
X103715621Y-87878921D01*
X103862818Y-87721456D01*
X103674642Y-87534536D01*
G36*
X102158018Y-74489178D02*
G01*
X102102145Y-74448766D01*
X102060925Y-74428059D01*
X102056675Y-74427393D01*
X102031736Y-74445748D01*
X101987281Y-74492618D01*
X101934445Y-74554516D01*
X101884363Y-74617959D01*
X101848170Y-74669458D01*
X101836642Y-74693872D01*
X101855325Y-74713408D01*
X101901471Y-74750477D01*
X101913584Y-74759542D01*
X101969642Y-74797025D01*
X102008358Y-74815892D01*
X102012026Y-74816428D01*
X102037553Y-74797122D01*
X102082926Y-74746751D01*
X102132970Y-74683228D01*
X102232413Y-74550028D01*
X102158018Y-74489178D01*
G37*
X102158018Y-74489178D02*
X102102145Y-74448766D01*
X102060925Y-74428059D01*
X102056675Y-74427393D01*
X102031736Y-74445748D01*
X101987281Y-74492618D01*
X101934445Y-74554516D01*
X101884363Y-74617959D01*
X101848170Y-74669458D01*
X101836642Y-74693872D01*
X101855325Y-74713408D01*
X101901471Y-74750477D01*
X101913584Y-74759542D01*
X101969642Y-74797025D01*
X102008358Y-74815892D01*
X102012026Y-74816428D01*
X102037553Y-74797122D01*
X102082926Y-74746751D01*
X102132970Y-74683228D01*
X102232413Y-74550028D01*
X102158018Y-74489178D01*
G36*
X103248369Y-72174382D02*
G01*
X103105339Y-72023731D01*
X102990012Y-71908795D01*
X102896309Y-71825764D01*
X102818149Y-71770830D01*
X102749453Y-71740182D01*
X102684140Y-71730009D01*
X102616131Y-71736504D01*
X102567664Y-71747840D01*
X102481945Y-71787293D01*
X102380518Y-71858157D01*
X102276492Y-71948562D01*
X102182974Y-72046637D01*
X102113071Y-72140511D01*
X102093078Y-72177635D01*
X102060313Y-72254631D01*
X102049261Y-72307252D01*
X102058882Y-72357882D01*
X102082073Y-72414995D01*
X102113484Y-72475176D01*
X102141916Y-72511352D01*
X102143609Y-72512513D01*
X102174793Y-72504255D01*
X102222178Y-72462997D01*
X102276204Y-72400905D01*
X102327308Y-72330145D01*
X102365931Y-72262882D01*
X102382511Y-72211282D01*
X102382599Y-72208412D01*
X102404785Y-72143274D01*
X102459367Y-72082101D01*
X102528382Y-72041799D01*
X102567225Y-72034647D01*
X102611883Y-72052121D01*
X102673796Y-72096792D01*
X102711852Y-72131651D01*
X102808856Y-72228655D01*
X102693220Y-72247979D01*
X102600923Y-72275338D01*
X102520755Y-72330737D01*
X102480092Y-72370951D01*
X102421746Y-72439053D01*
X102392740Y-72497249D01*
X102383188Y-72569762D01*
X102382599Y-72609810D01*
X102404139Y-72751516D01*
X102463272Y-72881445D01*
X102551771Y-72992592D01*
X102661409Y-73077949D01*
X102783958Y-73130510D01*
X102911191Y-73143269D01*
X102936990Y-73138159D01*
X102936990Y-72803902D01*
X102870769Y-72784584D01*
X102799366Y-72724783D01*
X102762374Y-72683187D01*
X102707888Y-72598835D01*
X102700990Y-72525703D01*
X102741527Y-72454405D01*
X102758388Y-72436433D01*
X102817056Y-72387919D01*
X102870080Y-72376927D01*
X102936120Y-72402150D01*
X102969625Y-72421638D01*
X103047471Y-72490025D01*
X103092325Y-72572599D01*
X103102878Y-72657274D01*
X103077821Y-72731961D01*
X103015846Y-72784574D01*
X103009240Y-72787473D01*
X102936990Y-72803902D01*
X102936990Y-73138159D01*
X102990557Y-73127549D01*
X103094714Y-73069167D01*
X103183834Y-72976001D01*
X103243350Y-72865263D01*
X103256798Y-72813014D01*
X103268959Y-72748325D01*
X103283067Y-72726936D01*
X103308289Y-72740650D01*
X103323108Y-72753737D01*
X103352071Y-72775759D01*
X103379094Y-72777060D01*
X103416001Y-72752459D01*
X103474609Y-72696772D01*
X103491540Y-72679883D01*
X103610325Y-72561099D01*
X103248369Y-72174382D01*
G37*
X103248369Y-72174382D02*
X103105339Y-72023731D01*
X102990012Y-71908795D01*
X102896309Y-71825764D01*
X102818149Y-71770830D01*
X102749453Y-71740182D01*
X102684140Y-71730009D01*
X102616131Y-71736504D01*
X102567664Y-71747840D01*
X102481945Y-71787293D01*
X102380518Y-71858157D01*
X102276492Y-71948562D01*
X102182974Y-72046637D01*
X102113071Y-72140511D01*
X102093078Y-72177635D01*
X102060313Y-72254631D01*
X102049261Y-72307252D01*
X102058882Y-72357882D01*
X102082073Y-72414995D01*
X102113484Y-72475176D01*
X102141916Y-72511352D01*
X102143609Y-72512513D01*
X102174793Y-72504255D01*
X102222178Y-72462997D01*
X102276204Y-72400905D01*
X102327308Y-72330145D01*
X102365931Y-72262882D01*
X102382511Y-72211282D01*
X102382599Y-72208412D01*
X102404785Y-72143274D01*
X102459367Y-72082101D01*
X102528382Y-72041799D01*
X102567225Y-72034647D01*
X102611883Y-72052121D01*
X102673796Y-72096792D01*
X102711852Y-72131651D01*
X102808856Y-72228655D01*
X102693220Y-72247979D01*
X102600923Y-72275338D01*
X102520755Y-72330737D01*
X102480092Y-72370951D01*
X102421746Y-72439053D01*
X102392740Y-72497249D01*
X102383188Y-72569762D01*
X102382599Y-72609810D01*
X102404139Y-72751516D01*
X102463272Y-72881445D01*
X102551771Y-72992592D01*
X102661409Y-73077949D01*
X102783958Y-73130510D01*
X102911191Y-73143269D01*
X102936990Y-73138159D01*
X102936990Y-72803902D01*
X102870769Y-72784584D01*
X102799366Y-72724783D01*
X102762374Y-72683187D01*
X102707888Y-72598835D01*
X102700990Y-72525703D01*
X102741527Y-72454405D01*
X102758388Y-72436433D01*
X102817056Y-72387919D01*
X102870080Y-72376927D01*
X102936120Y-72402150D01*
X102969625Y-72421638D01*
X103047471Y-72490025D01*
X103092325Y-72572599D01*
X103102878Y-72657274D01*
X103077821Y-72731961D01*
X103015846Y-72784574D01*
X103009240Y-72787473D01*
X102936990Y-72803902D01*
X102936990Y-73138159D01*
X102990557Y-73127549D01*
X103094714Y-73069167D01*
X103183834Y-72976001D01*
X103243350Y-72865263D01*
X103256798Y-72813014D01*
X103268959Y-72748325D01*
X103283067Y-72726936D01*
X103308289Y-72740650D01*
X103323108Y-72753737D01*
X103352071Y-72775759D01*
X103379094Y-72777060D01*
X103416001Y-72752459D01*
X103474609Y-72696772D01*
X103491540Y-72679883D01*
X103610325Y-72561099D01*
X103248369Y-72174382D01*
G36*
X102625796Y-86478826D02*
G01*
X102575476Y-86416408D01*
X102555444Y-86392859D01*
X102442745Y-86260828D01*
X102360676Y-86325057D01*
X102308630Y-86372940D01*
X102280766Y-86412536D01*
X102279258Y-86419898D01*
X102296327Y-86454167D01*
X102339800Y-86511096D01*
X102384445Y-86561278D01*
X102454661Y-86627644D01*
X102508658Y-86651901D01*
X102559673Y-86634787D01*
X102620941Y-86577042D01*
X102623155Y-86574602D01*
X102645103Y-86545757D01*
X102647494Y-86517887D01*
X102625796Y-86478826D01*
G37*
X102625796Y-86478826D02*
X102575476Y-86416408D01*
X102555444Y-86392859D01*
X102442745Y-86260828D01*
X102360676Y-86325057D01*
X102308630Y-86372940D01*
X102280766Y-86412536D01*
X102279258Y-86419898D01*
X102296327Y-86454167D01*
X102339800Y-86511096D01*
X102384445Y-86561278D01*
X102454661Y-86627644D01*
X102508658Y-86651901D01*
X102559673Y-86634787D01*
X102620941Y-86577042D01*
X102623155Y-86574602D01*
X102645103Y-86545757D01*
X102647494Y-86517887D01*
X102625796Y-86478826D01*
D11*
X114708395Y-66542428D02*
X116819459Y-67416859D01*
X116819459Y-67416859D02*
X116256915Y-68774962D01*
X116256915Y-68774962D02*
X114145850Y-67900531D01*
X119499980Y-69368649D02*
X121115719Y-70984388D01*
X121115719Y-70984388D02*
X120076272Y-72023835D01*
X120076272Y-72023835D02*
X118460533Y-70408096D01*
X122845279Y-73813398D02*
X123719710Y-75924463D01*
X123719710Y-75924463D02*
X122361607Y-76487007D01*
X122361607Y-76487007D02*
X121487176Y-74375943D01*
X124235000Y-79200000D02*
X124235000Y-81485000D01*
X124235000Y-81485000D02*
X122765000Y-81485000D01*
X122765000Y-81485000D02*
X122765000Y-79200000D01*
X123457572Y-84708395D02*
X122583141Y-86819459D01*
X122583141Y-86819459D02*
X121225038Y-86256915D01*
X121225038Y-86256915D02*
X122099469Y-84145850D01*
X120631351Y-89499980D02*
X119015612Y-91115719D01*
X119015612Y-91115719D02*
X117976165Y-90076272D01*
X117976165Y-90076272D02*
X119591904Y-88460533D01*
X116186602Y-92845279D02*
X114075537Y-93719710D01*
X114075537Y-93719710D02*
X113512993Y-92361607D01*
X113512993Y-92361607D02*
X115624057Y-91487176D01*
X110800000Y-94235000D02*
X108515000Y-94235000D01*
X108515000Y-94235000D02*
X108515000Y-92765000D01*
X108515000Y-92765000D02*
X110800000Y-92765000D01*
X104375943Y-91487176D02*
X106487007Y-92361607D01*
X106487007Y-92361607D02*
X105924463Y-93719710D01*
X105924463Y-93719710D02*
X103813398Y-92845279D01*
X100408096Y-88460533D02*
X102023835Y-90076272D01*
X102023835Y-90076272D02*
X100984388Y-91115719D01*
X100984388Y-91115719D02*
X99368649Y-89499980D01*
X97900531Y-84145850D02*
X98774962Y-86256915D01*
X98774962Y-86256915D02*
X97416859Y-86819459D01*
X97416859Y-86819459D02*
X96542428Y-84708395D01*
X97235000Y-79200000D02*
X97235000Y-81485000D01*
X97235000Y-81485000D02*
X95765000Y-81485000D01*
X95765000Y-81485000D02*
X95765000Y-79200000D01*
X98512824Y-74375943D02*
X97638393Y-76487007D01*
X97638393Y-76487007D02*
X96280290Y-75924463D01*
X96280290Y-75924463D02*
X97154721Y-73813398D01*
X101539467Y-70408096D02*
X99923728Y-72023835D01*
X99923728Y-72023835D02*
X98884281Y-70984388D01*
X98884281Y-70984388D02*
X100500020Y-69368649D01*
X105854150Y-67900531D02*
X103743085Y-68774962D01*
X103743085Y-68774962D02*
X103180541Y-67416859D01*
X103180541Y-67416859D02*
X105291605Y-66542428D01*
X108515000Y-65765000D02*
X110800000Y-65765000D01*
X108515000Y-67235000D02*
X108515000Y-65765000D01*
X110800000Y-67235000D02*
X108515000Y-67235000D01*
X114884596Y-68981001D02*
X115075937Y-68519061D01*
X114965952Y-68473503D01*
X114890849Y-68468166D01*
X114828632Y-68493937D01*
X114788411Y-68528820D01*
X114729968Y-68607697D01*
X114702634Y-68673688D01*
X114688185Y-68770788D01*
X114691959Y-68823894D01*
X114717730Y-68886111D01*
X114774610Y-68935443D01*
X114884596Y-68981001D01*
X114400659Y-68780547D02*
X114312670Y-68744101D01*
X114277788Y-68703881D01*
X114264902Y-68672773D01*
X114248242Y-68588558D01*
X114262691Y-68491458D01*
X114335583Y-68315481D01*
X114375803Y-68280598D01*
X114406912Y-68267713D01*
X114460018Y-68263939D01*
X114548006Y-68300385D01*
X114582889Y-68340605D01*
X114595775Y-68371713D01*
X114599549Y-68424819D01*
X114553991Y-68534805D01*
X114513771Y-68569688D01*
X114482662Y-68582573D01*
X114429557Y-68586347D01*
X114341568Y-68549901D01*
X114306685Y-68509681D01*
X114293800Y-68478573D01*
X114290026Y-68425467D01*
X119192174Y-72064855D02*
X119545727Y-71711302D01*
X119461548Y-71627122D01*
X119394204Y-71593451D01*
X119326861Y-71593451D01*
X119276353Y-71610287D01*
X119192174Y-71660794D01*
X119141666Y-71711302D01*
X119091158Y-71795481D01*
X119074322Y-71845989D01*
X119074322Y-71913332D01*
X119107994Y-71980676D01*
X119192174Y-72064855D01*
X118653425Y-71526107D02*
X118855456Y-71728138D01*
X118754441Y-71627122D02*
X119107994Y-71273569D01*
X119091158Y-71357748D01*
X119091158Y-71425092D01*
X119107994Y-71475599D01*
X118788112Y-70953687D02*
X118754441Y-70920016D01*
X118703933Y-70903180D01*
X118670261Y-70903180D01*
X118619754Y-70920016D01*
X118535574Y-70970523D01*
X118451395Y-71054703D01*
X118400887Y-71138882D01*
X118384051Y-71189390D01*
X118384051Y-71223061D01*
X118400887Y-71273569D01*
X118434559Y-71307241D01*
X118485067Y-71324077D01*
X118518738Y-71324077D01*
X118569246Y-71307241D01*
X118653425Y-71256733D01*
X118737605Y-71172554D01*
X118788112Y-71088374D01*
X118804948Y-71037867D01*
X118804948Y-71004195D01*
X118788112Y-70953687D01*
X122121170Y-77533287D02*
X122583110Y-77341945D01*
X122537552Y-77231959D01*
X122488221Y-77175079D01*
X122426004Y-77149308D01*
X122372898Y-77145534D01*
X122275798Y-77159983D01*
X122209806Y-77187318D01*
X122130929Y-77245761D01*
X122096047Y-77285981D01*
X122070275Y-77348198D01*
X122075613Y-77423301D01*
X122121170Y-77533287D01*
X121829602Y-76829378D02*
X121938940Y-77093344D01*
X121884271Y-76961361D02*
X122346211Y-76770020D01*
X122298442Y-76841348D01*
X122272671Y-76903566D01*
X122268897Y-76956671D01*
X121647372Y-76389436D02*
X121756710Y-76653401D01*
X121702041Y-76521419D02*
X122163981Y-76330077D01*
X122116212Y-76401406D01*
X122090441Y-76463623D01*
X122086667Y-76516729D01*
X122552590Y-79758457D02*
X122052590Y-79758457D01*
X122052590Y-79877504D01*
X122076400Y-79948933D01*
X122124019Y-79996552D01*
X122171638Y-80020361D01*
X122266876Y-80044171D01*
X122338304Y-80044171D01*
X122433542Y-80020361D01*
X122481161Y-79996552D01*
X122528780Y-79948933D01*
X122552590Y-79877504D01*
X122552590Y-79758457D01*
X122552590Y-80520361D02*
X122552590Y-80234647D01*
X122552590Y-80377504D02*
X122052590Y-80377504D01*
X122124019Y-80329885D01*
X122171638Y-80282266D01*
X122195447Y-80234647D01*
X122100209Y-80710838D02*
X122076400Y-80734647D01*
X122052590Y-80782266D01*
X122052590Y-80901314D01*
X122076400Y-80948933D01*
X122100209Y-80972742D01*
X122147828Y-80996552D01*
X122195447Y-80996552D01*
X122266876Y-80972742D01*
X122552590Y-80687028D01*
X122552590Y-80996552D01*
X121751716Y-84463232D02*
X121289776Y-84271890D01*
X121244218Y-84381876D01*
X121238881Y-84456979D01*
X121264652Y-84519196D01*
X121299535Y-84559416D01*
X121378412Y-84617859D01*
X121444403Y-84645194D01*
X121541503Y-84659643D01*
X121594609Y-84655869D01*
X121656827Y-84630098D01*
X121706158Y-84573218D01*
X121751716Y-84463232D01*
X121460147Y-85167140D02*
X121569486Y-84903175D01*
X121514816Y-85035157D02*
X121052877Y-84843816D01*
X121137091Y-84827156D01*
X121199308Y-84801385D01*
X121239529Y-84766502D01*
X120934427Y-85129778D02*
X120815977Y-85415741D01*
X121055735Y-85334653D01*
X121028401Y-85400645D01*
X121032175Y-85453750D01*
X121045060Y-85484859D01*
X121079943Y-85525079D01*
X121189929Y-85570637D01*
X121243034Y-85566863D01*
X121274143Y-85553977D01*
X121314363Y-85519094D01*
X121369032Y-85387112D01*
X121365258Y-85334006D01*
X121352373Y-85302897D01*
X119080254Y-88630625D02*
X118726701Y-88277072D01*
X118642521Y-88361251D01*
X118608850Y-88428595D01*
X118608850Y-88495938D01*
X118625686Y-88546446D01*
X118676193Y-88630625D01*
X118726701Y-88681133D01*
X118810880Y-88731641D01*
X118861388Y-88748477D01*
X118928731Y-88748477D01*
X118996075Y-88714805D01*
X119080254Y-88630625D01*
X118541506Y-89169374D02*
X118743537Y-88967343D01*
X118642521Y-89068358D02*
X118288968Y-88714805D01*
X118373147Y-88731641D01*
X118440491Y-88731641D01*
X118490998Y-88714805D01*
X118002758Y-89236717D02*
X118238460Y-89472419D01*
X117952250Y-89017851D02*
X118288968Y-89186209D01*
X118070102Y-89405076D01*
X114998286Y-91492828D02*
X114806944Y-91030888D01*
X114696958Y-91076446D01*
X114640078Y-91125777D01*
X114614307Y-91187994D01*
X114610533Y-91241100D01*
X114624982Y-91338200D01*
X114652317Y-91404192D01*
X114710760Y-91483069D01*
X114750980Y-91517951D01*
X114813197Y-91543723D01*
X114888300Y-91538385D01*
X114998286Y-91492828D01*
X114294377Y-91784396D02*
X114558343Y-91675058D01*
X114426360Y-91729727D02*
X114235019Y-91267787D01*
X114306347Y-91315556D01*
X114368565Y-91341327D01*
X114421670Y-91345101D01*
X113685090Y-91495575D02*
X113905062Y-91404460D01*
X114018174Y-91615320D01*
X113987065Y-91602434D01*
X113933959Y-91598660D01*
X113823974Y-91644218D01*
X113789091Y-91684438D01*
X113776205Y-91715546D01*
X113772431Y-91768652D01*
X113817989Y-91878638D01*
X113858209Y-91913521D01*
X113889318Y-91926406D01*
X113942423Y-91930180D01*
X114052409Y-91884623D01*
X114087292Y-91844403D01*
X114100177Y-91813294D01*
X110563742Y-92428190D02*
X110563742Y-91928190D01*
X110444695Y-91928190D01*
X110373266Y-91952000D01*
X110325647Y-91999619D01*
X110301838Y-92047238D01*
X110278028Y-92142476D01*
X110278028Y-92213904D01*
X110301838Y-92309142D01*
X110325647Y-92356761D01*
X110373266Y-92404380D01*
X110444695Y-92428190D01*
X110563742Y-92428190D01*
X109801838Y-92428190D02*
X110087552Y-92428190D01*
X109944695Y-92428190D02*
X109944695Y-91928190D01*
X109992314Y-91999619D01*
X110039933Y-92047238D01*
X110087552Y-92071047D01*
X109373266Y-91928190D02*
X109468504Y-91928190D01*
X109516123Y-91952000D01*
X109539933Y-91975809D01*
X109587552Y-92047238D01*
X109611361Y-92142476D01*
X109611361Y-92332952D01*
X109587552Y-92380571D01*
X109563742Y-92404380D01*
X109516123Y-92428190D01*
X109420885Y-92428190D01*
X109373266Y-92404380D01*
X109349457Y-92380571D01*
X109325647Y-92332952D01*
X109325647Y-92213904D01*
X109349457Y-92166285D01*
X109373266Y-92142476D01*
X109420885Y-92118666D01*
X109516123Y-92118666D01*
X109563742Y-92142476D01*
X109587552Y-92166285D01*
X109611361Y-92213904D01*
X105576669Y-91744179D02*
X105768010Y-91282239D01*
X105658025Y-91236681D01*
X105582922Y-91231344D01*
X105520705Y-91257115D01*
X105480484Y-91291998D01*
X105422041Y-91370875D01*
X105394707Y-91436866D01*
X105380258Y-91533966D01*
X105384032Y-91587072D01*
X105409803Y-91649289D01*
X105466683Y-91698621D01*
X105576669Y-91744179D01*
X104872760Y-91452610D02*
X105136726Y-91561948D01*
X105004743Y-91507279D02*
X105196085Y-91045340D01*
X105212745Y-91129554D01*
X105238516Y-91191771D01*
X105273399Y-91231991D01*
X101419072Y-89157470D02*
X101772625Y-88803917D01*
X101688446Y-88719738D01*
X101621102Y-88686066D01*
X101553759Y-88686066D01*
X101503251Y-88702902D01*
X101419072Y-88753409D01*
X101368564Y-88803917D01*
X101318057Y-88888096D01*
X101301221Y-88938604D01*
X101301221Y-89005948D01*
X101334892Y-89073291D01*
X101419072Y-89157470D01*
X101402236Y-88500871D02*
X101402236Y-88467199D01*
X101385400Y-88416692D01*
X101301221Y-88332512D01*
X101250713Y-88315677D01*
X101217041Y-88315677D01*
X101166534Y-88332512D01*
X101132862Y-88366184D01*
X101099190Y-88433528D01*
X101099190Y-88837589D01*
X100880324Y-88618722D01*
X98567844Y-85176620D02*
X99029784Y-84985279D01*
X98984226Y-84875293D01*
X98934895Y-84818413D01*
X98872677Y-84792642D01*
X98819572Y-84788868D01*
X98722472Y-84803317D01*
X98656480Y-84830651D01*
X98577603Y-84889094D01*
X98542720Y-84929315D01*
X98516949Y-84991532D01*
X98522287Y-85066635D01*
X98567844Y-85176620D01*
X98856665Y-84567333D02*
X98738216Y-84281370D01*
X98626019Y-84508242D01*
X98598685Y-84442251D01*
X98558464Y-84407368D01*
X98527356Y-84394483D01*
X98474250Y-84390709D01*
X98364264Y-84436266D01*
X98329382Y-84476486D01*
X98316496Y-84507595D01*
X98312722Y-84560701D01*
X98367391Y-84692683D01*
X98407611Y-84727566D01*
X98438720Y-84740452D01*
X97909439Y-79669582D02*
X97409439Y-79669582D01*
X97409439Y-79788630D01*
X97433249Y-79860058D01*
X97480868Y-79907677D01*
X97528487Y-79931487D01*
X97623725Y-79955296D01*
X97695153Y-79955296D01*
X97790391Y-79931487D01*
X97838010Y-79907677D01*
X97885629Y-79860058D01*
X97909439Y-79788630D01*
X97909439Y-79669582D01*
X97576106Y-80383868D02*
X97909439Y-80383868D01*
X97385629Y-80264820D02*
X97742772Y-80145772D01*
X97742772Y-80455296D01*
X98419601Y-76377403D02*
X97957661Y-76186062D01*
X97912103Y-76296047D01*
X97906766Y-76371150D01*
X97932537Y-76433367D01*
X97967420Y-76473588D01*
X98046297Y-76532031D01*
X98112288Y-76559365D01*
X98209388Y-76573814D01*
X98262494Y-76570040D01*
X98324711Y-76544269D01*
X98374043Y-76487389D01*
X98419601Y-76377403D01*
X97675204Y-76867973D02*
X97766319Y-76648001D01*
X97995402Y-76717119D01*
X97964293Y-76730005D01*
X97924073Y-76764888D01*
X97878516Y-76874873D01*
X97882290Y-76927979D01*
X97895175Y-76959088D01*
X97930058Y-76999308D01*
X98040044Y-77044865D01*
X98093150Y-77041091D01*
X98124258Y-77028206D01*
X98164478Y-76993323D01*
X98210036Y-76883337D01*
X98206262Y-76830232D01*
X98193376Y-76799123D01*
X101684322Y-71217041D02*
X101330769Y-70863488D01*
X101246590Y-70947667D01*
X101212918Y-71015011D01*
X101212918Y-71082354D01*
X101229754Y-71132862D01*
X101280261Y-71217041D01*
X101330769Y-71267549D01*
X101414948Y-71318057D01*
X101465456Y-71334892D01*
X101532800Y-71334892D01*
X101600143Y-71301221D01*
X101684322Y-71217041D01*
X100825693Y-71368564D02*
X100893036Y-71301221D01*
X100943544Y-71284385D01*
X100977216Y-71284385D01*
X101061395Y-71301221D01*
X101145574Y-71351728D01*
X101280261Y-71486415D01*
X101297097Y-71536923D01*
X101297097Y-71570595D01*
X101280261Y-71621102D01*
X101212918Y-71688446D01*
X101162410Y-71705282D01*
X101128738Y-71705282D01*
X101078231Y-71688446D01*
X100994051Y-71604266D01*
X100977216Y-71553759D01*
X100977216Y-71520087D01*
X100994051Y-71469579D01*
X101061395Y-71402236D01*
X101111903Y-71385400D01*
X101145574Y-71385400D01*
X101196082Y-71402236D01*
X105678408Y-68703333D02*
X105487067Y-68241393D01*
X105377081Y-68286951D01*
X105320201Y-68336282D01*
X105294430Y-68398500D01*
X105290656Y-68451605D01*
X105305105Y-68548705D01*
X105332439Y-68614697D01*
X105390882Y-68693574D01*
X105431103Y-68728457D01*
X105493320Y-68754228D01*
X105568423Y-68748890D01*
X105678408Y-68703333D01*
X105069121Y-68414512D02*
X104761161Y-68542073D01*
X105150477Y-68922009D01*
X110330417Y-67909439D02*
X110330417Y-67409439D01*
X110211370Y-67409439D01*
X110139941Y-67433249D01*
X110092322Y-67480868D01*
X110068512Y-67528487D01*
X110044703Y-67623725D01*
X110044703Y-67695153D01*
X110068512Y-67790391D01*
X110092322Y-67838010D01*
X110139941Y-67885629D01*
X110211370Y-67909439D01*
X110330417Y-67909439D01*
X109758989Y-67623725D02*
X109806608Y-67599915D01*
X109830417Y-67576106D01*
X109854227Y-67528487D01*
X109854227Y-67504677D01*
X109830417Y-67457058D01*
X109806608Y-67433249D01*
X109758989Y-67409439D01*
X109663750Y-67409439D01*
X109616131Y-67433249D01*
X109592322Y-67457058D01*
X109568512Y-67504677D01*
X109568512Y-67528487D01*
X109592322Y-67576106D01*
X109616131Y-67599915D01*
X109663750Y-67623725D01*
X109758989Y-67623725D01*
X109806608Y-67647534D01*
X109830417Y-67671344D01*
X109854227Y-67718963D01*
X109854227Y-67814201D01*
X109830417Y-67861820D01*
X109806608Y-67885629D01*
X109758989Y-67909439D01*
X109663750Y-67909439D01*
X109616131Y-67885629D01*
X109592322Y-67861820D01*
X109568512Y-67814201D01*
X109568512Y-67718963D01*
X109592322Y-67671344D01*
X109616131Y-67647534D01*
X109663750Y-67623725D01*
M02*
