M48
; DRILL file {KiCad (5.1.4)-1} date 2020/9/2 0:42:53
; FORMAT={-:-/ absolute / inch / decimal}
; #@! TF.CreationDate,2020-09-02T00:42:53-07:00
; #@! TF.GenerationSoftware,Kicad,Pcbnew,(5.1.4)-1
FMAT,2
INCH
T1C0.0079
T2C0.0256
%
G90
G05
T1
X3.955Y-2.83
X3.988Y-2.873
X4.1074Y-2.7044
X4.14Y-2.696
X4.167Y-2.683
X4.2422Y-2.6882
X4.312Y-2.653
X4.352Y-2.681
X4.425Y-2.699
X4.463Y-2.707
X4.47Y-2.653
X4.4711Y-2.6811
X4.609Y-2.794
X4.611Y-2.759
X4.612Y-2.727
T2
X3.898Y-2.8887
X3.898Y-2.9387
X3.898Y-2.9887
X4.7615Y-2.9387
X4.7615Y-2.9887
T0
M30
