G04 #@! TF.GenerationSoftware,KiCad,Pcbnew,(5.1.6)-1*
G04 #@! TF.CreationDate,2020-09-08T11:46:21-07:00*
G04 #@! TF.ProjectId,LED_Ring,4c45445f-5269-46e6-972e-6b696361645f,rev?*
G04 #@! TF.SameCoordinates,Original*
G04 #@! TF.FileFunction,Paste,Bot*
G04 #@! TF.FilePolarity,Positive*
%FSLAX46Y46*%
G04 Gerber Fmt 4.6, Leading zero omitted, Abs format (unit mm)*
G04 Created by KiCad (PCBNEW (5.1.6)-1) date 2020-09-08 11:46:21*
%MOMM*%
%LPD*%
G01*
G04 APERTURE LIST*
G04 APERTURE END LIST*
G36*
G01*
X114940931Y-67156943D02*
X114744806Y-67630431D01*
G75*
G02*
X114458995Y-67748818I-202099J83712D01*
G01*
X114054798Y-67581394D01*
G75*
G02*
X113936411Y-67295583I83712J202099D01*
G01*
X114132536Y-66822095D01*
G75*
G02*
X114418347Y-66703708I202099J-83712D01*
G01*
X114822544Y-66871132D01*
G75*
G02*
X114940931Y-67156943I-83712J-202099D01*
G01*
G37*
G36*
G01*
X116396041Y-67759669D02*
X116199916Y-68233157D01*
G75*
G02*
X115914105Y-68351544I-202099J83712D01*
G01*
X115509908Y-68184120D01*
G75*
G02*
X115391521Y-67898309I83712J202099D01*
G01*
X115587646Y-67424821D01*
G75*
G02*
X115873457Y-67306434I202099J-83712D01*
G01*
X116277654Y-67473858D01*
G75*
G02*
X116396041Y-67759669I-83712J-202099D01*
G01*
G37*
G36*
G01*
X119479650Y-70025374D02*
X119117258Y-70387767D01*
G75*
G02*
X118807898Y-70387767I-154680J154680D01*
G01*
X118498539Y-70078408D01*
G75*
G02*
X118498539Y-69769048I154680J154680D01*
G01*
X118860932Y-69406655D01*
G75*
G02*
X119170292Y-69406655I154680J-154680D01*
G01*
X119479651Y-69716014D01*
G75*
G02*
X119479651Y-70025374I-154680J-154680D01*
G01*
G37*
G36*
G01*
X120593344Y-71139068D02*
X120230952Y-71501461D01*
G75*
G02*
X119921592Y-71501461I-154680J154680D01*
G01*
X119612233Y-71192102D01*
G75*
G02*
X119612233Y-70882742I154680J154680D01*
G01*
X119974626Y-70520349D01*
G75*
G02*
X120283986Y-70520349I154680J-154680D01*
G01*
X120593345Y-70829708D01*
G75*
G02*
X120593345Y-71139068I-154680J-154680D01*
G01*
G37*
G36*
G01*
X122575179Y-74412354D02*
X122101691Y-74608479D01*
G75*
G02*
X121815880Y-74490092I-83712J202099D01*
G01*
X121648456Y-74085895D01*
G75*
G02*
X121766843Y-73800084I202099J83712D01*
G01*
X122240331Y-73603959D01*
G75*
G02*
X122526142Y-73722346I83712J-202099D01*
G01*
X122693566Y-74126543D01*
G75*
G02*
X122575179Y-74412354I-202099J-83712D01*
G01*
G37*
G36*
G01*
X123177905Y-75867464D02*
X122704417Y-76063589D01*
G75*
G02*
X122418606Y-75945202I-83712J202099D01*
G01*
X122251182Y-75541005D01*
G75*
G02*
X122369569Y-75255194I202099J83712D01*
G01*
X122843057Y-75059069D01*
G75*
G02*
X123128868Y-75177456I83712J-202099D01*
G01*
X123296292Y-75581653D01*
G75*
G02*
X123177905Y-75867464I-202099J-83712D01*
G01*
G37*
G36*
G01*
X123756250Y-79650000D02*
X123243750Y-79650000D01*
G75*
G02*
X123025000Y-79431250I0J218750D01*
G01*
X123025000Y-78993750D01*
G75*
G02*
X123243750Y-78775000I218750J0D01*
G01*
X123756250Y-78775000D01*
G75*
G02*
X123975000Y-78993750I0J-218750D01*
G01*
X123975000Y-79431250D01*
G75*
G02*
X123756250Y-79650000I-218750J0D01*
G01*
G37*
G36*
G01*
X123756250Y-81225000D02*
X123243750Y-81225000D01*
G75*
G02*
X123025000Y-81006250I0J218750D01*
G01*
X123025000Y-80568750D01*
G75*
G02*
X123243750Y-80350000I218750J0D01*
G01*
X123756250Y-80350000D01*
G75*
G02*
X123975000Y-80568750I0J-218750D01*
G01*
X123975000Y-81006250D01*
G75*
G02*
X123756250Y-81225000I-218750J0D01*
G01*
G37*
G36*
G01*
X122843057Y-84940931D02*
X122369569Y-84744806D01*
G75*
G02*
X122251182Y-84458995I83712J202099D01*
G01*
X122418606Y-84054798D01*
G75*
G02*
X122704417Y-83936411I202099J-83712D01*
G01*
X123177905Y-84132536D01*
G75*
G02*
X123296292Y-84418347I-83712J-202099D01*
G01*
X123128868Y-84822544D01*
G75*
G02*
X122843057Y-84940931I-202099J83712D01*
G01*
G37*
G36*
G01*
X122240331Y-86396041D02*
X121766843Y-86199916D01*
G75*
G02*
X121648456Y-85914105I83712J202099D01*
G01*
X121815880Y-85509908D01*
G75*
G02*
X122101691Y-85391521I202099J-83712D01*
G01*
X122575179Y-85587646D01*
G75*
G02*
X122693566Y-85873457I-83712J-202099D01*
G01*
X122526142Y-86277654D01*
G75*
G02*
X122240331Y-86396041I-202099J83712D01*
G01*
G37*
G36*
G01*
X119974626Y-89479650D02*
X119612233Y-89117258D01*
G75*
G02*
X119612233Y-88807898I154680J154680D01*
G01*
X119921592Y-88498539D01*
G75*
G02*
X120230952Y-88498539I154680J-154680D01*
G01*
X120593345Y-88860932D01*
G75*
G02*
X120593345Y-89170292I-154680J-154680D01*
G01*
X120283986Y-89479651D01*
G75*
G02*
X119974626Y-89479651I-154680J154680D01*
G01*
G37*
G36*
G01*
X118860932Y-90593344D02*
X118498539Y-90230952D01*
G75*
G02*
X118498539Y-89921592I154680J154680D01*
G01*
X118807898Y-89612233D01*
G75*
G02*
X119117258Y-89612233I154680J-154680D01*
G01*
X119479651Y-89974626D01*
G75*
G02*
X119479651Y-90283986I-154680J-154680D01*
G01*
X119170292Y-90593345D01*
G75*
G02*
X118860932Y-90593345I-154680J154680D01*
G01*
G37*
G36*
G01*
X115587646Y-92575179D02*
X115391521Y-92101691D01*
G75*
G02*
X115509908Y-91815880I202099J83712D01*
G01*
X115914105Y-91648456D01*
G75*
G02*
X116199916Y-91766843I83712J-202099D01*
G01*
X116396041Y-92240331D01*
G75*
G02*
X116277654Y-92526142I-202099J-83712D01*
G01*
X115873457Y-92693566D01*
G75*
G02*
X115587646Y-92575179I-83712J202099D01*
G01*
G37*
G36*
G01*
X114132536Y-93177905D02*
X113936411Y-92704417D01*
G75*
G02*
X114054798Y-92418606I202099J83712D01*
G01*
X114458995Y-92251182D01*
G75*
G02*
X114744806Y-92369569I83712J-202099D01*
G01*
X114940931Y-92843057D01*
G75*
G02*
X114822544Y-93128868I-202099J-83712D01*
G01*
X114418347Y-93296292D01*
G75*
G02*
X114132536Y-93177905I-83712J202099D01*
G01*
G37*
G36*
G01*
X110350000Y-93756250D02*
X110350000Y-93243750D01*
G75*
G02*
X110568750Y-93025000I218750J0D01*
G01*
X111006250Y-93025000D01*
G75*
G02*
X111225000Y-93243750I0J-218750D01*
G01*
X111225000Y-93756250D01*
G75*
G02*
X111006250Y-93975000I-218750J0D01*
G01*
X110568750Y-93975000D01*
G75*
G02*
X110350000Y-93756250I0J218750D01*
G01*
G37*
G36*
G01*
X108775000Y-93756250D02*
X108775000Y-93243750D01*
G75*
G02*
X108993750Y-93025000I218750J0D01*
G01*
X109431250Y-93025000D01*
G75*
G02*
X109650000Y-93243750I0J-218750D01*
G01*
X109650000Y-93756250D01*
G75*
G02*
X109431250Y-93975000I-218750J0D01*
G01*
X108993750Y-93975000D01*
G75*
G02*
X108775000Y-93756250I0J218750D01*
G01*
G37*
G36*
G01*
X104608479Y-92101691D02*
X104412354Y-92575179D01*
G75*
G02*
X104126543Y-92693566I-202099J83712D01*
G01*
X103722346Y-92526142D01*
G75*
G02*
X103603959Y-92240331I83712J202099D01*
G01*
X103800084Y-91766843D01*
G75*
G02*
X104085895Y-91648456I202099J-83712D01*
G01*
X104490092Y-91815880D01*
G75*
G02*
X104608479Y-92101691I-83712J-202099D01*
G01*
G37*
G36*
G01*
X106063589Y-92704417D02*
X105867464Y-93177905D01*
G75*
G02*
X105581653Y-93296292I-202099J83712D01*
G01*
X105177456Y-93128868D01*
G75*
G02*
X105059069Y-92843057I83712J202099D01*
G01*
X105255194Y-92369569D01*
G75*
G02*
X105541005Y-92251182I202099J-83712D01*
G01*
X105945202Y-92418606D01*
G75*
G02*
X106063589Y-92704417I-83712J-202099D01*
G01*
G37*
G36*
G01*
X100387766Y-89117258D02*
X100025374Y-89479651D01*
G75*
G02*
X99716014Y-89479651I-154680J154680D01*
G01*
X99406655Y-89170292D01*
G75*
G02*
X99406655Y-88860932I154680J154680D01*
G01*
X99769048Y-88498539D01*
G75*
G02*
X100078408Y-88498539I154680J-154680D01*
G01*
X100387767Y-88807898D01*
G75*
G02*
X100387767Y-89117258I-154680J-154680D01*
G01*
G37*
G36*
G01*
X101501460Y-90230952D02*
X101139068Y-90593345D01*
G75*
G02*
X100829708Y-90593345I-154680J154680D01*
G01*
X100520349Y-90283986D01*
G75*
G02*
X100520349Y-89974626I154680J154680D01*
G01*
X100882742Y-89612233D01*
G75*
G02*
X101192102Y-89612233I154680J-154680D01*
G01*
X101501461Y-89921592D01*
G75*
G02*
X101501461Y-90230952I-154680J-154680D01*
G01*
G37*
G36*
G01*
X97630431Y-84744806D02*
X97156943Y-84940931D01*
G75*
G02*
X96871132Y-84822544I-83712J202099D01*
G01*
X96703708Y-84418347D01*
G75*
G02*
X96822095Y-84132536I202099J83712D01*
G01*
X97295583Y-83936411D01*
G75*
G02*
X97581394Y-84054798I83712J-202099D01*
G01*
X97748818Y-84458995D01*
G75*
G02*
X97630431Y-84744806I-202099J-83712D01*
G01*
G37*
G36*
G01*
X98233157Y-86199916D02*
X97759669Y-86396041D01*
G75*
G02*
X97473858Y-86277654I-83712J202099D01*
G01*
X97306434Y-85873457D01*
G75*
G02*
X97424821Y-85587646I202099J83712D01*
G01*
X97898309Y-85391521D01*
G75*
G02*
X98184120Y-85509908I83712J-202099D01*
G01*
X98351544Y-85914105D01*
G75*
G02*
X98233157Y-86199916I-202099J-83712D01*
G01*
G37*
G36*
G01*
X96756250Y-79650000D02*
X96243750Y-79650000D01*
G75*
G02*
X96025000Y-79431250I0J218750D01*
G01*
X96025000Y-78993750D01*
G75*
G02*
X96243750Y-78775000I218750J0D01*
G01*
X96756250Y-78775000D01*
G75*
G02*
X96975000Y-78993750I0J-218750D01*
G01*
X96975000Y-79431250D01*
G75*
G02*
X96756250Y-79650000I-218750J0D01*
G01*
G37*
G36*
G01*
X96756250Y-81225000D02*
X96243750Y-81225000D01*
G75*
G02*
X96025000Y-81006250I0J218750D01*
G01*
X96025000Y-80568750D01*
G75*
G02*
X96243750Y-80350000I218750J0D01*
G01*
X96756250Y-80350000D01*
G75*
G02*
X96975000Y-80568750I0J-218750D01*
G01*
X96975000Y-81006250D01*
G75*
G02*
X96756250Y-81225000I-218750J0D01*
G01*
G37*
G36*
G01*
X97898309Y-74608479D02*
X97424821Y-74412354D01*
G75*
G02*
X97306434Y-74126543I83712J202099D01*
G01*
X97473858Y-73722346D01*
G75*
G02*
X97759669Y-73603959I202099J-83712D01*
G01*
X98233157Y-73800084D01*
G75*
G02*
X98351544Y-74085895I-83712J-202099D01*
G01*
X98184120Y-74490092D01*
G75*
G02*
X97898309Y-74608479I-202099J83712D01*
G01*
G37*
G36*
G01*
X97295583Y-76063589D02*
X96822095Y-75867464D01*
G75*
G02*
X96703708Y-75581653I83712J202099D01*
G01*
X96871132Y-75177456D01*
G75*
G02*
X97156943Y-75059069I202099J-83712D01*
G01*
X97630431Y-75255194D01*
G75*
G02*
X97748818Y-75541005I-83712J-202099D01*
G01*
X97581394Y-75945202D01*
G75*
G02*
X97295583Y-76063589I-202099J83712D01*
G01*
G37*
G36*
G01*
X100882742Y-70387766D02*
X100520349Y-70025374D01*
G75*
G02*
X100520349Y-69716014I154680J154680D01*
G01*
X100829708Y-69406655D01*
G75*
G02*
X101139068Y-69406655I154680J-154680D01*
G01*
X101501461Y-69769048D01*
G75*
G02*
X101501461Y-70078408I-154680J-154680D01*
G01*
X101192102Y-70387767D01*
G75*
G02*
X100882742Y-70387767I-154680J154680D01*
G01*
G37*
G36*
G01*
X99769048Y-71501460D02*
X99406655Y-71139068D01*
G75*
G02*
X99406655Y-70829708I154680J154680D01*
G01*
X99716014Y-70520349D01*
G75*
G02*
X100025374Y-70520349I154680J-154680D01*
G01*
X100387767Y-70882742D01*
G75*
G02*
X100387767Y-71192102I-154680J-154680D01*
G01*
X100078408Y-71501461D01*
G75*
G02*
X99769048Y-71501461I-154680J154680D01*
G01*
G37*
G36*
G01*
X105255194Y-67630431D02*
X105059069Y-67156943D01*
G75*
G02*
X105177456Y-66871132I202099J83712D01*
G01*
X105581653Y-66703708D01*
G75*
G02*
X105867464Y-66822095I83712J-202099D01*
G01*
X106063589Y-67295583D01*
G75*
G02*
X105945202Y-67581394I-202099J-83712D01*
G01*
X105541005Y-67748818D01*
G75*
G02*
X105255194Y-67630431I-83712J202099D01*
G01*
G37*
G36*
G01*
X103800084Y-68233157D02*
X103603959Y-67759669D01*
G75*
G02*
X103722346Y-67473858I202099J83712D01*
G01*
X104126543Y-67306434D01*
G75*
G02*
X104412354Y-67424821I83712J-202099D01*
G01*
X104608479Y-67898309D01*
G75*
G02*
X104490092Y-68184120I-202099J-83712D01*
G01*
X104085895Y-68351544D01*
G75*
G02*
X103800084Y-68233157I-83712J202099D01*
G01*
G37*
G36*
G01*
X108775000Y-66756250D02*
X108775000Y-66243750D01*
G75*
G02*
X108993750Y-66025000I218750J0D01*
G01*
X109431250Y-66025000D01*
G75*
G02*
X109650000Y-66243750I0J-218750D01*
G01*
X109650000Y-66756250D01*
G75*
G02*
X109431250Y-66975000I-218750J0D01*
G01*
X108993750Y-66975000D01*
G75*
G02*
X108775000Y-66756250I0J218750D01*
G01*
G37*
G36*
G01*
X110350000Y-66756250D02*
X110350000Y-66243750D01*
G75*
G02*
X110568750Y-66025000I218750J0D01*
G01*
X111006250Y-66025000D01*
G75*
G02*
X111225000Y-66243750I0J-218750D01*
G01*
X111225000Y-66756250D01*
G75*
G02*
X111006250Y-66975000I-218750J0D01*
G01*
X110568750Y-66975000D01*
G75*
G02*
X110350000Y-66756250I0J218750D01*
G01*
G37*
M02*
